<svg xmlns="http://www.w3.org/2000/svg" width="4" height="8" viewBox="0 0 4 8">
  <defs>
    <style>
      .cls-1 {
        fill: #162648;
        fill-rule: evenodd;
        opacity: 0.6;
      }
    </style>
  </defs>
  <path id="arrow" class="cls-1" d="M262.437,314a0.359,0.359,0,0,0-.4.25H262.02a0.6,0.6,0,0,0-.015.219h0.015v0.046h0.015l0.015,0.063,0.029,0.015v0.032l0.03,0.015,0.06,0.079c0.015,0.01.03,0.02,0.044,0.031v0.031c0.09,0.088.179,0.177,0.268,0.266v0.031c0.04,0.036.08,0.072,0.119,0.109,0.08,0.093.159,0.187,0.238,0.281,0.06,0.057.12,0.114,0.179,0.172v0.031l0.238,0.234v0.016l0.03,0.015v0.032l0.268,0.265v0.031l0.268,0.265v0.032l0.268,0.265v0.031l0.267,0.266v0.031l0.238,0.235V317.4l0.03,0.016v0.03l0.134,0.125,0.09,0.11,0.044,0.031,0.015,0.047a0.942,0.942,0,0,1,.223.25,0.49,0.49,0,0,0-.089.093l-0.149.141v0.031l-0.03.016c-0.014.02-.029,0.042-0.044,0.062l-0.194.187v0.032l-0.03.015c-0.024.032-.049,0.063-0.074,0.094l-0.149.14v0.032l-0.268.265v0.032l-0.267.265v0.031l-0.239.234V319.7l-0.029.016v0.03l-0.283.282v0.031l-0.253.25v0.031l-0.268.265v0.032l-0.268.265v0.031l-0.268.266v0.031l-0.044.031-0.075.094-0.03.016v0.03a0.269,0.269,0,0,1-.029.016l-0.015.062H262.02v0.047a0.393,0.393,0,0,0,.268.469,0.479,0.479,0,0,0,.268-0.047l0.178-.172v-0.03l0.194-.188,0.044-.063,0.03-.016v-0.031l0.06-.047,0.134-.156,0.074-.062V321.15l0.06-.047c0.034-.042.069-0.083,0.1-0.125l0.1-.094v-0.031l0.268-.265v-0.032l0.253-.249v-0.031l0.163-.157,0.075-.093,0.03-.016v-0.031l0.267-.265v-0.032l0.239-.234v-0.016l0.029-.015v-0.031l0.283-.282v-0.03l0.253-.251v-0.031l0.149-.14c0.03-.036.059-0.073,0.089-0.11l0.045-.031V318.48l0.223-.218V318.23l0.045-.031a0.525,0.525,0,0,0,.044-0.281h-0.014v-0.063h-0.015l-0.015-.062-0.045-.031v-0.031l-0.059-.047-0.105-.125-0.074-.063v-0.031L265.4,317.2v-0.032l-0.164-.155c-0.024-.032-0.049-0.063-0.074-0.094l-0.03-.016v-0.031l-0.208-.2-0.045-.062h-0.015v-0.032l-0.268-.265v-0.031l-0.267-.265v-0.032l-0.164-.156-0.074-.093-0.03-.016v-0.031l-0.268-.266v-0.031l-0.119-.109L263.434,315l-0.179-.172V314.8l-0.164-.156-0.074-.093-0.03-.016V314.5l-0.208-.2c-0.06-.073-0.119-0.146-0.179-0.218h-0.029l-0.015-.032h-0.03v-0.015l-0.089-.016V314Z" transform="translate(-262 -314)"/>
</svg>
