<svg xmlns="http://www.w3.org/2000/svg" width="18" height="18" viewBox="0 0 18 18">
  <defs>
    <style>
      .cls-1 {
        fill: #162648;
        fill-rule: evenodd;
  
      }
    </style>
  </defs>
  <path id="delete" class="cls-1" d="M1609.44,912a8.885,8.885,0,0,1,4.52.948h0.07v0.035h0.07v0.035h0.07v0.035h0.07v0.035h0.07v0.036h0.07a0.237,0.237,0,0,1,.04.07h0.07v0.035l0.14,0.035V913.3c0.03,0.012.07,0.024,0.1,0.035a0.265,0.265,0,0,1,.04.07c0.05,0.012.09,0.024,0.14,0.035l0.03,0.071h0.08l0.03,0.07h0.07c0.02,0.035.05,0.07,0.07,0.105h0.07c0.02,0.035.05,0.07,0.07,0.106h0.07c0.02,0.035.05,0.07,0.07,0.105h0.07c0.04,0.047.07,0.094,0.11,0.14h0.07a2.155,2.155,0,0,0,.14.176h0.07l0.45,0.491c0.12,0.106.24,0.211,0.35,0.317v0.07l0.21,0.175a0.469,0.469,0,0,1,.04.1c0.03,0.024.07,0.047,0.1,0.071v0.07c0.04,0.023.07,0.047,0.11,0.07l0.03,0.105a0.449,0.449,0,0,1,.07.036v0.07a0.454,0.454,0,0,1,.07.035v0.07c0.04,0.024.07,0.047,0.11,0.07a0.746,0.746,0,0,0,.04.141,0.567,0.567,0,0,0,.07.035v0.07a0.379,0.379,0,0,0,.07.035v0.071a0.567,0.567,0,0,0,.07.035,1.723,1.723,0,0,0,.07.21,0.379,0.379,0,0,0,.07.035v0.07h0.03v0.071h0.04v0.07h0.03v0.07H1618v0.07h0.03v0.071h0.04v0.07h0.03v0.07h0.04a1.737,1.737,0,0,0,.07.211h0.03v0.105h0.04l0.03,0.141h0.04l0.03,0.21h0.04v0.07h0.03c0.12,0.41.24,0.819,0.35,1.229v0.176h0.04v0.21h0.03v0.211h0.04v0.281h0.03v0.421h0.04a4.62,4.62,0,0,1-.04,1.124l-0.03.7h-0.04v0.211h-0.03v0.21h-0.04v0.176h-0.03v0.14h-0.04v0.176h-0.03c-0.03.128-.05,0.257-0.07,0.386h-0.04v0.105h-0.03v0.106h-0.04v0.105h-0.03c-0.01.07-.03,0.14-0.04,0.211h-0.03v0.07h-0.04l-0.03.21h-0.04l-0.03.141h-0.04v0.105h-0.03a1.737,1.737,0,0,0-.07.211h-0.04v0.07h-0.03v0.07h-0.04v0.07H1618V925.1h-0.04v0.07h-0.03v0.07h-0.04v0.07h-0.03v0.071a0.379,0.379,0,0,0-.07.035,1.723,1.723,0,0,0-.07.21,0.567,0.567,0,0,0-.07.035v0.071a0.379,0.379,0,0,0-.07.035v0.07a0.454,0.454,0,0,0-.07.035,0.746,0.746,0,0,0-.04.141c-0.04.023-.07,0.046-0.11,0.07v0.07a0.454,0.454,0,0,1-.07.035v0.07c-0.03.024-.07,0.047-0.1,0.07V926.4c-0.04.023-.07,0.047-0.11,0.07v0.07a1.7,1.7,0,0,1-.14.105v0.071c-0.05.047-.11,0.093-0.17,0.14v0.071l-0.6.561-0.24.281h-0.07a2.155,2.155,0,0,0-.14.176h-0.07c-0.04.046-.07,0.093-0.11,0.14h-0.07c-0.02.035-.05,0.07-0.07,0.105h-0.07c-0.02.036-.05,0.07-0.07,0.106-0.03.011-.07,0.023-0.1,0.035a0.251,0.251,0,0,0-.04.07h-0.07l-0.03.07c-0.04.012-.08,0.024-0.11,0.035v0.035c-0.05.012-.09,0.024-0.14,0.035a0.255,0.255,0,0,1-.04.071c-0.03.011-.07,0.023-0.1,0.035v0.035l-0.21.07a0.255,0.255,0,0,1-.04.071h-0.07v0.034h-0.07v0.036h-0.07v0.035h-0.07V929h-0.07v0.035h-0.07v0.035h-0.07V929.1h-0.07v0.035l-0.21.071v0.035h-0.1v0.035c-0.05.011-.1,0.023-0.14,0.035v0.035l-0.21.035v0.035h-0.07v0.035l-0.21.035v0.036h-0.11v0.034h-0.1v0.036h-0.11v0.035l-0.39.07v0.035l-0.31.035V929.8h-0.18v0.036h-0.21v0.034h-0.21v0.036h-0.28v0.035h-0.42v0.035a4.636,4.636,0,0,1-1.12-.035h-0.42v-0.035h-0.28v-0.036h-0.21v-0.034h-0.21V929.8h-0.18v-0.035H1608v-0.035h-0.14V929.7h-0.14v-0.035h-0.14v-0.035h-0.14v-0.035h-0.11v-0.036h-0.1v-0.034h-0.11v-0.036h-0.1v-0.035h-0.11v-0.035h-0.07v-0.035h-0.1v-0.035h-0.07v-0.035h-0.11v-0.035h-0.07v-0.035h-0.1v-0.035l-0.21-.071V929.1h-0.07v-0.035h-0.07V929.03h-0.07V929h-0.07V928.96h-0.07v-0.035h-0.07v-0.036h-0.07v-0.034h-0.07a0.255,0.255,0,0,1-.04-0.071h-0.07v-0.035l-0.14-.035-0.03-.07h-0.07a0.255,0.255,0,0,1-.04-0.071h-0.07l-0.03-.07-0.15-.035a0.639,0.639,0,0,0-.07-0.1h-0.07l-0.03-.07h-0.07c-0.02-.036-0.05-0.07-0.07-0.106h-0.07c-0.02-.035-0.05-0.07-0.07-0.105h-0.07c-0.04-.047-0.07-0.094-0.11-0.14h-0.07a2.155,2.155,0,0,0-.14-0.176h-0.07c-0.2-.211-0.39-0.421-0.59-0.632l-0.21-.176v-0.07l-0.21-.175a0.459,0.459,0,0,1-.04-0.106c-0.03-.023-0.07-0.046-0.1-0.07v-0.07c-0.04-.023-0.07-0.047-0.11-0.07l-0.03-.106a0.379,0.379,0,0,1-.07-0.035v-0.07a0.454,0.454,0,0,1-.07-0.035v-0.07a1.25,1.25,0,0,1-.11-0.07,0.746,0.746,0,0,0-.04-0.141,0.454,0.454,0,0,0-.07-0.035v-0.07a0.379,0.379,0,0,0-.07-0.035v-0.071a0.567,0.567,0,0,0-.07-0.035,1.723,1.723,0,0,0-.07-0.21,0.379,0.379,0,0,0-.07-0.035v-0.071h-0.03v-0.07h-0.04v-0.07h-0.03V925.1H1602v-0.071h-0.03v-0.07h-0.04v-0.07h-0.03v-0.07h-0.04a1.737,1.737,0,0,0-.07-0.211h-0.03V924.5h-0.04l-0.03-.141h-0.04l-0.03-.21h-0.04v-0.07h-0.03c-0.01-.071-0.03-0.141-0.04-0.211h-0.03v-0.105h-0.04v-0.106h-0.03v-0.105h-0.04l-0.03-.246h-0.04l-0.03-.316h-0.04v-0.14h-0.03v-0.176h-0.04v-0.21h-0.03v-0.211h-0.04v-0.281h-0.03v-0.421h-0.04a4.618,4.618,0,0,1,.04-1.124v-0.316c0.02-.2.04-0.4,0.07-0.6h0.03v-0.21h0.04v-0.176h0.03v-0.14h0.04l0.03-.316h0.04l0.03-.246h0.04v-0.105h0.03v-0.106h0.04v-0.105h0.03c0.01-.07.03-0.141,0.04-0.211h0.03v-0.07h0.04l0.03-.21,0.63-1.264h0.04l0.03-.106a0.379,0.379,0,0,0,.07-0.035,0.758,0.758,0,0,0,.04-0.14c0.02-.012.05-0.024,0.07-0.036v-0.07a1.25,1.25,0,0,1,.11-0.07v-0.07a0.454,0.454,0,0,1,.07-0.035v-0.07c0.03-.024.07-0.047,0.1-0.071v-0.07c0.04-.023.07-0.047,0.11-0.07v-0.07a1.5,1.5,0,0,1,.14-0.105v-0.071l0.21-.175v-0.07l0.21-.176c0.18-.2.37-0.4,0.56-0.6h0.07c0.06-.07.12-0.14,0.17-0.211h0.07c0.04-.046.07-0.093,0.11-0.14h0.07c0.02-.035.05-0.07,0.07-0.105h0.07c0.02-.036.05-0.071,0.07-0.106h0.07l0.03-.07h0.07a0.639,0.639,0,0,0,.07-0.105h0.07a0.255,0.255,0,0,0,.04-0.071c0.05-.011.09-0.023,0.14-0.035v-0.035c0.04-.011.07-0.023,0.11-0.035l0.03-.07,0.14-.035a0.237,0.237,0,0,1,.04-0.07h0.07v-0.035h0.07V913.09h0.07v-0.035h0.07V913.02h0.07v-0.035h0.07V912.95h0.07v-0.035h0.07V912.88h0.07v-0.035l0.21-.071v-0.035h0.1V912.7h0.07v-0.035h0.11v-0.035h0.07V912.6h0.1v-0.035h0.07v-0.035l0.21-.035v-0.036h0.11v-0.035h0.1v-0.035h0.11v-0.035h0.14v-0.035h0.11v-0.035h0.14v-0.035l0.31-.035v-0.035h0.18v-0.036h0.21v-0.035h0.21v-0.035h0.28v-0.035A1.315,1.315,0,0,0,1609.44,912Zm0.03,1.545a1.116,1.116,0,0,1-.35.035v0.035h-0.28v0.035h-0.17v0.035h-0.21v0.035c-0.11.012-.21,0.024-0.32,0.035v0.036l-0.24.035v0.035h-0.11V913.9h-0.1v0.035h-0.11v0.035l-0.21.035v0.035l-0.18.035v0.036l-0.14.035v0.035h-0.1v0.035l-0.21.07v0.035h-0.07v0.035h-0.07v0.035l-0.21.071c-0.01.023-.03,0.046-0.04,0.07l-0.21.07v0.035c-0.03.012-.07,0.024-0.1,0.035-0.01.024-.03,0.047-0.04,0.07h-0.07l-0.03.071h-0.07v0.035l-0.11.035-0.03.07h-0.07a0.684,0.684,0,0,0-.07.105h-0.07a0.255,0.255,0,0,0-.04.071h-0.03a0.251,0.251,0,0,0-.04.07h-0.07c-0.05.058-.09,0.117-0.14,0.175h-0.07c-0.12.129-.23,0.258-0.35,0.387-0.12.105-.23,0.21-0.35,0.316v0.07l-0.18.14v0.071a1.7,1.7,0,0,1-.14.105v0.07c-0.03.024-.07,0.047-0.1,0.07v0.07a0.449,0.449,0,0,0-.07.036v0.07a0.454,0.454,0,0,0-.07.035v0.07a0.567,0.567,0,0,0-.07.035v0.07a0.449,0.449,0,0,0-.07.036v0.07a0.454,0.454,0,0,0-.07.035,1.682,1.682,0,0,0-.07.211,0.379,0.379,0,0,0-.07.035,1.723,1.723,0,0,0-.07.21h-0.04v0.071h-0.03v0.07h-0.04v0.07h-0.03a1.682,1.682,0,0,0-.07.211h-0.04v0.105h-0.03v0.07h-0.04v0.1h-0.03v0.071h-0.04l-0.03.211h-0.04v0.105h-0.03v0.105h-0.04v0.105h-0.03a2.1,2.1,0,0,0-.04.246h-0.03v0.176h-0.04v0.14h-0.03v0.176h-0.04v0.21h-0.03c-0.02.211-.03,0.422-0.04,0.632h-0.04a4.551,4.551,0,0,0,.04,1.054V921.9h0.04v0.246h0.03v0.21h0.04v0.176h0.03v0.14h0.04v0.176c0.12,0.374.25,0.749,0.38,1.123h0.04a1.737,1.737,0,0,0,.07.211h0.03v0.07h0.04v0.07h0.03v0.07h0.04v0.071h0.03v0.07h0.04v0.07a0.454,0.454,0,0,0,.07.035,1.682,1.682,0,0,0,.07.211,0.454,0.454,0,0,0,.07.035v0.07a0.379,0.379,0,0,0,.07.035v0.071a0.567,0.567,0,0,0,.07.035v0.07a0.454,0.454,0,0,0,.07.035v0.07a0.379,0.379,0,0,0,.07.035v0.071c0.03,0.023.07,0.046,0.1,0.07v0.07a0.454,0.454,0,0,1,.07.035v0.035a0.567,0.567,0,0,1,.07.035V925.7l0.18,0.14v0.07c0.12,0.106.23,0.211,0.35,0.316,0.12,0.129.23,0.258,0.35,0.386h0.07c0.05,0.059.09,0.117,0.14,0.176h0.07c0.04,0.047.07,0.094,0.11,0.141l0.1,0.034a0.255,0.255,0,0,0,.04.071h0.07l0.03,0.07,0.11,0.035v0.035h0.07l0.03,0.07H1606c0.01,0.024.03,0.047,0.04,0.071,0.03,0.011.07,0.023,0.1,0.035v0.035l0.21,0.07c0.01,0.023.03,0.047,0.04,0.07l0.21,0.07v0.036h0.07v0.035h0.07V927.7l0.21,0.07V927.8h0.1v0.035c0.05,0.012.1,0.023,0.14,0.035v0.035l0.18,0.036v0.035l0.21,0.035v0.035h0.11v0.035h0.1v0.035h0.11v0.035l0.24,0.035v0.036l0.32,0.034v0.036h0.21v0.035h0.17v0.035h0.28V928.4h0.35a4.341,4.341,0,0,0,1.06.035V928.4l0.63-.035v-0.035h0.21v-0.035h0.17v-0.036h0.14v-0.034h0.18v-0.036l0.24-.035v-0.035h0.11v-0.035h0.1v-0.035h0.11v-0.035l0.21-.035v-0.035h0.07v-0.036h0.11v-0.035h0.07v-0.035h0.1V927.8l0.21-.07V927.7h0.07v-0.035h0.07v-0.035h0.07V927.59l0.21-.07c0.01-.023.03-0.047,0.04-0.07l0.21-.07,0.03-.07h0.07c0.01-.024.03-0.047,0.04-0.071h0.07l0.03-.07h0.07a0.251,0.251,0,0,0,.04-0.07h0.07l0.03-.07h0.07a0.684,0.684,0,0,0,.07-0.105h0.07c0.04-.047.07-0.094,0.11-0.141h0.07c0.05-.059.09-0.117,0.14-0.176h0.07c0.12-.128.23-0.257,0.35-0.386,0.12-.105.23-0.21,0.35-0.316v-0.07l0.18-.14v-0.071a0.567,0.567,0,0,1,.07-0.035v-0.035a0.454,0.454,0,0,1,.07-0.035v-0.07c0.03-.024.07-0.047,0.1-0.07v-0.071a0.379,0.379,0,0,0,.07-0.035c0.01-.035.03-0.07,0.04-0.105h0.03V925.1a0.567,0.567,0,0,0,.07-0.035v-0.071a0.379,0.379,0,0,0,.07-0.035c0.01-.035.03-0.07,0.04-0.105h0.03a1.682,1.682,0,0,0,.07-0.211,0.454,0.454,0,0,0,.07-0.035,1.682,1.682,0,0,0,.07-0.211h0.04v-0.07h0.03v-0.07h0.04c0.02-.07.05-0.14,0.07-0.211h0.03v-0.105h0.04l0.03-.14h0.04l0.03-.176h0.04c0.12-.421.23-0.842,0.35-1.264v-0.21h0.03V921.9h0.04v-0.386h0.03a4.074,4.074,0,0,0-.03-1.054v-0.316a2.877,2.877,0,0,0-.07-0.316v-0.21c-0.12-.422-0.23-0.843-0.35-1.264h-0.04v-0.071h-0.03v-0.1h-0.04v-0.07h-0.03v-0.105h-0.04a1.682,1.682,0,0,0-.07-0.211h-0.03v-0.07h-0.04v-0.07h-0.03v-0.071h-0.04v-0.07h-0.03v-0.07h-0.04v-0.07a0.379,0.379,0,0,0-.07-0.035,1.682,1.682,0,0,0-.07-0.211h-0.03c-0.01-.035-0.03-0.07-0.04-0.105a0.449,0.449,0,0,0-.07-0.036v-0.07a0.567,0.567,0,0,0-.07-0.035v-0.07h-0.03c-0.01-.035-0.03-0.07-0.04-0.105a0.449,0.449,0,0,0-.07-0.036V916.6a0.567,0.567,0,0,0-.07-0.035l-0.03-.105a1.7,1.7,0,0,1-.14-0.105v-0.071l-0.18-.14v-0.07c-0.13-.117-0.26-0.234-0.38-0.351s-0.21-.235-0.32-0.352h-0.07c-0.05-.058-0.09-0.117-0.14-0.175h-0.07c-0.04-.047-0.07-0.094-0.11-0.141h-0.07a0.684,0.684,0,0,0-.07-0.105h-0.07l-0.03-.07h-0.07c-0.02-.035-0.05-0.07-0.07-0.105-0.05-.012-0.1-0.024-0.14-0.036-0.01-.023-0.03-0.046-0.04-0.07-0.03-.011-0.07-0.023-0.1-0.035V914.6c-0.05-.012-0.1-0.023-0.14-0.035V914.53h-0.07c-0.01-.024-0.03-0.047-0.04-0.07h-0.07v-0.035h-0.07v-0.036h-0.07v-0.035h-0.07v-0.035h-0.07v-0.035h-0.07v-0.035l-0.21-.07v-0.035h-0.1v-0.035h-0.07v-0.036h-0.11v-0.035h-0.07V914l-0.21-.035v-0.035h-0.11V913.9h-0.1v-0.035h-0.11v-0.035h-0.14v-0.035h-0.1v-0.036h-0.18v-0.035h-0.14v-0.035h-0.17v-0.035h-0.21A6.794,6.794,0,0,0,1609.47,913.547Zm-2.63,3.757a1.678,1.678,0,0,1,.56.035v0.035h0.07a1.247,1.247,0,0,1,.11.14h0.07l0.42,0.456c0.45,0.434.89,0.867,1.33,1.3,0.19,0.2.38,0.4,0.56,0.6h0.08a1.3,1.3,0,0,1,.24-0.245l0.6-.6,0.84-.878,0.24-.211a4.18,4.18,0,0,1,.53-0.526,0.781,0.781,0,0,1,1.12.316,0.945,0.945,0,0,1,.04.667,0.454,0.454,0,0,0-.07.035v0.07c-0.04.024-.07,0.047-0.11,0.071a1.038,1.038,0,0,1-.14.21c-0.19.176-.37,0.351-0.56,0.527l-1.02,1.053-0.63.6v0.07a1.386,1.386,0,0,1,.25.246c0.2,0.2.4,0.4,0.59,0.6,0.3,0.281.59,0.561,0.88,0.842l0.21,0.246a4.4,4.4,0,0,1,.53.527,0.789,0.789,0,0,1-.32,1.123,0.821,0.821,0,0,1-.56.07v-0.035h-0.1a0.251,0.251,0,0,1-.04-0.07h-0.07a0.251,0.251,0,0,0-.04-0.07h-0.07l-0.03-.07c-0.05-.036-0.09-0.071-0.14-0.106l-0.63-.667c-0.32-.3-0.63-0.608-0.95-0.913-0.2-.21-0.4-0.421-0.59-0.632h-0.08a1.273,1.273,0,0,1-.24.246c-0.18.188-.35,0.375-0.53,0.562-0.03.024-.07,0.047-0.1,0.07l-0.81.843c-0.09.082-.19,0.164-0.28,0.246a3.38,3.38,0,0,1-.53.526c-0.05.012-.11,0.023-0.17,0.035v0.035a1.105,1.105,0,0,1-.63-0.07,0.639,0.639,0,0,1-.07-0.105l-0.11-.035V924.4h-0.03a0.277,0.277,0,0,1-.07-0.14,0.945,0.945,0,0,1-.04-0.667,0.454,0.454,0,0,0,.07-0.035v-0.07c0.04-.024.07-0.047,0.11-0.071a0.985,0.985,0,0,1,.14-0.21c0.19-.176.37-0.351,0.56-0.527l1.02-1.053,0.63-.6v-0.07a0.836,0.836,0,0,1-.18-0.176l-0.42-.421c-0.31-.3-0.63-0.609-0.95-0.913-0.1-.117-0.21-0.234-0.31-0.351a2.574,2.574,0,0,1-.7-0.808,1.253,1.253,0,0,1,.07-0.631c0.03-.024.07-0.047,0.1-0.071,0.01-.035.03-0.07,0.04-0.1h0.07a0.639,0.639,0,0,1,.07-0.105l0.17-.035V917.3Z" transform="translate(-1601 -912)"/>
</svg>
