<svg xmlns="http://www.w3.org/2000/svg" width="10" height="6.031" viewBox="0 0 10 6.031">
  <defs>
    <style>
      .cls-1 {
        fill: #00a8b6;
        fill-rule: evenodd;
      }
    </style>
  </defs>
  <path id="arrow" class="cls-1" d="M426.988,217.759c0.007-.054.013-0.109,0.02-0.164l0.039-.021v-0.04c0.039-.034.078-0.068,0.117-0.1a2.523,2.523,0,0,1,.39-0.39c0.007-.013.014-0.027,0.02-0.041h0.078c0.09-.078.266,0.115,0.313,0.165l0.761,0.822,2.364,2.467c0.188,0.206.377,0.412,0.566,0.616,0.026,0.021.052,0.042,0.078,0.061a0.943,0.943,0,0,0,.274.268,2.1,2.1,0,0,1,.312-0.329l0.176-.2q0.254-.258.508-0.515l1.465-1.562q0.379-.392.761-0.782,0.274-.3.547-0.6l0.117-.1a1.066,1.066,0,0,1,.352-0.33L436.4,217a0.48,0.48,0,0,0,.1.082c0.1,0.111.195,0.22,0.293,0.329a0.645,0.645,0,0,1,.195.247c-0.006.061-.013,0.124-0.02,0.186l-1.132,1.212-2.481,2.59-0.781.843-0.137.123a0.858,0.858,0,0,1-.41.349,0.194,0.194,0,0,1-.156,0l-1.563-1.623q-1.1-1.173-2.207-2.344l-1.054-1.089v-0.042l-0.039-.019v-0.084h-0.02Z" transform="translate(-427 -216.969)"/>
</svg>
