<svg xmlns="http://www.w3.org/2000/svg" width="17.969" height="32.031" viewBox="0 0 17.969 32.031">
  <defs>
    <style>
      .cls-1 {
        fill: #004995;
        fill-rule: evenodd;
      }
    </style>
  </defs>
  <path id="cellphone" class="cls-1" d="M645.964,134.974a0.793,0.793,0,0,0-.322-0.374v-0.125c-0.042-.022-0.085-0.043-0.128-0.063-0.022-.083-0.043-0.166-0.064-0.249h-0.065c-0.042-.126-0.085-0.25-0.128-0.376h-0.065q-0.063-.375-0.128-0.748H645v-26.1h0.064c0.043-.251.086-0.5,0.128-0.751h0.065c0.043-.124.086-0.249,0.128-0.375h0.065c0.021-.082.042-0.165,0.064-0.249l0.128-.062v-0.125l0.322-.25V105l0.257-.125,0.193-.249h0.128c0.022-.042.043-0.084,0.065-0.125,0.894-.551,2.015-0.5,3.471-0.5h9.835v0.062l0.771,0.125v0.063h0.129v0.062h0.193v0.062h0.128L661.2,104.5h0.128c0.022,0.041.043,0.083,0.064,0.125h0.129a3.894,3.894,0,0,1,1.35,1.936,5.782,5.782,0,0,1,.064,1.5v23.419a6.9,6.9,0,0,1-.128,1.937v0.249a3.806,3.806,0,0,1-2.315,2.186,10.281,10.281,0,0,1-2.7.126h-8.485l-1.607-.064v-0.062h-0.258v-0.063h-0.193v-0.063c-0.128-.04-0.257-0.082-0.385-0.124v-0.063c-0.086-.019-0.172-0.041-0.257-0.062l-0.065-.125h-0.128v-0.062A1.179,1.179,0,0,0,645.964,134.974Zm2.314-29.539-0.643.188c-0.214.147-.428,0.292-0.643,0.437v0.124c-0.064.043-.128,0.084-0.192,0.126l-0.129.374h-0.064a13.764,13.764,0,0,0-.129,3.5v21.8c0.022,0.375.043,0.749,0.064,1.124h0.065v0.187h0.064c0.021,0.083.043,0.166,0.064,0.249H646.8v0.126l0.192,0.124v0.126l0.129,0.063v0.061c0.8,0.574,1.655.5,3.021,0.5H658.5a5.289,5.289,0,0,0,1.671-.125V134.35h0.193l0.064-.125h0.129c0.021-.043.043-0.083,0.064-0.124h0.129c0.021-.043.042-0.084,0.064-0.125l0.257-.189v-0.124q0.065-.03.129-0.063v-0.125h0.064v-0.124h0.064a5.114,5.114,0,0,0,.129-1.749v-23.17a4.186,4.186,0,0,0-.257-2.06l-0.129-.062v-0.126c-0.086-.061-0.171-0.124-0.257-0.187-0.022-.041-0.043-0.084-0.064-0.124H660.62l-0.064-.125h-0.129l-0.064-.125H660.17V105.56h-0.193V105.5a12.964,12.964,0,0,0-2.7-.063h-9Zm3.15,1.5h3.728a4.448,4.448,0,0,1,1.35.062,0.675,0.675,0,0,1,.45.873h-0.064l-0.065.251c-0.149.084-.3,0.166-0.45,0.249h-1.735c-1.082,0-2.3.027-3.279-.062L651.106,108a0.74,0.74,0,0,1-.128-0.562,0.574,0.574,0,0,0,.128-0.25h0.065L651.3,107h0.129v-0.062Zm2.185,23.23a1.632,1.632,0,0,1,1.415.438l0.128,0.062a2.127,2.127,0,0,0,.257.437c0.022,0.249.043,0.5,0.065,0.75A1.464,1.464,0,0,1,654,133.039h-0.45v-0.063l-0.321-.062c-0.022-.042-0.043-0.084-0.065-0.125h-0.128c-0.065-.083-0.129-0.166-0.193-0.251h-0.064v-0.123q-0.064-.033-0.129-0.063c-0.021-.106-0.043-0.208-0.064-0.312a1.6,1.6,0,0,1,0-1.062c0.158-.1.039-0.064,0.128-0.187q0.064-.033.129-0.063c0.021-.063.043-0.125,0.064-0.188h0.129l0.128-.187h0.129V130.29c0.107-.019.214-0.041,0.321-0.062v-0.063Z" transform="translate(-645 -103.938)"/>
</svg>
