<svg xmlns="http://www.w3.org/2000/svg" width="16.031" height="14.031" viewBox="0 0 16.031 14.031">
  <defs>
    <style>
      .cls-1 {
        fill: #004995;
        fill-rule: evenodd;
      }
    </style>
  </defs>
  <path id="Фигура_26" data-name="Фигура 26" class="cls-1" d="M952.219,23.01H964.8a4.014,4.014,0,0,1,1.248.072v0.035h0.062v0.035H966.2v0.036h0.063c0.01,0.024.02,0.048,0.031,0.072h0.062c0.011,0.024.021,0.048,0.031,0.072h0.063l0.187,0.25,0.062,0.037v0.072l0.063,0.036c0.01,0.048.021,0.1,0.031,0.143h0.031l0.063,0.215h0.031a7.127,7.127,0,0,1,.062,1.719v8.559a6.661,6.661,0,0,1-.062,1.54h-0.031l-0.063.215h-0.031c-0.01.048-.021,0.095-0.031,0.144L966.7,36.3v0.072l-0.218.215-0.031.072h-0.063c-0.01.024-.02,0.048-0.031,0.072l-0.125.036-0.031.071h-0.094v0.036h-0.062V36.9a4.882,4.882,0,0,1-1.529.072h-12.3V36.941h-0.156V36.9h-0.125V36.869l-0.187-.072V36.762h-0.063V36.726h-0.062c-0.011-.024-0.021-0.048-0.031-0.072h-0.063l-0.093-.143-0.156-.143V36.3l-0.063-.035V36.188h-0.031V36.117h-0.031V36.045h-0.031V35.974H951.1V35.9h-0.031c-0.01-.108-0.021-0.215-0.031-0.322H951V25.087a3.852,3.852,0,0,1,.062-1H951.1V24.013h0.032c0.01-.06.02-0.12,0.031-0.18l0.062-.036V23.726l0.312-.394H951.6c0.01-.024.02-0.048,0.031-0.072h0.062l0.032-.072h0.093V23.153l0.125-.035V23.082A0.858,0.858,0,0,0,952.219,23.01Zm0.406,1.074a2.883,2.883,0,0,0,.468.537l0.156,0.215,0.811,0.9,0.812,0.966a9.053,9.053,0,0,1,.967,1.074l1.529,1.719,1.155,1.36h0.062l0.032,0.072,0.312,0.322c0.02,0.035.041,0.072,0.062,0.107h0.062a1.052,1.052,0,0,1,.188-0.215l0.437-.5,0.218-.287,1.186-1.325,0.9-1.075,2.029-2.292,0.249-.322,0.656-.716a2.733,2.733,0,0,1,.436-0.5V24.084H952.625Zm-0.687.788V35.114h0.031q1.654-1.915,3.308-3.832l0.781-.859c0.01-.023.02-0.048,0.031-0.072a1.118,1.118,0,0,0,.343-0.43,2.031,2.031,0,0,1-.343-0.394l-0.188-.179-0.062-.107h-0.062l-0.344-.43Q954.28,27.5,953.124,26.2a9.292,9.292,0,0,0-1-1.11V25.051Zm14.075,0-3.277,3.8-0.78.86c-0.011.024-.021,0.047-0.031,0.072a1.117,1.117,0,0,0-.344.43l4.463,5.085V24.872h-0.031Zm-8.926,5.873L952.625,35.9h12.732V35.866l-3.308-3.76q-0.374-.448-0.749-0.9l-0.062-.036a1.075,1.075,0,0,0-.375-0.394l-1.529,1.79h-0.062v0.036a0.645,0.645,0,0,1-.375.072l-0.249-.18-0.312-.394-0.718-.787A2.277,2.277,0,0,0,957.087,30.745Z" transform="translate(-951 -23)"/>
</svg>
