<svg xmlns="http://www.w3.org/2000/svg" width="52" height="40" viewBox="0 0 52 40">
  <defs>
    <style>
      .cls-1 {
        fill: #004995;
        fill-rule: evenodd;
      }
    </style>
  </defs>
  <path id="quote" class="cls-1" d="M215.848,6187v2.94c-0.387.13-.773,0.25-1.16,0.38v0.07h-0.129v0.06h-0.193v0.06h-0.129v0.07l-0.258.06v0.07h-0.193v0.06c-0.129.04-.257,0.08-0.386,0.13v0.06h-0.129v0.07l-0.387.12c-0.021.05-.043,0.09-0.064,0.13h-0.129v0.07h-0.129v0.06h-0.129v0.06H212.3c-0.021.05-.043,0.09-0.064,0.13-0.129.04-.258,0.09-0.387,0.13-0.021.04-.043,0.08-0.064,0.13l-0.258.06c-0.021.04-.043,0.09-0.064,0.13h-0.129c-0.021.04-.043,0.08-0.064,0.13h-0.129l-0.065.12h-0.129v0.07l-0.193.06c-0.021.04-.043,0.09-0.064,0.13h-0.129c-0.043.06-.086,0.13-0.129,0.19h-0.129c-0.021.04-.043,0.09-0.064,0.13h-0.129c-0.043.06-.086,0.13-0.129,0.19h-0.129c-0.064.09-.129,0.17-0.193,0.26h-0.129c-0.086.1-.172,0.21-0.258,0.32h-0.128c-0.129.15-.258,0.3-0.387,0.44h-0.129c-0.15.18-.3,0.34-0.451,0.52-0.3.27-.6,0.55-0.9,0.83v0.13c-0.129.1-.258,0.21-0.386,0.31v0.13c-0.108.09-.215,0.17-0.323,0.26v0.13l-0.193.12v0.13c-0.064.04-.129,0.09-0.193,0.13v0.13a2.177,2.177,0,0,0-.193.13v0.12c-0.065.04-.129,0.09-0.194,0.13v0.13l-0.128.06v0.13l-0.129.06v0.13a0.818,0.818,0,0,0-.129.07v0.12a0.818,0.818,0,0,1-.129.07c-0.021.08-.043,0.17-0.064,0.25h-0.065c-0.021.07-.043,0.13-0.064,0.2l-0.129.06v0.13H204.9v0.12a0.81,0.81,0,0,1-.128.07v0.13H204.7v0.13h-0.064v0.12h-0.065v0.13l-0.129.06c-0.043.13-.085,0.26-0.128,0.39h-0.065v0.13h-0.064c-0.043.12-.086,0.25-0.129,0.38h-0.065v0.19h-0.064v0.13h-0.064c-0.022.09-.043,0.17-0.065,0.26h-0.064v0.19h-0.065v0.12h-0.064v0.2h-0.065v0.12h-0.064v0.2h-0.064v0.19h-0.065v0.19h-0.064v0.19H203.22c-0.043.21-.086,0.43-0.129,0.64h-0.064c-0.043.24-.086,0.47-0.129,0.7h-0.064V6204h-0.065c-0.021.24-.043,0.47-0.064,0.71h-0.064q-0.1.96-.194,1.92c-0.045.98,0.06,2.36,0.773,2.55v0.07c0.172-.03.344-0.05,0.516-0.07v-0.06h0.129c0.021-.04.043-0.09,0.064-0.13l0.258-.06c0.043-.07.086-0.13,0.129-0.19h0.128c0.022-.05.043-0.09,0.065-0.13,0.086-.02.172-0.05,0.258-0.07l0.064-.12a2.47,2.47,0,0,1,.258-0.07v-0.06c0.129-.05.257-0.09,0.386-0.13v-0.06c0.559-.18,1.117-0.35,1.675-0.52l0.967-.06a7.694,7.694,0,0,1,1.933-.06v0.06h0.45v0.06h0.323v0.07h0.322v0.06h0.193v0.07h0.193v0.06h0.258v0.06h0.129v0.07h0.193v0.06a2.47,2.47,0,0,1,.258.07v0.06h0.193v0.06h0.129c0.021,0.05.043,0.09,0.064,0.13h0.129v0.07h0.129v0.06h0.129v0.06h0.129v0.07l0.193,0.06c0.022,0.04.043,0.09,0.065,0.13h0.128c0.043,0.06.086,0.13,0.129,0.19h0.129c0.022,0.04.043,0.09,0.064,0.13l0.194,0.06c0.064,0.09.129,0.17,0.193,0.26a9.508,9.508,0,0,1,3.221,4.67v0.25h0.065v0.26h0.064v0.32h0.065v0.38a6.53,6.53,0,0,1,.064,2.56c-0.043.38-.086,0.76-0.129,1.15-0.172.53-.343,1.06-0.515,1.6h-0.065c-0.043.12-.086,0.25-0.128,0.38h-0.065v0.13h-0.064v0.13h-0.065c-0.043.12-.086,0.25-0.129,0.38l-0.128.06c-0.022.09-.043,0.17-0.065,0.26l-0.129.06v0.13H216.3c-0.022.07-.043,0.13-0.065,0.19-0.043.02-.085,0.05-0.128,0.07v0.12a0.818,0.818,0,0,1-.129.07c-0.022.06-.043,0.13-0.065,0.19-0.086.06-.172,0.13-0.257,0.19v0.13c-0.129.11-.258,0.21-0.387,0.32v0.13l-0.58.51c-0.086.1-.172,0.21-0.258,0.32H214.3c-0.086.1-.172,0.21-0.258,0.32h-0.129c-0.064.08-.129,0.17-0.193,0.25h-0.129c-0.043.07-.086,0.13-0.129,0.2h-0.129l-0.064.12c-0.065.02-.129,0.05-0.193,0.07v0.06h-0.129c-0.022.04-.043,0.09-0.065,0.13-0.129.04-.257,0.08-0.386,0.13l-0.065.12a2.521,2.521,0,0,1-.257.07v0.06c-0.129.05-.258,0.09-0.387,0.13v0.06H211.6v0.07l-0.258.06v0.07h-0.193v0.06h-0.194v0.06h-0.193v0.07h-0.193a9.9,9.9,0,0,1-4.768.32c-0.236-.02-0.472-0.04-0.708-0.07l-1.869-.57v-0.07l-0.257-.06V6226c-0.194-.07-0.387-0.13-0.58-0.2l-0.065-.12H202.19v-0.07h-0.129v-0.06h-0.129v-0.07H201.8v-0.06l-0.193-.06c-0.022-.05-0.043-0.09-0.065-0.13h-0.129c-0.021-.04-0.043-0.09-0.064-0.13h-0.129v-0.06a1.5,1.5,0,0,1-.193-0.07l-0.065-.12h-0.128c-0.043-.07-0.086-0.13-0.129-0.2h-0.129c-0.086-.1-0.172-0.21-0.258-0.32h-0.129c-0.129-.15-0.257-0.29-0.386-0.44h-0.129c-0.043-.07-0.086-0.13-0.129-0.19l-0.515-.45v-0.13l-0.129-.06v-0.07c-0.151-.13-0.3-0.25-0.451-0.38v-0.13c-0.086-.06-0.172-0.13-0.258-0.19v-0.13a2.177,2.177,0,0,1-.193-0.13v-0.12a2.189,2.189,0,0,0-.194-0.13v-0.13l-0.128-.06c-0.022-.07-0.043-0.13-0.065-0.2h-0.064v-0.12a0.818,0.818,0,0,0-.129-0.07c-0.021-.08-0.043-0.17-0.065-0.25-0.042-.02-0.085-0.05-0.128-0.07-0.022-.08-0.043-0.17-0.065-0.25-0.043-.02-0.086-0.05-0.129-0.07v-0.13h-0.064v-0.12h-0.064v-0.13h-0.065v-0.13h-0.064v-0.13h-0.065v-0.12h-0.064l-0.129-.39h-0.064v-0.19h-0.065c-0.021-.09-0.043-0.17-0.064-0.26h-0.065c-0.021-.12-0.043-0.25-0.064-0.38h-0.065v-0.13h-0.064v-0.19h-0.064v-0.19H195.94v-0.19h-0.064v-0.2h-0.065c-0.021-.14-0.043-0.29-0.064-0.44h-0.065v-0.26h-0.064v-0.25h-0.064v-0.26h-0.065v-0.32h-0.064v-0.32H195.36v-0.38H195.3v-0.39h-0.064v-0.44h-0.065v-0.64H195.1v-0.77a10.453,10.453,0,0,1,0-2.94v-0.77h0.064v-0.64h0.065v-0.51H195.3v-0.45h0.064v-0.38h0.065v-0.32h0.064v-0.38h0.065v-0.26h0.064c0.021-.19.043-0.38,0.064-0.57h0.065v-0.2h0.064c0.043-.25.086-0.51,0.129-0.76h0.065q0.192-.675.386-1.35h0.065v-0.12h0.064c0.022-.13.043-0.26,0.064-0.39h0.065v-0.13h0.064v-0.19h0.065v-0.13h0.064v-0.19h0.065v-0.12h0.064v-0.13h0.064v-0.13H197.1v-0.19h0.064l0.129-.39h0.064v-0.12h0.065v-0.13h0.064v-0.13h0.065v-0.13h0.064v-0.12h0.065v-0.13h0.064v-0.13l0.129-.06v-0.13h0.064v-0.13H198v-0.13h0.064v-0.13l0.129-.06v-0.13h0.065v-0.13h0.064v-0.12c0.043-.02.086-0.05,0.129-0.07v-0.13l0.129-.06v-0.13l0.129-.06c0.021-.09.042-0.17,0.064-0.26h0.064c0.022-.06.043-0.13,0.065-0.19l0.129-.06v-0.13l0.128-.06v-0.13c0.065-.04.129-0.09,0.194-0.13v-0.13l0.129-.06v-0.13c0.064-.04.128-0.09,0.193-0.13v-0.13l0.193-.12v-0.13c0.065-.04.129-0.09,0.193-0.13v-0.13c0.086-.06.172-0.12,0.258-0.19v-0.13c0.108-.08.215-0.17,0.322-0.25v-0.13c0.151-.13.3-0.26,0.451-0.38v-0.13l0.58-.51c0.387-.41.773-0.81,1.16-1.22h0.129l0.386-.45h0.129v-0.06a2.177,2.177,0,0,0,.193-0.13c0.043-.06.086-0.12,0.129-0.19h0.129c0.064-.08.129-0.17,0.193-0.25h0.129c0.022-.05.043-0.09,0.065-0.13h0.064c0.021-.05.043-0.09,0.064-0.13h0.129c0.043-.06.086-0.13,0.129-0.19,0.065-.02.129-0.05,0.193-0.07l0.065-.12h0.129c0.043-.07.086-0.13,0.129-0.2h0.128v-0.06l0.194-.06c0.021-.05.043-0.09,0.064-0.13h0.129c0.043-.07.086-0.13,0.129-0.19h0.129c0.021-.05.043-0.09,0.064-0.13l0.193-.06v-0.07h0.129c0.022-.04.043-0.08,0.065-0.13h0.128l0.065-.12h0.129c0.021-.05.043-0.09,0.064-0.13a2.47,2.47,0,0,0,.258-0.07v-0.06l0.193-.06c0.022-.05.043-0.09,0.065-0.13h0.128v-0.07H207.6l0.065-.12a2.521,2.521,0,0,1,.257-0.07c0.022-.04.043-0.08,0.065-0.13l0.386-.12c0.022-.05.043-0.09,0.065-0.13,0.129-.04.258-0.09,0.386-0.13,0.022-.04.043-0.08,0.065-0.13l1.031-.45,0.064-.12c0.086-.02.172-0.05,0.258-0.07v-0.06c0.129-.04.257-0.09,0.386-0.13v-0.06h0.194c0.021-.05.043-0.09,0.064-0.13h0.193v-0.06h0.129v-0.07h0.129v-0.06h0.129v-0.07l0.386-.12v-0.07h0.194v-0.06h0.129v-0.07H212.3v-0.06h0.129v-0.06h0.194v-0.07l0.257-.06v-0.07h0.194v-0.06l0.257-.06v-0.07h0.194v-0.06h0.128v-0.07l0.322-.06v-0.06h0.194v-0.07H214.3v-0.06H214.5v-0.07h0.129v-0.06h0.193v-0.06h0.129v-0.07l0.386-.06v-0.06A1.415,1.415,0,0,1,215.848,6187Zm29.056,0v2.87a1.5,1.5,0,0,1-.193.07V6190c-0.108.02-.215,0.05-0.322,0.07v0.06H244.2v0.06h-0.128v0.07h-0.194v0.06h-0.129v0.07h-0.193v0.06c-0.129.04-.258,0.09-0.386,0.13v0.06h-0.129v0.07h-0.194v0.06c-0.128.04-.257,0.08-0.386,0.13v0.06h-0.129v0.07l-0.387.12a1.315,1.315,0,0,1-.064.13h-0.129v0.07h-0.129v0.06h-0.129v0.06h-0.128v0.07h-0.129c-0.022.04-.043,0.08-0.065,0.13l-0.257.06c-0.022.04-.043,0.08-0.065,0.13h-0.129v0.06h-0.128c-0.022.04-.043,0.09-0.065,0.13h-0.129c-0.021.04-.043,0.08-0.064,0.13H240.2c-0.022.04-.043,0.08-0.064,0.12h-0.129c-0.022.05-.043,0.09-0.065,0.13h-0.129c-0.021.04-.043,0.09-0.064,0.13h-0.129c-0.021.04-.043,0.08-0.064,0.13h-0.129c-0.022.04-.043,0.08-0.065,0.13l-0.193.06c-0.043.06-.086,0.13-0.129,0.19h-0.129c-0.064.09-.128,0.17-0.193,0.26H238.59c-0.064.08-.129,0.17-0.193,0.25h-0.129l-0.322.39h-0.129c-0.365.38-.73,0.76-1.095,1.15-0.129.1-.258,0.21-0.387,0.32v0.13c-0.15.12-.3,0.25-0.451,0.38v0.13c-0.085.06-.171,0.12-0.257,0.19v0.13c-0.086.06-.172,0.12-0.258,0.19v0.13l-0.193.12v0.13a0.818,0.818,0,0,0-.129.07v0.12c-0.065.04-.129,0.09-0.193,0.13v0.13l-0.129.06c-0.022.07-.043,0.13-0.065,0.19H234.6v0.13a0.818,0.818,0,0,0-.129.07v0.12a0.818,0.818,0,0,1-.129.07v0.13l-0.129.06c-0.021.09-.043,0.17-0.064,0.26l-0.129.06v0.13h-0.064v0.12a0.818,0.818,0,0,1-.129.07c-0.043.13-.086,0.26-0.129,0.38-0.043.02-.086,0.05-0.129,0.07v0.12H233.5v0.13h-0.065v0.13h-0.064v0.13h-0.065v0.13h-0.064v0.12h-0.064l-0.129.39h-0.065v0.19h-0.064c-0.022.09-.043,0.17-0.065,0.26h-0.064v0.19h-0.064c-0.022.08-.043,0.17-0.065,0.25H232.6c-0.043.19-.086,0.39-0.129,0.58h-0.065v0.13h-0.064c-0.021.15-.043,0.29-0.065,0.44h-0.064v0.19h-0.064v0.2h-0.065c-0.021.17-.043,0.34-0.064,0.51h-0.065c-0.021.17-.043,0.34-0.064,0.51h-0.064v0.32h-0.065v0.38H231.7v0.39h-0.065v0.51h-0.064c-0.022.72-.043,1.45-0.065,2.17h0.065v0.45h0.064v0.26H231.7v0.19h0.064c0.022,0.08.043,0.17,0.065,0.25h0.064a0.523,0.523,0,0,1,.129.26l0.257,0.06v0.07a0.657,0.657,0,0,0,.58-0.2l0.258-.06c0.022-.04.043-0.08,0.065-0.13h0.128l0.065-.12H233.5c0.021-.05.043-0.09,0.064-0.13,0.086-.02.172-0.05,0.258-0.07l0.064-.12a2.47,2.47,0,0,1,.258-0.07v-0.06c0.129-.05.258-0.09,0.386-0.13v-0.06h0.194v-0.07h0.129v-0.06h0.193v-0.07h0.193v-0.06h0.193v-0.06h0.194v-0.07l0.58-.06v-0.07l0.966-.06a7.694,7.694,0,0,1,1.933-.06v0.06h0.451v0.06h0.322v0.07H240.2v0.06h0.193v0.07h0.194v0.06h0.193v0.06h0.193v0.07h0.193v0.06c0.129,0.04.258,0.09,0.387,0.13v0.06h0.129v0.07h0.129v0.06c0.128,0.04.257,0.09,0.386,0.13,0.022,0.04.043,0.08,0.065,0.13l0.257,0.06c0.022,0.04.043,0.09,0.065,0.13h0.129c0.043,0.06.085,0.13,0.128,0.19h0.129c0.022,0.04.043,0.09,0.065,0.13l0.193,0.06c0.064,0.09.129,0.17,0.193,0.26h0.129l0.516,0.57c0.193,0.17.386,0.35,0.579,0.51v0.13c0.108,0.09.215,0.17,0.322,0.26,0.022,0.06.043,0.13,0.065,0.19l0.129,0.06v0.13a0.818,0.818,0,0,1,.129.07c0.021,0.06.043,0.12,0.064,0.19h0.064v0.13l0.129,0.06v0.13l0.129,0.06c0.022,0.09.043,0.17,0.065,0.26l0.128,0.06c0.022,0.09.043,0.17,0.065,0.26H246c0.022,0.08.043,0.17,0.065,0.25h0.064v0.19h0.065c0.021,0.09.043,0.17,0.064,0.26h0.064c0.022,0.11.043,0.21,0.065,0.32h0.064v0.26h0.065v0.12h0.064v0.26h0.065v0.25h0.064v0.26h0.064V6215a6.478,6.478,0,0,1,.129,2.75v0.57h-0.064l-0.065.71h-0.064v0.25h-0.064c-0.022.15-.043,0.3-0.065,0.45h-0.064v0.19H246.45v0.19h-0.064v0.13h-0.065v0.19h-0.064v0.13h-0.064v0.19h-0.065l-0.129.39h-0.064v0.13H245.87c-0.021.08-.042,0.17-0.064,0.25a0.818,0.818,0,0,0-.129.07c-0.043.12-.086,0.25-0.129,0.38l-0.129.06v0.13a0.856,0.856,0,0,0-.128.07v0.12a2.189,2.189,0,0,1-.194.13v0.13l-0.129.06v0.13c-0.064.04-.128,0.08-0.193,0.13v0.06a0.818,0.818,0,0,0-.129.07v0.12c-0.128.11-.257,0.22-0.386,0.32v0.13l-0.516.45c-0.043.06-.086,0.13-0.128,0.19h-0.129l-0.387.45h-0.129c-0.064.08-.129,0.17-0.193,0.25h-0.129c-0.043.07-.086,0.13-0.129,0.2h-0.129c-0.021.04-.042,0.08-0.064,0.12-0.064.02-.129,0.05-0.193,0.07v0.06h-0.129c-0.022.04-.043,0.09-0.065,0.13-0.128.04-.257,0.08-0.386,0.13l-0.065.12a2.388,2.388,0,0,1-.257.07v0.06c-0.129.05-.258,0.09-0.387,0.13v0.06h-0.193v0.07h-0.129v0.06H240.33v0.07H240.2v0.06c-0.193.04-.387,0.09-0.58,0.13v0.06c-0.15.02-.3,0.04-0.451,0.07v0.06h-0.322v0.06h-0.322v0.07H238.2v0.06h-0.645a7.207,7.207,0,0,1-2.7-.06h-0.387l-1.868-.51v-0.07l-0.323-.06v-0.07l-0.257-.06V6226h-0.193v-0.07l-0.258-.06v-0.07l-0.258-.06c-0.021-.04-0.043-0.08-0.064-0.13-0.129-.04-0.258-0.08-0.387-0.13l-0.064-.12c-0.086-.02-0.172-0.05-0.258-0.07l-0.064-.12h-0.129c-0.043-.07-0.086-0.13-0.129-0.2h-0.129l-0.064-.12h-0.129c-0.043-.07-0.086-0.13-0.129-0.2h-0.129c-0.064-.08-0.129-0.17-0.193-0.25h-0.129c-0.064-.09-0.129-0.17-0.193-0.26a2.189,2.189,0,0,1-.194-0.13v-0.06H228.8c-0.107-.13-0.214-0.26-0.322-0.38a1.2,1.2,0,0,1-.451-0.51H227.9v-0.13c-0.129-.11-0.258-0.22-0.387-0.32v-0.13c-0.086-.06-0.172-0.13-0.258-0.19v-0.13a2.177,2.177,0,0,1-.193-0.13v-0.12a2.177,2.177,0,0,0-.193-0.13v-0.13l-0.129-.06v-0.13c-0.043-.02-0.086-0.05-0.129-0.07v-0.12a0.818,0.818,0,0,0-.129-0.07v-0.13l-0.129-.06c-0.021-.08-0.043-0.17-0.064-0.26l-0.129-.06v-0.13h-0.064v-0.13h-0.065v-0.12h-0.064v-0.13H225.9v-0.13h-0.064v-0.13H225.77v-0.12h-0.065v-0.13h-0.064l-0.129-.39h-0.065v-0.19h-0.064v-0.13h-0.065v-0.19h-0.064v-0.13H225.19c-0.022-.12-0.043-0.25-0.065-0.38h-0.064v-0.19H225v-0.19h-0.064v-0.2h-0.065v-0.19H224.8v-0.25h-0.064v-0.19h-0.065v-0.32H224.61v-0.26h-0.065v-0.25h-0.064v-0.32h-0.064v-0.39h-0.065v-0.38h-0.064v-0.45h-0.065v-0.57h-0.064v-0.84a11.082,11.082,0,0,1,0-3.06v-0.84h0.064v-0.63c0.174-.6.207-1.35,0.387-1.92v-0.32h0.064v-0.26h0.065v-0.25H224.8v-0.26h0.064v-0.26h0.065v-0.25H225v-0.19h0.065v-0.2h0.064v-0.19h0.065v-0.19h0.064v-0.25h0.064v-0.13h0.065v-0.19h0.064c0.043-.2.086-0.39,0.129-0.58h0.065v-0.13h0.064v-0.19h0.065c0.021-.08.042-0.17,0.064-0.26H225.9v-0.19h0.065c0.021-.08.043-0.17,0.064-0.25h0.065v-0.19h0.064l0.129-.39h0.064v-0.13h0.065v-0.12h0.064v-0.13h0.065v-0.13h0.064v-0.13h0.064v-0.12h0.065v-0.13H226.8v-0.13h0.065v-0.13l0.129-.06v-0.13h0.064v-0.13h0.064v-0.13h0.065v-0.12a0.818,0.818,0,0,1,.129-0.07v-0.13h0.064v-0.12c0.043-.02.086-0.05,0.129-0.07,0.022-.08.043-0.17,0.064-0.25,0.043-.02.086-0.05,0.129-0.07v-0.12h0.065c0.021-.07.043-0.13,0.064-0.2l0.129-.06v-0.13l0.129-.06v-0.13h0.064c0.022-.06.043-0.13,0.065-0.19a0.818,0.818,0,0,0,.129-0.07v-0.12a2.04,2.04,0,0,1,.193-0.13v-0.13l0.129-.06v-0.13c0.086-.07.172-0.13,0.257-0.19v-0.13c0.065-.04.129-0.09,0.194-0.13v-0.13c0.086-.06.171-0.12,0.257-0.19v-0.13c0.086-.06.172-0.12,0.258-0.19v-0.13c0.15-.12.3-0.25,0.451-0.38v-0.13c0.236-.21.473-0.42,0.709-0.64a12,12,0,0,1,1.353-1.28c0.107-.12.214-0.25,0.322-0.38H232.6c0.086-.11.172-0.21,0.257-0.32h0.129c0.065-.08.129-0.17,0.194-0.25h0.128c0.065-.09.129-0.18,0.194-0.26h0.129c0.042-.06.085-0.13,0.128-0.19h0.129c0.043-.07.086-0.13,0.129-0.19h0.129c0.043-.07.086-0.13,0.129-0.2H234.4l0.064-.12H234.6c0.043-.07.086-0.13,0.129-0.2h0.129l0.064-.12h0.129c0.021-.05.043-0.09,0.064-0.13h0.129c0.022-.04.043-0.09,0.065-0.13h0.128c0.022-.04.043-0.08,0.065-0.13h0.129l0.064-.12h0.129c0.021-.05.043-0.09,0.064-0.13a2.47,2.47,0,0,0,.258-0.07l0.065-.12h0.128c0.022-.05.043-0.09,0.065-0.13,0.086-.02.172-0.05,0.258-0.07,0.021-.04.042-0.08,0.064-0.12a2.47,2.47,0,0,1,.258-0.07c0.021-.04.043-0.08,0.064-0.13l0.258-.06c0.021-.04.043-0.09,0.064-0.13l0.258-.06v-0.07h0.129v-0.06h0.129c0.021-.04.043-0.08,0.064-0.13h0.129v-0.06H238.2v-0.07h0.129v-0.06h0.128v-0.06c0.086-.02.172-0.05,0.258-0.07,0.022-.04.043-0.08,0.065-0.13h0.128v-0.06h0.129v-0.06h0.129v-0.07H239.3v-0.06h0.129v-0.07h0.129v-0.06c0.129-.04.257-0.08,0.386-0.13v-0.06h0.194v-0.06h0.128v-0.07h0.129v-0.06h0.129v-0.07l0.387-.12v-0.07H241.1v-0.06h0.129v-0.07l0.386-.12v-0.07h0.194v-0.06c0.107-.02.214-0.04,0.322-0.07v-0.06l0.257-.06v-0.07h0.194v-0.06a2.388,2.388,0,0,0,.257-0.07v-0.06h0.194v-0.06h0.129v-0.07h0.193v-0.06h0.129v-0.07h0.193v-0.06h0.193v-0.06H244v-0.07l0.387-.06v-0.06A1.405,1.405,0,0,1,244.9,6187Z" transform="translate(-195 -6187)"/>
</svg>
