<svg xmlns="http://www.w3.org/2000/svg" width="30" height="24" viewBox="0 0 30 24">
  <defs>
    <style>
      .cls-1 {
        fill: #004995;
        fill-rule: evenodd;
      }
    </style>
  </defs>
  <path id="logo" class="cls-1" d="M374.809,795.779h0.037a0.52,0.52,0,0,1,.075-0.151v-0.037h0.019v-0.056h0.018V795.5h0.019v-0.056H375c0.006-.026.012-0.051,0.018-0.074h0.019v-0.057h0.019l0.018-.075h0.019V795.18h0.019l0.018-.075h0.019v-0.056h0.019v-0.037h0.018v-0.056H375.2c0.006-.025.012-0.05,0.019-0.075h0.018v-0.056h0.019c0.006-.026.012-0.051,0.019-0.076h0.018v-0.056h0.019c0.006-.024.012-0.049,0.019-0.074h0.018v-0.056h0.019c0.006-.025.012-0.051,0.018-0.075h0.019v-0.055h0.019c0.006-.026.012-0.051,0.019-0.076h0.018V794.3h0.019c0.006-.025.012-0.049,0.019-0.076h0.018V794.17h0.019l0.018-.075h0.019v-0.056h0.019V794h0.019c0.018-.063.037-0.125,0.056-0.188h0.018c0.006-.024.013-0.049,0.019-0.074h0.018v-0.056h0.019v-0.037h0.019V793.59h0.018a0.49,0.49,0,0,0,.057-0.187h-0.019v-0.056H375.8v-0.038h-0.019v-0.055h-0.018c-0.006-.032-0.013-0.063-0.019-0.094h-0.019v-0.037h-0.018v-0.056h-0.019l-0.018-.075h-0.019v-0.057H375.63l-0.018-.074h-0.019v-0.056h-0.019c-0.006-.025-0.012-0.051-0.019-0.075h-0.018v-0.056h-0.019v-0.037H375.5c-0.007-.026-0.013-0.051-0.019-0.075h-0.019v-0.056h-0.018c-0.007-.025-0.013-0.05-0.019-0.076h-0.019v-0.056h-0.019v-0.037h-0.018c-0.006-.024-0.013-0.05-0.019-0.075h-0.018l-0.075-.224h-0.019l-0.018-.075H375.2v-0.057h-0.019l-0.018-.074h-0.019v-0.056h-0.019v-0.037h-0.018c-0.007-.026-0.013-0.05-0.019-0.075H375.07v-0.056h-0.018c-0.007-.026-0.013-0.051-0.019-0.074h-0.019v-0.057H375c-0.007-.025-0.013-0.05-0.019-0.075h-0.019v-0.056H374.94c-0.007-.025-0.013-0.05-0.019-0.075H374.9v-0.056h-0.018v-0.038h-0.019v-0.055h-0.019c-0.006-.025-0.012-0.051-0.018-0.075h-0.019v-0.056H374.79l-0.018-.076h-0.019v-0.056h-0.019l-0.018-.074H374.7v-0.056h-0.019l-0.018-.075h-0.019V790.6h-0.019l-0.018-.076h-0.019v-0.056h-0.019c-0.006-.025-0.012-0.049-0.018-0.076h-0.019v-0.055H374.51l-0.018-.075h-0.019v-0.056h-0.019l-0.018-.074h-0.019v-0.058H374.4c-0.006-.023-0.012-0.049-0.018-0.074h-0.019v-0.056h-0.019l-0.018-.074h-0.019v-0.057h-0.019v-0.036h-0.018v-0.057h-0.019c-0.006-.025-0.012-0.05-0.019-0.075h-0.018v-0.056h-0.019c-0.006-.025-0.012-0.05-0.019-0.075h-0.018v-0.056h-0.019c-0.006-.026-0.012-0.049-0.019-0.075H374.1v-0.056h-0.019c-0.006-.025-0.012-0.05-0.019-0.075h-0.018V789.2h-0.019c-0.006-.026-0.012-0.051-0.019-0.076h-0.018v-0.056h-0.019c-0.006-.025-0.012-0.05-0.019-0.075h-0.018v-0.055h-0.019c-0.006-.025-0.012-0.051-0.019-0.076h-0.018V788.8h-0.019c-0.006-.026-0.012-0.051-0.019-0.075H373.82v-0.057H373.8c-0.006-.024-0.012-0.049-0.019-0.075h-0.018V788.54h-0.019c-0.006-.024-0.012-0.049-0.019-0.075h-0.018c-0.006-.03-0.013-0.062-0.019-0.093H373.67v-0.056h-0.018c-0.007-.024-0.013-0.05-0.019-0.075h-0.019v-0.056H373.6c-0.006-.024-0.013-0.05-0.019-0.075h-0.019v-0.055H373.54c-0.006-.026-0.013-0.05-0.019-0.075H373.5v-0.057h-0.018c-0.007-.025-0.013-0.049-0.019-0.075h-0.019v-0.055h-0.018c-0.006-.025-0.013-0.05-0.019-0.075H373.39v-0.057h-0.018c-0.006-.024-0.013-0.049-0.019-0.074h-0.019V787.53h-0.018c-0.006-.024-0.013-0.049-0.019-0.074h-0.019V787.4H373.26c-0.006-.025-0.013-0.05-0.019-0.073h-0.019v-0.058H373.2c-0.006-.024-0.013-0.049-0.019-0.074h-0.019v-0.056h-0.018c-0.006-.026-0.013-0.05-0.019-0.075H373.11v-0.055h-0.018V786.97h-0.019v-0.056h-0.018c-0.007-.026-0.013-0.05-0.019-0.075h-0.019v-0.057H373l-0.018-.075h-0.019v-0.055h-0.019l-0.018-.075h-0.019v-0.056h-0.018c-0.007-.026-0.013-0.051-0.019-0.075h-0.019c-0.019-.055-0.037-0.113-0.056-0.169h-0.019v-0.055h-0.018v-0.038h-0.019v-0.056h-0.018c-0.007-.025-0.013-0.05-0.019-0.075h-0.019V786h-0.018c-0.007-.025-0.013-0.05-0.019-0.075h-0.019v-0.056h-0.019l-0.018-.075h-0.019v-0.056h-0.018c-0.007-.025-0.013-0.049-0.019-0.075h-0.019v-0.055H372.5v-0.038h-0.019v-0.056c-0.922-2.048-1.748-4.181-2.669-6.228v-0.056h-0.019c-0.006-.025-0.012-0.05-0.019-0.075h-0.018V779.1h-0.019l-0.018-.075H369.7v-0.056h-0.019c-0.006-.025-0.012-0.05-0.019-0.075h-0.018v-0.056H369.62c-0.006-.025-0.012-0.05-0.019-0.075h-0.018V778.7h-0.019v-0.038h-0.018v-0.056c-0.378-.84-0.707-1.741-1.083-2.58v-0.057h-0.019v-0.038h-0.018v-0.055h-0.019v-0.038h-0.019v-0.055H368.37c-0.007-.026-0.013-0.05-0.019-0.076h-0.019v-0.056h-0.018v-0.037H368.3v-0.056h-0.019v-0.038h-0.018v-0.056h-0.019c-0.006-.024-0.013-0.049-0.019-0.074H368.2v-0.057h-0.019c-0.006-.03-0.012-0.062-0.019-0.093h-0.018v-0.037h-0.019v-0.057h-0.019l-0.018-.074h-0.019v-0.038h-0.019v-0.056h-0.018v-0.037h-0.019v-0.056a0.613,0.613,0,0,1-.075-0.393h0.019V774.4h0.019v-0.074H368V774.27c0.038-.062.075-0.124,0.112-0.187h0.038a0.884,0.884,0,0,1,.5-0.055h0.168v0.017c0.031,0.008.062,0.014,0.093,0.02a0.754,0.754,0,0,0,.093.094V774.2l0.038,0.018,0.018,0.076h0.019c0.012,0.037.025,0.073,0.037,0.111h0.019v0.056h0.019l0.018,0.075h0.019v0.056h0.019l0.018,0.076h0.019v0.055h0.018v0.038h0.019v0.056H369.3c0.006,0.026.012,0.049,0.019,0.075h0.018v0.056h0.019c0.006,0.025.012,0.05,0.019,0.075H369.4v0.056h0.019l0.018,0.074h0.019v0.057h0.019c0.006,0.025.012,0.05,0.019,0.075h0.018v0.055h0.019v0.038h0.019v0.055h0.018c0.006,0.026.013,0.051,0.019,0.075H369.6v0.057h0.019c0.006,0.025.013,0.05,0.019,0.075h0.018v0.056h0.019c0.006,0.025.013,0.049,0.019,0.075h0.019v0.056h0.018c0.006,0.025.013,0.05,0.019,0.075h0.018v0.056h0.019c0.006,0.024.013,0.049,0.019,0.075h0.018c0.007,0.031.013,0.062,0.019,0.093h0.019v0.057h0.019l0.018,0.074h0.019v0.056h0.018c0.007,0.025.013,0.051,0.019,0.075h0.019v0.055h0.018c0.007,0.026.013,0.051,0.019,0.076h0.019v0.056h0.018c0.007,0.025.013,0.049,0.019,0.075h0.019V776.7h0.018c0.007,0.025.013,0.05,0.019,0.075h0.019v0.056h0.018v0.037h0.019v0.056H370.2L370.217,777h0.019v0.057h0.019l0.018,0.074h0.019v0.056h0.019c0.006,0.026.012,0.05,0.018,0.074h0.019v0.057h0.019l0.018,0.075H370.4v0.056h0.019l0.018,0.075h0.019v0.056h0.019v0.037H370.5v0.056h0.019c0.006,0.026.012,0.05,0.019,0.075h0.018v0.056h0.019c0.006,0.026.013,0.051,0.019,0.074h0.018v0.058h0.019c0.006,0.024.012,0.049,0.019,0.074h0.018v0.056h0.019c0.006,0.025.012,0.051,0.019,0.075h0.018V778.2h0.019c0.006,0.026.013,0.051,0.019,0.076h0.018v0.056H370.8v0.038h0.019v0.055h0.018c0.007,0.025.013,0.051,0.019,0.076h0.019v0.055h0.018c0.007,0.026.013,0.05,0.019,0.075h0.019v0.056h0.018c0.007,0.025.013,0.051,0.019,0.075h0.019v0.056H371c0.007,0.024.013,0.05,0.019,0.075h0.019v0.056h0.018c0.007,0.025.013,0.05,0.019,0.075H371.1v0.056h0.018c0.007,0.025.013,0.049,0.019,0.075h0.019v0.056h0.018v0.037h0.019V779.3h0.019q0.009,0.036.018,0.075h0.019v0.056h0.019v0.037h0.018c0.007,0.031.013,0.062,0.019,0.093h0.019v0.056h0.018v0.038h0.019v0.056h0.019l0.018,0.075h0.019v0.056h0.019v0.037h0.018v0.057l0.243,0.5h0.019c0.024-.074.049-0.149,0.074-0.225H371.8v-0.055h0.019l0.018-.075h0.019v-0.056h0.019c0.006-.026.012-0.049,0.018-0.075h0.019V779.9h0.019l0.018-.074h0.019v-0.057h0.019l0.018-.074h0.019v-0.058h0.019V779.6h0.018v-0.057h0.019c0.006-.025.012-0.049,0.019-0.074h0.018v-0.056h0.019c0.006-.026.012-0.05,0.019-0.075h0.018v-0.056H372.2c0.006-.025.012-0.05,0.019-0.075h0.018v-0.056h0.019c0.006-.026.012-0.05,0.019-0.075h0.018v-0.056h0.019c0.006-.025.012-0.05,0.019-0.075h0.018V778.89h0.019c0.006-.025.012-0.051,0.019-0.075H372.4c0.006-.031.013-0.062,0.019-0.093h0.018v-0.057h0.019c0.006-.025.013-0.049,0.019-0.074H372.5v-0.056h0.018c0.006-.025.013-0.051,0.019-0.075h0.019v-0.055h0.018c0.006-.026.013-0.051,0.019-0.076h0.018v-0.056c0.4-.889.776-1.823,1.176-2.712V775.5H373.8c0.006-.024.012-0.049,0.019-0.075h0.018v-0.055h0.019c0.006-.025.012-0.05,0.019-0.075h0.018v-0.056h0.019v-0.037h0.019v-0.057h0.018c0.007-.024.013-0.05,0.019-0.074h0.019v-0.056h0.018c0.007-.025.013-0.05,0.019-0.075h0.019v-0.056h0.018c0.007-.026.013-0.049,0.019-0.075H374.1v-0.056h0.018c0.007-.025.013-0.05,0.019-0.075h0.019v-0.056h0.018v-0.038h0.019v-0.056h0.019l0.018-.075h0.019V774.4h0.019v-0.038h0.018c0.013-.036.025-0.073,0.038-0.111l0.037-.019V774.2l0.037-.019v-0.038l0.075-.056,0.019-.038h0.056a0.423,0.423,0,0,1,.2-0.017h0.373a1.4,1.4,0,0,0,.131.055l0.037,0.056h0.019v0.038l0.037,0.019c0.006,0.024.013,0.049,0.019,0.074h0.018c0.013,0.076.025,0.151,0.038,0.225a0.386,0.386,0,0,1,.019.187h-0.019v0.056h-0.019v0.038h-0.019l-0.018.112H375.35v0.037h-0.018v0.056h-0.019v0.056h-0.019v0.038h-0.018v0.056h-0.019v0.038h-0.019v0.056H375.22c-0.007.031-.013,0.062-0.019,0.093h-0.019v0.037h-0.018v0.056h-0.019c-0.006.025-.013,0.051-0.019,0.075h-0.018v0.056h-0.019v0.038H375.07v0.056h-0.018c-0.007.024-.013,0.049-0.019,0.074h-0.019v0.057H375c-0.007.024-.013,0.05-0.019,0.074h-0.019V775.9H374.94c-0.007.025-.013,0.05-0.019,0.074H374.9c-0.018.062-.037,0.125-0.056,0.188h-0.018V776.2h-0.019v0.056H374.79v0.037h-0.018c-0.007.031-.013,0.063-0.019,0.094h-0.019v0.055h-0.018c-0.007.026-.013,0.051-0.019,0.076h-0.019v0.056H374.66v0.038h-0.019v0.056h-0.019l-0.018.075h-0.019V776.8h-0.019l-0.018.075h-0.019v0.056H374.51v0.038h-0.018v0.056h-0.019c-0.006.024-.012,0.05-0.019,0.074h-0.018v0.057h-0.019c-0.006.025-.012,0.049-0.019,0.074H374.38v0.056h-0.019v0.038h-0.019v0.056h-0.018c-0.007.025-.013,0.05-0.019,0.075h-0.019v0.057h-0.018c-0.007.024-.013,0.048-0.019,0.074H374.23v0.056h-0.018v0.037h-0.019v0.056h-0.019c-0.006.026-.012,0.05-0.018,0.075h-0.019v0.057h-0.019c-0.006.025-.012,0.049-0.018,0.075h-0.019c-0.019.061-.037,0.123-0.056,0.187h-0.019v0.036h-0.018v0.057h-0.019c-0.006.025-.012,0.05-0.019,0.074h-0.018v0.057h-0.019v0.037h-0.019v0.057h-0.018c-0.007.024-.013,0.049-0.019,0.073h-0.019v0.057H373.82c-0.007.025-.013,0.05-0.019,0.075h-0.019V778.7h-0.018c-0.006.026-.013,0.05-0.019,0.074h-0.019v0.057h-0.018v0.038h-0.019v0.056H373.67l-0.018.074h-0.019v0.056h-0.019V779.1H373.6v0.056h-0.019c-0.006.025-.012,0.05-0.019,0.075H373.54v0.056h-0.019c-0.006.024-.012,0.05-0.019,0.074h-0.018v0.057h-0.019v0.037h-0.019l-0.018.075h-0.019v0.056H373.39l-0.018.075h-0.019v0.056h-0.019l-0.018.075H373.3v0.056h-0.019v0.037H373.26c-0.006.025-.013,0.05-0.019,0.075h-0.019v0.057H373.2c-0.006.024-.013,0.049-0.019,0.074h-0.019v0.056h-0.018c-0.006.025-.013,0.05-0.019,0.074H373.11v0.057h-0.018v0.038h-0.019l-0.018.074h-0.019v0.056h-0.019v0.038H373v0.056H372.98l-0.019.074h-0.019v0.057h-0.018c-0.006.025-.013,0.05-0.019,0.074h-0.018V780.8h-0.019v0.037h-0.019v0.057H372.83v0.036h-0.018v0.057h-0.019v0.037h-0.019v0.056h-0.018c-0.006.031-.013,0.062-0.019,0.094h-0.018c-0.007.025-.013,0.05-0.019,0.075h-0.019V781.3h-0.018c-0.007.024-.013,0.049-0.019,0.074h-0.019v0.038h-0.019v0.056h-0.018c-0.006.025-.013,0.05-0.019,0.075h-0.018V781.6h-0.019c-0.006.026-.013,0.051-0.019,0.076H372.5v0.056h-0.019c-0.006.024-.013,0.05-0.019,0.075h-0.019v0.056H372.42V781.9H372.4v0.056h-0.018c-0.007.037-.013,0.074-0.019,0.112h0.019v0.038H372.4c0.006,0.038.013,0.074,0.019,0.112h0.018c0.007,0.025.013,0.05,0.019,0.075h0.019v0.056H372.5v0.038h0.018v0.055h0.019c0.006,0.026.012,0.051,0.019,0.075h0.018v0.038h0.019v0.056h0.018c0.007,0.024.013,0.05,0.019,0.075h0.019v0.056h0.019v0.037h0.018c0.006,0.025.013,0.05,0.019,0.075h0.019v0.056h0.018v0.038h0.019v0.037h0.018v0.037h0.019v0.057h0.019l0.018,0.074h0.019v0.057h0.019c0.006,0.025.012,0.049,0.019,0.073h0.018v0.057h0.019v0.037h0.018v0.057h0.019c0.006,0.025.013,0.05,0.019,0.074H373v0.057h0.019V783.6h0.019v0.056h0.019l0.018,0.075h0.019v0.056h0.018c0.007,0.026.013,0.05,0.019,0.074h0.019v0.057h0.018c0.007,0.025.013,0.05,0.019,0.075H373.2v0.056h0.018c0.007,0.024.013,0.05,0.019,0.075h0.019v0.056h0.018c0.007,0.025.013,0.05,0.019,0.074h0.019v0.057h0.018v0.037h0.019c0.006,0.025.013,0.051,0.019,0.075h0.018v0.056h0.019c0.006,0.025.013,0.05,0.019,0.075h0.018v0.056h0.019c0.006,0.026.012,0.049,0.019,0.075H373.5v0.056h0.019c0.006,0.025.013,0.05,0.019,0.075h0.018v0.056h0.019c0.006,0.024.013,0.05,0.019,0.075h0.018v0.056h0.019c0.006,0.024.012,0.05,0.019,0.074h0.018v0.057h0.019c0.006,0.025.013,0.049,0.019,0.074h0.018v0.056h0.019V785.3h0.019v0.057h0.018c0.007,0.025.013,0.05,0.019,0.075h0.019v0.056h0.018c0.007,0.025.013,0.05,0.019,0.075h0.019v0.056h0.018c0.007,0.025.013,0.05,0.019,0.075h0.019v0.056h0.018c0.007,0.025.013,0.05,0.019,0.074h0.019v0.057h0.018c0.007,0.024.013,0.05,0.019,0.075h0.019v0.055h0.018c0.007,0.026.013,0.051,0.019,0.075H374.1v0.056h0.018c0.007,0.026.013,0.051,0.019,0.076h0.019v0.055h0.018c0.007,0.025.013,0.051,0.019,0.075h0.019v0.056h0.018v0.038h0.019V786.5h0.019l0.018,0.075h0.019v0.056h0.019c0.006,0.024.012,0.051,0.018,0.074h0.019v0.056h0.019l0.018,0.076h0.019V786.9h0.019c0.006,0.024.012,0.05,0.018,0.075h0.019v0.055h0.019l0.018,0.076h0.019v0.056h0.019l0.018,0.074h0.019v0.056H374.6l0.018,0.076h0.019v0.056h0.019l0.018,0.074H374.7v0.057h0.019l0.018,0.074h0.019v0.056h0.019v0.038h0.018c0.007,0.025.013,0.05,0.019,0.075h0.019v0.055h0.018c0.006,0.026.013,0.05,0.019,0.075h0.019v0.057H374.9c0.006,0.025.013,0.049,0.019,0.075h0.019v0.055h0.018c0.007,0.025.013,0.051,0.019,0.075H375v0.056h0.018c0.006,0.025.013,0.051,0.019,0.075h0.019v0.056h0.018c0.006,0.025.013,0.05,0.019,0.075h0.019V788.5h0.018c0.006,0.025.013,0.051,0.019,0.075h0.019v0.055h0.018v0.038H375.2v0.057h0.019l0.018,0.075h0.019v0.055h0.019V788.9h0.018v0.056h0.019v0.037h0.019v0.056h0.018v0.038h0.019v0.055h0.018c0.007,0.027.013,0.051,0.019,0.076h0.019v0.056h0.019l0.018,0.075h0.019V789.4H375.5l0.018,0.074h0.019v0.057h0.018c0.007,0.025.013,0.05,0.019,0.074h0.019v0.057h0.019q0.009,0.036.018,0.075h0.019v0.056h0.019l0.018,0.075h0.019v0.055h0.018v0.038h0.019c0.006,0.025.013,0.05,0.019,0.074h0.018v0.057H375.8c0.006,0.025.013,0.05,0.019,0.075h0.019v0.056h0.018l0.019,0.074h0.018v0.056h0.019c0.006,0.026.013,0.05,0.019,0.075h0.018v0.057h0.019v0.037h0.019c0.006,0.025.012,0.05,0.019,0.076h0.018v0.055h0.019c0.006,0.024.012,0.05,0.018,0.075h0.019v0.056H376.1l0.018,0.074h0.019v0.056h0.019l0.018,0.076h0.019c0.019,0.062.037,0.124,0.056,0.186h0.019v0.038h0.018v0.056H376.3c0.006,0.025.013,0.05,0.019,0.075h0.018V791.4h0.019v0.037h0.019V791.5a1.544,1.544,0,0,1,.13.318h0.038c0.018-.068.037-0.136,0.056-0.205h0.018v-0.037h0.019v-0.057h0.019l0.018-.075h0.019v-0.055h0.019q0.009-.039.018-0.075h0.019v-0.056h0.019l0.018-.076h0.019v-0.055h0.019c0.006-.025.012-0.051,0.018-0.075h0.019v-0.056h0.019v-0.038H376.9V790.9h0.019c0.006-.025.013-0.05,0.019-0.075h0.018v-0.056h0.019c0.006-.024.012-0.051,0.019-0.074h0.018v-0.056h0.019c0.006-.026.012-0.051,0.019-0.076h0.018V790.5h0.019c0.006-.024.013-0.049,0.019-0.075h0.018v-0.055h0.019c0.006-.026.012-0.05,0.019-0.076h0.018c0.007-.031.013-0.062,0.019-0.093h0.019v-0.056h0.018c0.007-.025.013-0.05,0.019-0.076h0.019v-0.055h0.018c0.007-.025.013-0.05,0.019-0.075h0.019v-0.056h0.018c0.007-.025.013-0.049,0.019-0.075h0.019v-0.056H377.4c0.007-.024.013-0.05,0.019-0.074h0.019v-0.057h0.018c0.007-.025.013-0.05,0.019-0.074H377.5v-0.057h0.018v-0.037h0.019V789.4h0.019l0.018-.075h0.019V789.27h0.019l0.018-.074h0.019v-0.058h0.019l0.018-.074H377.7v-0.056h0.019l0.018-.074h0.019v-0.056h0.019q0.009-.039.018-0.075h0.019v-0.056h0.019v-0.038h0.018v-0.056h0.019c0.006-.025.012-0.051,0.019-0.075h0.018v-0.056h0.019c0.006-.026.012-0.05,0.019-0.075h0.018v-0.056h0.019c0.006-.025.012-0.05,0.019-0.075h0.018v-0.055h0.019c0.006-.027.012-0.051,0.019-0.076h0.018v-0.056h0.019c0.006-.024.012-0.05,0.019-0.074h0.018V788h0.019v-0.037h0.019v-0.056h0.018c0.006-.026.013-0.051,0.019-0.075h0.019v-0.056h0.018l0.019-.076h0.019v-0.055H378.3c0.007-.024.013-0.05,0.019-0.075h0.019v-0.056h0.018c0.006-.025.013-0.05,0.019-0.075h0.019v-0.056h0.018c0.006-.025.013-0.049,0.019-0.075h0.019V787.25h0.018v-0.038h0.019v-0.055h0.019l0.018-.076h0.019v-0.056h0.019l0.018-.074H378.6V786.9h0.019l0.018-.075h0.019v-0.057h0.019v-0.037h0.018V786.67h0.019l0.018-.075h0.019V786.54h0.019V786.5h0.019v-0.056H378.8c0.006-.025.013-0.05,0.019-0.075h0.019v-0.056h0.018v-0.038h0.019v-0.055H378.9c0.007-.025.013-0.05,0.019-0.076h0.019V786.09h0.019q0.009-.036.018-0.075h0.019V785.96h0.019v-0.038h0.018v-0.056c0.684-1.52,1.315-3.1,2-4.619v-0.056h0.019v-0.039h0.019V781.1h0.018c0.007-.024.013-0.049,0.019-0.074h0.019v-0.056h0.018v-0.038h0.019v-0.055h0.019l0.018-.094h0.019c0.006-.025.012-0.05,0.019-0.075h0.018v-0.056h0.019V780.61h0.019v-0.055H381.3v-0.038h0.019v-0.056c0.375-.834.726-1.71,1.1-2.543v-0.056h0.019l0.018-.076h0.019c0.006-.03.013-0.062,0.019-0.093h0.019v-0.056h0.018c0.006-.025.013-0.05,0.019-0.074h0.018v-0.056h0.019c0.006-.026.013-0.051,0.019-0.075h0.018v-0.057h0.019c0.006-.024.013-0.05,0.019-0.075h0.018v-0.055H382.7c0.006-.026.013-0.051,0.019-0.076h0.018v-0.055h0.019c0.006-.026.013-0.051,0.019-0.075H382.8v-0.056h0.019v-0.039h0.019v-0.055h0.018c0.007-.025.013-0.05,0.019-0.075h0.019v-0.056h0.018c0.007-.025.013-0.05,0.019-0.074h0.019v-0.057h0.018c0.007-.025.013-0.05,0.019-0.075H383V776.5h0.018c0.007-.025.013-0.05,0.019-0.075h0.019v-0.056h0.018v-0.038H383.1v-0.055h0.019l0.018-.075h0.019v-0.056h0.019l0.018-.075h0.019v-0.057h0.019q0.009-.036.018-0.075h0.019v-0.055h0.019l0.018-.074h0.019v-0.057h0.019V775.71h0.018v-0.056h0.019c0.006-.024.013-0.049,0.019-0.074h0.018v-0.057h0.019c0.006-.024.012-0.05,0.019-0.074h0.018v-0.056h0.019c0.006-.026.012-0.05,0.019-0.075h0.018v-0.056h0.019c0.006-.025.013-0.05,0.019-0.075h0.018v-0.056H383.6v-0.037h0.019v-0.057h0.018c0.007-.025.013-0.049,0.019-0.074h0.019v-0.057h0.018c0.007-.025.013-0.05,0.019-0.075h0.019c0.006-.03.012-0.062,0.018-0.093h0.019v-0.056h0.019v-0.037h0.018v-0.057h0.019c0.006-.024.012-0.05,0.019-0.074h0.018v-0.057h0.019c0.006-.025.012-0.049,0.019-0.074h0.018v-0.056l0.15-.225a1.544,1.544,0,0,1,.784-0.057c0.049,0.057.1,0.114,0.149,0.169v0.711h-0.019v0.056h-0.018v0.056h-0.019v0.057h-0.019v0.037h-0.018c-0.007.038-.013,0.075-0.019,0.112h-0.019v0.038h-0.018v0.055h-0.019c-0.006.025-.013,0.05-0.019,0.075H384.8v0.056h-0.019V775.5h-0.019c-0.006.033-.012,0.063-0.018,0.1H384.72v0.055H384.7l-0.018.075h-0.019v0.057h-0.019l-0.018.074h-0.019v0.056h-0.019v0.038h-0.018v0.055h-0.019c-0.006.025-.013,0.051-0.019,0.076h-0.018v0.056H384.5v0.038h-0.019l-0.018.093H384.44v0.055h-0.019l-0.018.075h-0.019v0.057h-0.019V776.5h-0.018v0.056h-0.019c-0.006.025-.013,0.05-0.019,0.075h-0.018v0.057h-0.019v0.037h-0.019l-0.018.093h-0.019v0.056H384.2c-0.006.025-.012,0.051-0.018,0.074H384.16V777h-0.019v0.038h-0.018v0.055H384.1c-0.006.026-.012,0.051-0.019,0.075h-0.018v0.056h-0.019v0.037h-0.019v0.057h-0.018c-0.007.032-.013,0.063-0.019,0.093h-0.019l-0.018.075h-0.019v0.057h-0.019v0.037H383.9v0.056H383.88v0.037h-0.019v0.056c-0.433.963-.819,1.975-1.25,2.937v0.056h-0.019v0.038h-0.019v0.055h-0.018c-0.006.025-.013,0.05-0.019,0.076h-0.018v0.056H382.5c-0.006.024-.013,0.049-0.019,0.074h-0.019v0.056h-0.018v0.037h-0.019v0.057h-0.019l-0.018.075h-0.019c-0.018.062-.037,0.124-0.056,0.186h-0.019v0.038h-0.018v0.056h-0.019v0.037h-0.019l-0.018.094H382.2v0.056h-0.018c-0.007.025-.013,0.049-0.019,0.075h-0.019v0.056h-0.018v0.038h-0.019v0.055h-0.019c-0.006.025-.012,0.05-0.019,0.076h-0.018v0.055h-0.019v0.038h-0.018c-0.007.025-.013,0.05-0.019,0.074h-0.019v0.058h-0.018c-0.007.023-.013,0.048-0.019,0.073H381.92v0.057H381.9l-0.018.074h-0.019q-0.009.048-.018,0.093h-0.019v0.058h-0.019c-0.006.024-.012,0.048-0.018,0.074h-0.019v0.056h-0.019v0.037h-0.018c-0.007.031-.013,0.063-0.019,0.094H381.7v0.056h-0.018c-0.007.025-.013,0.05-0.019,0.075H381.64v0.056h-0.018c-0.007.025-.013,0.05-0.019,0.075h-0.019v0.057h-0.018v0.037h-0.019v0.056h-0.019l-0.018.074h-0.019V783.4h-0.019l-0.018.074h-0.019v0.058h-0.019l-0.018.074h-0.019v0.056H381.36l-0.018.075h-0.019v0.056H381.3c-0.006.026-.012,0.05-0.018,0.074h-0.019v0.057h-0.019v0.037H381.23v0.057h-0.019c-0.006.024-.013,0.049-0.019,0.075h-0.018v0.055h-0.019c-0.006.026-.012,0.05-0.019,0.075h-0.018v0.056H381.1c-0.006.025-.012,0.05-0.019,0.075h-0.018v0.056h-0.019v0.037h-0.019V784.5h-0.018c-0.007.025-.013,0.05-0.019,0.075h-0.019v0.055H380.95c-0.007.026-.013,0.051-0.019,0.075h-0.019v0.056h-0.018V784.8h-0.019v0.056h-0.019l-0.018.075h-0.019v0.056H380.8l-0.018.075h-0.019v0.056h-0.019v0.037h-0.018v0.056h-0.019c-0.006.026-.012,0.05-0.019,0.076H380.67v0.055h-0.019c-0.006.025-.012,0.051-0.019,0.075h-0.018v0.056H380.6v0.038h-0.019v0.056c-0.627,1.394-1.2,2.85-1.829,4.245v0.057h-0.019v0.037H378.71v0.056h-0.019l-0.018.074h-0.019v0.057h-0.019l-0.018.075H378.6v0.056h-0.019l-0.018.074h-0.019v0.056h-0.019l-0.018.075h-0.019v0.057h-0.019l-0.018.074H378.43v0.056h-0.019l-0.018.076h-0.019v0.055h-0.019v0.038h-0.018v0.056h-0.019c-0.006.025-.012,0.049-0.019,0.074h-0.018v0.056h-0.019l-0.019.076h-0.018V791.1h-0.019c-0.006.025-.013,0.05-0.019,0.074h-0.018v0.056H378.15c-0.006.026-.012,0.05-0.019,0.076h-0.018v0.055h-0.019V791.4h-0.019l-0.018.075h-0.019v0.057h-0.019v0.037H378v0.056h-0.019v0.037h-0.019l-0.018.075h-0.019v0.055h-0.019l-0.018.076H377.87v0.056h-0.019c-0.006.025-.012,0.049-0.018,0.075h-0.019v0.056H377.8l-0.018.074h-0.019v0.057h-0.019l-0.018.074H377.7v0.057h-0.019l-0.018.074h-0.019v0.057h-0.019l-0.018.074H377.59v0.056h-0.019l-0.018.075h-0.019v0.056h-0.019c-0.006.026-.012,0.049-0.018,0.075h-0.019v0.056h-0.019l-0.018.075h-0.019v0.056H377.4l-0.018.075h-0.019V793.1h-0.019v0.038h-0.018c-0.007.024-.013,0.049-0.019,0.074h-0.019v0.056h-0.018c-0.006.025-.013,0.051-0.019,0.075h-0.019V793.4h-0.018c-0.007.025-.013,0.05-0.019,0.075h-0.019v0.056h-0.018c-0.007.025-.013,0.049-0.019,0.076h-0.019v0.055h-0.018c-0.006.024-.013,0.05-0.019,0.075h-0.019V793.8h-0.018c-0.007.025-.013,0.05-0.019,0.074h-0.019v0.058h-0.018c-0.007.023-.013,0.049-0.019,0.074h-0.019v0.056h-0.018c-0.006.025-.013,0.05-0.019,0.074H376.9v0.056h-0.018c-0.006.026-.013,0.051-0.019,0.075h-0.019v0.056h-0.018c-0.007.026-.013,0.05-0.019,0.076h-0.019v0.055h-0.018c-0.006.025-.013,0.05-0.019,0.076h-0.019v0.056h-0.018v0.037h-0.019c-0.006.025-.012,0.05-0.019,0.074h-0.018v0.056h-0.019c-0.006.025-.012,0.05-0.019,0.076H376.6v0.056h-0.019c-0.006.025-.012,0.05-0.019,0.075h-0.018v0.056h-0.019c-0.006.025-.012,0.049-0.019,0.074h-0.018v0.057H376.47c-0.006.024-.012,0.05-0.019,0.075h-0.018v0.055h-0.019c-0.006.025-.012,0.05-0.019,0.075h-0.018v0.057h-0.019c-0.006.024-.012,0.049-0.019,0.074h-0.018v0.056H376.3c-0.006.025-.012,0.05-0.019,0.075h-0.018v0.056h-0.019c-0.006.026-.012,0.05-0.019,0.074h-0.018V795.8H376.19c-0.006.024-.012,0.049-0.019,0.074h-0.018v0.056h-0.019c-0.006.025-.012,0.05-0.019,0.075H376.1v0.055h-0.019c-0.006.026-.012,0.051-0.019,0.075h-0.018v0.057h-0.019l-0.018.075h-0.019v0.055h-0.019v0.038h-0.019v0.055h-0.018c-0.006.027-.013,0.051-0.019,0.076h-0.019v0.056h-0.018v0.037h-0.019l-0.018.076h-0.019v0.056H375.8c-0.006.023-.012,0.05-0.019,0.074h-0.018v0.056h-0.019v0.038h-0.019v0.037h-0.018c-0.006.026-.013,0.049-0.019,0.075h-0.018v0.056h-0.019v0.038H375.63v0.037h-0.018c-0.013.038-.025,0.075-0.038,0.112h-0.019v0.056c-0.1.182-.2,0.362-0.3,0.543a0.258,0.258,0,0,0-.037.019c-0.019.025-.038,0.049-0.056,0.074a0.175,0.175,0,0,0-.075.037c-0.2,0-.426,0-0.6-0.018a0.208,0.208,0,0,0-.075-0.056v-0.019c-0.019-.012-0.037-0.026-0.056-0.037V797.8l-0.037-.019v-0.037l-0.038-.018c-0.006-.025-0.012-0.051-0.018-0.075h-0.019c-0.012-.038-0.025-0.076-0.037-0.112h-0.019V797.48h-0.019v-0.037h-0.018v-0.057h-0.019c-0.006-.024-0.012-0.049-0.019-0.074H374.1v-0.056h-0.019c-0.006-.025-0.012-0.05-0.019-0.074h-0.018v-0.057h-0.019v-0.037h-0.019v-0.057h-0.018c-0.007-.024-0.013-0.049-0.019-0.074H373.95V796.9h-0.018c-0.006-.025-0.013-0.049-0.019-0.074h-0.019V796.77h-0.018c-0.007-.025-0.013-0.05-0.019-0.075h-0.019v-0.057H373.82V796.6H373.8v-0.056h-0.019l-0.018-.074h-0.019v-0.058h-0.019l-0.018-.073h-0.019v-0.057H373.67v-0.036h-0.018V796.19h-0.019c-0.006-.025-0.012-0.05-0.019-0.075H373.6v-0.057h-0.019c-0.006-.025-0.012-0.048-0.019-0.074H373.54v-0.056h-0.019c-0.006-.025-0.012-0.05-0.019-0.075h-0.018V795.8h-0.019V795.76h-0.019V795.7h-0.018c-0.006-.025-0.013-0.049-0.019-0.075H373.39v-0.055h-0.018c-0.006-.025-0.013-0.05-0.019-0.075h-0.019v-0.056h-0.018v-0.037H373.3v-0.057h-0.019l-0.018-.075h-0.019v-0.055h-0.019l-0.018-.075h-0.019v-0.057h-0.019v-0.037h-0.018v-0.056c-0.705-1.566-1.331-3.2-2.035-4.769v-0.056H371.1v-0.037h-0.019v-0.058h-0.019c-0.006-.023-0.012-0.049-0.018-0.074H371.02v-0.056H371l-0.018-.074h-0.019v-0.057h-0.019l-0.018-.074h-0.019v-0.056h-0.019v-0.038h-0.018v-0.056h-0.019c-0.006-.025-0.012-0.05-0.019-0.075h-0.018v-0.056H370.8c-0.006-.026-0.012-0.049-0.019-0.075h-0.018v-0.056H370.74v-0.037h-0.019v-0.056H370.7c-0.007-.026-0.013-0.051-0.019-0.076h-0.019V789.1h-0.018c-0.007-.024-0.013-0.049-0.019-0.074h-0.019v-0.056h-0.018c-0.006-.025-0.013-0.05-0.019-0.075h-0.019v-0.055h-0.018V788.8h-0.019v-0.056H370.5l-0.018-.076H370.46v-0.055h-0.019l-0.018-.076H370.4v-0.055h-0.019c-0.006-.026-0.012-0.05-0.018-0.075h-0.019c-0.006-.032-0.012-0.063-0.019-0.094h-0.018v-0.055h-0.019c-0.006-.027-0.012-0.051-0.019-0.076h-0.018v-0.056h-0.019v-0.038h-0.019l-0.018-.111H370.18c-0.006-.032-0.012-0.063-0.019-0.094h-0.018c-0.007-.025-0.013-0.05-0.019-0.075h-0.019v-0.056h-0.018a0.886,0.886,0,0,0-.075-0.168h-0.037a0.878,0.878,0,0,1-.112.3v0.057h-0.019v0.037h-0.019v0.056h-0.018c-0.006.025-.013,0.05-0.019,0.074h-0.019v0.056h-0.018c-0.006.026-.013,0.05-0.019,0.075h-0.018V788.3H369.7v0.037h-0.019c-0.006.025-.012,0.05-0.019,0.075h-0.018v0.055H369.62V788.5H369.6l-0.018.075h-0.019v0.055h-0.018v0.038h-0.019c-0.006.025-.013,0.05-0.019,0.076H369.49V788.8h-0.019c-0.006.024-.013,0.049-0.019,0.075h-0.019v0.056h-0.018c-0.006.024-.013,0.049-0.019,0.074h-0.018v0.056h-0.019c-0.006.025-.013,0.05-0.019,0.074h-0.018V789.2H369.3c-0.006.024-.013,0.049-0.019,0.074h-0.019v0.056h-0.018c-0.006.025-.013,0.05-0.019,0.075H369.21v0.056h-0.019v0.037h-0.019v0.057h-0.018c-0.007.024-.013,0.049-0.019,0.074h-0.019v0.057H369.1c-0.007.024-.013,0.05-0.019,0.074H369.06v0.056h-0.018v0.037h-0.019c-0.006.026-.013,0.05-0.019,0.075h-0.018v0.056h-0.019c-0.006.032-.013,0.063-0.019,0.093H368.93c-0.007.026-.013,0.051-0.019,0.076h-0.019v0.056h-0.018v0.038h-0.019V790.3h-0.019v0.038h-0.018v0.055H368.8c-0.006.027-.013,0.051-0.019,0.076h-0.018v0.056h-0.019c-0.006.025-.013,0.05-0.019,0.076h-0.018v0.055h-0.019v0.038h-0.019c-0.006.023-.012,0.05-0.018,0.074h-0.019v0.056h-0.019l-0.018.075h-0.019v0.056h-0.019v0.038h-0.018v0.056h-0.019c-0.006.024-.012,0.05-0.019,0.075h-0.018v0.055h-0.019c-0.006.025-.012,0.05-0.019,0.076h-0.018v0.056h-0.019c-0.006.024-.013,0.049-0.019,0.075H368.37v0.055h-0.019c-0.006.025-.012,0.05-0.019,0.075h-0.018v0.057H368.3c-0.006.024-.012,0.049-0.019,0.074h-0.018V791.7h-0.019c-0.006.025-.013,0.05-0.019,0.075H368.2v0.056h-0.019v0.038h-0.019v0.056c-0.53,1.179-1.018,2.411-1.549,3.59v0.057H366.6l-0.018.074h-0.019V795.7h-0.018c-0.007.026-.013,0.051-0.019,0.076H366.5v0.056h-0.019v0.037h-0.018v0.056h-0.019c-0.006.025-.012,0.05-0.019,0.075H366.41v0.055h-0.019q-0.009.039-.018,0.075h-0.019v0.057h-0.019c-0.006.025-.012,0.05-0.019,0.075H366.3v0.055h-0.019c-0.006.026-.012,0.051-0.019,0.076h-0.018v0.055h-0.019l-0.018.075h-0.019v0.056h-0.019l-0.018.076H366.13v0.056h-0.019v0.037h-0.019v0.056h-0.018v0.037h-0.019V796.9h-0.018v0.038h-0.019c-0.006.03-.013,0.062-0.019,0.093h-0.018v0.057h-0.019v0.055h-0.019c-0.006.025-.012,0.05-0.019,0.076h-0.018v0.056h-0.019v0.037h-0.018c-0.007.031-.013,0.063-0.019,0.094h-0.019l-0.037.111h-0.019v0.038h-0.018v0.038h-0.019v0.037h-0.019v0.038H365.7V797.7l-0.038.02-0.018.074-0.056.038v0.037l-0.112.093a1.827,1.827,0,0,1-.635-0.037l-0.075-.093-0.037-.019v-0.038l-0.037-.017v-0.038l-0.038-.02c-0.012-.036-0.024-0.074-0.037-0.111l-0.037-.02c-0.019-.056-0.038-0.112-0.056-0.167h-0.019v-0.038h-0.019v-0.037h-0.018c-0.013-.038-0.025-0.075-0.038-0.112h-0.018v-0.056h-0.019v-0.038h-0.019l-0.018-.075h-0.019v-0.056h-0.019l-0.018-.075h-0.019v-0.056h-0.019v-0.037h-0.018c-0.006-.025-0.013-0.051-0.019-0.075h-0.019V796.7h-0.018v-0.037H364.17V796.6h-0.019l-0.018-.075h-0.019v-0.055H364.1l-0.018-.075h-0.019V796.34h-0.019V796.3h-0.018c-0.007-.026-0.013-0.051-0.019-0.076h-0.019v-0.056h-0.018v-0.038h-0.019c-0.006-.024-0.012-0.049-0.019-0.075h-0.018V796H363.89v-0.038h-0.019v-0.037h-0.018v-0.037h-0.019c-0.012-.038-0.025-0.075-0.037-0.112h-0.019v-0.057h-0.019v-0.037h-0.018c-0.006-.025-0.013-0.05-0.019-0.075H363.7v-0.056h-0.018v-0.038h-0.019c-0.006-.025-0.012-0.049-0.019-0.074h-0.018v-0.057H363.61c-0.006-.024-0.012-0.049-0.019-0.074h-0.018v-0.057h-0.019c-0.006-.024-0.012-0.049-0.019-0.074h-0.018v-0.057H363.5v-0.037h-0.019V795.03h-0.018c-0.006-.025-0.013-0.05-0.019-0.074h-0.018V794.9h-0.019v-0.037h-0.019v-0.058h-0.018c-0.007-.024-0.013-0.048-0.019-0.074H363.33v-0.056h-0.019l-0.018-.075h-0.019v-0.055h-0.018c-0.007-.027-0.013-0.051-0.019-0.076h-0.019v-0.056H363.2c-0.007-.025-0.013-0.05-0.019-0.075h-0.019v-0.056h-0.019l-0.018-.075h-0.019v-0.056h-0.018c-0.007-.025-0.013-0.05-0.019-0.074H363.05v-0.056h-0.018v-0.038h-0.019v-0.055h-0.019c-0.006-.027-0.012-0.051-0.018-0.076h-0.019V793.8h-0.019l-0.018-.075H362.9v-0.056h-0.019l-0.018-.075h-0.019c-0.019-.062-0.037-0.124-0.056-0.187H362.77v-0.038h-0.018v-0.056h-0.019l-0.019-.074H362.7v-0.056h-0.019c-0.006-.025-0.013-0.05-0.019-0.075H362.64v-0.056h-0.019V793.01H362.6v-0.055h-0.018c-0.007-.025-0.013-0.051-0.019-0.076h-0.019v-0.055h-0.018c-0.007-.025-0.013-0.05-0.019-0.076H362.49v-0.056h-0.018c-0.007-.025-0.013-0.048-0.019-0.075h-0.019v-0.055h-0.018c-0.007-.025-0.013-0.05-0.019-0.075h-0.019V792.43H362.36v-0.037h-0.019v-0.056h-0.019c-0.006-.024-0.012-0.05-0.018-0.075h-0.019v-0.056h-0.019l-0.018-.075h-0.019v-0.056H362.21L362.192,792h-0.019v-0.057h-0.019l-0.018-.074h-0.019v-0.057H362.1l-0.018-.074h-0.019v-0.057h-0.019v-0.037h-0.018c-0.007-.025-0.013-0.05-0.019-0.074h-0.019v-0.057h-0.018c-0.007-.025-0.013-0.05-0.019-0.075H361.93v-0.055h-0.018v-0.038h-0.019c-0.006-.025-0.013-0.05-0.019-0.075h-0.018v-0.056h-0.019c-0.006-.025-0.012-0.05-0.019-0.075H361.8v-0.056h-0.019v-0.037h-0.019l-0.018-.076h-0.019v-0.056h-0.019l-0.018-.074h-0.019v-0.056H361.65l-0.018-.075h-0.019v-0.056h-0.019l-0.018-.075h-0.019v-0.056h-0.019l-0.018-.075H361.5v-0.057h-0.019c-0.006-.024-0.012-0.048-0.018-0.074h-0.019v-0.056h-0.019l-0.018-.074h-0.019v-0.056H361.37q-0.009-.039-0.018-0.075h-0.019V790h-0.019l-0.018-.075h-0.019v-0.055h-0.019l-0.018-.075h-0.019v-0.056H361.2q-0.009-.039-0.018-0.075h-0.019v-0.057h-0.019l-0.018-.074h-0.019v-0.057H361.09l-0.018-.074h-0.019v-0.056h-0.019l-0.018-.075H361v-0.056h-0.019c-0.006-.025-0.012-0.049-0.018-0.076h-0.019v-0.055h-0.019l-0.018-.075h-0.019v-0.056h-0.019c-0.006-.026-0.012-0.049-0.018-0.074h-0.019v-0.057H360.81l-0.018-.074h-0.019V788.69h-0.019l-0.018-.074h-0.019v-0.058H360.7l-0.018-.073h-0.019v-0.057h-0.019l-0.018-.074h-0.019V788.3h-0.019l-0.018-.076h-0.019v-0.056H360.53l-0.018-.075h-0.019v-0.055h-0.019V788h-0.018v-0.055h-0.019l-0.018-.076H360.4c-0.019-.062-0.038-0.124-0.056-0.187h-0.019v-0.037h-0.019v-0.056h-0.018V787.55h-0.019v-0.057h-0.018c-0.007-.025-0.013-0.049-0.019-0.074h-0.019v-0.056h-0.019v-0.037h-0.018v-0.058h-0.019c-0.006-.024-0.012-0.049-0.019-0.074H360.12v-0.056H360.1V787.1h-0.018v-0.057h-0.019c-0.006-.025-0.013-0.049-0.019-0.074h-0.018v-0.056h-0.019c-0.006-.026-0.013-0.05-0.019-0.075H359.97v-0.057h-0.018c-0.006-.025-0.013-0.05-0.019-0.075h-0.018v-0.055H359.9v-0.038h-0.019l-0.018-.074H359.84v-0.056h-0.019c-0.006-.026-0.012-0.051-0.019-0.076h-0.018v-0.056h-0.019l-0.018-.075h-0.019v-0.055h-0.019v-0.038h-0.018v-0.056h-0.019c-0.006-.025-0.013-0.05-0.019-0.075h-0.018V786h-0.019c-0.006-.025-0.013-0.05-0.019-0.075h-0.018v-0.056H359.56c-0.006-.025-0.013-0.05-0.019-0.075h-0.018v-0.056H359.5c-0.006-.025-0.013-0.049-0.019-0.075h-0.018v-0.055h-0.019v-0.038h-0.019v-0.056h-0.018c-0.007-.025-0.013-0.05-0.019-0.075h-0.019V785.38h-0.018c-0.007-.025-0.013-0.05-0.019-0.076h-0.019v-0.055H359.3c-0.007-.026-0.013-0.05-0.019-0.075h-0.019v-0.056h-0.018V785.08h-0.019v-0.055h-0.019q-0.009-.039-0.018-0.075h-0.019v-0.057h-0.019l-0.018-.074h-0.019v-0.057h-0.019l-0.018-.074h-0.019v-0.057h-0.019l-0.018-.074H359V784.5h-0.019v-0.037h-0.018v-0.057h-0.019c-0.006-.025-0.013-0.049-0.019-0.075h-0.018v-0.056h-0.019c-0.006-.025-0.012-0.049-0.019-0.074h-0.018v-0.057h-0.019c-0.006-.025-0.012-0.05-0.019-0.074H358.8v-0.056h-0.019v-0.038h-0.019v-0.056h-0.018c-0.007-.025-0.013-0.05-0.019-0.075H358.7V783.79h-0.018c-0.007-.025-0.013-0.05-0.019-0.075h-0.019v-0.056h-0.018c-0.007-.025-0.013-0.051-0.019-0.074h-0.019v-0.056h-0.018v-0.038h-0.019v-0.056h-0.019l-0.018-.075H358.5V783.3h-0.019l-0.018-.075H358.44v-0.055h-0.019c-0.006-.027-0.012-0.051-0.018-0.076h-0.019v-0.056h-0.019V783h-0.018v-0.055h-0.019c-0.006-.025-0.012-0.051-0.019-0.076h-0.018v-0.055h-0.019V782.78h-0.019l-0.018-.093h-0.019v-0.056H358.2q-0.009-.039-0.018-0.075H358.16V782.5h-0.019v-0.037h-0.018v-0.056H358.1c-0.006-.031-0.012-0.063-0.019-0.094h-0.018c-0.007-.025-0.013-0.05-0.019-0.073h-0.019v-0.058h-0.018v-0.036h-0.019v-0.058h-0.019v-0.036h-0.018v-0.057c-0.357-.791-0.689-1.618-1.045-2.412v-0.056h-0.019c-0.006-.025-0.013-0.049-0.019-0.075h-0.019l-0.018-.094h-0.019V779.3H356.8v-0.038h-0.018c-0.006-.025-0.013-0.05-0.019-0.075h-0.018v-0.056h-0.019c-0.006-.025-0.013-0.049-0.019-0.075h-0.018V779h-0.019c-0.006-.025-0.013-0.05-0.019-0.074h-0.019v-0.056h-0.018v-0.038h-0.019v-0.057h-0.018c-0.007-.024-0.013-0.048-0.019-0.074h-0.019v-0.056h-0.018v-0.038H356.5v-0.056H356.48l-0.018-.075h-0.019v-0.056h-0.019v-0.037h-0.018v-0.056h-0.019v-0.038h-0.019c-0.006-.03-0.012-0.062-0.018-0.094h-0.019v-0.055h-0.019V778.1h-0.018v-0.056h-0.019v-0.037h-0.019v-0.056h-0.018v-0.037h-0.019c-0.006-.031-0.012-0.062-0.019-0.094h-0.018v-0.056h-0.019V777.73h-0.019v-0.056h-0.018c-0.007-.031-0.013-0.062-0.019-0.093h-0.019v-0.037H356.07v-0.057h-0.019c-0.006-.025-0.012-0.049-0.019-0.075h-0.018v-0.056H356v-0.037h-0.019v-0.057h-0.018v-0.037h-0.019v-0.056H355.92v-0.037H355.9v-0.056h-0.019v-0.037h-0.019v-0.056h-0.018c-0.007-.026-0.013-0.05-0.019-0.076h-0.019v-0.056H355.79c-0.007-.024-0.013-0.049-0.019-0.074h-0.019v-0.056h-0.018v-0.037h-0.019v-0.057H355.7l-0.018-.075h-0.019v-0.037H355.64v-0.056h-0.018c-0.007-.025-0.013-0.05-0.019-0.075h-0.019v-0.057h-0.018c-0.007-.025-0.013-0.049-0.019-0.074h-0.019V776.2H355.51V776.16h-0.019c-0.006-.032-0.012-0.063-0.019-0.094h-0.018v-0.057h-0.019v-0.037h-0.019v-0.056H355.4v-0.037h-0.019v-0.056H355.36l-0.018-.075h-0.019v-0.056H355.3v-0.038h-0.018V775.6h-0.019c-0.006-.032-0.012-0.062-0.019-0.1H355.23v-0.037h-0.019v-0.056h-0.019l-0.018-.075h-0.019v-0.055h-0.019l-0.018-.075H355.1c-0.006-.037-0.012-0.075-0.019-0.112h-0.018v-0.038h-0.019a1.288,1.288,0,0,1-.037-0.43,1.471,1.471,0,0,1,.018-0.43,0.19,0.19,0,0,1,.131-0.131,0.336,0.336,0,0,1,.224-0.037h0.336c0.056,0.017.112,0.037,0.168,0.055l0.037,0.056h0.019c0.012,0.038.025,0.075,0.037,0.113H356v0.038h0.019c0.012,0.037.025,0.073,0.037,0.111h0.019v0.056h0.018V774.5h0.019c0.006,0.025.012,0.05,0.019,0.074h0.018v0.057h0.019c0.006,0.025.012,0.05,0.019,0.075H356.2v0.056h0.019c0.006,0.025.012,0.05,0.019,0.074h0.018v0.057h0.019v0.037h0.019v0.056h0.018c0.006,0.025.013,0.051,0.019,0.075h0.019v0.056h0.018c0.006,0.025.013,0.05,0.019,0.075h0.019v0.056h0.018c0.006,0.025.013,0.049,0.019,0.075h0.019v0.056h0.018v0.037H356.5c0.006,0.025.012,0.051,0.019,0.075h0.018v0.056h0.019c0.006,0.025.012,0.05,0.019,0.075h0.018v0.057h0.019l0.018,0.074h0.019v0.057h0.019v0.036h0.019V775.9H356.7c0.006,0.025.013,0.05,0.019,0.074h0.019v0.057h0.018c0.006,0.024.013,0.049,0.019,0.075H356.8v0.056h0.019V776.2h0.019v0.056h0.018v0.037h0.019c0.006,0.026.013,0.05,0.019,0.075h0.019v0.056h0.018v0.038h0.019v0.056h0.018c0.007,0.025.013,0.05,0.019,0.075H357c0.018,0.062.037,0.124,0.056,0.187h0.019v0.037H357.1v0.056h0.019c0.006,0.025.012,0.051,0.018,0.074h0.019V777h0.019l0.018,0.075h0.019v0.056h0.019v0.037h0.018c0.007,0.025.013,0.05,0.019,0.076h0.019V777.3H357.3v0.038h0.019v0.037h0.019v0.037h0.018v0.058h0.019c0.006,0.023.013,0.048,0.019,0.074h0.018V777.6h0.019c0.006,0.025.013,0.049,0.019,0.074h0.018v0.056h0.019c0.006,0.026.012,0.05,0.019,0.075h0.018v0.057h0.019V777.9h0.019l0.018,0.094H357.6v0.055h0.019l0.018,0.076h0.019v0.056h0.019l0.018,0.074h0.019v0.056h0.019l0.018,0.075h0.019v0.057h0.019l0.018,0.073h0.019v0.057h0.019l0.018,0.075h0.019V778.7H357.9c0.006,0.026.012,0.05,0.018,0.074h0.019v0.057h0.019v0.038h0.018c0.007,0.024.013,0.049,0.019,0.074h0.019V779h0.018c0.007,0.025.013,0.05,0.019,0.075h0.019v0.056h0.018v0.037H358.1v0.057h0.019c0.006,0.024.012,0.05,0.018,0.075h0.019v0.055h0.019V779.4H358.2v0.056h0.019c0.006,0.026.012,0.05,0.019,0.075h0.018c0.007,0.031.013,0.062,0.019,0.093h0.019v0.056c0.482,1.074.937,2.183,1.418,3.254v0.057h0.019v0.037h0.019v0.057h0.018c0.006,0.024.013,0.049,0.019,0.074H359.8l0.057,0.187h0.018v0.037H359.9v0.057h0.019v0.036h0.018v0.058h0.019l0.018,0.074h0.019v0.056h0.019c0.006,0.025.012,0.05,0.019,0.075h0.018v0.056h0.019c0.006,0.026.012,0.05,0.019,0.074H360.1v0.057h0.019L360.138,784h0.019v0.056h0.019c0.006,0.024.012,0.05,0.018,0.075h0.019v0.056h0.019c0.006,0.025.012,0.05,0.019,0.074h0.018v0.057h0.019l0.018,0.074h0.019c0.006,0.032.013,0.063,0.019,0.094h0.018v0.056h0.019c0.006,0.025.013,0.05,0.019,0.075h0.019v0.056h0.018c0.006,0.025.013,0.05,0.019,0.075h0.018V784.8h0.019c0.006,0.025.013,0.05,0.019,0.075h0.018v0.056h0.019c0.006,0.025.013,0.05,0.019,0.075h0.018v0.056h0.019c0.006,0.024.013,0.05,0.019,0.075h0.018v0.056h0.019c0.006,0.025.013,0.049,0.019,0.074H360.7v0.056h0.019c0.006,0.026.013,0.051,0.019,0.076h0.018v0.056h0.019c0.006,0.024.013,0.049,0.019,0.074h0.018v0.056h0.019c0.006,0.026.012,0.05,0.019,0.075h0.018v0.057h0.019v0.037H360.9v0.056h0.018c0.007,0.025.013,0.05,0.019,0.075h0.019v0.056h0.018c0.007,0.025.013,0.05,0.019,0.074h0.019v0.057h0.018c0.007,0.025.013,0.049,0.019,0.074h0.019V786.2h0.018c0.007,0.026.013,0.051,0.019,0.075h0.019v0.056h0.018c0.007,0.026.013,0.05,0.019,0.075h0.019v0.056H361.2c0.007,0.025.013,0.05,0.019,0.076h0.019V786.6h0.018c0.007,0.026.013,0.05,0.019,0.075H361.3v0.056h0.018c0.007,0.025.013,0.051,0.019,0.074h0.019v0.058h0.018c0.007,0.023.013,0.049,0.019,0.074h0.019v0.056h0.018v0.037h0.019v0.056h0.019l0.018,0.076H361.5v0.055h0.019c0.006,0.025.012,0.051,0.018,0.075h0.019v0.056h0.019l0.018,0.076h0.019v0.056h0.019c0.006,0.025.012,0.049,0.018,0.075h0.019v0.055h0.019c0.006,0.025.012,0.051,0.018,0.075h0.019v0.056h0.019l0.018,0.075h0.019v0.056H361.8l0.018,0.076h0.019V788h0.019l0.018,0.075h0.019v0.056h0.019l0.018,0.074h0.019v0.058h0.019V788.3h0.018v0.056h0.019c0.006,0.024.012,0.049,0.019,0.074h0.018v0.057h0.019c0.006,0.024.012,0.049,0.019,0.073H362.1v0.058h0.019c0.006,0.024.012,0.049,0.019,0.074h0.018v0.057h0.019c0.006,0.024.012,0.049,0.019,0.074h0.018v0.057h0.019c0.006,0.025.012,0.048,0.019,0.074h0.018v0.056h0.019c0.006,0.025.012,0.05,0.019,0.075h0.018v0.055h0.019c0.006,0.027.012,0.051,0.019,0.076h0.018v0.056H362.4c0.006,0.025.012,0.05,0.019,0.075h0.018V789.4h0.019c0.006,0.024.012,0.05,0.019,0.074h0.018v0.057h0.019c0.006,0.025.012,0.05,0.019,0.074h0.018v0.057h0.019c0.006,0.024.012,0.049,0.019,0.075H362.6v0.056h0.019v0.037h0.019v0.056h0.018c0.006,0.025.013,0.05,0.019,0.075H362.7v0.056h0.018c0.006,0.025.013,0.05,0.019,0.075h0.019v0.056h0.018v0.038h0.019v0.056h0.019l0.018,0.074h0.019v0.057h0.019l0.018,0.074H362.9V790.5c0.537,1.192,1.032,2.435,1.568,3.628v0.056h0.018c0.007,0.026.013,0.051,0.019,0.075h0.019v0.056h0.018c0.007,0.026.013,0.05,0.019,0.076h0.019v0.055H364.6c0.007,0.025.013,0.05,0.019,0.076h0.019v0.056h0.018c0.007,0.025.013,0.049,0.019,0.074h0.019v0.056h0.018c0.007,0.025.013,0.05,0.019,0.075h0.019v0.056h0.018v0.038h0.019c0.006,0.025.012,0.05,0.019,0.075h0.018v0.056h0.019c0.006,0.025.012,0.049,0.019,0.074h0.018v0.057H364.9v0.037h0.019l0.018,0.093h0.019c0.012,0.038.025,0.075,0.037,0.112h0.019v0.038h0.019v0.038h0.018v0.055h0.019c0.006,0.026.012,0.05,0.019,0.075H365.1a0.54,0.54,0,0,0,.075.207v-0.019a0.636,0.636,0,0,0,.131-0.244v-0.056h0.018c0.007-.025.013-0.05,0.019-0.074h0.019v-0.057h0.018c0.006-.025.013-0.05,0.019-0.075h0.019v-0.055h0.018V795.18h0.019v-0.057h0.019l0.018-.074h0.019v-0.037h0.019v-0.056h0.018c0.006-.025.013-0.05,0.019-0.075h0.019v-0.056h0.018c0.006-.026.013-0.051,0.019-0.076h0.019v-0.056h0.018v-0.037h0.019c0.006-.025.012-0.049,0.019-0.074h0.018v-0.056h0.019c0.006-.026.012-0.051,0.019-0.076h0.018V794.4h0.019c0.006-.026.012-0.05,0.019-0.076h0.018v-0.056h0.019c0.006-.024.012-0.049,0.019-0.075h0.018v-0.056h0.019V794.1h0.018c0.007-.025.013-0.05,0.019-0.074h0.019v-0.056h0.019q0.009-.039.018-0.075h0.019v-0.057h0.019V793.8h0.018V793.74h0.019l0.018-.075h0.019c0.006-.031.013-0.062,0.019-0.093h0.019v-0.057h0.018c0.006-.025.013-0.049,0.019-0.074h0.019v-0.056h0.018v-0.038h0.019c0.006-.031.012-0.061,0.018-0.093h0.019V793.2H366.3V793.16h0.018c0.007-.031.013-0.062,0.019-0.093h0.019V793.01h0.019v-0.037h0.018v-0.056h0.019v-0.038h0.018v-0.055h0.019v-0.038h0.019V792.73h0.018c0.007-.025.013-0.049,0.019-0.075h0.019V792.6h0.019v-0.037h0.018v-0.056h0.019l0.018-.076h0.019v-0.056h0.019l0.018-.075h0.019v-0.055h0.019l0.018-.075h0.019v-0.057h0.019l0.018-.074h0.019v-0.056H366.8l0.018-.076h0.019v-0.055h0.019c0.006-.026.012-0.049,0.018-0.075H366.9V791.72h0.019l0.018-.075h0.019v-0.056h0.019l0.018-.075h0.019v-0.056h0.019v-0.037h0.018c0.007-.025.013-0.05,0.019-0.075h0.019V791.29H367.1c0.007-.026.013-0.05,0.019-0.075h0.019v-0.056h0.018c0.007-.025.013-0.05,0.019-0.075h0.019v-0.056h0.018c0.007-.025.013-0.05,0.019-0.075h0.019V790.9h0.018v-0.038h0.019c0.006-.024.012-0.049,0.019-0.074h0.018v-0.056h0.019c0.006-.025.012-0.051,0.019-0.075h0.018V790.6H367.4c0.006-.026.013-0.051,0.019-0.076h0.018v-0.056h0.019l0.019-.076h0.018v-0.055h0.019c0.006-.025.012-0.05,0.019-0.075h0.018v-0.056h0.019c0.006-.025.013-0.05,0.019-0.074H367.6c0.007-.032.013-0.063,0.019-0.1h0.019V789.98h0.018c0.007-.024.013-0.049,0.019-0.074H367.7v-0.057h0.018c0.007-.024.013-0.049,0.019-0.073h0.019v-0.057h0.018c0.007-.025.013-0.05,0.019-0.075h0.019v-0.056h0.018v-0.037h0.019v-0.057h0.019l0.018-.075H367.9v-0.056h0.019l0.018-.074h0.019v-0.056h0.019l0.018-.076h0.019V789.1h0.019v-0.037h0.018v-0.056h0.019c0.006-.025.012-0.05,0.019-0.074h0.018v-0.056h0.019c0.006-.026.012-0.051,0.019-0.075h0.018v-0.056h0.019v-0.038H368.2v-0.056h0.018c0.006-.025.013-0.051,0.019-0.075h0.019v-0.056h0.018c0.007-.026.013-0.05,0.019-0.075h0.019v-0.056h0.018v-0.037h0.019V788.3h0.019l0.018-.076h0.019v-0.056h0.019l0.018-.075h0.019v-0.055h0.019l0.018-.075h0.019v-0.056h0.019q0.009-.039.018-0.075h0.019v-0.056h0.019l0.018-.076h0.019v-0.055h0.019v-0.038h0.018V787.55h0.019c0.006-.026.012-0.05,0.019-0.075h0.018v-0.056h0.019c0.006-.025.012-0.051,0.019-0.076h0.018v-0.056H368.8c0.006-.024.012-0.05,0.019-0.075h0.018v-0.055h0.019c0.006-.025.012-0.05,0.019-0.076h0.018v-0.037h0.019v-0.056h0.019l0.018-.074h0.019v-0.056h0.019l0.018-.076h0.019v-0.056h0.019l0.018-.074h0.019v-0.038H369.1v-0.056h0.018c0.006-.025.013-0.049,0.019-0.074h0.019v-0.057h0.018v-0.036h0.019v-0.058a0.711,0.711,0,0,0,.131-0.411H369.3c-0.006-.031-0.013-0.062-0.019-0.094h-0.019l-0.018-.074h-0.019V785.7H369.21c-0.007-.025-0.013-0.05-0.019-0.075h-0.019v-0.056h-0.018c-0.007-.025-0.013-0.05-0.019-0.075h-0.019v-0.056H369.1c-0.007-.025-0.013-0.05-0.019-0.075H369.06V785.3h-0.018v-0.037h-0.019c-0.006-.025-0.013-0.049-0.019-0.074h-0.018v-0.056h-0.019c-0.006-.025-0.013-0.051-0.019-0.075H368.93v-0.056h-0.019c-0.006-.025-0.013-0.05-0.019-0.075h-0.018v-0.056h-0.019c-0.006-.025-0.012-0.05-0.019-0.075h-0.018v-0.056H368.8c-0.006-.025-0.013-0.05-0.019-0.075h-0.018v-0.056h-0.019c-0.006-.025-0.013-0.05-0.019-0.075h-0.018v-0.056h-0.019c-0.006-.024-0.012-0.05-0.019-0.075H368.65v-0.056h-0.019c-0.006-.025-0.013-0.05-0.019-0.075h-0.018V784.22h-0.019c-0.006-.025-0.013-0.049-0.019-0.075h-0.018V784.09h-0.019c-0.006-.026-0.012-0.051-0.019-0.075h-0.018v-0.057h-0.019c-0.006-.025-0.012-0.049-0.019-0.074h-0.018v-0.057h-0.019c-0.006-.025-0.013-0.049-0.019-0.075H368.37V783.7h-0.019c-0.006-.024-0.012-0.05-0.019-0.074h-0.018v-0.056H368.3c-0.006-.026-0.012-0.051-0.019-0.075h-0.018v-0.056h-0.019c-0.006-.025-0.013-0.05-0.019-0.075H368.2V783.3h-0.019c-0.006-.025-0.012-0.05-0.019-0.075h-0.018v-0.055h-0.019c-0.006-.027-0.012-0.051-0.019-0.076H368.09v-0.056h-0.019c-0.006-.024-0.012-0.05-0.019-0.076h-0.018v-0.055h-0.019c-0.006-.024-0.012-0.05-0.019-0.075h-0.018V782.78h-0.019c-0.006-.025-0.012-0.051-0.019-0.074h-0.018V782.65H367.9c-0.006-.025-0.012-0.051-0.019-0.076h-0.018v-0.056h-0.019v-0.037h-0.019l-0.018-.075h-0.019V782.35h-0.019l-0.018-.074h-0.019v-0.057h-0.019l-0.018-.074h-0.019v-0.058H367.66c-0.006-.023-0.012-0.049-0.018-0.073h-0.019v-0.057H367.6l-0.018-.074h-0.019v-0.056h-0.019v-0.038H367.53c-0.007-.026-0.013-0.05-0.019-0.075h-0.019v-0.056h-0.018V781.62h-0.019v-0.056h-0.019l-0.018-.074H367.4v-0.057H367.38l-0.018-.074h-0.019V781.3h-0.019c-0.006-.025-0.012-0.051-0.018-0.075h-0.019v-0.056h-0.019l-0.018-.076h-0.019v-0.055h-0.019l-0.018-.075h-0.019V780.91h-0.019l-0.018-.075h-0.019v-0.056H367.1v-0.038h-0.018v-0.056h-0.019c-0.006-.024-0.012-0.05-0.019-0.075h-0.018v-0.055h-0.019c-0.006-.026-0.012-0.05-0.019-0.075H366.97v-0.057h-0.019c-0.006-.024-0.012-0.049-0.019-0.074h-0.018c-0.006-.032-0.013-0.063-0.019-0.093h-0.019V780.2h-0.018c-0.006-.025-0.013-0.049-0.019-0.075H366.82v-0.056H366.8c-0.006-.025-0.013-0.049-0.019-0.075h-0.019c-0.018-.062-0.037-0.125-0.056-0.187H366.69v-0.037h-0.019v-0.056h-0.019c-0.006-.024-0.012-0.05-0.018-0.076h-0.019v-0.055H366.6l-0.018-.074h-0.019v-0.057h-0.018v-0.037h-0.019v-0.057c-0.548-1.216-1.04-2.5-1.587-3.721V775.58h-0.018c-0.007-.032-0.013-0.063-0.019-0.094h-0.019c-0.006-.024-0.012-0.05-0.018-0.075h-0.019v-0.056h-0.019v-0.037h-0.018v-0.056h-0.019c-0.006-.025-0.012-0.05-0.019-0.075h-0.018v-0.056H364.73v-0.037h-0.019v-0.057h-0.018V775h-0.019v-0.056h-0.019v-0.038h-0.018c-0.006-.037-0.013-0.075-0.019-0.112H364.6v-0.056h-0.018v-0.056h-0.019v-0.206a0.666,0.666,0,0,1,.224-0.411,0.654,0.654,0,0,1,.355-0.037,0.8,0.8,0,0,1,.41.055c0.006,0.014.013,0.025,0.019,0.038l0.075,0.056,0.018,0.075,0.038,0.018v0.038h0.018v0.038h0.019V774.4h0.019v0.038h0.018c0.006,0.025.013,0.05,0.019,0.075h0.019v0.055h0.018c0.006,0.025.013,0.051,0.019,0.076h0.019l0.018,0.093h0.019v0.038h0.018c0.007,0.031.013,0.063,0.019,0.093h0.019v0.056h0.019v0.038H366v0.056h0.019v0.037h0.019v0.056h0.018c0.006,0.025.013,0.05,0.019,0.075h0.018v0.056h0.019v0.038h0.019v0.055h0.019l0.018,0.075h0.019v0.056h0.019l0.018,0.075h0.019V775.6h0.018c0.007,0.024.013,0.049,0.019,0.075H366.3v0.055h0.018c0.007,0.025.013,0.05,0.019,0.076h0.019v0.055h0.019V775.9h0.018c0.006,0.031.013,0.062,0.019,0.093h0.018v0.057h0.019c0.006,0.024.013,0.049,0.019,0.074h0.018v0.057H366.5c0.006,0.024.013,0.049,0.019,0.074h0.019v0.056h0.018c0.006,0.025.013,0.051,0.019,0.075H366.6v0.055h0.019c0.006,0.026.013,0.051,0.019,0.076h0.018v0.056h0.019c0.006,0.025.013,0.049,0.019,0.075h0.018V776.7h0.019c0.006,0.025.013,0.05,0.019,0.075h0.018v0.056h0.019c0.006,0.025.013,0.05,0.019,0.074h0.018v0.057h0.019V777h0.019v0.057h0.018c0.007,0.024.013,0.049,0.019,0.074h0.019v0.056h0.018c0.007,0.026.013,0.05,0.019,0.074h0.019v0.057h0.018c0.007,0.025.013,0.05,0.019,0.075h0.019v0.056h0.018c0.007,0.025.013,0.05,0.019,0.075h0.019v0.056H367.1c0.007,0.025.013,0.05,0.019,0.075h0.019v0.056h0.018c0.007,0.025.013,0.05,0.019,0.074h0.019v0.056h0.018v0.037h0.019v0.058h0.019l0.018,0.074h0.019v0.056h0.019c0.006,0.025.012,0.051,0.018,0.075h0.019V778.2h0.019l0.018,0.076H367.4v0.056h0.019l0.018,0.076h0.019v0.055h0.019c0.006,0.024.012,0.05,0.018,0.075h0.019v0.056h0.019v0.037h0.018v0.056h0.019c0.006,0.025.013,0.051,0.019,0.075H367.6v0.056h0.019c0.006,0.024.012,0.05,0.019,0.075h0.018v0.056h0.019c0.006,0.025.012,0.05,0.019,0.075h0.018v0.056h0.019c0.006,0.025.012,0.049,0.019,0.075h0.018v0.056h0.019c0.006,0.025.012,0.05,0.019,0.075h0.018v0.056h0.019c0.006,0.025.012,0.049,0.019,0.075h0.018v0.056H367.9v0.038h0.019v0.055h0.018c0.007,0.025.013,0.05,0.019,0.074h0.019V779.7H368c0.007,0.024.013,0.049,0.019,0.074h0.019v0.057h0.018c0.007,0.024.013,0.049,0.019,0.074h0.019v0.056h0.018c0.007,0.026.013,0.049,0.019,0.075h0.019v0.056h0.018c0.007,0.025.013,0.05,0.019,0.075H368.2v0.055h0.018c0.006,0.026.013,0.051,0.019,0.076h0.019v0.056h0.018v0.037H368.3v0.056h0.019l0.018,0.075h0.019v0.056h0.019l0.018,0.075h0.019V780.7h0.019l0.018,0.075h0.019v0.056h0.019c0.006,0.025.012,0.049,0.018,0.075h0.019v0.056h0.019l0.018,0.075h0.019V781.1h0.019v0.038h0.018v0.057c0.672,1.494,1.288,3.052,1.96,4.544v0.056h0.019l0.018,0.075h0.019v0.056h0.019v0.038h0.018c0.007,0.024.013,0.05,0.019,0.075H370.7v0.055h0.018c0.007,0.026.013,0.05,0.019,0.075h0.019v0.057h0.018c0.007,0.024.013,0.049,0.019,0.075h0.019v0.055h0.018c0.007,0.025.013,0.05,0.019,0.075h0.019v0.057h0.018v0.037h0.019v0.056h0.019c0.006,0.025.012,0.049,0.018,0.075h0.019v0.055h0.019v0.038H371V786.8h0.019v0.039h0.019l0.018,0.093h0.019v0.056H371.1v0.037h0.018v0.056h0.019v0.038h0.019v0.056h0.018v0.037h0.019v0.056h0.019q0.009,0.039.018,0.075h0.019V787.4h0.019l0.018,0.076H371.3v0.055h0.019v0.038h0.018v0.056h0.019c0.006,0.026.012,0.05,0.019,0.074h0.018v0.057h0.019c0.006,0.025.012,0.05,0.019,0.075h0.018v0.056h0.019v0.037h0.019L371.505,788h0.019v0.057h0.019l0.018,0.074h0.019v0.056H371.6c0.006,0.025.012,0.049,0.018,0.076h0.019v0.055h0.019v0.038h0.018c0.006,0.024.013,0.049,0.019,0.074h0.019v0.057h0.018l0.019,0.073h0.019v0.058h0.018c0.007,0.024.013,0.049,0.019,0.074h0.019v0.057h0.018v0.036h0.019c0.006,0.025.012,0.05,0.019,0.075H371.9v0.057h0.019c0.006,0.025.012,0.049,0.019,0.074h0.018v0.056h0.019c0.006,0.026.012,0.05,0.019,0.075h0.018v0.057h0.019c0.006,0.024.012,0.05,0.019,0.074h0.018v0.057h0.019c0.006,0.024.012,0.049,0.019,0.074h0.018v0.056h0.019v0.037h0.019v0.057h0.018c0.006,0.025.013,0.05,0.019,0.074h0.019v0.057h0.018c0.006,0.024.013,0.049,0.019,0.075h0.019v0.056h0.018v0.037h0.019v0.056h0.019l0.018,0.075h0.019v0.056h0.019l0.018,0.075h0.019v0.056h0.018c0.007,0.024.013,0.05,0.019,0.075h0.019v0.056H372.5l0.018,0.074h0.019v0.057c0.44,0.976.85,2,1.288,2.974v0.056h0.018c0.007,0.025.013,0.049,0.019,0.074h0.019v0.057h0.018c0.007,0.024.013,0.049,0.019,0.075h0.019V793.7h0.018c0.007,0.024.013,0.05,0.019,0.074h0.019v0.056h0.018c0.007,0.025.013,0.05,0.019,0.075h0.019v0.057h0.018c0.007,0.024.013,0.048,0.019,0.074H374.1V794.1h0.018c0.007,0.025.013,0.05,0.019,0.075h0.019v0.055h0.018c0.007,0.027.013,0.051,0.019,0.076h0.019v0.056h0.018V794.4h0.019v0.055h0.019l0.018,0.076h0.019v0.037h0.019v0.056h0.018v0.037h0.019c0.006,0.025.012,0.05,0.019,0.075H374.4v0.056h0.019l0.019,0.076h0.018v0.055h0.019v0.038h0.019l0.018,0.074h0.019v0.056h0.019c0.006,0.026.012,0.051,0.018,0.074h0.019v0.058H374.6l0.018,0.074h0.019v0.056h0.019l0.018,0.075H374.7v0.056A0.976,0.976,0,0,1,374.809,795.779Z" transform="translate(-355 -774)"/>
</svg>
