<svg id="Группа_3" data-name="Группа 3" xmlns="http://www.w3.org/2000/svg" width="53" height="50" viewBox="0 0 53 50">
  <defs>
    <style>
      .cls-1, .cls-2 {
        fill: #4ca6b4;
      }

      .cls-1 {
        opacity: 0.08;
      }

      .cls-2 {
        fill-rule: evenodd;
      }
    </style>
  </defs>
  <circle id="Эллипс_2_копия" data-name="Эллипс 2 копия" class="cls-1" cx="28" cy="25" r="25"/>
  <path id="Фигура_5" data-name="Фигура 5" class="cls-2" d="M612.866,2277.06H622.9c1.385,0,3.6-.22,4.622.19a1.2,1.2,0,0,0,.295.39,8.009,8.009,0,0,1-.2,2.73h-0.1v0.19a1.826,1.826,0,0,1-.2.1v0.2l-0.2.09v0.2l-0.59.48v0.2h-0.1c-0.065.19-.131,0.39-0.2,0.58h-0.1a10.066,10.066,0,0,0-.1,2.73v3.8a9.09,9.09,0,0,0,.1,2.05v0.87h0.1v0.59h0.1v0.39h0.1v0.39h0.1v0.29h0.1v0.39h0.1v0.19h0.1c0.032,0.2.065,0.39,0.1,0.59h0.1l0.1,0.39h0.1v0.29h0.1v0.2h0.1v0.29h0.1c0.033,0.16.065,0.32,0.1,0.49h0.1c0.032,0.12.065,0.26,0.1,0.39h0.1c0.2,0.58.394,1.16,0.59,1.75h0.1c0.032,0.13.065,0.26,0.1,0.39h0.1v0.29h0.1v0.19h0.1v0.3h0.1l0.1,0.48h0.1c0.033,0.13.065,0.26,0.1,0.39h0.1v0.3h0.1v0.19h0.1v0.29h0.1c0.032,0.17.065,0.33,0.1,0.49h0.1v0.2h0.1v0.29h0.1c0.033,0.13.065,0.26,0.1,0.39h0.1v0.29h0.1v0.19h0.1c0.033,0.17.066,0.33,0.1,0.49h0.1v0.29h0.1l0.1,0.39h0.1v0.29h0.1v0.2h0.1v0.29h0.1v0.2h0.1v0.29h0.1v0.19h0.1v0.3h0.1l0.1,0.39h0.1v0.29h0.1v0.19h0.1v0.3h0.1v0.19h0.1v0.29c1.4,3.07,2.652,6.37,4.032,9.45v0.29h0.1l0.1,0.39h0.1v0.3h0.1v0.19h0.1v0.29h0.1v0.2h0.1v0.29h0.1c0.032,0.13.065,0.26,0.1,0.39h0.1c0.2,0.62.394,1.23,0.59,1.85a4.117,4.117,0,0,1-.2,1.95c-0.033.19-.066,0.39-0.1,0.58h-0.1c-0.033.13-.066,0.26-0.1,0.39h-0.1c-0.032.13-.065,0.26-0.1,0.39a1.826,1.826,0,0,1-.2.1v0.2c-0.131.09-.262,0.19-0.393,0.29v0.19a1.738,1.738,0,0,1-.2.1v0.1h-0.2l-0.295.39h-0.2c-0.033.06-.066,0.13-0.1,0.19-0.2.07-.394,0.13-0.59,0.2v0.09h-0.2v0.1a9.116,9.116,0,0,1-3.245.29H611.489c-1.816,0-5.126.27-6.392-.29v-0.1h-0.2v-0.09c-0.2-.07-0.394-0.13-0.59-0.2a6.539,6.539,0,0,1-.984-0.97c-0.131-.1-0.262-0.2-0.393-0.29v-0.2a1.826,1.826,0,0,1-.2-0.1c-0.065-.19-0.131-0.39-0.2-0.58h-0.1v-0.2h-0.1c-0.066-.39-0.131-0.77-0.2-1.16h-0.1a5.972,5.972,0,0,1,.3-2.44h0.1v-0.2h0.1v-0.29h0.1c0.033-.16.066-0.32,0.1-0.48h0.1v-0.2h0.1v-0.29h0.1l0.1-.39h0.1v-0.29h0.1v-0.2h0.1v-0.29h0.1c0.033-.16.066-0.33,0.1-0.49h0.1c0.032-.13.065-0.26,0.1-0.39h0.1v-0.29h0.1v-0.2h0.1v-0.29h0.1l0.1-.48h0.1v-0.2h0.1v-0.29h0.1c0.032-.13.065-0.26,0.1-0.39h0.1v-0.29h0.1v-0.2H605c0.033-.16.066-0.32,0.1-0.48h0.1v-0.3h0.1c0.033-.13.066-0.26,0.1-0.39h0.1v-0.29h0.1v-0.19h0.1v-0.3h0.1v-0.19h0.1v-0.29h0.1v-0.2h0.1v-0.29h0.1c0.033-.13.066-0.26,0.1-0.39h0.1v-0.29h0.1v-0.2h0.1l0.1-.48h0.1v-0.3h0.1l0.1-.39h0.1c0.2-.58.393-1.16,0.59-1.75h0.1l0.1-.39h0.1v-0.29h0.1v-0.2h0.1c0.033-.16.065-0.32,0.1-0.48h0.1v-0.3h0.1c0.033-.13.065-0.26,0.1-0.39h0.1c0.2-.58.394-1.16,0.59-1.75h0.1c0.033-.13.065-0.26,0.1-0.39h0.1v-0.29h0.1v-0.19h0.1v-0.3h0.1l0.1-.48h0.1c0.033-.13.066-0.26,0.1-0.39h0.1v-0.3h0.1v-0.19h0.1v-0.29h0.1c0.033-.17.065-0.33,0.1-0.49h0.1v-0.2h0.1v-0.29h0.1c0.033-.13.066-0.26,0.1-0.39h0.1v-0.29h0.1c0.033-.16.066-0.33,0.1-0.49h0.1v-0.19h0.1v-0.29h0.1l0.1-.39h0.1v-0.3h0.1v-0.19h0.1c0.033-.16.065-0.33,0.1-0.49h0.1v-0.29h0.1v-0.19h0.1v-0.3h0.1c0.032-.13.065-0.26,0.1-0.39h0.1v-0.29h0.1v-0.19h0.1v-0.3h0.1v-0.19h0.1v-0.29h0.1v-0.2h0.1c0.066-.32.131-0.65,0.2-0.97h0.1v-0.29h0.1v-0.49c0.553-1.77.294-4.78,0.295-7.02a10.751,10.751,0,0,0-.1-3.02h-0.1v-0.29c-0.164-.23-0.328-0.45-0.492-0.68-0.131-.1-0.262-0.19-0.393-0.29v-0.2l-0.2-.09a5.207,5.207,0,0,1-.393-3.41A2.458,2.458,0,0,0,612.866,2277.06Zm1.278,1.94a1.913,1.913,0,0,0,.59,1.27c0.1,0.07.2,0.13,0.295,0.2v0.19c0.066,0.03.131,0.07,0.2,0.1v0.19h0.1c0.066,0.2.131,0.39,0.2,0.59h0.1c0.033,0.19.066,0.39,0.1,0.58h0.1a11.181,11.181,0,0,1,.1,3.02v4a9.585,9.585,0,0,1-.1,2.14v0.88h-0.1c-0.033.32-.066,0.65-0.1,0.97h-0.1q-0.049.39-.1,0.78h-0.1v0.29h-0.1v0.29h-0.1v0.3h-0.1v0.29h-0.1v0.19h-0.1v0.3h-0.1v0.19h-0.1v0.29h-0.1l-0.1.39h-0.1c-0.033.16-.066,0.33-0.1,0.49h-0.1v0.29h-0.1v0.2h-0.1v0.29h-0.1c-0.033.13-.065,0.26-0.1,0.39h-0.1v0.29h-0.1v0.2h-0.1v0.29h-0.1v0.19h-0.1v0.29h-0.1v0.2h-0.1v0.29h-0.1l-0.393,1.17h14.947v-0.1a1.368,1.368,0,0,1-.3-0.68h-0.1v-0.19h-0.1v-0.29h-0.1v-0.2h-0.1v-0.29h-0.1v-0.2h-0.1v-0.29h-0.1l-0.1-.39h-0.1v-0.29h-0.1v-0.2h-0.1v-0.29h-0.1v-0.19h-0.1v-0.3h-0.1c-0.033-.13-0.065-0.26-0.1-0.38h-0.1v-0.3h-0.1v-0.19h-0.1v-0.29h-0.1v-0.2h-0.1v-0.29h-0.1v-0.2h-0.1v-0.29h-0.1v-0.19h-0.1v-0.3h-0.1v-0.29h-0.1c-0.033-.23-0.065-0.45-0.1-0.68h-0.1c-0.032-.29-0.065-0.58-0.1-0.88h-0.1l-0.1-1.56a21.854,21.854,0,0,1-.1-4.38v-3.99h0.1v-0.49h0.1v-0.39h0.1v-0.29h0.1c0.066-.2.132-0.39,0.2-0.59h0.1v-0.19c0.1-.07.2-0.13,0.295-0.2v-0.19c0.066-.03.132-0.07,0.2-0.1,0.066-.1.131-0.19,0.2-0.29h0.1v-0.2l0.2-.09a1.519,1.519,0,0,0,.1-0.69h-11.7Zm-2.458,23.97-1.082,2.73h1.18v0.09c0.131,0.04.262,0.07,0.394,0.1a1.852,1.852,0,0,1,.295,1.17c-0.112.11-.04,0-0.1,0.2a1.983,1.983,0,0,0-.491.39h-2.164c-0.1.32-.2,0.64-0.3,0.97h-0.1v0.19h-0.1v0.3h-0.1v0.19h-0.1v0.29h-0.1q-0.147.39-.3,0.78h1.18v0.1c0.132,0.03.263,0.07,0.394,0.1a2,2,0,0,1,.295,1.07,3.525,3.525,0,0,1-.394.49c-0.349.35-1.588,0.2-2.261,0.19-0.033.1-.066,0.2-0.1,0.29h-0.1c-0.033.17-.066,0.33-0.1,0.49h-0.1v0.29h-0.1c-0.033.13-.065,0.26-0.1,0.39h-0.1v0.29h-0.1c-0.1.33-.2,0.66-0.295,0.98a2.048,2.048,0,0,1,1.082.1,0.735,0.735,0,0,1,.59.58,1,1,0,0,1-.1.97c-0.1.04-.2,0.07-0.295,0.1v0.1h-0.2v0.1h-1.967c-0.361.91-.721,1.82-1.082,2.72a1.714,1.714,0,0,1,1.574.39,1.813,1.813,0,0,0,.2.1v0.29h0.1l-0.1.69-0.59.48h-1.966a3.034,3.034,0,0,0,2.36,3.32h25.567a6.594,6.594,0,0,0,2.065-.1v-0.1h0.2v-0.1H634.5c0.032-.06.065-0.13,0.1-0.19h0.2c0.032-.07.065-0.13,0.1-0.2l0.59-.48a3.384,3.384,0,0,0,.492-2.24h-0.1v-0.39h-0.1v-0.3h-0.1v-0.19h-0.1v-0.29h-0.1v-0.2h-0.1v-0.29h-0.1c-0.032-.13-0.065-0.26-0.1-0.39h-0.1v-0.29h-0.1v-0.2h-0.1v-0.29c-2.312-5.16-4.358-10.54-6.588-15.78H611.686Zm18,15.1c-0.033-.1-0.065-0.2-0.1-0.29h-0.1c-0.033-.17-0.066-0.33-0.1-0.49h-0.1V2317h-0.1v-0.2h-0.1v-0.29h-0.1c-0.033-.13-0.066-0.26-0.1-0.39h-0.1c-0.033-.16-0.065-0.32-0.1-0.49h-0.1v-0.29h-0.1c-0.033-.16-0.065-0.32-0.1-0.49h-0.1v-0.19h-0.1v-0.29h-0.1c-0.033-.13-0.066-0.26-0.1-0.39h-0.1v-0.29h-0.1v-0.2h-0.1v-0.29h-0.1c-0.033-.16-0.065-0.33-0.1-0.49h-0.1c-0.032-.13-0.065-0.26-0.1-0.39h-0.1v-0.29h-0.1v-0.2h-0.1v-0.29h-0.1v-0.19h-0.1v-0.3h-0.1v-0.19h-0.1v-0.29h-0.1v-0.2h-0.1c-0.033-.16-0.065-0.32-0.1-0.48h-0.1v-0.2h-0.1v-0.29h-0.1v-0.2h-0.1v-0.68c0.383-.3.494-0.83,1.181-0.58h0.294c0.164,0.19.328,0.39,0.492,0.58v0.29h0.1v0.2h0.1v0.29h0.1v0.2h0.1v0.29h0.1v0.19h0.1v0.3h0.1c0.032,0.13.065,0.26,0.1,0.39h0.1v0.29h0.1v0.19h0.1v0.29h0.1c0.033,0.17.066,0.33,0.1,0.49h0.1c0.033,0.13.065,0.26,0.1,0.39h0.1v0.29h0.1v0.2h0.1v0.29h0.1c0.032,0.16.065,0.33,0.1,0.49h0.1v0.19h0.1v0.29h0.1c0.033,0.14.065,0.26,0.1,0.39h0.1v0.3h0.1v0.19h0.1v0.29h0.1c0.032,0.17.065,0.33,0.1,0.49h0.1l0.1,0.39h0.1v0.29h0.1v0.2h0.1v0.29h0.1v0.29h0.1a0.231,0.231,0,0,1-.1.29v0.3a2.7,2.7,0,0,1-.492.48,1.66,1.66,0,0,1-.885,0A0.416,0.416,0,0,0,629.681,2318.07Zm2.852,3.41c-0.131.03-.262,0.06-0.393,0.1v0.09a1.775,1.775,0,0,1-.885-0.09,2.02,2.02,0,0,0-.394-0.49c0.033-.33.066-0.65,0.1-0.98a1.826,1.826,0,0,1,1.18-.39,4.207,4.207,0,0,1,.491.49,1.027,1.027,0,0,1,.2.78A0.8,0.8,0,0,0,632.533,2321.48Z" transform="translate(-602 -2277)"/>
</svg>
