<svg xmlns="http://www.w3.org/2000/svg" width="12" height="7.031" viewBox="0 0 12 7.031">
  <defs>
    <style>
      .cls-1 {
        fill: #162648;
        fill-rule: evenodd;
      }
    </style>
  </defs>
  <path id="arrow" class="cls-1" d="M1713,386.912a1.264,1.264,0,0,0,.02-0.192c0.02-.008.03-0.016,0.05-0.024v-0.048c0.05-.04.09-0.08,0.14-0.12a2.783,2.783,0,0,1,.47-0.456,0.1,0.1,0,0,0,.02-0.048h0.1c0.1-.09.32,0.135,0.37,0.192,0.31,0.32.61,0.639,0.92,0.96,0.94,0.959,1.89,1.918,2.83,2.877,0.23,0.24.46,0.48,0.68,0.72a0.865,0.865,0,0,0,.1.072,1.169,1.169,0,0,0,.32.312,2.6,2.6,0,0,1,.38-0.384l0.21-.24c0.2-.2.41-0.4,0.61-0.6,0.58-.608,1.17-1.216,1.76-1.823,0.3-.3.61-0.608,0.91-0.912l0.66-.695a1.741,1.741,0,0,1,.14-0.12,1.208,1.208,0,0,1,.42-0.384l0.19,0.024a0.943,0.943,0,0,0,.11.1l0.36,0.384a0.8,0.8,0,0,1,.23.287,1.592,1.592,0,0,0-.02.217c-0.46.471-.91,0.943-1.36,1.415-0.99,1.007-1.99,2.014-2.98,3.021-0.31.328-.62,0.656-0.94,0.983-0.05.049-.11,0.1-0.16,0.144a1.041,1.041,0,0,1-.49.408,0.242,0.242,0,0,1-.19,0c-0.63-.631-1.25-1.263-1.88-1.894l-2.64-2.734c-0.43-.424-0.85-0.848-1.27-1.271v-0.048c-0.02-.008-0.03-0.016-0.05-0.024v-0.1H1713Z" transform="translate(-1713 -386)"/>
</svg>
