<svg xmlns="http://www.w3.org/2000/svg" width="40" height="40" viewBox="0 0 40 40">
  <defs>
    <style>
      .cls-1 {
        fill: #fff;
        fill-rule: evenodd;
      }
    </style>
  </defs>
  <path id="zoom" class="cls-1" d="M758.992,1022a14.963,14.963,0,0,1,7.729,1.64h0.156v0.08h0.157v0.08h0.156v0.08h0.156v0.07H767.5c0.026,0.06.052,0.11,0.078,0.16,0.1,0.03.208,0.05,0.312,0.08,0.026,0.05.052,0.1,0.078,0.16h0.157l0.078,0.15h0.156c0.026,0.05.052,0.11,0.078,0.16H768.6l0.078,0.15h0.156c0.078,0.11.156,0.21,0.234,0.32h0.157c0.052,0.07.1,0.15,0.156,0.23h0.156c0.13,0.16.26,0.31,0.39,0.47h0.156l0.7,0.78c0.13,0.1.26,0.21,0.39,0.31v0.16l0.469,0.39v0.16l0.234,0.15v0.16l0.234,0.15v0.16c0.078,0.05.156,0.1,0.234,0.16v0.15c0.052,0.03.105,0.05,0.157,0.08l0.078,0.24h0.078v0.15c0.052,0.03.1,0.05,0.156,0.08,0.052,0.16.1,0.31,0.156,0.47a1.153,1.153,0,0,1,.156.08c0.052,0.15.1,0.31,0.156,0.46h0.078v0.16h0.078v0.16h0.078v0.15h0.079c0.052,0.16.1,0.32,0.156,0.47h0.078v0.24H773.9v0.15h0.078c0.052,0.24.1,0.47,0.156,0.71h0.078v0.15h0.078v0.31h0.078v0.24h0.078v0.31h0.078v0.24h0.079v0.39c0.115,0.37.2,0.92,0.312,1.32v0.86H775a7.747,7.747,0,0,1-.078,2.03v0.86c-0.208.94-.417,1.88-0.625,2.81h-0.078v0.16h-0.078c-0.026.16-.052,0.31-0.078,0.47h-0.078v0.15H773.9v0.24h-0.078v0.16h-0.078v0.23H773.67c-0.052.16-.1,0.31-0.157,0.47h-0.078v0.15h-0.078v0.16h-0.078c-0.052.16-.1,0.31-0.156,0.47-0.052.03-.1,0.05-0.156,0.08-0.026.1-.052,0.21-0.078,0.31-0.052.03-.1,0.05-0.156,0.08-0.026.1-.052,0.21-0.078,0.31-0.052.03-.1,0.05-0.156,0.08v0.15c-0.079.06-.157,0.11-0.235,0.16v0.16a1.153,1.153,0,0,0-.156.08v0.15c-0.078.05-.156,0.11-0.234,0.16v0.15a1.153,1.153,0,0,1-.156.08,2.246,2.246,0,0,1-.234.31,3.82,3.82,0,0,0,1.015,1.1l0.312,0.39c0.7,0.68,1.4,1.35,2.108,2.03,0.6,0.62,1.2,1.25,1.8,1.87q2.576,2.55,5.152,5.08c0.182,0.21.365,0.42,0.547,0.62,0.52,0.5,1.041.99,1.561,1.49a5.707,5.707,0,0,0,1.015,1.01,0.12,0.12,0,0,1-.078.08c-0.546.57-1.093,1.15-1.639,1.72a0.142,0.142,0,0,1-.078-0.08l-10.306-10.23c-0.807-.81-1.614-1.61-2.42-2.42l-0.7-.78c-0.149-.04-0.107.05-0.156,0.08a0.812,0.812,0,0,0-.39.23v0.08c-0.078.03-.157,0.05-0.235,0.08l-0.078.15h-0.156l-0.156.24h-0.156l-0.078.15a2.156,2.156,0,0,1-.234.08v0.08c-0.1.03-.209,0.05-0.313,0.08l-0.078.15c-0.1.03-.208,0.06-0.312,0.08-0.026.05-.052,0.11-0.078,0.16H767.19v0.08h-0.156v0.07h-0.157v0.08h-0.156v0.08h-0.156v0.08c-0.156.05-.312,0.1-0.468,0.16v0.07h-0.235v0.08c-0.1.03-.208,0.05-0.312,0.08v0.08c-0.156.02-.312,0.05-0.468,0.08v0.07h-0.157v0.08c-0.182.03-.364,0.05-0.546,0.08v0.08h-0.234v0.08c-0.182.02-.365,0.05-0.547,0.07v0.08l-1.717.24v0.08h-0.859a7.951,7.951,0,0,1-2.03.07v-0.07c-0.468-.03-0.937-0.06-1.4-0.08v-0.08H757.2v-0.08h-0.39v-0.08h-0.312v-0.08h-0.313v-0.07h-0.312v-0.08h-0.312v-0.08h-0.234v-0.08h-0.157v-0.08l-0.7-.15v-0.08h-0.156v-0.08h-0.235v-0.08l-0.468-.15v-0.08h-0.156v-0.08h-0.156v-0.08h-0.156v-0.08H752.98v-0.07h-0.156v-0.08h-0.156c-0.026-.05-0.052-0.11-0.078-0.16-0.1-.02-0.208-0.05-0.312-0.08l-0.078-.15c-0.1-.03-0.208-0.05-0.313-0.08v-0.08a2.156,2.156,0,0,1-.234-0.08l-0.078-.15h-0.156l-0.156-.24h-0.156c-0.052-.07-0.1-0.15-0.156-0.23h-0.157l-0.156-.24h-0.156c-0.13-.15-0.26-0.31-0.39-0.46h-0.156l-0.7-.78c-0.13-.11-0.26-0.21-0.39-0.32v-0.15l-0.469-.39v-0.16c-0.078-.05-0.156-0.1-0.234-0.16v-0.15c-0.078-.05-0.156-0.11-0.234-0.16v-0.15c-0.078-.06-0.156-0.11-0.235-0.16v-0.16a1.153,1.153,0,0,1-.156-0.08v-0.15c-0.052-.03-0.1-0.05-0.156-0.08-0.026-.08-0.052-0.16-0.078-0.23H747.2c-0.026-.11-0.052-0.21-0.078-0.32h-0.078v-0.15c-0.052-.03-0.1-0.05-0.156-0.08v-0.16h-0.078v-0.15h-0.078v-0.16h-0.079v-0.16h-0.078v-0.15H746.5v-0.16h-0.078c-0.052-.15-0.1-0.31-0.156-0.47h-0.078v-0.23H746.11v-0.16h-0.078c-0.026-.15-0.052-0.31-0.078-0.47h-0.078v-0.15H745.8v-0.24H745.72v-0.23h-0.078c-0.026-.18-0.052-0.36-0.078-0.55h-0.079c-0.026-.23-0.052-0.47-0.078-0.7a12.51,12.51,0,0,1-.078-6.01v-0.39h0.078v-0.39h0.078v-0.32h0.079l0.078-.54h0.078v-0.24H745.8v-0.23h0.078v-0.16h0.078c0.026-.15.052-0.31,0.078-0.47h0.078v-0.15h0.078v-0.24h0.078c0.052-.15.1-0.31,0.156-0.47H746.5v-0.15h0.078v-0.16h0.078v-0.16h0.079v-0.15h0.078v-0.16h0.078v-0.15a1.153,1.153,0,0,1,.156-0.08c0.052-.16.1-0.31,0.156-0.47,0.052-.03.1-0.05,0.156-0.08v-0.15h0.078l0.078-.24c0.052-.03.1-0.05,0.156-0.08v-0.15c0.079-.06.157-0.11,0.235-0.16v-0.16l0.234-.15v-0.16l0.234-.15v-0.16l0.469-.39v-0.16c0.13-.1.26-0.21,0.39-0.31l0.7-.78h0.156c0.13-.16.26-0.31,0.39-0.47h0.156c0.052-.08.1-0.16,0.156-0.23h0.157l0.156-.24h0.156c0.052-.08.1-0.15,0.156-0.23h0.156c0.026-.05.052-0.11,0.078-0.16a2.156,2.156,0,0,0,.234-0.08v-0.07h0.157c0.026-.06.052-0.11,0.078-0.16,0.156-.05.312-0.1,0.468-0.16l0.078-.15h0.156v-0.08h0.156v-0.08h0.157v-0.08h0.156v-0.08h0.156v-0.07h0.156v-0.08c0.156-.05.312-0.11,0.468-0.16v-0.08h0.235v-0.07h0.156v-0.08c0.156-.03.312-0.05,0.468-0.08v-0.08h0.156v-0.08c0.156-.02.313-0.05,0.469-0.07v-0.08h0.312v-0.08H756.1v-0.08h0.391v-0.08h0.312v-0.08h0.39v-0.07h0.391v-0.08A5.806,5.806,0,0,0,758.992,1022Zm0.078,2.5a2.58,2.58,0,0,1-.781.08v0.08h-0.468v0.08h-0.39v0.07c-0.235.03-.469,0.06-0.7,0.08v0.08h-0.234v0.08h-0.235v0.08h-0.234v0.07h-0.234v0.08h-0.234v0.08H755.4v0.08h-0.235v0.08c-0.1.02-.208,0.05-0.312,0.08v0.07H754.62v0.08c-0.1.03-.208,0.05-0.312,0.08v0.08h-0.157c-0.026.05-.051,0.1-0.078,0.15-0.156.06-.312,0.11-0.468,0.16-0.026.05-.052,0.1-0.078,0.16h-0.156l-0.078.15c-0.1.03-.208,0.05-0.313,0.08-0.026.05-.052,0.1-0.078,0.16-0.078.02-.156,0.05-0.234,0.07l-0.156.24h-0.156c-0.052.08-.1,0.16-0.156,0.23h-0.156l-0.547.63h-0.156l-0.312.39a1.163,1.163,0,0,0-.157.08v0.15c-0.182.16-.364,0.32-0.546,0.47v0.16c-0.1.08-.208,0.15-0.312,0.23v0.16a1.153,1.153,0,0,0-.156.08v0.15c-0.079.05-.157,0.11-0.235,0.16v0.15a1.153,1.153,0,0,1-.156.08c-0.026.11-.052,0.21-0.078,0.32-0.052.02-.1,0.05-0.156,0.07-0.052.16-.1,0.32-0.156,0.47-0.052.03-.1,0.05-0.156,0.08-0.078.23-.157,0.47-0.235,0.7h-0.078c-0.026.11-.052,0.21-0.078,0.32h-0.078l-0.078.39H748.3c-0.026.15-.052,0.31-0.078,0.46H748.14v0.24h-0.078v0.23h-0.078v0.24h-0.078v0.31c-0.116.35-.208,0.88-0.313,1.25v0.78a7.97,7.97,0,0,0,.235,3.52c0.026,0.23.052,0.46,0.078,0.7h0.078v0.23h0.078v0.24h0.078v0.23h0.078c0.026,0.16.052,0.31,0.078,0.47h0.078v0.16h0.078v0.23h0.078c0.026,0.1.052,0.21,0.078,0.31h0.078v0.24h0.078c0.026,0.1.053,0.21,0.079,0.31h0.078v0.16c0.052,0.02.1,0.05,0.156,0.07,0.052,0.16.1,0.32,0.156,0.47,0.052,0.03.1,0.05,0.156,0.08v0.16c0.052,0.02.1,0.05,0.156,0.07,0.026,0.11.052,0.21,0.078,0.32l0.235,0.15v0.16c0.052,0.03.1,0.05,0.156,0.08v0.15c0.078,0.06.156,0.11,0.234,0.16,0.026,0.08.052,0.16,0.078,0.23,0.208,0.19.416,0.37,0.625,0.55v0.16a1.153,1.153,0,0,1,.156.08c0.078,0.1.156,0.2,0.234,0.31H751.5c0.182,0.21.364,0.41,0.547,0.62H752.2l0.156,0.24h0.156c0.052,0.07.1,0.15,0.156,0.23h0.156l0.156,0.24c0.105,0.02.209,0.05,0.313,0.07,0.026,0.06.052,0.11,0.078,0.16,0.078,0.03.156,0.05,0.234,0.08v0.08h0.156v0.07h0.156v0.08h0.156v0.08h0.157c0.026,0.05.052,0.1,0.078,0.16h0.156v0.07h0.156v0.08h0.234v0.08c0.1,0.03.208,0.05,0.312,0.08v0.08H755.4v0.07h0.156v0.08h0.234v0.08h0.234v0.08h0.234v0.08h0.235v0.08h0.234v0.07c0.234,0.03.468,0.06,0.7,0.08v0.08h0.39v0.08h0.468v0.08h0.781a5.775,5.775,0,0,0,1.874.07v-0.07c0.416-.03.833-0.06,1.249-0.08l2.264-.63v-0.08c0.13-.02.26-0.05,0.39-0.07v-0.08c0.105-.03.209-0.05,0.313-0.08v-0.08c0.234-.08.468-0.15,0.7-0.23,0.026-.05.052-0.11,0.078-0.16l0.469-.15v-0.08c0.078-.03.156-0.05,0.234-0.08,0.026-.05.052-0.1,0.078-0.16,0.1-.02.208-0.05,0.313-0.07l0.156-.24h0.156c0.026-.05.052-0.1,0.078-0.16h0.156c0.078-.1.156-0.2,0.234-0.31h0.156l0.469-.54H768.6l0.312-.39a1.153,1.153,0,0,1,.156-0.08v-0.16c0.209-.18.417-0.36,0.625-0.55v-0.15c0.078-.05.156-0.11,0.234-0.16v-0.15c0.078-.06.156-0.11,0.234-0.16,0.026-.08.052-0.16,0.078-0.23a1.163,1.163,0,0,1,.157-0.08c0.026-.11.052-0.21,0.078-0.32,0.052-.02.1-0.05,0.156-0.07v-0.16c0.052-.03.1-0.05,0.156-0.08,0.052-.15.1-0.31,0.156-0.47,0.052-.02.1-0.05,0.156-0.07v-0.16h0.078c0.026-.1.052-0.21,0.078-0.31h0.078v-0.24h0.079c0.026-.1.052-0.21,0.078-0.31h0.078l0.078-.39h0.078c0.208-.76.416-1.51,0.624-2.27,0.026-.41.052-0.83,0.078-1.25H772.5a5.867,5.867,0,0,0-.079-1.87c-0.026-.42-0.052-0.83-0.078-1.25h-0.078l-0.078-.78h-0.078v-0.31H772.03v-0.24h-0.078v-0.23h-0.078v-0.24H771.8c-0.026-.15-0.052-0.31-0.078-0.46H771.64v-0.16h-0.078v-0.23h-0.078c-0.026-.11-0.052-0.21-0.078-0.32h-0.079c-0.078-.23-0.156-0.47-0.234-0.7-0.052-.03-0.1-0.05-0.156-0.08-0.052-.15-0.1-0.31-0.156-0.47H770.7c-0.026-.07-0.052-0.15-0.078-0.23-0.052-.03-0.1-0.05-0.156-0.08-0.026-.1-0.052-0.21-0.078-0.31-0.078-.05-0.157-0.11-0.235-0.16v-0.15a1.153,1.153,0,0,0-.156-0.08v-0.16c-0.1-.08-0.208-0.15-0.312-0.23v-0.16c-0.208-.18-0.416-0.36-0.625-0.55v-0.15c-0.13-.11-0.26-0.21-0.39-0.31-0.026-.06-0.052-0.11-0.078-0.16h-0.156c-0.156-.18-0.312-0.36-0.469-0.55h-0.156c-0.078-.1-0.156-0.21-0.234-0.31h-0.156c-0.026-.05-0.052-0.1-0.078-0.16H767.19c-0.052-.07-0.1-0.15-0.156-0.23h-0.157c-0.026-.05-0.052-0.1-0.078-0.16-0.1-.02-0.208-0.05-0.312-0.07-0.026-.06-0.052-0.11-0.078-0.16-0.156-.05-0.312-0.1-0.469-0.16l-0.078-.15h-0.156v-0.08c-0.1-.03-0.208-0.05-0.312-0.08v-0.08H765.16v-0.07c-0.1-.03-0.208-0.06-0.313-0.08v-0.08h-0.234v-0.08h-0.156v-0.08c-0.156-.02-0.312-0.05-0.468-0.08v-0.07h-0.235v-0.08H763.52v-0.08h-0.234v-0.08h-0.312c-0.355-.11-0.88-0.2-1.249-0.31C760.84,1024.55,759.955,1024.53,759.07,1024.5Zm-0.312,5h2.5v6.25H767.5v2.5h-6.246v6.25h-2.5v-6.25h-6.246v-2.5h6.246v-6.25Z" transform="translate(-745 -1022)"/>
</svg>
