<svg xmlns="http://www.w3.org/2000/svg" width="14.031" height="16" viewBox="0 0 14.031 16">
  <defs>
    <style>
      .cls-1 {
        fill: #004995;
        fill-rule: evenodd;
      }
    </style>
  </defs>
  <path id="Фигура_22" data-name="Фигура 22" class="cls-1" d="M202.526,22a7.22,7.22,0,0,1,4.224,1.061l0.126,0.032,0.031,0.062h0.063L207,23.219h0.063l0.063,0.094h0.063l0.031,0.062h0.063c0.021,0.031.042,0.062,0.064,0.093h0.062c0.032,0.042.064,0.083,0.095,0.126h0.063l0.189,0.218h0.063l0.284,0.312,0.189,0.155v0.063l0.189,0.157c0.011,0.031.021,0.062,0.032,0.093l0.094,0.063v0.063l0.095,0.062c0.01,0.032.021,0.062,0.031,0.093L208.8,24.9v0.062L208.861,25c0.011,0.031.021,0.062,0.032,0.093h0.031v0.062l0.063,0.032c0.011,0.041.021,0.084,0.032,0.125l0.063,0.031c0.01,0.041.021,0.083,0.032,0.125l0.062,0.031V25.56h0.032v0.063h0.032v0.062h0.031v0.063H209.3V25.81h0.031v0.062h0.032l0.063,0.187h0.031v0.093h0.032v0.063h0.031V26.31h0.032v0.062h0.031c0.011,0.062.021,0.125,0.032,0.187h0.031v0.094h0.032v0.094h0.031V26.84h0.032v0.093h0.031l0.063,0.406a5.318,5.318,0,0,1-.031,2.717l-0.063.374h-0.032c-0.052.187-.1,0.374-0.157,0.562h-0.032v0.063h-0.031v0.094H209.46V31.21h-0.031V31.3H209.4v0.063h-0.031c-0.011.052-.021,0.1-0.032,0.156H209.3l-0.063.187h-0.032v0.063h-0.032v0.063h-0.031V31.9h-0.031V31.96h-0.032v0.062H209.05v0.062h-0.031v0.063l-0.063.031-0.063.188-0.063.031c-0.011.042-.021,0.083-0.032,0.124l-0.063.032c-0.01.042-.021,0.083-0.031,0.125l-0.063.031v0.062l-0.063.031v0.063l-0.063.031v0.063l-0.063.031v0.063l-0.063.031v0.063h-0.032c-0.01.031-.021,0.062-0.031,0.094l-0.063.031v0.062l-0.095.062v0.063l-0.095.062v0.063l-0.094.063v0.062l-0.126.094v0.063l-0.126.093V34.02l-0.158.125v0.062l-0.189.156v0.062l-0.252.219a6.211,6.211,0,0,1-.694.718,7.086,7.086,0,0,1-.851.78l-0.157.187h-0.063l-0.158.188h-0.063l-0.031.062h-0.032l-0.063.094h-0.063l-0.094.124H204.8c-0.01.021-.02,0.042-0.031,0.063h-0.031c-0.011.02-.022,0.041-0.032,0.062h-0.063l-0.063.094h-0.063l-0.063.094h-0.063l-0.063.094H204.26L204.2,37.3h-0.063l-0.063.093-0.095.032c-0.01.021-.021,0.041-0.032,0.062h-0.063l-0.031.062h-0.063l-0.063.094h-0.063l-0.032.063h-0.063c-0.01.021-.021,0.041-0.031,0.063h-0.063l-0.032.062h-0.063c-0.01.021-.021,0.041-0.031,0.063h-0.063v0.031H203.22v0.031h-0.095v0.031a0.834,0.834,0,0,1-.567-0.156l-0.032-.062h-0.063V37.735l-0.094-.031-0.032-.063h-0.063l-0.063-.094h-0.063l-0.032-.062h-0.063l-0.031-.062-0.095-.032-0.063-.093H201.8l-0.063-.094h-0.063l-0.063-.094h-0.063l-0.063-.094h-0.063l-0.095-.124h-0.063c-0.01-.021-0.021-0.042-0.031-0.063H201.2l-0.031-.062h-0.063l-0.095-.126H200.95l-0.126-.155h-0.063l-0.126-.157h-0.063l-0.189-.219A7.409,7.409,0,0,1,199.5,35.3a5.609,5.609,0,0,1-.63-0.656l-0.284-.25V34.332l-0.157-.125V34.145H198.4l-0.063-.094-0.063-.031V33.958l-0.126-.093V33.8l-0.126-.094V33.646l-0.094-.063V33.52l-0.095-.062V33.4l-0.095-.062V33.271l-0.063-.031c-0.01-.032-0.021-0.062-0.031-0.094h-0.032V33.084l-0.063-.031V32.99l-0.063-.031V32.9l-0.063-.031V32.8l-0.063-.031V32.709l-0.063-.031V32.615l-0.063-.031-0.063-.187-0.063-.031-0.063-.188-0.063-.031V32.084h-0.032V32.022h-0.031V31.96h-0.032V31.9h-0.031V31.835h-0.032V31.773H196.79V31.709h-0.032V31.648h-0.031l-0.063-.187h-0.032V31.367H196.6c-0.011-.042-0.021-0.084-0.032-0.125h-0.031V31.149h-0.032V31.086h-0.031c-0.011-.063-0.021-0.125-0.032-0.187h-0.031V30.8H196.38V30.742h-0.031l-0.063-.312h-0.032l-0.063-.374a5.352,5.352,0,0,1-.031-2.716c0.02-.135.042-0.27,0.063-0.406h0.031V26.84h0.032V26.746h0.031V26.622h0.032V26.559h0.031c0.011-.063.021-0.125,0.032-0.187h0.031V26.31h0.032V26.215h0.031V26.153h0.032V26.059h0.031l0.063-.187h0.032V25.81H196.7V25.747h0.032V25.684h0.031V25.622h0.032V25.56h0.031V25.5l0.063-.031c0.011-.042.021-0.083,0.032-0.125l0.063-.031c0.01-.041.021-0.084,0.031-0.125h0.032c0.01-.032.021-0.062,0.032-0.094l0.063-.031V25l0.063-.031V24.9l0.094-.063V24.779l0.095-.062V24.654l0.094-.063c0.011-.031.021-0.062,0.032-0.093l0.189-.157V24.279l0.189-.155,0.284-.312h0.063l0.157-.188h0.063l0.126-.156h0.063c0.021-.031.043-0.062,0.063-0.093h0.064l0.031-.062h0.063l0.063-.094H199l0.032-.063,0.094-.031V23.093l0.126-.032L199.28,23l0.189-.063,0.031-.063h0.063V22.844h0.064V22.813h0.063V22.781h0.063V22.75h0.063V22.719h0.063V22.688l0.189-.063v-0.03h0.094V22.563l0.126-.031V22.5l0.189-.032V22.438h0.064V22.407h0.094V22.375h0.095V22.344h0.094V22.313h0.095V22.281h0.126v-0.03h0.126V22.219H201.3V22.188h0.126V22.157h0.158V22.126h0.157V22.095h0.189V22.063h0.252V22.032A1.1,1.1,0,0,0,202.526,22Zm0,1.124a2.255,2.255,0,0,1-.5.063v0.031h-0.189V23.25l-0.315.031v0.032l-0.221.031v0.032H201.2v0.031h-0.094v0.031h-0.095v0.031h-0.094V23.5h-0.095v0.031H200.73v0.031h-0.063v0.032H200.6v0.031h-0.063v0.031h-0.095v0.031l-0.189.063V23.78l-0.189.063-0.032.063-0.126.03L199.879,24h-0.063V24.03h-0.063c-0.011.02-.021,0.042-0.032,0.063h-0.063v0.031l-0.095.031c-0.01.021-.02,0.042-0.031,0.063h-0.063l-0.063.094h-0.063l-0.063.094h-0.063l-0.126.156h-0.063l-0.284.312-0.284.25v0.062l-0.157.125v0.062l-0.095.063V25.5l-0.094.062v0.063l-0.063.031c-0.011.031-.021,0.063-0.032,0.093h-0.031c-0.011.042-.021,0.083-0.032,0.125l-0.063.031c-0.01.042-.021,0.083-0.032,0.125l-0.063.031-0.063.187H197.7V26.31h-0.032l-0.063.186h-0.031V26.59h-0.032v0.063h-0.031v0.094h-0.032v0.063h-0.031l-0.063.28h-0.032v0.126a4.8,4.8,0,0,0,0,2.841c0.011,0.072.021,0.146,0.032,0.218h0.031l0.063,0.281h0.032v0.062h0.031v0.094h0.032v0.062h0.031v0.094h0.032V30.93h0.031c0.011,0.051.021,0.1,0.032,0.155h0.031l0.063,0.187h0.032v0.062h0.031c0.022,0.062.042,0.125,0.064,0.187l0.063,0.032v0.062h0.031v0.063h0.032v0.062h0.031V31.8l0.063,0.032c0.011,0.042.021,0.083,0.032,0.125l0.063,0.031c0.01,0.042.021,0.083,0.031,0.125H198.3c0.01,0.032.021,0.063,0.031,0.094l0.063,0.032V32.3h0.032c0.01,0.032.021,0.063,0.031,0.094l0.063,0.031V32.49l0.095,0.062v0.062l0.063,0.032v0.062l0.095,0.062v0.063L198.87,32.9v0.063l0.095,0.062v0.063l0.063,0.031v0.032l0.063,0.031V33.24l0.157,0.125v0.062l0.158,0.125a7.592,7.592,0,0,0,.851.906,7.382,7.382,0,0,0,.882.811l0.158,0.188h0.063l0.189,0.218h0.063l0.095,0.125h0.063l0.094,0.125h0.063l0.095,0.125h0.063l0.094,0.124h0.064l0.063,0.094h0.063l0.063,0.093H202.5l0.063,0.094,0.094,0.031,0.032,0.061h0.063l0.031,0.063a0.7,0.7,0,0,1,.189.125c0.064-.018.028,0,0.063-0.031a0.247,0.247,0,0,0,.127-0.063v-0.03h0.063l0.031-.063h0.063l0.063-.093h0.063l0.063-.094h0.063l0.063-.093h0.063l0.063-.094h0.063l0.095-.124h0.063l0.095-.125h0.063l0.094-.125h0.063l0.126-.157h0.063l0.063-.093,0.095-.063V35.457H204.7c0.052-.063.105-0.126,0.158-0.188h0.063l0.252-.28h0.063l0.346-.375a6.11,6.11,0,0,0,.694-0.718l0.283-.249V33.583l0.19-.156V33.365l0.126-.093V33.208L207,33.115V33.053l0.126-.094V32.9l0.094-.062c0.011-.032.021-0.063,0.032-0.094l0.063-.032V32.647h0.032c0.01-.032.02-0.063,0.031-0.094l0.063-.032V32.46l0.095-.063V32.334L207.6,32.3c0.01-.041.021-0.083,0.031-0.125l0.063-.031V32.084l0.063-.03V31.991l0.063-.031,0.063-.187,0.063-.031,0.063-.187,0.063-.032,0.063-.187h0.032V31.273H208.2c0.02-.063.042-0.124,0.063-0.187h0.031V30.992h0.032c0.01-.042.021-0.083,0.031-0.125h0.032V30.774h0.031V30.711h0.032l0.252-.749V29.806h0.031V29.681h0.032V29.525H208.8V29.306a4.088,4.088,0,0,0-.157-2.091c-0.032-.136-0.063-0.271-0.095-0.406h-0.031c-0.011-.052-0.021-0.1-0.032-0.157h-0.031V26.59H208.42V26.5h-0.031l-0.063-.186h-0.032V26.247h-0.031c-0.021-.063-0.043-0.125-0.063-0.187l-0.064-.031c-0.01-.042-0.021-0.083-0.031-0.125l-0.063-.031c-0.011-.042-0.021-0.084-0.032-0.125h-0.031c-0.011-.031-0.021-0.063-0.032-0.093l-0.063-.031V25.56L207.79,25.5V25.435l-0.063-.031c-0.011-.032-0.021-0.063-0.032-0.094l-0.157-.125V25.123l-0.284-.25-0.284-.312h-0.063l-0.126-.156h-0.063l-0.063-.094-0.095-.032c-0.01-.02-0.02-0.042-0.031-0.062h-0.063l-0.032-.063h-0.063l-0.031-.062-0.851-.469h-0.095V23.593h-0.063V23.562l-0.851-.281h-0.157V23.25h-0.158V23.219h-0.157V23.188h-0.221A5.33,5.33,0,0,0,202.526,23.125Zm0.032,1.935a4.85,4.85,0,0,1,1.071.031v0.032l0.252,0.03v0.032l0.284,0.062v0.031l0.158,0.032v0.031l0.126,0.031V25.4l0.126,0.031,0.031,0.062,0.127,0.032c0.01,0.02.02,0.041,0.031,0.062h0.063l0.063,0.094h0.063l0.095,0.126h0.063l0.189,0.219,0.094,0.062v0.062l0.126,0.094V26.31l0.095,0.062v0.062l0.063,0.031v0.063l0.063,0.031,0.063,0.187h0.032v0.063h0.031L205.93,27h0.032c0.01,0.063.021,0.126,0.031,0.188h0.032v0.062h0.031V27.37a2.273,2.273,0,0,1,.095,1.156v0.219h-0.032V28.9h-0.031v0.125h-0.032V29.15h-0.031v0.094h-0.032c-0.01.052-.021,0.1-0.031,0.156H205.93c-0.01.041-.021,0.083-0.031,0.125h-0.032v0.094l-0.063.031-0.063.187-0.063.031v0.063h-0.032c-0.01.031-.021,0.061-0.031,0.093l-0.063.031v0.062l-0.126.094a3.083,3.083,0,0,1-1.324.968h-0.094V31.21h-0.095v0.032h-0.126v0.031h-0.126V31.3h-0.189v0.031h-0.284v0.032H202.81V31.335h-0.284V31.3h-0.189V31.273h-0.126V31.242h-0.126V31.21H201.99V31.179H201.9V31.149h-0.063V31.117h-0.095V31.086l-0.189-.063V30.992l-0.126-.031-0.031-.063-0.127-.031-0.031-.063h-0.063c-0.011-.02-0.021-0.041-0.032-0.062h-0.063l-0.126-.157h-0.063l-0.22-.249-0.095-.063V30.211l-0.126-.094V30.056l-0.063-.031c-0.011-.032-0.021-0.063-0.032-0.093H200.32V29.868l-0.063-.031c-0.011-.042-0.021-0.084-0.032-0.126l-0.063-.031V29.619h-0.031V29.556H200.1V29.462h-0.031V29.4h-0.032c-0.01-.052-0.021-0.1-0.031-0.156h-0.032V29.15h-0.031V29.025a2.272,2.272,0,0,1-.095-1.155V27.652h0.032V27.5h0.031V27.37h0.032V27.245h0.031V27.152h0.032V27.089h0.031V27h0.032l0.063-.186h0.031V26.746h0.032l0.063-.187h0.031c0.011-.031.021-0.063,0.032-0.094l0.063-.031V26.371l0.063-.031c0.011-.03.021-0.062,0.031-0.093l0.127-.094V26.09l0.063-.031,0.189-.219h0.063l0.126-.156h0.063l0.031-.062,0.095-.032V25.56H201.3c0.011-.02.021-0.042,0.031-0.062h0.064l0.031-.062h0.063V25.4l0.284-.094V25.279h0.063V25.247h0.094V25.216h0.095V25.185h0.094V25.153h0.127v-0.03h0.126V25.091h0.189V25.06Zm0.315,1.093v0.031h-0.252l-0.5.156v0.031h-0.063l-0.031.062-0.126.031-0.032.063H201.8l-0.063.094h-0.063l-0.063.093-0.22.187v0.063l-0.095.063v0.062l-0.063.032v0.062H201.2v0.062h-0.031v0.063h-0.032V27.37h-0.031v0.063h-0.032v0.094h-0.031V27.62h-0.032v0.125h-0.031V27.9H200.95a1.879,1.879,0,0,0,.063.75l0.063,0.312h0.032v0.063h0.031v0.062h0.032V29.15H201.2v0.062h0.032v0.063l0.063,0.031v0.063l0.095,0.063v0.062l0.22,0.188,0.095,0.125h0.063l0.063,0.093,0.126,0.032,0.031,0.061h0.063v0.032l0.126,0.031v0.03h0.095v0.031h0.095v0.032h0.094V30.18h0.126v0.031h0.221v0.032h0.378V30.211h0.221V30.18h0.126V30.149h0.094V30.118h0.095V30.086h0.094v-0.03l0.126-.031V29.992h0.064l0.031-.061,0.126-.032,0.063-.093h0.063l0.095-.125,0.22-.187V29.431l0.095-.063V29.306l0.063-.031V29.212H204.8V29.15h0.032V29.087h0.032V29.025h0.031V28.963h0.032V28.869h0.031V28.775h0.032V28.651h0.031V28.494a1.615,1.615,0,0,0-.094-0.967V27.433H204.89l-0.063-.188H204.8c-0.01-.041-0.02-0.083-0.031-0.124l-0.063-.032V27.027l-0.095-.063A2.008,2.008,0,0,0,202.873,26.153Z" transform="translate(-196 -22)"/>
</svg>
