<svg xmlns="http://www.w3.org/2000/svg" width="16" height="16" viewBox="0 0 16 16">
  <defs>
    <style>
      .cls-1 {
        fill: #004995;
        fill-rule: evenodd;
      }
    </style>
  </defs>
  <path id="Фигура_23" data-name="Фигура 23" class="cls-1" d="M526.5,22a7.892,7.892,0,0,1,4.021.843h0.063v0.031h0.062v0.031h0.063v0.031h0.062v0.031h0.062V23H530.9c0.01,0.021.02,0.042,0.031,0.063h0.062v0.031l0.125,0.031c0.01,0.021.021,0.042,0.031,0.063h0.062c0.011,0.021.021,0.042,0.032,0.062H531.3c0.01,0.021.021,0.042,0.031,0.063l0.125,0.03c0.01,0.022.021,0.042,0.031,0.063h0.062c0.011,0.021.021,0.042,0.031,0.063l0.094,0.031,0.062,0.094H531.8c0.02,0.031.041,0.062,0.062,0.094h0.062l0.094,0.125h0.062L532.237,24H532.3l0.156,0.187,0.53,0.5v0.063l0.187,0.156c0.011,0.031.021,0.063,0.031,0.094l0.094,0.062v0.062l0.093,0.062,0.032,0.094,0.062,0.031v0.062l0.062,0.032v0.062l0.094,0.063c0.01,0.042.021,0.083,0.031,0.125l0.062,0.031v0.063l0.063,0.031V25.84l0.062,0.031c0.021,0.062.042,0.124,0.062,0.188l0.063,0.031v0.063h0.031v0.062h0.031v0.063h0.031v0.062h0.032V26.4h0.031v0.063h0.031v0.062H534.2v0.063h0.031l0.063,0.187h0.031v0.093h0.031c0.01,0.042.021,0.084,0.031,0.125h0.031q0.173,0.531.343,1.061,0.095,0.531.187,1.061v0.374h0.031a4.16,4.16,0,0,1-.031,1v0.375h-0.031v0.249h-0.031V31.3h-0.031v0.188h-0.031v0.155h-0.032c-0.01.094-.02,0.188-0.031,0.281h-0.031v0.093H534.7v0.125h-0.031v0.125h-0.032v0.094h-0.031v0.094h-0.031v0.094h-0.031c-0.01.062-.021,0.125-0.031,0.188h-0.031V32.8H534.45v0.093h-0.031v0.063h-0.031v0.093h-0.031v0.062h-0.031V33.2h-0.031l-0.063.188H534.2v0.062H534.17v0.063h-0.031v0.063h-0.031v0.062h-0.032V33.7h-0.031v0.062h-0.031v0.063h-0.031v0.062l-0.063.032c-0.02.062-.041,0.124-0.062,0.187l-0.062.031V34.2l-0.063.031V34.3l-0.062.032c-0.01.042-.021,0.083-0.031,0.125-0.031.021-.062,0.042-0.094,0.062v0.063l-0.062.032v0.062l-0.062.031c-0.011.031-.021,0.063-0.032,0.094l-0.093.063v0.062l-0.094.063c-0.01.031-.02,0.062-0.031,0.094l-0.187.156V35.3l-0.53.5-0.156.188h-0.062l-0.156.187h-0.062l-0.094.125h-0.062l-0.062.093h-0.063l-0.062.094-0.094.031c-0.01.021-.02,0.042-0.031,0.063h-0.062l-0.031.062-0.125.032-0.031.062H531.24l-0.032.063-0.093.031v0.031l-0.187.062c-0.011.021-.021,0.042-0.031,0.063h-0.063v0.031h-0.062v0.031H530.71v0.031h-0.063v0.031h-0.062v0.032h-0.063v0.031H530.46V37.2H530.4V37.23l-0.187.062v0.031h-0.094v0.031l-0.124.031v0.032l-0.188.031V37.48h-0.062v0.032l-0.187.031v0.031h-0.093V37.6h-0.094v0.031h-0.093v0.031l-0.343.062v0.031l-0.281.031v0.031H528.5v0.031h-0.187v0.031h-0.187v0.031h-0.249v0.032H527.5v0.031a4.175,4.175,0,0,1-1-.031h-0.374V37.917h-0.249V37.886h-0.187V37.854H525.5V37.823h-0.156V37.792h-0.125V37.761H525.1V37.73h-0.124V37.7h-0.125V37.667h-0.125V37.636h-0.093V37.6h-0.094V37.574h-0.093V37.543H524.35V37.512h-0.093V37.48h-0.063V37.449H524.1V37.417h-0.063V37.386h-0.093V37.355h-0.063V37.324h-0.093V37.293L523.6,37.23V37.2H523.54V37.168h-0.063V37.137h-0.062V37.105h-0.062V37.074H523.29V37.043h-0.062V37.012h-0.062V36.981H523.1l-0.031-.063H523.01V36.887l-0.125-.032c-0.011-.02-0.021-0.041-0.031-0.062h-0.063c-0.01-.022-0.02-0.042-0.031-0.063H522.7c-0.011-.02-0.021-0.042-0.031-0.062l-0.125-.032c-0.021-.031-0.042-0.062-0.062-0.093h-0.063l-0.031-.062h-0.062l-0.063-.094H522.2l-0.062-.093h-0.063l-0.093-.125h-0.062l-0.156-.187H521.7l-0.156-.188-0.53-.5V35.233l-0.187-.156c-0.01-.032-0.02-0.062-0.031-0.094l-0.093-.063V34.859l-0.094-.063c-0.01-.031-0.021-0.063-0.031-0.094l-0.062-.031V34.609l-0.063-.032V34.515l-0.093-.062c-0.011-.042-0.021-0.083-0.031-0.125l-0.063-.032V34.234L520.2,34.2V34.141l-0.062-.031-0.063-.187-0.062-.032V33.829h-0.031V33.766h-0.031V33.7h-0.032V33.641h-0.031V33.579h-0.031V33.516H519.83V33.454H519.8V33.392h-0.031l-0.063-.188h-0.031V33.111h-0.031c-0.011-.042-0.021-0.083-0.031-0.125H519.58c-0.01-.063-0.02-0.124-0.031-0.187h-0.031V32.737h-0.031c-0.01-.063-0.021-0.125-0.031-0.188h-0.031V32.455h-0.032V32.362h-0.031V32.268h-0.031c-0.01-.073-0.021-0.145-0.031-0.218h-0.031c-0.011-.094-0.021-0.188-0.031-0.28h-0.032V31.644h-0.031V31.488h-0.031V31.3h-0.031V31.113h-0.031V30.864h-0.031V30.489h-0.032a4.108,4.108,0,0,1,.032-1V29.21c0.02-.177.041-0.354,0.062-0.531h0.031V28.492h0.031V28.336h0.031V28.211h0.032c0.01-.094.02-0.188,0.031-0.281H519.3c0.01-.073.021-0.145,0.031-0.219h0.031V27.619h0.031V27.525h0.032V27.431h0.031c0.01-.063.021-0.125,0.031-0.187h0.031V27.181h0.031c0.011-.062.021-0.125,0.031-0.187q0.282-.562.562-1.123h0.031l0.031-.094,0.062-.031c0.011-.041.021-0.083,0.032-0.125l0.062-.031V25.527l0.093-.063V25.4l0.063-.032V25.309l0.093-.063V25.184l0.094-.062V25.059l0.124-.093V24.9l0.187-.156V24.685l0.187-.156L521.7,24h0.063l0.156-.187h0.062l0.093-.125h0.063l0.062-.094h0.062l0.063-.094h0.062c0.01-.021.021-0.041,0.031-0.063h0.063l0.062-.094H522.6l0.032-.062,0.124-.032V23.218l0.094-.031,0.031-.063,0.125-.031c0.01-.021.02-0.042,0.031-0.063H523.1V23h0.063V22.968h0.062V22.937h0.062V22.906h0.063V22.875h0.062V22.844h0.062V22.812h0.063V22.781H523.6V22.75l0.187-.062V22.656h0.093V22.625h0.063V22.593h0.093V22.563H524.1V22.531h0.093V22.5h0.063V22.469l0.187-.031V22.407h0.093V22.375h0.094V22.344h0.093V22.313h0.125V22.281h0.093v-0.03h0.125V22.219l0.281-.032V22.157H525.5V22.126h0.187V22.095h0.187V22.063h0.249V22.032A1.2,1.2,0,0,0,526.5,22Zm-4.333,12.826a1.252,1.252,0,0,1,.343.281l0.031,0.062H522.6l0.125,0.156h0.062l0.063,0.094h0.062c0.021,0.031.042,0.062,0.062,0.094h0.063l0.062,0.094h0.063c0.01,0.02.02,0.041,0.031,0.062h0.062c0.01,0.021.021,0.042,0.031,0.063l0.125,0.031,0.031,0.063,0.125,0.031L523.6,35.92l0.125,0.031c0.01,0.02.02,0.042,0.031,0.062l0.124,0.032v0.031l0.187,0.063v0.031h0.094V36.2h0.062v0.031l0.125,0.032v0.031h0.094v0.031h0.062v0.032l0.156,0.031v0.031h0.125V36.45h0.062v0.031h0.093v0.031h0.125v0.031h0.094v0.032h0.124v0.031h0.125v0.031h0.125v0.032h0.156V36.7h0.187v0.031h0.187v0.031h0.249v0.032h0.53a0.69,0.69,0,0,0,.312.031V36.794h0.53V36.762h0.249V36.731h0.218V36.7h0.156V36.669h0.156l0.873-.25V36.387H529.4V36.357h0.094V36.325h0.062V36.294h0.094V36.263l0.124-.032V36.2h0.063V36.169h0.093V36.138l0.187-.063V36.045l0.125-.032,0.031-.062,0.187-.063c0.011-.02.021-0.042,0.031-0.062l0.125-.032,0.031-.062h0.063V35.7l0.093-.031,0.031-.062H530.9c0.02-.032.041-0.063,0.062-0.094h0.062l0.031-.063h0.063l0.031-.062h0.031c0.011-.021.021-0.043,0.031-0.063h0.063l0.124-.156h0.063l0.249-.281,0.094-.031c0.02-.042.041-0.084,0.062-0.126l0.312-.28V34.39l0.156-.125V34.2l0.124-.093V34.047l0.063-.031V33.953l0.093-.063V33.829l0.062-.031c0.011-.032.021-0.063,0.032-0.093h0.031c0.01-.042.021-0.083,0.031-0.125l0.062-.032V33.485l0.063-.032c0.021-.062.041-0.125,0.062-0.187l0.062-.031c0.011-.042.021-0.084,0.032-0.125h0.031c0.021-.062.041-0.125,0.062-0.188h0.031V32.83H533.2V32.768h0.032c0.01-.041.02-0.084,0.031-0.124H533.3V32.549h0.031V32.486h0.031V32.393h0.031V32.331h0.032c0.01-.063.02-0.125,0.031-0.188,0.117-.3.184-0.669,0.28-1,0.011-.156.021-0.312,0.032-0.468H533.8V30.146h0.031a0.7,0.7,0,0,0-.031-0.312V29.3h-0.031v-0.25h-0.032V28.835H533.7c-0.01-.1-0.021-0.208-0.031-0.312H533.64V28.4h-0.031V28.274h-0.031V28.148h-0.032V28.055h-0.031V27.93h-0.031V27.837h-0.031V27.743h-0.031V27.649H533.39V27.587h-0.031V27.493h-0.031V27.431H533.3V27.337h-0.031c-0.011-.042-0.021-0.083-0.031-0.125H533.2V27.15h-0.031V27.056h-0.031c-0.021-.062-0.041-0.124-0.062-0.187h-0.031c-0.011-.042-0.021-0.083-0.032-0.125l-0.062-.031-0.062-.187-0.063-.031c-0.01-.042-0.02-0.083-0.031-0.125l-0.062-.031V26.276h-0.031c-0.011-.031-0.021-0.063-0.032-0.093l-0.062-.031V26.089l-0.093-.062V25.965l-0.063-.032V25.871l-0.124-.094V25.715l-0.156-.125V25.527l-0.343-.312c-0.011-.032-0.021-0.063-0.031-0.094h-0.063l-0.28-.312H531.4l-0.124-.156h-0.063l-0.093-.125h-0.063c-0.01-.021-0.02-0.042-0.031-0.062h-0.062l-0.062-.094h-0.063L530.8,24.31h-0.062c-0.011-.02-0.021-0.042-0.031-0.062l-0.094-.031V24.185l-0.125-.031-0.031-.063-0.187-.062c-0.01-.021-0.021-0.041-0.031-0.063l-0.125-.031V23.9l-0.187-.062V23.811h-0.093V23.78h-0.063V23.748l-0.124-.031V23.686h-0.094V23.654h-0.062v-0.03H529.4V23.592h-0.062V23.561l-0.187-.03V23.5h-0.094V23.467h-0.093V23.436h-0.125V23.4h-0.125v-0.03H528.59V23.342h-0.125v-0.03h-0.156V23.28h-0.156V23.249h-0.218V23.218l-0.779-.031V23.156l-0.5.031a4.414,4.414,0,0,0-1.372.218h-0.124v0.031h-0.094v0.031h-0.125V23.5h-0.093V23.53h-0.094v0.03h-0.093v0.032H524.6v0.031h-0.093v0.03h-0.062v0.032H524.35v0.031l-0.125.031V23.78h-0.062v0.032h-0.094v0.032l-0.187.062v0.031l-0.124.031-0.031.063-0.125.032c-0.011.021-.021,0.041-0.031,0.062l-0.125.031-0.031.063-0.125.031v0.031l-0.093.031c-0.011.021-.021,0.042-0.031,0.062H523.1l-0.062.094h-0.063c-0.01.02-.02,0.042-0.031,0.063h-0.062l-0.094.125h-0.062l-0.125.156h-0.062l-0.312.343h-0.062c-0.01.031-.021,0.063-0.031,0.094l-0.312.281V25.59l-0.156.125v0.062l-0.062.031V25.84l-0.063.031v0.062l-0.062.032v0.062l-0.093.062v0.063l-0.063.031-0.031.093h-0.031v0.062l-0.063.031c-0.01.042-.02,0.084-0.031,0.125l-0.062.031c-0.021.063-.042,0.124-0.062,0.187l-0.063.031c-0.01.042-.02,0.083-0.031,0.125h-0.031c-0.021.063-.042,0.125-0.062,0.187h-0.032V27.15H520.8v0.062h-0.031c-0.01.042-.021,0.083-0.031,0.125H520.7v0.094h-0.031v0.062H520.64c-0.01.052-.02,0.1-0.031,0.157h-0.031c-0.01.062-.021,0.125-0.031,0.188-0.118.3-.184,0.669-0.281,1v0.218h-0.031V29.3H520.2v0.53h-0.031a0.691,0.691,0,0,0,.031.312v0.531h0.031v0.25h0.031v0.218H520.3V31.3h0.031v0.156h0.031v0.125h0.031v0.125h0.031v0.125h0.031c0.011,0.072.021,0.146,0.032,0.219h0.031v0.093h0.031v0.094h0.031v0.094h0.031v0.062h0.031v0.093h0.032v0.063H520.7v0.094h0.031c0.01,0.041.021,0.083,0.031,0.124H520.8V32.83h0.031v0.093h0.032c0.02,0.063.041,0.126,0.062,0.188h0.031c0.011,0.041.021,0.083,0.031,0.125l0.063,0.031c0.02,0.062.041,0.125,0.062,0.187l0.062,0.032c0.011,0.042.021,0.083,0.031,0.125l0.063,0.031V33.7h0.031c0.01,0.031.021,0.062,0.031,0.093l0.063,0.031v0.062l0.093,0.063v0.063l0.062,0.031V34.11l0.125,0.093v0.063l0.156,0.125,0.031,0.094A0.967,0.967,0,0,1,522.168,34.827Zm5.019-4.837h2.026a1.551,1.551,0,0,1,.748.062,0.535,0.535,0,0,1,.312.624V30.8h-0.031c-0.1.389-.542,0.344-1.029,0.344-0.941,0-1.979.056-2.868-.032-0.062-.094-0.029-0.013-0.093-0.062-0.011-.021-0.021-0.041-0.031-0.062l-0.094-.062c-0.021-.062-0.042-0.125-0.062-0.187h-0.031v-4.4h0.031c0.01-.052.02-0.1,0.031-0.156l0.187-.156V25.995h0.062v-0.03a0.765,0.765,0,0,1,.374-0.063v0.032l0.187,0.032c0.011,0.02.021,0.041,0.031,0.062l0.094,0.031c0.01,0.031.021,0.062,0.031,0.093l0.063,0.031v0.062h0.031a4.991,4.991,0,0,1,.031,1.123v2.622Z" transform="translate(-519 -22)"/>
</svg>
