<svg xmlns="http://www.w3.org/2000/svg" width="18.031" height="18" viewBox="0 0 18.031 18">
  <defs>
    <style>
      .cls-1 {
        fill: #004995;
        fill-rule: evenodd;
      }
    </style>
  </defs>
  <path id="phone" class="cls-1" d="M941.563,114.4a1.619,1.619,0,0,1-.422-0.352l-0.035-.069h-0.07l-0.141-.176h-0.07l-0.106-.141h-0.071l-0.07-.1h-0.07c-0.012-.023-0.024-0.046-0.035-0.07H940.4c-0.023-.035-0.047-0.07-0.07-0.106h-0.07l-0.036-.07h-0.07c-0.012-.023-0.024-0.046-0.035-0.07l-0.141-.035c-0.012-.023-0.024-0.047-0.035-0.071l-0.141-.034-0.035-.071-0.211-.07c-0.012-.024-0.024-0.047-0.035-0.07-0.047-.013-0.094-0.024-0.141-0.035v-0.036h-0.071v-0.034l-0.211-.071v-0.035H939v-0.035h-0.071v-0.036l-0.14-.034v-0.036h-0.106v-0.035h-0.07v-0.034l-0.211-.036V112.4h-0.071v-0.035l-0.352-.071v-0.034h-0.105v-0.036h-0.106v-0.035h-0.141v-0.035l-0.281-.035v-0.036l-0.528-.07V111.98l-0.141-.035-0.105-.14h-0.036a0.841,0.841,0,0,1-.07-0.457,0.652,0.652,0,0,1,.282-0.28,0.623,0.623,0,0,1,.563,0h0.176V111.1h0.14v0.035h0.141v0.035H937.9v0.035h0.141v0.035h0.105v0.035h0.141v0.035H938.4v0.035h0.1v0.036h0.106v0.034h0.07v0.036c0.07,0.012.141,0.022,0.211,0.035v0.035h0.071v0.035h0.105v0.035h0.07v0.035h0.106v0.035l0.141,0.035v0.036c0.058,0.011.117,0.022,0.176,0.035v0.035h0.07v0.034H939.7v0.036h0.07v0.035h0.07v0.035h0.071v0.035c0.046,0.013.093,0.024,0.14,0.035l0.036,0.07,0.211,0.071c0.011,0.024.023,0.047,0.035,0.07,0.047,0.012.094,0.023,0.141,0.036l0.035,0.07h0.07c0.012,0.023.024,0.046,0.035,0.07h0.071c0.012,0.023.023,0.047,0.035,0.071,0.047,0.01.094,0.023,0.141,0.034l0.07,0.1H941l0.036,0.071h0.07c0.012,0.023.023,0.047,0.035,0.07,0.035,0.012.071,0.023,0.106,0.036l0.07,0.105h0.071l0.105,0.14h0.07l0.141,0.176h0.071q0.176,0.194.352,0.386h0.07l0.035,0.07,0.141,0.105v0.071q0.193,0.174.387,0.352v0.069l0.176,0.141v0.07l0.141,0.106v0.07l0.14,0.1v0.07l0.071,0.036v0.07l0.105,0.07v0.07l0.071,0.036v0.069l0.07,0.035v0.071l0.07,0.035v0.07c0.024,0.013.047,0.024,0.071,0.035,0.012,0.047.023,0.095,0.035,0.141l0.07,0.036,0.036,0.139c0.023,0.013.046,0.024,0.07,0.036v0.07h0.035v0.07h0.035v0.071h0.035v0.07h0.036v0.07h0.035v0.07H944.1v0.07h0.035v0.071h0.035v0.069H944.2v0.07h0.035c0.011,0.048.023,0.095,0.035,0.141h0.035v0.07h0.035v0.106h0.036v0.071h0.035v0.105h0.035v0.07h0.035v0.105h0.035v0.071h0.035l0.036,0.211h0.035v0.105h0.035v0.106H944.7v0.105h0.035v0.14h0.036v0.106H944.8v0.14h0.035v0.14h0.035v0.14h0.035v0.177h0.036v0.175h0.035a0.666,0.666,0,0,1-.035.456,0.706,0.706,0,0,1-.247.282,0.532,0.532,0,0,1-.422-0.036H944.2l-0.141-.175h-0.035a1.847,1.847,0,0,1-.071-0.422h-0.035c-0.012-.105-0.023-0.21-0.035-0.316h-0.035v-0.141h-0.035v-0.14H943.78v-0.1h-0.035v-0.141H943.71v-0.105h-0.035v-0.1H943.64v-0.106H943.6V117.6h-0.035v-0.07h-0.035v-0.105H943.5v-0.106h-0.035c-0.012-.048-0.024-0.094-0.036-0.14h-0.035v-0.106h-0.035c-0.023-.071-0.047-0.14-0.07-0.21h-0.035v-0.071h-0.036v-0.07h-0.035v-0.07h-0.035v-0.07h-0.035v-0.07h-0.035v-0.071h-0.036V116.37h-0.035V116.3h-0.035v-0.07l-0.07-.035-0.036-.14c-0.023-.012-0.046-0.025-0.07-0.036v-0.07l-0.07-.035v-0.07l-0.071-.035v-0.071l-0.07-.034v-0.071c-0.024-.012-0.047-0.024-0.07-0.034v-0.071l-0.071-.035c-0.012-.035-0.023-0.071-0.035-0.106l-0.106-.07v-0.07l-0.07-.036c-0.012-.035-0.023-0.07-0.035-0.1l-0.176-.141V114.9l-0.071-.035v-0.036A1.177,1.177,0,0,1,941.563,114.4Zm-11.436-2.353h0.634v0.034h0.14v0.036l0.211,0.035v0.035l0.141,0.035v0.036h0.071l0.035,0.07h0.07l0.071,0.105h0.07l0.352,0.386,0.105,0.036c0.012,0.022.024,0.046,0.036,0.07l0.14,0.105v0.071l0.106,0.07,0.246,0.281,0.282,0.245,0.774,0.809c0.129,0.117.258,0.233,0.387,0.351v0.07L934.1,115v0.07l0.07,0.036,0.07,0.21h0.036v0.07h0.035v0.106h0.035V115.6h0.035v0.175a1.019,1.019,0,0,1-.035.631v0.141h-0.035v0.07H934.28v0.106h-0.036v0.07h-0.035v0.071l-0.07.034v0.071c-0.024.011-.047,0.024-0.071,0.034v0.071l-0.176.141v0.07l-0.6.562a2.9,2.9,0,0,1-.668.632,1.843,1.843,0,0,0,.246.492c0.012,0.046.023,0.093,0.035,0.14l0.071,0.036v0.069c0.023,0.013.046,0.024,0.07,0.036l0.035,0.14,0.07,0.035V119.5l0.106,0.07v0.07l0.07,0.035v0.07l0.106,0.071v0.07l0.105,0.07v0.07l0.106,0.07v0.071l0.211,0.175v0.071l0.071,0.035v0.034l0.105,0.071v0.07l0.352,0.316v0.07c0.117,0.107.235,0.211,0.352,0.316l0.281,0.317h0.071l0.246,0.281h0.071l0.175,0.211h0.071l0.1,0.14h0.071l0.105,0.141H936l0.07,0.1h0.07c0.024,0.035.047,0.071,0.071,0.105h0.07l0.035,0.071,0.106,0.035v0.035h0.07c0.012,0.023.024,0.046,0.035,0.07H936.6c0.012,0.023.023,0.047,0.035,0.07h0.07l0.036,0.07,0.14,0.036,0.036,0.07a2.283,2.283,0,0,1,.492.245,1.683,1.683,0,0,0,.493-0.457q0.317-.3.633-0.6l0.282-.316h0.07l0.071-.105h0.07c0.012-.023.023-0.047,0.035-0.07l0.317-.106v-0.035h0.105V121.6h0.106v-0.035h0.317v-0.035l0.387,0.035a2.576,2.576,0,0,1,1.2.843c0.27,0.258.54,0.514,0.809,0.773,0.071,0.081.141,0.163,0.212,0.245a8.038,8.038,0,0,1,.914.949l0.141,0.1v0.07l0.071,0.035v0.07h0.035v0.071h0.035c0.023,0.07.047,0.14,0.07,0.21h0.036v0.106h0.035v0.14h0.035v0.281h0.035v0.141h-0.035v0.281a3.362,3.362,0,0,1-1.091,1.475,8.261,8.261,0,0,1-1.337,1.265l-0.141.034V128.7h-0.07v0.035l-0.176.035V128.8l-0.211.035v0.035h-0.141v0.035h-0.176v0.035H940.3v0.035a2.1,2.1,0,0,1-.7-0.035h-0.317v-0.035h-0.211v-0.035h-0.211v-0.035h-0.176V128.8h-0.141v-0.035H938.4v-0.035h-0.141V128.7l-0.352-.07v-0.037H937.8v-0.034h-0.07v-0.036h-0.106v-0.034l-0.211-.036v-0.035h-0.07v-0.035h-0.106v-0.035h-0.07v-0.035h-0.106v-0.035h-0.07v-0.035l-0.176-.036v-0.034h-0.07v-0.036l-0.212-.07v-0.035h-0.1V128l-0.211-.071v-0.034h-0.071v-0.035h-0.07V127.82l-0.211-.07c-0.012-.023-0.024-0.047-0.035-0.07h-0.071v-0.035h-0.07V127.61h-0.07v-0.036h-0.071V127.54h-0.07l-0.035-.071H935.37v-0.034H935.3V127.4h-0.071v-0.035h-0.07l-0.035-.07-0.141-.036c-0.011-.023-0.023-0.046-0.035-0.07-0.047-.013-0.094-0.023-0.141-0.035v-0.035c-0.035-.011-0.07-0.024-0.105-0.034-0.012-.025-0.024-0.047-0.035-0.071l-0.141-.036c-0.012-.023-0.024-0.046-0.035-0.069H934.42c-0.012-.024-0.023-0.048-0.035-0.07h-0.07l-0.035-.071h-0.071v-0.035l-0.1-.035-0.036-.07H934c-0.023-.036-0.047-0.07-0.07-0.107h-0.071c-0.012-.022-0.023-0.046-0.035-0.069h-0.07l-0.071-.106h-0.07c-0.012-.023-0.024-0.046-0.035-0.07h-0.071l-0.105-.14h-0.071c-0.023-.035-0.046-0.071-0.07-0.106h-0.07l-0.071-.1h-0.07l-0.141-.176h-0.07c-0.012-.023-0.024-0.047-0.035-0.07h-0.036c-0.011-.023-0.023-0.046-0.035-0.07h-0.07l-0.176-.211h-0.071c-0.093-.106-0.187-0.211-0.281-0.316h-0.07q-0.177-.192-0.352-0.386a6.443,6.443,0,0,1-.739-0.774l-0.282-.245v-0.07l-0.211-.176v-0.07l-0.176-.141v-0.07l-0.176-.14v-0.071l-0.1-.071V122.8l-0.141-.105v-0.071l-0.106-.07v-0.07l-0.105-.07v-0.071c-0.035-.022-0.071-0.046-0.106-0.07V122.2l-0.105-.07v-0.07h-0.036c-0.011-.035-0.023-0.071-0.035-0.106l-0.07-.035v-0.07l-0.106-.07v-0.071l-0.07-.035c-0.012-.035-0.024-0.07-0.035-0.105h-0.035V121.5L929,121.463c-0.012-.047-0.023-0.093-0.035-0.141h-0.035c-0.012-.034-0.024-0.069-0.035-0.105l-0.071-.034c-0.012-.048-0.023-0.1-0.035-0.141-0.023-.012-0.047-0.023-0.07-0.036-0.012-.034-0.024-0.07-0.035-0.105h-0.036c-0.023-.07-0.047-0.139-0.07-0.211l-0.07-.034-0.071-.211-0.07-.035v-0.071h-0.035v-0.07H928.3V120.2h-0.035v-0.071h-0.035c-0.012-.046-0.023-0.092-0.035-0.139h-0.035v-0.071h-0.036v-0.07h-0.035v-0.07h-0.035v-0.071h-0.035v-0.07h-0.035c-0.012-.046-0.024-0.093-0.035-0.14H927.91v-0.071h-0.035v-0.105H927.84c-0.012-.047-0.024-0.093-0.035-0.141H927.77v-0.106h-0.036c-0.011-.046-0.023-0.092-0.035-0.14h-0.035v-0.105h-0.035v-0.07h-0.035c-0.012-.071-0.024-0.141-0.035-0.211h-0.036v-0.07h-0.035c-0.012-.071-0.023-0.14-0.035-0.211a4.993,4.993,0,0,1-.282-3.231l0.036-.211h0.035v-0.07h0.035v-0.07h0.035v-0.071h0.035v-0.07h0.036v-0.07h0.035V114.4c0.023-.012.047-0.023,0.07-0.036V114.3l0.106-.07v-0.07l0.352-.316v-0.035l0.07-.036V113.7c0.188-.174.375-0.351,0.563-0.526a5.312,5.312,0,0,1,.7-0.668l0.07-.105h0.07l0.036-.07h0.07l0.035-.07h0.071v-0.036l0.14-.035v-0.035h0.106v-0.035c0.082-.012.164-0.023,0.246-0.036v-0.034Zm0.141,1.019a0.31,0.31,0,0,1-.176.069c-0.012.024-.023,0.048-0.035,0.071h-0.071l-0.633.667a4.15,4.15,0,0,0-1.267,1.545V115.6a3.915,3.915,0,0,0-.035.983h0.035v0.21h0.035V117h0.036v0.141h0.035v0.141h0.035v0.141h0.035v0.105H928.3v0.14h0.036v0.106h0.035v0.105H928.4v0.106h0.035v0.07h0.035l0.036,0.21h0.035v0.071h0.035v0.105h0.035v0.07h0.035v0.1h0.036c0.011,0.047.023,0.094,0.035,0.141h0.035v0.105h0.035v0.07h0.035c0.012,0.048.024,0.094,0.036,0.14H928.9v0.106h0.035c0.023,0.071.047,0.141,0.07,0.211h0.035v0.07h0.036v0.071h0.035l0.07,0.21,0.07,0.036v0.07h0.036v0.07h0.035v0.071h0.035v0.07h0.035v0.069l0.071,0.036c0.011,0.046.023,0.094,0.035,0.141l0.07,0.034c0.012,0.048.024,0.094,0.035,0.14l0.071,0.037c0.012,0.046.023,0.092,0.035,0.14l0.07,0.034v0.072c0.024,0.011.047,0.023,0.071,0.033v0.071l0.07,0.035v0.071l0.07,0.034v0.071h0.036c0.011,0.036.023,0.07,0.035,0.106l0.07,0.034v0.071l0.071,0.034v0.071l0.105,0.07v0.071l0.071,0.035v0.07l0.105,0.07v0.071l0.106,0.07v0.07l0.105,0.07v0.071l0.141,0.1v0.071l0.106,0.07v0.07l0.175,0.14v0.071l0.176,0.14v0.07l0.212,0.175v0.071l0.316,0.28V123.4l0.282,0.246,0.563,0.6h0.07c0.094,0.1.188,0.21,0.282,0.315h0.07c0.012,0.024.023,0.048,0.035,0.071h0.035c0.036,0.046.071,0.093,0.106,0.14h0.07l0.176,0.211h0.071l0.105,0.14h0.071l0.105,0.14h0.071l0.07,0.106h0.07l0.071,0.105h0.07l0.035,0.071h0.071c0.011,0.023.023,0.045,0.035,0.07,0.035,0.011.07,0.024,0.105,0.034l0.071,0.106h0.07c0.012,0.024.024,0.046,0.035,0.071H934.7c0.011,0.023.023,0.046,0.035,0.07h0.07c0.012,0.023.024,0.046,0.035,0.07h0.071l0.035,0.07,0.141,0.035,0.035,0.071h0.07c0.012,0.023.024,0.046,0.035,0.07H935.3c0.012,0.023.023,0.046,0.035,0.07h0.071v0.036h0.07c0.012,0.022.023,0.046,0.035,0.069l0.211,0.071,0.035,0.069,0.141,0.037c0.012,0.022.024,0.046,0.035,0.07H936v0.034h0.07V126.7h0.07v0.035h0.071v0.035l0.141,0.035c0.011,0.023.023,0.047,0.035,0.07,0.07,0.025.14,0.047,0.211,0.071v0.034h0.07v0.036c0.071,0.024.141,0.046,0.211,0.071v0.034h0.106v0.035h0.07v0.035l0.141,0.036v0.034h0.106v0.036l0.14,0.035v0.035h0.106V127.4h0.07v0.036h0.106v0.034h0.07V127.5c0.071,0.011.141,0.023,0.211,0.036v0.034h0.071v0.036h0.1v0.035h0.106v0.035l0.246,0.035v0.035h0.141v0.035h0.141v0.035h0.141v0.036h0.175v0.035h0.212v0.034h0.316v0.036h0.563v-0.036h0.211v-0.034l0.352-.071v-0.035h0.071V127.75h0.07c0.012-.023.023-0.047,0.035-0.07h0.071c0.011-.024.023-0.047,0.035-0.07h0.07l0.809-.843,0.7-.667a2.446,2.446,0,0,1,.211-0.352v-0.176a0.06,0.06,0,0,0,.036-0.07,1.928,1.928,0,0,0-.739-0.983l-0.176-.21-1.232-1.195a1.084,1.084,0,0,0-.844-0.526h-0.176a1.7,1.7,0,0,0-.563.491l-0.986.948c-0.058.071-.117,0.141-0.176,0.212a1.029,1.029,0,0,1-.668.175v-0.035H937.2v-0.036l-0.211-.07c-0.012-.023-0.023-0.047-0.035-0.07h-0.071v-0.035h-0.07v-0.036h-0.07V124.1h-0.071v-0.035H936.6v-0.036h-0.071v-0.035h-0.07v-0.035h-0.07v-0.036H936.32l-0.035-.069h-0.07c-0.012-.023-0.024-0.047-0.035-0.07h-0.071c-0.011-.024-0.023-0.048-0.035-0.071l-0.141-.035-0.07-.105h-0.07v-0.036l-0.106-.034-0.035-.071h-0.071c-0.023-.035-0.047-0.07-0.07-0.106h-0.07c-0.024-.034-0.047-0.07-0.071-0.105H935.3l-0.106-.14h-0.07l-0.106-.141h-0.07l-0.141-.175h-0.07l-0.211-.246h-0.071l-0.527-.562-0.423-.386V121.5l-0.281-.245v-0.07l-0.211-.177v-0.07c-0.059-.046-0.118-0.093-0.176-0.141v-0.07l-0.106-.069v-0.071l-0.105-.069v-0.071c-0.036-.023-0.071-0.048-0.106-0.07v-0.07c-0.035-.024-0.07-0.048-0.106-0.07v-0.071l-0.07-.036c-0.012-.035-0.023-0.069-0.035-0.105h-0.035v-0.07l-0.071-.035v-0.07l-0.07-.035c-0.012-.047-0.024-0.094-0.035-0.141l-0.071-.035c-0.023-.07-0.046-0.14-0.07-0.211l-0.07-.035c-0.012-.047-0.024-0.093-0.035-0.14h-0.036c-0.023-.071-0.047-0.141-0.07-0.211h-0.035v-0.106h-0.035l-0.036-.14h-0.035a1.338,1.338,0,0,1-.035-0.6,1.881,1.881,0,0,1,.528-0.6l0.105-.14h0.071c0.058-.071.117-0.141,0.176-0.211l0.633-.6v-0.07l0.176-.141a0.945,0.945,0,0,0,.141-0.6c-0.121-.107-0.168-0.306-0.282-0.422l-1.654-1.615a2.542,2.542,0,0,0-.844-0.737h-0.352Zm6.4,1.193a3.7,3.7,0,0,1,1.584.422h0.105v0.035l0.211,0.07v0.035c0.047,0.012.094,0.023,0.141,0.036,0.012,0.023.024,0.046,0.035,0.07L938.96,115v0.035l0.105,0.035c0.012,0.023.024,0.047,0.035,0.07h0.071v0.035l0.1,0.035c0.012,0.024.024,0.047,0.035,0.071h0.071l0.07,0.105h0.071l0.105,0.141H939.7c0.058,0.071.117,0.14,0.175,0.21h0.071l0.211,0.247,0.07,0.034v0.07l0.247,0.211v0.07c0.047,0.035.093,0.071,0.14,0.1,0.012,0.037.024,0.071,0.035,0.107l0.071,0.034v0.07c0.023,0.013.047,0.024,0.07,0.036l0.036,0.105h0.035v0.07l0.07,0.036c0.012,0.046.023,0.093,0.035,0.14,0.024,0.011.047,0.023,0.071,0.036l0.07,0.21,0.07,0.035v0.071h0.036v0.069h0.035V117.6h0.035v0.07h0.035c0.012,0.048.024,0.094,0.035,0.141h0.036v0.1h0.035v0.071h0.035v0.1h0.035V118.2h0.035V118.3h0.035v0.1H941.6c0.011,0.094.023,0.188,0.035,0.281a1.293,1.293,0,0,1,.105.6H941.7c-0.011.058-.023,0.117-0.035,0.175l-0.141.106V119.6a0.832,0.832,0,0,1-.457.07,1.561,1.561,0,0,1-.282-0.246,1.608,1.608,0,0,1-.141-0.562h-0.035v-0.14h-0.035v-0.106h-0.035v-0.1h-0.035v-0.106h-0.035v-0.1h-0.036v-0.07H940.4v-0.105h-0.035c-0.023-.07-0.047-0.14-0.07-0.211h-0.035v-0.07h-0.036l-0.07-.21-0.07-.036-0.036-.14-0.07-.035v-0.071l-0.106-.07v-0.07l-0.07-.035v-0.07L939.663,117v-0.069l-0.352-.317-0.246-.28H939c-0.035-.048-0.071-0.094-0.106-0.141l-0.105-.035-0.036-.071-0.95-.526-0.774-.246-0.352-.035v-0.035H936.6v-0.036a0.507,0.507,0,0,1-.282-0.6c0.064-.054.082-0.152,0.141-0.21S936.618,114.326,936.672,114.263Z" transform="translate(-926.969 -111)"/>
</svg>
