<svg id="map_pin" data-name="map pin" xmlns="http://www.w3.org/2000/svg" width="60" height="67" viewBox="0 0 60 67">
  <defs>
    <style>
      .cls-1 {
        fill: #4ca6b4;
      }

      .cls-1, .cls-2 {
        fill-rule: evenodd;
      }

      .cls-2 {
        fill: #fff;
      }
    </style>
  </defs>
  <path id="Фигура_27" data-name="Фигура 27" class="cls-1" d="M1212.33,713.309l0.16,0.161-7.49,7.521-7.49-7.521,0.16-.161A30,30,0,1,1,1212.33,713.309Z" transform="translate(-1175 -654)"/>
  <path id="W" class="cls-2" d="M1190.88,672.9a0.108,0.108,0,0,0,.04.076h0.01a0.5,0.5,0,0,1,.04.112h0.02c0.01,0.031.01,0.063,0.02,0.094h0.02v0.037h0.02a0.209,0.209,0,0,0,.02.076h0.01v0.056h0.02a0.215,0.215,0,0,1,.02.076h0.02v0.056h0.02a0.21,0.21,0,0,0,.02.075h0.02v0.057h0.01a0.2,0.2,0,0,1,.02.074h0.02l0.06,0.188h0.02v0.038h0.02v0.058h0.01a0.2,0.2,0,0,1,.02.075h0.02v0.056h0.02c0.01,0.025.01,0.05,0.02,0.074h0.02v0.057h0.02v0.037h0.01a0.226,0.226,0,0,1,.02.076h0.02v0.056h0.02c0.01,0.025.01,0.051,0.02,0.076h0.02v0.056h0.02v0.038h0.02v0.056h0.01a0.21,0.21,0,0,1,.02.075h0.02v0.057h0.02c0.01,0.025.01,0.05,0.02,0.075h0.02V674.9h0.02v0.038h0.02v0.056h0.01v0.038h0.02c0.01,0.025.01,0.05,0.02,0.075h0.02v0.057h0.02a0.221,0.221,0,0,0,.02.075h0.02v0.057h0.01v0.037h0.02v0.057h0.02c0.01,0.025.01,0.05,0.02,0.074H1192v0.057h0.02v0.037h0.02v0.057h0.02c0,0.025.01,0.05,0.01,0.075h0.02v0.057h0.02c0.01,0.025.01,0.049,0.02,0.074h0.02v0.058h0.02v0.036h0.02c0,0.026.01,0.051,0.01,0.076h0.02v0.056h0.02c0.01,0.026.01,0.051,0.02,0.076h0.02v0.056h0.02v0.037h0.02a0.215,0.215,0,0,0,.02.076h0.01v0.056h0.02a0.209,0.209,0,0,1,.02.076h0.02v0.056h0.02a0.22,0.22,0,0,0,.02.076h0.02v0.055h0.01a0.22,0.22,0,0,1,.02.076h0.02v0.057h0.02v0.037h0.02c0.01,0.032.01,0.063,0.02,0.1h0.02v0.056h0.02c0,0.025.01,0.049,0.01,0.075h0.02v0.056h0.02c0.01,0.025.01,0.05,0.02,0.075h0.02v0.057h0.02a0.215,0.215,0,0,0,.02.075h0.02v0.058h0.01a0.2,0.2,0,0,1,.02.073h0.02v0.057h0.02c0.01,0.025.01,0.05,0.02,0.076h0.02v0.056h0.02c0,0.025.01,0.05,0.01,0.075h0.02v0.056h0.02v0.038h0.02c0.01,0.025.01,0.05,0.02,0.075h0.02v0.057h0.02a0.21,0.21,0,0,0,.02.075h0.01v0.056h0.02v0.037h0.02v0.058h0.02c0.01,0.024.01,0.05,0.02,0.074h0.02a0.316,0.316,0,0,0,.02.1h0.01v0.056h0.02a0.215,0.215,0,0,1,.02.076h0.02v0.056h0.02v0.037h0.02v0.057h0.02a0.21,0.21,0,0,0,.02.075h0.01V678.7h0.02v0.038h0.02v0.056h0.02c0.01,0.025.01,0.051,0.02,0.076h0.02v0.056h0.02c0,0.025.01,0.05,0.01,0.075h0.02v0.057h0.02c0.01,0.025.01,0.049,0.02,0.075h0.02v0.056h0.02a0.215,0.215,0,0,0,.02.076h0.02v0.056h0.01a0.215,0.215,0,0,1,.02.076h0.02v0.056h0.02c0.01,0.025.01,0.05,0.02,0.075h0.02v0.057h0.02c0,0.025.01,0.049,0.01,0.074h0.02v0.056h0.02c0.01,0.026.01,0.052,0.02,0.076h0.02v0.056h0.02a0.209,0.209,0,0,0,.02.076h0.02v0.057h0.01v0.038h0.02a0.194,0.194,0,0,1,.02.074h0.02v0.057h0.02c0.01,0.024.01,0.05,0.02,0.075h0.02v0.056h0.02c0,0.025.01,0.051,0.01,0.076h0.02v0.056h0.02c0.01,0.025.01,0.05,0.02,0.076h0.02v0.056h0.02v0.037h0.02c0,0.025.01,0.05,0.01,0.075h0.02v0.057h0.02c0.01,0.025.01,0.05,0.02,0.075h0.02v0.056h0.02a0.2,0.2,0,0,0,.02.075h0.02v0.057h0.01a0.22,0.22,0,0,1,.02.076h0.02V681.1h0.02c0.01,0.024.01,0.05,0.02,0.075h0.02v0.056h0.02c0,0.025.01,0.05,0.01,0.075h0.02v0.056h0.02c0.01,0.026.01,0.051,0.02,0.076h0.02V681.5h0.02a0.215,0.215,0,0,0,.02.076h0.02v0.056h0.01a0.209,0.209,0,0,1,.02.076h0.02v0.056h0.02V681.8h0.02v0.056h0.02a0.221,0.221,0,0,0,.02.075h0.02v0.056h0.01a0.21,0.21,0,0,1,.02.075h0.02v0.057h0.02v0.039h0.02v0.056h0.02a0.2,0.2,0,0,0,.02.074h0.01v0.058h0.02v0.037h0.02v0.056h0.02c0.01,0.025.01,0.051,0.02,0.075h0.02v0.056h0.02a0.2,0.2,0,0,0,.02.075h0.01V682.7h0.02a0.2,0.2,0,0,1,.02.074h0.02v0.058h0.02a0.2,0.2,0,0,0,.02.074h0.02v0.056h0.01a0.226,0.226,0,0,1,.02.076h0.02V683.1h0.02c0.01,0.025.01,0.051,0.02,0.075h0.02v0.057h0.02a0.226,0.226,0,0,0,.02.076h0.01v0.055h0.02V683.4h0.02v0.057h0.02c0.01,0.025.01,0.049,0.02,0.075h0.02v0.056h0.02c0,0.025.01,0.051,0.01,0.075h0.02v0.056h0.02c0.01,0.026.01,0.051,0.02,0.076h0.02v0.057h0.02a0.221,0.221,0,0,0,.02.075h0.02v0.056h0.01a0.209,0.209,0,0,1,.02.076h0.02v0.056h0.02c0.01,0.025.01,0.05,0.02,0.074h0.02v0.058h0.02a0.2,0.2,0,0,0,.02.074h0.01v0.058h0.02c0.01,0.024.01,0.049,0.02,0.074h0.02v0.057h0.02a0.21,0.21,0,0,0,.02.075h0.02v0.056h0.01v0.038h0.02v0.057h0.02c0.01,0.024.01,0.05,0.02,0.074h0.02v0.057h0.02a0.2,0.2,0,0,0,.02.075h0.02V685h0.01a0.21,0.21,0,0,1,.02.075h0.02v0.056h0.02c0.01,0.025.01,0.051,0.02,0.076h0.02v0.055h0.02c0,0.026.01,0.052,0.01,0.076h0.02v0.057h0.02c0.01,0.024.01,0.05,0.02,0.075h0.02v0.057h0.02a0.227,0.227,0,0,0,.02.075h0.02v0.056h0.01a0.215,0.215,0,0,1,.02.075h0.02v0.057h0.02c0.01,0.025.01,0.049,0.02,0.075h0.02v0.056h0.02v0.039h0.01v0.055c0.43,0.951.83,1.945,1.26,2.9v0.056h0.02V689h0.01v0.056h0.02c0.01,0.025.01,0.05,0.02,0.075h0.02v0.057h0.02a0.215,0.215,0,0,0,.02.075h0.02v0.056h0.01a0.2,0.2,0,0,1,.02.076h0.02v0.056h0.02c0.01,0.025.01,0.049,0.02,0.075h0.02v0.057h0.02a0.2,0.2,0,0,0,.02.074h0.01v0.057h0.02a0.215,0.215,0,0,1,.02.075h0.02v0.057h0.02a0.21,0.21,0,0,0,.02.075h0.02v0.057h0.01a0.2,0.2,0,0,1,.02.075h0.02v0.055h0.02v0.039h0.02v0.056h0.02a0.2,0.2,0,0,0,.02.075h0.02v0.057h0.01a0.21,0.21,0,0,1,.02.075h0.02v0.056h0.02c0.01,0.026.01,0.051,0.02,0.076h0.02V690.6h0.02c0,0.026.01,0.05,0.01,0.075h0.02v0.056h0.02c0.01,0.025.01,0.051,0.02,0.076h0.02v0.057h0.02a0.215,0.215,0,0,0,.02.075h0.02V691h0.01a0.21,0.21,0,0,1,.02.075h0.02v0.057h0.02c0.01,0.025.01,0.05,0.02,0.075h0.02v0.056h0.02a0.215,0.215,0,0,0,.02.076h0.01v0.056h0.02v0.038h0.02v0.057h0.02c0.01,0.023.01,0.048,0.02,0.075h0.02v0.056h0.02c0,0.025.01,0.05,0.01,0.075h0.02v0.056h0.02c0.01,0.026.01,0.051,0.02,0.075h0.02v0.057h0.02a0.22,0.22,0,0,0,.02.076h0.02v0.056H1199a0.2,0.2,0,0,1,.02.075h0.02v0.055h0.02c0.01,0.027.01,0.051,0.02,0.076h0.02v0.057h0.02c0,0.026.01,0.05,0.01,0.075h0.02v0.056h0.02c0.01,0.025.01,0.052,0.02,0.076h0.02v0.056h0.02v0.038h0.02v0.057h0.02c0,0.024.01,0.049,0.01,0.075h0.02v0.055h0.02c0.01,0.025.01,0.051,0.02,0.076h0.02V692.9h0.02a0.22,0.22,0,0,0,.02.076h0.01v0.056h0.02a0.209,0.209,0,0,1,.02.076h0.02v0.056h0.02c0.01,0.025.01,0.05,0.02,0.075h0.02v0.056h0.02c0,0.026.01,0.05,0.01,0.075h0.02v0.057h0.02c0.01,0.025.01,0.05,0.02,0.075h0.02v0.057h0.02a0.215,0.215,0,0,0,.02.075h0.02v0.056h0.01a0.215,0.215,0,0,1,.02.075h0.02v0.057h0.02v0.038h0.02a0.21,0.21,0,0,0,.02.075h0.02v0.056h0.01v0.038h0.02v0.056h0.02c0.01,0.038.03,0.076,0.04,0.114h0.02v0.038h0.02v0.036h0.02v0.057h0.01v0.037h0.02V694.4h0.02v0.037h0.02l0.09,0.283c0.02-.016.01,0,0.02-0.019h0.02c0.01-.025.01-0.05,0.02-0.076h0.02v-0.038h0.02V694.55h0.02v-0.057h0.01v-0.056h0.02V694.4h0.02v-0.056h0.02c0.01-.025.01-0.05,0.02-0.076h0.02a0.31,0.31,0,0,1,.02-0.093h0.02v-0.057h0.01a0.209,0.209,0,0,0,.02-0.076h0.02V694h0.02v-0.056h0.02a0.2,0.2,0,0,1,.02-0.074h0.02v-0.057h0.01a0.216,0.216,0,0,0,.02-0.074h0.02v-0.058h0.02c0.01-.025.01-0.049,0.02-0.074h0.02v-0.057h0.02v-0.038h0.02c0-.024.01-0.05,0.01-0.075h0.02v-0.057h0.02c0.01-.025.01-0.05,0.02-0.074h0.02v-0.057h0.02a0.21,0.21,0,0,1,.02-0.075h0.01v-0.056h0.02v-0.039h0.02c0.01-.024.01-0.049,0.02-0.075h0.02v-0.056h0.02a0.215,0.215,0,0,1,.02-0.075h0.02V692.82h0.01v-0.036H1201v-0.058h0.02c0.01-.025.01-0.05,0.02-0.074h0.02v-0.058h0.02a0.2,0.2,0,0,1,.02-0.074h0.01v-0.058h0.02v-0.037h0.02v-0.056h0.02v-0.037h0.02c0.01-.031.01-0.064,0.02-0.1h0.02v-0.056h0.02v-0.039h0.01v-0.055h0.02v-0.038h0.02v-0.056h0.02v-0.037h0.02V691.9h0.02v-0.037h0.02V691.8h0.01a0.21,0.21,0,0,0,.02-0.075h0.02v-0.057h0.02v-0.036h0.02v-0.057h0.02a0.21,0.21,0,0,1,.02-0.075h0.02v-0.056h0.01v-0.037h0.02v-0.059c0.43-.945.83-1.928,1.25-2.876v-0.057h0.02v-0.037h0.02v-0.056h0.02c0.01-.026.01-0.051,0.02-0.076h0.02v-0.056h0.02a0.2,0.2,0,0,1,.02-0.075h0.01v-0.057h0.02v-0.038H1203v-0.055h0.02c0.01-.026.01-0.051,0.02-0.076h0.02v-0.057h0.02c0-.025.01-0.049,0.01-0.075h0.02v-0.056h0.02v-0.038h0.02v-0.056h0.02c0.01-.025.01-0.05,0.02-0.075h0.02v-0.057h0.02c0-.024.01-0.05,0.01-0.075h0.02v-0.056h0.02c0.01-.025.01-0.051,0.02-0.076h0.02v-0.056h0.02v-0.037h0.02v-0.058h0.01a0.2,0.2,0,0,0,.02-0.074h0.02v-0.058h0.02c0.01-.024.01-0.049,0.02-0.074h0.02v-0.056h0.02a0.209,0.209,0,0,1,.02-0.076h0.01v-0.056h0.02a0.209,0.209,0,0,0,.02-0.076h0.02V686.6h0.02c0.01-.031.01-0.062,0.02-0.093h0.02a0.2,0.2,0,0,1,.02-0.076h0.01v-0.057h0.02a0.2,0.2,0,0,0,.02-0.075h0.02v-0.056h0.02a0.21,0.21,0,0,1,.02-0.075h0.02v-0.056h0.01a0.22,0.22,0,0,0,.02-0.076h0.02v-0.037h0.02v-0.057h0.02c0.01-.025.01-0.05,0.02-0.075h0.02v-0.057h0.02c0-.025.01-0.05,0.01-0.075h0.02v-0.057h0.02c0.01-.025.01-0.05,0.02-0.074h0.02v-0.058h0.02v-0.036h0.02v-0.038h0.01v-0.038h0.02a0.31,0.31,0,0,0,.02-0.094h0.02v-0.056h0.02c0.01-.025.01-0.05,0.02-0.075h0.02v-0.057h0.02v-0.038h0.01v-0.056h0.02a0.468,0.468,0,0,0,.06-0.245h-0.02v-0.056h-0.02a0.21,0.21,0,0,0-.02-0.075h-0.02V684.62h-0.01a0.2,0.2,0,0,1-.02-0.075h-0.02v-0.056h-0.02c-0.01-.025-0.01-0.05-0.02-0.075h-0.02v-0.057h-0.02a0.215,0.215,0,0,0-.02-0.075h-0.01v-0.057h-0.02c-0.01-.024-0.01-0.049-0.02-0.075h-0.02v-0.056h-0.02v-0.037h-0.02a0.209,0.209,0,0,0-.02-0.076h-0.01v-0.056h-0.02a0.221,0.221,0,0,1-.02-0.075h-0.02v-0.057h-0.02c-0.01-.025-0.01-0.05-0.02-0.076h-0.02v-0.056h-0.02c0-.024-0.01-0.05-0.01-0.075h-0.02V683.53h-0.02c-0.01-.026-0.01-0.05-0.02-0.075h-0.02V683.4h-0.02a0.22,0.22,0,0,0-.02-0.076h-0.01v-0.055h-0.02a0.215,0.215,0,0,1-.02-0.076h-0.02v-0.056h-0.02c-0.01-.025-0.01-0.05-0.02-0.075h-0.02V683h-0.02c0-.025-0.01-0.049-0.01-0.075h-0.02v-0.056h-0.02c-0.01-.025-0.01-0.051-0.02-0.075h-0.02V682.74h-0.02a0.2,0.2,0,0,0-.02-0.075h-0.02v-0.057h-0.01a0.209,0.209,0,0,1-.02-0.076h-0.02v-0.055h-0.02c-0.01-.026-0.01-0.051-0.02-0.076h-0.02v-0.055h-0.02c0-.027-0.01-0.051-0.01-0.076h-0.02v-0.056h-0.02c-0.01-.025-0.01-0.051-0.02-0.076h-0.02v-0.056h-0.02a0.2,0.2,0,0,0-.02-0.075h-0.02V681.95h-0.01a0.21,0.21,0,0,1-.02-0.075h-0.02v-0.057h-0.02c-0.01-.025-0.01-0.049-0.02-0.075h-0.02v-0.057h-0.02c0-.024-0.01-0.05-0.01-0.074h-0.02v-0.057h-0.02c-0.01-.025-0.01-0.05-0.02-0.075h-0.02v-0.057h-0.02a0.221,0.221,0,0,0-.02-0.075h-0.02v-0.057h-0.01v-0.037h-0.02a0.21,0.21,0,0,1-.02-0.075h-0.02v-0.056h-0.02c-0.01-.026-0.01-0.051-0.02-0.075h-0.02V680.99h-0.01a0.2,0.2,0,0,1-.02-0.075h-0.02v-0.056h-0.02c-0.01-.024-0.01-0.05-0.02-0.075h-0.02v-0.056h-0.02a0.22,0.22,0,0,0-.02-0.076h-0.01V680.6h-0.02v-0.038h-0.02c-0.01-.025-0.01-0.049-0.02-0.074h-0.02v-0.058h-0.02v-0.037h-0.02v-0.057h-0.01a0.21,0.21,0,0,1-.02-0.074h-0.02V680.2h-0.02c-0.01-.025-0.01-0.049-0.02-0.074h-0.02v-0.057h-0.02a0.194,0.194,0,0,0-.02-0.074h-0.01v-0.057h-0.02a0.215,0.215,0,0,1-.02-0.075h-0.02v-0.057h-0.02c-0.01-.025-0.01-0.05-0.02-0.075h-0.02v-0.057h-0.02v-0.037h-0.01v-0.056h-0.02c-0.01-.027-0.01-0.052-0.02-0.075h-0.02v-0.057h-0.02a0.215,0.215,0,0,0-.02-0.076h-0.02v-0.056h-0.01a0.2,0.2,0,0,1-.02-0.075h-0.02v-0.057h-0.02v-0.037h-0.02v-0.057c-0.48-1.079-.92-2.207-1.4-3.291v-0.056h-0.02c-0.01-.026-0.01-0.051-0.02-0.075h-0.02v-0.057h-0.01a0.215,0.215,0,0,1-.02-0.076h-0.02V675.48h-0.02v-0.037h-0.02v-0.056h-0.02a0.209,0.209,0,0,0-.02-0.076h-0.02v-0.056h-0.01v-0.038h-0.02v-0.056h-0.02c-0.01-.025-0.01-0.051-0.02-0.075h-0.02v-0.057h-0.02a0.21,0.21,0,0,0-.02-0.075h-0.02a1.273,1.273,0,0,0-.05-0.188h-0.02v-0.038h-0.02v-0.056h-0.02v-0.038h-0.02v-0.056h-0.01a0.215,0.215,0,0,1-.02-0.076h-0.02v-0.056h-0.02v-0.038h-0.02v-0.056h-0.02a0.226,0.226,0,0,0-.02-0.076h-0.02v-0.055h-0.01a0.215,0.215,0,0,1-.02-0.076h-0.02v-0.056h-0.02v-0.037h-0.02v-0.058h-0.02v-0.037h-0.02V673.9h-0.01v-0.038h-0.02v-0.055h-0.02v-0.038h-0.02c-0.01-.032-0.01-0.063-0.02-0.094h-0.02v-0.056h-0.02c-0.02-.089-0.03-0.176-0.05-0.264h0.02v-0.114h0.01v-0.055h0.02v-0.057h0.02a0.344,0.344,0,0,1,.17-0.263,0.677,0.677,0,0,1,.37-0.037,0.765,0.765,0,0,1,.4.057c0,0.012.01,0.024,0.01,0.036a0.7,0.7,0,0,1,.12.133v0.037h0.02v0.037h0.01v0.038h0.02V673.2h0.02v0.037h0.02V673.3h0.02v0.037h0.02a0.22,0.22,0,0,0,.02.076h0.01a0.31,0.31,0,0,1,.02.094h0.02v0.056h0.02c0.01,0.026.01,0.05,0.02,0.075h0.02v0.056h0.02v0.039h0.02c0,0.03.01,0.062,0.01,0.093H1201v0.056h0.02v0.038h0.02v0.058h0.02v0.036h0.02v0.057h0.02c0,0.025.01,0.05,0.01,0.075h0.02V674.2h0.02c0.01,0.025.01,0.049,0.02,0.074h0.02v0.057h0.02a0.2,0.2,0,0,0,.02.075h0.02v0.057h0.01a0.21,0.21,0,0,1,.02.075h0.02V674.6h0.02c0.01,0.025.01,0.05,0.02,0.075h0.02v0.056h0.02v0.038h0.01v0.056h0.02v0.037h0.02v0.057h0.02c0.01,0.025.01,0.05,0.02,0.075h0.02v0.057h0.02a0.2,0.2,0,0,0,.02.075h0.01v0.056h0.02a0.22,0.22,0,0,1,.02.076h0.02v0.056h0.02c0.01,0.025.01,0.05,0.02,0.076h0.02v0.056h0.02c0,0.024.01,0.05,0.01,0.075h0.02v0.056h0.02c0.01,0.025.01,0.05,0.02,0.076h0.02v0.057h0.02a0.227,0.227,0,0,0,.02.075h0.01v0.056h0.02v0.038h0.02v0.056h0.02c0.01,0.025.01,0.05,0.02,0.075h0.02v0.056h0.02a0.22,0.22,0,0,0,.02.076h0.01V676.2h0.02a0.2,0.2,0,0,1,.02.075h0.02v0.057h0.02c0.01,0.026.01,0.049,0.02,0.074h0.02v0.058h0.01a0.21,0.21,0,0,1,.02.074h0.02v0.056h0.02v0.038h0.02v0.057h0.02a0.21,0.21,0,0,0,.02.075h0.02v0.056h0.01a0.215,0.215,0,0,1,.02.076h0.02v0.056h0.02c0.01,0.025.01,0.05,0.02,0.075h0.02v0.056h0.02a0.2,0.2,0,0,0,.02.076h0.01v0.057h0.02c0.01,0.025.01,0.05,0.02,0.075h0.02v0.057h0.02a0.215,0.215,0,0,0,.02.075h0.02v0.056h0.01v0.037h0.02v0.057h0.02c0.01,0.025.01,0.05,0.02,0.075h0.02V677.7h0.02a0.21,0.21,0,0,0,.02.075h0.02v0.056h0.01a0.215,0.215,0,0,1,.02.076h0.02v0.056h0.02c0.01,0.025.01,0.049,0.02,0.075h0.02V678.1h0.02c0,0.024.01,0.05,0.01,0.074h0.02v0.056h0.02c0.01,0.026.01,0.051,0.02,0.076h0.02v0.058h0.02V678.4h0.02v0.056h0.02c0,0.025.01,0.05,0.01,0.075h0.02v0.057H1203c0.01,0.025.01,0.049,0.02,0.074h0.02v0.056h0.02a0.209,0.209,0,0,0,.02.076h0.01v0.056h0.02a0.215,0.215,0,0,1,.02.076h0.02v0.056h0.02c0.01,0.025.01,0.05,0.02,0.076h0.02v0.056h0.02v0.038h0.01V679.2h0.02a0.21,0.21,0,0,1,.02.075h0.02v0.056h0.02c0.01,0.025.01,0.051,0.02,0.076h0.02v0.056h0.01a0.209,0.209,0,0,1,.02.076h0.02V679.6h0.02c0.01,0.025.01,0.05,0.02,0.075h0.02v0.057h0.02a0.21,0.21,0,0,0,.02.075h0.01v0.057h0.02a0.2,0.2,0,0,1,.02.075h0.02V680h0.02v0.037h0.02v0.056c0.65,1.459,1.25,2.982,1.9,4.439v0.056h0.02c0.01,0.025.01,0.051,0.02,0.076h0.02v0.055h0.02a0.2,0.2,0,0,0,.02.075h0.02v0.058h0.01v0.037h0.02a0.21,0.21,0,0,1,.02.075h0.02v0.056h0.02a0.2,0.2,0,0,0,.02.075h0.02v0.057h0.01a0.216,0.216,0,0,1,.02.074h0.02v0.058h0.02v0.037h0.02v0.057h0.02a0.22,0.22,0,0,0,.02.076h0.02v0.056h0.01v0.036h0.02a0.329,0.329,0,0,1,.02.1h0.02v0.056h0.02v0.037h0.02v0.057h0.02v0.038h0.01v0.055h0.02a0.214,0.214,0,0,1,.02.077h0.02v0.055h0.02v0.038h0.02a0.337,0.337,0,0,0,.02.1h0.02V686.2h0.01a0.209,0.209,0,0,1,.02.076h0.02v0.055h0.02v0.038h0.02v0.057h0.02a0.226,0.226,0,0,0,.02.076h0.02v0.056h0.01a0.2,0.2,0,0,1,.02.075h0.02v0.057h0.02c0.01,0.025.01,0.049,0.02,0.074h0.02v0.057h0.02v0.038h0.01a0.21,0.21,0,0,1,.02.075h0.02v0.055h0.02c0.01,0.026.01,0.052,0.02,0.077h0.02v0.055h0.02a0.209,0.209,0,0,0,.02.076h0.01v0.056h0.02v0.038h0.02c0.01,0.025.01,0.05,0.02,0.076h0.02v0.055h0.02a0.215,0.215,0,0,0,.02.076h0.01v0.056h0.02v0.038h0.02c0.01,0.025.01,0.05,0.02,0.075h0.02v0.057h0.02a0.2,0.2,0,0,0,.02.074h0.02v0.058h0.01a0.21,0.21,0,0,1,.02.074h0.02v0.056h0.02c0.01,0.027.01,0.051,0.02,0.076h0.02v0.057h0.02c0,0.024.01,0.049,0.01,0.075h0.02v0.056h0.02c0.01,0.025.01,0.05,0.02,0.076h0.02v0.056h0.02v0.037h0.02v0.057h0.02c0,0.026.01,0.051,0.01,0.075h0.02v0.056h0.02v0.038h0.02V688.7h0.02c0.01,0.026.01,0.051,0.02,0.076h0.02v0.057h0.02c0,0.024.01,0.049,0.01,0.075h0.02v0.056h0.02c0.01,0.025.01,0.05,0.02,0.075h0.02V689.1h0.02a0.209,0.209,0,0,0,.02.076h0.01v0.057h0.02a0.2,0.2,0,0,1,.02.075h0.02v0.056h0.02c0.01,0.025.01,0.05,0.02,0.075h0.02v0.056h0.02c0,0.026.01,0.05,0.01,0.075h0.02v0.058h0.02v0.036h0.02v0.057h0.02a0.2,0.2,0,0,0,.02.075h0.02v0.057h0.01a0.21,0.21,0,0,1,.02.075h0.02v0.057h0.02c0.01,0.025.01,0.049,0.02,0.075h0.02v0.055h0.02a0.2,0.2,0,0,0,.02.076h0.01v0.056h0.02a0.22,0.22,0,0,1,.02.076h0.02v0.057h0.02c0.01,0.025.01,0.05,0.02,0.075h0.02v0.056h0.01v0.038h0.02V690.6h0.02c0.01,0.026.01,0.05,0.02,0.075h0.02v0.056h0.02a0.215,0.215,0,0,0,.02.076h0.02v0.057h0.01a0.2,0.2,0,0,1,.02.075h0.02V691h0.02c0.01,0.025.01,0.05,0.02,0.075h0.02v0.057h0.02a0.21,0.21,0,0,0,.02.075h0.01v0.056h0.02a0.215,0.215,0,0,1,.02.076h0.02v0.056h0.02a0.21,0.21,0,0,0,.02.075h0.02v0.057h0.01v0.038h0.02v0.056h0.02c0.01,0.025.01,0.05,0.02,0.075h0.02v0.056h0.02a0.2,0.2,0,0,0,.02.075h0.02v0.057h0.01a0.209,0.209,0,0,1,.02.076h0.02v0.056h0.02c0.01,0.024.01,0.05,0.02,0.075h0.02v0.055h0.02c0,0.027.01,0.051,0.01,0.076h0.02v0.057h0.02c0.01,0.026.01,0.05,0.02,0.075h0.02v0.056h0.02a0.209,0.209,0,0,0,.02.076h0.02v0.056h0.01a0.215,0.215,0,0,1,.02.075h0.02v0.057h0.02c0.01,0.025.01,0.049,0.02,0.075H1209V692.8h0.02c0,0.024.01,0.05,0.01,0.075h0.02v0.056h0.02c0.01,0.025.01,0.05,0.02,0.075h0.02v0.057h0.02a0.21,0.21,0,0,0,.02.075h0.02V693.2h0.01a0.21,0.21,0,0,1,.02.075h0.02v0.056h0.02c0.01,0.026.01,0.05,0.02,0.075h0.02v0.057h0.02a0.21,0.21,0,0,0,.02.075h0.01v0.056h0.02v0.038h0.02c0.01,0.024.01,0.051,0.02,0.075h0.02v0.056h0.02V693.8h0.02c0,0.026.01,0.05,0.01,0.076h0.02v0.056h0.02c0.01,0.025.01,0.05,0.02,0.074h0.02v0.058h0.02a0.215,0.215,0,0,0,.02.075h0.02v0.057h0.01a0.2,0.2,0,0,1,.02.074h0.02v0.057h0.02v0.037h0.02v0.057h0.02v0.038h0.02a0.613,0.613,0,0,0,.09.244v-0.018a0.436,0.436,0,0,0,.11-0.19v-0.056h0.02c0.01-.025.01-0.049,0.02-0.075h0.02v-0.056h0.02a0.2,0.2,0,0,1,.02-0.074h0.01v-0.057h0.02c0.01-.026.01-0.051,0.02-0.075h0.02v-0.058h0.02V694h0.02v-0.056h0.02c0-.025.01-0.05,0.01-0.074h0.02v-0.057h0.02c0.01-.026.01-0.05,0.02-0.074h0.02v-0.058h0.02a0.2,0.2,0,0,1,.02-0.074h0.02v-0.057h0.01a0.21,0.21,0,0,0,.02-0.075h0.02v-0.057h0.02c0.01-.025.01-0.05,0.02-0.075h0.02V693.29h0.02c0-.025.01-0.05,0.01-0.075h0.02v-0.056h0.02c0.01-.025.01-0.051,0.02-0.076h0.02v-0.056h0.02a0.21,0.21,0,0,1,.02-0.075h0.02V692.9h0.01v-0.037h0.02V692.8h0.02c0.01-.025.01-0.051,0.02-0.076h0.02V692.67h0.02a0.215,0.215,0,0,1,.02-0.076h0.01v-0.056h0.02V692.5h0.02v-0.057h0.02c0.01-.031.01-0.062,0.02-0.094h0.02l-0.06-.169h-0.02v-0.056h-0.02c0-.025-0.01-0.051-0.01-0.076h-0.02c-0.01-.031-0.01-0.062-0.02-0.093h-0.02V691.9h-0.02a0.221,0.221,0,0,0-.02-0.075h-0.02v-0.056h-0.01a0.21,0.21,0,0,1-.02-0.075h-0.02v-0.056h-0.02V691.6h-0.02c-0.01-.026-0.01-0.051-0.02-0.075h-0.02v-0.057h-0.02c0-.025-0.01-0.05-0.01-0.075h-0.02v-0.056h-0.02c-0.01-.025-0.01-0.051-0.02-0.076h-0.02V691.2h-0.02v-0.037h-0.02c0-.026-0.01-0.05-0.01-0.076h-0.02v-0.056h-0.02c-0.01-.025-0.01-0.05-0.02-0.076h-0.02V690.9h-0.02v-0.037h-0.02a0.22,0.22,0,0,0-.02-0.076h-0.01v-0.057h-0.02V690.7h-0.02c-0.01-.025-0.01-0.05-0.02-0.074h-0.02v-0.058h-0.02a0.215,0.215,0,0,0-.02-0.075h-0.01v-0.056h-0.02a0.215,0.215,0,0,1-.02-0.075h-0.02V690.3h-0.02c-0.01-.026-0.01-0.051-0.02-0.076h-0.02v-0.056h-0.02c0-.025-0.01-0.051-0.01-0.076h-0.02l-0.06-.188h-0.02v-0.037h-0.02v-0.056h-0.02c0-.026-0.01-0.051-0.01-0.077h-0.02V689.68h-0.02c-0.01-.025-0.01-0.051-0.02-0.076h-0.02v-0.056h-0.02a0.21,0.21,0,0,0-.02-0.075h-0.01v-0.057h-0.02a0.21,0.21,0,0,1-.02-0.075h-0.02v-0.057h-0.02c-0.01-.024-0.01-0.05-0.02-0.074h-0.02v-0.058h-0.02c0-.025-0.01-0.049-0.01-0.074h-0.02V689.02h-0.02c-0.01-.024-0.01-0.048-0.02-0.074h-0.02V688.89h-0.02a0.2,0.2,0,0,0-.02-0.075h-0.01v-0.056h-0.02v-0.038h-0.02v-0.058h-0.02c-0.01-.024-0.01-0.049-0.02-0.074h-0.02v-0.057h-0.02a0.21,0.21,0,0,0-.02-0.075h-0.01V688.4h-0.02a0.215,0.215,0,0,1-.02-0.075h-0.02V688.27h-0.02c-0.01-.026-0.01-0.051-0.02-0.076h-0.02v-0.056h-0.02c0-.025-0.01-0.051-0.01-0.076H1209v-0.057h-0.02c-0.01-.024-0.01-0.05-0.02-0.075h-0.02v-0.056h-0.02a0.22,0.22,0,0,0-.02-0.076h-0.01v-0.056h-0.02a0.21,0.21,0,0,1-.02-0.075h-0.02v-0.056h-0.02c-0.01-.025-0.01-0.05-0.02-0.075h-0.02v-0.057h-0.02c0-.024-0.01-0.05-0.01-0.075h-0.02v-0.056h-0.02V687.31h-0.02v-0.057c-0.74-1.663-1.42-3.394-2.17-5.058v-0.057h-0.02V682.1h-0.01v-0.056h-0.02a0.2,0.2,0,0,1-.02-0.076h-0.02v-0.056h-0.02c-0.01-.026-0.01-0.049-0.02-0.075h-0.02V681.78h-0.01a0.21,0.21,0,0,1-.02-0.074h-0.02v-0.057h-0.02c-0.01-.025-0.01-0.05-0.02-0.075h-0.02v-0.057h-0.02a0.21,0.21,0,0,0-.02-0.075h-0.01v-0.056h-0.02v-0.038h-0.02v-0.057h-0.02c-0.01-.024-0.01-0.049-0.02-0.074h-0.02v-0.056h-0.02v-0.038h-0.02v-0.057h-0.01a0.209,0.209,0,0,1-.02-0.076h-0.02v-0.055h-0.02c-0.01-.025-0.01-0.051-0.02-0.076h-0.02V680.8h-0.02c0-.027-0.01-0.051-0.01-0.076h-0.02v-0.057h-0.02c-0.01-.025-0.01-0.05-0.02-0.075h-0.02V680.54h-0.02a0.209,0.209,0,0,0-.02-0.076h-0.02v-0.056h-0.01a0.215,0.215,0,0,1-.02-0.076h-0.02v-0.056h-0.02c-0.01-.025-0.01-0.049-0.02-0.076h-0.02v-0.055h-0.02v-0.038h-0.01v-0.056h-0.02a0.21,0.21,0,0,1-.02-0.075h-0.02v-0.057h-0.02c-0.01-.025-0.01-0.05-0.02-0.076h-0.02v-0.056h-0.02v-0.038h-0.01v-0.056h-0.02a0.2,0.2,0,0,1-.02-0.075h-0.02v-0.056h-0.02c-0.01-.025-0.01-0.051-0.02-0.076h-0.02V679.43h-0.01a0.21,0.21,0,0,1-.02-0.075h-0.02V679.3h-0.02c-0.01-.025-0.01-0.05-0.02-0.075h-0.02v-0.057h-0.02a0.215,0.215,0,0,0-.02-0.075h-0.01v-0.055h-0.02a0.226,0.226,0,0,1-.02-0.076h-0.02V678.9h-0.02c-0.01-.026-0.01-0.051-0.02-0.075h-0.02v-0.057h-0.02c0-.025-0.01-0.05-0.01-0.076h-0.02V678.64h-0.02c-0.01-.025-0.01-0.05-0.02-0.075h-0.02v-0.057h-0.02a0.21,0.21,0,0,0-.02-0.075h-0.01v-0.056h-0.02a0.215,0.215,0,0,1-.02-0.076h-0.02v-0.056h-0.02c-0.01-.024-0.01-0.05-0.02-0.076h-0.02v-0.055h-0.02c0-.026-0.01-0.05-0.01-0.076h-0.02v-0.057h-0.02c-0.01-.024-0.01-0.049-0.02-0.074h-0.02V677.85h-0.02a0.21,0.21,0,0,0-.02-0.075h-0.01v-0.057h-0.02a0.21,0.21,0,0,1-.02-0.075h-0.02v-0.056h-0.02v-0.038h-0.02v-0.056h-0.02a0.21,0.21,0,0,0-.02-0.075h-0.01v-0.057h-0.02v-0.036h-0.02v-0.058h-0.02c-0.01-.026-0.01-0.05-0.02-0.075h-0.02v-0.057h-0.02V677.1h-0.01a0.31,0.31,0,0,1-.02-0.094h-0.02v-0.057c-0.41-.909-0.76-1.872-1.16-2.783v-0.056h-0.02c-0.01-.026-0.01-0.051-0.02-0.076h-0.02v-0.055h-0.02c0-.026-0.01-0.052-0.01-0.077h-0.02v-0.056h-0.02v-0.037h-0.02V673.75H1203v-0.038h-0.02v-0.056h-0.02V673.6h-0.01v-0.076h-0.02a0.76,0.76,0,0,1,.05-0.413v-0.056H1203v-0.038h0.02a0.206,0.206,0,0,1,.13-0.151,1.267,1.267,0,0,1,.51-0.037h0.14v0.019c0.04,0,.07.012,0.1,0.018a0.331,0.331,0,0,1,.05.076h0.02v0.038a0.107,0.107,0,0,1,.04.018c0.01,0.037.03,0.075,0.04,0.113h0.02v0.037h0.01v0.038h0.02a0.492,0.492,0,0,1,.04.113h0.02v0.056h0.02v0.038h0.02v0.057h0.02v0.037h0.01v0.056h0.02a0.215,0.215,0,0,1,.02.076h0.02v0.056h0.02c0.01,0.026.01,0.05,0.02,0.075h0.02v0.057h0.02c0,0.025.01,0.05,0.01,0.074h0.02v0.058h0.02c0.01,0.024.01,0.05,0.02,0.074h0.02v0.057h0.02a0.21,0.21,0,0,0,.02.075h0.01V674.2h0.02v0.037h0.02V674.3h0.02c0.01,0.024.01,0.05,0.02,0.074h0.02v0.057h0.02a0.2,0.2,0,0,0,.02.075h0.01v0.058h0.02a0.2,0.2,0,0,1,.02.074h0.02v0.056h0.02a0.209,0.209,0,0,0,.02.076h0.02v0.056h0.01a0.215,0.215,0,0,1,.02.075h0.02v0.057h0.02v0.037h0.02v0.057h0.02a0.2,0.2,0,0,0,.02.075h0.02v0.056h0.01a0.22,0.22,0,0,1,.02.076h0.02v0.056H1205c0.01,0.025.01,0.05,0.02,0.076h0.02v0.056h0.02c0,0.024.01,0.05,0.01,0.075h0.02v0.056h0.02c0.01,0.025.01,0.05,0.02,0.076h0.02v0.057h0.02v0.037h0.02V675.8h0.02c0,0.025.01,0.05,0.01,0.076h0.02v0.056h0.02c0.01,0.025.01,0.05,0.02,0.075h0.02v0.056h0.02a0.22,0.22,0,0,0,.02.076h0.02V676.2h0.01a0.2,0.2,0,0,1,.02.075h0.02v0.057h0.02c0.01,0.026.01,0.049,0.02,0.074h0.02v0.058h0.02V676.5h0.01v0.057h0.02a0.2,0.2,0,0,1,.02.074h0.02v0.057h0.02c0.01,0.025.01,0.05,0.02,0.075h0.02v0.056h0.02c0,0.026.01,0.05,0.01,0.076h0.02v0.056h0.02c0.01,0.025.01,0.05,0.02,0.075h0.02v0.056h0.02a0.2,0.2,0,0,0,.02.076h0.01v0.057h0.02v0.038h0.02V677.3h0.02c0.01,0.025.01,0.051,0.02,0.076h0.02v0.055h0.02a0.209,0.209,0,0,0,.02.076h0.01v0.057h0.02a0.21,0.21,0,0,1,.02.075h0.02V677.7h0.02c0.01,0.025.01,0.05,0.02,0.075h0.02v0.056h0.01a0.215,0.215,0,0,1,.02.076h0.02v0.056h0.02c0.01,0.025.01,0.049,0.02,0.075h0.02V678.1h0.02v0.037h0.02v0.056h0.01v0.037h0.02v0.058h0.02c0.01,0.025.01,0.049,0.02,0.076h0.02v0.056h0.02v0.037h0.02v0.056h0.02v0.037h0.01V678.6h0.02v0.038h0.02l0.06,0.189h0.02c0,0.024.01,0.049,0.01,0.075h0.02v0.056h0.02V679h0.02c0.01,0.025.01,0.05,0.02,0.076h0.02v0.056h0.02a0.777,0.777,0,0,1,.05.15c0.02-.016.01,0,0.02-0.018h0.02V679.2h0.02a0.21,0.21,0,0,1,.02-0.075h0.02v-0.056h0.01a0.22,0.22,0,0,0,.02-0.076h0.02v-0.056h0.02c0.01-.025.01-0.05,0.02-0.075h0.02v-0.057h0.02a0.21,0.21,0,0,1,.02-0.075h0.01v-0.057h0.02a0.21,0.21,0,0,0,.02-0.075h0.02v-0.057H1207c0.01-.025.01-0.049,0.02-0.074h0.02v-0.056h0.01v-0.038h0.02v-0.056h0.02c0.01-.026.01-0.051,0.02-0.076h0.02v-0.057h0.02a0.2,0.2,0,0,1,.02-0.074h0.02v-0.058h0.01a0.21,0.21,0,0,0,.02-0.075h0.02v-0.056h0.02c0.01-.025.01-0.05,0.02-0.075h0.02v-0.056c0.49-1.1.94-2.248,1.44-3.348V674.39h0.01a0.215,0.215,0,0,0,.02-0.076h0.02v-0.056h0.02c0.01-.025.01-0.051,0.02-0.076h0.02v-0.056h0.02a0.2,0.2,0,0,1,.02-0.074h0.01v-0.058h0.02v-0.037h0.02V673.9h0.02c0.01-.024.01-0.05,0.02-0.075H1209v-0.056h0.02c0-.025.01-0.05,0.01-0.076h0.02v-0.056h0.02c0.01-.025.01-0.049,0.02-0.075h0.02v-0.056h0.02v-0.038h0.02v-0.056h0.02c0-.026.01-0.051,0.01-0.076h0.02V673.28h0.02c0.01-.039.03-0.076,0.04-0.113h0.02v-0.038h0.02l0.03-.112a0.189,0.189,0,0,0,.04-0.019V672.96l0.06-.038a0.136,0.136,0,0,1,.02-0.056h0.03v-0.018h0.04v-0.019h0.15a1.517,1.517,0,0,1,.43.019h0.07v0.018a0.517,0.517,0,0,1,.25.357v0.113h0.02v0.132h-0.02a0.448,0.448,0,0,0-.02.113h-0.02v0.038h-0.02c-0.01.037-.01,0.074-0.02,0.113h-0.02v0.037h-0.01v0.056h-0.02v0.037h-0.02c-0.01.033-.01,0.063-0.02,0.1h-0.02v0.056h-0.02v0.039h-0.02v0.056h-0.02v0.037h-0.01V674.2h-0.02a0.317,0.317,0,0,0-.02.094h-0.02v0.037h-0.02v0.057h-0.02a0.21,0.21,0,0,1-.02.075h-0.01v0.057h-0.02a0.2,0.2,0,0,0-.02.075h-0.02v0.056h-0.02c-0.01.025-.01,0.05-0.02,0.075h-0.02v0.056h-0.02v0.038h-0.01v0.057h-0.02a0.21,0.21,0,0,0-.02.075h-0.02v0.056h-0.02c-0.01.025-.01,0.051-0.02,0.076h-0.02v0.056h-0.02v0.037h-0.01v0.057h-0.02v0.037h-0.02v0.057h-0.02v0.037h-0.02v0.057h-0.02a0.21,0.21,0,0,1-.02.075h-0.01v0.056h-0.02a0.22,0.22,0,0,0-.02.076h-0.02v0.056h-0.02v0.037h-0.02v0.058h-0.02a0.2,0.2,0,0,1-.02.074h-0.01v0.056h-0.02a0.22,0.22,0,0,0-.02.076h-0.02v0.056h-0.02v0.038h-0.02v0.057h-0.02c0,0.025-.01.05-0.01,0.074h-0.02v0.057h-0.02c-0.01.026-.01,0.05-0.02,0.075h-0.02V676.4h-0.02a0.209,0.209,0,0,1-.02.076h-0.02v0.056h-0.01v0.038h-0.02v0.056h-0.02c-0.01.026-.01,0.052-0.02,0.077h-0.02v0.055h-0.02a0.2,0.2,0,0,1-.02.075h-0.02a1.273,1.273,0,0,1-.05.188h-0.02v0.038h-0.02v0.056h-0.02a0.2,0.2,0,0,1-.02.076h-0.01v0.057h-0.02v0.037h-0.02v0.057h-0.02c-0.01.024-.01,0.05-0.02,0.075h-0.02v0.056h-0.02a0.215,0.215,0,0,1-.02.075h-0.01l-0.06.188h-0.02v0.038h-0.02v0.056h-0.02c0,0.026-.01.05-0.01,0.076h-0.02v0.056h-0.02V678h-0.02v0.055h-0.02c-0.01.026-.01,0.051-0.02,0.076h-0.02v0.056h-0.02v0.037h-0.01a0.22,0.22,0,0,0-.02.076h-0.02v0.058h-0.02c-0.01.024-.01,0.048-0.02,0.074h-0.02v0.056h-0.02c0,0.026-.01.051-0.01,0.076h-0.02v0.056h-0.02v0.037h-0.02c-0.01.026-.01,0.052-0.02,0.076h-0.02v0.056h-0.02a0.215,0.215,0,0,1-.02.076h-0.01v0.056h-0.02a0.21,0.21,0,0,0-.02.075h-0.02v0.057h-0.02c-0.01.025-.01,0.049-0.02,0.075h-0.02v0.037h-0.02v0.057h-0.01a0.21,0.21,0,0,0-.02.075h-0.02v0.057h-0.02c-0.01.031-.01,0.062-0.02,0.094h-0.02a0.21,0.21,0,0,1-.02.075h-0.01v0.057h-0.02v0.037h-0.02v0.056h-0.02c-0.01.025-.01,0.05-0.02,0.075h-0.02v0.057h-0.02v0.037h-0.02V679.9h-0.01a0.323,0.323,0,0,0-.02.1h-0.02v0.037h-0.02v0.056h-0.02a1.062,1.062,0,0,0-.05.17h-0.02a0.2,0.2,0,0,0-.02.074h-0.02v0.057h-0.02c-0.01.025-.01,0.05-0.02,0.075h-0.02v0.057h-0.02c-0.02.075-.05,0.15-0.07,0.225h-0.02a0.988,0.988,0,0,1-.04.169h0.02c0.01,0.038.01,0.075,0.02,0.114h0.02v0.037h0.02v0.057h0.02a0.221,0.221,0,0,0,.02.075h0.01v0.056h0.02a0.21,0.21,0,0,1,.02.075h0.02v0.057h0.02c0.01,0.025.01,0.05,0.02,0.075h0.02v0.056h0.02c0,0.026.01,0.051,0.01,0.076h0.02v0.056h0.02v0.037h0.02c0.01,0.025.01,0.051,0.02,0.076h0.02v0.056h0.02v0.038h0.01a0.2,0.2,0,0,1,.02.075h0.02v0.056h0.02c0.01,0.025.01,0.05,0.02,0.075h0.02v0.057h0.02a0.22,0.22,0,0,0,.02.076h0.01v0.056h0.02v0.037h0.02v0.058h0.02c0.01,0.025.01,0.049,0.02,0.074h0.02v0.057h0.02v0.037h0.01v0.056h0.02a0.221,0.221,0,0,1,.02.075h0.02V682.7h0.02c0.01,0.024.01,0.049,0.02,0.074h0.02v0.058h0.02c0,0.025.01,0.049,0.01,0.074h0.02v0.056h0.02c0.01,0.027.01,0.051,0.02,0.076h0.02V683.1h0.02v0.038h0.02a0.21,0.21,0,0,0,.02.075h0.01v0.057h0.02a0.2,0.2,0,0,1,.02.075h0.02V683.4h0.02a0.22,0.22,0,0,0,.02.076h0.02v0.056h0.01a0.21,0.21,0,0,1,.02.075h0.02v0.056h0.02c0.01,0.026.01,0.05,0.02,0.076h0.02v0.056h0.02a0.2,0.2,0,0,0,.02.075h0.01v0.057h0.02a0.21,0.21,0,0,1,.02.074h0.02v0.058h0.02v0.037h0.02v0.056h0.02c0,0.026.01,0.051,0.01,0.075h0.02v0.057h0.02c0.01,0.026.01,0.05,0.02,0.075h0.02v0.057h0.02a0.21,0.21,0,0,0,.02.075h0.02v0.056h0.01a0.215,0.215,0,0,1,.02.075h0.02v0.057h0.02c0.01,0.025.01,0.05,0.02,0.075H1209v0.056h0.02c0,0.025.01,0.05,0.01,0.076h0.02v0.056h0.02c0.01,0.025.01,0.05,0.02,0.075h0.02v0.057h0.02a0.21,0.21,0,0,0,.02.075h0.02V685.2h0.01a0.21,0.21,0,0,1,.02.075h0.02v0.056h0.02v0.038h0.02v0.056h0.02a0.22,0.22,0,0,0,.02.076h0.02v0.056h0.01a0.2,0.2,0,0,1,.02.076h0.02v0.056h0.02c0.01,0.025.01,0.05,0.02,0.074h0.02v0.058h0.02c0,0.025.01,0.05,0.01,0.073h0.02v0.059h0.02c0.01,0.024.01,0.048,0.02,0.074h0.02v0.056h0.02a0.22,0.22,0,0,0,.02.076h0.02v0.056h0.01a0.21,0.21,0,0,1,.02.075h0.02v0.057h0.02c0.01,0.025.01,0.05,0.02,0.075h0.02v0.056h0.02v0.038h0.01a0.21,0.21,0,0,1,.02.075h0.02v0.056h0.02c0.01,0.026.01,0.051,0.02,0.076h0.02v0.056h0.02a0.22,0.22,0,0,0,.02.076h0.01v0.056h0.02a0.21,0.21,0,0,1,.02.074h0.02v0.058h0.02c0.01,0.025.01,0.049,0.02,0.074h0.02v0.058h0.02c0,0.024.01,0.048,0.01,0.074h0.02v0.057h0.02c0.01,0.025.01,0.05,0.02,0.075h0.02v0.056h0.02a0.209,0.209,0,0,0,.02.076h0.01v0.056h0.02v0.038h0.02c0.04,0.113.08,0.225,0.11,0.338h0.02c0.01,0.025.01,0.051,0.02,0.075h0.02v0.057h0.02a0.22,0.22,0,0,0,.02.076h0.02v0.056h0.01a0.2,0.2,0,0,1,.02.075h0.02v0.056h0.02c0.01,0.026.01,0.051,0.02,0.075h0.02v0.057h0.02a0.2,0.2,0,0,0,.02.075h0.01v0.056h0.02a0.215,0.215,0,0,1,.02.076h0.02v0.056h0.02v0.038h0.02a0.21,0.21,0,0,0,.02.075h0.01v0.057h0.02a0.2,0.2,0,0,1,.02.074h0.02v0.057h0.02c0.01,0.025.01,0.05,0.02,0.075h0.02v0.057h0.02c0,0.025.01,0.05,0.01,0.075h0.02V689.3h0.02c0.01,0.025.01,0.05,0.02,0.075h0.02v0.056h0.02v0.038H1211c0,0.025.01,0.05,0.01,0.075h0.02V689.6h0.02c0.01,0.025.01,0.051,0.02,0.076h0.02v0.055h0.02a0.22,0.22,0,0,0,.02.077h0.02v0.056h0.01a0.2,0.2,0,0,1,.02.075h0.02V690h0.02v0.037h0.02v0.056h0.02a0.215,0.215,0,0,0,.02.076h0.02v0.056h0.01a0.209,0.209,0,0,1,.02.076h0.02v0.056h0.02v0.037h0.02v0.057h0.02v0.037h0.02v0.057h0.01v0.037h0.02a0.464,0.464,0,0,1,.02.113h0.02c0.02,0.022,0,.008.04,0.019a1.035,1.035,0,0,1,.04-0.169h0.01v-0.057h0.02a0.21,0.21,0,0,0,.02-0.075h0.02c0.01-.032.01-0.063,0.02-0.094h0.02v-0.038h0.02v-0.056h0.01a0.21,0.21,0,0,0,.02-0.075h0.02v-0.057h0.02c0.01-.025.01-0.049,0.02-0.075h0.02a1.342,1.342,0,0,0,.05-0.188h0.02v-0.038h0.02v-0.057h0.02c0.01-.024.01-0.049,0.02-0.075h0.02V689.6h0.02c0-.025.01-0.049,0.01-0.075h0.02v-0.056h0.02c0.01-.025.01-0.05,0.02-0.075h0.02v-0.057h0.02a0.21,0.21,0,0,1,.02-0.075h0.02V689.21h0.01v-0.038h0.02v-0.057h0.02c0.01-.025.01-0.05,0.02-0.075h0.02v-0.057h0.02a0.2,0.2,0,0,1,.02-0.074h0.02v-0.057h0.01a0.21,0.21,0,0,0,.02-0.075h0.02v-0.056h0.02c0.01-.026.01-0.051,0.02-0.076h0.02v-0.056h0.02c0-.025.01-0.05,0.01-0.075h0.02v-0.057h0.02v-0.038h0.02v-0.056h0.02c0.01-.026.01-0.05,0.02-0.075h0.02v-0.057h0.02c0-.024.01-0.05,0.01-0.074h0.02V688.1h0.02c0.01-.024.01-0.05,0.02-0.076h0.02v-0.055h0.02a0.209,0.209,0,0,1,.02-0.076h0.01v-0.057h0.02a0.2,0.2,0,0,0,.02-0.075h0.02v-0.056h0.02v-0.038h0.02v-0.056h0.02a0.21,0.21,0,0,1,.02-0.075h0.01v-0.057h0.02a0.2,0.2,0,0,0,.02-0.075h0.02v-0.056h0.02c0.01-.025.01-0.051,0.02-0.076h0.02v-0.056h0.01a0.215,0.215,0,0,0,.02-0.075h0.02v-0.057h0.02c0.01-.025.01-0.05,0.02-0.075h0.02a1.307,1.307,0,0,0,.05-0.188h0.02v-0.038h0.02v-0.056h0.02c0.01-.025.01-0.05,0.02-0.076h0.02V686.6h0.02a0.21,0.21,0,0,1,.02-0.075h0.01v-0.057h0.02a0.21,0.21,0,0,0,.02-0.075h0.02v-0.057h0.02a0.221,0.221,0,0,1,.02-0.075h0.02V686.2h0.01v-0.037h0.02v-0.056h0.02c0.01-.026.01-0.051,0.02-0.076h0.02v-0.057h0.02a0.232,0.232,0,0,1,.02-0.076h0.02v-0.056h0.01a0.2,0.2,0,0,0,.02-0.075h0.02v-0.056h0.02v-0.038h0.02v-0.056h0.02a0.22,0.22,0,0,1,.02-0.076h0.01v-0.055h0.02v-0.037h0.02v-0.057h0.02c0.01-.025.01-0.05,0.02-0.076h0.02v-0.057h0.02a0.221,0.221,0,0,1,.02-0.075h0.01v-0.056h0.02V685.09h0.02v-0.055h0.02c0.01-.026.01-0.051,0.02-0.076h0.02a0.317,0.317,0,0,1,.02-0.094h0.02v-0.057c0.65-1.453,1.25-2.965,1.9-4.419v-0.057h0.02V680.3h0.02v-0.057h0.02a0.215,0.215,0,0,1,.02-0.075h0.01v-0.056H1216v-0.038h0.02v-0.055h0.02c0.01-.026.01-0.051,0.02-0.076h0.02V679.88h0.02v-0.037h0.01v-0.056h0.02a0.2,0.2,0,0,0,.02-0.076h0.02c0.01-.031.01-0.062,0.02-0.093h0.02v-0.056h0.02v-0.038h0.02v-0.057c0.37-.827.71-1.694,1.08-2.52v-0.056h0.02a0.215,0.215,0,0,1,.02-0.076h0.01v-0.056h0.02a0.21,0.21,0,0,0,.02-0.075h0.02v-0.057h0.02c0.01-.024.01-0.05,0.02-0.074h0.02V676.5h0.02v-0.037h0.01V676.4h0.02a0.2,0.2,0,0,0,.02-0.074h0.02V676.27h0.02c0.01-.025.01-0.051,0.02-0.075h0.02v-0.056h0.01a0.22,0.22,0,0,0,.02-0.076h0.02v-0.056h0.02c0.01-.025.01-0.05,0.02-0.075h0.02v-0.056h0.02v-0.038h0.02v-0.056h0.01a0.227,0.227,0,0,0,.02-0.075h0.02V675.65h0.02c0.01-.026.01-0.051,0.02-0.076h0.02v-0.056h0.02a0.2,0.2,0,0,1,.02-0.075h0.01v-0.056h0.02c0.01-.026.01-0.051,0.02-0.076h0.02v-0.056h0.02v-0.038h0.02v-0.056h0.02c0-.025.01-0.051,0.01-0.075h0.02v-0.057h0.02c0.01-.025.01-0.05,0.02-0.075h0.02V674.9h0.02a0.215,0.215,0,0,1,.02-0.075h0.02v-0.056h0.01a0.209,0.209,0,0,0,.02-0.076h0.02v-0.056h0.02V674.6h0.02V674.54h0.02a0.21,0.21,0,0,1,.02-0.075h0.01v-0.057h0.02a0.2,0.2,0,0,0,.02-0.075h0.02v-0.057h0.02c0.01-.025.01-0.049,0.02-0.074h0.02v-0.057h0.02c0-.025.01-0.05,0.01-0.075h0.02v-0.057h0.02c0.01-.024.01-0.05,0.02-0.074h0.02v-0.058h0.02v-0.037h0.02v-0.057h0.01a0.21,0.21,0,0,0,.02-0.075h0.02v-0.056h0.02v-0.037h0.02v-0.057h0.02a0.21,0.21,0,0,1,.02-0.075h0.02v-0.056h0.01v-0.038h0.02v-0.057h0.02V673.3h0.02v-0.058h0.02a0.52,0.52,0,0,1,.04-0.112h0.02a0.364,0.364,0,0,1,.18-0.243,1.359,1.359,0,0,1,.75-0.02v0.02l0.09,0.074a0.139,0.139,0,0,0,.04.075v0.677h-0.02v0.057h-0.02v0.056h-0.02v0.056h-0.01v0.058h-0.02v0.038h-0.02v0.055h-0.02v0.038h-0.02v0.056h-0.02v0.038h-0.02v0.057h-0.02v0.037h-0.01v0.056h-0.02a0.215,0.215,0,0,0-.02.076h-0.02v0.056h-0.02v0.038h-0.02v0.056h-0.02a0.215,0.215,0,0,1-.02.075h-0.01v0.057h-0.02c-0.01.025-.01,0.049-0.02,0.075h-0.02V674.8h-0.02v0.038h-0.02a0.31,0.31,0,0,1-.02.094h-0.01v0.056h-0.02a0.209,0.209,0,0,0-.02.076h-0.02v0.056h-0.02v0.038h-0.02v0.056h-0.02a0.209,0.209,0,0,1-.02.076h-0.01v0.056h-0.02v0.038h-0.02c-0.01.031-.01,0.062-0.02,0.093h-0.02v0.056h-0.02a0.215,0.215,0,0,1-.02.076h-0.01v0.057h-0.02v0.038h-0.02c-0.01.031-.01,0.062-0.02,0.093h-0.02v0.056h-0.02a0.215,0.215,0,0,1-.02.076h-0.02v0.056h-0.01v0.037h-0.02v0.057h-0.02c-0.01.024-.01,0.051-0.02,0.076h-0.02c-0.01.031-.01,0.061-0.02,0.094h-0.02v0.056h-0.01v0.037h-0.02V676.4c-0.47,1.042-.88,2.139-1.35,3.18v0.056h-0.02v0.037h-0.02v0.057h-0.01a0.21,0.21,0,0,0-.02.075h-0.02v0.057h-0.02c-0.01.025-.01,0.049-0.02,0.075h-0.02V680h-0.02v0.037h-0.02v0.056h-0.01a0.21,0.21,0,0,0-.02.075h-0.02c-0.01.032-.01,0.064-0.02,0.1h-0.02v0.056h-0.02v0.038h-0.02v0.056h-0.01a0.209,0.209,0,0,0-.02.076h-0.02v0.056h-0.02v0.037h-0.02v0.056h-0.02a0.215,0.215,0,0,1-.02.076h-0.02v0.057h-0.01V680.8h-0.02v0.055h-0.02V680.9h-0.02c-0.01.025-.01,0.05-0.02,0.075h-0.02v0.057h-0.02c0,0.025-.01.05-0.01,0.075h-0.02v0.057h-0.02c-0.01.024-.01,0.049-0.02,0.074h-0.02v0.056h-0.02a0.2,0.2,0,0,1-.02.075h-0.02v0.057h-0.01v0.038h-0.02a0.31,0.31,0,0,0-.02.094h-0.02v0.057h-0.02c-0.01.024-.01,0.05-0.02,0.074h-0.02v0.057h-0.02v0.037h-0.01v0.057h-0.02c-0.01.026-.01,0.049-0.02,0.075h-0.02c-0.01.032-.01,0.063-0.02,0.095h-0.02v0.055h-0.02c0,0.026-.01.051-0.01,0.076h-0.02V682.2h-0.02c-0.01.025-.01,0.049-0.02,0.075h-0.02v0.056h-0.02a0.21,0.21,0,0,1-.02.075h-0.02v0.056h-0.01a0.221,0.221,0,0,0-.02.075h-0.02v0.057h-0.02c-0.01.025-.01,0.051-0.02,0.076h-0.02v0.056h-0.02c0,0.025-.01.05-0.01,0.076h-0.02v0.055h-0.02v0.038h-0.02v0.057h-0.02c-0.01.024-.01,0.049-0.02,0.075h-0.02v0.056h-0.02c0,0.025-.01.05-0.01,0.075h-0.02v0.057h-0.02v0.038h-0.02v0.057h-0.02c-0.01.024-.01,0.049-0.02,0.075h-0.02v0.056h-0.01a0.2,0.2,0,0,0-.02.075h-0.02v0.056h-0.02c-0.01.025-.01,0.05-0.02,0.075h-0.02V683.7h-0.02v0.038h-0.02v0.056h-0.01a0.215,0.215,0,0,0-.02.075h-0.02v0.057h-0.02c-0.01.026-.01,0.049-0.02,0.074h-0.02v0.058h-0.02v0.037h-0.02v0.056h-0.01a0.221,0.221,0,0,0-.02.075h-0.02v0.057h-0.02v0.037h-0.02v0.058c-0.65,1.445-1.24,2.954-1.89,4.4v0.057h-0.01v0.037h-0.02v0.056h-0.02c-0.01.025-.01,0.051-0.02,0.076h-0.02v0.056h-0.02a0.21,0.21,0,0,1-.02.075h-0.01v0.057h-0.02a0.2,0.2,0,0,0-.02.075h-0.02v0.056h-0.02c-0.01.024-.01,0.05-0.02,0.076h-0.02v0.056h-0.02c0,0.025-.01.049-0.01,0.075h-0.02v0.057h-0.02c-0.01.025-.01,0.049-0.02,0.074h-0.02v0.057h-0.02v0.038h-0.02v0.057h-0.01a0.2,0.2,0,0,0-.02.074h-0.02v0.057h-0.02c-0.01.025-.01,0.049-0.02,0.075h-0.02v0.056h-0.02a0.215,0.215,0,0,1-.02.076h-0.01v0.056h-0.02v0.037h-0.02c-0.01.026-.01,0.051-0.02,0.076h-0.02v0.057h-0.02a0.21,0.21,0,0,1-.02.075h-0.02v0.056h-0.01a0.215,0.215,0,0,0-.02.075h-0.02v0.056h-0.02c-0.01.026-.01,0.051-0.02,0.076h-0.02v0.056h-0.02c0,0.025-.01.05-0.01,0.076h-0.02V690.9h-0.02c-0.01.024-.01,0.05-0.02,0.076h-0.02v0.056h-0.02a0.215,0.215,0,0,1-.02.075h-0.02v0.057h-0.01a0.21,0.21,0,0,0-.02.075h-0.02V691.3h-0.02c-0.01.025-.01,0.051-0.02,0.075h-0.02v0.057h-0.02c0,0.025-.01.05-0.01,0.075h-0.02v0.057h-0.02c-0.01.025-.01,0.049-0.02,0.075h-0.02v0.056h-0.02a0.21,0.21,0,0,1-.02.075h-0.02v0.056h-0.01v0.038h-0.02a0.215,0.215,0,0,0-.02.075h-0.02v0.057h-0.02a0.21,0.21,0,0,1-.02.075h-0.02v0.057h-0.01a0.2,0.2,0,0,0-.02.075h-0.02v0.056h-0.02c-0.01.026-.01,0.051-0.02,0.076h-0.02v0.056h-0.02a0.2,0.2,0,0,1-.02.074h-0.01v0.058h-0.02a0.2,0.2,0,0,0-.02.074h-0.02v0.058h-0.02c-0.01.024-.01,0.049-0.02,0.074h-0.02v0.058H1212c0,0.024-.01.049-0.01,0.074h-0.02v0.056h-0.02c-0.01.025-.01,0.05-0.02,0.076h-0.02v0.056h-0.02a0.22,0.22,0,0,1-.02.076h-0.01v0.056h-0.02a0.21,0.21,0,0,0-.02.075h-0.02v0.057h-0.02v0.037h-0.02a0.21,0.21,0,0,1-.02.075h-0.02v0.057h-0.01a0.21,0.21,0,0,0-.02.075h-0.02v0.057h-0.02c-0.01.025-.01,0.049-0.02,0.074h-0.02v0.058h-0.02c0,0.024-.01.048-0.01,0.074h-0.02v0.057h-0.02c-0.01.024-.01,0.049-0.02,0.074h-0.02V694h-0.02a0.209,0.209,0,0,1-.02.076h-0.02v0.057h-0.01a0.2,0.2,0,0,0-.02.075h-0.02v0.056h-0.02c-0.01.026-.01,0.051-0.02,0.076h-0.02V694.4h-0.02c0,0.026-.01.051-0.01,0.075h-0.02v0.057h-0.02c-0.01.025-.01,0.05-0.02,0.075h-0.02v0.056h-0.02a0.22,0.22,0,0,1-.02.076h-0.02v0.055h-0.01v0.039h-0.02a0.2,0.2,0,0,0-.02.075h-0.02v0.057h-0.02c-0.01.024-.01,0.048-0.02,0.074h-0.02V695.1h-0.02v0.038H1211v0.056h-0.02c-0.01.025-.01,0.05-0.02,0.075h-0.02v0.057h-0.02v0.038h-0.02v0.055h-0.02c0,0.025-.01.051-0.01,0.076h-0.02v0.056h-0.02v0.038h-0.02c-0.01.025-.01,0.05-0.02,0.075h-0.02v0.056h-0.02v0.039h-0.02c0,0.024-.01.049-0.01,0.075h-0.02v0.056h-0.02c-0.01.024-.01,0.051-0.02,0.076h-0.02V696h-0.02v0.037h-0.02v0.057h-0.01a0.52,0.52,0,0,0-.04.112h-0.02v0.038h-0.02v0.037h-0.02v0.039h-0.02v0.037h-0.02v0.038h-0.01v0.038h-0.02v0.037h-0.02v0.038h-0.02v0.038h-0.02v0.037a0.153,0.153,0,0,1-.04.018c0,0.026-.01.051-0.01,0.076h-0.02a0.123,0.123,0,0,0-.02.056c-0.01.007-.03,0.012-0.04,0.019v0.037h-0.02a0.071,0.071,0,0,1-.02.038h-0.03v0.019a0.327,0.327,0,0,0-.08.057h-0.54v-0.019l-0.09-.019a1.112,1.112,0,0,1-.1-0.113h-0.02v-0.038l-0.03-.019v-0.037h-0.02v-0.038h-0.02v-0.037h-0.02v-0.037h-0.02v-0.038h-0.02l-0.03-.113h-0.02v-0.057h-0.02V696.3h-0.02v-0.056h-0.02c-0.01-.025-0.01-0.05-0.02-0.075h-0.02v-0.057h-0.02c0-.025-0.01-0.05-0.01-0.075H1209V695.98h-0.02v-0.038h-0.02v-0.056h-0.02a0.21,0.21,0,0,0-.02-0.075h-0.02v-0.056h-0.01a0.22,0.22,0,0,1-.02-0.076h-0.02l-0.06-.188h-0.02v-0.037h-0.02V695.4h-0.01a0.215,0.215,0,0,1-.02-0.075h-0.02v-0.057h-0.02c-0.01-.025-0.01-0.05-0.02-0.075h-0.02v-0.056h-0.02V695.1h-0.01v-0.057h-0.02a0.216,0.216,0,0,1-.02-0.074h-0.02v-0.057h-0.02c-0.01-.026-0.01-0.05-0.02-0.075h-0.02v-0.056h-0.02v-0.038h-0.01v-0.056h-0.02a0.22,0.22,0,0,1-.02-0.076h-0.02V694.55h-0.02a0.221,0.221,0,0,0-.02-0.075h-0.02v-0.056h-0.01v-0.038h-0.02v-0.056h-0.02c-0.01-.026-0.01-0.051-0.02-0.075h-0.02v-0.056h-0.02a0.215,0.215,0,0,0-.02-0.076h-0.02v-0.056h-0.01a0.209,0.209,0,0,1-.02-0.076h-0.02V693.93h-0.02v-0.037h-0.02v-0.058h-0.02a0.215,0.215,0,0,0-.02-0.075h-0.02V693.7h-0.01a0.21,0.21,0,0,1-.02-0.075h-0.02v-0.056h-0.02v-0.038h-0.02v-0.056c-0.6-1.34-1.14-2.741-1.74-4.081v-0.057h-0.01V689.3h-0.02a0.323,0.323,0,0,1-.02-0.094h-0.02v-0.058h-0.02v-0.037h-0.02a0.21,0.21,0,0,0-.02-0.075h-0.02v-0.057h-0.01v-0.037h-0.02V688.89h-0.02c-0.01-.025-0.01-0.051-0.02-0.075h-0.02v-0.056h-0.02a0.209,0.209,0,0,0-.02-0.076h-0.01v-0.057h-0.02v-0.037h-0.02v-0.057h-0.02c-0.01-.025-0.01-0.05-0.02-0.075h-0.02V688.4h-0.02a0.2,0.2,0,0,0-.02-0.075h-0.01V688.27h-0.02a0.22,0.22,0,0,1-.02-0.076h-0.02v-0.056h-0.02V688.1h-0.02v-0.057h-0.02c0-.024-0.01-0.05-0.01-0.074h-0.02v-0.058h-0.02c-0.01-.024-0.01-0.049-0.02-0.075h-0.02c-0.01-.031-0.01-0.062-0.02-0.094h-0.02v-0.055h-0.02c0-.026-0.01-0.052-0.01-0.076h-0.02v-0.057h-0.02c-0.01-.024-0.01-0.05-0.02-0.075h-0.02v-0.057h-0.02a0.21,0.21,0,0,0-.02-0.074h-0.01v-0.057h-0.02v-0.038h-0.02V687.2h-0.02c-0.01-.025-0.01-0.05-0.02-0.076h-0.02v-0.055h-0.02v-0.038h-0.02c0-.031-0.01-0.063-0.01-0.094h-0.02v-0.057l-0.21-.433h-0.02a0.411,0.411,0,0,1-.05.17v0.056h-0.02v0.038h-0.02v0.056h-0.02V686.8h-0.02v0.058h-0.02a0.21,0.21,0,0,1-.02.075h-0.01v0.055h-0.02a0.225,0.225,0,0,0-.02.077h-0.02v0.055h-0.02v0.038h-0.02a0.215,0.215,0,0,1-.02.076h-0.01v0.056h-0.02v0.038h-0.02v0.038h-0.02V687.4h-0.02v0.056h-0.02V687.5h-0.02a0.21,0.21,0,0,1-.02.075h-0.01v0.057h-0.02a0.2,0.2,0,0,0-.02.075h-0.02v0.056h-0.02c-0.01.026-.01,0.05-0.02,0.075h-0.02v0.057h-0.01a0.209,0.209,0,0,0-.02.076h-0.02v0.055h-0.02c-0.01.026-.01,0.052-0.02,0.076h-0.02v0.057h-0.02a0.2,0.2,0,0,1-.02.074h-0.01v0.057h-0.02a0.2,0.2,0,0,0-.02.075h-0.02v0.056h-0.02v0.038h-0.02v0.057h-0.02a0.21,0.21,0,0,1-.02.075h-0.01v0.056h-0.02c-0.01.025-.01,0.05-0.02,0.076h-0.02v0.056h-0.02v0.038h-0.02a0.215,0.215,0,0,1-.02.075h-0.01v0.056h-0.02v0.037h-0.02v0.057h-0.02v0.038h-0.02v0.056h-0.02v0.038h-0.02v0.057h-0.02c0,0.024-.01.049-0.01,0.075h-0.02v0.056h-0.02c-0.01.025-.01,0.05-0.02,0.075h-0.02v0.056h-0.02v0.038h-0.02c0,0.026-.01.05-0.01,0.075h-0.02v0.056h-0.02c-0.01.026-.01,0.051-0.02,0.075h-0.02v0.057h-0.02a0.209,0.209,0,0,1-.02.076h-0.02v0.056h-0.01v0.037h-0.02v0.057h-0.02c-0.01.026-.01,0.05-0.02,0.075h-0.02v0.057h-0.02a0.21,0.21,0,0,1-.02.075h-0.02v0.056h-0.01a0.215,0.215,0,0,0-.02.076h-0.02v0.056h-0.02c-0.01.025-.01,0.05-0.02,0.075h-0.02v0.057h-0.02c0,0.025-.01.05-0.01,0.076h-0.02v0.055h-0.02c-0.01.026-.01,0.051-0.02,0.076h-0.02v0.056h-0.02v0.038h-0.02V690.9c-0.53,1.186-1.02,2.425-1.55,3.611v0.056h-0.02c0,0.026-.01.051-0.01,0.076h-0.02V694.7h-0.02c-0.01.025-.01,0.05-0.02,0.076h-0.02v0.056h-0.02v0.037h-0.02v0.057h-0.02c0,0.025-.01.049-0.01,0.075h-0.02v0.056h-0.02c-0.01.025-.01,0.051-0.02,0.076h-0.02v0.056h-0.02a0.21,0.21,0,0,1-.02.075h-0.01v0.057h-0.02a0.2,0.2,0,0,0-.02.075h-0.02v0.057h-0.02c-0.01.024-.01,0.049-0.02,0.074h-0.02v0.057h-0.02c0,0.025-.01.05-0.01,0.075h-0.02v0.056h-0.02v0.039h-0.02c-0.01.037-.01,0.075-0.02,0.112H1201v0.038h-0.02v0.057h-0.01a0.3,0.3,0,0,0-.02.093h-0.02v0.038h-0.02v0.056h-0.02c-0.01.025-.01,0.05-0.02,0.076h-0.02v0.055h-0.02v0.039h-0.01a0.2,0.2,0,0,0-.02.075h-0.02l-0.06.169-0.03.019a0.5,0.5,0,0,0-.04.112c-0.01.007-.03,0.013-0.04,0.019v0.038c-0.06.05-.11,0.1-0.17,0.151a2.224,2.224,0,0,1-.54-0.019,0.753,0.753,0,0,1-.15-0.076v-0.038a0.191,0.191,0,0,1-.05-0.037v-0.038a0.126,0.126,0,0,1-.04-0.018v-0.038c-0.01-.007-0.03-0.012-0.04-0.019a0.52,0.52,0,0,0-.04-0.112h-0.02v-0.038h-0.01v-0.037h-0.02v-0.038h-0.02v-0.038h-0.02v-0.037h-0.02c-0.01-.025-0.01-0.052-0.02-0.076h-0.02v-0.038h-0.02v-0.056h-0.01v-0.038h-0.02c-0.01-.025-0.01-0.05-0.02-0.075h-0.02V695.98h-0.02a0.2,0.2,0,0,0-.02-0.075h-0.02v-0.057h-0.01v-0.037h-0.02a0.22,0.22,0,0,1-.02-0.076h-0.02v-0.056h-0.02v-0.037h-0.02v-0.057h-0.02a0.2,0.2,0,0,0-.02-0.075h-0.01v-0.056h-0.02a0.22,0.22,0,0,1-.02-0.076h-0.02v-0.056h-0.02a0.209,0.209,0,0,0-.02-0.076H1199V695.19h-0.01v-0.038h-0.02a0.2,0.2,0,0,1-.02-0.075h-0.02v-0.056h-0.02v-0.038h-0.02v-0.038h-0.02l-0.03-.112h-0.02v-0.056h-0.02v-0.038h-0.02V694.7h-0.02a0.517,0.517,0,0,0-.04-0.114h-0.01v-0.055h-0.02v-0.039h-0.02c-0.01-.024-0.01-0.049-0.02-0.074h-0.02v-0.057h-0.02a0.2,0.2,0,0,0-.02-0.074h-0.02v-0.056h-0.01a0.22,0.22,0,0,1-.02-0.076h-0.02V694.1h-0.02v-0.038h-0.02V694h-0.02a0.21,0.21,0,0,0-.02-0.074h-0.02v-0.056h-0.01a0.215,0.215,0,0,1-.02-0.076h-0.02c-0.01-.031-0.01-0.063-0.02-0.094h-0.02v-0.056h-0.02a0.2,0.2,0,0,0-.02-0.075h-0.01v-0.057h-0.02a0.2,0.2,0,0,1-.02-0.075h-0.02v-0.057h-0.02c-0.01-.025-0.01-0.05-0.02-0.074h-0.02v-0.057h-0.02c0-.025-0.01-0.05-0.01-0.075h-0.02v-0.056h-0.02c-0.01-.026-0.01-0.051-0.02-0.076h-0.02V692.99h-0.02v-0.038h-0.02V692.9H1198a0.2,0.2,0,0,1-.02-0.075h-0.02v-0.057h-0.02c-0.01-.024-0.01-0.049-0.02-0.074h-0.02v-0.056h-0.02a0.209,0.209,0,0,0-.02-0.076h-0.01V692.5h-0.02v-0.039h-0.02v-0.056h-0.02c-0.01-.024-0.01-0.05-0.02-0.074h-0.02v-0.057h-0.02c0-.026-0.01-0.05-0.01-0.075h-0.02v-0.058h-0.02c-0.01-.024-0.01-0.049-0.02-0.074h-0.02v-0.056h-0.02v-0.038h-0.02v-0.057h-0.02c0-.025-0.01-0.05-0.01-0.074h-0.02v-0.058h-0.02c-0.01-.024-0.01-0.049-0.02-0.074h-0.02v-0.056h-0.02a0.215,0.215,0,0,0-.02-0.076h-0.02v-0.056h-0.01a0.221,0.221,0,0,1-.02-0.075h-0.02v-0.057h-0.02v-0.039h-0.02V691.3h-0.02a0.2,0.2,0,0,0-.02-0.075h-0.01v-0.056h-0.02a0.215,0.215,0,0,1-.02-0.076h-0.02v-0.056h-0.02c-0.01-.025-0.01-0.05-0.02-0.076h-0.02V690.9h-0.02c0-.025-0.01-0.05-0.01-0.075h-0.02V690.77h-0.02c-0.01-.025-0.01-0.05-0.02-0.075h-0.02v-0.057h-0.02V690.6h-0.02c0-.025-0.01-0.05-0.01-0.075h-0.02v-0.057h-0.02c-0.01-.025-0.01-0.05-0.02-0.075h-0.02v-0.056h-0.02a0.209,0.209,0,0,0-.02-0.076h-0.02v-0.056h-0.01v-0.037h-0.02a0.215,0.215,0,0,1-.02-0.076h-0.02v-0.056h-0.02V690h-0.02a0.22,0.22,0,0,0-.02-0.076h-0.01v-0.056h-0.02a0.209,0.209,0,0,1-.02-0.076h-0.02v-0.057h-0.02c-0.01-.024-0.01-0.049-0.02-0.075h-0.02V689.6h-0.02c0-.025-0.01-0.049-0.01-0.075h-0.02v-0.056h-0.02c-0.01-.025-0.01-0.05-0.02-0.075h-0.02v-0.057h-0.02a0.21,0.21,0,0,0-.02-0.075h-0.02V689.21h-0.01a0.209,0.209,0,0,1-.02-0.076h-0.02v-0.056h-0.02c-0.01-.025-0.01-0.05-0.02-0.075h-0.02v-0.057h-0.02c0-.026-0.01-0.05-0.01-0.075h-0.02v-0.056h-0.02c-0.01-.026-0.01-0.051-0.02-0.076h-0.02v-0.056h-0.02a0.215,0.215,0,0,0-.02-0.076h-0.02v-0.056h-0.01a0.2,0.2,0,0,1-.02-0.075h-0.02v-0.057h-0.02c-0.01-.024-0.01-0.049-0.02-0.075h-0.02v-0.056h-0.02c0-.025-0.01-0.051-0.01-0.075H1196v-0.056h-0.02c-0.01-.026-0.01-0.051-0.02-0.076h-0.02v-0.057h-0.02a0.215,0.215,0,0,0-.02-0.075h-0.02v-0.056h-0.01a0.21,0.21,0,0,1-.02-0.075h-0.02v-0.057h-0.02c-0.01-.025-0.01-0.05-0.02-0.074h-0.02V687.63h-0.02c0-.026-0.01-0.05-0.01-0.076h-0.02V687.5h-0.02c-0.01-.025-0.01-0.051-0.02-0.076h-0.02v-0.055h-0.02a0.209,0.209,0,0,0-.02-0.076h-0.02v-0.056h-0.01a0.215,0.215,0,0,1-.02-0.076h-0.02V687.1h-0.02c-0.01-.025-0.01-0.05-0.02-0.075h-0.02v-0.057h-0.02v-0.037h-0.02v-0.057h-0.01a0.2,0.2,0,0,1-.02-0.076h-0.02l-0.06-.187h-0.02v-0.037h-0.01V686.52h-0.02v-0.038h-0.02v-0.056h-0.02c-0.01-.025-0.01-0.05-0.02-0.075h-0.02v-0.057h-0.02v-0.038h-0.02V686.2h-0.01a0.2,0.2,0,0,1-.02-0.075h-0.02v-0.056h-0.02v-0.038h-0.02v-0.057h-0.02a0.232,0.232,0,0,0-.02-0.076h-0.01v-0.056h-0.02a0.2,0.2,0,0,1-.02-0.075h-0.02v-0.056h-0.02c-0.01-.026-0.01-0.049-0.02-0.074h-0.02v-0.058h-0.02c0-.024-0.01-0.049-0.01-0.074h-0.02v-0.056h-0.02v-0.038h-0.02c-0.01-.025-0.01-0.051-0.02-0.076h-0.02v-0.056h-0.02c0-.025-0.01-0.05-0.01-0.075h-0.02v-0.057h-0.02v-0.038h-0.02v-0.056h-0.02c-0.01-.026-0.01-0.051-0.02-0.075h-0.02v-0.056h-0.02c0-.026-0.01-0.051-0.01-0.075h-0.02v-0.058h-0.02c-0.01-.024-0.01-0.049-0.02-0.075h-0.02v-0.055h-0.02a0.215,0.215,0,0,0-.02-0.076h-0.02v-0.056h-0.01a0.215,0.215,0,0,1-.02-0.076h-0.02V684.4h-0.02v-0.038h-0.02V684.3h-0.02a0.22,0.22,0,0,0-.02-0.076h-0.01v-0.056h-0.02a0.21,0.21,0,0,1-.02-0.075h-0.02v-0.056h-0.02c-0.01-.025-0.01-0.05-0.02-0.076h-0.02v-0.056h-0.02v-0.038h-0.01v-0.056h-0.02a0.221,0.221,0,0,1-.02-0.075h-0.02v-0.058h-0.02a0.216,0.216,0,0,0-.02-0.074h-0.02v-0.057h-0.01a0.2,0.2,0,0,1-.02-0.074H1194v-0.057h-0.02V683.38h-0.02v-0.058h-0.02a0.21,0.21,0,0,0-.02-0.074h-0.02v-0.057h-0.01a0.21,0.21,0,0,1-.02-0.075h-0.02V683.06h-0.02c-0.01-.026-0.01-0.05-0.02-0.076h-0.02v-0.056h-0.02V682.89h-0.02v-0.055h-0.01a0.226,0.226,0,0,1-.02-0.076h-0.02V682.7h-0.02c-0.01-.026-0.01-0.051-0.02-0.075h-0.02V682.57h-0.02c0-.024-0.01-0.049-0.01-0.075h-0.02v-0.056h-0.02V682.4h-0.02v-0.055h-0.02c-0.01-.027-0.01-0.051-0.02-0.076h-0.02v-0.056h-0.02c0-.025-0.01-0.051-0.01-0.076h-0.02v-0.056h-0.02c-0.01-.025-0.01-0.051-0.02-0.075h-0.02V681.95h-0.02a0.21,0.21,0,0,0-.02-0.075h-0.01v-0.057h-0.02V681.78h-0.02v-0.055h-0.02c-0.01-.033-0.01-0.063-0.02-0.1h-0.02a0.21,0.21,0,0,0-.02-0.075h-0.02V681.5h-0.01v-0.037h-0.02v-0.056h-0.02v-0.039h-0.02V681.31h-0.02v-0.037h-0.02v-0.056h-0.02c0-.025-0.01-0.051-0.01-0.076h-0.02a0.317,0.317,0,0,1-.02-0.093h-0.02V680.99h-0.02v-0.037h-0.02V680.9h-0.02a0.22,0.22,0,0,0-.02-0.076h-0.01v-0.055h-0.02v-0.038h-0.02v-0.057h-0.02c-0.01-.025-0.01-0.05-0.02-0.075h-0.02V680.54h-0.02V680.5h-0.01v-0.057h-0.02a0.21,0.21,0,0,1-.02-0.075h-0.02v-0.056h-0.02c-0.01-.025-0.01-0.05-0.02-0.076h-0.02v-0.055h-0.02c0-.025-0.01-0.051-0.01-0.076h-0.02v-0.056h-0.02c-0.01-.025-0.01-0.05-0.02-0.075h-0.02v-0.057h-0.02a0.22,0.22,0,0,0-.02-0.076h-0.02v-0.056h-0.01v-0.038h-0.02a0.21,0.21,0,0,1-.02-0.075h-0.02v-0.056h-0.02a0.2,0.2,0,0,0-.02-0.075h-0.02v-0.057h-0.01a0.21,0.21,0,0,1-.02-0.075h-0.02v-0.056h-0.02c-0.01-.025-0.01-0.051-0.02-0.076h-0.02v-0.056h-0.02v-0.038h-0.02v-0.056h-0.01a0.215,0.215,0,0,1-.02-0.075h-0.02V679h-0.02c-0.01-.025-0.01-0.05-0.02-0.075h-0.02v-0.056h-0.02v-0.037h-0.01v-0.057h-0.02a0.209,0.209,0,0,1-.02-0.076H1192V678.64h-0.02V678.6h-0.02v-0.057h-0.02a0.2,0.2,0,0,0-.02-0.074h-0.01v-0.056h-0.02a0.215,0.215,0,0,1-.02-0.076h-0.02c-0.01-.031-0.01-0.063-0.02-0.094h-0.02v-0.057h-0.02c0-.024-0.01-0.05-0.01-0.074h-0.02v-0.058h-0.02v-0.037h-0.02c-0.01-.025-0.01-0.049-0.02-0.075h-0.02v-0.056h-0.02a0.209,0.209,0,0,0-.02-0.076h-0.01v-0.056h-0.02a0.21,0.21,0,0,1-.02-0.075h-0.02v-0.057h-0.02v-0.037h-0.02v-0.056h-0.02a0.209,0.209,0,0,0-.02-0.076h-0.01V677.4h-0.02v-0.037h-0.02c-0.01-.032-0.01-0.063-0.02-0.094h-0.02v-0.056h-0.02v-0.038h-0.02v-0.057h-0.01v-0.038h-0.02v-0.056h-0.02c-0.01-.025-0.01-0.05-0.02-0.075h-0.02v-0.056h-0.02v-0.037h-0.02V676.8h-0.02v-0.038h-0.01V676.7h-0.02v-0.039h-0.02v-0.057h-0.02v-0.037h-0.02v-0.057h-0.02v-0.037h-0.02v-0.056h-0.01v-0.037h-0.02a0.323,0.323,0,0,1-.02-0.1h-0.02v-0.056h-0.02V676.2h-0.02v-0.056h-0.02V676.1h-0.02v-0.057h-0.01v-0.037h-0.02V675.95h-0.02c-0.01-.024-0.01-0.049-0.02-0.074h-0.02v-0.058h-0.02v-0.036h-0.02v-0.058h-0.02c0-.024-0.01-0.049-0.01-0.074h-0.02v-0.057h-0.02v-0.038h-0.02V675.5h-0.02a0.21,0.21,0,0,0-.02-0.075h-0.02v-0.057h-0.01V675.33h-0.02a0.21,0.21,0,0,1-.02-0.075h-0.02V675.2h-0.02c-0.01-.026-0.01-0.051-0.02-0.076h-0.02v-0.056h-0.02v-0.038h-0.01v-0.056h-0.02v-0.038h-0.02v-0.056h-0.02v-0.038h-0.02v-0.057h-0.02a0.215,0.215,0,0,0-.02-0.075h-0.01q-0.06-.168-0.12-0.339h-0.02c0-.024-0.01-0.05-0.01-0.074h-0.02v-0.057h-0.02V674.2h-0.02v-0.057h-0.02a0.21,0.21,0,0,0-.02-0.075h-0.02c-0.03-.113-0.07-0.226-0.11-0.338v-0.226a1.854,1.854,0,0,1,0-.526c0.04-.03.03-0.057,0.06-0.076h0.04c0-.013.01-0.026,0.01-0.038,0.04-.006.07-0.013,0.1-0.018v-0.019a1.915,1.915,0,0,1,.5.019h0.09v0.018h0.04v0.02Z" transform="translate(-1175 -654)"/>
</svg>
