<svg xmlns="http://www.w3.org/2000/svg" width="39" height="30" viewBox="0 0 39 30">
  <defs>
    <style>
      .cls-1 {
        fill: #004995;
        fill-rule: evenodd;
      }
    </style>
  </defs>
  <path id="_" data-name="&quot;" class="cls-1" d="M210.636,1911v2.21c-0.29.09-.58,0.19-0.87,0.28v0.05h-0.1v0.05h-0.145v0.05h-0.1v0.04a1.407,1.407,0,0,1-.193.05v0.05H209.09v0.05l-0.29.09v0.05h-0.1v0.05c-0.1.03-.193,0.06-0.29,0.1l-0.048.09h-0.1v0.05h-0.1v0.05h-0.1v0.05h-0.1l-0.048.09c-0.1.03-.193,0.07-0.29,0.1l-0.048.09a1.383,1.383,0,0,1-.194.05c-0.016.03-.032,0.07-0.048,0.1h-0.1c-0.017.03-.033,0.06-0.049,0.09h-0.1c-0.017.04-.033,0.07-0.049,0.1h-0.1v0.05a0.8,0.8,0,0,0-.145.05l-0.049.09h-0.1l-0.1.15h-0.1l-0.048.09h-0.1a1.7,1.7,0,0,1-.1.14h-0.1c-0.048.07-.1,0.13-0.145,0.2h-0.1l-0.193.24h-0.1l-0.29.33h-0.1l-0.338.39c-0.226.2-.451,0.41-0.677,0.62v0.09c-0.1.09-.193,0.16-0.29,0.24v0.1c-0.08.06-.161,0.13-0.241,0.19v0.1l-0.145.09v0.1a1.257,1.257,0,0,0-.145.1v0.09c-0.048.03-.1,0.07-0.145,0.1v0.09a1.257,1.257,0,0,1-.145.1v0.1c-0.032.01-.064,0.03-0.1,0.04v0.1c-0.032.02-.064,0.03-0.1,0.05v0.09a0.448,0.448,0,0,1-.1.05v0.1c-0.032.01-.064,0.03-0.1,0.04-0.016.07-.032,0.13-0.048,0.2h-0.048c-0.016.04-.032,0.09-0.049,0.14-0.032.02-.064,0.03-0.1,0.05v0.09h-0.049v0.1c-0.032.02-.064,0.03-0.1,0.05v0.09h-0.048v0.1h-0.049v0.1H202.18v0.09c-0.032.02-.065,0.03-0.1,0.05-0.032.1-.064,0.19-0.1,0.29h-0.049v0.09H201.89c-0.032.1-.064,0.2-0.1,0.29h-0.048v0.14H201.7v0.1h-0.049c-0.016.06-.032,0.13-0.048,0.19h-0.048v0.15H201.5v0.09h-0.048v0.15h-0.048v0.09h-0.049v0.15H201.31v0.14h-0.048v0.14h-0.048v0.15h-0.049l-0.1.48H201.02c-0.032.17-.064,0.35-0.1,0.52h-0.049v0.24h-0.048c-0.016.18-.032,0.36-0.048,0.53H200.73q-0.072.72-.145,1.44c-0.033.74,0.045,1.77,0.58,1.92v0.05c0.129-.02.258-0.04,0.387-0.05v-0.05h0.1a0.779,0.779,0,0,0,.049-0.1c0.064-.01.129-0.03,0.193-0.04,0.032-.05.064-0.1,0.1-0.15h0.1c0.016-.03.032-0.06,0.049-0.09a1.336,1.336,0,0,1,.193-0.05c0.016-.03.032-0.07,0.048-0.1a1.336,1.336,0,0,0,.193-0.05v-0.04c0.1-.04.194-0.07,0.29-0.1v-0.05c0.419-.12.838-0.25,1.257-0.38,0.241-.02.483-0.03,0.725-0.05a6.265,6.265,0,0,1,1.449-.05v0.05h0.338v0.05h0.242v0.05h0.242v0.05h0.145v0.04H207.4v0.05h0.194v0.05h0.1v0.05h0.145v0.05c0.065,0.01.129,0.03,0.194,0.04v0.05h0.145v0.05h0.1c0.016,0.03.032,0.06,0.049,0.09h0.1v0.05h0.1v0.05h0.1v0.05h0.1v0.05c0.048,0.01.1,0.03,0.145,0.04a0.945,0.945,0,0,0,.048.1h0.1a1.483,1.483,0,0,0,.1.14h0.1a0.779,0.779,0,0,0,.049.1c0.048,0.02.1,0.03,0.145,0.05,0.048,0.06.1,0.13,0.144,0.19a7.128,7.128,0,0,1,2.416,3.5v0.19h0.049v0.19h0.048v0.24h0.048v0.29a4.9,4.9,0,0,1,.049,1.92c-0.032.29-.065,0.57-0.1,0.86q-0.194.6-.386,1.2H211.6c-0.032.1-.064,0.19-0.1,0.29h-0.049v0.09h-0.048v0.1h-0.048c-0.033.1-.065,0.19-0.1,0.29a0.472,0.472,0,0,0-.1.05c-0.016.06-.032,0.12-0.048,0.19a0.472,0.472,0,0,0-.1.05v0.09h-0.048l-0.048.15c-0.032.01-.065,0.03-0.1,0.04v0.1c-0.032.02-.064,0.03-0.1,0.05-0.017.05-.033,0.09-0.049,0.14l-0.193.15v0.09l-0.29.24v0.1c-0.145.12-.29,0.25-0.435,0.38l-0.193.24h-0.1l-0.193.24h-0.1c-0.048.06-.1,0.13-0.145,0.19h-0.1c-0.033.05-.065,0.1-0.1,0.15h-0.1l-0.048.09c-0.048.02-.1,0.03-0.145,0.05v0.05h-0.1l-0.048.09c-0.1.04-.193,0.07-0.29,0.1a0.945,0.945,0,0,0-.048.1c-0.064.01-.129,0.03-0.193,0.04v0.05c-0.1.03-.194,0.07-0.29,0.1v0.05h-0.145v0.04c-0.065.02-.129,0.03-0.193,0.05v0.05h-0.145v0.05h-0.145v0.04h-0.145v0.05h-0.145a7.3,7.3,0,0,1-3.576.24c-0.177-.01-0.354-0.03-0.532-0.05-0.467-.14-0.934-0.28-1.4-0.43v-0.04a1.37,1.37,0,0,0-.193-0.05v-0.05c-0.145-.05-0.29-0.1-0.435-0.14a0.945,0.945,0,0,0-.048-0.1h-0.1v-0.05h-0.1v-0.05h-0.1v-0.04h-0.1v-0.05c-0.048-.02-0.1-0.03-0.145-0.05a0.945,0.945,0,0,1-.048-0.1h-0.1l-0.048-.09h-0.1v-0.05c-0.048-.02-0.1-0.03-0.145-0.05l-0.048-.09h-0.1l-0.1-.15h-0.1l-0.193-.24h-0.1l-0.29-.33h-0.1c-0.033-.05-0.065-0.1-0.1-0.15l-0.387-.33v-0.1a0.442,0.442,0,0,1-.1-0.05V1938c-0.113-.1-0.226-0.2-0.338-0.29v-0.1c-0.065-.05-0.129-0.09-0.194-0.14v-0.1l-0.145-.09v-0.1a1.35,1.35,0,0,1-.145-0.1v-0.09c-0.032-.02-0.064-0.03-0.1-0.05-0.016-.05-0.032-0.1-0.049-0.14h-0.048v-0.1c-0.032-.02-0.064-0.03-0.1-0.05-0.016-.06-0.032-0.12-0.048-0.19a0.442,0.442,0,0,1-.1-0.05c-0.017-.06-0.033-0.12-0.049-0.19a0.442,0.442,0,0,1-.1-0.05v-0.09h-0.049v-0.1H196.43v-0.09h-0.048v-0.1h-0.049v-0.1h-0.048v-0.09h-0.048c-0.033-.1-0.065-0.19-0.1-0.29h-0.048v-0.14h-0.049c-0.016-.07-0.032-0.13-0.048-0.2h-0.048c-0.016-.09-0.033-0.19-0.049-0.28H195.85v-0.1H195.8v-0.14h-0.049v-0.15h-0.048v-0.14h-0.048v-0.14h-0.049c-0.016-.12-0.032-0.23-0.048-0.34h-0.048v-0.19h-0.049v-0.19h-0.048v-0.2h-0.048v-0.24h-0.048v-0.24H195.27v-0.28h-0.048v-0.29h-0.048v-0.34h-0.049v-0.48h-0.048v-0.57a7.9,7.9,0,0,1,0-2.21v-0.57h0.048v-0.48h0.049v-0.39h0.048v-0.33h0.048v-0.29h0.049v-0.24h0.048v-0.29h0.048v-0.19h0.048c0.017-.14.033-0.29,0.049-0.43h0.048v-0.14h0.048c0.033-.19.065-0.39,0.1-0.58h0.048c0.1-.33.194-0.67,0.29-1.01h0.049v-0.09h0.048c0.016-.1.032-0.19,0.048-0.29h0.049v-0.1h0.048v-0.14h0.048v-0.09h0.049v-0.15h0.048v-0.09h0.048v-0.1h0.049v-0.1h0.048v-0.14h0.048c0.032-.1.065-0.19,0.1-0.29h0.048v-0.09h0.048v-0.1h0.049v-0.1h0.048v-0.09h0.048v-0.1h0.049v-0.09h0.048v-0.1c0.032-.02.065-0.03,0.1-0.05v-0.09H197.2v-0.1h0.048v-0.09H197.3v-0.1c0.032-.02.064-0.03,0.1-0.05v-0.09h0.049v-0.1h0.048v-0.1c0.032-.01.064-0.03,0.1-0.04v-0.1c0.032-.02.064-0.03,0.1-0.05v-0.09a0.448,0.448,0,0,1,.1-0.05c0.016-.07.032-0.13,0.048-0.19h0.048c0.017-.05.033-0.1,0.049-0.15a0.442,0.442,0,0,0,.1-0.05v-0.09c0.033-.02.065-0.03,0.1-0.05v-0.1l0.145-.09v-0.1a0.472,0.472,0,0,0,.1-0.05v-0.09a1.35,1.35,0,0,0,.145-0.1v-0.09c0.048-.03.1-0.07,0.145-0.1v-0.09a1.176,1.176,0,0,1,.145-0.1v-0.1c0.064-.04.128-0.09,0.193-0.14v-0.1c0.08-.06.161-0.12,0.241-0.19v-0.09c0.113-.1.226-0.2,0.339-0.29v-0.1c0.145-.13.29-0.25,0.435-0.38,0.289-.3.579-0.61,0.869-0.91h0.1c0.1-.11.193-0.23,0.29-0.34h0.1v-0.05l0.145-.09c0.033-.05.065-0.1,0.1-0.15h0.1c0.048-.06.1-0.12,0.145-0.19h0.1l0.049-.09h0.048c0.016-.03.032-0.07,0.048-0.1h0.1c0.032-.05.064-0.09,0.1-0.14,0.048-.02.1-0.03,0.144-0.05a0.779,0.779,0,0,0,.049-0.1h0.1a1.483,1.483,0,0,0,.1-0.14h0.1v-0.05a0.86,0.86,0,0,0,.145-0.05l0.048-.09h0.1l0.1-.15h0.1l0.048-.09c0.049-.02.1-0.03,0.145-0.05v-0.05h0.1l0.048-.09h0.1a0.945,0.945,0,0,1,.048-0.1h0.1a0.945,0.945,0,0,0,.048-0.1c0.065-.01.129-0.03,0.193-0.04v-0.05c0.049-.02.1-0.03,0.145-0.05a0.937,0.937,0,0,0,.049-0.1h0.1v-0.04h0.1a0.945,0.945,0,0,1,.048-0.1c0.065-.02.129-0.03,0.194-0.05l0.048-.09c0.1-.04.193-0.07,0.29-0.1l0.048-.09c0.1-.04.193-0.07,0.29-0.1a0.945,0.945,0,0,0,.048-0.1l0.773-.33c0.017-.03.033-0.07,0.049-0.1a1.37,1.37,0,0,0,.193-0.05v-0.04c0.1-.04.193-0.07,0.29-0.1v-0.05h0.145l0.048-.09h0.145v-0.05h0.1v-0.05h0.1v-0.05h0.1v-0.05l0.29-.09v-0.05h0.145v-0.05h0.1v-0.05h0.1v-0.04h0.1v-0.05h0.145v-0.05c0.064-.02.129-0.03,0.193-0.05v-0.05h0.145v-0.04a1.407,1.407,0,0,1,.193-0.05v-0.05H208.9v-0.05h0.1v-0.05c0.08-.01.161-0.03,0.242-0.04v-0.05h0.145v-0.05h0.1v-0.05h0.145v-0.04h0.1v-0.05h0.145v-0.05h0.1v-0.05a2.881,2.881,0,0,0,.29-0.05v-0.04A1.172,1.172,0,0,1,210.636,1911Zm21.792,0v2.16a0.831,0.831,0,0,0-.145.05v0.04a2.038,2.038,0,0,1-.242.05v0.05H231.9v0.05h-0.1v0.05h-0.145v0.04h-0.1v0.05h-0.145v0.05l-0.29.09v0.05h-0.1v0.05h-0.145v0.05l-0.29.09v0.05h-0.1v0.05c-0.1.03-.193,0.06-0.29,0.1l-0.048.09h-0.1v0.05h-0.1v0.05h-0.1v0.05h-0.1v0.04h-0.1a0.779,0.779,0,0,1-.049.1c-0.064.02-.128,0.03-0.193,0.05l-0.048.09h-0.1v0.05h-0.1c-0.016.03-.033,0.07-0.049,0.1h-0.1l-0.049.09h-0.1a0.937,0.937,0,0,1-.049.1h-0.1c-0.016.03-.032,0.06-0.049,0.1h-0.1c-0.016.03-.032,0.06-0.049,0.09h-0.1c-0.016.03-.032,0.07-0.048,0.1h-0.1l-0.048.09c-0.049.02-.1,0.03-0.145,0.05-0.033.05-.065,0.1-0.1,0.14h-0.1c-0.048.07-.1,0.13-0.145,0.2h-0.1c-0.049.06-.1,0.12-0.145,0.19h-0.1c-0.08.09-.161,0.19-0.241,0.29h-0.1c-0.274.28-.548,0.57-0.822,0.86l-0.29.24v0.09c-0.112.1-.225,0.2-0.338,0.29v0.1c-0.064.05-.129,0.09-0.193,0.14v0.1c-0.064.05-.129,0.09-0.193,0.14v0.1l-0.145.09v0.1c-0.032.02-.065,0.03-0.1,0.05v0.09a1.176,1.176,0,0,1-.145.1v0.1c-0.032.01-.064,0.03-0.1,0.04-0.017.05-.033,0.1-0.049,0.15H224.7v0.09a0.448,0.448,0,0,1-.1.05v0.1c-0.032.01-.064,0.03-0.1,0.04v0.1c-0.033.02-.065,0.03-0.1,0.05-0.016.06-.032,0.13-0.048,0.19-0.033.02-.065,0.03-0.1,0.05v0.09h-0.048v0.1c-0.032.02-.065,0.03-0.1,0.05-0.032.09-.064,0.19-0.1,0.29-0.032.01-.064,0.03-0.1,0.04v0.1h-0.048v0.1h-0.049v0.09h-0.048v0.1h-0.048v0.09h-0.049v0.1h-0.048c-0.032.1-.065,0.19-0.1,0.29h-0.048v0.14h-0.048c-0.017.06-.033,0.13-0.049,0.19h-0.048v0.15H223.3c-0.017.06-.033,0.12-0.049,0.19H223.2c-0.032.14-.064,0.29-0.1,0.43h-0.048v0.1h-0.048c-0.016.11-.033,0.22-0.049,0.33h-0.048v0.15h-0.048v0.14h-0.049c-0.016.13-.032,0.25-0.048,0.38h-0.048c-0.016.13-.032,0.26-0.049,0.39h-0.048v0.24h-0.048v0.28h-0.049v0.29h-0.048v0.39h-0.048c-0.016.54-.032,1.08-0.048,1.63h0.048v0.33h0.048v0.19h0.048v0.15h0.049c0.016,0.06.032,0.12,0.048,0.19h0.048a0.365,0.365,0,0,1,.1.19c0.064,0.02.129,0.03,0.193,0.05v0.05a0.522,0.522,0,0,0,.435-0.15,1.383,1.383,0,0,0,.194-0.05l0.048-.09h0.1c0.016-.03.032-0.07,0.048-0.1h0.1l0.048-.09a1.37,1.37,0,0,1,.193-0.05c0.016-.03.032-0.07,0.048-0.1a1.383,1.383,0,0,0,.194-0.05v-0.04c0.1-.04.193-0.07,0.29-0.1v-0.05h0.145v-0.04h0.1v-0.05h0.145v-0.05h0.145v-0.05h0.145v-0.05h0.145v-0.04c0.145-.02.29-0.04,0.435-0.05v-0.05c0.241-.02.483-0.03,0.725-0.05a6.265,6.265,0,0,1,1.449-.05v0.05h0.339v0.05h0.241v0.05H228.9v0.05h0.145v0.04h0.145v0.05h0.145v0.05h0.145v0.05h0.144v0.05l0.29,0.09v0.05h0.1v0.05h0.1v0.04c0.1,0.04.193,0.07,0.29,0.1a0.945,0.945,0,0,1,.048.1c0.064,0.01.129,0.03,0.193,0.04a0.779,0.779,0,0,0,.049.1h0.1a1.7,1.7,0,0,0,.1.14h0.1a0.945,0.945,0,0,0,.048.1c0.048,0.02.1,0.03,0.145,0.05,0.048,0.06.1,0.13,0.145,0.19h0.1c0.129,0.14.258,0.29,0.387,0.43l0.435,0.39v0.09c0.08,0.06.161,0.13,0.241,0.19,0.016,0.05.033,0.1,0.049,0.15,0.032,0.01.064,0.03,0.1,0.04v0.1c0.033,0.02.065,0.03,0.1,0.05,0.016,0.05.032,0.09,0.048,0.14h0.049v0.1a0.442,0.442,0,0,1,.1.05v0.09c0.032,0.02.065,0.03,0.1,0.05,0.016,0.06.032,0.13,0.048,0.19,0.032,0.02.065,0.03,0.1,0.05,0.016,0.06.032,0.13,0.048,0.19h0.048c0.017,0.07.033,0.13,0.049,0.19h0.048v0.15h0.048c0.016,0.06.033,0.13,0.049,0.19h0.048l0.048,0.24h0.049v0.19h0.048v0.1h0.048v0.19h0.049v0.19h0.048v0.19h0.048V1932a4.843,4.843,0,0,1,.1,2.06v0.44h-0.048l-0.049.52h-0.048v0.19h-0.048c-0.016.12-.033,0.23-0.049,0.34h-0.048v0.14h-0.048v0.15h-0.049v0.09h-0.048v0.15h-0.048v0.09h-0.049v0.15h-0.048c-0.032.09-.064,0.19-0.1,0.28H233.2v0.1h-0.048c-0.016.06-.032,0.13-0.049,0.19-0.032.02-.064,0.03-0.1,0.05-0.032.1-.065,0.19-0.1,0.29a0.442,0.442,0,0,0-.1.05v0.09c-0.033.02-.065,0.03-0.1,0.05v0.1l-0.145.09v0.1a0.472,0.472,0,0,0-.1.05v0.09c-0.048.03-.1,0.07-0.145,0.1V1938c-0.032.01-.064,0.03-0.1,0.04v0.1l-0.29.24v0.09c-0.129.12-.258,0.23-0.387,0.34a1.7,1.7,0,0,1-.1.14h-0.1c-0.1.12-.193,0.23-0.29,0.34h-0.1c-0.049.06-.1,0.13-0.145,0.19h-0.1l-0.1.15h-0.1c-0.017.03-.033,0.06-0.049,0.09-0.048.02-.1,0.03-0.145,0.05v0.05h-0.1l-0.049.09c-0.1.04-.193,0.07-0.29,0.1a0.945,0.945,0,0,0-.048.1c-0.064.01-.129,0.03-0.193,0.04v0.05c-0.1.03-.193,0.07-0.29,0.1v0.05h-0.145v0.04h-0.1v0.05H229v0.05h-0.1v0.05l-0.435.09v0.05c-0.113.02-.226,0.03-0.338,0.05v0.05h-0.242v0.04h-0.242v0.05H227.4v0.05H226.92a5.308,5.308,0,0,1-2.03-.05H224.6c-0.467-.13-0.934-0.25-1.4-0.38v-0.05c-0.081-.02-0.161-0.03-0.242-0.05v-0.04a1.37,1.37,0,0,0-.193-0.05v-0.05h-0.145v-0.05a1.37,1.37,0,0,1-.193-0.05v-0.04a1.407,1.407,0,0,0-.193-0.05c-0.017-.03-0.033-0.07-0.049-0.1l-0.29-.09a0.945,0.945,0,0,0-.048-0.1c-0.064-.02-0.129-0.03-0.193-0.05-0.016-.03-0.032-0.06-0.049-0.09h-0.1l-0.1-.15h-0.1c-0.017-.03-0.033-0.06-0.049-0.09h-0.1c-0.033-.05-0.065-0.1-0.1-0.15h-0.1c-0.048-.06-0.1-0.13-0.145-0.19h-0.1c-0.049-.06-0.1-0.13-0.145-0.19-0.049-.03-0.1-0.07-0.145-0.1v-0.05h-0.1c-0.08-.09-0.161-0.19-0.241-0.28a0.9,0.9,0,0,1-.339-0.39h-0.1v-0.09l-0.29-.24v-0.1c-0.065-.05-0.129-0.09-0.194-0.14v-0.1l-0.145-.09v-0.1a1.248,1.248,0,0,1-.144-0.1v-0.09c-0.033-.02-0.065-0.03-0.1-0.05v-0.1c-0.032-.01-0.065-0.03-0.1-0.04v-0.1c-0.032-.02-0.064-0.03-0.1-0.05v-0.09c-0.033-.02-0.065-0.03-0.1-0.05-0.016-.06-0.032-0.13-0.048-0.19-0.033-.02-0.065-0.03-0.1-0.05v-0.1h-0.048v-0.09H218.27v-0.1h-0.048v-0.09h-0.048v-0.1h-0.049v-0.1h-0.048v-0.09h-0.048v-0.1H217.98c-0.032-.09-0.064-0.19-0.1-0.29h-0.048v-0.14h-0.049v-0.1h-0.048v-0.14h-0.048v-0.1h-0.049c-0.016-.09-0.032-0.19-0.048-0.28h-0.048v-0.15H217.5v-0.14h-0.048v-0.14H217.4v-0.15h-0.049v-0.19H217.3v-0.14h-0.048v-0.24h-0.049v-0.2h-0.048v-0.19h-0.048v-0.24h-0.049v-0.28h-0.048v-0.29h-0.048v-0.34h-0.049v-0.43h-0.048v-0.62a8.357,8.357,0,0,1,0-2.3v-0.63h0.048v-0.48c0.131-.44.155-1.01,0.29-1.44v-0.24h0.049v-0.19H217.3v-0.19h0.048v-0.19H217.4v-0.19h0.048v-0.19H217.5v-0.15h0.049v-0.14h0.048v-0.15h0.048v-0.14h0.049v-0.19h0.048v-0.1h0.048v-0.14h0.049c0.032-.15.064-0.29,0.1-0.43h0.048v-0.1h0.049v-0.14h0.048c0.016-.07.032-0.13,0.048-0.19h0.049v-0.15h0.048c0.016-.06.032-0.13,0.048-0.19h0.049v-0.14h0.048c0.032-.1.064-0.2,0.1-0.29h0.048v-0.1h0.048v-0.09h0.049v-0.1h0.048v-0.1h0.048v-0.09h0.049v-0.1H218.8v-0.09h0.048v-0.1H218.9v-0.1c0.032-.01.064-0.03,0.1-0.04v-0.1h0.048v-0.09h0.049v-0.1h0.048v-0.1c0.032-.01.065-0.03,0.1-0.04v-0.1h0.048v-0.1c0.032-.01.064-0.03,0.1-0.04,0.016-.07.032-0.13,0.048-0.2,0.032-.01.064-0.03,0.1-0.04v-0.1h0.048c0.016-.05.032-0.1,0.048-0.14a0.448,0.448,0,0,1,.1-0.05v-0.1a0.472,0.472,0,0,0,.1-0.05v-0.09h0.048l0.048-.15c0.032-.01.065-0.03,0.1-0.04v-0.1a1.257,1.257,0,0,0,.145-0.1v-0.09c0.032-.02.064-0.03,0.1-0.05v-0.09l0.193-.15v-0.09a1.176,1.176,0,0,1,.145-0.1v-0.1a2.342,2.342,0,0,0,.193-0.14v-0.1a2.342,2.342,0,0,0,.193-0.14v-0.1c0.113-.09.226-0.19,0.339-0.28v-0.1l0.531-.48a8.632,8.632,0,0,1,1.015-.96c0.08-.09.161-0.19,0.241-0.29h0.1l0.193-.24h0.1c0.048-.06.1-0.12,0.145-0.19h0.1c0.048-.06.1-0.12,0.145-0.19h0.1c0.032-.05.065-0.09,0.1-0.14h0.1c0.033-.05.065-0.1,0.1-0.15h0.1a1.7,1.7,0,0,0,.1-0.14h0.1a0.945,0.945,0,0,0,.048-0.1h0.1c0.032-.04.064-0.09,0.1-0.14h0.1c0.016-.03.032-0.06,0.049-0.1h0.1l0.048-.09h0.1c0.016-.03.032-0.07,0.048-0.1h0.1l0.048-.09h0.1a0.945,0.945,0,0,1,.048-0.1h0.1a0.945,0.945,0,0,0,.048-0.1c0.065-.01.129-0.03,0.194-0.04a0.945,0.945,0,0,1,.048-0.1H226a0.779,0.779,0,0,0,.049-0.1c0.064-.01.129-0.03,0.193-0.04a0.945,0.945,0,0,1,.048-0.1c0.065-.02.129-0.03,0.194-0.05l0.048-.09a1.37,1.37,0,0,1,.193-0.05c0.016-.03.032-0.07,0.049-0.1,0.064-.01.128-0.03,0.193-0.04v-0.05h0.1v-0.05h0.1c0.016-.03.032-0.06,0.049-0.1h0.1v-0.04h0.1v-0.05h0.1v-0.05h0.1v-0.05a1.336,1.336,0,0,0,.193-0.05c0.017-.03.033-0.06,0.049-0.09h0.1v-0.05h0.1v-0.05h0.1v-0.05h0.1v-0.04h0.1v-0.05h0.1v-0.05c0.1-.03.193-0.06,0.289-0.1v-0.04h0.145v-0.05h0.1v-0.05h0.1v-0.05h0.1v-0.05l0.29-.09v-0.05h0.145v-0.05h0.1v-0.05l0.29-.09v-0.05h0.145v-0.05a2.064,2.064,0,0,0,.241-0.05v-0.04a1.383,1.383,0,0,1,.194-0.05v-0.05h0.145v-0.05a1.407,1.407,0,0,0,.193-0.05v-0.04h0.145v-0.05h0.1v-0.05h0.145v-0.05h0.1v-0.04h0.145v-0.05h0.145v-0.05h0.1v-0.05a2.912,2.912,0,0,0,.289-0.05v-0.04A1.172,1.172,0,0,1,232.428,1911Z" transform="translate(-195 -1911)"/>
</svg>
