<svg id="квартира" xmlns="http://www.w3.org/2000/svg" width="120" height="111.97" viewBox="0 0 120 111.97">
  <defs>
    <style>
      .cls-1 {
        fill: #054a91;
      }

      .cls-1, .cls-2 {
        fill-rule: evenodd;
      }

      .cls-2 {
        fill: #4ca6b4;
      }
    </style>
  </defs>
  <path id="Фигура_2" data-name="Фигура 2" class="cls-1" d="M302.016,1290.44H298.5c0.088-7.66-11.475-7.61-11.484,0H283.5l-0.234-1.17c-0.235-.15-0.469-0.31-0.7-0.46v-0.23h-0.468v-0.24a1.961,1.961,0,0,0-2.344,1.4h-0.234v0.7H276a3.414,3.414,0,0,1,.469-2.1,5.2,5.2,0,0,1,2.109-2.79,2.232,2.232,0,0,0,.938-0.47c1.015-.08,2.031-0.16,3.046-0.23,0.8,0.24,1.488.73,2.344,0.93,0.635-2.6,6.317-5.85,10.313-4.43C298.834,1282.63,302.07,1285.51,302.016,1290.44Zm93.984,0h-3.516a5.326,5.326,0,0,0-1.875-4.2c-0.078-.15-0.156-0.31-0.234-0.46a8.2,8.2,0,0,1-1.641-.93l-3.047-.24c-2.566.79-4.7,2.49-4.687,5.83h-3.516l-0.234-1.17a3.5,3.5,0,0,0-1.172-.69c-0.647-.61-1.441.06-2.109,0.23v0.46l-0.469.24v0.93h-3.516a4.9,4.9,0,0,1,1.641-3.96c0.078-.16.156-0.31,0.234-0.47a8.2,8.2,0,0,0,1.641-.93c1.015-.08,2.031-0.16,3.047-0.23v0.23c0.469,0.08.937,0.15,1.406,0.23v0.24c0.234,0.07.469,0.15,0.7,0.23a9.089,9.089,0,0,1,11.25-3.96h0.7v0.23h0.469c0.078,0.15.156,0.31,0.234,0.46l0.938,0.24,0.7,0.93,1.406,1.17A10.906,10.906,0,0,1,396,1290.44Zm-78.75,5.59h37.5v3.73H381v9.09h-3.75v18.88H381v9.09h-3.75v19.12H381v9.09h-3.75v18.88H381v5.59h3.75v3.5h-97.5v-3.5H291v-5.59h3.75v-18.88H291v-9.09h3.75v-19.12H291v-9.09h3.75v-18.88H291v-9.09h26.25v-3.73Zm3.516,3.36v90.11h13.359v-13.28H324.75v-3.5h22.5v3.5h-9.375v13.28h13.359v-90.11H320.766Zm-26.25,3.87v2.1H317.25v-2.1H294.516Zm60.234,0v2.1h22.734v-2.1H354.75Zm-9.375,13.05h-18.75v-10.86h18.75v10.86Zm-47.109-7.46v18.88H317.25v-18.88H298.266Zm31.875,3.97h11.718v-3.88H330.141C330.141,1310.17,330.129,1311.51,330.141,1312.82Zm24.609-3.97v24.48h22.734v-1.87c-1.484-.54-4.2-0.23-6.093-0.23H358.5v-3.26c1.19-.44,3.347-0.24,4.922-0.24h10.312v-18.88H354.75Zm-9.375,22.38h-18.75v-10.88h18.75v10.88Zm-15.234-3.5h11.718v-3.89c-8.36-.01-5.1,0-11.718,0C330.141,1325.02,330.129,1326.43,330.141,1327.73Zm-35.625,5.6H317.25v-2.1h-22.5A6.258,6.258,0,0,0,294.516,1333.33Zm32.109,1.92h18.75v10.95c-5.982.05-12.064,0-18.75,0v-10.95Zm-9.375,20.69v-19.12H298.5c-0.543,1.48-.234,4.18-0.234,6.07v13.09c1.806-.05,4.2-0.04,6.093-0.04H317.25Zm37.5-19.12v19.12h18.984v-18.88c-1.484-.54-4.2-0.24-6.093-0.24H354.75Zm-24.609,5.83c3.827,0.08,7.891-.02,11.718.05,0-4.14.012-2.88,0-4.19-5.506.05-7.517,0.05-11.718,0C330.141,1339.66,330.129,1341.34,330.141,1342.65Zm-3.516,7.69h18.75v10.99c-18.447-.03-0.059-0.03-18.75,0-0.038-.92,0-2.51,0-3.76v-7.23Zm3.516,3.5v4c8.047-.06,2.661-0.04,3.984-0.04,2.5,0,2.37-.01,7.734.04v-4H330.141Zm-35.625,5.59v2.1H313.5v3.5H298.266v18.88H317.25v-24.48H294.516Zm60.234,0v2.1h22.734v-2.1H354.75Zm0,5.6v18.88h18.984v-18.88H354.75Zm-60.234,22.38v2.09H317.25v-2.09H294.516Zm60.234,0v2.09h22.734v-2.09H354.75Z" transform="translate(-276 -1281.03)"/>
  <path id="Фигура_1" data-name="Фигура 1" class="cls-2" d="M302.25,1312.9h11.016v10.94H302.25V1312.9Zm56.484,0H369.75v10.94H358.734V1312.9Zm-45.468,27.94v11.18H302.25v-11.18h11.016Zm45.468,0H369.75v11.18H358.734v-11.18Zm-32.109,24.45h3.75v3.49h-3.75v-3.49Zm7.5,0h3.75v3.49h-3.75v-3.49Zm7.5,0h3.75v3.49h-3.75v-3.49Zm-39.375,3.73h11.016v10.94H302.25v-10.94Zm56.484,0H369.75v10.94H358.734v-10.94Zm-32.109,7.21h7.734v13.28h-7.734v-13.28Zm11.016,0h7.734v13.28h-7.734v-13.28Z" transform="translate(-276 -1281.03)"/>
</svg>
