<svg id="дом" xmlns="http://www.w3.org/2000/svg" width="120" height="113" viewBox="0 0 120 113">
  <defs>
    <style>
      .cls-1 {
        fill: #054a91;
      }

      .cls-1, .cls-2 {
        fill-rule: evenodd;
      }

      .cls-2 {
        fill: #4ca6b4;
      }
    </style>
  </defs>
  <path id="Фигура_2" data-name="Фигура 2" class="cls-1" d="M614.016,1290.52H610.5c0.089-7.73-11.475-7.68-11.484,0H595.5l-0.234-1.17c-0.235-.16-0.469-0.32-0.7-0.47v-0.24h-0.468v-0.23a1.959,1.959,0,0,0-2.344,1.41h-0.234v0.7H588a3.447,3.447,0,0,1,.469-2.11,5.238,5.238,0,0,1,2.109-2.82,2.146,2.146,0,0,0,.938-0.48c1.015-.07,2.031-0.15,3.046-0.23,0.8,0.24,1.488.75,2.344,0.94,0.635-2.62,6.317-5.9,10.313-4.47C610.834,1282.65,614.07,1285.55,614.016,1290.52ZM708,1301.81h-3.516c0-7.66-11.571-7.72-11.484,0h-3.516l-0.234-1.17c-0.906-.53-0.791-0.91-2.344-0.94-0.651.76-1.332,0.68-1.406,2.11h-3.516a5.468,5.468,0,0,1,.469-2.58h0.234v-0.47l0.469-.24v-0.47h0.235c0.156-.24.312-0.47,0.468-0.71a7.828,7.828,0,0,0,1.641-.94c0.937-.07,1.875-0.15,2.812-0.23v0.23h0.938v0.24h0.7v0.23l0.7,0.24c1.263-2.39,5.382-5.68,9.375-4.47H701.2A9.67,9.67,0,0,1,708,1301.81Zm-88.125-5.64h15v3.53q-6.562.1-13.125,0.23v-0.23h-1.875v-3.53Zm-7.5,41.15h-15c-0.476,1.32-.234,3.7-0.234,5.41v47.74h22.734v-45.39c0-.95-0.237-2.74.234-3.29,0.192-.76,2.616-3.14,3.282-3.53v40.92H640.5v-18.81h15v18.81h17.109v-40.92h0.235q1.639,1.77,3.281,3.53v48.68h22.734v-49.15h3.516V1394H593.625v-56.68H588v-4.47q10.546-10.455,21.094-20.93,3.046-3.165,6.093-6.34h26.485v0.23c-0.938.86-1.875,1.73-2.813,2.59-0.156.23-.312,0.47-0.468,0.7H616.828q-12.186,12.345-24.375,24.7h19.688A12.014,12.014,0,0,1,612.375,1337.32Zm95.625,0H679.641v-3.29c1.839-.67,5.221-0.23,7.5-0.23h16.406v-0.24q-9.375-9.285-18.75-18.58l-5.625-5.88H657.609c-1.093-1.17-2.187-2.35-3.281-3.52h26.484l19.922,20.22,7.266,7.05v4.47Zm-60.7-16.69c1.25,0.15,2.5.31,3.75,0.47,3.885,1.55,7.743,6.46,5.625,11.75v0.71h-0.235l-0.468,1.41-0.469.24v0.47l-1.406,1.17c-0.157.24-.313,0.47-0.469,0.71h-0.469c-0.078.16-.156,0.31-0.234,0.47-0.313.08-.625,0.16-0.938,0.23v0.24h-0.468v0.23l-1.407.24v0.23h-4.218v-0.23h-0.7v-0.24h-0.7v-0.23c-0.468-.16-0.937-0.31-1.406-0.47-0.078-.16-0.156-0.31-0.234-0.47h-0.469l-1.172-1.41c-0.234-.16-0.469-0.32-0.7-0.47v-0.47l-0.469-.24c-0.078-.31-0.156-0.63-0.234-0.94h-0.235v-0.47h-0.234l-0.234-1.41h-0.235v-1.88h-0.234c0.156-1.1.312-2.2,0.469-3.29h0.234v-0.47h0.234v-0.71l0.469-.24c0.078-.31.156-0.62,0.235-0.94,0.234-.15.468-0.31,0.7-0.47,0.078-.23.156-0.47,0.234-0.7,1.016-.71,2.031-1.41,3.047-2.12,0.547-.08,1.094-0.16,1.641-0.23v-0.24H647.3v-0.23Zm-1.406,3.99a2.053,2.053,0,0,1-.938.47c-0.078.16-.156,0.32-0.234,0.47H644.25c-0.156.24-.313,0.47-0.469,0.71h-0.234v0.47l-0.469.24v0.47c-2,3.62.337,6.79,3.047,7.99v-10.82h-0.234Zm6.328,9.41a1.994,1.994,0,0,1,.468-0.94h0.235v-0.47h0.234v-0.47h0.235v-0.94h0.234c0.611-2.07-1.009-5.03-1.875-5.65-0.625-.31-1.25-0.62-1.875-0.94v10.82h0.234a2.082,2.082,0,0,1,.938-0.47v-0.23A2.484,2.484,0,0,1,652.219,1334.03Zm-51.094,16.93h14.766v18.58H601.125v-18.58Zm26.25,0h11.016v14.85H627.375v-14.85Zm30.234,0h11.016v14.85c0.222,0-6.534,0-11.016-.03v-14.82Zm22.5,0h14.766v18.58H680.109v-18.58Zm-75.468,3.53v4h7.734v-4h-7.734Zm26.25,0v7.79c4.464,0,2.668-.02,3.984-0.03v-7.76h-3.984Zm30.234,0v7.76c1.25,0,2.734.03,3.984,0.03,0.028-1.99.012-5.59,0-7.79h-3.984Zm22.5,0v4h7.734v-4h-7.734Zm-78.984,7.53v3.99h7.734v-3.99h-7.734Zm78.984,0v3.99h7.734v-3.99h-7.734Zm-39.609,1.88v15.3c2.113,0,5.775.01,7.968,0v-15.3h-7.968Zm-20.625,18.81v7.76h49.218v-7.76H659.25v2.12h-3.516v-2.12H640.266v2.12H636.75v-2.12H623.391Z" transform="translate(-588 -1281)"/>
  <path id="Фигура_1" data-name="Фигура 1" class="cls-2" d="M647.766,1299.56c1.187,0.32,1.807,1.58,2.578,2.35a35.165,35.165,0,0,0,4.218,3.76c0.469,0.55.938,1.09,1.407,1.64,0.7,0.63,1.406,1.25,2.109,1.88v0.47c0.7,0.63,1.406,1.25,2.109,1.88q2.111,2.235,4.219,4.46,1.875,1.65,3.75,3.29v0.47c0.469,0.39.938,0.79,1.406,1.18q1.524,1.635,3.047,3.29l3.047,2.82,0.938,1.17h0.468l1.172,1.41c0.157,0.08.313,0.16,0.469,0.23v0.47c0.391,0.32.781,0.63,1.172,0.94v14.33h-0.234a12.791,12.791,0,0,0-2.344-2.34c-1.563-1.65-3.125-3.29-4.688-4.94h-0.234l-11.953-12.21q-2.109-2.01-4.219-4v-0.23l-5.859-5.64c-0.772-.78-1.39-2.03-2.578-2.35-0.759,1.31-2.234,2.24-3.282,3.29-0.234.31-.468,0.62-0.7,0.94q-3.163,3.045-6.328,6.11l-3.516,3.75q-5.507,5.415-11.015,10.81v0.24q-2.344,2.22-4.688,4.46a11.328,11.328,0,0,1-2.109,2.11v-14.33a12.815,12.815,0,0,0,2.344-2.35q2.577-2.46,5.156-4.93v-0.23l1.875-1.65q3.633-3.75,7.266-7.52a44.759,44.759,0,0,0,5.156-5.4l1.406-1.17c0.7-.79,1.406-1.57,2.109-2.35h0.469c1.25-1.33,2.5-2.67,3.75-4A11.548,11.548,0,0,0,647.766,1299.56Zm-26.016.23h11.016v5.88H621.75v-5.88Zm20.625,47.22h-3.75v-3.52c1.172,0.03,2.5.03,3.75,0C642.4,1344.46,642.386,1345.76,642.375,1347.01Zm3.75-3.52h3.75v3.52h-3.75v-3.52Zm7.5,0h3.75v3.52h-3.75v-3.52ZM633,1384.84h30v5.64H633v-5.64Z" transform="translate(-588 -1281)"/>
</svg>
