<svg id="производство" xmlns="http://www.w3.org/2000/svg" width="120" height="98" viewBox="0 0 120 98">
  <defs>
    <style>
      .cls-1 {
        fill: #054a91;
      }

      .cls-1, .cls-2 {
        fill-rule: evenodd;
      }

      .cls-2 {
        fill: #4ca6b4;
      }
    </style>
  </defs>
  <path id="Фигура_2" data-name="Фигура 2" class="cls-1" d="M1569,1288h4.45v0.24h0.47c0.08,0.15.16,0.31,0.24,0.47,0.46,0.15.93,0.31,1.4,0.47,0.08,0.15.16,0.31,0.24,0.47,0.47,0.16.93,0.31,1.4,0.47,0.08,0.16.16,0.31,0.24,0.47,0.47,0.16.93,0.32,1.4,0.47,0.08,0.16.16,0.32,0.24,0.47,0.47,0.16.94,0.32,1.4,0.47l0.24,0.48c0.47,0.15.94,0.31,1.4,0.47,0.08,0.15.16,0.31,0.24,0.47,0.47,0.16.94,0.31,1.41,0.47,0.07,0.16.15,0.31,0.23,0.47,0.47,0.16.94,0.31,1.41,0.47,0.07,0.16.15,0.32,0.23,0.47h0.47v0.24c0.84,0.47.8,0.09,1.41,0.94h0.23v36.51l1.41,0.48v0.23h0.7v0.24c0.31,0.08.62,0.15,0.94,0.23v0.24h0.7v0.23h0.47v0.24h0.7v0.23h0.47v0.24l1.17,0.24v0.23l0.94,0.24v0.23h0.7v0.24h0.47v0.23h0.7V1337h13.36v-49h4.22v0.24c0.32,0.07.63,0.15,0.94,0.23,0.08,0.16.16,0.32,0.23,0.47,0.47,0.16.94,0.32,1.41,0.47,0.08,0.16.16,0.32,0.24,0.47,0.46,0.16.93,0.32,1.4,0.48,0.08,0.15.16,0.31,0.24,0.47,0.46,0.15.93,0.31,1.4,0.47,0.08,0.16.16,0.31,0.24,0.47,0.47,0.16.93,0.31,1.4,0.47,0.08,0.16.16,0.31,0.24,0.47,0.47,0.16.93,0.32,1.4,0.47,0.08,0.16.16,0.32,0.24,0.47,0.47,0.16.94,0.32,1.4,0.47l0.24,0.48c0.47,0.15.94,0.31,1.4,0.47,0.08,0.15.16,0.31,0.24,0.47a8.333,8.333,0,0,1,1.64.71V1337h15v49H1524v-29.92h24.37v-46.41q-5.73-3.3-11.48-6.59v49h-3.52v-52.77h4.22v0.23c0.32,0.08.63,0.16,0.94,0.24v0.23H1539c0.08,0.16.16,0.32,0.23,0.47l1.41,0.48c0.08,0.15.16,0.31,0.23,0.47,0.47,0.15.94,0.31,1.41,0.47,0.08,0.16.16,0.31,0.24,0.47,0.46,0.16.93,0.31,1.4,0.47,0.08,0.16.16,0.31,0.24,0.47,0.46,0.16.93,0.32,1.4,0.47,0.08,0.16.16,0.32,0.24,0.47,0.47,0.16.93,0.32,1.4,0.48,0.08,0.15.16,0.31,0.24,0.47,0.47,0.15.93,0.31,1.4,0.47,0.08,0.15.16,0.31,0.24,0.47,0.47,0.16.94,0.31,1.4,0.47,0.08,0.16.16,0.31,0.24,0.47a4.148,4.148,0,0,1,1.17.47v48.53c2.4,0,4.04.01,5.86,0v-34.16h4.22v0.24h0.47v0.23h0.7v0.24c0.31,0.08.63,0.16,0.94,0.23v0.24l1.17,0.24v0.23h0.7v0.24c0.32,0.08.63,0.15,0.94,0.23v0.24h0.7v0.23l1.41,0.48V1288Zm3.52,3.77v34.63c3.66,1.82,7.64,3.32,11.48,4.95v-33.22C1572.56,1291.81,1584,1298.11,1572.52,1291.77ZM1614,1337h11.48v-38.63q-5.73-3.3-11.48-6.6V1337Zm-52.73-11.31v56.78h79.21v-41.94H1599v37.93h-3.52v-38.4c-0.62-.23-1.25-0.47-1.87-0.7v-0.24h-0.7v-0.24h-0.47v-0.23h-0.71v-0.24c-0.31-.08-0.62-0.15-0.93-0.23v-0.24h-0.71v-0.23l-0.93-.24v-0.23h-0.71V1337l-1.17-.24v-0.23c-0.31-.08-0.62-0.16-0.94-0.24v-0.23h-0.7v-0.24c-0.31-.08-0.62-0.16-0.94-0.23v-0.24H1584v-0.24h-0.47v-0.23h-0.7v-0.24c-0.31-.07-0.63-0.15-0.94-0.23v-0.24h-0.7v-0.23c-0.32-.08-0.63-0.16-0.94-0.24v-0.23h-0.7v-0.24c-0.39-.08-0.78-0.16-1.18-0.24v-0.23l-0.93-.24v-0.23h-0.71v-0.24c-0.31-.08-0.62-0.15-0.93-0.23v-0.24h-0.71v-0.23l-1.17-.24v-0.24c-0.31-.07-0.62-0.15-0.94-0.23v-0.24h-0.7v-0.23h-0.47v-0.24c-0.78-.23-1.56-0.47-2.34-0.7v-0.24l-0.94-.24v-0.23h-0.7v-0.24c-0.31-.08-0.63-0.15-0.94-0.23v-0.24h-0.7v-0.23h-0.47v-0.24h-0.7v-0.23h-0.47v-0.24c-0.39-.08-0.78-0.16-1.18-0.24v-0.23C1562.67,1326.16,1561.97,1325.93,1561.27,1325.69Zm41.71,18.85h14.77v11.31h-14.77v-11.31Zm18.75,0h14.77c0.02,1.19,0,2.5,0,3.77v7.54h-14.77v-11.31Zm-15.23,3.77v4h7.73c0-1.27.02-2.68,0-4h-7.73Zm18.75,0v4h7.73v-4h-7.73Zm-97.73,11.31v5.88H1539v3.54h-11.48v4H1539v3.54c-1.09.01-2.66,0-3.98,0h-7.5v5.89h30.23v-22.85h-30.23Zm75.46,0.23h14.77v11.07h-14.77v-11.07Zm18.75,0h14.77v11.07h-14.77v-11.07Zm-15.23,3.53v4.01h7.73v-4.01h-7.73Zm18.75,0v4.01h7.73v-4.01h-7.73Z" transform="translate(-1524 -1288)"/>
  <path id="Фигура_1" data-name="Фигура 1" class="cls-2" d="M1576.5,1301.19h3.52v3.77h-3.52C1576.43,1304,1576.49,1302.45,1576.5,1301.19Zm41.48,5.66h3.52v3.76h-3.52v-3.76Zm-41.48,1.88h3.52v3.77h-3.52C1576.47,1311.7,1576.49,1309.99,1576.5,1308.73Zm41.48,5.65h3.52v3.77h-3.52v-3.77Zm-41.48,1.89h3.52v3.77h-3.52C1576.47,1319.04,1576.49,1317.53,1576.5,1316.27Zm-35.63,5.65h3.52v3.77h-3.52v-3.77Zm77.11,0h3.52v3.77h-3.52v-3.77Zm-77.11,7.54h3.52v3.77h-3.52v-3.77Zm0,7.54h3.52v3.77h-3.52V1337Zm35.4,7.54v11.31h-11.02v-11.31c1,0.04,2.49.03,3.75,0h7.27Zm3.98,0h11.25v11.31c-0.9.03-2.49,0-3.75,0h-7.5c0.04-.83,0-2.16,0-3.3C1580.25,1350.28,1580.27,1346.4,1580.25,1344.54Zm-15,15.31h11.02v11.07h-11.02v-11.07Zm15,0h11.25v11.07h-11.25c0.04-.97,0-2.5,0-3.77v-7.3Z" transform="translate(-1524 -1288)"/>
</svg>
