<svg id="big_logo_f" data-name="big logo f" xmlns="http://www.w3.org/2000/svg" width="236" height="69.94" viewBox="0 0 236 69.94">
  <defs>
    <style>
      .cls-1 {
        fill: #fff;
        fill-rule: evenodd;
      }
    </style>
  </defs>
  <path id="w" class="cls-1" d="M197.676,1430.28a0.388,0.388,0,0,0,.108.22h0.055c0.036,0.11.072,0.22,0.109,0.33H198c0.018,0.09.037,0.18,0.055,0.27h0.054v0.11h0.055c0.018,0.07.036,0.15,0.054,0.22h0.054v0.16h0.055c0.018,0.08.036,0.15,0.054,0.22h0.055v0.16h0.055c0.018,0.08.036,0.15,0.054,0.22H198.6v0.17h0.055l0.054,0.21h0.055c0.054,0.19.109,0.37,0.163,0.55h0.055v0.11h0.054v0.16h0.054c0.019,0.08.037,0.15,0.055,0.22H199.2v0.17h0.055c0.018,0.07.036,0.14,0.055,0.21h0.054v0.17h0.054v0.11h0.055l0.054,0.21h0.055v0.17h0.054c0.018,0.07.037,0.14,0.055,0.22h0.054v0.16H199.8v0.11h0.054v0.16h0.054c0.019,0.08.037,0.15,0.055,0.22h0.054v0.17h0.055l0.054,0.21h0.055v0.17h0.054v0.11h0.055v0.16h0.054v0.11H200.4c0.018,0.07.036,0.15,0.054,0.22h0.055v0.16h0.054c0.018,0.08.036,0.15,0.055,0.22h0.054v0.16h0.054v0.11h0.055v0.17h0.054c0.019,0.07.037,0.14,0.055,0.22h0.054v0.16H201v0.11h0.054v0.16h0.055c0.018,0.08.036,0.15,0.054,0.22h0.055v0.17h0.054c0.018,0.07.036,0.14,0.055,0.21h0.054v0.17h0.055v0.11h0.054l0.054,0.21H201.6v0.17h0.054c0.019,0.07.037,0.14,0.055,0.22h0.054v0.16h0.055v0.11h0.054c0.019,0.07.037,0.15,0.055,0.22h0.054v0.16h0.055c0.018,0.07.036,0.15,0.054,0.22h0.055v0.16H202.2c0.018,0.08.036,0.15,0.055,0.22h0.054v0.17h0.054c0.019,0.07.037,0.14,0.055,0.21h0.054v0.17h0.055v0.11h0.054c0.019,0.09.037,0.18,0.055,0.27h0.054v0.16h0.055c0.018,0.08.036,0.15,0.054,0.22h0.055v0.17H202.9c0.018,0.07.036,0.14,0.055,0.21h0.054v0.17h0.055c0.018,0.07.036,0.14,0.054,0.22h0.054v0.16h0.055c0.018,0.07.036,0.15,0.054,0.22h0.055v0.16h0.054c0.019,0.08.037,0.15,0.055,0.22H203.5v0.17h0.055l0.054,0.21h0.055v0.17h0.054v0.11h0.055l0.054,0.21h0.055v0.17h0.054c0.018,0.07.036,0.14,0.054,0.22h0.055v0.16H204.1v0.11h0.055v0.16h0.054c0.018,0.08.037,0.15,0.055,0.22h0.054c0.018,0.09.036,0.18,0.055,0.27h0.054v0.17h0.055c0.018,0.07.036,0.14,0.054,0.22h0.055v0.16h0.054v0.11H204.7v0.16h0.055c0.018,0.08.036,0.15,0.054,0.22h0.055v0.17h0.054v0.11h0.055v0.16h0.054c0.018,0.07.037,0.14,0.055,0.22h0.054v0.16h0.055c0.018,0.07.036,0.15,0.054,0.22H205.3v0.16h0.054c0.018,0.08.036,0.15,0.055,0.22h0.054v0.17h0.054c0.019,0.07.037,0.14,0.055,0.21h0.054v0.17h0.055c0.018,0.07.036,0.14,0.054,0.22h0.055v0.16h0.054c0.018,0.07.037,0.14,0.055,0.22h0.054v0.16h0.055c0.018,0.07.036,0.15,0.054,0.22h0.055v0.16h0.054c0.018,0.08.036,0.15,0.055,0.22h0.054v0.17h0.054c0.019,0.07.037,0.14,0.055,0.21h0.054v0.17H206.5v0.11h0.054c0.018,0.07.037,0.14,0.055,0.22h0.054v0.16h0.055c0.018,0.07.036,0.14,0.054,0.22h0.055v0.16h0.054c0.018,0.08.037,0.15,0.055,0.22h0.054v0.16h0.055c0.018,0.08.036,0.15,0.054,0.22h0.054v0.17h0.055v0.11h0.054c0.019,0.07.037,0.14,0.055,0.21h0.054v0.17h0.055c0.018,0.07.036,0.14,0.054,0.22h0.055v0.16h0.054c0.018,0.07.036,0.15,0.055,0.22H207.7v0.16h0.055c0.018,0.07.036,0.15,0.054,0.22h0.055v0.16h0.054c0.018,0.08.036,0.15,0.054,0.22h0.055v0.17h0.054c0.019,0.07.037,0.14,0.055,0.21h0.054v0.17h0.055c0.018,0.07.036,0.14,0.054,0.22h0.055v0.16h0.054c0.018,0.07.036,0.15,0.055,0.22h0.054v0.16h0.055c0.018,0.07.036,0.15,0.054,0.22h0.055v0.16h0.054v0.11h0.054v0.17h0.055c0.018,0.07.036,0.14,0.054,0.22h0.055v0.16H209c0.018,0.07.037,0.15,0.055,0.22h0.054v0.16h0.055v0.11h0.054v0.16h0.055c0.018,0.08.036,0.15,0.054,0.22h0.055v0.17h0.054v0.1h0.054v0.17h0.055c0.018,0.07.036,0.15,0.054,0.22h0.055v0.16h0.054c0.018,0.07.037,0.15,0.055,0.22h0.054v0.16h0.055c0.018,0.08.036,0.15,0.054,0.22h0.055v0.17h0.054c0.018,0.07.036,0.14,0.055,0.21h0.054v0.17H210.2c0.018,0.07.036,0.14,0.054,0.22h0.054v0.16h0.055c0.018,0.07.036,0.15,0.054,0.22h0.055v0.16h0.054c0.018,0.08.037,0.15,0.055,0.22h0.054v0.17h0.055v0.1h0.054v0.17H210.8c0.018,0.07.036,0.14,0.054,0.22h0.055v0.16h0.054c0.018,0.07.036,0.15,0.054,0.22h0.055v0.16h0.054c0.018,0.07.037,0.15,0.055,0.22h0.054v0.16h0.055c0.018,0.08.036,0.15,0.054,0.22H211.4v0.17h0.054c0.018,0.07.037,0.14,0.055,0.21h0.054v0.17h0.055c0.018,0.07.036,0.14,0.054,0.22h0.055v0.16h0.054c0.018,0.07.036,0.15,0.054,0.22h0.055v0.16h0.054c0.018,0.08.037,0.15,0.055,0.22h0.054v0.17h0.055l0.054,0.21h0.055v0.17h0.054v0.11h0.055v0.16h0.054c0.018,0.07.036,0.15,0.055,0.22h0.054V1465h0.054c0.019,0.07.037,0.15,0.055,0.22h0.054v0.16h0.055c0.018,0.08.036,0.15,0.054,0.22h0.055v0.17h0.054c0.019,0.07.037,0.14,0.055,0.22h0.054v0.16h0.055c0.018,0.07.036,0.14,0.054,0.22h0.055v0.16H213.2c0.018,0.07.036,0.15,0.055,0.22h0.054v0.16h0.054c0.019,0.08.037,0.15,0.055,0.22h0.054v0.17h0.055l0.054,0.21h0.055v0.17h0.054c0.019,0.07.037,0.14,0.055,0.22H213.8v0.16h0.055v0.11h0.054v0.16c1.241,2.76,2.41,5.65,3.649,8.41v0.16h0.055v0.11h0.054v0.17h0.055l0.054,0.21h0.055v0.17h0.054c0.018,0.07.036,0.14,0.055,0.22h0.054v0.16h0.055c0.018,0.07.036,0.15,0.054,0.22h0.054v0.16h0.055c0.018,0.07.036,0.15,0.054,0.22h0.055v0.16h0.054c0.018,0.08.037,0.15,0.055,0.22h0.054v0.17h0.055l0.054,0.21h0.055v0.17H218.7c0.018,0.07.036,0.15,0.055,0.22h0.054v0.16h0.055c0.018,0.07.036,0.15,0.054,0.22h0.054v0.16h0.055v0.11h0.054v0.17h0.055l0.054,0.21h0.055v0.17H219.3c0.018,0.07.036,0.14,0.055,0.22h0.054v0.16h0.055c0.018,0.07.036,0.15,0.054,0.22h0.055v0.16h0.054c0.018,0.08.036,0.15,0.055,0.22h0.054v0.16h0.054c0.019,0.08.037,0.15,0.055,0.22H219.9v0.17h0.055l0.054,0.21h0.055v0.17h0.054c0.018,0.07.036,0.14,0.055,0.22h0.054v0.16h0.055c0.018,0.07.036,0.15,0.054,0.22h0.055v0.16h0.054c0.018,0.08.036,0.15,0.055,0.22h0.054v0.17h0.054v0.1h0.055v0.17h0.054c0.018,0.07.037,0.14,0.055,0.22h0.054v0.16h0.055c0.018,0.07.036,0.15,0.054,0.22h0.055v0.16h0.054c0.018,0.08.036,0.15,0.055,0.22h0.054v0.17h0.055l0.054,0.21h0.055v0.17h0.054c0.018,0.07.036,0.14,0.054,0.22h0.055v0.16h0.054c0.018,0.07.037,0.14,0.055,0.22h0.054v0.16H221.7c0.018,0.07.036,0.15,0.054,0.22H221.8v0.16h0.054c0.018,0.08.036,0.15,0.054,0.22h0.055v0.17h0.055v0.1h0.054v0.17h0.055c0.018,0.07.036,0.14,0.054,0.22h0.054v0.16h0.055c0.018,0.07.036,0.15,0.054,0.22H222.4v0.16h0.054c0.018,0.08.037,0.15,0.055,0.22h0.054v0.17h0.055l0.054,0.21h0.054v0.17h0.055c0.018,0.07.036,0.14,0.055,0.22h0.054v0.16h0.055c0.018,0.07.036,0.14,0.054,0.22h0.054v0.16h0.055c0.018,0.07.036,0.15,0.054,0.22h0.055v0.16h0.054c0.018,0.08.037,0.15,0.055,0.22h0.054v0.17h0.055l0.054,0.21h0.054v0.17H223.6v0.11h0.055c0.018,0.07.036,0.14,0.054,0.22h0.054v0.16h0.055v0.11h0.054v0.16h0.055c0.036,0.11.072,0.22,0.109,0.33h0.054v0.11h0.055v0.11H224.2v0.16h0.055v0.11h0.054v0.11h0.054v0.11h0.055c0.091,0.27.182,0.55,0.272,0.82a0.094,0.094,0,0,0,.055-0.06H224.8c0.018-.07.037-0.14,0.055-0.21h0.054v-0.11h0.055v-0.11h0.054v-0.17h0.055v-0.16h0.054v-0.11h0.054v-0.16h0.055c0.018-.08.036-0.15,0.054-0.22h0.055c0.018-.09.036-0.18,0.054-0.28h0.055v-0.16h0.054c0.018-.07.037-0.14,0.055-0.22h0.054v-0.11h0.055v-0.16h0.054c0.018-.07.036-0.15,0.055-0.22h0.054v-0.16h0.055c0.018-.07.036-0.15,0.054-0.22H226v-0.16h0.055c0.018-.08.036-0.15,0.054-0.22h0.055v-0.17h0.054v-0.11h0.055l0.054-.21h0.055v-0.17h0.054c0.018-.07.037-0.14,0.055-0.22h0.054v-0.16H226.6c0.018-.07.036-0.15,0.054-0.22h0.055v-0.16h0.054v-0.11h0.054c0.019-.07.037-0.15,0.055-0.22h0.054v-0.16h0.055c0.018-.08.036-0.15,0.054-0.22h0.055v-0.16h0.054v-0.12H227.2v-0.16h0.054c0.018-.07.037-0.14,0.055-0.22h0.054v-0.16h0.055c0.018-.07.036-0.15,0.054-0.22h0.055v-0.16h0.054v-0.11h0.054v-0.17h0.055v-0.1h0.054c0.018-.1.037-0.19,0.055-0.28h0.054v-0.16H227.9v-0.11h0.054v-0.16h0.055v-0.11h0.054v-0.17h0.055v-0.11h0.054v-0.16h0.055v-0.11h0.054v-0.16h0.054c0.019-.08.037-0.15,0.055-0.22h0.054v-0.17H228.5v-0.11h0.054v-0.16h0.055c0.018-.07.036-0.14,0.054-0.22h0.055v-0.16h0.054V1484h0.055v-0.16c1.236-2.75,2.413-5.6,3.649-8.36v-0.16h0.054v-0.11h0.055v-0.16h0.054c0.018-.08.037-0.15,0.055-0.22h0.054v-0.16h0.055c0.018-.08.036-0.15,0.054-0.22h0.055v-0.17h0.054v-0.11h0.054v-0.16h0.055c0.018-.07.036-0.15,0.054-0.22h0.055v-0.16h0.054c0.019-.08.037-0.15,0.055-0.22h0.054v-0.16h0.055v-0.11h0.054v-0.17h0.055c0.018-.07.036-0.14,0.054-0.22h0.055v-0.16h0.054c0.018-.07.036-0.15,0.054-0.22h0.055v-0.16h0.054c0.019-.08.037-0.15,0.055-0.22h0.054v-0.16H234v-0.11h0.054v-0.17h0.055c0.018-.07.036-0.14,0.054-0.22h0.055v-0.16h0.054c0.018-.07.037-0.14,0.055-0.22h0.054v-0.16h0.055c0.018-.07.036-0.15,0.054-0.22h0.054v-0.16H234.6c0.018-.08.036-0.15,0.054-0.22h0.055v-0.17h0.054c0.019-.09.037-0.18,0.055-0.27h0.054c0.019-.07.037-0.14,0.055-0.22h0.054v-0.16h0.055c0.018-.07.036-0.15,0.054-0.22h0.055v-0.16H235.2c0.018-.08.036-0.15,0.055-0.22h0.054v-0.17h0.054c0.019-.07.037-0.14,0.055-0.21h0.054v-0.11h0.055v-0.17h0.054c0.019-.07.037-0.14,0.055-0.21h0.054v-0.17h0.055c0.018-.07.036-0.14,0.054-0.22h0.055v-0.16h0.054c0.018-.07.036-0.15,0.055-0.22h0.054v-0.16h0.055v-0.11h0.054v-0.11h0.054v-0.11h0.055l0.054-.27h0.055v-0.17H236.4c0.019-.07.037-0.14,0.055-0.21h0.054v-0.17h0.055v-0.11h0.054v-0.16h0.055a1.272,1.272,0,0,0,.163-0.71h-0.054v-0.17h-0.055l-0.054-.21h-0.055v-0.17h-0.054c-0.018-.07-0.036-0.14-0.055-0.22h-0.054v-0.16H236.4c-0.018-.07-0.036-0.15-0.054-0.22h-0.055v-0.16h-0.054c-0.018-.07-0.036-0.15-0.055-0.22h-0.054v-0.16h-0.054c-0.019-.08-0.037-0.15-0.055-0.22h-0.054v-0.17H235.91v-0.11h-0.054c-0.018-.07-0.037-0.14-0.055-0.21h-0.054v-0.17h-0.055c-0.018-.07-0.036-0.14-0.054-0.22h-0.055v-0.16h-0.054c-0.018-.07-0.036-0.15-0.055-0.22H235.42v-0.16h-0.055c-0.018-.07-0.036-0.15-0.054-0.22h-0.054v-0.16H235.2c-0.018-.08-0.036-0.15-0.054-0.22h-0.055v-0.17h-0.054c-0.018-.07-0.037-0.14-0.055-0.22H234.93v-0.16h-0.055c-0.018-.07-0.036-0.14-0.054-0.22h-0.055v-0.16h-0.054c-0.018-.07-0.036-0.15-0.055-0.22H234.6v-0.16h-0.055c-0.018-.08-0.036-0.15-0.054-0.22H234.44v-0.16h-0.055c-0.018-.08-0.036-0.15-0.054-0.22h-0.055v-0.17h-0.054c-0.018-.07-0.037-0.14-0.055-0.22h-0.054v-0.16h-0.055c-0.018-.07-0.036-0.14-0.054-0.22h-0.055v-0.16H233.9c-0.018-.07-0.036-0.15-0.055-0.22h-0.054v-0.16h-0.055c-0.018-.08-0.036-0.15-0.054-0.22h-0.054v-0.17h-0.055l-0.054-.21h-0.055v-0.17h-0.054c-0.018-.07-0.037-0.14-0.055-0.22H233.3v-0.16h-0.055c-0.018-.07-0.036-0.15-0.054-0.22h-0.055v-0.16h-0.054c-0.018-.07-0.036-0.15-0.055-0.22h-0.054v-0.16h-0.054c-0.019-.08-0.037-0.15-0.055-0.22h-0.054v-0.17h-0.055l-0.054-.21h-0.055v-0.17h-0.054c-0.018-.07-0.037-0.14-0.055-0.22h-0.054v-0.16h-0.055v-0.11H232.37c-0.018-.07-0.036-0.14-0.055-0.22h-0.054v-0.16h-0.055c-0.018-.07-0.036-0.15-0.054-0.22H232.1v-0.16h-0.055c-0.018-.08-0.036-0.15-0.054-0.22h-0.055v-0.17H231.88c-0.018-.07-0.037-0.14-0.055-0.21h-0.054v-0.17h-0.055c-0.018-.07-0.036-0.14-0.054-0.22h-0.055v-0.16h-0.054v-0.11H231.5c-0.018-.07-0.036-0.15-0.054-0.22h-0.055v-0.16h-0.054v-0.11h-0.054v-0.16h-0.055c-0.018-.08-0.036-0.15-0.054-0.22h-0.055v-0.17h-0.054c-0.018-.07-0.037-0.14-0.055-0.21h-0.054v-0.17H230.9c-0.018-.07-0.036-0.14-0.054-0.22H230.79v-0.16h-0.054c-0.018-.07-0.036-0.15-0.055-0.22h-0.054v-0.16h-0.054c-0.019-.08-0.037-0.15-0.055-0.22h-0.054v-0.16h-0.055v-0.11h-0.054v-0.17H230.3c-0.018-.07-0.036-0.14-0.054-0.22h-0.055v-0.16h-0.054c-0.018-.07-0.036-0.15-0.055-0.22h-0.054v-0.16h-0.055c-0.018-.08-0.036-0.15-0.054-0.22h-0.055v-0.16H229.81v-0.11h-0.054v-0.17c-1.408-3.13-2.688-6.4-4.085-9.55v-0.16h-0.055c-0.018-.08-0.036-0.15-0.054-0.22h-0.055v-0.17h-0.054c-0.018-.07-0.037-0.14-0.055-0.22h-0.054v-0.16h-0.055v-0.11h-0.054v-0.16H225.18c-0.018-.08-0.036-0.15-0.054-0.22h-0.054v-0.16h-0.055V1437h-0.054v-0.17h-0.055c-0.018-.07-0.036-0.14-0.054-0.22H224.8v-0.16h-0.054c-0.018-.07-0.037-0.14-0.055-0.22h-0.054q-0.083-.27-0.163-0.54h-0.055v-0.11h-0.055v-0.17h-0.054v-0.11h-0.054v-0.16H224.2c-0.018-.07-0.036-0.15-0.054-0.22h-0.055v-0.16h-0.054v-0.11h-0.055v-0.17h-0.054c-0.018-.07-0.037-0.14-0.055-0.21h-0.054v-0.17h-0.055c-0.018-.07-0.036-0.14-0.054-0.22h-0.054v-0.16H223.6v-0.11h-0.055v-0.16h-0.054v-0.11h-0.054v-0.17h-0.055v-0.1h-0.054v-0.17h-0.055v-0.11H223.22c-0.018-.09-0.037-0.18-0.055-0.27h-0.054v-0.16h-0.055c-0.054-.26-0.109-0.51-0.163-0.77h0.055v-0.33H223v-0.16h0.054v-0.16h0.055a0.971,0.971,0,0,1,.49-0.77,2.05,2.05,0,0,1,1.089-.11,2.094,2.094,0,0,1,1.144.17c0.018,0.03.036,0.07,0.055,0.11a1.764,1.764,0,0,1,.326.38v0.11h0.055v0.11h0.054v0.11h0.055v0.1h0.054v0.11h0.055v0.17h0.054v0.11H226.6c0.018,0.07.036,0.14,0.054,0.22h0.055l0.054,0.27h0.054v0.16h0.055c0.018,0.08.036,0.15,0.054,0.22h0.055v0.16h0.054v0.11h0.055c0.018,0.09.036,0.18,0.054,0.28H227.2v0.16h0.054v0.11h0.055v0.16h0.054v0.11h0.055v0.17h0.054c0.018,0.07.036,0.14,0.055,0.21h0.054v0.17h0.054c0.019,0.07.037,0.14,0.055,0.22h0.054v0.16H227.8c0.018,0.07.036,0.15,0.054,0.22H227.9v0.16h0.054c0.018,0.08.037,0.15,0.055,0.22h0.054v0.17h0.055l0.054,0.21h0.055v0.17h0.054v0.11h0.054v0.16h0.055v0.11h0.054v0.16H228.5c0.018,0.08.036,0.15,0.054,0.22h0.055v0.17h0.054c0.018,0.07.037,0.14,0.055,0.21h0.054v0.17h0.055c0.018,0.07.036,0.14,0.054,0.22h0.055v0.16h0.054c0.018,0.07.036,0.14,0.055,0.22H229.1v0.16h0.054c0.019,0.07.037,0.15,0.055,0.22h0.054v0.16h0.055c0.018,0.08.036,0.15,0.054,0.22h0.055v0.17h0.054c0.018,0.07.037,0.14,0.055,0.21h0.054v0.17h0.055v0.11H229.7v0.16h0.055c0.018,0.07.036,0.15,0.054,0.22h0.054v0.16h0.055c0.018,0.08.036,0.15,0.054,0.22h0.055v0.17h0.054c0.019,0.07.037,0.14,0.055,0.21h0.054v0.17h0.055c0.018,0.07.036,0.14,0.054,0.22h0.055v0.16h0.054c0.018,0.07.037,0.15,0.055,0.22h0.054v0.16h0.055v0.11h0.054v0.16h0.054c0.019,0.08.037,0.15,0.055,0.22h0.054v0.17h0.055l0.054,0.21h0.055v0.17h0.054c0.018,0.07.037,0.14,0.055,0.22h0.054v0.16h0.055c0.018,0.07.036,0.15,0.054,0.22h0.055v0.16h0.054c0.018,0.08.036,0.15,0.054,0.22h0.055v0.17H231.5c0.019,0.07.037,0.14,0.055,0.21h0.054v0.17h0.055v0.11h0.054v0.16h0.055c0.018,0.07.036,0.15,0.054,0.22h0.055v0.16h0.054c0.018,0.08.036,0.15,0.055,0.22h0.054v0.16H232.1c0.018,0.08.036,0.15,0.054,0.22h0.054v0.17h0.055c0.018,0.07.036,0.14,0.054,0.22h0.055v0.16h0.054c0.019,0.07.037,0.14,0.055,0.22h0.054v0.16h0.055c0.018,0.07.036,0.15,0.054,0.22H232.7v0.16h0.054v0.11h0.055v0.17h0.054c0.018,0.07.036,0.14,0.055,0.21h0.054v0.17h0.054c0.019,0.07.037,0.14,0.055,0.22h0.054v0.16h0.055c0.018,0.07.036,0.15,0.054,0.22H233.3v0.16h0.054c0.018,0.08.037,0.15,0.055,0.22h0.054v0.17h0.055l0.054,0.21h0.055v0.17h0.054v0.11h0.054v0.16h0.055c0.018,0.07.036,0.15,0.054,0.22H233.9v0.16h0.054c0.019,0.08.037,0.15,0.055,0.22h0.054v0.16h0.055c0.018,0.08.036,0.15,0.054,0.22h0.055v0.17h0.054c0.018,0.07.037,0.14,0.055,0.22h0.054v0.16h0.055c0.018,0.07.036,0.14,0.054,0.22h0.054v0.16H234.6c0.018,0.07.036,0.15,0.054,0.22h0.055v0.16h0.054v0.11h0.055v0.17c1.9,4.23,3.65,8.65,5.555,12.88v0.16h0.055c0.018,0.08.036,0.15,0.054,0.22h0.055v0.17h0.054c0.018,0.07.036,0.14,0.055,0.21H240.7v0.17h0.055v0.11h0.054c0.018,0.07.036,0.14,0.055,0.22h0.054v0.16h0.054c0.019,0.07.037,0.14,0.055,0.22h0.054v0.16h0.055c0.018,0.07.036,0.15,0.054,0.22h0.055v0.16H241.3v0.11h0.055v0.17h0.054c0.018,0.07.036,0.14,0.055,0.21h0.054v0.17h0.055v0.11h0.054c0.018,0.09.036,0.18,0.055,0.27h0.054v0.16h0.054v0.11h0.055v0.17H241.9v0.11h0.055v0.16h0.054c0.018,0.07.037,0.15,0.055,0.22h0.054v0.16h0.055v0.11h0.054c0.018,0.09.036,0.18,0.055,0.27h0.054v0.17h0.055c0.018,0.07.036,0.14,0.054,0.22H242.5v0.16h0.054v0.11h0.054v0.16h0.055c0.018,0.08.036,0.15,0.054,0.22h0.055v0.17h0.054c0.018,0.07.037,0.14,0.055,0.21h0.054v0.17h0.055c0.018,0.07.036,0.14,0.054,0.22H243.1v0.16h0.054v0.11h0.055c0.018,0.07.036,0.14,0.054,0.22h0.055v0.16h0.054c0.018,0.07.036,0.15,0.054,0.22h0.055v0.16h0.054c0.018,0.08.037,0.15,0.055,0.22h0.054v0.17H243.7v0.1h0.054c0.018,0.08.036,0.15,0.055,0.22h0.054v0.17h0.055c0.018,0.07.036,0.14,0.054,0.22h0.055v0.16h0.054v0.11h0.054c0.019,0.07.037,0.14,0.055,0.22h0.054v0.16H244.3c0.018,0.07.036,0.15,0.054,0.22h0.055v0.16h0.054c0.018,0.07.037,0.15,0.055,0.22h0.054v0.16h0.055c0.018,0.08.036,0.15,0.054,0.22h0.055v0.17h0.054c0.018,0.07.036,0.14,0.055,0.22H244.9v0.16h0.054c0.018,0.07.037,0.14,0.055,0.22h0.054v0.16h0.055v0.11h0.054v0.16h0.055c0.018,0.08.036,0.15,0.054,0.22h0.055v0.17h0.054v0.11h0.055v0.16H245.5c0.018,0.07.036,0.15,0.054,0.22h0.055v0.16h0.055c0.018,0.07.036,0.15,0.054,0.22h0.054v0.16h0.055c0.018,0.08.036,0.15,0.054,0.22h0.055v0.17h0.054c0.018,0.07.037,0.14,0.055,0.21H246.1v0.17h0.055c0.018,0.07.036,0.14,0.054,0.22h0.055v0.16h0.054c0.018,0.07.036,0.15,0.054,0.22h0.055v0.16h0.054c0.019,0.07.037,0.15,0.055,0.22h0.054v0.16h0.055v0.11h0.054v0.17h0.055l0.054,0.21h0.055v0.17h0.054c0.018,0.07.037,0.15,0.055,0.22h0.054v0.16h0.055c0.018,0.07.036,0.15,0.054,0.22h0.054v0.16h0.055c0.018,0.08.036,0.15,0.054,0.22h0.055v0.17H247.4c0.018,0.07.037,0.14,0.055,0.21h0.054V1481h0.055c0.018,0.07.036,0.14,0.054,0.22h0.055v0.16h0.054v0.11h0.055v0.16h0.054c0.018,0.08.036,0.15,0.055,0.22h0.054v0.16H248c0.019,0.08.037,0.15,0.055,0.22h0.054v0.17h0.055l0.054,0.21h0.055v0.17h0.054c0.018,0.07.037,0.14,0.055,0.22h0.054v0.16h0.055c0.018,0.07.036,0.15,0.054,0.22H248.6v0.16h0.054c0.018,0.08.036,0.15,0.055,0.22h0.054v0.17h0.054c0.019,0.07.037,0.14,0.055,0.21h0.054v0.17h0.055v0.11h0.054v0.16h0.055c0.018,0.07.036,0.15,0.054,0.22H249.2v0.16h0.054c0.018,0.08.037,0.15,0.055,0.22h0.054v0.17h0.055l0.054,0.21h0.054v0.17h0.055c0.018,0.07.036,0.14,0.054,0.22h0.055v0.16h0.054c0.018,0.07.037,0.14,0.055,0.22h0.054v0.16h0.055c0.018,0.07.036,0.15,0.054,0.22h0.055v0.16h0.054c0.018,0.08.037,0.15,0.055,0.22h0.054v0.17h0.055l0.054,0.21h0.054v0.17H250.4c0.018,0.07.036,0.14,0.054,0.22h0.055v0.16h0.054c0.018,0.07.037,0.15,0.055,0.22h0.054v0.16h0.055c0.018,0.08.036,0.15,0.054,0.22h0.055v0.16h0.054c0.018,0.08.036,0.15,0.055,0.22H251v0.17h0.054c0.019,0.07.037,0.14,0.055,0.21h0.054v0.17h0.055c0.018,0.07.036,0.14,0.054,0.22h0.055v0.16h0.054c0.018,0.07.037,0.15,0.055,0.22h0.054v0.16h0.055v0.11H251.6c0.018,0.08.037,0.15,0.055,0.22h0.054v0.16h0.055v0.11h0.054c0.018,0.08.036,0.15,0.054,0.22h0.055v0.17h0.054c0.019,0.07.037,0.14,0.055,0.21h0.054v0.17h0.055c0.018,0.07.036,0.14,0.054,0.22h0.055v0.16H252.3c0.018,0.07.037,0.14,0.055,0.22h0.054v0.16h0.055v0.11h0.054v0.16h0.054v0.11h0.055a2.025,2.025,0,0,0,.272.71v-0.05a1.427,1.427,0,0,0,.327-0.55v-0.16h0.055c0.018-.07.036-0.15,0.054-0.22h0.054v-0.16h0.055c0.018-.08.036-0.15,0.054-0.22h0.055v-0.17h0.054c0.019-.07.037-0.14,0.055-0.21h0.054v-0.17h0.055v-0.11h0.054v-0.16h0.055c0.018-.07.036-0.15,0.054-0.22h0.055v-0.16h0.054c0.018-.07.036-0.15,0.055-0.22h0.054v-0.16h0.054c0.019-.08.037-0.15,0.055-0.22h0.054v-0.17h0.055l0.054-.21h0.055v-0.17h0.054c0.019-.07.037-0.14,0.055-0.22h0.054v-0.16H254.7c0.018-.07.036-0.15,0.054-0.22h0.055v-0.16h0.054c0.018-.08.036-0.15,0.055-0.22h0.054v-0.16h0.054c0.019-.08.037-0.15,0.055-0.22h0.054v-0.17h0.055v-0.11h0.054v-0.16H255.3c0.018-.07.036-0.15,0.054-0.22h0.055v-0.16h0.054c0.018-.07.036-0.15,0.055-0.22h0.054v-0.16h0.055v-0.11h0.054V1487h0.055l0.054-.27h0.054c-0.054-.16-0.108-0.33-0.163-0.49h-0.054v-0.16h-0.055c-0.018-.08-0.036-0.15-0.054-0.22h-0.055c-0.018-.1-0.036-0.19-0.054-0.28h-0.055v-0.16H255.3c-0.018-.07-0.036-0.15-0.055-0.22h-0.054v-0.16h-0.055c-0.018-.07-0.036-0.15-0.054-0.22h-0.055v-0.17h-0.054v-0.1h-0.054c-0.019-.08-0.037-0.15-0.055-0.22H254.81v-0.17h-0.055l-0.054-.21h-0.055v-0.17h-0.054c-0.018-.07-0.036-0.14-0.055-0.22h-0.054v-0.16h-0.055v-0.11h-0.054c-0.018-.07-0.036-0.14-0.055-0.22h-0.054v-0.16H254.21c-0.018-.07-0.036-0.15-0.054-0.22H254.1v-0.16h-0.055v-0.11h-0.054c-0.019-.08-0.037-0.15-0.055-0.22h-0.054v-0.17h-0.055v-0.1h-0.054c-0.018-.08-0.036-0.15-0.055-0.22h-0.054v-0.17h-0.055c-0.018-.07-0.036-0.14-0.054-0.22H253.5v-0.16h-0.054c-0.018-.07-0.036-0.14-0.055-0.22h-0.054v-0.16h-0.054c-0.019-.07-0.037-0.15-0.055-0.22h-0.054v-0.16h-0.055c-0.018-.08-0.036-0.15-0.054-0.22h-0.055c-0.054-.18-0.109-0.37-0.163-0.55h-0.055v-0.11H252.74v-0.16h-0.055c-0.018-.07-0.036-0.15-0.054-0.22h-0.055v-0.16h-0.054c-0.018-.07-0.036-0.15-0.054-0.22h-0.055v-0.16h-0.054c-0.018-.08-0.037-0.15-0.055-0.22H252.25v-0.17H252.2c-0.018-.07-0.036-0.14-0.054-0.22h-0.055v-0.16h-0.054c-0.018-.07-0.036-0.14-0.055-0.22h-0.054v-0.16h-0.055c-0.018-.07-0.036-0.15-0.054-0.22H251.76v-0.16h-0.055c-0.018-.08-0.036-0.15-0.054-0.22H251.6v-0.16h-0.054c-0.018-.08-0.037-0.15-0.055-0.22h-0.054v-0.17h-0.055v-0.11h-0.054v-0.16h-0.055c-0.018-.07-0.036-0.15-0.054-0.22H251.16v-0.16h-0.054c-0.018-.07-0.036-0.15-0.055-0.22H251v-0.16h-0.054c-0.019-.08-0.037-0.15-0.055-0.22h-0.054v-0.17h-0.055l-0.054-.21H250.67v-0.17h-0.054c-0.018-.07-0.037-0.14-0.055-0.22h-0.054v-0.16h-0.055c-0.018-.07-0.036-0.15-0.054-0.22h-0.055v-0.16h-0.054c-0.018-.08-0.036-0.15-0.054-0.22H250.18v-0.16h-0.054c-0.018-.08-0.037-0.15-0.055-0.22h-0.054v-0.17h-0.055c-0.018-.07-0.036-0.14-0.054-0.22h-0.055v-0.16H249.8c-0.018-.07-0.037-0.15-0.055-0.22H249.69v-0.16h-0.055v-0.11h-0.054v-0.16c-2.172-4.83-4.147-9.86-6.318-14.69v-0.16h-0.054v-0.11h-0.055v-0.17H243.1c-0.019-.07-0.037-0.14-0.055-0.21h-0.054v-0.17h-0.055c-0.018-.07-0.036-0.14-0.054-0.22h-0.055v-0.16h-0.054c-0.018-.07-0.037-0.15-0.055-0.22h-0.054v-0.16h-0.055c-0.018-.08-0.036-0.15-0.054-0.22H242.5v-0.17h-0.055l-0.054-.21h-0.055v-0.17h-0.054v-0.11h-0.055v-0.16h-0.054c-0.019-.07-0.037-0.15-0.055-0.22h-0.054v-0.16H242.01v-0.11h-0.054v-0.17H241.9l-0.054-.21h-0.055v-0.17h-0.054c-0.018-.07-0.036-0.14-0.054-0.22h-0.055v-0.16h-0.054c-0.019-.07-0.037-0.15-0.055-0.22h-0.054v-0.16h-0.055c-0.018-.07-0.036-0.15-0.054-0.22H241.3v-0.16h-0.054c-0.018-.08-0.037-0.15-0.055-0.22h-0.054v-0.17h-0.055l-0.054-.21h-0.055v-0.17h-0.054c-0.018-.07-0.036-0.14-0.054-0.22h-0.055v-0.16h-0.054v-0.11H240.7v-0.16h-0.054c-0.019-.08-0.037-0.15-0.055-0.22H240.54v-0.17h-0.055l-0.054-.21h-0.055v-0.17h-0.054v-0.11h-0.055v-0.16h-0.054c-0.018-.07-0.036-0.15-0.054-0.22H240.1v-0.16H240.05c-0.019-.08-0.037-0.15-0.055-0.22h-0.054v-0.17h-0.055l-0.054-.21h-0.055v-0.17h-0.054c-0.018-.07-0.037-0.14-0.055-0.22h-0.054v-0.16h-0.055c-0.018-.07-0.036-0.14-0.054-0.22H239.45v-0.16H239.4c-0.018-.07-0.036-0.15-0.054-0.22h-0.055v-0.16h-0.054c-0.019-.08-0.037-0.15-0.055-0.22h-0.054v-0.17h-0.055l-0.054-.21H238.96v-0.17h-0.054c-0.018-.07-0.037-0.14-0.055-0.22H238.8v-0.16h-0.055c-0.018-.07-0.036-0.15-0.054-0.22h-0.055v-0.16h-0.054c-0.018-.08-0.036-0.15-0.054-0.22H238.47v-0.16h-0.054c-0.019-.08-0.037-0.15-0.055-0.22h-0.054v-0.17h-0.055l-0.054-.21h-0.055v-0.17h-0.054c-0.018-.07-0.036-0.14-0.055-0.22H237.98v-0.16h-0.055c-0.018-.07-0.036-0.15-0.054-0.22h-0.055v-0.16h-0.054c-0.018-.08-0.036-0.15-0.054-0.22h-0.055v-0.16H237.6v-0.11h-0.055v-0.17H237.49c-0.019-.07-0.037-0.14-0.055-0.22h-0.054v-0.16h-0.055v-0.11h-0.054v-0.16h-0.055c-0.018-.08-0.036-0.15-0.054-0.22h-0.055v-0.17h-0.054v-0.1H237c-0.018-.09-0.036-0.19-0.054-0.28h-0.054v-0.16c-1.186-2.64-2.209-5.44-3.377-8.08v-0.16h-0.055c-0.018-.08-0.036-0.15-0.054-0.22H233.35v-0.17H233.3c-0.018-.07-0.036-0.14-0.055-0.22h-0.054v-0.16h-0.055v-0.11h-0.054v-0.16h-0.055v-0.11h-0.054v-0.16h-0.054v-0.17H232.86v-0.22h-0.054a2.223,2.223,0,0,1,.163-1.2v-0.16h0.054v-0.11h0.055a0.6,0.6,0,0,1,.381-0.44,3.738,3.738,0,0,1,1.471-.11h0.435v0.06c0.091,0.02.182,0.03,0.273,0.05,0.054,0.08.109,0.15,0.163,0.22h0.055v0.11a0.506,0.506,0,0,0,.109.05c0.036,0.11.072,0.22,0.109,0.33h0.054v0.11h0.054v0.11h0.055c0.036,0.11.073,0.22,0.109,0.33H236.4v0.16h0.055v0.11h0.054v0.16h0.055v0.11h0.054v0.17h0.055c0.018,0.07.036,0.14,0.054,0.22h0.055v0.16h0.054c0.018,0.07.036,0.15,0.055,0.22h0.054v0.16H237c0.019,0.08.037,0.15,0.055,0.22h0.054v0.16h0.055c0.018,0.08.036,0.15,0.054,0.22h0.055v0.17h0.054c0.018,0.07.037,0.14,0.055,0.21h0.054v0.17h0.055v0.11h0.054v0.16H237.6c0.018,0.07.036,0.15,0.054,0.22h0.055v0.16h0.054c0.018,0.08.036,0.15,0.054,0.22h0.055v0.17h0.054c0.018,0.07.037,0.14,0.055,0.21h0.054v0.17h0.055c0.018,0.07.036,0.14,0.054,0.22H238.2v0.16h0.054c0.018,0.07.036,0.15,0.055,0.22h0.054v0.16h0.055v0.11h0.054v0.17h0.055l0.054,0.21h0.054v0.17h0.055c0.018,0.07.036,0.14,0.054,0.22H238.8v0.16h0.054c0.018,0.07.037,0.14,0.055,0.22h0.054v0.16h0.055c0.018,0.07.036,0.15,0.054,0.22h0.055v0.16h0.054c0.018,0.08.036,0.15,0.055,0.22h0.054v0.17h0.055v0.11H239.4v0.16h0.054c0.019,0.07.037,0.14,0.055,0.22h0.054v0.16h0.055c0.018,0.07.036,0.15,0.054,0.22h0.055v0.16h0.054c0.018,0.08.036,0.15,0.055,0.22h0.054v0.17h0.055l0.054,0.21h0.055v0.17H240.1c0.018,0.07.036,0.14,0.055,0.22h0.054v0.16h0.054v0.11h0.055v0.16h0.054c0.018,0.08.037,0.15,0.055,0.22h0.054v0.16h0.055c0.018,0.08.036,0.15,0.054,0.22h0.055v0.17H240.7c0.018,0.07.036,0.14,0.055,0.21h0.054v0.17h0.055c0.018,0.07.036,0.14,0.054,0.22h0.054v0.16h0.055c0.018,0.07.036,0.15,0.054,0.22h0.055v0.16h0.054v0.11h0.055v0.17H241.3c0.018,0.07.037,0.14,0.055,0.21h0.054v0.17h0.055c0.018,0.07.036,0.14,0.054,0.22h0.055v0.16h0.054c0.018,0.07.036,0.15,0.055,0.22h0.054v0.16h0.054c0.019,0.08.037,0.15,0.055,0.22H241.9v0.16h0.055c0.018,0.08.036,0.15,0.054,0.22h0.055v0.17h0.054c0.018,0.07.036,0.14,0.055,0.22h0.054v0.16h0.055v0.11h0.054v0.16h0.055v0.11h0.054v0.16H242.5c0.018,0.08.036,0.15,0.054,0.22h0.054v0.17h0.055v0.11h0.054v0.16h0.055v0.11h0.054v0.16h0.055v0.11h0.054c0.055,0.18.109,0.37,0.164,0.55h0.054c0.018,0.07.036,0.14,0.055,0.22h0.054v0.16h0.055v0.11h0.054c0.018,0.07.036,0.14,0.054,0.22h0.055v0.16h0.054a2,2,0,0,1,.164.44,0.091,0.091,0,0,0,.054-0.06h0.055v-0.16h0.054c0.018-.07.036-0.15,0.055-0.22h0.054v-0.16h0.055c0.018-.08.036-0.15,0.054-0.22h0.054v-0.17h0.055l0.054-.21H244.3v-0.17h0.054c0.018-.07.037-0.14,0.055-0.21h0.054v-0.17h0.055c0.018-.07.036-0.14,0.054-0.22h0.055v-0.16h0.054c0.018-.07.036-0.15,0.055-0.22h0.054v-0.16h0.055v-0.11H244.9V1446h0.054c0.018-.07.037-0.14,0.055-0.21h0.054v-0.17h0.055c0.018-.07.036-0.14,0.054-0.22h0.055v-0.16h0.054c0.018-.07.037-0.14,0.055-0.22h0.054v-0.16h0.055c0.018-.07.036-0.15,0.054-0.22h0.054v-0.16c1.44-3.2,2.76-6.53,4.194-9.72v-0.16H249.8c0.018-.08.036-0.15,0.054-0.22h0.055v-0.17h0.054c0.018-.07.037-0.14,0.055-0.22h0.054v-0.16h0.055c0.018-.07.036-0.15,0.054-0.22h0.055v-0.16h0.054v-0.11h0.054v-0.17H250.4l0.054-.21h0.055v-0.17h0.054c0.018-.07.037-0.14,0.055-0.22h0.054v-0.16h0.055c0.018-.07.036-0.14,0.054-0.22h0.055v-0.16h0.054v-0.11h0.055v-0.16H251c0.018-.08.036-0.15,0.054-0.22h0.055v-0.17h0.054c0.037-.11.073-0.22,0.109-0.32h0.055v-0.11h0.054c0.037-.11.073-0.22,0.109-0.33l0.109-.06v-0.11c0.055-.03.109-0.07,0.164-0.1,0.018-.06.036-0.11,0.054-0.17h0.109v-0.05h0.109v-0.06h0.436a4.594,4.594,0,0,1,1.252.06h0.218v0.05a1.471,1.471,0,0,1,.708,1.04v0.33H254.7v0.38h-0.055l-0.054.33h-0.055v0.11h-0.054c-0.018.11-.036,0.21-0.055,0.32h-0.054v0.11h-0.055v0.17h-0.054v0.11H254.21l-0.054.27H254.1v0.16h-0.055v0.11h-0.054v0.17h-0.055v0.1h-0.054v0.17h-0.055l-0.054.27H253.72v0.11h-0.054v0.17h-0.055l-0.054.21H253.5v0.17h-0.054c-0.018.07-.036,0.14-0.055,0.22h-0.054v0.16h-0.054c-0.019.07-.037,0.14-0.055,0.22h-0.054v0.16h-0.055v0.11h-0.054v0.16h-0.055c-0.018.08-.036,0.15-0.054,0.22H252.9v0.17h-0.054c-0.018.07-.036,0.14-0.055,0.21H252.74v0.17h-0.055v0.11h-0.054v0.16h-0.055v0.11h-0.054v0.16h-0.054v0.11h-0.055v0.17h-0.054c-0.018.07-.037,0.14-0.055,0.22H252.25v0.16H252.2c-0.018.07-.036,0.14-0.054,0.22h-0.055v0.16h-0.054v0.11h-0.055v0.16h-0.054c-0.018.08-.036,0.15-0.055,0.22h-0.054v0.17H251.76c-0.019.07-.037,0.14-0.055,0.21h-0.054v0.17H251.6v0.11h-0.054v0.16h-0.055c-0.018.07-.036,0.15-0.054,0.22h-0.055v0.16h-0.054c-0.018.08-.036,0.15-0.055,0.22h-0.054v0.17H251.16l-0.054.21h-0.055v0.17H251v0.11h-0.054v0.16h-0.055c-0.018.07-.036,0.15-0.054,0.22h-0.055v0.16h-0.054c-0.018.07-.037,0.15-0.055,0.22h-0.054c-0.055.18-.109,0.37-0.164,0.55H250.4v0.11h-0.055v0.16h-0.054c-0.018.07-.036,0.15-0.054,0.22H250.18v0.16h-0.054V1443h-0.055v0.17h-0.054c-0.018.07-.037,0.14-0.055,0.21h-0.054v0.17h-0.055c-0.018.07-.036,0.14-0.054,0.22h-0.055c-0.054.18-.109,0.36-0.163,0.54h-0.055v0.11h-0.054v0.16h-0.054c-0.019.08-.037,0.15-0.055,0.22h-0.054v0.17h-0.055v0.11H249.2v0.16h-0.055c-0.018.07-.036,0.15-0.054,0.22h-0.055v0.16h-0.054v0.11h-0.055c-0.018.07-.036,0.15-0.054,0.22h-0.055v0.16h-0.054c-0.018.08-.036,0.15-0.054,0.22h-0.055v0.17H248.6c-0.019.07-.037,0.14-0.055,0.21h-0.054v0.17h-0.055v0.11h-0.054c-0.018.07-.037,0.14-0.055,0.22h-0.054v0.16h-0.055c-0.018.07-.036,0.14-0.054,0.22H248.11v0.16h-0.054c-0.018.07-.036,0.15-0.055,0.22h-0.054v0.16h-0.054c-0.019.08-.037,0.15-0.055,0.22h-0.054v0.11h-0.055v0.16h-0.054c-0.018.08-.037,0.15-0.055,0.22h-0.054v0.17h-0.055l-0.054.27H247.4c-0.018.07-.036,0.14-0.054,0.22h-0.055v0.16h-0.054v0.11h-0.055v0.17H247.13l-0.054.21h-0.055v0.17h-0.054v0.11h-0.055v0.16h-0.054c-0.018.09-.037,0.18-0.055,0.27h-0.054v0.11h-0.055v0.17H246.64c-0.055.16-.109,0.32-0.164,0.49h-0.054c-0.018.07-.036,0.14-0.055,0.22h-0.054v0.16h-0.054c-0.019.07-.037,0.15-0.055,0.22H246.15v0.16H246.1q-0.108.33-.218,0.66h-0.054c-0.037.16-.073,0.32-0.109,0.49h0.054c0.018,0.11.037,0.22,0.055,0.33h0.054v0.1h0.055v0.17h0.054c0.018,0.07.037,0.14,0.055,0.22H246.1v0.16h0.055c0.018,0.07.036,0.15,0.054,0.22h0.055v0.16h0.054c0.018,0.07.036,0.15,0.054,0.22h0.055v0.16h0.054c0.019,0.08.037,0.15,0.055,0.22h0.054v0.17h0.055v0.11h0.054c0.018,0.07.037,0.14,0.055,0.21H246.8v0.17h0.055v0.11h0.054c0.018,0.07.037,0.14,0.055,0.22h0.054v0.16h0.055c0.018,0.07.036,0.15,0.054,0.22h0.054v0.16h0.055c0.018,0.07.036,0.15,0.054,0.22h0.055v0.16H247.4v0.11h0.055v0.17h0.054c0.018,0.07.037,0.14,0.055,0.21h0.054v0.17h0.055v0.11h0.054v0.16h0.055c0.018,0.07.036,0.15,0.054,0.22h0.055v0.16h0.054c0.018,0.08.036,0.15,0.054,0.22h0.055v0.17h0.054c0.019,0.07.037,0.14,0.055,0.21h0.054v0.17h0.055c0.018,0.07.036,0.14,0.054,0.22h0.055v0.16h0.054v0.11h0.055c0.018,0.07.036,0.14,0.054,0.22H248.6v0.16h0.054c0.018,0.08.036,0.15,0.055,0.22h0.054v0.16h0.054c0.019,0.08.037,0.15,0.055,0.22h0.054v0.17h0.055l0.054,0.21h0.055v0.17h0.054c0.018,0.07.037,0.14,0.055,0.22h0.054v0.16h0.055c0.018,0.07.036,0.15,0.054,0.22h0.055v0.16h0.054c0.018,0.08.036,0.15,0.054,0.22h0.055v0.16h0.054v0.11h0.055v0.17h0.054c0.018,0.07.037,0.14,0.055,0.22h0.054v0.16h0.055c0.018,0.07.036,0.15,0.054,0.22h0.055v0.16h0.054c0.018,0.07.037,0.15,0.055,0.22h0.054v0.16h0.055c0.018,0.08.036,0.15,0.054,0.22h0.054v0.17H250.4l0.054,0.21h0.055v0.17h0.054c0.018,0.07.037,0.14,0.055,0.22h0.054v0.16h0.055c0.018,0.07.036,0.15,0.054,0.22h0.055v0.16h0.054c0.018,0.08.036,0.15,0.055,0.22H251v0.17h0.054c0.019,0.07.037,0.14,0.055,0.21h0.054v0.17h0.055v0.11h0.054v0.16h0.055c0.018,0.07.036,0.15,0.054,0.22h0.055v0.16h0.054c0.018,0.07.037,0.15,0.055,0.22H251.6v0.16h0.055c0.018,0.08.036,0.15,0.054,0.22h0.055v0.17h0.054l0.054,0.21h0.055v0.17h0.054c0.019,0.07.037,0.14,0.055,0.22h0.054v0.16h0.055c0.018,0.07.036,0.15,0.054,0.22h0.055v0.16H252.3c0.018,0.08.037,0.15,0.055,0.22h0.054v0.16h0.055c0.018,0.08.036,0.15,0.054,0.22h0.054v0.17h0.055v0.11h0.054c0.019,0.07.037,0.14,0.055,0.21h0.054v0.17h0.055c0.018,0.07.036,0.14,0.054,0.22h0.055v0.16h0.054c0.018,0.07.037,0.15,0.055,0.22h0.054v0.16h0.055c0.018,0.08.036,0.15,0.054,0.22h0.055v0.16h0.054c0.018,0.08.036,0.15,0.054,0.22h0.055v0.17H253.5c0.019,0.07.037,0.14,0.055,0.22h0.054v0.16h0.055c0.018,0.07.036,0.14,0.054,0.22h0.055v0.16h0.054c0.018,0.07.037,0.15,0.055,0.22h0.054v0.16h0.055v0.11h0.054l0.327,0.99h0.054c0.019,0.07.037,0.14,0.055,0.21h0.054v0.17h0.055c0.018,0.07.036,0.14,0.054,0.22H254.7v0.16h0.054c0.018,0.07.036,0.15,0.055,0.22h0.054v0.16h0.055c0.018,0.07.036,0.15,0.054,0.22h0.054v0.16h0.055c0.018,0.08.036,0.15,0.054,0.22h0.055v0.17h0.054c0.019,0.07.037,0.14,0.055,0.21h0.054v0.17h0.055v0.11h0.054c0.018,0.07.036,0.14,0.055,0.22h0.054v0.16h0.055c0.018,0.07.036,0.15,0.054,0.22h0.055v0.16h0.054c0.018,0.07.036,0.15,0.054,0.22H255.9v0.16h0.054c0.019,0.08.037,0.15,0.055,0.22h0.054v0.17h0.055l0.054,0.21h0.055v0.17h0.054v0.11h0.055c0.018,0.07.036,0.14,0.054,0.22h0.055v0.16H256.5c0.018,0.07.036,0.15,0.055,0.22h0.054v0.16h0.054c0.019,0.07.037,0.15,0.055,0.22h0.054v0.16h0.055c0.018,0.08.036,0.15,0.054,0.22h0.055v0.17h0.054v0.1h0.055v0.17H257.1c0.018,0.07.036,0.14,0.055,0.22h0.054v0.16h0.055c0.018,0.07.036,0.15,0.054,0.22h0.054v0.16h0.055v0.11h0.054v0.17h0.055v0.1h0.054v0.17h0.055v0.11H257.7c0.018,0.11.037,0.22,0.055,0.33h0.054c0.062,0.06,0,.02.109,0.05,0.036-.16.073-0.33,0.109-0.49h0.055v-0.17h0.054l0.054-.21h0.055c0.018-.09.036-0.19,0.054-0.28h0.055v-0.11H258.4v-0.16h0.055c0.018-.07.036-0.14,0.054-0.22h0.055v-0.16h0.054c0.018-.07.036-0.15,0.055-0.22h0.054c0.055-.18.109-0.36,0.164-0.55h0.054v-0.11H259v-0.16h0.055c0.018-.07.036-0.14,0.054-0.22h0.055v-0.16h0.054c0.018-.07.037-0.15,0.055-0.22h0.054v-0.16h0.055c0.018-.07.036-0.15,0.054-0.22h0.055v-0.17h0.054c0.018-.07.036-0.14,0.055-0.21h0.054v-0.17h0.055v-0.11h0.054v-0.16h0.054c0.019-.07.037-0.15,0.055-0.22h0.054v-0.16h0.055c0.018-.07.036-0.15,0.054-0.22h0.055v-0.16h0.054c0.018-.08.036-0.15,0.055-0.22h0.054v-0.17h0.055l0.054-.21h0.055v-0.17h0.054c0.018-.07.036-0.14,0.055-0.22h0.054v-0.16h0.054v-0.11h0.055v-0.16h0.054c0.018-.08.037-0.15,0.055-0.22h0.054v-0.17h0.055l0.054-.21h0.055v-0.17h0.054c0.018-.07.036-0.14,0.055-0.22h0.054v-0.16h0.055c0.018-.07.036-0.15,0.054-0.22h0.055v-0.16H261.4c0.018-.08.036-0.15,0.054-0.22h0.055v-0.16h0.054v-0.11h0.055v-0.17h0.054c0.018-.07.037-0.14,0.055-0.22h0.054v-0.16h0.055c0.018-.07.036-0.15,0.054-0.22h0.055v-0.16H262c0.018-.08.036-0.15,0.055-0.22h0.054v-0.16h0.055c0.018-.08.036-0.15,0.054-0.22h0.054v-0.17h0.055c0.018-.07.036-0.14,0.054-0.22h0.055c0.054-.18.109-0.36,0.163-0.54h0.055v-0.11h0.054v-0.16h0.055c0.018-.08.036-0.15,0.054-0.22h0.055v-0.17h0.054l0.054-.21h0.055v-0.17h0.054c0.018-.07.037-0.14,0.055-0.22H263.2v-0.16h0.055c0.018-.07.036-0.14,0.054-0.22h0.055v-0.16h0.054v-0.11h0.055v-0.17h0.054c0.018-.07.036-0.14,0.055-0.21h0.054v-0.17h0.055c0.018-.07.036-0.14,0.054-0.22H263.8v-0.16h0.055c0.018-.07.036-0.15,0.054-0.22h0.055v-0.16h0.054v-0.11h0.055v-0.16h0.054c0.018-.08.037-0.15,0.055-0.22h0.054v-0.17h0.055v-0.11h0.054v-0.16H264.4c0.018-.07.036-0.15,0.054-0.22H264.5v-0.16h0.055c0.018-.07.036-0.15,0.054-0.22h0.055v-0.16h0.054v-0.11h0.055v-0.17h0.054c0.018-.07.037-0.14,0.055-0.21h0.054c0.018-.1.037-0.19,0.055-0.28h0.054v-0.16c1.9-4.22,3.663-8.61,5.556-12.83v-0.16h0.054v-0.11h0.054v-0.17h0.055c0.018-.07.036-0.14,0.054-0.22h0.055v-0.16h0.054v-0.11h0.055v-0.16h0.054c0.018-.08.037-0.15,0.055-0.22h0.054v-0.16H271.2v-0.11h0.054v-0.17h0.055c0.018-.07.036-0.14,0.054-0.22h0.054c0.019-.09.037-0.18,0.055-0.27h0.054v-0.16h0.055v-0.11h0.054v-0.17c1.08-2.4,2.081-4.91,3.159-7.31v-0.17h0.055l0.054-.21h0.055v-0.17h0.054c0.018-.07.037-0.14,0.055-0.22h0.054v-0.16h0.055c0.018-.07.036-0.14,0.054-0.22h0.055v-0.16h0.054v-0.11H275.4v-0.16h0.055c0.018-.08.036-0.15,0.054-0.22h0.055v-0.17h0.054c0.019-.07.037-0.14,0.055-0.21h0.054v-0.17h0.055c0.018-.07.036-0.14,0.054-0.22h0.055v-0.16h0.054c0.018-.07.036-0.15,0.055-0.22h0.054v-0.16h0.055v-0.11h0.054v-0.17h0.054c0.019-.07.037-0.14,0.055-0.21h0.054v-0.17h0.055c0.018-.07.036-0.14,0.054-0.22h0.055v-0.16h0.054c0.018-.07.037-0.15,0.055-0.22h0.054v-0.16h0.055c0.018-.08.036-0.15,0.054-0.22h0.055v-0.16h0.054V1437h0.055v-0.17h0.054c0.018-.07.036-0.14,0.054-0.22h0.055v-0.16h0.054c0.019-.07.037-0.14,0.055-0.22h0.054v-0.16H277.3c0.018-.07.036-0.15,0.054-0.22h0.055v-0.16h0.054c0.018-.08.036-0.15,0.055-0.22h0.054v-0.17h0.055v-0.1h0.054v-0.17h0.055c0.018-.07.036-0.14,0.054-0.22h0.054v-0.16H277.9c0.018-.07.036-0.15,0.054-0.22h0.055v-0.16h0.054c0.018-.08.037-0.15,0.055-0.22h0.054v-0.17h0.055l0.054-.21h0.055v-0.17h0.054c0.018-.07.036-0.14,0.055-0.22H278.5v-0.16h0.055v-0.11h0.054v-0.16h0.054c0.019-.08.037-0.15,0.055-0.22h0.054v-0.16h0.055v-0.11h0.054v-0.17h0.055c0.018-.07.036-0.14,0.054-0.22h0.055v-0.16H279.1v-0.11h0.055v-0.16h0.054v-0.11h0.055v-0.17h0.054c0.036-.11.073-0.21,0.109-0.32h0.054a1.041,1.041,0,0,1,.545-0.71,3.919,3.919,0,0,1,2.179-.06v0.06l0.272,0.21a0.466,0.466,0,0,0,.109.22v1.97h-0.054v0.16h-0.055v0.17h-0.054v0.16h-0.055v0.16h-0.054v0.11H282.26v0.17h-0.054v0.11h-0.055v0.16H282.1v0.11h-0.055v0.16h-0.054v0.11h-0.055v0.17h-0.054c-0.018.07-.036,0.14-0.055,0.22H281.77v0.16h-0.054v0.11h-0.055v0.16h-0.054c-0.019.07-.037,0.15-0.055,0.22H281.5v0.16h-0.055c-0.018.08-.036,0.15-0.054,0.22h-0.055v0.17H281.28v0.1h-0.055c-0.018.1-.036,0.19-0.054,0.28h-0.055v0.16h-0.054c-0.018.07-.036,0.15-0.055,0.22h-0.054v0.16H280.9v0.11h-0.055V1437H280.79c-0.019.07-.037,0.14-0.055,0.21h-0.054v0.17h-0.055v0.11h-0.054c-0.018.09-.037,0.18-0.055,0.27h-0.054v0.16h-0.055c-0.018.08-.036,0.15-0.054,0.22H280.3v0.17h-0.054v0.11h-0.054c-0.019.09-.037,0.18-0.055,0.27h-0.054v0.16h-0.055c-0.018.08-.036,0.15-0.054,0.22h-0.055v0.16h-0.054v0.11h-0.055v0.17h-0.054c-0.018.07-.037,0.14-0.055,0.22h-0.054c-0.018.09-.036,0.18-0.055,0.27h-0.054v0.16h-0.055v0.11h-0.054v0.17c-1.36,3.02-2.567,6.2-3.922,9.22v0.17h-0.054v0.11H275.4v0.16h-0.054c-0.018.07-.036,0.14-0.054,0.22h-0.055v0.16H275.18c-0.019.07-.037,0.15-0.055,0.22h-0.054v0.16h-0.055v0.11h-0.054v0.17h-0.055l-0.054.21H274.8c-0.018.09-.036,0.19-0.054,0.28h-0.055v0.16h-0.054v0.11H274.58v0.16h-0.054c-0.018.08-.036,0.15-0.054,0.22h-0.055v0.17h-0.054v0.11h-0.055v0.16h-0.054c-0.018.07-.037,0.15-0.055,0.22h-0.054v0.16H274.09v0.11h-0.054v0.16h-0.055v0.11h-0.054c-0.018.08-.036,0.15-0.055,0.22h-0.054v0.17h-0.054c-0.019.07-.037,0.14-0.055,0.21h-0.054v0.17H273.6c-0.018.07-.036,0.14-0.054,0.22h-0.055v0.16h-0.054c-0.018.07-.037,0.15-0.055,0.22h-0.054v0.16h-0.055v0.11h-0.054c-0.018.09-.036,0.18-0.055,0.27H273.11v0.17h-0.055c-0.018.07-.036,0.14-0.054,0.22h-0.054v0.16h-0.055v0.11h-0.054v0.16h-0.055c-0.018.08-.036,0.15-0.054,0.22h-0.055l-0.054.27h-0.055v0.17h-0.054c-0.018.07-.036,0.14-0.055,0.22H272.4v0.16h-0.055c-0.018.07-.036,0.15-0.054,0.22h-0.055v0.16h-0.054c-0.018.08-.036,0.15-0.054,0.22h-0.055v0.16h-0.054c-0.018.08-.037,0.15-0.055,0.22h-0.054v0.17h-0.055l-0.054.21h-0.055v0.17h-0.054c-0.018.07-.036,0.14-0.055,0.22h-0.054v0.16H271.53v0.11h-0.054v0.16h-0.055c-0.018.08-.036,0.15-0.054,0.22h-0.054v0.17h-0.055l-0.054.21h-0.055v0.17H271.1v0.11H271.04v0.16h-0.054c-0.018.07-.036,0.15-0.055,0.22h-0.054v0.16h-0.055c-0.018.08-.036,0.15-0.054,0.22h-0.055v0.17h-0.054l-0.054.21H270.55v0.17H270.5v0.11h-0.055v0.16h-0.054c-0.018.07-.037,0.15-0.055,0.22h-0.054v0.16h-0.055c-0.018.08-.036,0.15-0.054,0.22h-0.055v0.16H270.06v0.11h-0.055v0.17h-0.054c-0.018.07-.036,0.14-0.055,0.22h-0.054v0.16h-0.054v0.11h-0.055v0.16c-1.887,4.2-3.618,8.58-5.5,12.78v0.16h-0.054v0.11h-0.055v0.16h-0.054c-0.018.08-.037,0.15-0.055,0.22H263.96v0.17H263.9l-0.054.21H263.8v0.17h-0.054c-0.018.07-.036,0.14-0.054,0.22h-0.055v0.16h-0.054c-0.019.07-.037,0.15-0.055,0.22H263.47v0.16h-0.055c-0.018.07-.036,0.15-0.054,0.22h-0.055v0.16h-0.054c-0.018.08-.037,0.15-0.055,0.22h-0.054v0.17h-0.055v0.11h-0.054v0.16h-0.055c-0.018.07-.036,0.15-0.054,0.22h-0.054v0.16h-0.055c-0.018.07-.036,0.15-0.054,0.22h-0.055v0.16h-0.054c-0.019.08-.037,0.15-0.055,0.22h-0.054v0.17h-0.055v0.11h-0.054c-0.018.07-.037,0.14-0.055,0.21h-0.054V1481h-0.055c-0.018.07-.036,0.14-0.054,0.22h-0.054v0.16h-0.055c-0.018.07-.036,0.15-0.054,0.22H262v0.16h-0.054c-0.019.08-.037,0.15-0.055,0.22h-0.054v0.16h-0.055c-0.018.08-.036,0.15-0.054,0.22h-0.055v0.17h-0.054c-0.018.07-.037,0.14-0.055,0.21h-0.054v0.17h-0.055c-0.018.07-.036,0.14-0.054,0.22h-0.054v0.16h-0.055c-0.018.07-.036,0.15-0.054,0.22h-0.055v0.16h-0.054c-0.019.08-.037,0.15-0.055,0.22h-0.054v0.16h-0.055c-0.018.08-.036,0.15-0.054,0.22h-0.055v0.17H260.8c-0.018.07-.037,0.14-0.055,0.21h-0.054v0.17h-0.055c-0.018.07-.036,0.15-0.054,0.22h-0.054v0.16h-0.055v0.11H260.42c-0.019.07-.037,0.15-0.055,0.22h-0.054v0.16h-0.055c-0.018.07-.036,0.15-0.054,0.22h-0.055v0.17h-0.054c-0.018.07-.037,0.14-0.055,0.21h-0.054v0.17h-0.055c-0.018.07-.036,0.14-0.054,0.22H259.82v0.16h-0.054c-0.018.07-.036,0.14-0.054,0.22h-0.055v0.16H259.6c-0.019.07-.037,0.15-0.055,0.22h-0.054v0.16h-0.055c-0.018.08-.036,0.15-0.054,0.22H259.33v0.16h-0.054c-0.018.08-.037,0.15-0.055,0.22h-0.054v0.17h-0.055c-0.018.07-.036,0.14-0.054,0.22H259v0.16h-0.054c-0.018.07-.036,0.14-0.054,0.22H258.84v0.16h-0.054c-0.019.07-.037,0.15-0.055,0.22h-0.054v0.16h-0.055v0.11h-0.054c-0.018.08-.037,0.15-0.055,0.22h-0.054v0.17H258.4l-0.054.21H258.3v0.17h-0.054c-0.018.07-.036,0.14-0.055,0.22h-0.054v0.16h-0.054c-0.019.07-.037,0.15-0.055,0.22h-0.054v0.16h-0.055c-0.018.07-.036,0.15-0.054,0.22h-0.055v0.16h-0.054c-0.018.08-.037,0.15-0.055,0.22h-0.054v0.17h-0.055l-0.054.21h-0.055v0.17h-0.054c-0.018.07-.036,0.14-0.055,0.22h-0.054v0.16h-0.054c-0.019.07-.037,0.15-0.055,0.22h-0.054v0.16H257.1c-0.018.07-.036,0.15-0.054,0.22h-0.055v0.16h-0.054c-0.018.08-.036,0.15-0.055,0.22h-0.054v0.17H256.77v0.11h-0.054c-0.018.07-.036,0.14-0.055,0.21h-0.054v0.17h-0.054c-0.019.07-.037,0.14-0.055,0.22h-0.054v0.16h-0.055v0.11h-0.054v0.16H256.28c-0.018.08-.036,0.15-0.054,0.22h-0.055v0.16h-0.054v0.11h-0.055v0.17h-0.054c-0.018.07-.036,0.14-0.055,0.22H255.9v0.16h-0.055v0.11H255.79c-0.018.07-.036,0.15-0.054,0.22h-0.055v0.16h-0.054v0.11h-0.055c-0.018.07-.036,0.15-0.054,0.22h-0.055v0.16h-0.054c-0.018.08-.036,0.15-0.055,0.22H255.3v0.11h-0.055v0.11h-0.054v0.16h-0.055c-0.036.11-.072,0.22-0.109,0.33h-0.054v0.11h-0.054v0.11h-0.055v0.11H254.81v0.11h-0.055v0.11H254.7v0.11h-0.055v0.11h-0.054v0.11h-0.055v0.1h-0.054v0.11l-0.109.06c-0.018.07-.036,0.14-0.055,0.22h-0.054c-0.018.05-.036,0.11-0.055,0.16a0.522,0.522,0,0,1-.108.05v0.11h-0.055a1.133,1.133,0,0,1-.054.11h-0.109v0.06a1.61,1.61,0,0,0-.218.16h-1.58v-0.05l-0.272-.06-0.272-.33h-0.055v-0.1l-0.109-.06v-0.11h-0.054v-0.11h-0.055v-0.11h-0.054v-0.11H251.16v-0.1h-0.054c-0.036-.11-0.073-0.22-0.109-0.33h-0.054v-0.17h-0.055v-0.11h-0.054v-0.16h-0.055c-0.018-.07-0.036-0.14-0.054-0.22H250.67v-0.16h-0.054c-0.018-.08-0.037-0.15-0.055-0.22h-0.054v-0.16h-0.055v-0.11H250.4v-0.17h-0.055c-0.018-.07-0.036-0.14-0.054-0.22h-0.054v-0.16H250.18c-0.018-.07-0.036-0.15-0.054-0.22h-0.055c-0.054-.18-0.109-0.36-0.163-0.54h-0.055v-0.11H249.8v-0.17h-0.055c-0.018-.07-0.036-0.14-0.054-0.22h-0.055v-0.16h-0.054c-0.018-.07-0.036-0.14-0.055-0.22h-0.054v-0.16h-0.054v-0.11h-0.055v-0.16h-0.054c-0.018-.08-0.037-0.15-0.055-0.22H249.2v-0.17h-0.055l-0.054-.21h-0.055v-0.17h-0.054v-0.11h-0.055v-0.16h-0.054c-0.018-.07-0.036-0.15-0.055-0.22h-0.054v-0.16H248.71c-0.019-.08-0.037-0.15-0.055-0.22H248.6v-0.17h-0.055v-0.11h-0.054v-0.16h-0.055c-0.018-.07-0.036-0.14-0.054-0.22h-0.055v-0.16h-0.054c-0.018-.07-0.037-0.15-0.055-0.22h-0.054v-0.16H248.11c-0.018-.08-0.036-0.15-0.054-0.22H248v-0.16h-0.054v-0.11h-0.054v-0.17h-0.055c-0.018-.07-0.036-0.14-0.054-0.22h-0.055v-0.16h-0.054c-0.018-.07-0.037-0.14-0.055-0.22h-0.054v-0.16h-0.055v-0.11h-0.054v-0.16c-1.749-3.89-3.32-7.96-5.065-11.85v-0.17h-0.055v-0.1h-0.054c-0.019-.1-0.037-0.19-0.055-0.28h-0.054v-0.16h-0.055v-0.11h-0.054c-0.018-.07-0.037-0.15-0.055-0.22h-0.054v-0.16H241.9v-0.11h-0.054v-0.16h-0.055c-0.018-.08-0.036-0.15-0.054-0.22h-0.054v-0.17h-0.055c-0.018-.07-0.036-0.14-0.054-0.22H241.52v-0.16h-0.054v-0.11h-0.055v-0.16h-0.054c-0.018-.07-0.037-0.15-0.055-0.22h-0.054v-0.16h-0.055c-0.018-.08-0.036-0.15-0.054-0.22h-0.055v-0.17H241.03c-0.018-.07-0.036-0.14-0.055-0.21h-0.054v-0.17h-0.054v-0.11h-0.055v-0.16h-0.054c-0.019-.07-0.037-0.15-0.055-0.22h-0.054v-0.16h-0.055c-0.018-.08-0.036-0.15-0.054-0.22h-0.055l-0.054-.27h-0.055v-0.17h-0.054c-0.018-.07-0.036-0.14-0.055-0.22h-0.054v-0.16h-0.054c-0.019-.07-0.037-0.15-0.055-0.22H240.05v-0.16H240c-0.018-.08-0.036-0.15-0.054-0.22h-0.055v-0.17h-0.054v-0.1h-0.055v-0.17h-0.054c-0.018-.07-0.037-0.14-0.055-0.22h-0.054v-0.16h-0.055v-0.11h-0.054c-0.018-.09-0.036-0.18-0.055-0.27H239.4v-0.17c-0.2-.42-0.4-0.83-0.6-1.25h-0.055a1.406,1.406,0,0,1-.163.49v0.16h-0.054v0.11H238.47v0.17h-0.054v0.1h-0.055v0.17h-0.054c-0.019.07-.037,0.14-0.055,0.22H238.2v0.16h-0.055c-0.018.07-.036,0.15-0.054,0.22h-0.055v0.16H237.98v0.11h-0.055c-0.018.08-.036,0.15-0.054,0.22h-0.055v0.16h-0.054v0.11h-0.054v0.11h-0.055v0.11H237.6v0.17h-0.055v0.11H237.49c-0.019.07-.037,0.14-0.055,0.21h-0.054v0.17h-0.055c-0.018.07-.036,0.14-0.054,0.22h-0.055v0.16h-0.054c-0.018.07-.036,0.14-0.055,0.22h-0.054v0.16H237c-0.018.07-.036,0.15-0.054,0.22h-0.054v0.16h-0.055c-0.018.08-.036,0.15-0.054,0.22h-0.055v0.17h-0.054c-0.018.07-.037,0.14-0.055,0.21h-0.054v0.17h-0.055c-0.018.07-.036,0.14-0.054,0.22H236.4v0.16h-0.054v0.11h-0.055v0.16h-0.054c-0.018.08-.036,0.15-0.055,0.22h-0.054v0.17h-0.054c-0.019.07-.037,0.14-0.055,0.21h-0.054v0.17H235.91v0.11h-0.054c-0.018.07-.037,0.14-0.055,0.22h-0.054v0.16h-0.055v0.11h-0.054v0.16h-0.055v0.11h-0.054v0.16h-0.055v0.11H235.42v0.17h-0.055c-0.018.07-.036,0.14-0.054,0.22h-0.054v0.16H235.2c-0.018.07-.036,0.15-0.054,0.22h-0.055v0.16h-0.054v0.11h-0.055c-0.018.07-.036,0.15-0.054,0.22h-0.055v0.16h-0.054c-0.018.08-.036,0.15-0.055,0.22h-0.054v0.16h-0.055c-0.018.08-.036,0.15-0.054,0.22h-0.055v0.17h-0.054v0.11H234.44v0.16h-0.055c-0.018.07-.036,0.15-0.054,0.22h-0.055v0.16h-0.054c-0.018.08-.037,0.15-0.055,0.22h-0.054v0.16h-0.055c-0.018.08-.036,0.15-0.054,0.22h-0.055v0.17H233.9c-0.018.07-.036,0.14-0.055,0.21h-0.054v0.17h-0.055c-0.018.07-.036,0.14-0.054,0.22h-0.054v0.16h-0.055c-0.018.07-.036,0.15-0.054,0.22h-0.055v0.16h-0.054v0.11H233.35v0.17c-1.548,3.44-2.973,7.03-4.52,10.48v0.16h-0.055c-0.018.07-.036,0.15-0.054,0.22h-0.055v0.16h-0.054c-0.018.08-.037,0.15-0.055,0.22H228.5v0.17h-0.055v0.1h-0.054v0.17h-0.055c-0.018.07-.036,0.14-0.054,0.22h-0.054v0.16h-0.055c-0.018.07-.036,0.15-0.054,0.22h-0.055v0.16h-0.054c-0.018.08-.037,0.15-0.055,0.22H227.9v0.16h-0.055c-0.018.08-.036,0.15-0.054,0.22H227.74v0.17h-0.054c-0.018.07-.036,0.14-0.055,0.22h-0.054v0.16h-0.054c-0.019.07-.037,0.15-0.055,0.22h-0.054v0.16h-0.055v0.11h-0.054c-0.018.11-.037,0.22-0.055,0.33H227.2v0.11h-0.055v0.16h-0.054c-0.018.09-.037,0.18-0.055,0.28h-0.054v0.1h-0.055v0.17h-0.054c-0.018.07-.036,0.14-0.055,0.22H226.76v0.16h-0.054v0.11h-0.055c-0.018.07-.036,0.14-0.054,0.22h-0.055c-0.054.16-.109,0.33-0.163,0.49-0.037.02-.073,0.03-0.109,0.05-0.037.11-.073,0.22-0.109,0.33l-0.109.06v0.1c-0.163.15-.327,0.29-0.49,0.44a6.16,6.16,0,0,1-1.58-.05,1.886,1.886,0,0,1-.436-0.22v-0.11c-0.054-.04-0.108-0.07-0.163-0.11v-0.11a0.506,0.506,0,0,0-.109-0.05v-0.11l-0.109-.06c-0.036-.11-0.072-0.22-0.109-0.32H223v-0.11h-0.054v-0.11h-0.055v-0.11h-0.054v-0.11h-0.055v-0.11h-0.055c-0.018-.07-0.036-0.15-0.054-0.22h-0.054v-0.11h-0.055v-0.16h-0.054v-0.11h-0.055c-0.018-.08-0.036-0.15-0.054-0.22h-0.055v-0.16h-0.054c-0.018-.08-0.036-0.15-0.055-0.22h-0.054v-0.17h-0.054v-0.11h-0.055l-0.054-.21h-0.055v-0.17h-0.055v-0.11h-0.054v-0.16H221.8c-0.019-.07-0.037-0.15-0.055-0.22H221.7v-0.16H221.64c-0.018-.08-0.036-0.15-0.054-0.22h-0.055v-0.17h-0.054c-0.018-.07-0.036-0.14-0.055-0.21h-0.054v-0.17h-0.054v-0.11h-0.055l-0.054-.21H221.15v-0.17H221.1v-0.11h-0.055v-0.11h-0.054c-0.037-.11-0.073-0.22-0.109-0.32h-0.055v-0.17h-0.054v-0.11h-0.055v-0.11H220.66c-0.036-.11-0.073-0.21-0.109-0.32H220.5v-0.17h-0.055v-0.11h-0.054c-0.019-.07-0.037-0.14-0.055-0.22h-0.054v-0.16h-0.055c-0.018-.07-0.036-0.14-0.054-0.22h-0.055v-0.16h-0.054c-0.018-.07-0.037-0.15-0.055-0.22h-0.054v-0.16H219.9v-0.11h-0.054v-0.17h-0.055l-0.054-.21H219.68v-0.17h-0.055c-0.018-.07-0.036-0.14-0.054-0.22h-0.055l-0.054-.27h-0.055v-0.16h-0.054c-0.019-.08-0.037-0.15-0.055-0.22h-0.054v-0.17h-0.055l-0.054-.21H219.08v-0.17h-0.054c-0.018-.07-0.036-0.14-0.055-0.22h-0.054v-0.16h-0.054c-0.019-.07-0.037-0.15-0.055-0.22h-0.054v-0.16H218.7c-0.018-.08-0.036-0.15-0.054-0.22H218.59v-0.16h-0.054v-0.11h-0.055v-0.17h-0.054c-0.018-.07-0.037-0.14-0.055-0.21h-0.054v-0.17h-0.055c-0.018-.07-0.036-0.15-0.054-0.22h-0.055v-0.16H218.1c-0.018-.07-0.036-0.15-0.054-0.22h-0.055v-0.16h-0.054v-0.11h-0.055v-0.17h-0.054c-0.019-.07-0.037-0.14-0.055-0.21h-0.054v-0.17h-0.055c-0.018-.07-0.036-0.14-0.054-0.22h-0.055v-0.16H217.5c-0.018-.07-0.036-0.15-0.055-0.22h-0.054v-0.16h-0.055v-0.11h-0.054v-0.17h-0.054c-0.019-.07-0.037-0.14-0.055-0.21H217.12v-0.17h-0.055c-0.018-.07-0.036-0.14-0.054-0.22h-0.055v-0.16H216.9c-0.018-.07-0.037-0.15-0.055-0.22h-0.054v-0.16h-0.055c-0.018-.07-0.036-0.15-0.054-0.22h-0.055v-0.16h-0.054v-0.11h-0.054v-0.17h-0.055c-0.018-.07-0.036-0.14-0.054-0.22h-0.055v-0.16H216.3c-0.019-.07-0.037-0.14-0.055-0.22h-0.054v-0.16h-0.055c-0.018-.07-0.036-0.15-0.054-0.22H216.03v-0.16h-0.054c-0.018-.08-0.037-0.15-0.055-0.22h-0.054v-0.17h-0.055l-0.054-.21H215.7v-0.17h-0.055v-0.11H215.6c-0.019-.07-0.037-0.14-0.055-0.22h-0.054v-0.16h-0.055c-0.018-.07-0.036-0.14-0.054-0.22h-0.055v-0.16h-0.054c-0.018-.07-0.037-0.15-0.055-0.22h-0.054v-0.16H215.1v-0.11H215.05c-0.018-.08-0.036-0.15-0.055-0.22h-0.054v-0.17h-0.054v-0.1h-0.055c-0.018-.08-0.036-0.15-0.054-0.22h-0.055v-0.17h-0.054c-0.018-.07-0.037-0.14-0.055-0.22H214.56v-0.16h-0.055c-0.018-.07-0.036-0.14-0.054-0.22H214.4v-0.16h-0.054c-0.018-.07-0.037-0.15-0.055-0.22h-0.054v-0.16h-0.055c-0.018-.07-0.036-0.15-0.054-0.22H214.07v-0.17h-0.055l-0.054-.21h-0.055v-0.17h-0.054c-0.018-.07-0.037-0.14-0.055-0.22h-0.054v-0.16h-0.055c-0.018-.07-0.036-0.14-0.054-0.22h-0.055v-0.16h-0.054c-0.018-.07-0.036-0.15-0.055-0.22h-0.054v-0.16h-0.055c-0.018-.08-0.036-0.15-0.054-0.22h-0.054v-0.17H213.2l-0.054-.21h-0.055v-0.17h-0.054c-0.018-.07-0.037-0.14-0.055-0.22h-0.054v-0.16h-0.055c-0.018-.07-0.036-0.15-0.054-0.22h-0.055v-0.16h-0.054c-0.018-.07-0.036-0.15-0.055-0.22H212.6v-0.16h-0.055c-0.018-.08-0.036-0.15-0.054-0.22h-0.054v-0.17h-0.055l-0.054-.21h-0.055v-0.17h-0.054c-0.018-.07-0.037-0.14-0.055-0.22h-0.054v-0.16h-0.055c-0.018-.07-0.036-0.15-0.054-0.22h-0.055v-0.16h-0.054c-0.018-.08-0.036-0.15-0.055-0.22h-0.054v-0.16h-0.054c-0.019-.08-0.037-0.15-0.055-0.22h-0.054v-0.17h-0.055c-0.018-.07-0.036-0.14-0.054-0.22h-0.055v-0.16H211.4c-0.018-.07-0.037-0.14-0.055-0.22h-0.054v-0.16h-0.055c-0.018-.07-0.036-0.15-0.054-0.22h-0.055v-0.16h-0.054v-0.11h-0.055v-0.17h-0.054c-0.018-.07-0.036-0.14-0.054-0.22h-0.055c-0.054-.18-0.109-0.36-0.163-0.54h-0.055v-0.11h-0.054v-0.16h-0.055v-0.11h-0.054v-0.17H210.42c-0.018-.07-0.036-0.14-0.054-0.22h-0.055v-0.16h-0.054v-0.11H210.2v-0.16h-0.055c-0.018-.07-0.036-0.15-0.054-0.22h-0.055v-0.16h-0.054v-0.11H209.93v-0.17h-0.054c-0.018-.07-0.037-0.14-0.055-0.22h-0.054v-0.16h-0.055c-0.018-.07-0.036-0.15-0.054-0.22H209.6v-0.16h-0.054c-0.018-.07-0.036-0.15-0.055-0.22H209.44v-0.16h-0.054c-0.019-.08-0.037-0.15-0.055-0.22h-0.054v-0.17h-0.055v-0.11h-0.054c-0.019-.07-0.037-0.14-0.055-0.21h-0.054v-0.17H209l-0.054-.21H208.9v-0.17h-0.054v-0.11h-0.055v-0.16h-0.054c-0.018-.07-0.036-0.15-0.054-0.22h-0.055v-0.16h-0.054c-0.019-.08-0.037-0.15-0.055-0.22H208.46v-0.17h-0.055l-0.054-.21H208.3v-0.17h-0.054c-0.018-.07-0.037-0.14-0.055-0.22h-0.054v-0.16h-0.055c-0.018-.07-0.036-0.15-0.054-0.22h-0.055v-0.16h-0.054v-0.11h-0.054v-0.17h-0.055l-0.054-.21H207.7v-0.17h-0.054c-0.019-.07-0.037-0.14-0.055-0.22h-0.054v-0.16h-0.055c-0.018-.07-0.036-0.15-0.054-0.22H207.37v-0.16h-0.054v-0.11h-0.055v-0.17h-0.054c-0.018-.07-0.036-0.14-0.055-0.21H207.1v-0.17h-0.054c-0.019-.07-0.037-0.14-0.055-0.22h-0.054v-0.16H206.88c-0.018-.07-0.036-0.15-0.054-0.22h-0.055v-0.16h-0.054v-0.11h-0.055v-0.17h-0.054c-0.018-.07-0.037-0.14-0.055-0.21H206.5v-0.17h-0.055c-0.018-.07-0.036-0.14-0.054-0.22h-0.055v-0.16h-0.054c-0.018-.07-0.036-0.14-0.054-0.22h-0.055v-0.16h-0.054v-0.11h-0.055v-0.16h-0.054c-0.019-.08-0.037-0.15-0.055-0.22H205.9v-0.17h-0.055l-0.054-.21h-0.055v-0.17h-0.054c-0.018-.07-0.036-0.14-0.055-0.22h-0.054v-0.16h-0.055v-0.11h-0.054v-0.16H205.41c-0.019-.08-0.037-0.15-0.055-0.22H205.3v-0.17h-0.055l-0.054-.21h-0.055v-0.17h-0.054c-0.018-.07-0.037-0.14-0.055-0.22h-0.054v-0.16h-0.055c-0.018-.07-0.036-0.15-0.054-0.22H204.81v-0.16h-0.054v-0.11H204.7v-0.16h-0.054c-0.018-.1-0.036-0.19-0.054-0.28h-0.055c-0.018-.07-0.036-0.14-0.054-0.22h-0.055v-0.16h-0.054v-0.11H204.32v-0.16h-0.054v-0.11h-0.055v-0.17h-0.054v-0.1H204.1v-0.17h-0.054c-0.018-.07-0.036-0.14-0.055-0.22h-0.054l-0.054-.27H203.83v-0.16h-0.054v-0.11h-0.055v-0.17h-0.054c-0.018-.07-0.037-0.14-0.055-0.22h-0.054v-0.16H203.5v-0.11h-0.054v-0.16h-0.055c-0.018-.07-0.036-0.15-0.054-0.22h-0.055v-0.16h-0.054v-0.11h-0.055v-0.17h-0.054c-0.018-.07-0.036-0.14-0.054-0.22h-0.055v-0.16h-0.054c-0.019-.07-0.037-0.14-0.055-0.22H202.85v-0.16H202.8c-0.018-.07-0.036-0.15-0.054-0.22h-0.055v-0.16h-0.054c-0.018-.08-0.036-0.15-0.055-0.22h-0.054v-0.17h-0.055l-0.054-.21h-0.055v-0.17h-0.054v-0.11h-0.054c-0.019-.07-0.037-0.14-0.055-0.21h-0.054v-0.17h-0.055c-0.018-.07-0.036-0.14-0.054-0.22h-0.055v-0.16h-0.054c-0.018-.07-0.036-0.15-0.055-0.22h-0.054v-0.16H201.76c-0.018-.08-0.036-0.15-0.054-0.22h-0.055v-0.17H201.6v-0.1h-0.055v-0.17h-0.054c-0.018-.07-0.036-0.14-0.054-0.22h-0.055v-0.16h-0.054c-0.019-.07-0.037-0.15-0.055-0.22h-0.054v-0.16h-0.055v-0.11h-0.054v-0.17h-0.055L201,1447.1h-0.055v-0.17h-0.054v-0.11h-0.055v-0.16H200.78c-0.018-.07-0.036-0.15-0.055-0.22h-0.054v-0.16h-0.054c-0.019-.08-0.037-0.15-0.055-0.22h-0.054c-0.018-.09-0.037-0.18-0.055-0.27H200.4v-0.17h-0.055c-0.018-.07-0.036-0.14-0.054-0.22h-0.055v-0.16h-0.054v-0.11h-0.055c-0.018-.07-0.036-0.14-0.054-0.22h-0.055v-0.16h-0.054c-0.018-.07-0.036-0.15-0.055-0.22h-0.054v-0.16H199.8c-0.019-.08-0.037-0.15-0.055-0.22h-0.054v-0.17h-0.055v-0.1h-0.054v-0.17h-0.055c-0.018-.07-0.036-0.14-0.054-0.22h-0.055v-0.16h-0.054v-0.11H199.31c-0.019-.09-0.037-0.18-0.055-0.27H199.2v-0.17h-0.054v-0.11h-0.055v-0.16h-0.054v-0.11h-0.054v-0.16h-0.055c-0.018-.08-0.036-0.15-0.054-0.22h-0.055v-0.17h-0.054v-0.1H198.71v-0.17h-0.054v-0.11H198.6v-0.16h-0.054v-0.11h-0.054v-0.16h-0.055v-0.11h-0.055v-0.17h-0.054v-0.11h-0.055v-0.16H198.22v-0.11h-0.054c-0.018-.09-0.037-0.18-0.055-0.27h-0.054v-0.17H198v-0.1h-0.054v-0.17h-0.055v-0.11h-0.054v-0.16h-0.055v-0.11H197.73v-0.16h-0.054c-0.019-.08-0.037-0.15-0.055-0.22h-0.055v-0.17h-0.054v-0.11h-0.054v-0.16H197.4c-0.018-.07-0.036-0.15-0.054-0.22h-0.055v-0.16H197.24v-0.11h-0.055v-0.16h-0.054c-0.018-.08-0.037-0.15-0.055-0.22h-0.054v-0.17h-0.055v-0.11h-0.054l-0.054-.21H196.8v-0.17h-0.055c-0.018-.07-0.036-0.14-0.054-0.22h-0.054v-0.16h-0.055v-0.11h-0.054v-0.16h-0.055v-0.11h-0.054v-0.17h-0.055v-0.11h-0.054v-0.16h-0.055c-0.018-.07-0.036-0.15-0.054-0.22H196.15c-0.108-.32-0.218-0.65-0.326-0.98h-0.055c-0.018-.07-0.036-0.15-0.054-0.22H195.66v-0.16h-0.054v-0.11h-0.055v-0.17H195.5c-0.018-.07-0.036-0.14-0.055-0.21h-0.054l-0.327-.99v-0.65a5.2,5.2,0,0,1,0-1.53,0.859,0.859,0,0,0,.164-0.22h0.108a0.938,0.938,0,0,0,.055-0.11c0.091-.02.181-0.03,0.272-0.05v-0.06a5.909,5.909,0,0,1,1.471.06H197.4v0.05h0.109v0.06C197.566,1430.25,197.621,1430.26,197.676,1430.28Z" transform="translate(-195 -1430.03)"/>
  <path id="waterbel" class="cls-1" d="M295.608,1452.68q0.137,0.63.272,1.26h0.054c0.037,0.23.073,0.47,0.109,0.71H296.1v0.21c0.088,0.26.184,0.62,0.272,0.88,0.073,0.36.145,0.72,0.218,1.09,0.384,1.12.561,2.42,0.924,3.54v0.27h0.054v0.22h0.055v0.22h0.054v0.22h0.055v0.21c0.477,1.4.667,3.02,1.141,4.42v0.22h0.055v0.21h0.054v0.28h0.055v0.21h0.054v0.22h0.054v0.22H299.2c0.018,0.15.036,0.29,0.054,0.44h0.054v0.21c0.145,0.53.29,1.06,0.435,1.58H299.8a3.77,3.77,0,0,1,.272-1.08c0.018-.15.036-0.3,0.054-0.44h0.054v-0.22h0.055v-0.22h0.054v-0.22h0.055v-0.21h0.054v-0.17h0.054c0.037-.21.073-0.43,0.109-0.65,0.252-.73.4-1.62,0.652-2.34v-0.22h0.055v-0.22h0.054v-0.22h0.055v-0.22c0.325-.95.493-2.04,0.815-2.99v-0.22h0.055v-0.22H302.3v-0.22h0.054v-0.22c0.277-.81.432-1.74,0.707-2.56,0.036-.22.073-0.43,0.109-0.65,0.157-.46.28-1.02,0.435-1.47,0.018-.15.036-0.29,0.054-0.44a12.094,12.094,0,0,0,.381-1.42H305.4a4.794,4.794,0,0,0,.218.77c0.018,0.14.036,0.29,0.054,0.43h0.054v0.22h0.055v0.22h0.054v0.22h0.055v0.16h0.054v0.22h0.054c0.037,0.22.073,0.43,0.109,0.65,0.252,0.74.4,1.63,0.653,2.35v0.21c0.113,0.33.214,0.77,0.326,1.09,0.018,0.15.036,0.29,0.054,0.44,0.558,1.63.807,3.49,1.36,5.12V1465h0.054v0.22H308.6v0.22h0.055v0.22c0.277,0.81.433,1.75,0.706,2.56v0.22h0.055v0.21h0.054v0.22h0.055v0.22h0.054a1,1,0,0,0,.109.43v-0.05a1.175,1.175,0,0,0,.109-0.44h0.054v-0.21h0.054v-0.22h0.055v-0.22h0.054v-0.22c0.286-.83.423-1.84,0.707-2.67,0.036-.22.072-0.43,0.109-0.65,0.407-1.19.575-2.58,0.978-3.76,0.055-.31.109-0.62,0.164-0.93,0.256-.75.4-1.64,0.652-2.4,0.036-.23.073-0.47,0.109-0.71,0.256-.75.4-1.64,0.652-2.39,0.018-.17.036-0.33,0.055-0.49a14.069,14.069,0,0,0,.38-1.42,9.64,9.64,0,0,1,2.175-.06q-0.054.33-.109,0.66h-0.054c-0.018.14-.036,0.29-0.054,0.43h-0.055v0.17h-0.054c-0.036.2-.073,0.4-0.109,0.6h-0.054c-0.036.22-.073,0.43-0.109,0.65-0.29.8-.474,1.76-0.761,2.56-0.018.15-.037,0.29-0.055,0.44H314.53v0.16h-0.054q-0.055.3-.109,0.6h-0.054v0.22h-0.055c-0.018.15-.036,0.29-0.054,0.44-0.429,1.19-.662,2.56-1.088,3.76q-0.162.7-.326,1.41h-0.054c-0.018.15-.036,0.29-0.055,0.44h-0.054v0.16h-0.054q-0.055.3-.109,0.6h-0.055v0.22h-0.054v0.22c-0.312.87-.5,1.91-0.816,2.78-0.072.34-.145,0.69-0.217,1.03h-0.054v0.17h-0.055l-0.108.6H311.05c-0.018.14-.036,0.29-0.054,0.43h-0.055c-0.072.33-.145,0.66-0.217,0.98h-2.066q-1.9-7.68-3.807-15.37h-0.108q-0.055.3-.109,0.6H304.58v0.22h-0.055v0.22h-0.054v0.22h-0.054v0.22h-0.055v0.16h-0.054c-0.036.22-.073,0.44-0.109,0.65-0.175.51-.309,1.14-0.489,1.64-0.073.36-.145,0.73-0.218,1.09-0.4,1.09-.585,2.39-0.979,3.49-0.072.36-.145,0.72-0.217,1.09-0.274.76-.433,1.69-0.707,2.45v0.22h-0.054v0.21H301.48v0.22h-0.054v0.22h-0.054v0.17h-0.055v0.21h-0.054v0.22h-0.055v0.22h-0.054c-0.018.14-.036,0.29-0.054,0.43h-0.055q-0.135.6-.272,1.2h-2.066c-0.054-.25-0.109-0.51-0.163-0.76H298.49c-0.018-.14-0.036-0.29-0.055-0.44h-0.054v-0.16h-0.054q-0.055-.3-0.109-0.6h-0.054c-0.037-.22-0.073-0.43-0.109-0.65-0.29-.8-0.473-1.76-0.762-2.56-0.017-.15-0.036-0.29-0.054-0.44h-0.054v-0.16H297.13l-0.108-.6h-0.055v-0.22h-0.054c-0.036-.2-0.073-0.4-0.109-0.6H296.75c-0.018-.15-0.036-0.29-0.054-0.44h-0.055v-0.16h-0.054c-0.036-.2-0.073-0.4-0.109-0.6h-0.055l-0.108-.6H296.26c-0.018-.14-0.036-0.29-0.054-0.43h-0.054v-0.17H296.1l-0.108-.6h-0.055q-0.054-.3-0.109-0.6h-0.054c-0.036-.22-0.072-0.43-0.109-0.65-0.383-1.07-.609-2.3-0.978-3.38-0.073-.35-0.145-0.69-0.218-1.04-0.287-.8-0.475-1.75-0.761-2.56v-0.22H293.65v-0.21H293.6c-0.054-.26-0.109-0.51-0.163-0.77h-0.054v-0.05h0.054a1.233,1.233,0,0,1,.6-0.06h1.577Zm29.742,0a1.428,1.428,0,0,0,.164.38v0.17h0.054v0.11h0.054c0.037,0.16.073,0.32,0.109,0.49h0.054v0.11h0.055c0.018,0.11.036,0.22,0.054,0.32h0.055v0.11H326c0.036,0.17.072,0.33,0.109,0.49h0.054v0.11h0.054c0.019,0.11.037,0.22,0.055,0.33h0.054v0.11h0.055v0.16h0.054v0.17c0.449,1.02.8,2.19,1.251,3.21,0.036,0.17.072,0.33,0.108,0.49h0.055v0.11h0.054l0.054,0.33h0.055v0.11h0.054v0.16h0.054c0.019,0.11.037,0.22,0.055,0.33,0.657,1.5,1.139,3.18,1.794,4.68,0.018,0.11.036,0.22,0.055,0.33h0.054v0.11h0.054c0.037,0.16.073,0.33,0.109,0.49H330.3v0.11h0.055l0.054,0.33h0.055v0.11h0.054c0.036,0.16.072,0.32,0.109,0.49h0.054v0.11h0.054c0.019,0.1.037,0.21,0.055,0.32h0.054v0.11H330.9v0.17h0.054c0.018,0.1.036,0.21,0.054,0.32h0.055v0.11h0.054l0.054,0.33h0.055v0.11h0.054c0.036,0.16.073,0.32,0.109,0.49h0.054v0.11H331.5c0.018,0.11.036,0.21,0.054,0.32H331.6v0.11h0.055l0.054,0.33h0.055v0.16h0.054v0.11h0.054v0.17h0.055v0.16h0.054v0.11h0.054c0.037,0.16.073,0.33,0.109,0.49H332.2v0.11h0.055l0.054,0.33h0.055v0.11h0.054v0.16a1.355,1.355,0,0,1,.163.43h-2.175c-0.054-.2-0.109-0.4-0.163-0.59H330.19v-0.11h-0.055v-0.17h-0.054v-0.16h-0.054v-0.17h-0.055v-0.16h-0.054v-0.11h-0.055c-0.036-.16-0.072-0.32-0.108-0.49-0.095-.24-0.232-0.52-0.327-0.76l-0.054-.33H329.32v-0.11h-0.055c-0.036-.16-0.072-0.32-0.108-0.49a4.164,4.164,0,0,1-.381-1.09h-9.189a1.942,1.942,0,0,1-.218.6l-0.054.33h-0.054v0.11h-0.055v0.16h-0.054v0.16H319.1v0.17h-0.054v0.16h-0.054v0.11h-0.055l-0.054.33h-0.054c-0.037.16-.073,0.33-0.109,0.49h-0.055v0.11h-0.054v0.16h-0.054c-0.037.17-.073,0.33-0.109,0.49h-0.054v0.11h-0.055c-0.036.16-.072,0.33-0.109,0.49a2.877,2.877,0,0,0-.271.76h-2.175c0.054-.2.108-0.4,0.163-0.59H316c0.018-.11.036-0.22,0.055-0.33h0.054v-0.11h0.054c0.037-.17.073-0.33,0.109-0.49h0.054v-0.11h0.055l0.054-.33h0.055v-0.11h0.054c0.018-.11.036-0.21,0.054-0.32h0.055v-0.17h0.054v-0.11h0.054c0.018-.11.037-0.22,0.055-0.32h0.054v-0.11h0.054c0.037-.17.073-0.33,0.109-0.49h0.055v-0.11h0.054l0.054-.33h0.055v-0.11H317.3l0.054-.33h0.055v-0.1h0.054c0.036-.17.073-0.33,0.109-0.5h0.054v-0.1h0.055l0.054-.33h0.054v-0.11h0.055v-0.16H317.9c0.018-.11.036-0.22,0.055-0.33h0.054v-0.11h0.054c0.018-.11.037-0.22,0.055-0.33h0.054v-0.11h0.054c0.037-.16.073-0.32,0.109-0.49h0.055v-0.11h0.054c0.018-.1.036-0.21,0.054-0.32h0.055v-0.11h0.054c0.036-.16.073-0.33,0.109-0.49,0.572-1.31,1.007-2.78,1.577-4.09,0.036-.16.072-0.33,0.108-0.49h0.055v-0.11h0.054c0.018-.11.036-0.22,0.055-0.33h0.054v-0.1h0.054v-0.17h0.055l0.054-.33h0.054v-0.1h0.055l0.054-.33H321v-0.11h0.055l0.054-.33h0.055v-0.16c0.447-1.03.8-2.19,1.25-3.22,0.181-.54.363-1.09,0.544-1.63a1.116,1.116,0,0,1,.6-0.06h1.794Zm20.88,1.86h-5.981v17.87h-1.958v-17.87H332.31v-1.8a4.992,4.992,0,0,1,1.36-.06h12.506A7.439,7.439,0,0,1,346.23,1454.54Zm2.664-1.86h12.615v1.86H350.852v7.19h9.189v1.8h-9.189v7.03h10.657v1.85H348.894v-19.73Zm16.53,0h6.09a11.874,11.874,0,0,1,2.773.11h0.326v0.06h0.218v0.05h0.217v0.06c0.127,0.01.254,0.03,0.381,0.05v0.05l0.271,0.06v0.05h0.109v0.06h0.163v0.05h0.109v0.06h0.109a1.133,1.133,0,0,1,.054.11c0.109,0.03.218,0.07,0.326,0.11,0.019,0.03.037,0.07,0.055,0.1h0.109c0.036,0.06.072,0.11,0.108,0.17h0.109l0.218,0.27h0.108c0.018,0.04.037,0.07,0.055,0.11,0.072,0.05.145,0.11,0.217,0.16v0.11c0.091,0.08.181,0.15,0.272,0.22v0.11c0.054,0.04.109,0.07,0.163,0.11v0.11c0.037,0.02.073,0.03,0.109,0.05,0.036,0.11.073,0.22,0.109,0.33a0.506,0.506,0,0,0,.109.05v0.11h0.054v0.11h0.054v0.16h0.055v0.11h0.054c0.018,0.09.036,0.19,0.054,0.28h0.055c0.018,0.12.036,0.25,0.054,0.38h0.055v0.22H378.8v0.21h0.054c0.018,0.28.037,0.55,0.055,0.82h0.054a2.658,2.658,0,0,1-.054,1.04v0.54h-0.055v0.27H378.8v0.28h-0.054v0.22h-0.055v0.16h-0.054c-0.037.16-.073,0.33-0.109,0.49h-0.054c-0.037.11-.073,0.22-0.109,0.33h-0.054v0.11h-0.055c-0.036.1-.072,0.21-0.109,0.32l-0.108.06v0.11a0.506,0.506,0,0,0-.109.05v0.11c-0.073.05-.145,0.11-0.218,0.16v0.11c-0.145.13-.29,0.26-0.435,0.38-0.072.09-.145,0.18-0.217,0.28h-0.109c-0.036.05-.072,0.11-0.109,0.16h-0.108c-0.018.04-.037,0.07-0.055,0.11a1.015,1.015,0,0,1-.163.05v0.06c-0.072.02-.145,0.03-0.217,0.05-0.019.04-.037,0.07-0.055,0.11-0.326.13-.652,0.26-0.978,0.38v0.11a2.356,2.356,0,0,1,.434.82h0.055v0.11c0.036,0.02.073,0.03,0.109,0.05l0.108,0.33h0.055v0.11h0.054v0.11h0.055v0.11h0.054v0.11h0.054c0.018,0.07.036,0.14,0.055,0.21l0.108,0.06v0.11h0.055v0.11h0.054v0.11h0.054v0.1h0.055v0.11h0.054v0.11h0.055v0.11h0.054v0.11h0.054v0.11a0.554,0.554,0,0,0,.109.05v0.11h0.054v0.11h0.055v0.11h0.054v0.11h0.055v0.11h0.054v0.11h0.054v0.11h0.055v0.11a0.554,0.554,0,0,1,.109.05V1468H377.5v0.11h0.054v0.11H377.6v0.11h0.054v0.11h0.054v0.1c0.145,0.24.29,0.48,0.435,0.71v0.11H378.2v0.11h0.054v0.11h0.055v0.11h0.054v0.11h0.054v0.11c0.036,0.02.073,0.03,0.109,0.05v0.11h0.054v0.11h0.055v0.11h0.054v0.11h0.055v0.11H378.8v0.11h0.054v0.11h0.055l0.054,0.21,0.109,0.06v0.11h0.054v0.1h0.054v0.11h0.055v0.11h0.054v0.11h0.055l0.108,0.33c0.036,0.02.073,0.03,0.109,0.05v0.11c0.066,0.12.156,0.25,0.218,0.38h-2.393a1.8,1.8,0,0,0-.272-0.54c-0.036-.11-0.072-0.22-0.109-0.33h-0.054c-0.018-.07-0.036-0.14-0.054-0.22h-0.055l-0.054-.21h-0.054V1471h-0.055v-0.11h-0.054v-0.11H376.57v-0.11h-0.054v-0.11h-0.054v-0.11h-0.055v-0.11h-0.054v-0.11H376.3v-0.1h-0.055v-0.11H376.19v-0.11h-0.054v-0.11h-0.055v-0.11h-0.054v-0.11h-0.055v-0.11h-0.054v-0.11h-0.054c-0.036-.11-0.073-0.22-0.109-0.33H375.7c-0.036-.1-0.072-0.21-0.108-0.32h-0.055c-0.018-.08-0.036-0.15-0.054-0.22h-0.054c-0.018-.07-0.037-0.15-0.055-0.22H375.32v-0.11h-0.054v-0.11h-0.055v-0.11h-0.054v-0.1H375.1v-0.11h-0.055c-0.127-.29-0.254-0.58-0.381-0.88a0.522,0.522,0,0,1-.108-0.05c-0.036-.11-0.073-0.22-0.109-0.33H374.4c-0.018-.07-0.037-0.14-0.055-0.21h-0.054c-0.018-.08-0.036-0.15-0.055-0.22h-0.054c-0.018-.08-0.036-0.15-0.054-0.22h-0.055v-0.11h-0.054v-0.11h-0.054v-0.11h-0.055v-0.11h-0.054c-0.036-.11-0.073-0.22-0.109-0.32h-0.054c-0.036-.11-0.073-0.22-0.109-0.33h-0.054v-0.11a2.04,2.04,0,0,1-.272-0.54h-5.873v8.33h-1.957v-19.73Zm18.052,0h6.416a11.415,11.415,0,0,1,3.317.28c0.2,0.03.4,0.07,0.6,0.1q0.6,0.315,1.2.6a1.125,1.125,0,0,0,.055.11l0.163,0.06,0.217,0.27h0.109c0.054,0.07.109,0.15,0.163,0.22h0.055v0.11c0.072,0.05.144,0.11,0.217,0.16v0.11c0.054,0.04.109,0.07,0.163,0.11v0.11a0.529,0.529,0,0,0,.109.05c0.018,0.08.036,0.15,0.054,0.22h0.055v0.11h0.054c0.036,0.11.072,0.22,0.109,0.33h0.054c0.036,0.16.073,0.32,0.109,0.49h0.054v0.22a5.009,5.009,0,0,1,.163,2.39v0.33h-0.054v0.22H396.8v0.16h-0.055v0.17h-0.054v0.16h-0.055v0.11H396.58v0.16h-0.054v0.11h-0.055v0.11a0.522,0.522,0,0,1-.108.05c-0.019.08-.037,0.15-0.055,0.22l-0.109.06v0.11l-0.271.21v0.11c-0.091.07-.182,0.15-0.272,0.22-0.018.04-.036,0.07-0.055,0.11h-0.108c-0.055.07-.109,0.14-0.163,0.22h-0.109a1.125,1.125,0,0,0-.055.11h-0.108a1.125,1.125,0,0,0-.055.11H394.9v0.05h-0.109v0.05h-0.109v0.06c-0.381.13-.761,0.25-1.142,0.38h0.109a1.108,1.108,0,0,0,.435.11v0.05l0.326,0.06v0.05h0.109v0.06h0.163v0.05h0.109v0.06H394.9v0.05H395c0.018,0.04.037,0.07,0.055,0.11h0.108v0.06a1.026,1.026,0,0,1,.164.05c0.018,0.04.036,0.07,0.054,0.11h0.109l0.489,0.54c0.091,0.08.181,0.15,0.272,0.22v0.11c0.054,0.04.109,0.07,0.163,0.11,0.018,0.07.036,0.15,0.054,0.22a0.506,0.506,0,0,1,.109.05c0.018,0.07.036,0.15,0.054,0.22h0.055v0.11h0.054c0.036,0.11.073,0.22,0.109,0.33h0.054c0.037,0.16.073,0.32,0.109,0.49h0.054v0.21h0.055v0.28h0.054v0.38h0.055a4.149,4.149,0,0,1-.055,1.31c-0.018.21-.036,0.43-0.054,0.65h-0.055c-0.018.15-.036,0.29-0.054,0.44h-0.054c-0.018.11-.037,0.21-0.055,0.32h-0.054c-0.018.09-.036,0.19-0.054,0.28h-0.055l-0.054.21h-0.055c-0.018.08-.036,0.15-0.054,0.22l-0.109.06c-0.018.07-.036,0.14-0.054,0.22a0.529,0.529,0,0,0-.109.05v0.11a1.556,1.556,0,0,0-.163.11,5.188,5.188,0,0,1-2.664,1.8c-0.163.01-.327,0.03-0.49,0.05a11.841,11.841,0,0,1-3.045.16h-6.47v-19.73Zm30.5,0v1.86H403.323v7.19h9.189v1.8h-9.189v7.03H413.98v1.85H401.311v-19.67a4.577,4.577,0,0,1,1.25-.06H413.98Zm3.915,0h1.9a6.257,6.257,0,0,1,.054,1.69v16.19h10.657v1.85H417.9v-19.73Zm-50.514,1.86v7.74H372a8.47,8.47,0,0,0,2.121-.11H374.4v-0.06c0.163-.03.326-0.07,0.489-0.11v-0.05c0.109-.04.218-0.07,0.326-0.11v-0.05h0.109v-0.06c0.054-.02.109-0.03,0.163-0.05a1.133,1.133,0,0,1,.054-0.11h0.109c0.109-.13.218-0.26,0.326-0.38,0.091-.08.182-0.15,0.272-0.22v-0.11l0.109-.06v-0.1l0.109-.06c0.018-.07.036-0.14,0.054-0.22h0.054c0.019-.07.037-0.14,0.055-0.21h0.054v-0.17h0.055v-0.11h0.054c0.018-.12.036-0.25,0.054-0.38H376.9v-0.27a4.128,4.128,0,0,0,.108-1.47h-0.054v-0.38H376.9v-0.22h-0.055v-0.22h-0.054v-0.16h-0.054v-0.11h-0.055v-0.17h-0.054c-0.018-.07-0.036-0.14-0.055-0.21h-0.054c-0.018-.08-0.036-0.15-0.054-0.22l-0.109-.06v-0.11a1.556,1.556,0,0,1-.163-0.11v-0.1c-0.109-.09-0.218-0.19-0.326-0.28-0.036-.05-0.073-0.11-0.109-0.16h-0.109c-0.036-.05-0.072-0.11-0.109-0.16h-0.108a1.125,1.125,0,0,0-.055-0.11l-0.217-.06v-0.05l-0.218-.06v-0.05a2.547,2.547,0,0,0-.272-0.05v-0.06H374.45a8.136,8.136,0,0,0-2.284-.16h-4.785Zm18.052,0v6.86h4.785a8.782,8.782,0,0,0,2.5-.21l0.38-.06v-0.05l0.218-.06v-0.05h0.163c0.018-.04.036-0.07,0.054-0.11l0.218-.06c0.018-.03.036-0.07,0.054-0.1h0.109c0.072-.1.145-0.19,0.217-0.28l0.272-.21v-0.11l0.109-.06c0.018-.05.036-0.11,0.054-0.16h0.055v-0.11h0.054v-0.11h0.054c0.019-.09.037-0.18,0.055-0.27h0.054c0.018-.15.036-0.29,0.055-0.44h0.054v-0.33H395a4.255,4.255,0,0,0-.108-1.52v-0.27H394.84v-0.17h-0.054v-0.16h-0.055c-0.018-.07-0.036-0.15-0.054-0.22h-0.054c-0.018-.07-0.037-0.14-0.055-0.22-0.036-.02-0.072-0.03-0.109-0.05v-0.11c-0.054-.04-0.108-0.07-0.163-0.11v-0.11h-0.054c-0.054-.07-0.109-0.14-0.163-0.22H393.97l-0.163-.21-0.217-.06c-0.019-.04-0.037-0.07-0.055-0.11h-0.109v-0.05l-0.217-.06v-0.05l-0.326-.06a8.781,8.781,0,0,0-2.991-.32h-4.459Zm-65.139,11.28h7.775c-0.054-.2-0.109-0.4-0.163-0.6h-0.054v-0.11H327.8v-0.16h-0.054v-0.17h-0.054v-0.16h-0.055v-0.16H327.58v-0.11h-0.055c-0.036-.17-0.072-0.33-0.108-0.49-0.1-.24-0.231-0.53-0.327-0.77-0.018-.1-0.036-0.21-0.054-0.32h-0.054v-0.11h-0.055l-0.054-.33c-0.1-.24-0.231-0.52-0.326-0.76-0.037-.17-0.073-0.33-0.109-0.49-0.461-1.06-.791-2.27-1.251-3.33v-0.16h-0.054v-0.16h-0.054v-0.17h-0.055v-0.16H324.97v-0.11h-0.054c-0.037-.16-0.073-0.33-0.109-0.49-0.1-.24-0.232-0.53-0.327-0.76v-0.17h-0.054v-0.16h-0.054v-0.11h-0.055v-0.16h-0.054l-0.054-.33h-0.055v0.11H324.1l-0.054.33h-0.055v0.16h-0.054v0.11h-0.055v0.16h-0.054v0.16h-0.054c-0.019.11-.037,0.22-0.055,0.33h-0.054v0.11H323.61l-0.054.33H323.5c-0.018.11-.036,0.22-0.055,0.32h-0.054v0.11h-0.054v0.17h-0.055v0.16H323.23v0.16h-0.055v0.17h-0.054v0.16c-0.461,1.05-.791,2.27-1.25,3.33-0.019.11-.037,0.21-0.055,0.32h-0.054c-0.037.17-.073,0.33-0.109,0.49H321.6v0.11h-0.055v0.17H321.49c-0.036.16-.073,0.32-0.109,0.49h-0.054v0.11h-0.055c-0.018.11-.036,0.21-0.054,0.32h-0.054c-0.037.17-.073,0.33-0.109,0.49H321v0.11h-0.054v0.17h-0.054c-0.037.16-.073,0.32-0.109,0.49h-0.054v0.11h-0.055c-0.036.16-.072,0.32-0.108,0.49A2.583,2.583,0,0,0,320.294,1465.82Zm65.139-2.56v7.3h4.3c1.7,0,2.928.01,3.969-.65l0.218-.06c0.036-.05.072-0.11,0.109-0.16h0.108c0.037-.06.073-0.11,0.109-0.17,0.127-.1.254-0.21,0.381-0.32v-0.11l0.108-.06v-0.1l0.109-.06c0.036-.11.073-0.22,0.109-0.33H395v-0.1h0.055q0.108-.5.217-0.99a4.013,4.013,0,0,0-.109-1.41v-0.28h-0.054v-0.16h-0.054v-0.22H395v-0.11h-0.054v-0.16H394.9V1465H394.84v-0.11c-0.036-.02-0.072-0.03-0.109-0.05-0.018-.07-0.036-0.15-0.054-0.22-0.072-.05-0.145-0.11-0.218-0.16v-0.11c-0.072-.06-0.144-0.11-0.217-0.17v-0.05h-0.109c-0.054-.07-0.108-0.15-0.163-0.22a1.7,1.7,0,0,0-.217-0.05c-0.019-.04-0.037-0.08-0.055-0.11-0.163-.06-0.326-0.11-0.489-0.17v-0.05H393.1v-0.05h-0.163v-0.06H392.72a8.564,8.564,0,0,0-2.393-.16h-4.894Z" transform="translate(-195 -1430.03)"/>
  <path id="systems" class="cls-1" d="M298.538,1480.98a0.433,0.433,0,0,0,.217.27v0.05H298.7a1.64,1.64,0,0,1-.706.6,1.949,1.949,0,0,0-1.955-.76l-0.6.06v0.05a1.66,1.66,0,0,1-.217.05v0.06a1.7,1.7,0,0,1-.217.05c-0.036.06-.073,0.11-0.109,0.17-0.072.05-.145,0.11-0.217,0.16a3.6,3.6,0,0,0-.326,2.01v0.98h0.054v0.28h0.055c0.018,0.11.036,0.21,0.054,0.32h0.054c0.019,0.07.037,0.15,0.055,0.22,0.054,0.04.108,0.07,0.163,0.11,0.018,0.05.036,0.11,0.054,0.16h0.109c0.036,0.06.072,0.11,0.108,0.17,0.109,0.03.218,0.07,0.326,0.1v0.06c0.145,0.02.29,0.04,0.435,0.05a2.262,2.262,0,0,0,2.281-.7h0.054v0.05a2.3,2.3,0,0,1,.271.27,0.5,0.5,0,0,1,.326.33H298.7c-0.479.84-2.19,1.29-3.421,0.87-0.127-.02-0.254-0.04-0.381-0.05-1.234-.55-1.52-1.55-1.52-3.33,0.018-.45.036-0.9,0.054-1.36,0.453-1.48,1.153-2.08,3.1-2.06,0.289,0.03.579,0.07,0.868,0.1v0.06c0.109,0.02.218,0.04,0.326,0.05v0.06a1.712,1.712,0,0,1,.218.05v0.06h0.108c0.018,0.03.036,0.07,0.055,0.11h0.108A0.791,0.791,0,0,0,298.538,1480.98Zm10.482,0.6a0.429,0.429,0,0,1-.109.21h-0.054v0.11H308.8c-0.019.08-.036,0.15-0.055,0.22h-0.054v0.16H308.64v0.22h-0.055v0.87a4.262,4.262,0,0,0,.326,2.29c0.055,0.04.109,0.07,0.163,0.11a1.889,1.889,0,0,0,1.521.49h0.434a3.848,3.848,0,0,0,.924-0.38c0.036-.06.072-0.11,0.108-0.17h0.109l0.163-.21h0.054v0.05a1.309,1.309,0,0,1,.543.65c-0.108.1-.217,0.18-0.326,0.28-0.018.03-.036,0.07-0.054,0.1h-0.109c-0.036.06-.072,0.11-0.108,0.17h-0.109v0.05l-0.217.06v0.05h-0.163v0.06h-0.109v0.05c-0.144.02-.289,0.04-0.434,0.05v0.06c-0.38.02-.76,0.04-1.141,0.05v-0.05h-0.434v-0.06h-0.272v-0.05h-0.163v-0.05h-0.163v-0.06h-0.162v-0.05h-0.109a1.133,1.133,0,0,0-.054-0.11l-0.218-.06-0.217-.27c-0.09-.07-0.181-0.14-0.271-0.22v-0.11a0.506,0.506,0,0,1-.109-0.05,4.7,4.7,0,0,1-.38-2.4,5.185,5.185,0,0,1,.109-1.41v-0.27h0.054v-0.17h0.054v-0.1h0.054v-0.17h0.055v-0.11a0.522,0.522,0,0,0,.108-0.05v-0.11a0.529,0.529,0,0,1,.109-0.05v-0.11l0.109-.06,0.217-.27h0.108c0.019-.04.037-0.07,0.055-0.11h0.108c0.019-.04.036-0.07,0.055-0.11h0.108v-0.05h0.163v-0.06h0.109v-0.05H309.4v-0.06h0.217v-0.05h0.326v-0.05a5.733,5.733,0,0,1,1.684.1v0.06h0.163v0.05H311.9v0.06a2.594,2.594,0,0,1,.272.05v0.06a1.047,1.047,0,0,1,.163.05c0.018,0.04.036,0.07,0.054,0.11H312.5c0.126,0.14.253,0.29,0.38,0.44h0.054v0.16c-0.072.05-.145,0.11-0.217,0.16v0.06H312.6v0.05a0.912,0.912,0,0,1-.38.27,2.156,2.156,0,0,0-2.335-.7h-0.217v0.05a2.594,2.594,0,0,1-.272.05,1.133,1.133,0,0,1-.054.11h-0.109v0.06A0.552,0.552,0,0,1,309.02,1481.58Zm11.731,2.56a1.933,1.933,0,0,0,.869,1.79c0.018,0.04.036,0.07,0.054,0.11h0.109v0.05c0.181,0.04.362,0.08,0.543,0.11v0.06a3.354,3.354,0,0,0,1.195-.06c0.253-.12.506-0.25,0.76-0.38v-0.05a0.594,0.594,0,0,1,.38-0.22,2.961,2.961,0,0,1,.543.65,1.458,1.458,0,0,1-.163.11v0.06h-0.108c-0.036.05-.073,0.11-0.109,0.16h-0.109c-0.018.04-.036,0.07-0.054,0.11h-0.108c-0.019.04-.037,0.07-0.055,0.11H324.39v0.05h-0.109v0.06h-0.163v0.05h-0.109v0.06l-0.923.21a1.14,1.14,0,0,1-.543-0.05h-0.434v-0.06h-0.272v-0.05h-0.163v-0.05h-0.163v-0.06H321.4v-0.05c-0.109-.04-0.218-0.08-0.326-0.11-0.018-.04-0.037-0.07-0.055-0.11h-0.108c-0.109-.13-0.217-0.26-0.326-0.38-0.054-.04-0.109-0.07-0.163-0.11v-0.11a0.506,0.506,0,0,0-.109-0.05l-0.108-.33h-0.055v-0.11H320.1v-0.16a5.97,5.97,0,0,1,.217-3.98,0.506,0.506,0,0,0,.109-0.05v-0.11c0.054-.04.109-0.07,0.163-0.11v-0.11c0.072-.05.145-0.11,0.217-0.16v-0.05h0.109c0.036-.06.072-0.11,0.108-0.17h0.109c0.018-.04.036-0.07,0.054-0.11a1.712,1.712,0,0,1,.218-0.05v-0.06h0.162a2.918,2.918,0,0,1,1.9-.11l0.381,0.06v0.05l0.217,0.06v0.05h0.108c0.019,0.04.037,0.07,0.055,0.11h0.108l0.218,0.27c0.753,0.76.881,1.65,0.868,3.16a5.374,5.374,0,0,1-1.466.06h-3.2Zm29.762-3.92c0.452,0.01.905,0.03,1.357,0.05v0.05h0.163v0.06H352.2v0.05h0.163v0.06h0.109v0.05h0.108v0.06a0.985,0.985,0,0,1,.163.05c0.018,0.04.037,0.07,0.055,0.11H352.9c0.018,0.04.036,0.07,0.055,0.11,0.09,0.07.181,0.14,0.271,0.22v0.11a0.529,0.529,0,0,1,.109.05v0.11a0.522,0.522,0,0,0,.108.05v0.11H353.5v0.11h0.054v0.16h0.054v0.11h0.055v0.22h0.054v0.22h0.054v0.38h0.055v1.14c0,1.97-.6,2.82-2.119,3.27-0.325.02-.651,0.04-0.977,0.05v-0.05H350.3v-0.06h-0.217v-0.05h-0.163v-0.05h-0.163v-0.06a1.7,1.7,0,0,0-.217-0.05v-0.06h-0.109a1.133,1.133,0,0,1-.054-0.11c-0.892-.6-1.14-1.44-1.14-2.94a5.17,5.17,0,0,1,.163-1.63v-0.22h0.054v-0.11H348.5v-0.16h0.054c0.019-.07.037-0.14,0.055-0.22a0.522,0.522,0,0,0,.108-0.05v-0.11a0.554,0.554,0,0,1,.109-0.05v-0.11l0.109-.06,0.217-.27h0.108c0.019-.04.037-0.07,0.055-0.11h0.108c0.019-.04.037-0.07,0.055-0.11h0.108v-0.05H349.7v-0.06h0.163v-0.05h0.163v-0.06h0.163v-0.05h0.326v-0.05Zm22.321,0a4.365,4.365,0,0,1,2.444.43c0.018,0.04.036,0.07,0.054,0.11h0.109c0.127,0.14.253,0.29,0.38,0.44h0.054v0.16c-0.054.04-.108,0.07-0.163,0.11v0.05H375.6v0.06a1.191,1.191,0,0,1-.435.32,2.156,2.156,0,0,0-2.335-.7c-0.127.01-.253,0.03-0.38,0.05v0.05l-0.217.06c-0.037.05-.073,0.11-0.109,0.16a2.253,2.253,0,0,0-.652,2.02v0.87h0.055v0.49h0.054v0.22h0.054v0.16h0.055v0.11h0.054v0.11a0.522,0.522,0,0,1,.108.05v0.11a0.554,0.554,0,0,0,.109.05c0.054,0.08.109,0.15,0.163,0.22h0.109c0.018,0.04.036,0.07,0.054,0.11a3.635,3.635,0,0,0,1.683.22,3.848,3.848,0,0,0,.924-0.38c0.036-.06.072-0.11,0.108-0.17h0.109l0.163-.21h0.054v0.05a1.309,1.309,0,0,1,.543.65c-0.108.1-.217,0.18-0.326,0.28-0.018.03-.036,0.07-0.054,0.1h-0.108c-0.019.04-.037,0.08-0.055,0.11l-0.163.06v0.05h-0.108v0.06h-0.109v0.05h-0.163v0.06h-0.163v0.05h-0.163v0.05h-0.217a2.612,2.612,0,0,1-1.14.11v-0.05h-0.435v-0.06H372.4v-0.05h-0.162v-0.05h-0.163v-0.06h-0.163v-0.05l-0.217-.06a0.938,0.938,0,0,1-.055-0.11h-0.108l-0.218-.27-0.326-.27c-0.018-.07-0.036-0.15-0.054-0.22h-0.054c-0.018-.07-0.036-0.14-0.054-0.22H370.77a6.882,6.882,0,0,1-.217-2.45,3.72,3.72,0,0,1,.217-1.47v-0.16h0.055l0.108-.33c0.054-.03.109-0.07,0.163-0.1v-0.11l0.109-.06,0.217-.27h0.109c0.018-.04.036-0.07,0.054-0.11h0.109c0.018-.04.036-0.07,0.054-0.11h0.108v-0.05h0.163v-0.06h0.109v-0.05l0.38-.06v-0.05h0.326v-0.05Zm37.854,0c1.444-.02,2.193.18,2.77,1.03a0.522,0.522,0,0,0,.108.05v0.11l0.109,0.06v0.11h0.054v0.16h0.055v0.11h0.054a3.63,3.63,0,0,1,.163,1.2v1.79h-0.054v0.28h-0.055v0.21h-0.054v0.17h-0.054v0.16h-0.055c-0.018.07-.036,0.14-0.054,0.22h-0.054v0.11a0.506,0.506,0,0,0-.109.05v0.11c-0.054.04-.108,0.07-0.163,0.11v0.11c-0.072.05-.145,0.11-0.217,0.16v0.05h-0.109c-0.036.06-.072,0.11-0.108,0.17h-0.109v0.05c-0.109.04-.217,0.07-0.326,0.11v0.06c-0.108.01-.217,0.03-0.326,0.05v0.05h-0.217v0.06h-0.38v0.05a2.261,2.261,0,0,1-1.032-.11h-0.217v-0.05h-0.217v-0.05h-0.109v-0.06a2.594,2.594,0,0,0-.272-0.05,1.133,1.133,0,0,0-.054-0.11h-0.109c-0.018-.04-0.036-0.07-0.054-0.11h-0.108l-0.218-.27-0.108-.06v-0.11a1.458,1.458,0,0,1-.163-0.11c-0.018-.07-0.036-0.14-0.055-0.21h-0.054l-0.108-.33h-0.055c-0.036-.22-0.072-0.43-0.108-0.65h-0.055v-1.2a5.2,5.2,0,0,1,.218-2.01h0.054l0.108-.33a3.348,3.348,0,0,1,.544-0.54c0.036-.06.072-0.11,0.108-0.17a1.738,1.738,0,0,1,.217-0.05c0.019-.04.037-0.08,0.055-0.11Zm-110.521.1h0.978v5.07H301.2v-0.11a1.259,1.259,0,0,0,.326-0.44c0.073-.05.145-0.11,0.217-0.16v-0.11c0.055-.04.109-0.07,0.163-0.11v-0.11a1.458,1.458,0,0,0,.163-0.11v-0.1a1.668,1.668,0,0,1,.163-0.11v-0.11a1.556,1.556,0,0,1,.163-0.11v-0.11c0.054-.04.109-0.07,0.163-0.11v-0.11c0.036-.02.072-0.03,0.109-0.05,0.018-.06.036-0.11,0.054-0.17a1.556,1.556,0,0,0,.163-0.11v-0.1a1.458,1.458,0,0,1,.163-0.11v-0.11c0.054-.04.108-0.07,0.163-0.11v-0.11a1.668,1.668,0,0,0,.163-0.11v-0.11a1.668,1.668,0,0,0,.163-0.11v-0.1l0.108-.06c0.018-.05.036-0.11,0.054-0.16,0.055-.04.109-0.07,0.163-0.11v-0.11c0.073-.05.145-0.11,0.218-0.16v-0.11c0.054-.04.108-0.07,0.163-0.11v-0.11c0.054-.04.108-0.07,0.162-0.11v-0.11a1.458,1.458,0,0,0,.163-0.11v-0.1a1.668,1.668,0,0,1,.163-0.11c0.033-.05.194-0.37,0.218-0.39h0.814v6.75h-0.923a5.714,5.714,0,0,1-.054-1.57v-3.38h-0.055v0.06c-0.071.06-.1,0.15-0.163,0.21l-0.108.06v0.11c-0.055.03-.109,0.07-0.163,0.1v0.11l-0.109.06c-0.018.05-.036,0.11-0.054,0.16-0.072.06-.145,0.11-0.217,0.16v0.11a1.668,1.668,0,0,1-.163.11v0.11c-0.054.04-.109,0.07-0.163,0.11v0.11c-0.073.05-.145,0.11-0.217,0.16v0.11c-0.055.04-.109,0.07-0.163,0.11v0.11c-0.055.04-.109,0.07-0.163,0.11v0.11c-0.073.05-.145,0.11-0.217,0.16v0.11c-0.055.04-.109,0.07-0.163,0.11v0.11a1.458,1.458,0,0,0-.163.11v0.11c-0.055.03-.109,0.07-0.163,0.1v0.11c-0.073.06-.145,0.11-0.217,0.17-0.019.05-.037,0.11-0.055,0.16a0.522,0.522,0,0,1-.108.05v0.11l-0.109.06c-0.018.05-.036,0.11-0.054,0.16-0.073.05-.145,0.11-0.218,0.16v0.11c-0.054.04-.108,0.07-0.163,0.11v0.11c-0.054.04-.108,0.07-0.162,0.11v0.11c-0.073.05-.145,0.11-0.218,0.16-0.018.06-.036,0.11-0.054,0.16h-0.76a9.624,9.624,0,0,1-.055-2.12v-4.63Zm13.415,0H318.8v0.88h-2.118v5.82a3.076,3.076,0,0,1-.978.05v-5.87h-2.118v-0.88Zm13.632,0h0.814c0.091,0.15.181,0.29,0.272,0.44,0.018,0.07.036,0.14,0.054,0.22,0.036,0.02.073,0.03,0.109,0.05v0.11h0.054v0.11h0.054v0.11h0.055v0.11h0.054v0.11c0.036,0.02.072,0.03,0.109,0.05v0.11h0.054v0.11H328.9v0.11h0.055v0.11h0.054v0.11a0.554,0.554,0,0,1,.109.05c0.018,0.07.036,0.14,0.054,0.22h0.054c0.036,0.11.073,0.21,0.109,0.32l0.108,0.06v0.11H329.5v0.11h0.054v0.1H329.6v0.11h0.055v0.11h0.054v0.11l0.109,0.06v0.1h0.054v0.11h0.054v0.11h0.054v0.11h0.055a2.182,2.182,0,0,1,.271.6h0.109c0.036-.11.072-0.22,0.109-0.33h0.054v-0.1l0.109-.06v-0.11h0.054v-0.11H330.8v-0.11h0.054v-0.11h0.055v-0.1l0.108-.06v-0.11h0.055v-0.11h0.054v-0.11h0.054v-0.1h0.055v-0.11l0.108-.06v-0.11H331.4v-0.11h0.055v-0.1H331.5v-0.11h0.054v-0.11l0.109-.06v-0.1h0.054v-0.11h0.055v-0.11h0.054v-0.11h0.054v-0.11a0.554,0.554,0,0,1,.109-0.05v-0.11h0.054v-0.11H332.1l0.108-.33c0.036-.02.073-0.03,0.109-0.05v-0.11h0.054v-0.11h0.054v-0.11h0.055v-0.11h0.054v-0.11a0.506,0.506,0,0,1,.109-0.05c0.018-.06.036-0.11,0.054-0.17h0.815v6.75H332.7v-5h-0.054v0.05a0.433,0.433,0,0,0-.109.22h-0.054v0.11h-0.055v0.11c-0.036.02-.072,0.03-0.108,0.05v0.11h-0.054v0.11H332.21v0.11h-0.054v0.11H332.1v0.1l-0.109.06v0.11h-0.054v0.11h-0.055v0.11H331.83v0.1h-0.054v0.11l-0.109.06v0.11h-0.054v0.11h-0.055v0.11H331.5v0.1l-0.109.06v0.11h-0.054v0.11h-0.054v0.11h-0.054v0.1h-0.055v0.11l-0.108.06v0.11h-0.055v0.11h-0.054v0.1h-0.054v0.11h-0.055v0.11l-0.108.06v0.11H330.69c-0.019.05-.037,0.1-0.055,0.16h-0.543c-0.018-.06-0.036-0.11-0.054-0.16h-0.055v-0.11h-0.054v-0.11l-0.108-.06v-0.11h-0.055v-0.1h-0.054v-0.11h-0.054v-0.11l-0.109-.06v-0.11H329.5v-0.1H329.44v-0.11h-0.054v-0.11h-0.054v-0.11l-0.109-.06-0.054-.21h-0.054v-0.11H329.06v-0.11h-0.054v-0.11l-0.109-.06v-0.1h-0.054v-0.11h-0.054v-0.11h-0.055v-0.11l-0.108-.06v-0.1h-0.055v-0.11h-0.054v-0.11h-0.054v-0.11h-0.055v-0.11c-0.036-.02-0.072-0.03-0.108-0.05v-0.11a1.507,1.507,0,0,1-.217-0.44h-0.055v5.06h-0.814v-6.75Zm8.526,0h0.978v2.34c1.427-.01,2.542-0.05,3.15.77,0.072,0.05.145,0.11,0.217,0.16a2.586,2.586,0,0,1,.326,1.53,2.309,2.309,0,0,1-.217.87,0.529,0.529,0,0,0-.109.05v0.11a0.522,0.522,0,0,1-.108.05v0.11h-0.055c-0.054.07-.108,0.15-0.163,0.22h-0.108c-0.037.05-.073,0.11-0.109,0.16h-0.109v0.06c-0.108.03-.217,0.07-0.325,0.11v0.05l-0.326.06v0.05h-0.326v0.05H335.74v-6.75Zm5.975,0h0.977v6.7a3.068,3.068,0,0,1-.977.05v-6.75Zm13.9,0h0.923c-0.022,1.61-.243,3.3.923,3.76a4.247,4.247,0,0,0,1.249.06v-0.06c0.145-.02.29-0.04,0.435-0.05v-0.06c0.108-.03.217-0.07,0.326-0.11,0.09-.11.181-0.22,0.271-0.32l0.109-.06c0.429-.64.286-2.11,0.271-3.16H361.1v6.7a3.072,3.072,0,0,1-.978.05v-2.88h-0.054v0.05l-0.326.39h-0.108c-0.018.03-.036,0.07-0.055,0.1l-0.217.06v0.05l-0.217.06v0.05h-0.217v0.06h-0.218v0.05H358.17v0.06h-0.217v-0.06H357.41v-0.05h-0.217v-0.06c-0.109-.02-0.218-0.03-0.326-0.05v-0.06c-0.072-.02-0.145-0.03-0.217-0.05v-0.06h-0.109C355.423,1483.99,355.606,1482.18,355.618,1480.32Zm7.5,0h0.977v5.07h0.054v-0.11a1.259,1.259,0,0,0,.326-0.44,1.458,1.458,0,0,0,.163-0.11v-0.1a1.668,1.668,0,0,1,.163-0.11v-0.11a1.556,1.556,0,0,1,.163-0.11v-0.11c0.054-.04.109-0.07,0.163-0.11v-0.11a1.556,1.556,0,0,0,.163-0.11v-0.11a1.668,1.668,0,0,0,.163-0.11v-0.1c0.072-.06.145-0.11,0.217-0.17v-0.11a1.556,1.556,0,0,0,.163-0.11c0.018-.05.036-0.1,0.054-0.16,0.037-.02.073-0.03,0.109-0.05v-0.11c0.054-.04.109-0.07,0.163-0.11v-0.11a1.556,1.556,0,0,0,.163-0.11v-0.11a1.668,1.668,0,0,0,.163-0.11v-0.1a1.458,1.458,0,0,1,.163-0.11v-0.11l0.108-.06c0.018-.05.036-0.11,0.055-0.16,0.054-.04.108-0.07,0.163-0.11v-0.11a1.546,1.546,0,0,0,.162-0.11v-0.11c0.055-.03.109-0.07,0.163-0.1v-0.11a1.668,1.668,0,0,1,.163-0.11v-0.11c0.055-.04.109-0.07,0.163-0.11v-0.11c0.055-.04.109-0.07,0.163-0.11v-0.11a0.529,0.529,0,0,0,.109-0.05v-0.06h0.815v6.7a3.076,3.076,0,0,1-.978.05v-4.95h-0.054a0.66,0.66,0,0,1-.109.11v0.11a1.556,1.556,0,0,0-.163.11v0.11c-0.072.05-.145,0.1-0.217,0.16v0.11a1.458,1.458,0,0,0-.163.11v0.11c-0.054.03-.109,0.07-0.163,0.1v0.11l-0.109.06c-0.018.05-.036,0.11-0.054,0.16-0.072.06-.145,0.11-0.217,0.16v0.11a1.668,1.668,0,0,1-.163.11v0.11c-0.054.04-.109,0.07-0.163,0.11v0.11c-0.073.05-.145,0.11-0.217,0.16v0.11c-0.055.04-.109,0.07-0.163,0.11v0.11c-0.055.04-.109,0.07-0.163,0.11v0.11c-0.073.05-.145,0.11-0.218,0.16v0.11c-0.054.04-.108,0.07-0.162,0.11v0.11a1.458,1.458,0,0,0-.163.11v0.11c-0.073.05-.145,0.1-0.218,0.16v0.11a1.546,1.546,0,0,0-.162.11v0.1a1.668,1.668,0,0,1-.163.11v0.11c-0.055.04-.109,0.07-0.163,0.11v0.11c-0.073.05-.145,0.11-0.218,0.16-0.033.05-.193,0.37-0.217,0.38h-0.76a9.628,9.628,0,0,1-.054-2.12v-4.63Zm13.36,0h5.268v0.88h-2.118v5.82a3.074,3.074,0,0,1-.978.05v-5.87h-2.172v-0.88Zm7.006,0h0.977v2.89h1.249c0.037-.06.073-0.11,0.109-0.16h0.054v-0.11l0.109-.06v-0.11a1.556,1.556,0,0,0,.163-0.11v-0.1l0.109-.06v-0.11a1.546,1.546,0,0,0,.162-0.11v-0.1h0.055c0.018-.06.036-0.11,0.054-0.17,0.036-.02.072-0.03,0.109-0.05v-0.11c0.054-.04.108-0.07,0.163-0.11v-0.11c0.036-.02.072-0.03,0.108-0.05v-0.11c0.054-.04.109-0.07,0.163-0.11v-0.11a0.529,0.529,0,0,1,.109-0.05v-0.11a1.458,1.458,0,0,1,.163-0.11v-0.11a0.522,0.522,0,0,1,.108-0.05v-0.11l0.109-.06v-0.11h0.054a0.408,0.408,0,0,0,.109-0.22h1.14a0.394,0.394,0,0,1-.108.22h-0.054v0.11l-0.109.06v0.11c-0.054.03-.109,0.07-0.163,0.1v0.11h-0.054c-0.018.06-.037,0.11-0.055,0.17a0.522,0.522,0,0,0-.108.05v0.11c-0.055.04-.109,0.07-0.163,0.11v0.11h-0.055c-0.018.05-.036,0.11-0.054,0.16a0.522,0.522,0,0,1-.108.05v0.11a1.668,1.668,0,0,1-.163.11v0.11l-0.109.06v0.1a1.556,1.556,0,0,1-.163.11v0.11h-0.054c-0.018.06-.036,0.11-0.055,0.16l-0.108.06v0.11a1.458,1.458,0,0,0-.163.11v0.11a0.529,0.529,0,0,0-.109.05,1.9,1.9,0,0,1-.326.49,0.894,0.894,0,0,0,.218.38l0.108,0.06c0.018,0.05.036,0.11,0.054,0.16,0.055,0.04.109,0.07,0.163,0.11v0.11c0.073,0.05.145,0.11,0.218,0.16v0.11a0.522,0.522,0,0,0,.108.05v0.06c0.037,0.02.073,0.03,0.109,0.05v0.11c0.09,0.07.181,0.15,0.272,0.22v0.11c0.072,0.05.144,0.11,0.217,0.16v0.11c0.072,0.06.145,0.11,0.217,0.16v0.11c0.072,0.06.145,0.11,0.217,0.17v0.1c0.073,0.06.145,0.11,0.218,0.17v0.11c0.072,0.05.144,0.11,0.217,0.16v0.11c0.054,0.04.108,0.07,0.163,0.11a2.869,2.869,0,0,1,.217.32H388.1a3.12,3.12,0,0,0-.271-0.27c-0.019-.05-0.037-0.11-0.055-0.16-0.054-.04-0.108-0.07-0.163-0.11v-0.11c-0.072-.05-0.145-0.11-0.217-0.16v-0.11c-0.072-.06-0.145-0.11-0.217-0.16v-0.11c-0.073-.06-0.145-0.11-0.218-0.17v-0.1c-0.072-.06-0.144-0.11-0.217-0.17v-0.11c-0.072-.05-0.145-0.11-0.217-0.16v-0.11c-0.072-.05-0.145-0.11-0.217-0.16v-0.11l-0.109-.06v-0.05a0.522,0.522,0,0,0-.108-0.05v-0.11c-0.073-.06-0.145-0.11-0.218-0.17v-0.11a0.522,0.522,0,0,1-.108-0.05v-0.05h-1.3v2.88a3.068,3.068,0,0,1-.977.05v-6.75Zm6.843,0h0.923v5.07H391.3v-0.06a1.367,1.367,0,0,0,.218-0.32,1.458,1.458,0,0,1,.163-0.11v-0.11c0.054-.04.108-0.07,0.162-0.11v-0.11c0.055-.04.109-0.07,0.163-0.11v-0.11a1.458,1.458,0,0,0,.163-0.11v-0.1a1.668,1.668,0,0,1,.163-0.11v-0.11a1.668,1.668,0,0,1,.163-0.11v-0.11c0.054-.04.109-0.07,0.163-0.11v-0.11a1.556,1.556,0,0,0,.163-0.11v-0.11c0.072-.05.145-0.11,0.217-0.16v-0.11a1.458,1.458,0,0,0,.163-0.11v-0.11a1.556,1.556,0,0,0,.163-0.11v-0.1a1.556,1.556,0,0,1,.163-0.11v-0.11c0.054-.04.109-0.07,0.163-0.11v-0.11a0.506,0.506,0,0,1,.109-0.05c0.018-.06.036-0.11,0.054-0.17a1.668,1.668,0,0,0,.163-0.11v-0.1a1.458,1.458,0,0,1,.163-0.11v-0.11c0.054-.04.108-0.07,0.163-0.11v-0.11c0.054-.04.108-0.07,0.163-0.11v-0.11a1.668,1.668,0,0,0,.163-0.11v-0.1a1.458,1.458,0,0,1,.163-0.11c0.032-.05.193-0.37,0.217-0.39h0.814v6.75h-0.923a5.714,5.714,0,0,1-.054-1.57v-3.38H394.83v0.06a1.367,1.367,0,0,0-.218.32l-0.108.06c-0.018.05-.037,0.1-0.055,0.16-0.072.05-.145,0.11-0.217,0.16v0.11c-0.054.04-.109,0.07-0.163,0.11v0.11c-0.054.04-.109,0.07-0.163,0.11v0.11c-0.072.05-.145,0.11-0.217,0.16v0.11c-0.054.04-.109,0.07-0.163,0.11v0.11a1.556,1.556,0,0,0-.163.11v0.11c-0.072.05-.145,0.1-0.217,0.16v0.11a1.556,1.556,0,0,0-.163.11v0.11c-0.054.03-.109,0.07-0.163,0.1v0.11c-0.072.06-.145,0.11-0.217,0.17v0.11c-0.055.03-.109,0.07-0.163,0.1v0.11c-0.054.04-.109,0.07-0.163,0.11v0.11c-0.072.06-.145,0.11-0.217,0.16v0.11a1.668,1.668,0,0,1-.163.11v0.11c-0.055.04-.109,0.07-0.163,0.11v0.11c-0.054.04-.109,0.07-0.163,0.11v0.11c-0.073.05-.145,0.1-0.217,0.16v0.11a1.458,1.458,0,0,0-.163.11v0.11a0.529,0.529,0,0,0-.109.05v0.05h-0.76v-6.75Zm11.133,0h2.824a4.864,4.864,0,0,1,1.521.11v0.06c0.109,0.03.217,0.07,0.326,0.11,0.091,0.11.181,0.22,0.272,0.32l0.108,0.06v0.11c0.036,0.02.073,0.03,0.109,0.05l0.054,0.33a2.288,2.288,0,0,1,.109,1.09c-0.055.16-.109,0.32-0.163,0.49l-0.326.27v0.05H406.18v0.06c-0.09.02-.181,0.03-0.271,0.05v0.06h0.108a0.458,0.458,0,0,0,.218.1v0.06h0.108c0.054,0.07.109,0.14,0.163,0.22,0.036,0.02.073,0.03,0.109,0.05v0.11l0.108,0.06v0.1h0.055a2.344,2.344,0,0,1,.108.82,2.24,2.24,0,0,1-.271,1.31c-0.073.05-.145,0.11-0.217,0.16-0.055.07-.109,0.15-0.163,0.22h-0.109v0.05l-0.217.06v0.05h-0.163v0.06h-0.218v0.05H405.2a6.081,6.081,0,0,1-1.3.05h-2.444v-6.75Zm15.044,0h4.671v5.83h0.977v2.61h-0.923v-1.69h-5v1.69H415.3v-2.61a2.17,2.17,0,0,0,.706-0.11c0.037-.05.073-0.11,0.109-0.16h0.054c0.036-.11.073-0.22,0.109-0.33h0.054v-0.22h0.055v-0.27h0.054v-0.49a6.611,6.611,0,0,0,.054-1.47v-2.78Zm7.549,0h0.978v2.34h1.683v0.06h0.326v0.05h0.218v0.06h0.162v0.05c0.109,0.04.218,0.08,0.326,0.11v0.06h0.109l0.163,0.21a1.957,1.957,0,0,1,.706,1.8,2.126,2.126,0,0,1-.217.93,0.506,0.506,0,0,0-.109.05v0.11a0.506,0.506,0,0,1-.109.05v0.11H428.23c-0.054.07-.109,0.15-0.163,0.22h-0.109c-0.036.05-.072,0.11-0.108,0.16h-0.109v0.06c-0.108.03-.217,0.07-0.326,0.11v0.05l-0.325.06v0.05h-0.326v0.05h-2.716v-6.75Zm5.974,0H431v6.7a3.072,3.072,0,0,1-.978.05v-6.75Zm-109.271,2.94H324.5a1.989,1.989,0,0,0-1.032-2.06l-0.543-.06v-0.05a1.512,1.512,0,0,0-.76.11h-0.217v0.05a1.712,1.712,0,0,1-.218.05v0.06H321.62c-0.018.04-.036,0.07-0.055,0.11h-0.108a1.133,1.133,0,0,0-.054.11c-0.073.05-.145,0.11-0.218,0.16v0.11a0.522,0.522,0,0,1-.108.05A3.961,3.961,0,0,0,320.751,1483.26Zm28.947,2.56a0.552,0.552,0,0,1,.217.11v0.06h0.109c0.018,0.03.036,0.07,0.054,0.1l0.272,0.06v0.05h0.217a2.1,2.1,0,0,0,1.575-.21c0.072-.09.145-0.19,0.217-0.28,0.054-.03.109-0.07,0.163-0.1a4.153,4.153,0,0,0,.326-2.24c-0.018-.34-0.036-0.69-0.054-1.03h-0.055v-0.16h-0.054v-0.11h-0.054c-0.018-.08-0.037-0.15-0.055-0.22l-0.108-.06v-0.1c-0.073-.06-0.145-0.11-0.217-0.17a1.125,1.125,0,0,1-.055-0.11h-0.108a1.393,1.393,0,0,0-.706-0.27,2.35,2.35,0,0,0-1.087.06v0.05a2.576,2.576,0,0,1-.271.05,0.938,0.938,0,0,1-.055.11h-0.108c-0.036.06-.072,0.11-0.109,0.17a1.668,1.668,0,0,0-.163.11v0.1l-0.108.06c-0.018.07-.036,0.14-0.055,0.22h-0.054v0.11h-0.054v0.16h-0.055c-0.018.42-.036,0.83-0.054,1.25v1.14c0.073,0.24.145,0.48,0.217,0.71l0.109,0.06v0.11h0.054A0.421,0.421,0,0,1,349.7,1485.82Zm61.316-4.73a3.881,3.881,0,0,1-.543.11v0.05a1.738,1.738,0,0,1-.217.05v0.06h-0.109c-0.036.05-.073,0.11-0.109,0.16l-0.163.06v0.11c-0.054.03-.108,0.07-0.163,0.1l-0.108.33h-0.055v0.11h-0.054v0.22a4.636,4.636,0,0,0-.108,1.3,3.313,3.313,0,0,0,.38,1.91c0.072,0.05.145,0.11,0.217,0.16,0.036,0.06.072,0.11,0.109,0.17,0.108,0.03.217,0.07,0.325,0.1v0.06h0.109v0.05a3.544,3.544,0,0,0,1.141.06v-0.06c0.126-.01.253-0.03,0.38-0.05v-0.06h0.108v-0.05h0.109c0.018-.04.036-0.07,0.054-0.11h0.109c0.054-.07.108-0.14,0.163-0.22h0.054v-0.1l0.109-.06c0.018-.07.036-0.15,0.054-0.22h0.054v-0.11h0.055v-0.16h0.054c0.018-.24.036-0.47,0.054-0.71h0.055a5.131,5.131,0,0,0-.055-1.36v-0.49h-0.054v-0.22h-0.054v-0.16A1.86,1.86,0,0,0,411.014,1481.09Zm-8.581.11v1.9H404.5a1.438,1.438,0,0,0,.814-0.11,0.544,0.544,0,0,0,.435-0.49,1.606,1.606,0,0,0,0-.87c-0.164-.11-0.029-0.06-0.109-0.16l-0.109-.06v-0.05H405.42c-0.018-.04-0.036-0.07-0.054-0.11H405.2v-0.05h-2.77Zm15.044,0v2.61q-0.027.7-.055,1.41h-0.054v0.28h-0.054v0.16h-0.055v0.16h-0.054l-0.108.33h3.1v-4.95h-2.715Zm-80.759,2.39v2.56h1.846v-0.06c0.109-.03.218-0.07,0.326-0.1,0.073-.09.145-0.19,0.218-0.28a0.522,0.522,0,0,0,.108-0.05,0.577,0.577,0,0,1,.109-0.22,2.444,2.444,0,0,0,.054-0.92h-0.054v-0.17h-0.054v-0.16a0.554,0.554,0,0,0-.109-0.05,0.621,0.621,0,0,0-.38-0.39A4.736,4.736,0,0,0,336.718,1483.59Zm88.308,0v2.56h1.846v-0.06c0.109-.03.218-0.07,0.326-0.1,0.073-.09.145-0.19,0.217-0.28a0.506,0.506,0,0,0,.109-0.05,1.454,1.454,0,0,0-.434-1.91A4.736,4.736,0,0,0,425.026,1483.59Zm-22.593.33v2.28h2.009a2.365,2.365,0,0,0,1.032-.11c0.018-.03.036-0.07,0.054-0.1h0.109a0.938,0.938,0,0,1,.055-0.11h0.054v-0.11l0.108-.06v-0.16h0.055v-0.33a1,1,0,0,0-.489-1.14,1.578,1.578,0,0,0-.923-0.16h-2.064Z" transform="translate(-195 -1430.03)"/>
</svg>
