<svg xmlns="http://www.w3.org/2000/svg" width="100" height="80" viewBox="0 0 100 80">
  <defs>
    <style>
      .cls-1 {
        fill: #4ca6b4;
        fill-rule: evenodd;
        opacity: 0.15;
      }
    </style>
  </defs>
  <path id="logo_bg" class="cls-1" d="M913.055,2500.28a0.463,0.463,0,0,0,.124.25h0.062c0.042,0.13.083,0.25,0.125,0.38h0.062c0.021,0.1.041,0.2,0.062,0.31h0.062v0.12h0.062c0.021,0.09.042,0.17,0.063,0.25h0.062v0.19H913.8c0.021,0.08.041,0.17,0.062,0.25h0.062v0.19h0.063c0.02,0.08.041,0.16,0.062,0.25h0.062v0.18h0.062c0.021,0.09.042,0.17,0.062,0.25H914.3q0.094,0.315.187,0.63h0.062v0.12h0.062v0.19h0.063c0.02,0.08.041,0.17,0.062,0.25H914.8v0.19h0.062c0.021,0.08.042,0.16,0.062,0.25h0.062v0.19h0.063v0.12h0.062c0.02,0.08.041,0.17,0.062,0.25h0.062v0.19h0.062c0.021,0.08.042,0.16,0.063,0.25h0.062v0.19h0.062v0.12h0.062v0.19H915.6c0.021,0.08.042,0.16,0.063,0.25h0.062v0.18h0.062c0.021,0.09.041,0.17,0.062,0.25h0.062v0.19h0.062v0.13h0.063v0.18H916.1v0.13h0.062c0.021,0.08.041,0.16,0.062,0.25h0.062v0.19h0.063c0.02,0.08.041,0.16,0.062,0.25h0.062v0.18h0.062v0.13H916.6v0.18h0.062c0.021,0.09.042,0.17,0.063,0.25h0.062v0.19h0.062v0.13h0.062v0.18h0.062c0.021,0.09.042,0.17,0.063,0.25H917.1v0.19h0.062c0.021,0.09.041,0.17,0.062,0.25h0.062v0.19h0.062v0.12h0.063c0.02,0.09.041,0.17,0.062,0.25h0.062v0.19h0.062c0.021,0.08.042,0.17,0.062,0.25h0.063v0.19h0.062v0.12h0.062c0.021,0.09.041,0.17,0.062,0.25h0.062v0.19h0.062c0.021,0.08.042,0.17,0.063,0.25h0.062v0.19h0.062c0.021,0.08.041,0.16,0.062,0.25h0.062v0.18H918.4c0.02,0.09.041,0.17,0.062,0.26h0.062v0.18h0.062v0.13h0.062c0.021,0.1.042,0.2,0.062,0.31h0.063v0.19h0.062c0.021,0.08.041,0.16,0.062,0.25h0.062v0.18h0.062c0.021,0.09.042,0.17,0.063,0.25h0.062v0.19h0.062c0.021,0.08.041,0.17,0.062,0.25h0.062v0.19H919.4c0.02,0.08.041,0.16,0.062,0.25h0.062v0.19h0.062c0.021,0.08.042,0.16,0.062,0.24h0.062v0.19h0.063c0.02,0.09.041,0.17,0.062,0.25H919.9v0.19h0.062v0.12h0.062c0.021,0.09.042,0.17,0.063,0.25h0.062v0.19h0.062c0.021,0.09.041,0.17,0.062,0.25h0.062v0.19h0.062v0.12h0.063v0.19h0.062c0.021,0.08.041,0.17,0.062,0.25h0.062c0.021,0.1.042,0.21,0.062,0.31h0.063v0.19h0.062c0.021,0.08.041,0.17,0.062,0.25h0.062v0.19h0.062v0.12h0.062v0.19h0.063c0.02,0.08.041,0.17,0.062,0.25h0.062v0.19h0.062v0.12h0.062v0.19h0.063c0.02,0.08.041,0.17,0.062,0.25h0.062v0.19h0.062c0.021,0.08.042,0.16,0.062,0.25h0.062v0.18h0.063c0.02,0.09.041,0.17,0.062,0.25h0.062v0.19h0.062c0.021,0.08.042,0.17,0.062,0.25h0.063v0.19H922.2c0.021,0.08.041,0.17,0.062,0.25h0.062v0.19h0.062c0.021,0.08.042,0.16,0.063,0.25h0.062v0.18h0.062c0.021,0.09.041,0.17,0.062,0.25h0.062v0.19h0.062c0.021,0.08.042,0.17,0.063,0.25h0.062v0.19h0.062c0.021,0.08.042,0.16,0.062,0.25h0.062v0.18h0.063v0.13h0.062c0.02,0.08.041,0.17,0.062,0.25h0.062v0.19h0.062c0.021,0.08.042,0.16,0.063,0.25H923.5v0.18h0.062c0.021,0.09.041,0.17,0.062,0.25h0.062v0.19h0.062c0.021,0.08.042,0.17,0.063,0.25h0.062v0.19h0.062v0.12H924c0.021,0.09.042,0.17,0.062,0.25h0.063v0.19h0.062c0.02,0.08.041,0.17,0.062,0.25h0.062v0.19h0.062c0.021,0.08.042,0.16,0.062,0.25H924.5v0.18h0.062c0.021,0.09.041,0.17,0.062,0.26h0.062v0.18h0.062c0.021,0.08.042,0.17,0.063,0.25h0.062v0.19h0.062c0.021,0.08.041,0.17,0.062,0.25h0.062v0.19h0.063c0.02,0.08.041,0.16,0.062,0.25h0.062v0.18h0.062c0.021,0.09.041,0.17,0.062,0.25h0.062v0.19h0.063c0.02,0.08.041,0.17,0.062,0.25h0.062v0.19h0.062v0.12h0.062v0.19H925.8c0.02,0.08.041,0.17,0.062,0.25h0.062v0.19h0.062c0.021,0.08.042,0.16,0.062,0.25h0.062v0.18h0.063v0.13h0.062v0.19H926.3c0.021,0.08.041,0.16,0.062,0.25h0.062v0.18h0.063v0.13h0.062v0.19h0.062c0.021,0.08.041,0.16,0.062,0.25h0.062v0.18H926.8c0.021,0.09.042,0.17,0.063,0.25h0.062v0.19h0.062c0.021,0.08.041,0.17,0.062,0.25h0.062v0.19h0.063c0.02,0.08.041,0.16,0.062,0.25H927.3v0.18h0.062c0.021,0.09.042,0.17,0.062,0.25h0.062v0.19h0.063c0.02,0.08.041,0.17,0.062,0.25h0.062v0.19h0.062c0.021,0.08.042,0.17,0.062,0.25h0.063v0.19h0.062v0.12h0.062v0.19h0.062c0.021,0.08.042,0.17,0.062,0.25h0.063v0.19h0.062c0.02,0.08.041,0.16,0.062,0.25h0.062v0.18h0.062c0.021,0.09.042,0.17,0.062,0.25h0.063v0.19H928.6c0.021,0.08.041,0.17,0.062,0.25h0.062v0.19h0.062c0.021,0.08.042,0.16,0.063,0.25h0.062v0.18h0.062c0.021,0.09.041,0.17,0.062,0.26H929.1v0.18h0.062c0.021,0.08.042,0.17,0.063,0.25h0.062v0.19h0.062c0.021,0.08.041,0.17,0.062,0.25h0.062v0.19h0.063c0.02,0.08.041,0.16,0.062,0.25h0.062v0.18h0.062v0.13h0.062v0.19h0.062c0.021,0.08.042,0.16,0.063,0.25h0.062V2540h0.062c0.021,0.09.041,0.17,0.062,0.25h0.062v0.19h0.063c0.02,0.08.041,0.17,0.062,0.25h0.062v0.19H930.4c0.021,0.08.042,0.16,0.062,0.25h0.062v0.19h0.063c0.02,0.08.041,0.16,0.062,0.24h0.062v0.19h0.062c0.021,0.09.042,0.17,0.062,0.25H930.9v0.19h0.062c0.021,0.08.041,0.17,0.062,0.25h0.062v0.19h0.062c0.021,0.08.042,0.16,0.063,0.25h0.062v0.18h0.062c0.021,0.09.041,0.17,0.062,0.25h0.062v0.19h0.062v0.12h0.063v0.19c1.416,3.16,2.751,6.46,4.166,9.62v0.19h0.062v0.12h0.062v0.19h0.063c0.02,0.08.041,0.17,0.062,0.25h0.062v0.19h0.062c0.021,0.08.042,0.16,0.062,0.25h0.063v0.18h0.062c0.02,0.09.041,0.17,0.062,0.25h0.062v0.19H936.5c0.021,0.09.042,0.17,0.062,0.25h0.063v0.19h0.062c0.02,0.08.041,0.17,0.062,0.25h0.062v0.19h0.062c0.021,0.08.042,0.16,0.063,0.25H937v0.18h0.062c0.021,0.09.041,0.17,0.062,0.25h0.062v0.19h0.062c0.021,0.09.042,0.17,0.063,0.25h0.062v0.19h0.062v0.12h0.062v0.19h0.062c0.021,0.08.042,0.17,0.063,0.25h0.062v0.19h0.062c0.021,0.08.041,0.16,0.062,0.25h0.062v0.19h0.062l0.063,0.24h0.062v0.19h0.062c0.021,0.09.041,0.17,0.062,0.25h0.062v0.19H938.3c0.02,0.08.041,0.17,0.062,0.25h0.062v0.19h0.062c0.021,0.08.042,0.16,0.062,0.25h0.062v0.18h0.063c0.02,0.09.041,0.17,0.062,0.25H938.8v0.19h0.062c0.021,0.08.042,0.17,0.062,0.25h0.063v0.19h0.062c0.021,0.08.041,0.16,0.062,0.25h0.062v0.19h0.062v0.12H939.3v0.19h0.063c0.02,0.08.041,0.16,0.062,0.25h0.062v0.18h0.062c0.021,0.09.042,0.17,0.062,0.25h0.063v0.19h0.062c0.021,0.08.041,0.17,0.062,0.25h0.062v0.19h0.062c0.021,0.08.042,0.17,0.063,0.25h0.062v0.19h0.062c0.021,0.08.041,0.16,0.062,0.25h0.062v0.18h0.062c0.021,0.09.042,0.17,0.063,0.25h0.062v0.19h0.062c0.021,0.08.041,0.17,0.062,0.25H940.6v0.19h0.063c0.02,0.08.041,0.16,0.062,0.25h0.062v0.18h0.062v0.13h0.062v0.19h0.062c0.021,0.08.042,0.16,0.063,0.25H941.1v0.18h0.062c0.021,0.09.041,0.17,0.062,0.25h0.062v0.19h0.063c0.02,0.08.041,0.17,0.062,0.25h0.062v0.19h0.062c0.021,0.08.042,0.17,0.062,0.25h0.062v0.19h0.063c0.02,0.08.041,0.16,0.062,0.25h0.062v0.18h0.062c0.021,0.09.042,0.17,0.062,0.25h0.063v0.19H942.1c0.021,0.08.041,0.17,0.062,0.25h0.062v0.19h0.062c0.021,0.08.042,0.16,0.062,0.25h0.063v0.18h0.062c0.021,0.09.041,0.17,0.062,0.25h0.062v0.19h0.062v0.13h0.063c0.02,0.08.041,0.16,0.062,0.25h0.062v0.18H942.9v0.13h0.062v0.19h0.062c0.042,0.12.083,0.25,0.125,0.37h0.062v0.13h0.062v0.12h0.062v0.19H943.4v0.12h0.062v0.13h0.062v0.12h0.062c0.1,0.32.207,0.63,0.311,0.94a0.1,0.1,0,0,0,.062-0.06h0.062c0.021-.09.042-0.17,0.063-0.25h0.062v-0.13h0.062v-0.12h0.062v-0.19h0.062v-0.19H944.4v-0.12h0.062v-0.19h0.062c0.021-.08.041-0.17,0.062-0.25h0.062c0.021-.1.042-0.21,0.062-0.31h0.063v-0.19h0.062c0.021-.08.041-0.16,0.062-0.25h0.062v-0.12h0.062v-0.19h0.063c0.02-.09.041-0.17,0.062-0.25H945.2v-0.19h0.062c0.021-.08.042-0.16,0.062-0.25h0.063v-0.19h0.062c0.02-.08.041-0.16,0.062-0.25h0.062v-0.18h0.062v-0.13H945.7c0.021-.08.042-0.16,0.063-0.25h0.062v-0.18h0.062c0.021-.09.041-0.17,0.062-0.25h0.062v-0.19h0.063c0.02-.08.041-0.17,0.062-0.25H946.2v-0.19h0.062v-0.12h0.062c0.021-.09.042-0.17,0.063-0.25h0.062v-0.19h0.062c0.021-.08.041-0.17,0.062-0.25h0.062v-0.19H946.7v-0.12h0.063v-0.19h0.062c0.02-.08.041-0.17,0.062-0.25h0.062v-0.19h0.062c0.021-.08.042-0.16,0.063-0.25h0.062v-0.18h0.062v-0.13h0.062v-0.19h0.062v-0.12h0.062c0.021-.11.042-0.21,0.063-0.31h0.062v-0.19h0.062v-0.13h0.062v-0.18h0.062v-0.13h0.063v-0.19h0.062v-0.12h0.062v-0.19h0.062v-0.12H948v-0.19h0.062c0.021-.08.042-0.17,0.063-0.25h0.062v-0.19h0.062v-0.12h0.062v-0.19h0.062c0.021-.08.042-0.17,0.063-0.25H948.5v-0.19h0.062v-0.12h0.062v-0.19c1.412-3.14,2.755-6.41,4.166-9.56v-0.18h0.063v-0.13h0.062v-0.18h0.062c0.021-.09.041-0.17,0.062-0.25H953.1v-0.19h0.063c0.02-.09.041-0.17,0.062-0.25h0.062v-0.19h0.062v-0.12h0.062v-0.19h0.062c0.021-.09.042-0.17,0.063-0.25H953.6v-0.19h0.062c0.021-.08.042-0.17,0.062-0.25h0.062v-0.19h0.063v-0.12h0.062v-0.19h0.062c0.021-.08.041-0.16,0.062-0.25H954.1v-0.19h0.062c0.021-.08.042-0.16,0.063-0.25h0.062v-0.18h0.062c0.021-.09.042-0.17,0.062-0.25h0.062v-0.19h0.063v-0.12h0.062v-0.19h0.062c0.021-.09.041-0.17,0.062-0.25h0.062v-0.19h0.062c0.021-.08.042-0.17,0.063-0.25h0.062v-0.19h0.062c0.021-.08.042-0.16,0.062-0.25h0.062v-0.18h0.063c0.02-.09.041-0.17,0.062-0.25h0.062v-0.19H955.4c0.021-.11.042-0.21,0.062-0.31h0.063c0.02-.09.041-0.17,0.062-0.25h0.062V2545h0.062c0.021-.08.042-0.17,0.062-0.25h0.062v-0.19H955.9c0.02-.08.041-0.16,0.062-0.25h0.062v-0.18h0.062c0.021-.09.042-0.17,0.062-0.26h0.063v-0.12h0.062v-0.19h0.062c0.021-.08.041-0.16,0.062-0.25h0.062v-0.18h0.062c0.021-.09.042-0.17,0.063-0.25h0.062v-0.19h0.062c0.021-.08.042-0.17,0.062-0.25h0.062v-0.19H956.9v-0.12h0.062V2542h0.062v-0.12h0.062c0.021-.11.042-0.21,0.062-0.32h0.063v-0.18h0.062c0.02-.09.041-0.17,0.062-0.25h0.062v-0.19h0.062v-0.13h0.062v-0.18h0.063a1.473,1.473,0,0,0,.186-0.81H957.7v-0.19h-0.062c-0.021-.09-0.042-0.17-0.062-0.25h-0.063v-0.19h-0.062c-0.02-.08-0.041-0.17-0.062-0.25H957.33v-0.19h-0.062c-0.021-.08-0.042-0.16-0.062-0.25h-0.063v-0.18h-0.062c-0.021-.09-0.041-0.17-0.062-0.25h-0.062v-0.19H956.9c-0.021-.08-0.042-0.17-0.063-0.25H956.77v-0.19h-0.062v-0.12h-0.062c-0.021-.09-0.042-0.17-0.062-0.25h-0.063v-0.19h-0.062c-0.02-.08-0.041-0.17-0.062-0.25h-0.062v-0.19h-0.062c-0.021-.08-0.042-0.16-0.062-0.25h-0.063v-0.18h-0.062c-0.02-.09-0.041-0.17-0.062-0.25h-0.062v-0.19H955.9c-0.021-.08-0.042-0.17-0.063-0.25h-0.062v-0.19h-0.062c-0.021-.08-0.041-0.16-0.062-0.25h-0.062v-0.19h-0.062c-0.021-.08-0.042-0.16-0.063-0.25H955.4v-0.18H955.34c-0.021-.09-0.041-0.17-0.062-0.25h-0.062v-0.19h-0.063c-0.02-.08-0.041-0.17-0.062-0.25h-0.062v-0.19h-0.062c-0.021-.08-0.042-0.16-0.062-0.25h-0.063v-0.18H954.78c-0.02-.09-0.041-0.17-0.062-0.25h-0.062v-0.19h-0.062c-0.021-.08-0.042-0.17-0.062-0.25h-0.063v-0.19h-0.062c-0.02-.08-0.041-0.17-0.062-0.25h-0.062v-0.19h-0.062c-0.021-.08-0.042-0.16-0.063-0.25H954.1v-0.18h-0.062c-0.021-.09-0.041-0.17-0.062-0.25H953.91v-0.19h-0.062c-0.021-.08-0.042-0.17-0.063-0.25h-0.062v-0.19h-0.062c-0.021-.08-0.041-0.16-0.062-0.25h-0.062v-0.18h-0.063c-0.02-.09-0.041-0.17-0.062-0.26H953.35v-0.18h-0.062c-0.021-.09-0.042-0.17-0.062-0.25h-0.062v-0.19H953.1c-0.02-.08-0.041-0.17-0.062-0.25h-0.062v-0.19h-0.062c-0.021-.08-0.042-0.16-0.062-0.25H952.79v-0.18h-0.062v-0.13h-0.062c-0.021-.08-0.041-0.17-0.062-0.25h-0.062v-0.19H952.48l-0.063-.24h-0.062v-0.19h-0.062c-0.021-.09-0.041-0.17-0.062-0.25h-0.062v-0.19h-0.063c-0.02-.08-0.041-0.17-0.062-0.25h-0.062v-0.19H951.92c-0.021-.08-0.042-0.16-0.062-0.25H951.8v-0.18h-0.063v-0.13h-0.062c-0.021-.08-0.041-0.17-0.062-0.25h-0.062v-0.19h-0.062v-0.12h-0.063v-0.19H951.36c-0.021-.08-0.041-0.17-0.062-0.25h-0.062v-0.19h-0.062c-0.021-.08-0.042-0.16-0.063-0.25h-0.062v-0.18h-0.062c-0.021-.09-0.041-0.17-0.062-0.25h-0.062v-0.19H950.8c-0.021-.08-0.042-0.17-0.063-0.25h-0.062v-0.19h-0.062c-0.021-.08-0.041-0.16-0.062-0.25H950.49v-0.19h-0.063v-0.12h-0.062v-0.19H950.3c-0.021-.08-0.041-0.16-0.062-0.25h-0.062v-0.18h-0.062c-0.021-.09-0.042-0.17-0.063-0.25h-0.062v-0.19H949.93c-0.021-.08-0.041-0.17-0.062-0.25h-0.062v-0.19h-0.063v-0.12h-0.062v-0.19c-1.607-3.58-3.068-7.33-4.664-10.93v-0.19h-0.062c-0.02-.08-0.041-0.16-0.062-0.25h-0.062v-0.19h-0.062l-0.063-.24h-0.062v-0.19h-0.062v-0.13H944.52v-0.19h-0.062c-0.021-.08-0.042-0.16-0.062-0.25h-0.063v-0.18h-0.062v-0.13h-0.062v-0.18h-0.062c-0.021-.09-0.042-0.17-0.062-0.25h-0.063v-0.19H943.96c-0.02-.08-0.041-0.17-0.062-0.25h-0.062q-0.093-.315-0.187-0.63h-0.062v-0.12h-0.062v-0.19h-0.062v-0.12H943.4v-0.19h-0.063c-0.02-.08-0.041-0.17-0.062-0.25h-0.062v-0.19h-0.062v-0.12H943.09v-0.19h-0.063c-0.02-.08-0.041-0.17-0.062-0.25H942.9v-0.19h-0.062c-0.021-.08-0.041-0.16-0.062-0.25h-0.062v-0.18h-0.063v-0.13h-0.062v-0.19H942.53v-0.12h-0.062v-0.19h-0.062v-0.12h-0.063v-0.19h-0.062v-0.13h-0.062c-0.021-.1-0.041-0.2-0.062-0.31H942.1v-0.19h-0.062q-0.095-.435-0.187-0.87h0.062v-0.37h0.062v-0.19h0.063v-0.19H942.1a1.081,1.081,0,0,1,.559-0.87,2.2,2.2,0,0,1,1.244-.13,2.461,2.461,0,0,1,1.306.19l0.062,0.12a2.134,2.134,0,0,1,.373.44v0.13H945.7v0.12h0.063v0.13h0.062v0.12h0.062v0.13h0.062v0.18h0.062v0.13h0.063c0.02,0.08.041,0.17,0.062,0.25H946.2c0.021,0.1.041,0.21,0.062,0.31h0.062v0.19h0.063c0.02,0.08.041,0.16,0.062,0.25h0.062v0.18h0.062v0.13h0.062c0.021,0.1.042,0.21,0.062,0.31h0.063v0.19h0.062v0.12h0.062v0.19h0.062v0.13h0.062v0.18h0.063c0.02,0.09.041,0.17,0.062,0.25h0.062v0.19h0.062c0.021,0.08.042,0.17,0.062,0.25h0.062v0.19h0.063c0.02,0.08.041,0.16,0.062,0.25h0.062v0.18h0.062c0.021,0.09.042,0.17,0.062,0.26h0.063v0.18h0.062c0.02,0.09.041,0.17,0.062,0.25h0.062v0.19H948v0.12h0.062v0.19h0.063v0.13h0.062v0.18h0.062c0.021,0.09.041,0.17,0.062,0.25h0.062v0.19h0.063c0.02,0.08.041,0.17,0.062,0.25h0.062v0.19h0.062c0.021,0.08.042,0.16,0.062,0.25h0.063v0.18h0.062c0.02,0.09.041,0.17,0.062,0.25h0.062v0.19H949c0.021,0.09.042,0.17,0.062,0.25h0.063v0.19h0.062c0.02,0.08.041,0.17,0.062,0.25h0.062v0.19h0.062c0.021,0.08.042,0.16,0.063,0.25H949.5v0.18h0.062v0.13h0.062v0.19h0.062c0.021,0.08.042,0.16,0.062,0.25h0.063v0.18h0.062c0.021,0.09.041,0.17,0.062,0.25h0.062v0.19h0.062c0.021,0.08.042,0.17,0.063,0.25h0.062v0.19h0.062c0.021,0.08.041,0.16,0.062,0.25h0.062v0.18h0.062c0.021,0.09.042,0.17,0.063,0.26h0.062v0.18h0.062v0.13h0.062v0.19h0.062l0.063,0.24h0.062v0.19h0.062c0.021,0.08.041,0.17,0.062,0.25h0.062v0.19h0.062c0.021,0.08.042,0.17,0.063,0.25h0.062v0.19H951.3c0.021,0.08.041,0.16,0.062,0.25h0.062v0.18h0.063c0.02,0.09.041,0.17,0.062,0.25h0.062v0.19h0.062c0.021,0.08.042,0.17,0.062,0.25H951.8v0.19h0.062v0.12h0.062v0.19h0.062c0.021,0.08.041,0.17,0.062,0.25h0.062v0.19h0.063c0.02,0.08.041,0.16,0.062,0.25h0.062v0.18h0.062c0.021,0.09.042,0.17,0.062,0.25h0.063v0.19h0.062c0.02,0.09.041,0.17,0.062,0.25h0.062v0.19h0.062c0.021,0.08.042,0.17,0.062,0.25h0.063v0.19h0.062c0.021,0.08.041,0.16,0.062,0.25h0.062v0.18H953.1v0.13h0.063v0.19h0.062c0.02,0.08.041,0.16,0.062,0.24h0.062v0.19h0.062c0.021,0.09.042,0.17,0.062,0.25h0.063v0.19H953.6c0.021,0.08.041,0.17,0.062,0.25h0.062v0.19h0.062c0.021,0.08.042,0.16,0.063,0.25h0.062v0.18h0.062c0.021,0.09.041,0.17,0.062,0.25H954.1v0.19h0.062v0.13h0.063v0.18h0.062c0.021,0.09.041,0.17,0.062,0.25h0.062v0.19h0.062c0.021,0.08.042,0.17,0.063,0.25h0.062v0.19h0.062c0.021,0.08.041,0.17,0.062,0.25h0.062v0.19h0.062l0.063,0.24h0.062v0.19h0.062c0.021,0.09.042,0.17,0.062,0.25h0.062v0.19h0.063c0.02,0.08.041,0.17,0.062,0.25h0.062v0.19H955.4v0.12h0.062v0.19c2.175,4.84,4.168,9.9,6.343,14.74v0.19h0.062l0.063,0.24h0.062v0.19h0.062c0.021,0.09.041,0.17,0.062,0.25h0.062v0.19h0.062v0.13h0.063c0.02,0.08.041,0.16,0.062,0.24h0.062v0.19h0.062c0.021,0.09.042,0.17,0.062,0.25h0.063v0.19h0.062c0.021,0.08.041,0.17,0.062,0.25H962.8v0.19h0.062v0.12h0.062v0.19h0.063c0.02,0.08.041,0.17,0.062,0.25h0.062v0.19h0.062v0.12h0.062c0.021,0.11.042,0.21,0.063,0.31h0.062v0.19h0.062v0.13h0.062v0.18h0.062v0.13h0.062v0.19h0.063c0.02,0.08.041,0.16,0.062,0.24H963.8v0.19h0.062v0.13h0.062c0.021,0.1.042,0.21,0.063,0.31h0.062v0.19h0.062c0.021,0.08.041,0.16,0.062,0.25h0.062v0.18H964.3V2545h0.062v0.19h0.062c0.021,0.08.041,0.16,0.062,0.25h0.062v0.18h0.062c0.021,0.09.042,0.17,0.063,0.25h0.062v0.19h0.062c0.021,0.08.042,0.17,0.062,0.25h0.062v0.19h0.063v0.12h0.062c0.02,0.09.041,0.17,0.062,0.25h0.062v0.19h0.062c0.021,0.08.042,0.17,0.062,0.25h0.063v0.19h0.062c0.021,0.08.041,0.16,0.062,0.25h0.062v0.19H965.6v0.12h0.063c0.02,0.08.041,0.17,0.062,0.25h0.062v0.19h0.062c0.021,0.08.042,0.16,0.062,0.25h0.062v0.18h0.063v0.13H966.1c0.021,0.08.041,0.17,0.062,0.25h0.062v0.19h0.062c0.021,0.08.042,0.16,0.063,0.25h0.062v0.18h0.062c0.021,0.09.041,0.17,0.062,0.25H966.6v0.19h0.062c0.021,0.08.042,0.17,0.063,0.25h0.062v0.19h0.062c0.021,0.08.042,0.16,0.062,0.25h0.062v0.19h0.063c0.02,0.08.041,0.16,0.062,0.25h0.062v0.18h0.062v0.13h0.062v0.18h0.063c0.02,0.09.041,0.17,0.062,0.25h0.062v0.19h0.062v0.13h0.062v0.18h0.062c0.021,0.09.042,0.17,0.063,0.25h0.062v0.19h0.062c0.021,0.08.042,0.17,0.062,0.25h0.062v0.19h0.063c0.02,0.08.041,0.16,0.062,0.25h0.062v0.18h0.062c0.021,0.09.042,0.17,0.062,0.26h0.063v0.18H968.4c0.02,0.09.041,0.17,0.062,0.25h0.062v0.19h0.062c0.021,0.08.042,0.17,0.062,0.25h0.063v0.19h0.062c0.02,0.08.041,0.16,0.062,0.25H968.9v0.18h0.062v0.13h0.063v0.19h0.062c0.02,0.08.041,0.16,0.062,0.25h0.062v0.18h0.062c0.021,0.09.042,0.17,0.063,0.25h0.062v0.19h0.062c0.021,0.09.041,0.17,0.062,0.25h0.062v0.19h0.062c0.021,0.08.042,0.17,0.063,0.25h0.062v0.19h0.062c0.021,0.08.041,0.16,0.062,0.25h0.062v0.18h0.063c0.02,0.09.041,0.17,0.062,0.25h0.062v0.19H970.2v0.12h0.062v0.19h0.062c0.021,0.09.042,0.17,0.063,0.25h0.062v0.19h0.062c0.021,0.08.041,0.17,0.062,0.25h0.062v0.19H970.7c0.02,0.08.041,0.16,0.062,0.25h0.062v0.18h0.062c0.021,0.09.042,0.17,0.062,0.25h0.062v0.19h0.063c0.02,0.08.041,0.17,0.062,0.25H971.2v0.19h0.062c0.021,0.08.042,0.16,0.062,0.25h0.063v0.19h0.062c0.02,0.08.041,0.16,0.062,0.25h0.062v0.18h0.062v0.13h0.062v0.18h0.063c0.02,0.09.041,0.17,0.062,0.25h0.062v0.19h0.062c0.021,0.08.042,0.17,0.062,0.25h0.063v0.19h0.062c0.02,0.08.041,0.17,0.062,0.25h0.062v0.19h0.062c0.021,0.08.042,0.16,0.063,0.25h0.062v0.18H972.5c0.021,0.09.041,0.17,0.062,0.25h0.062v0.19h0.062c0.021,0.08.042,0.17,0.063,0.25h0.062v0.19h0.062c0.021,0.08.041,0.16,0.062,0.25H973v0.18h0.063c0.02,0.09.041,0.17,0.062,0.25h0.062v0.19h0.062c0.021,0.09.041,0.17,0.062,0.25h0.062v0.19h0.063c0.02,0.08.041,0.17,0.062,0.25h0.062v0.19h0.062c0.021,0.08.042,0.16,0.062,0.25h0.063v0.18h0.062c0.02,0.09.041,0.17,0.062,0.25h0.062v0.19H974c0.021,0.08.042,0.17,0.062,0.25h0.063v0.19h0.062c0.021,0.08.041,0.17,0.062,0.25h0.062v0.19h0.062c0.021,0.08.042,0.16,0.063,0.25h0.062v0.18h0.062v0.13h0.062c0.021,0.08.042,0.16,0.062,0.25h0.062v0.18H974.8v0.13h0.062c0.021,0.08.041,0.17,0.062,0.25h0.062v0.19h0.062c0.021,0.08.042,0.16,0.063,0.25h0.062v0.18h0.062c0.021,0.09.041,0.17,0.062,0.25h0.062v0.19h0.062c0.021,0.08.042,0.17,0.063,0.25h0.062v0.19h0.062v0.12h0.062v0.19h0.062v0.13H975.8a2.443,2.443,0,0,0,.311.81v-0.07a1.549,1.549,0,0,0,.373-0.62v-0.19h0.062c0.021-.08.041-0.16,0.062-0.25h0.062v-0.18h0.062c0.021-.09.042-0.17,0.063-0.25h0.062v-0.19h0.062c0.021-.09.041-0.17,0.062-0.25h0.062v-0.19H977.1v-0.12h0.063v-0.19h0.062c0.021-.09.041-0.17,0.062-0.25h0.062v-0.19h0.062c0.021-.08.042-0.16,0.063-0.25h0.062v-0.19H977.6c0.021-.08.041-0.16,0.062-0.25h0.062v-0.18h0.062c0.021-.09.042-0.17,0.063-0.25h0.062v-0.19h0.062c0.021-.08.042-0.17,0.062-0.25H978.1v-0.19h0.063c0.02-.08.041-0.16,0.062-0.25h0.062v-0.18h0.062c0.021-.09.042-0.17,0.062-0.25h0.062v-0.19h0.063c0.02-.08.041-0.17,0.062-0.25h0.062v-0.19h0.062v-0.12h0.062v-0.19h0.063c0.02-.08.041-0.17,0.062-0.25h0.062v-0.19h0.062c0.021-.08.042-0.16,0.062-0.25h0.063v-0.19h0.062v-0.12h0.062v-0.19h0.062c0.021-.1.042-0.21,0.062-0.31h0.062c-0.062-.19-0.124-0.37-0.186-0.56h-0.062v-0.19h-0.062c-0.021-.08-0.042-0.17-0.063-0.25h-0.062c-0.021-.1-0.041-0.21-0.062-0.31h-0.062v-0.19h-0.062c-0.021-.08-0.042-0.17-0.063-0.25h-0.062v-0.19h-0.062c-0.021-.08-0.041-0.16-0.062-0.25h-0.062v-0.18h-0.063v-0.13H978.41c-0.02-.08-0.041-0.16-0.062-0.25h-0.062v-0.18h-0.062c-0.021-.09-0.042-0.17-0.062-0.25H978.1v-0.19h-0.062c-0.02-.09-0.041-0.17-0.062-0.25h-0.062v-0.19h-0.062v-0.12h-0.063c-0.02-.09-0.041-0.17-0.062-0.25h-0.062v-0.19H977.6c-0.021-.09-0.041-0.17-0.062-0.25h-0.062v-0.19h-0.063v-0.12h-0.062c-0.02-.09-0.041-0.17-0.062-0.25h-0.062v-0.19h-0.062v-0.13H977.1c-0.02-.08-0.041-0.16-0.062-0.25H976.98v-0.18h-0.062c-0.021-.09-0.042-0.17-0.062-0.25h-0.062v-0.19h-0.063c-0.02-.08-0.041-0.17-0.062-0.25h-0.062v-0.19h-0.062c-0.021-.08-0.042-0.16-0.062-0.25H976.42v-0.18h-0.062c-0.02-.09-0.041-0.17-0.062-0.25h-0.062q-0.093-.315-0.187-0.63h-0.062v-0.12h-0.062v-0.19h-0.062c-0.021-.08-0.042-0.17-0.062-0.25h-0.063v-0.19h-0.062c-0.02-.08-0.041-0.17-0.062-0.25H975.55v-0.19h-0.062l-0.063-.24h-0.062v-0.19H975.3c-0.021-.09-0.041-0.17-0.062-0.25h-0.062v-0.19h-0.062c-0.021-.08-0.042-0.17-0.063-0.25H974.99v-0.19h-0.062c-0.021-.08-0.041-0.16-0.062-0.25H974.8v-0.18h-0.063c-0.02-.09-0.041-0.17-0.062-0.25h-0.062v-0.19h-0.062c-0.021-.09-0.041-0.17-0.062-0.25h-0.062v-0.19h-0.063v-0.12h-0.062v-0.19h-0.062c-0.021-.08-0.041-0.17-0.062-0.25H974.12v-0.19h-0.063c-0.02-.08-0.041-0.16-0.062-0.25h-0.062v-0.18h-0.062c-0.021-.09-0.042-0.17-0.062-0.25h-0.062v-0.19h-0.063c-0.02-.09-0.041-0.17-0.062-0.25H973.56v-0.19H973.5c-0.021-.08-0.042-0.17-0.062-0.25h-0.063v-0.19h-0.062c-0.021-.08-0.041-0.16-0.062-0.25h-0.062V2550h-0.062c-0.021-.09-0.042-0.17-0.062-0.25H973v-0.19h-0.062c-0.021-.08-0.041-0.17-0.062-0.25h-0.062v-0.19h-0.062c-0.021-.08-0.042-0.16-0.063-0.25h-0.062v-0.19h-0.062c-0.021-.08-0.041-0.16-0.062-0.25h-0.062v-0.18h-0.062v-0.13h-0.063v-0.18c-2.479-5.53-4.734-11.28-7.213-16.81v-0.18h-0.062v-0.13h-0.062v-0.19h-0.063c-0.02-.08-0.041-0.16-0.062-0.25h-0.062v-0.18H964.73c-0.021-.09-0.042-0.17-0.062-0.25h-0.063v-0.19h-0.062c-0.02-.08-0.041-0.17-0.062-0.25h-0.062v-0.19h-0.062c-0.021-.08-0.042-0.16-0.062-0.25h-0.063v-0.18H964.17c-0.021-.09-0.041-0.17-0.062-0.25h-0.062v-0.19h-0.062v-0.13h-0.063v-0.18h-0.062c-0.02-.09-0.041-0.17-0.062-0.25h-0.062v-0.19h-0.062v-0.13H963.61v-0.18h-0.062c-0.02-.09-0.041-0.17-0.062-0.25h-0.062v-0.19h-0.062c-0.021-.08-0.042-0.17-0.062-0.25h-0.063v-0.19h-0.062c-0.021-.08-0.041-0.16-0.062-0.25h-0.062v-0.19h-0.062l-0.063-.24h-0.062v-0.19H962.8c-0.021-.08-0.041-0.17-0.062-0.25h-0.062v-0.19h-0.062c-0.021-.08-0.042-0.17-0.063-0.25h-0.062v-0.19h-0.062c-0.021-.08-0.041-0.16-0.062-0.25h-0.062v-0.18h-0.063v-0.13H962.18v-0.19h-0.062c-0.021-.08-0.041-0.16-0.062-0.25h-0.062v-0.18h-0.062c-0.021-.09-0.042-0.17-0.063-0.25h-0.062v-0.19h-0.062v-0.13h-0.062v-0.18h-0.062c-0.021-.09-0.042-0.17-0.063-0.25H961.5v-0.19h-0.062c-0.021-.08-0.041-0.17-0.062-0.25H961.31v-0.19h-0.062c-0.021-.08-0.042-0.16-0.063-0.25h-0.062v-0.18h-0.062c-0.021-.09-0.041-0.17-0.062-0.25h-0.062v-0.19h-0.063c-0.02-.08-0.041-0.17-0.062-0.25H960.75v-0.19h-0.062c-0.021-.08-0.042-0.16-0.062-0.25h-0.062v-0.19H960.5c-0.02-.08-0.041-0.16-0.062-0.25h-0.062v-0.18h-0.062c-0.021-.09-0.042-0.17-0.062-0.25H960.19v-0.19h-0.062c-0.021-.08-0.041-0.17-0.062-0.25H960v-0.19h-0.062c-0.021-.08-0.042-0.16-0.063-0.25h-0.062v-0.19h-0.062c-0.021-.08-0.041-0.16-0.062-0.24h-0.062v-0.19h-0.062c-0.021-.09-0.042-0.17-0.063-0.25h-0.062v-0.19h-0.062c-0.021-.08-0.042-0.17-0.062-0.25h-0.062v-0.19H959.2c-0.02-.08-0.041-0.16-0.062-0.25h-0.062v-0.18h-0.062c-0.021-.09-0.042-0.17-0.062-0.25h-0.062v-0.19h-0.063c-0.02-.08-0.041-0.17-0.062-0.25H958.7v-0.19h-0.062v-0.12h-0.062v-0.19h-0.063c-0.02-.08-0.041-0.17-0.062-0.25h-0.062v-0.19h-0.062v-0.12h-0.062v-0.19H958.2c-0.021-.08-0.042-0.17-0.063-0.25h-0.062v-0.19h-0.062v-0.12h-0.062c-0.021-.11-0.042-0.21-0.062-0.31h-0.063v-0.19c-1.353-3.02-2.521-6.22-3.855-9.24v-0.19H953.91c-0.021-.09-0.042-0.17-0.062-0.25h-0.063v-0.19h-0.062c-0.02-.08-0.041-0.17-0.062-0.25H953.6v-0.19h-0.062v-0.12h-0.063v-0.19h-0.062v-0.12H953.35v-0.19h-0.062v-0.19h-0.062v-0.25h-0.062a2.519,2.519,0,0,1,.186-1.37v-0.19h0.062v-0.12h0.062a0.686,0.686,0,0,1,.436-0.5,4.173,4.173,0,0,1,1.679-.13h0.5v0.06c0.1,0.02.207,0.05,0.311,0.07,0.062,0.08.125,0.16,0.187,0.25h0.062v0.12l0.124,0.06c0.042,0.13.083,0.25,0.125,0.38h0.062v0.12h0.062v0.13h0.062c0.042,0.12.083,0.25,0.125,0.37h0.062v0.19h0.062v0.12h0.062v0.19h0.062v0.13h0.062v0.18h0.063c0.02,0.09.041,0.17,0.062,0.25H957.7v0.19h0.062c0.021,0.09.042,0.17,0.062,0.25h0.063v0.19h0.062c0.02,0.08.041,0.16,0.062,0.25h0.062v0.19h0.062c0.021,0.08.042,0.16,0.063,0.25h0.062v0.18h0.062c0.021,0.09.041,0.17,0.062,0.25h0.062v0.19h0.062v0.13h0.063v0.18h0.062c0.02,0.09.041,0.17,0.062,0.25h0.062v0.19h0.062c0.021,0.08.042,0.17,0.063,0.25h0.062v0.19h0.062c0.021,0.08.041,0.16,0.062,0.25h0.062v0.18H959.2c0.021,0.09.042,0.17,0.063,0.25h0.062v0.19h0.062c0.021,0.09.041,0.17,0.062,0.25h0.062v0.19h0.063v0.12h0.062v0.19h0.062c0.021,0.08.041,0.17,0.062,0.25h0.062v0.19h0.062c0.021,0.08.042,0.16,0.063,0.25H960v0.18h0.062c0.021,0.09.041,0.17,0.062,0.25h0.062v0.19h0.063c0.02,0.09.041,0.17,0.062,0.25h0.062v0.19h0.062c0.021,0.08.042,0.17,0.062,0.25h0.063v0.19h0.062v0.12h0.062v0.19h0.062c0.021,0.08.041,0.17,0.062,0.25h0.062v0.19h0.063c0.02,0.08.041,0.16,0.062,0.25h0.062v0.18h0.062c0.021,0.09.042,0.17,0.062,0.25h0.063v0.19h0.062c0.02,0.08.041,0.17,0.062,0.25h0.062v0.19H961.5c0.021,0.08.042,0.16,0.062,0.25h0.063v0.18h0.062v0.13h0.062v0.19h0.062c0.021,0.08.042,0.16,0.062,0.25h0.063v0.19h0.062c0.021,0.08.041,0.16,0.062,0.24h0.062v0.19h0.062c0.021,0.08.042,0.17,0.062,0.25h0.063v0.19h0.062c0.021,0.08.041,0.17,0.062,0.25h0.062v0.19h0.062c0.021,0.08.042,0.16,0.063,0.25h0.062v0.18h0.062v0.13H962.8v0.19h0.062c0.021,0.08.042,0.16,0.062,0.24h0.063v0.19h0.062c0.021,0.09.041,0.17,0.062,0.25h0.062v0.19h0.062c0.021,0.08.042,0.17,0.063,0.25h0.062v0.19h0.062c0.021,0.08.041,0.16,0.062,0.25h0.062v0.18h0.062c0.021,0.09.042,0.17,0.063,0.25h0.062v0.19H963.8c0.021,0.09.042,0.17,0.062,0.25h0.062v0.19h0.063v0.12h0.062v0.19h0.062v0.13h0.062v0.18h0.062c0.021,0.09.042,0.17,0.063,0.25h0.062v0.19h0.062v0.13h0.062v0.18h0.062v0.13h0.062v0.19h0.063v0.12h0.062c0.062,0.21.124,0.42,0.186,0.62h0.063c0.02,0.09.041,0.17,0.062,0.25H965.1v0.19h0.062v0.13h0.062c0.021,0.08.042,0.16,0.062,0.25h0.063v0.18h0.062a2.817,2.817,0,0,1,.186.5,0.1,0.1,0,0,0,.063-0.06h0.062v-0.19h0.062c0.021-.08.041-0.16,0.062-0.25h0.062v-0.18h0.062c0.021-.09.042-0.17,0.063-0.25H966.1v-0.19h0.062c0.021-.08.042-0.17,0.062-0.25h0.062v-0.19h0.063c0.02-.08.041-0.16,0.062-0.25h0.062v-0.19h0.062c0.021-.08.042-0.16,0.062-0.24h0.062v-0.19h0.063c0.02-.09.041-0.17,0.062-0.25h0.062v-0.19h0.062v-0.13h0.062v-0.18h0.063c0.02-.09.041-0.17,0.062-0.25h0.062v-0.19h0.062c0.021-.08.042-0.17,0.062-0.25h0.063v-0.19H967.4c0.02-.08.041-0.16,0.062-0.25h0.062v-0.18h0.062c0.021-.09.042-0.17,0.062-0.25h0.063v-0.19c1.643-3.65,3.15-7.47,4.788-11.12v-0.19h0.062c0.021-.08.041-0.16,0.062-0.25h0.062v-0.18h0.063c0.02-.09.041-0.17,0.062-0.25h0.062v-0.19h0.062c0.021-.08.042-0.17,0.062-0.25h0.063v-0.19h0.062v-0.12h0.062v-0.19h0.062c0.021-.08.041-0.17,0.062-0.25h0.062v-0.19h0.063c0.02-.08.041-0.16,0.062-0.25h0.062v-0.18h0.062c0.021-.09.042-0.17,0.062-0.25h0.063v-0.19h0.062v-0.13h0.062v-0.18h0.062c0.021-.08.042-0.17,0.062-0.25h0.062v-0.19h0.063c0.041-.12.083-0.25,0.124-0.37h0.062v-0.13h0.062c0.042-.12.083-0.25,0.125-0.37a0.777,0.777,0,0,1,.124-0.07v-0.12a2.263,2.263,0,0,0,.187-0.13c0.02-.06.041-0.12,0.062-0.18h0.124v-0.07h0.125v-0.06h0.5a5.5,5.5,0,0,1,1.43.06h0.249v0.07a1.663,1.663,0,0,1,.808,1.18v0.38h0.063v0.43H978.1c-0.02.13-.041,0.25-0.062,0.38h-0.062v0.12h-0.062c-0.021.13-.042,0.25-0.062,0.38h-0.063v0.12h-0.062v0.19h-0.062v0.13H977.6c-0.021.1-.041,0.2-0.062,0.31h-0.062v0.19h-0.063v0.12h-0.062v0.19h-0.062v0.12h-0.062v0.19h-0.062c-0.021.1-.042,0.21-0.063,0.31h-0.062v0.13H976.98v0.18h-0.062c-0.021.09-.042,0.17-0.062,0.25h-0.062v0.19h-0.063c-0.02.08-.041,0.17-0.062,0.25h-0.062v0.19h-0.062c-0.021.08-.042,0.17-0.062,0.25H976.42v0.19h-0.062v0.12H976.3v0.19h-0.062c-0.021.08-.042,0.17-0.062,0.25H976.11v0.19h-0.063c-0.02.08-.041,0.16-0.062,0.25h-0.062v0.18h-0.062v0.13H975.8v0.19h-0.063v0.12h-0.062v0.19h-0.062v0.12H975.55v0.19h-0.062c-0.021.08-.042,0.17-0.063,0.25h-0.062v0.19H975.3c-0.021.08-.041,0.16-0.062,0.25h-0.062v0.18h-0.062v0.13h-0.063v0.19H974.99c-0.021.08-.041,0.16-0.062,0.25h-0.062v0.18H974.8c-0.021.09-.042,0.17-0.063,0.25h-0.062v0.19h-0.062v0.13h-0.062v0.18h-0.062c-0.021.09-.042,0.17-0.062,0.25h-0.063v0.19h-0.062c-0.021.08-.041,0.17-0.062,0.25h-0.062v0.19H974.12c-0.021.08-.042,0.17-0.063,0.25H974v0.19h-0.062v0.12h-0.062v0.19h-0.062c-0.021.08-.042,0.16-0.062,0.25h-0.063v0.18h-0.062c-0.021.09-.041,0.17-0.062,0.25H973.5c-0.062.21-.125,0.42-0.187,0.63h-0.062v0.12h-0.062v0.19h-0.062c-0.021.08-.042,0.17-0.062,0.25H973v0.19h-0.062v0.12h-0.062v0.19h-0.062c-0.021.08-.042,0.17-0.062,0.25h-0.063v0.19h-0.062c-0.021.08-.041,0.17-0.062,0.25H972.5c-0.062.21-.124,0.41-0.187,0.62h-0.062v0.13h-0.062v0.18H972.13c-0.021.09-.042,0.17-0.062,0.25h-0.063v0.19h-0.062v0.13h-0.062v0.18h-0.062c-0.021.09-.042,0.17-0.062,0.25h-0.063v0.19h-0.062v0.13H971.57c-0.021.08-.041,0.16-0.062,0.25h-0.062v0.18h-0.062c-0.021.09-.042,0.17-0.063,0.25h-0.062v0.19H971.2c-0.021.08-.041,0.17-0.062,0.25h-0.062v0.19H971.01v0.12h-0.062c-0.02.08-.041,0.17-0.062,0.25h-0.062v0.19h-0.062c-0.021.08-.042,0.17-0.062,0.25h-0.063v0.19h-0.062c-0.021.08-.041,0.16-0.062,0.25h-0.062v0.18h-0.062c-0.021.09-.042,0.17-0.063,0.25h-0.062v0.13H970.2v0.19H970.14c-0.021.08-.042,0.16-0.062,0.25h-0.062v0.18h-0.063c-0.02.11-.041,0.21-0.062,0.32h-0.062c-0.021.08-.042,0.16-0.062,0.25h-0.062v0.18h-0.063v0.13H969.58v0.18h-0.062c-0.021.09-.041,0.17-0.062,0.25h-0.062v0.19h-0.062v0.13h-0.063v0.18h-0.062c-0.021.11-.041,0.21-0.062,0.32h-0.062v0.12h-0.062v0.19h-0.063c-0.062.19-.124,0.37-0.186,0.56H968.71c-0.021.08-.042,0.17-0.063,0.25h-0.062v0.19h-0.062c-0.021.08-.041,0.17-0.062,0.25H968.4v0.19h-0.062c-0.083.25-.166,0.49-0.249,0.75h-0.062c-0.042.18-.083,0.37-0.125,0.56h0.062c0.021,0.12.042,0.25,0.063,0.37h0.062v0.13h0.062v0.18h0.062c0.021,0.09.042,0.17,0.062,0.25h0.063v0.19H968.4c0.02,0.09.041,0.17,0.062,0.25h0.062v0.19h0.062c0.021,0.08.042,0.16,0.062,0.25h0.063v0.19h0.062c0.02,0.08.041,0.16,0.062,0.24H968.9v0.19h0.062v0.13h0.063c0.02,0.08.041,0.16,0.062,0.25h0.062v0.19h0.062v0.12h0.062c0.021,0.08.042,0.17,0.063,0.25h0.062v0.19h0.062c0.021,0.08.041,0.16,0.062,0.25h0.062v0.18h0.062c0.021,0.09.042,0.17,0.063,0.25h0.062v0.19h0.062v0.13h0.062v0.18h0.062c0.021,0.09.042,0.17,0.063,0.25h0.062v0.19h0.062v0.13H970.2v0.18h0.062c0.021,0.09.042,0.17,0.062,0.25h0.063v0.19h0.062c0.02,0.08.041,0.17,0.062,0.25h0.062v0.19h0.062c0.021,0.08.042,0.16,0.063,0.25h0.062v0.18h0.062c0.021,0.09.041,0.17,0.062,0.25h0.062v0.19h0.062v0.13h0.063c0.02,0.08.041,0.16,0.062,0.25H971.2v0.18h0.062c0.021,0.09.042,0.17,0.062,0.25h0.063v0.19h0.062c0.02,0.08.041,0.17,0.062,0.25h0.062v0.19h0.062c0.021,0.08.042,0.17,0.062,0.25h0.063v0.19h0.062c0.021,0.08.041,0.16,0.062,0.25h0.062v0.18h0.062c0.021,0.09.042,0.17,0.063,0.25h0.062v0.19h0.062c0.021,0.08.041,0.17,0.062,0.25h0.062v0.19h0.063v0.12h0.062v0.19H972.5c0.021,0.08.041,0.17,0.062,0.25h0.062v0.19h0.062c0.021,0.08.042,0.16,0.063,0.25h0.062v0.18h0.062c0.021,0.09.041,0.17,0.062,0.25H973v0.19h0.063c0.02,0.08.041,0.17,0.062,0.25h0.062v0.19h0.062c0.021,0.08.041,0.16,0.062,0.25h0.062v0.19h0.063c0.02,0.08.041,0.16,0.062,0.25h0.062v0.18h0.062c0.021,0.09.042,0.17,0.062,0.25h0.063v0.19h0.062c0.02,0.08.041,0.17,0.062,0.25h0.062v0.19H974c0.021,0.08.042,0.16,0.062,0.25h0.063v0.18h0.062v0.13h0.062v0.19h0.062c0.021,0.08.042,0.16,0.062,0.25h0.063v0.18h0.062c0.021,0.09.041,0.17,0.062,0.25h0.062v0.19h0.062c0.021,0.08.042,0.17,0.062,0.25H974.8v0.19h0.062c0.021,0.08.041,0.16,0.062,0.25h0.062v0.18h0.062c0.021,0.09.042,0.17,0.063,0.25h0.062v0.19h0.062c0.021,0.09.041,0.17,0.062,0.25h0.062v0.19h0.062c0.021,0.08.042,0.17,0.063,0.25h0.062v0.19h0.062c0.021,0.08.042,0.16,0.062,0.25h0.062v0.18H975.8v0.13h0.062c0.021,0.08.041,0.17,0.062,0.25h0.062v0.19h0.062c0.021,0.08.042,0.16,0.063,0.25h0.062v0.18h0.062c0.021,0.09.041,0.17,0.062,0.25h0.062v0.19h0.062c0.021,0.08.042,0.17,0.063,0.25h0.062v0.19h0.062c0.021,0.08.042,0.16,0.062,0.25h0.062v0.19h0.063c0.02,0.08.041,0.16,0.062,0.25h0.062v0.18h0.062c0.021,0.08.042,0.17,0.062,0.25H977.1v0.19h0.063c0.02,0.08.041,0.17,0.062,0.25h0.062V2549h0.062v0.12h0.062c0.125,0.38.249,0.75,0.373,1.13h0.063c0.02,0.08.041,0.16,0.062,0.25h0.062v0.18h0.062c0.021,0.09.042,0.17,0.062,0.25h0.063v0.19h0.062c0.021,0.08.041,0.17,0.062,0.25h0.062v0.19h0.062c0.021,0.08.042,0.16,0.062,0.25h0.063v0.18H978.6c0.021,0.09.041,0.17,0.062,0.25h0.062v0.19h0.062c0.021,0.09.042,0.17,0.063,0.25h0.062v0.19h0.062v0.12h0.062c0.021,0.09.042,0.17,0.062,0.25h0.063v0.19h0.062c0.02,0.08.041,0.17,0.062,0.25h0.062v0.19h0.062c0.021,0.08.042,0.16,0.062,0.25h0.063v0.19h0.062c0.021,0.08.041,0.16,0.062,0.24h0.062v0.19h0.062c0.021,0.08.042,0.17,0.063,0.25H979.9v0.19h0.062v0.13h0.062c0.021,0.08.042,0.16,0.062,0.24h0.063v0.19h0.062c0.02,0.08.041,0.17,0.062,0.25h0.062v0.19H980.4c0.021,0.08.042,0.17,0.062,0.25h0.063v0.19h0.062c0.02,0.08.041,0.16,0.062,0.25h0.062v0.18h0.062v0.13h0.063v0.19H980.9c0.02,0.08.041,0.16,0.062,0.25h0.062v0.18h0.062c0.021,0.09.042,0.17,0.063,0.25h0.062v0.19h0.062v0.12h0.062v0.19H981.4v0.13h0.062v0.18h0.063v0.13h0.062c0.02,0.12.041,0.25,0.062,0.37h0.062c0.071,0.07,0,.03.125,0.07q0.061-.285.124-0.57h0.062v-0.18h0.062c0.021-.09.042-0.17,0.062-0.25H982.2c0.02-.11.041-0.21,0.062-0.31h0.062v-0.13h0.062v-0.19h0.062c0.021-.08.042-0.16,0.063-0.25h0.062v-0.18h0.062c0.021-.09.041-0.17,0.062-0.25h0.062c0.062-.21.125-0.42,0.187-0.63h0.062v-0.12h0.062v-0.19h0.062c0.021-.08.042-0.17,0.063-0.25h0.062v-0.19h0.062c0.021-.08.041-0.16,0.062-0.25h0.062v-0.18h0.062c0.021-.09.042-0.17,0.063-0.26h0.062v-0.18H983.7c0.021-.09.041-0.17,0.062-0.25h0.062v-0.19h0.063v-0.12h0.062v-0.19h0.062c0.021-.09.041-0.17,0.062-0.25h0.062v-0.19h0.062c0.021-.08.042-0.17,0.063-0.25h0.062v-0.19h0.062c0.021-.08.041-0.16,0.062-0.25H984.5v-0.18h0.063c0.02-.09.041-0.17,0.062-0.25h0.062v-0.19h0.062c0.021-.08.042-0.17,0.062-0.25h0.063v-0.19h0.062v-0.12H985v-0.19h0.062c0.021-.08.041-0.17,0.062-0.25h0.062v-0.19h0.063c0.02-.08.041-0.16,0.062-0.25h0.062v-0.18h0.062c0.021-.09.042-0.17,0.062-0.25h0.063v-0.19h0.062c0.02-.09.041-0.17,0.062-0.25h0.062v-0.19h0.062c0.021-.08.042-0.17,0.062-0.25h0.063v-0.19H986v-0.12h0.062v-0.19h0.062c0.021-.08.042-0.16,0.062-0.25h0.063v-0.19h0.062c0.021-.08.041-0.16,0.062-0.25h0.062v-0.18h0.062c0.021-.09.042-0.17,0.062-0.25h0.063v-0.19h0.062c0.021-.08.041-0.17,0.062-0.25h0.062v-0.19h0.062c0.021-.08.042-0.16,0.063-0.25h0.062c0.062-.21.124-0.41,0.186-0.62h0.062v-0.13H987.3v-0.18h0.062c0.021-.09.041-0.17,0.062-0.25h0.062v-0.19h0.062c0.021-.08.042-0.17,0.063-0.25h0.062v-0.19h0.062c0.021-.08.042-0.16,0.062-0.25h0.062v-0.19h0.062c0.021-.08.042-0.16,0.063-0.25h0.062v-0.18h0.062v-0.13h0.062v-0.18h0.062c0.021-.09.042-0.17,0.063-0.26h0.062v-0.18h0.062c0.021-.09.042-0.17,0.062-0.25h0.062v-0.19h0.063c0.02-.08.041-0.17,0.062-0.25h0.062v-0.19H988.8v-0.12h0.062v-0.19h0.062c0.021-.08.042-0.17,0.063-0.25h0.062v-0.19h0.062v-0.12h0.062v-0.19h0.062c0.021-.08.042-0.16,0.063-0.25h0.062v-0.18h0.062c0.021-.09.041-0.17,0.062-0.25h0.062v-0.19H989.6v-0.13h0.063v-0.19h0.062c0.021-.08.041-0.16,0.062-0.25h0.062c0.021-.1.042-0.2,0.062-0.31h0.063v-0.18c2.166-4.83,4.181-9.85,6.342-14.68v-0.19h0.063v-0.12h0.062v-0.19h0.062c0.021-.08.041-0.17,0.062-0.25h0.062v-0.19h0.063v-0.12h0.062v-0.19h0.062c0.021-.08.041-0.17,0.062-0.25h0.062v-0.19H997v-0.12h0.063v-0.19h0.062c0.021-.08.041-0.17,0.062-0.25h0.062c0.021-.1.042-0.21,0.062-0.31h0.063v-0.19h0.062v-0.12H997.5v-0.19c1.232-2.75,2.376-5.63,3.609-8.37v-0.19h0.06c0.02-.08.04-0.17,0.06-0.25h0.06v-0.19h0.07l0.06-.24h0.06v-0.19h0.06a1.824,1.824,0,0,1,.07-0.25h0.06v-0.19h0.06v-0.13h0.06v-0.18h0.06c0.02-.09.05-0.17,0.07-0.25h0.06v-0.19h0.06c0.02-.08.04-0.17,0.06-0.25h0.06v-0.19h0.07c0.02-.08.04-0.16,0.06-0.25h0.06v-0.18h0.06a1.824,1.824,0,0,1,.07-0.25h0.06v-0.19h0.06v-0.13h0.06v-0.18h0.06c0.03-.09.05-0.17,0.07-0.25h0.06v-0.19h0.06c0.02-.08.04-0.17,0.06-0.25h0.07v-0.19h0.06c0.02-.08.04-0.16,0.06-0.25h0.06v-0.19h0.06c0.02-.08.05-0.16,0.07-0.25h0.06v-0.18h0.06v-0.13h0.06v-0.18h0.07c0.02-.09.04-0.17,0.06-0.25h0.06v-0.19h0.06c0.02-.08.04-0.17,0.06-0.25h0.07v-0.19h0.06c0.02-.08.04-0.16,0.06-0.25h0.06v-0.19h0.06a1.824,1.824,0,0,0,.07-0.25h0.06v-0.18h0.06v-0.13h0.06v-0.18h0.07c0.02-.09.04-0.17,0.06-0.26h0.06v-0.18h0.06c0.02-.09.04-0.17,0.06-0.25h0.07v-0.19h0.06c0.02-.08.04-0.17,0.06-0.25h0.06v-0.19h0.07c0.02-.08.04-0.16,0.06-0.25h0.06v-0.18h0.06c0.02-.09.04-0.17,0.06-0.25h0.07v-0.19h0.06v-0.13h0.06v-0.18h0.06c0.02-.09.04-0.17,0.06-0.25h0.07v-0.19h0.06v-0.13h0.06v-0.18h0.06c0.02-.09.05-0.17,0.07-0.25h0.06v-0.19h0.06v-0.13h0.06v-0.18h0.06v-0.13h0.07v-0.18h0.06c0.04-.13.08-0.25,0.12-0.38h0.07a1.181,1.181,0,0,1,.62-0.81,4.435,4.435,0,0,1,2.48-.06v0.06c0.11,0.08.21,0.17,0.32,0.25a0.632,0.632,0,0,0,.12.25v2.25h-0.06v0.18h-0.06v0.19h-0.07v0.19h-0.06v0.19h-0.06v0.12h-0.06v0.19h-0.07v0.12h-0.06v0.19h-0.06v0.13h-0.06v0.18h-0.06v0.13h-0.07v0.18h-0.06c-0.02.09-.04,0.17-0.06,0.25h-0.06v0.19H1009v0.13h-0.06v0.19h-0.06l-0.06.24h-0.06v0.19h-0.07c-0.02.09-.04,0.17-0.06,0.25h-0.06v0.19h-0.06v0.12h-0.06c-0.03.11-.05,0.21-0.07,0.32h-0.06v0.18h-0.06c-0.02.09-.04,0.17-0.06,0.25h-0.07v0.19h-0.06v0.13h-0.06v0.18h-0.06c-0.02.09-.04,0.17-0.06,0.25h-0.07v0.19h-0.06v0.12h-0.06c-0.02.11-.04,0.21-0.06,0.32h-0.07v0.19h-0.06l-0.06.24h-0.06v0.19h-0.06v0.13h-0.07c-0.02.1-.04,0.21-0.06,0.31h-0.06v0.19h-0.06c-0.02.08-.04,0.16-0.06,0.25h-0.07v0.18h-0.06v0.13h-0.06v0.19h-0.06c-0.02.08-.05,0.16-0.07,0.25h-0.06c-0.02.1-.04,0.2-0.06,0.31h-0.06v0.18h-0.06v0.13h-0.07v0.19c-1.55,3.46-2.93,7.1-4.47,10.55v0.19h-0.07v0.12h-0.06v0.19h-0.06c-0.02.09-.04,0.17-0.06,0.25h-0.06v0.19h-0.07c-0.02.08-.04,0.17-0.06,0.25h-0.06v0.19h-0.06v0.12h-0.07v0.19h-0.06c-0.02.08-.04,0.17-0.06,0.25h-0.06c-0.02.1-.04,0.21-0.06,0.31h-0.07v0.19h-0.06v0.12h-0.06v0.19h-0.06a2.335,2.335,0,0,1-.07.25h-0.06v0.19h-0.06v0.12h-0.06v0.19h-0.06c-0.02.08-.05,0.17-0.07,0.25h-0.06v0.19h-0.06v0.12h-0.06v0.19h-0.07v0.12h-0.06c-0.02.09-.04,0.17-0.06,0.25h-0.062v0.19h-0.062c-0.021.09-.041,0.17-0.062,0.25H999.8v0.19h-0.063c-0.02.08-.041,0.17-0.062,0.25h-0.062v0.19h-0.062c-0.021.08-.041,0.16-0.062,0.25h-0.062v0.18h-0.063v0.13H999.3c-0.02.1-.041,0.21-0.062,0.31H999.18v0.19h-0.062c-0.021.08-.042,0.16-0.063,0.25h-0.062v0.18h-0.062v0.13h-0.062v0.19h-0.062c-0.021.08-.042,0.16-0.062,0.25h-0.063c-0.02.1-.041,0.21-0.062,0.31h-0.062v0.19H998.5c-0.021.08-.042,0.16-0.062,0.25h-0.063v0.18h-0.062c-0.02.09-.041,0.17-0.062,0.25h-0.062v0.19h-0.062c-0.021.09-.042,0.17-0.062,0.25H998v0.19h-0.062c-0.021.08-.041,0.17-0.062,0.25h-0.062v0.19H997.75c-0.021.08-.042,0.16-0.063,0.25h-0.062v0.18h-0.062c-0.021.09-.041,0.17-0.062,0.25h-0.062v0.19h-0.062v0.12h-0.063v0.19h-0.062c-0.021.09-.041,0.17-0.062,0.25h-0.062v0.19h-0.062c-0.021.08-.042,0.17-0.063,0.25h-0.062v0.19h-0.062v0.12h-0.062v0.19h-0.062c-0.021.08-.042,0.17-0.062,0.25H996.63v0.19h-0.062c-0.021.08-.041,0.16-0.062,0.24h-0.062v0.19h-0.062c-0.021.09-.042,0.17-0.063,0.25h-0.062v0.19H996.2v0.13h-0.062v0.18h-0.062c-0.021.09-.042,0.17-0.063,0.25h-0.062v0.19h-0.062c-0.021.08-.041,0.17-0.062,0.25H995.76v0.19H995.7v0.12h-0.063v0.19h-0.062c-0.021.08-.041,0.17-0.062,0.25h-0.062v0.19h-0.062v0.12h-0.063v0.19c-2.154,4.8-4.13,9.81-6.28,14.61v0.19h-0.062v0.13h-0.063v0.18h-0.062c-0.02.09-.041,0.17-0.062,0.25h-0.062v0.19h-0.062c-0.021.08-.042,0.17-0.062,0.25h-0.063v0.19h-0.062c-0.02.08-.041,0.16-0.062,0.25H988.36v0.18H988.3c-0.021.09-.042,0.17-0.063,0.25h-0.062v0.19h-0.062c-0.021.09-.041,0.17-0.062,0.25h-0.062v0.19h-0.063c-0.02.08-.041,0.17-0.062,0.25H987.8v0.19h-0.062v0.12h-0.062v0.19h-0.062c-0.021.08-.042,0.16-0.063,0.25h-0.062v0.19h-0.062c-0.021.08-.041,0.16-0.062,0.25H987.3v0.18H987.24c-0.02.09-.041,0.17-0.062,0.25h-0.062v0.19h-0.062v0.13h-0.062c-0.021.08-.042,0.16-0.062,0.25h-0.063v0.18h-0.062c-0.02.09-.041,0.17-0.062,0.25h-0.062v0.19h-0.062c-0.021.08-.042,0.17-0.063,0.25h-0.062v0.19h-0.062c-0.021.08-.041,0.16-0.062,0.25h-0.062v0.18h-0.062c-0.021.09-.042,0.17-0.063,0.25h-0.062v0.19h-0.062c-0.021.08-.041,0.17-0.062,0.25h-0.062v0.19h-0.063c-0.02.08-.041,0.16-0.062,0.25h-0.062v0.19h-0.062c-0.021.08-.042,0.16-0.062,0.25h-0.062v0.18H985.5c-0.02.09-.041,0.17-0.062,0.25h-0.062v0.19h-0.062c-0.021.08-.042,0.17-0.062,0.25h-0.063v0.19h-0.062c-0.021.08-.041,0.16-0.062,0.25H985v0.18H984.94c-0.021.09-.042,0.17-0.062,0.25h-0.063v0.19h-0.062v0.13h-0.062c-0.021.08-.041,0.16-0.062,0.25h-0.062v0.18H984.5c-0.02.09-.041,0.17-0.062,0.25H984.38v0.19h-0.062c-0.021.08-.042,0.17-0.062,0.25h-0.063v0.19h-0.062c-0.02.08-.041,0.16-0.062,0.25h-0.062v0.19h-0.062c-0.021.08-.042,0.16-0.062,0.25H983.82v0.18h-0.062c-0.021.09-.041,0.17-0.062,0.25h-0.062v0.19h-0.062c-0.021.08-.042,0.17-0.063,0.25h-0.062v0.19h-0.062c-0.021.08-.041,0.16-0.062,0.25h-0.062v0.18H983.2c-0.021.09-.042,0.17-0.063,0.25h-0.062v0.19h-0.062c-0.021.08-.041,0.17-0.062,0.25h-0.062v0.19h-0.063c-0.02.08-.041,0.17-0.062,0.25H982.7v0.19h-0.062v0.12h-0.062c-0.021.08-.042,0.17-0.062,0.25h-0.063v0.19H982.39c-0.021.08-.041,0.16-0.062,0.25h-0.062v0.18H982.2c-0.021.09-.042,0.17-0.063,0.25h-0.062v0.19h-0.062c-0.021.09-.041,0.17-0.062,0.25h-0.062v0.19h-0.062c-0.021.08-.042,0.16-0.063,0.25h-0.062v0.19h-0.062c-0.021.08-.042,0.16-0.062,0.25H981.52v0.18h-0.063c-0.02.09-.041,0.17-0.062,0.25h-0.062v0.19h-0.062c-0.021.08-.042,0.17-0.062,0.25h-0.062v0.19h-0.063c-0.02.08-.041,0.16-0.062,0.25H980.96v0.19H980.9c-0.021.08-.042,0.16-0.062,0.24h-0.063v0.19h-0.062c-0.021.09-.041,0.17-0.062,0.25h-0.062v0.19h-0.062v0.12h-0.063c-0.02.09-.041,0.17-0.062,0.25h-0.062v0.19h-0.062c-0.021.09-.042,0.17-0.062,0.25h-0.062v0.19h-0.063v0.12h-0.062v0.19h-0.062c-0.021.08-.042,0.17-0.062,0.25h-0.062v0.19h-0.063v0.12h-0.062v0.19h-0.062c-0.021.08-.041,0.17-0.062,0.25H979.53v0.19h-0.063v0.12h-0.062c-0.02.09-.041,0.17-0.062,0.25h-0.062v0.19h-0.062v0.13h-0.062l-0.063.24h-0.062v0.19H978.97c-0.021.08-.041,0.17-0.062,0.25h-0.062v0.13h-0.063v0.12h-0.062v0.19h-0.062c-0.041.12-.083,0.25-0.124,0.37h-0.063v0.13H978.41v0.12h-0.062v0.13h-0.062v0.12h-0.062v0.13h-0.062v0.12H978.1v0.13h-0.062v0.12h-0.062v0.13h-0.062v0.12l-0.125.06c-0.02.09-.041,0.17-0.062,0.25h-0.062c-0.021.07-.041,0.13-0.062,0.19l-0.124.06v0.13h-0.063c-0.02.04-.041,0.08-0.062,0.12h-0.124v0.07a1.294,1.294,0,0,0-.249.18h-1.8v-0.06l-0.311-.06c-0.1-.13-0.207-0.25-0.311-0.38h-0.062v-0.12l-0.125-.06v-0.13h-0.062v-0.12h-0.062v-0.13h-0.062v-0.12H974.12v-0.13h-0.063c-0.041-.12-0.083-0.25-0.124-0.37h-0.062v-0.19h-0.062v-0.12h-0.062v-0.19h-0.063c-0.02-.08-0.041-0.17-0.062-0.25H973.56v-0.19H973.5c-0.021-.08-0.042-0.16-0.062-0.25h-0.063v-0.19h-0.062v-0.12h-0.062v-0.19h-0.062c-0.021-.08-0.042-0.16-0.062-0.25h-0.062v-0.18H973c-0.02-.09-0.041-0.17-0.062-0.26h-0.062c-0.062-.2-0.124-0.41-0.187-0.62h-0.062v-0.12h-0.062v-0.19H972.5c-0.021-.09-0.042-0.17-0.062-0.25h-0.062v-0.19h-0.063c-0.02-.08-0.041-0.17-0.062-0.25h-0.062v-0.19H972.13v-0.12h-0.062v-0.19h-0.063c-0.02-.08-0.041-0.16-0.062-0.25h-0.062v-0.19h-0.062c-0.021-.08-0.042-0.16-0.062-0.25h-0.063v-0.18h-0.062v-0.13H971.57v-0.19h-0.062c-0.021-.08-0.042-0.16-0.062-0.25h-0.062v-0.18h-0.063c-0.02-.09-0.041-0.17-0.062-0.25H971.2v-0.19h-0.062v-0.12h-0.062v-0.19H971.01c-0.02-.08-0.041-0.17-0.062-0.25h-0.062v-0.19h-0.062c-0.021-.08-0.042-0.17-0.062-0.25H970.7v-0.19h-0.063c-0.02-.08-0.041-0.16-0.062-0.25h-0.062v-0.18h-0.062v-0.13h-0.062v-0.19h-0.063c-0.02-.08-0.041-0.16-0.062-0.25H970.2v-0.18H970.14c-0.021-.09-0.042-0.17-0.062-0.25h-0.062v-0.19h-0.063v-0.12h-0.062v-0.19c-2-4.45-3.791-9.1-5.783-13.56v-0.18h-0.062v-0.13h-0.062c-0.021-.1-0.042-0.21-0.063-0.31h-0.062v-0.19H963.8v-0.12h-0.062c-0.021-.09-0.042-0.17-0.062-0.25H963.61v-0.19h-0.062v-0.12h-0.062v-0.19h-0.062c-0.021-.09-0.041-0.17-0.062-0.25H963.3v-0.19h-0.063c-0.02-.08-0.041-0.17-0.062-0.25h-0.062v-0.19h-0.062v-0.12h-0.062v-0.19h-0.063c-0.02-.08-0.041-0.16-0.062-0.25H962.8v-0.18H962.74c-0.021-.09-0.041-0.17-0.062-0.25h-0.062v-0.19h-0.063c-0.02-.09-0.041-0.17-0.062-0.25h-0.062v-0.19h-0.062v-0.12h-0.062v-0.19h-0.063c-0.02-.09-0.041-0.17-0.062-0.25h-0.062v-0.19h-0.062c-0.021-.08-0.041-0.17-0.062-0.25h-0.062c-0.021-.1-0.042-0.21-0.063-0.31h-0.062v-0.19h-0.062c-0.021-.08-0.041-0.16-0.062-0.25h-0.062v-0.19h-0.063c-0.02-.08-0.041-0.16-0.062-0.25h-0.062v-0.18h-0.062c-0.021-.09-0.042-0.17-0.062-0.25h-0.062v-0.19h-0.063v-0.12h-0.062v-0.19h-0.062c-0.021-.09-0.041-0.17-0.062-0.25h-0.062v-0.19h-0.063v-0.12h-0.062c-0.021-.11-0.041-0.21-0.062-0.32h-0.062v-0.18L960,2545.25h-0.062a1.611,1.611,0,0,1-.187.56V2546h-0.062v0.12h-0.062v0.19h-0.062v0.13h-0.063v0.18h-0.062c-0.021.09-.041,0.17-0.062,0.25H959.32v0.19h-0.062c-0.021.08-.042,0.17-0.063,0.25h-0.062v0.19h-0.062v0.12h-0.062c-0.021.09-.042,0.17-0.062,0.25h-0.062v0.19h-0.063v0.12H958.76v0.13H958.7v0.12h-0.062v0.19h-0.062v0.13h-0.063c-0.02.08-.041,0.16-0.062,0.25h-0.062v0.18h-0.062c-0.021.09-.042,0.17-0.062,0.25H958.2v0.19h-0.063c-0.02.08-.041,0.17-0.062,0.25h-0.062v0.19h-0.062c-0.021.08-.042,0.16-0.062,0.25h-0.063v0.19h-0.062c-0.021.08-.041,0.16-0.062,0.25h-0.062v0.18h-0.062c-0.021.09-.042,0.17-0.063,0.25h-0.062v0.19h-0.062c-0.021.08-.041,0.17-0.062,0.25h-0.062v0.19h-0.062v0.12h-0.063v0.19h-0.062c-0.021.08-.041,0.17-0.062,0.25h-0.062v0.19H956.9c-0.021.08-.042,0.16-0.063,0.25H956.77v0.18h-0.062v0.13h-0.062c-0.021.08-.042,0.16-0.062,0.25h-0.063v0.19h-0.062v0.12H956.4v0.19h-0.062v0.12h-0.062v0.19h-0.062v0.13h-0.063v0.18h-0.062c-0.02.09-.041,0.17-0.062,0.25h-0.062v0.19H955.9c-0.021.08-.042,0.17-0.063,0.25h-0.062v0.19h-0.062v0.12h-0.062c-0.021.09-.042,0.17-0.062,0.25h-0.062v0.19h-0.063c-0.02.08-.041,0.17-0.062,0.25H955.34v0.19h-0.062c-0.021.08-.042,0.16-0.062,0.25h-0.063v0.18h-0.062v0.13h-0.062v0.19h-0.062c-0.021.08-.042,0.16-0.062,0.25h-0.063v0.18H954.78c-0.02.09-.041,0.17-0.062,0.25h-0.062v0.19h-0.062c-0.021.08-.042,0.17-0.062,0.25h-0.063v0.19h-0.062c-0.02.08-.041,0.16-0.062,0.25h-0.062v0.18h-0.062c-0.021.09-.042,0.17-0.063,0.25H954.1v0.19h-0.062c-0.021.09-.041,0.17-0.062,0.25H953.91v0.19h-0.062v0.12h-0.063v0.19c-1.767,3.94-3.394,8.05-5.161,11.99v0.19h-0.062c-0.021.08-.042,0.17-0.062,0.25h-0.062v0.19h-0.063c-0.02.08-.041,0.16-0.062,0.25h-0.062v0.18h-0.062v0.13h-0.062v0.19h-0.063c-0.02.08-.041,0.16-0.062,0.25H947.94v0.18h-0.062c-0.021.09-.042,0.17-0.062,0.25h-0.062v0.19h-0.063c-0.02.08-.041,0.17-0.062,0.25h-0.062v0.19h-0.062c-0.021.08-.042,0.16-0.062,0.25H947.38v0.19h-0.062c-0.02.08-.041,0.16-0.062,0.25h-0.062v0.18h-0.062c-0.021.09-.042,0.17-0.062,0.25h-0.063v0.19h-0.062v0.13h-0.062c-0.021.12-.042,0.24-0.062,0.37h-0.062v0.12H946.7v0.19h-0.062c-0.02.11-.041,0.21-0.062,0.31H946.51v0.13h-0.062v0.19h-0.062c-0.021.08-.042,0.16-0.063,0.25h-0.062v0.18H946.2v0.13h-0.062c-0.021.08-.042,0.17-0.062,0.25h-0.063c-0.062.19-.124,0.37-0.186,0.56l-0.125.06c-0.041.13-.082,0.25-0.124,0.38l-0.124.06v0.12c-0.187.17-.373,0.34-0.56,0.5a6.941,6.941,0,0,1-1.8-.06,1.625,1.625,0,0,1-.5-0.25v-0.12c-0.062-.04-0.124-0.09-0.186-0.13v-0.12a0.785,0.785,0,0,1-.125-0.07v-0.12l-0.124-.06c-0.041-.13-0.083-0.25-0.124-0.38H941.97v-0.12h-0.062v-0.13h-0.062v-0.12h-0.062v-0.13h-0.062v-0.12h-0.063c-0.02-.08-0.041-0.17-0.062-0.25h-0.062v-0.13h-0.062v-0.18h-0.062v-0.13h-0.062c-0.021-.08-0.042-0.16-0.063-0.25h-0.062v-0.19h-0.062c-0.021-.08-0.041-0.16-0.062-0.25h-0.062v-0.18h-0.063v-0.13h-0.062c-0.02-.08-0.041-0.16-0.062-0.25h-0.062v-0.19h-0.062v-0.12h-0.062v-0.19H940.6c-0.02-.08-0.041-0.16-0.062-0.25h-0.062v-0.18h-0.062c-0.021-.09-0.042-0.17-0.062-0.25h-0.063v-0.19h-0.062c-0.021-.08-0.041-0.17-0.062-0.25h-0.062v-0.19h-0.062v-0.12h-0.062c-0.021-.09-0.042-0.17-0.063-0.25h-0.062v-0.19h-0.062v-0.13h-0.062v-0.12H939.67c-0.042-.13-0.083-0.25-0.125-0.38h-0.062v-0.18h-0.062v-0.13h-0.062v-0.12H939.3c-0.041-.13-0.082-0.25-0.124-0.38H939.11v-0.18h-0.062v-0.13h-0.062c-0.021-.08-0.042-0.17-0.063-0.25h-0.062v-0.19H938.8c-0.021-.08-0.041-0.16-0.062-0.25h-0.062v-0.18h-0.063c-0.02-.09-0.041-0.17-0.062-0.25h-0.062v-0.19h-0.062v-0.13h-0.062v-0.18H938.3c-0.021-.09-0.042-0.17-0.063-0.25h-0.062v-0.19h-0.062c-0.021-.08-0.041-0.17-0.062-0.25h-0.062c-0.021-.1-0.042-0.21-0.063-0.31h-0.062v-0.19H937.8c-0.021-.08-0.041-0.17-0.062-0.25H937.68v-0.19h-0.062c-0.021-.08-0.042-0.16-0.063-0.25h-0.062v-0.18h-0.062c-0.021-.09-0.042-0.17-0.062-0.25h-0.062v-0.19h-0.063c-0.02-.08-0.041-0.17-0.062-0.25H937.12v-0.19h-0.062c-0.021-.08-0.042-0.17-0.062-0.25h-0.062v-0.19h-0.063v-0.12h-0.062v-0.19h-0.062c-0.021-.08-0.042-0.16-0.062-0.25h-0.062v-0.19H936.56c-0.02-.08-0.041-0.16-0.062-0.25h-0.062v-0.18h-0.062c-0.021-.09-0.042-0.17-0.062-0.25H936.25v-0.19h-0.063v-0.12h-0.062v-0.19h-0.062c-0.021-.09-0.042-0.17-0.062-0.25h-0.062v-0.19h-0.063c-0.02-.08-0.041-0.17-0.062-0.25h-0.062v-0.19H935.69c-0.021-.08-0.042-0.16-0.062-0.25h-0.063v-0.18H935.5v-0.13h-0.062v-0.19h-0.062c-0.021-.08-0.042-0.16-0.062-0.25h-0.062v-0.18h-0.063c-0.02-.09-0.041-0.17-0.062-0.25h-0.062v-0.19h-0.062c-0.021-.08-0.042-0.17-0.062-0.25h-0.063v-0.19h-0.062c-0.02-.08-0.041-0.16-0.062-0.25H934.7v-0.18h-0.062v-0.13H934.57v-0.19h-0.062c-0.02-.08-0.041-0.16-0.062-0.25h-0.062v-0.18h-0.062c-0.021-.09-0.042-0.17-0.062-0.25H934.2v-0.19h-0.062c-0.021-.09-0.041-0.17-0.062-0.25h-0.062v-0.19h-0.062c-0.021-.08-0.042-0.17-0.063-0.25h-0.062v-0.19h-0.062c-0.021-.08-0.041-0.16-0.062-0.25h-0.062v-0.18h-0.063v-0.13h-0.062c-0.02-.08-0.041-0.16-0.062-0.25h-0.062v-0.18h-0.062c-0.021-.09-0.042-0.17-0.062-0.26H933.2v-0.18H933.14c-0.02-.09-0.041-0.17-0.062-0.25h-0.062v-0.19h-0.062v-0.12h-0.063c-0.02-.09-0.041-0.17-0.062-0.25h-0.062v-0.19h-0.062v-0.13h-0.062c-0.021-.08-0.042-0.16-0.062-0.25h-0.063v-0.18h-0.062c-0.02-.09-0.041-0.17-0.062-0.25h-0.062v-0.19H932.27c-0.021-.08-0.042-0.17-0.063-0.25h-0.062v-0.19h-0.062c-0.021-.08-0.041-0.16-0.062-0.25h-0.062v-0.18H931.9c-0.021-.09-0.042-0.17-0.063-0.26h-0.062v-0.18H931.71c-0.021-.09-0.041-0.17-0.062-0.25h-0.062v-0.19h-0.063c-0.02-.08-0.041-0.17-0.062-0.25H931.4v-0.19h-0.062c-0.021-.08-0.042-0.16-0.062-0.25h-0.062v-0.18H931.15c-0.02-.09-0.041-0.17-0.062-0.25h-0.062v-0.19h-0.062c-0.021-.08-0.042-0.17-0.062-0.25h-0.063v-0.19h-0.062c-0.02-.08-0.041-0.16-0.062-0.25h-0.062v-0.19h-0.062c-0.021-.08-0.042-0.16-0.063-0.25h-0.062v-0.18H930.4c-0.021-.09-0.041-0.17-0.062-0.25H930.28v-0.19h-0.062c-0.021-.08-0.042-0.17-0.063-0.25h-0.062v-0.19h-0.062c-0.021-.08-0.041-0.16-0.062-0.25h-0.062v-0.18h-0.063c-0.02-.09-0.041-0.17-0.062-0.25H929.72v-0.19h-0.062c-0.021-.09-0.041-0.17-0.062-0.25h-0.062v-0.19h-0.063c-0.02-.08-0.041-0.17-0.062-0.25h-0.062v-0.19h-0.062c-0.021-.08-0.042-0.16-0.062-0.25H929.16v-0.18H929.1c-0.021-.09-0.041-0.17-0.062-0.25h-0.062v-0.19h-0.062c-0.021-.08-0.042-0.17-0.062-0.25h-0.063v-0.19h-0.062c-0.021-.08-0.041-0.16-0.062-0.25H928.6v-0.18h-0.062c-0.021-.09-0.042-0.17-0.063-0.25h-0.062V2547h-0.062v-0.13H928.29v-0.18h-0.062c-0.021-.09-0.042-0.17-0.062-0.25H928.1l-0.186-.63h-0.062v-0.12h-0.063v-0.19H927.73v-0.13h-0.062v-0.18h-0.062c-0.021-.09-0.042-0.17-0.062-0.25h-0.063v-0.19h-0.062v-0.13h-0.062v-0.18H927.3c-0.021-.09-0.042-0.17-0.062-0.25h-0.062V2544h-0.063v-0.13h-0.062v-0.18h-0.062c-0.021-.09-0.041-0.17-0.062-0.25H926.86v-0.19H926.8c-0.02-.08-0.041-0.17-0.062-0.25h-0.062v-0.19h-0.062c-0.021-.08-0.042-0.16-0.062-0.25h-0.062v-0.18h-0.063c-0.02-.09-0.041-0.17-0.062-0.25H926.3v-0.19h-0.062v-0.12h-0.062c-0.021-.09-0.042-0.17-0.063-0.26h-0.062v-0.18h-0.062c-0.021-.09-0.041-0.17-0.062-0.25h-0.062v-0.19H925.8v-0.13H925.74v-0.18h-0.062c-0.021-.09-0.041-0.17-0.062-0.25h-0.062v-0.19h-0.062c-0.021-.08-0.042-0.17-0.063-0.25h-0.062v-0.19h-0.062c-0.021-.08-0.041-0.16-0.062-0.25h-0.062v-0.19h-0.062l-0.063-.24h-0.062v-0.19h-0.062c-0.021-.08-0.042-0.17-0.062-0.25h-0.062v-0.19h-0.063v-0.12h-0.062v-0.19h-0.062c-0.021-.08-0.041-0.17-0.062-0.25H924.5v-0.19h-0.063c-0.02-.08-0.041-0.16-0.062-0.25H924.31v-0.19h-0.062c-0.021-.08-0.042-0.16-0.062-0.24h-0.062v-0.19h-0.063v-0.13H924v-0.18h-0.062c-0.021-.09-0.042-0.17-0.062-0.25h-0.062v-0.19H923.75c-0.02-.08-0.041-0.17-0.062-0.25h-0.062v-0.19h-0.062c-0.021-.08-0.042-0.17-0.062-0.25H923.44v-0.19h-0.063v-0.12h-0.062v-0.19h-0.062c-0.021-.08-0.042-0.17-0.062-0.25h-0.062v-0.19h-0.063c-0.02-.08-0.041-0.16-0.062-0.25h-0.062v-0.18H922.88c-0.021-.09-0.042-0.17-0.062-0.25h-0.063v-0.19h-0.062v-0.13h-0.062v-0.18h-0.062c-0.021-.09-0.042-0.17-0.062-0.25h-0.062v-0.19h-0.063c-0.02-.08-0.041-0.17-0.062-0.25h-0.062v-0.19H922.2c-0.021-.08-0.042-0.16-0.062-0.25h-0.063v-0.18h-0.062v-0.13h-0.062v-0.19h-0.062c-0.021-.08-0.042-0.16-0.062-0.25H921.76v-0.18H921.7c-0.02-.09-0.041-0.17-0.062-0.25h-0.062v-0.19h-0.062c-0.021-.08-0.042-0.17-0.062-0.25h-0.063v-0.19h-0.062c-0.02-.08-0.041-0.16-0.062-0.25H921.2v-0.18h-0.062v-0.13h-0.063v-0.19h-0.062c-0.02-.1-0.041-0.21-0.062-0.31H920.89c-0.021-.08-0.041-0.17-0.062-0.25h-0.062v-0.19H920.7v-0.12h-0.062v-0.19h-0.062v-0.12h-0.062v-0.19h-0.062v-0.13h-0.063v-0.18H920.33c-0.02-.09-0.041-0.17-0.062-0.25h-0.062c-0.021-.11-0.042-0.21-0.062-0.31h-0.062v-0.19h-0.063v-0.13h-0.062v-0.19H919.9c-0.021-.08-0.041-0.16-0.062-0.24h-0.062v-0.19h-0.063v-0.13h-0.062v-0.19h-0.062c-0.021-.08-0.041-0.16-0.062-0.24H919.46v-0.19H919.4v-0.13h-0.063v-0.18h-0.062c-0.021-.09-0.041-0.17-0.062-0.25h-0.062v-0.19h-0.062c-0.021-.08-0.042-0.17-0.063-0.25h-0.062v-0.19H918.9c-0.021-.08-0.041-0.17-0.062-0.25h-0.062v-0.19h-0.063c-0.02-.08-0.041-0.16-0.062-0.25h-0.062v-0.18h-0.062c-0.021-.09-0.041-0.17-0.062-0.25H918.4v-0.19H918.34v-0.13h-0.062c-0.021-.08-0.041-0.16-0.062-0.25h-0.062v-0.18h-0.062c-0.021-.08-0.042-0.17-0.063-0.25h-0.062v-0.19h-0.062c-0.021-.08-0.041-0.17-0.062-0.25h-0.062v-0.19h-0.062c-0.021-.08-0.042-0.16-0.063-0.25h-0.062v-0.18h-0.062v-0.13H917.47v-0.19h-0.062c-0.021-.08-0.042-0.16-0.063-0.25h-0.062v-0.18h-0.062c-0.021-.09-0.041-0.17-0.062-0.25H917.1v-0.19h-0.062v-0.13h-0.063v-0.18H916.91c-0.021-.09-0.041-0.17-0.062-0.25h-0.062v-0.19h-0.062v-0.12h-0.063v-0.19H916.6c-0.021-.09-0.041-0.17-0.062-0.25h-0.062v-0.19h-0.062c-0.021-.08-0.042-0.17-0.062-0.25h-0.063c-0.02-.1-0.041-0.21-0.062-0.31h-0.062v-0.19H916.1c-0.021-.08-0.042-0.17-0.062-0.25h-0.063v-0.19h-0.062v-0.12h-0.062c-0.021-.08-0.041-0.17-0.062-0.25h-0.062v-0.19h-0.062c-0.021-.08-0.042-0.16-0.063-0.25h-0.062v-0.19H915.48c-0.021-.08-0.042-0.16-0.062-0.25h-0.062v-0.18h-0.063v-0.13h-0.062v-0.19h-0.062c-0.021-.08-0.042-0.16-0.062-0.24h-0.062v-0.19h-0.063v-0.13H914.92c-0.02-.1-0.041-0.21-0.062-0.31H914.8v-0.19h-0.062v-0.12h-0.062v-0.19h-0.063v-0.12h-0.062v-0.19h-0.062c-0.021-.08-0.042-0.17-0.062-0.25h-0.062v-0.19H914.3v-0.12h-0.062v-0.19h-0.062v-0.13h-0.062v-0.18H914.05v-0.13h-0.062v-0.19h-0.063v-0.12h-0.062v-0.19H913.8v-0.12h-0.062v-0.19h-0.062v-0.13h-0.063c-0.02-.1-0.041-0.2-0.062-0.31H913.49v-0.18h-0.062v-0.13h-0.062v-0.19H913.3v-0.12h-0.063v-0.19h-0.062v-0.12h-0.062v-0.19h-0.062c-0.021-.08-0.042-0.17-0.062-0.25H912.93v-0.19h-0.062v-0.12h-0.062v-0.19h-0.062c-0.021-.08-0.042-0.17-0.062-0.25h-0.063v-0.19h-0.062v-0.12H912.5v-0.19h-0.062c-0.021-.08-0.042-0.17-0.062-0.25h-0.062v-0.19h-0.063v-0.12h-0.062c-0.021-.09-0.041-0.17-0.062-0.25H912.06v-0.19H912c-0.021-.08-0.042-0.17-0.063-0.25h-0.062v-0.19h-0.062v-0.12h-0.062v-0.19h-0.062v-0.12h-0.063v-0.19h-0.062v-0.13H911.5v-0.18h-0.062c-0.021-.09-0.042-0.17-0.062-0.25h-0.062c-0.125-.38-0.249-0.75-0.374-1.13h-0.062c-0.02-.08-0.041-0.16-0.062-0.25h-0.062v-0.18h-0.062v-0.13H910.63v-0.19h-0.063c-0.02-.08-0.041-0.16-0.062-0.25h-0.062c-0.124-.37-0.249-0.75-0.373-1.12v-0.75a5.933,5.933,0,0,1,0-1.75,0.887,0.887,0,0,0,.186-0.25h0.125l0.062-.12c0.1-.02.207-0.05,0.311-0.07v-0.06a7.11,7.11,0,0,1,1.679.06h0.311v0.07h0.124v0.06Z" transform="translate(-910 -2500)"/>
</svg>
