<svg xmlns="http://www.w3.org/2000/svg" viewBox="0 0 8 16">
	<path  d="M1277,22v2.5h-1.16v0.031h-0.12v0.031h-0.1v0.032l-0.12.03v0.031h-0.06a0.524,0.524,0,0,1-.07.093h-0.06l-0.03.063h-0.03v0.062l-0.09.062V25h-0.04l-0.03.125h-0.03v0.094h-0.03v0.125H1275V27.5h3V27.53h-0.03c-0.01.052-.02,0.1-0.03,0.158h-0.03v0.093h-0.04v0.062h-0.03v0.093h-0.03V28h-0.03v0.093h-0.03v0.062h-0.03l-0.03.157h-0.03V28.4h-0.04v0.063h-0.03v0.093h-0.03v0.063h-0.03v0.094h-0.03V28.78h-0.03v0.093h-0.03v0.063h-0.03V29.03h-0.04v0.062h-0.03v0.095h-0.03v0.062h-0.03v0.093h-0.03V29.4h-0.03V29.5h-0.03v0.063h-0.03v0.094h-0.04l-0.03.156h-0.03v0.064h-0.03A0.234,0.234,0,0,1,1277,30h-2v8h-3V30h-2V27.5h2V25.436a3.9,3.9,0,0,1,.06-0.936V24.313a3.144,3.144,0,0,1,2.25-2.25h0.19a3.071,3.071,0,0,1,.81-0.062H1277Z" transform="translate(-1270 -22)"/>
</svg>