<svg xmlns="http://www.w3.org/2000/svg" viewBox="0 0 16 16">
	<path  d="M1238.7,22h6.6v0.031h0.29a1.7,1.7,0,0,1,.24.063h0.19l0.9,0.282V22.4c0.07,0.02.13,0.041,0.19,0.062V22.5h0.06v0.031h0.07V22.56l0.15,0.032,0.03,0.062h0.07l0.03,0.062,0.12,0.031,0.03,0.063c0.04,0.01.09,0.02,0.13,0.031l0.06,0.094h0.06l0.06,0.094h0.07l0.06,0.094h0.06c0.07,0.083.15,0.166,0.22,0.25h0.06l0.03,0.063c0.04,0.031.09,0.062,0.13,0.093v0.063c0.08,0.073.16,0.146,0.25,0.218v0.063l0.09,0.063V24l0.09,0.063v0.062c0.03,0.022.07,0.042,0.1,0.063l0.03,0.125,0.06,0.031,0.03,0.125,0.06,0.032a0.386,0.386,0,0,0,.04.095h0.03c0.01,0.051.02,0.1,0.03,0.156h0.03V24.81h0.03v0.062h0.03l0.06,0.187h0.03c0.1,0.3.19,0.6,0.28,0.906v0.189a6.437,6.437,0,0,1,.1,1.624v3.25a12.031,12.031,0,0,1-.16,3.125l-0.03.25h-0.03V34.5h-0.03V34.59h-0.03v0.093h-0.03v0.095h-0.03V34.84h-0.04v0.094h-0.03c-0.02.064-.04,0.125-0.06,0.188h-0.03v0.063h-0.03v0.062h-0.03l-0.03.156c-0.02.011-.05,0.021-0.07,0.032V35.5l-0.06.03-0.03.125-0.06.031-0.03.125c-0.03.022-.07,0.042-0.1,0.062v0.063l-0.09.061v0.063l-0.09.063v0.063c-0.09.072-.17,0.145-0.25,0.218v0.063l-0.06.031a1.1,1.1,0,0,0-.1.125h-0.06c-0.07.083-.15,0.167-0.22,0.249h-0.06c-0.02.033-.04,0.064-0.06,0.095h-0.07c-0.02.031-.04,0.061-0.06,0.094l-0.09.031-0.03.063h-0.06v0.031h-0.07c-0.01.02-.02,0.042-0.03,0.063-0.04.01-.08,0.02-0.12,0.031l-0.03.061a0.945,0.945,0,0,0-.1.033V37.4c-0.07.02-.14,0.041-0.22,0.062V37.5h-0.06v0.032c-0.06.021-.12,0.041-0.19,0.062v0.032h-0.09v0.03h-0.06v0.032h-0.09v0.031h-0.1v0.031h-0.09v0.031h-0.09v0.031h-0.13V37.84h-0.12v0.031h-0.13V37.9h-0.19v0.032h-0.18v0.03l-1.09.032h-4.99a5.406,5.406,0,0,1-1.4-.095h-0.19l-0.9-.28V37.59c-0.06-.021-0.13-0.041-0.19-0.062V37.5h-0.06V37.465h-0.06V37.434c-0.05-.011-0.11-0.021-0.16-0.031V37.372l-0.09-.033-0.03-.061c-0.04-.011-0.09-0.021-0.13-0.031-0.01-.021-0.02-0.043-0.03-0.063h-0.06V37.153h-0.06l-0.03-.063a0.975,0.975,0,0,1-.1-0.031c-0.02-.032-0.04-0.063-0.06-0.094h-0.06c-0.02-.031-0.04-0.062-0.06-0.095h-0.07l-0.18-.217c-0.04-.011-0.07-0.021-0.1-0.032l-0.03-.063-0.12-.093V36.4c-0.09-.073-0.17-0.146-0.25-0.218V36.122a0.873,0.873,0,0,0-.1-0.063V36l-0.09-.061-0.03-.095c-0.02-.009-0.04-0.02-0.06-0.03V35.746h-0.03V35.684a0.414,0.414,0,0,1-.07-0.031l-0.03-.125-0.06-.03-0.03-.094h-0.03l-0.03-.156h-0.03V35.185h-0.04V35.121h-0.03c-0.02-.063-0.04-0.124-0.06-0.188h-0.03c-0.09-.3-0.19-0.6-0.28-0.906V33.841a5.174,5.174,0,0,1-.09-1.344V27.435a5.13,5.13,0,0,1,.09-1.281V25.965c0.09-.3.19-0.6,0.28-0.906h0.03l0.06-.187h0.03V24.81h0.04V24.747h0.03c0.01-.052.02-0.105,0.03-0.156h0.03l0.03-.095,0.06-.032,0.03-.125a0.467,0.467,0,0,1,.07-0.031V24.247h0.03V24.185l0.06-.032,0.03-.093,0.09-.063V23.935a0.846,0.846,0,0,0,.1-0.063V23.81c0.08-.073.16-0.146,0.25-0.218V23.528l0.12-.093,0.03-.063c0.03-.011.06-0.02,0.1-0.031l0.18-.219h0.07l0.06-.094h0.06l0.06-.094h0.06a0.575,0.575,0,0,0,.07-0.094c0.04-.011.08-0.02,0.12-0.031l0.03-.063c0.04-.011.09-0.02,0.13-0.031l0.03-.062,0.09-.031V22.592l0.16-.032V22.528h0.06V22.5h0.06V22.466c0.06-.021.13-0.042,0.19-0.062V22.373h0.09V22.342h0.06V22.31h0.1V22.279h0.09V22.246h0.1V22.215h0.09v-0.03h0.12V22.154c0.09-.01.17-0.021,0.25-0.031V22.091h0.19V22.06A2.393,2.393,0,0,0,1238.7,22Zm0,1.5a1.3,1.3,0,0,1-.41.063v0.031h-0.12v0.032h-0.13v0.032h-0.12v0.03h-0.06v0.032h-0.1v0.031h-0.09v0.032c-0.06.021-.12,0.041-0.19,0.062v0.032h-0.06V23.9c-0.06.02-.12,0.041-0.19,0.063l-0.03.062h-0.06l-0.03.062h-0.06l-0.03.062h-0.07l-0.06.094h-0.06c-0.05.062-.1,0.125-0.16,0.188h-0.06l-0.03.063-0.12.095v0.062c-0.07.051-.13,0.1-0.19,0.156v0.062c-0.03.02-.06,0.042-0.09,0.062V25a0.484,0.484,0,0,0-.07.03l-0.03.094h-0.03v0.062l-0.06.032c-0.02.063-.04,0.124-0.06,0.188h-0.03v0.062h-0.04c-0.02.063-.04,0.125-0.06,0.187h-0.03l-0.03.189h-0.03V25.9h-0.03l-0.03.25a4.061,4.061,0,0,0-.13,1.311V31.5a9.619,9.619,0,0,0,.06,2.033v0.186h0.03v0.126h0.04v0.125h0.03V34.09h0.03v0.063h0.03v0.094h0.03V34.34h0.03l0.06,0.188h0.04V34.59h0.03l0.06,0.188,0.06,0.031v0.063c0.02,0.011.04,0.021,0.06,0.031v0.063c0.02,0.01.04,0.02,0.07,0.032v0.061l0.09,0.063v0.063c0.06,0.051.12,0.1,0.19,0.156V35.4l0.06,0.032,0.09,0.125h0.06c0.06,0.062.11,0.125,0.16,0.187h0.06l0.06,0.093h0.07c0.01,0.022.02,0.042,0.03,0.063l0.09,0.032v0.031h0.06l0.03,0.062h0.07v0.032h0.06V36.09h0.06v0.032h0.06v0.031h0.07v0.032l0.12,0.031v0.031h0.09v0.032h0.1v0.03h0.06V36.34h0.12v0.031h0.13V36.4h0.12v0.032h0.19a7.514,7.514,0,0,0,1.75.062h5.07V36.465h0.22V36.434h0.19V36.4h0.12V36.371h0.13V36.34h0.12V36.309h0.07v-0.03c0.06-.012.12-0.021,0.18-0.032V36.216c0.07-.022.13-0.042,0.19-0.063V36.122h0.06V36.09c0.06-.02.13-0.041,0.19-0.063l0.03-.062h0.06V35.934c0.03-.011.06-0.021,0.1-0.032,0.01-.021.02-0.041,0.03-0.063h0.06l0.06-.093h0.06c0.06-.063.11-0.125,0.16-0.187h0.06l0.03-.062c0.04-.031.09-0.063,0.13-0.094V35.341c0.06-.052.12-0.1,0.19-0.156,0.01-.033.02-0.063,0.03-0.094l0.06-.032V35c0.02-.012.04-0.022,0.06-0.032l0.03-.094h0.03V34.809a0.481,0.481,0,0,1,.07-0.031l0.06-.188h0.03V34.528h0.03l0.06-.188h0.03l0.03-.187h0.04V34.09h0.03l0.03-.25a10.326,10.326,0,0,0,.12-2.657V27.935a6.331,6.331,0,0,0-.06-1.468V26.278h-0.03V26.154h-0.03V26.029h-0.03V25.9h-0.03V25.842h-0.04V25.748h-0.03v-0.1h-0.03c-0.02-.061-0.04-0.123-0.06-0.187h-0.03V25.4h-0.03c-0.02-.064-0.04-0.125-0.06-0.188h-0.04l-0.03-.093-0.06-.031V25.028l-0.06-.03V24.934c-0.03-.019-0.06-0.042-0.09-0.062V24.81c-0.07-.052-0.13-0.1-0.19-0.156V24.592c-0.02-.012-0.04-0.023-0.06-0.032a1.1,1.1,0,0,1-.1-0.125h-0.06c-0.05-.063-0.1-0.125-0.16-0.188h-0.06l-0.06-.094h-0.06l-0.03-.062c-0.04-.01-0.07-0.02-0.1-0.031V24.029h-0.06l-0.03-.062c-0.06-.021-0.13-0.043-0.19-0.063V23.872h-0.06V23.841c-0.06-.02-0.12-0.041-0.19-0.062V23.747l-0.18-.031V23.684h-0.07v-0.03c-0.08-.011-0.16-0.022-0.25-0.032a9.166,9.166,0,0,0-2.46-.125h-4.67Zm7.98,2.593a1.334,1.334,0,0,0-.22.125h-0.35a1.646,1.646,0,0,0-.18-0.125c-0.05-.072-0.11-0.145-0.16-0.218V25.529h0.03V25.466h0.03V25.4h0.04c0.01-.032.02-0.064,0.03-0.094a0.274,0.274,0,0,0,.12-0.062V25.216h0.09V25.184a0.517,0.517,0,0,1,.38.032,0.586,0.586,0,0,1,.22.124V25.4h0.03a0.386,0.386,0,0,0,.06.094,0.791,0.791,0,0,1,0,.375h-0.03v0.093h-0.03A0.236,0.236,0,0,0,1246.68,26.091ZM1241.69,26a3.966,3.966,0,0,1,2.31.563l0.12,0.03,0.03,0.064h0.06a0.241,0.241,0,0,0,.04.062h0.06l0.06,0.093h0.06l0.06,0.093h0.07c0.12,0.137.25,0.271,0.37,0.407,0.05,0.043.1,0.084,0.16,0.126V27.5l0.09,0.062v0.063l0.09,0.063v0.062c0.02,0.011.05,0.021,0.07,0.031V27.84c0.02,0.011.04,0.022,0.06,0.031L1245.43,28l0.06,0.03c0.01,0.043.02,0.084,0.03,0.125h0.03v0.063h0.04c0.02,0.062.04,0.123,0.06,0.187h0.03V28.5h0.03v0.063h0.03c0.07,0.283.15,0.563,0.22,0.845v0.281h0.03a1.815,1.815,0,0,1-.03.624l-0.03.47h-0.03V30.9h-0.03v0.124h-0.04v0.125h-0.03v0.094h-0.03v0.094h-0.03v0.094h-0.03V31.5h-0.03v0.095h-0.03l-0.06.187h-0.04v0.063h-0.03c-0.01.042-.02,0.082-0.03,0.125l-0.06.031-0.03.125h-0.03l-0.03.093c-0.02.011-.05,0.021-0.07,0.031v0.063l-0.09.062v0.062l-0.09.063v0.063c-0.09.073-.17,0.145-0.25,0.219-0.1.1-.19,0.209-0.28,0.313h-0.07l-0.06.093-0.09.032-0.03.062h-0.06a0.229,0.229,0,0,0-.04.063l-0.09.031V33.4l-0.12.032a0.219,0.219,0,0,1-.04.063c-0.04.01-.08,0.02-0.12,0.032v0.03h-0.06v0.03c-0.06.022-.13,0.043-0.19,0.063v0.031h-0.09v0.032h-0.06v0.032h-0.1v0.031h-0.09v0.031h-0.1v0.032h-0.12v0.03h-0.12V33.9h-0.13v0.032l-0.47.032V34a1.86,1.86,0,0,1-.62-0.031l-0.47-.032V33.9l-0.37-.061V33.809l-0.28-.062V33.715c-0.05-.009-0.11-0.02-0.16-0.032V33.652c-0.04-.01-0.08-0.02-0.12-0.031V33.59h-0.06v-0.03h-0.07v-0.03h-0.06V33.5h-0.06l-0.03-.063h-0.06V33.4h-0.07l-0.03-.062h-0.06l-0.03-.063h-0.06c-0.02-.03-0.05-0.062-0.07-0.094h-0.06l-0.06-.093h-0.06c-0.09-.094-0.17-0.187-0.25-0.281-0.1-.083-0.19-0.166-0.28-0.25V32.5a0.916,0.916,0,0,0-.1-0.063l-0.03-.094-0.06-.031V32.246l-0.06-.031V32.153l-0.06-.031a0.588,0.588,0,0,0-.04-0.125l-0.06-.031c-0.01-.043-0.02-0.083-0.03-0.125h-0.03V31.778h-0.03l-0.06-.187h-0.03c-0.07-.189-0.13-0.376-0.19-0.563V30.9a2.915,2.915,0,0,1-.06-1.5V29.216c0.08-.271.16-0.542,0.25-0.812h0.03c0.02-.063.04-0.125,0.06-0.187h0.03V28.153h0.03c0.01-.042.02-0.083,0.03-0.125l0.06-.03a0.628,0.628,0,0,0,.04-0.126h0.03l0.03-.093,0.06-.031V27.685l0.09-.063V27.559a0.743,0.743,0,0,0,.1-0.062V27.435c0.09-.083.18-0.166,0.28-0.25,0.08-.094.16-0.188,0.25-0.282h0.06l0.06-.093c0.03-.011.06-0.02,0.1-0.031,0.01-.022.02-0.042,0.03-0.062h0.06l0.03-.062h0.06l0.03-.064,0.13-.03,0.03-.063,0.12-.03V26.434h0.07V26.4l0.18-.062V26.31l0.81-.25A1.918,1.918,0,0,0,1241.69,26Zm-1.46,5.781a0.544,0.544,0,0,1,.21.156v0.032h0.07l0.06,0.094h0.06c0.01,0.02.02,0.041,0.03,0.062a2.762,2.762,0,0,0,1.81.343V32.434h0.12V32.4h0.13V32.372h0.09V32.34h0.1V32.309h0.06V32.279h0.09V32.246h0.06V32.215h0.07l0.03-.062,0.12-.031c0.01-.022.02-0.043,0.03-0.062h0.07l0.06-.094h0.06V31.934a0.579,0.579,0,0,1,.22-0.156,0.563,0.563,0,0,1,.15-0.218h0.03V31.5a0.836,0.836,0,0,0,.1-0.061V31.372l0.06-.031,0.03-.125c0.02-.01.04-0.019,0.06-0.031V31.122h0.04V31.06h0.03V30.966h0.03V30.9h0.03l0.03-.188h0.03V30.59a1.912,1.912,0,0,0,.03-1.062V29.372h-0.03V29.278h-0.03V29.184h-0.03V29.09h-0.03V29h-0.03l-0.03-.125h-0.04V28.809l-0.06-.03-0.03-.126-0.06-.031V28.559a1.123,1.123,0,0,0-.1-0.063V28.435l-0.15-.125-0.03-.093a0.911,0.911,0,0,0-.1-0.032l-0.12-.156h-0.06l-0.06-.093h-0.07l-0.03-.064c-0.04-.009-0.08-0.02-0.12-0.031l-0.03-.062h-0.07V27.747l-0.12-.031v-0.03h-0.09V27.653h-0.1V27.622h-0.09v-0.03h-0.13V27.559h-0.12V27.528h-0.19V27.5a2.793,2.793,0,0,0-.87.062v0.032l-0.41.094v0.03l-0.12.031v0.031h-0.06l-0.03.062c-0.04.011-.09,0.022-0.13,0.031l-0.03.064h-0.06l-0.06.093h-0.07l-0.12.156c-0.04.021-.08,0.042-0.13,0.063v0.063l-0.15.125V28.5c-0.03.022-.06,0.042-0.09,0.063v0.063a0.4,0.4,0,0,0-.07.031l-0.03.126-0.06.03v0.063h-0.03l-0.03.125h-0.03l-0.03.187h-0.04v0.093h-0.03v0.094h-0.03v0.156a1.991,1.991,0,0,0-.06.75h0.03v0.187h0.03V30.59h0.03v0.125h0.03v0.094h0.04V30.9h0.03v0.062h0.03V31.06h0.03v0.063h0.03v0.061c0.02,0.012.04,0.021,0.06,0.031l0.03,0.125a0.63,0.63,0,0,0,.07.031v0.063l0.09,0.061v0.063h0.03A0.59,0.59,0,0,1,1240.23,31.778Z" transform="translate(-1234 -22)"/>
</svg>