<svg xmlns="http://www.w3.org/2000/svg" viewBox="0 0 16 9">
	<path  d="M1304,30.366c0.04-.1.07-0.2,0.1-0.293h0.05v-0.2h0.05V29.635h0.05V29.148h0.05a3.138,3.138,0,0,0-.05-1.072V27.588c-0.06-.195-0.13-0.39-0.2-0.584l-0.15-.1V26.857c-0.19-.065-0.39-0.131-0.59-0.2V26.515c0.08-.065.16-0.13,0.25-0.194V26.272c0.06-.016.13-0.033,0.2-0.049V26.174l0.39-.049a5.689,5.689,0,0,1,2.14-.048h0.34v0.048h0.25v0.049a1.135,1.135,0,0,1,.35.146v0.1a1.453,1.453,0,0,1,.15.975V28.66h-0.05a2.818,2.818,0,0,0,.05.976v0.389h0.05v0.1h0.05c0.13,0.225.08,0.241,0.44,0.244,0.19-.162.37-0.326,0.55-0.488v-0.1l0.15-.1c0.02-.049.03-0.1,0.05-0.147a0.98,0.98,0,0,1,.1-0.049v-0.1a1.047,1.047,0,0,1,.1-0.049,0.847,0.847,0,0,1,.05-0.146h0.05V29.1a0.8,0.8,0,0,1,.1-0.048,1.365,1.365,0,0,1,.05-0.2l0.09-.05a1.34,1.34,0,0,0,.05-0.194,1.115,1.115,0,0,0,.1-0.049c0.04-.1.07-0.2,0.1-0.294h0.05a1.347,1.347,0,0,0,.05-0.194h0.05v-0.1h0.05v-0.1h0.05v-0.1h0.05v-0.1h0.05c0.02-.066.03-0.131,0.05-0.2h0.05c0.02-.066.03-0.13,0.05-0.2h0.05V27.149h0.05a1.351,1.351,0,0,1,.05-0.195h0.05V26.808h0.05v-0.1a1.042,1.042,0,0,1,.1-0.049,0.868,0.868,0,0,1,.05-0.147h0.09a4.845,4.845,0,0,1,1.1-.049,8.07,8.07,0,0,1,1.78-.049,0.653,0.653,0,0,1,.6.2h0.05V27.1h-0.05c-0.02.081-.03,0.162-0.05,0.243h-0.05v0.1h-0.05v0.1h-0.05v0.1h-0.05v0.1h-0.05c-0.02.065-.03,0.131-0.05,0.2-0.03.016-.07,0.032-0.1,0.048v0.1a1.021,1.021,0,0,1-.1.049v0.1a0.816,0.816,0,0,1-.1.047v0.1h-0.05a0.822,0.822,0,0,1-.05.146,0.938,0.938,0,0,1-.1.049v0.1l-0.09.049v0.1q-0.075.051-.15,0.1V29l-0.15.1v0.1l-0.15.1v0.1c-0.07.05-.13,0.1-0.2,0.147-0.02.049-.03,0.1-0.05,0.147-0.03.017-.07,0.032-0.1,0.049v0.1l-0.15.1v0.1l-0.15.1v0.1c-0.03.015-.06,0.032-0.1,0.048v0.1c-0.04.032-.09,0.064-0.14,0.1v0.1c-0.04.018-.07,0.034-0.1,0.05v0.1h-0.05a0.984,0.984,0,0,0-.1.535h0.05V31.39c0.03,0.016.06,0.032,0.1,0.049v0.1l0.15,0.1c0.11,0.13.23,0.259,0.34,0.39a10.966,10.966,0,0,1,1.49,1.559c0.03,0.016.07,0.032,0.1,0.05v0.1l0.15,0.1c0.02,0.066.03,0.131,0.05,0.2h0.05v0.1h0.05v0.1h0.05a1.146,1.146,0,0,1-.05.536,2.1,2.1,0,0,1-.35.194l-2.03.049h-0.85V34.948h-0.1V34.9h-0.15V34.852l-0.19-.049V34.754h-0.1a0.46,0.46,0,0,1-.05-0.1h-0.1l-0.15-.194h-0.1c-0.02-.032-0.03-0.065-0.05-0.1-0.12-.1-0.23-0.195-0.35-0.292v-0.1l-0.39-.34v-0.1c-0.07-.049-0.14-0.1-0.2-0.146a1.115,1.115,0,0,0-.85-0.488c-0.1.082-.19,0.163-0.29,0.244-0.04.1-.07,0.2-0.1,0.292h-0.05c-0.07.438-.13,0.878-0.2,1.316a2.777,2.777,0,0,1-.3.194h-0.89a5.139,5.139,0,0,1-1.79-.194V34.706h-0.15v-0.05c-0.15-.047-0.29-0.1-0.44-0.146V34.461h-0.1V34.412h-0.1V34.363h-0.1c-0.02-.032-0.03-0.065-0.05-0.1-0.07-.015-0.13-0.032-0.2-0.048-0.02-.033-0.03-0.066-0.05-0.1h-0.1a0.454,0.454,0,0,0-.05-0.1h-0.1a0.461,0.461,0,0,0-.05-0.1h-0.1a0.453,0.453,0,0,0-.05-0.1h-0.09l-0.15-.194h-0.1c-0.17-.179-0.33-0.358-0.5-0.536-0.12-.1-0.23-0.2-0.35-0.294v-0.1c-0.06-.049-0.13-0.1-0.2-0.146v-0.1a1.485,1.485,0,0,0-.14-0.1v-0.1l-0.15-.1v-0.1q-0.075-.05-0.15-0.1c-0.02-.05-0.03-0.1-0.05-0.147-0.03-.016-0.07-0.033-0.1-0.049v-0.1c-0.03-.015-0.07-0.032-0.1-0.048-0.02-.049-0.03-0.1-0.05-0.146h-0.05v-0.1c-0.03-.017-0.07-0.033-0.1-0.049v-0.1a1,1,0,0,0-.1-0.047V31.1c-0.03-.016-0.06-0.032-0.1-0.05v-0.1a0.841,0.841,0,0,0-.1-0.048v-0.1a1.015,1.015,0,0,0-.1-0.05,1.456,1.456,0,0,0-.05-0.2l-0.09-.048a0.886,0.886,0,0,1-.05-0.146h-0.05c-0.04-.1-0.07-0.2-0.1-0.293a1.094,1.094,0,0,1-.1-0.049c-0.03-.1-0.07-0.194-0.1-0.291-0.03-.017-0.07-0.033-0.1-0.049v-0.1h-0.05v-0.1h-0.05v-0.1h-0.05v-0.1h-0.05c-0.02-.064-0.03-0.13-0.05-0.2a0.8,0.8,0,0,0-.1-0.048v-0.1h-0.05v-0.1h-0.05v-0.1h-0.05v-0.1h-0.05v-0.1h-0.05v-0.1h-0.05v-0.1h-0.05c-0.03-.1-0.06-0.2-0.09-0.292h-0.05V27.929h-0.05v-0.1h-0.05c-0.04-.1-0.07-0.2-0.1-0.293h-0.05v-0.1h-0.05V27.294h-0.05V27.2h-0.05a1.162,1.162,0,0,1-.1-0.585,5.823,5.823,0,0,1,2.23-.2,1.919,1.919,0,0,1,.9.1c0.1,0.113.19,0.228,0.29,0.342V27h0.05v0.1h0.05c0.04,0.1.07,0.194,0.1,0.292h0.05v0.146h0.05c0.02,0.065.03,0.13,0.05,0.194h0.05c0.03,0.1.07,0.2,0.1,0.294h0.05c0.02,0.064.03,0.128,0.05,0.195h0.05v0.1h0.05v0.1h0.05v0.1h0.05v0.1h0.05a1.34,1.34,0,0,0,.05.194,0.763,0.763,0,0,0,.1.05v0.1h0.05v0.1h0.05v0.1h0.05v0.1h0.04v0.1a1.047,1.047,0,0,1,.1.049v0.1h0.05a0.85,0.85,0,0,1,.05.146,0.779,0.779,0,0,1,.1.049v0.1c0.07,0.05.13,0.1,0.2,0.146v0.1c0.07,0.049.13,0.1,0.2,0.146v0.05a1.512,1.512,0,0,1,.3.194A1.621,1.621,0,0,0,1304,30.366Z" transform="translate(-1298 -26)"/>
</svg>