<svg id="_1" data-name="1" xmlns="http://www.w3.org/2000/svg" width="51" height="50" viewBox="0 0 51 50">
  <defs>
    <style>
      .cls-1, .cls-2 {
        fill: #4ca6b4;
      }

      .cls-1 {
        opacity: 0.08;
      }

      .cls-2 {
        fill-rule: evenodd;
      }
    </style>
  </defs>
  <circle id="Эллипс_3" data-name="Эллипс 3" class="cls-1" cx="26" cy="25" r="25"/>
  <path id="Фигура_21" data-name="Фигура 21" class="cls-2" d="M321.893,2083.86h11.229c0.032-.1.064-0.19,0.1-0.29h0.1v-0.2h0.1v-0.19c0.065-.03.129-0.07,0.194-0.1v-0.19a1.7,1.7,0,0,1,.194-0.1l0.1-.39c0.065-.03.129-0.07,0.194-0.1v-0.19a1.7,1.7,0,0,1,.194-0.1l0.1-.39c0.065-.03.129-0.07,0.194-0.1,0.032-.13.065-0.26,0.1-0.39a1.775,1.775,0,0,0,.193-0.1v-0.19c0.065-.03.129-0.07,0.194-0.1,0.032-.13.064-0.26,0.1-0.39a1.775,1.775,0,0,0,.193-0.1c0.033-.13.065-0.26,0.1-0.38a1.788,1.788,0,0,1,.194-0.1l0.387-.78h-4.453a0.563,0.563,0,0,0-.387-0.2,2.018,2.018,0,0,1-.29-1.07,0.542,0.542,0,0,0,.193-0.39c0.1-.03.194-0.06,0.29-0.1v-0.09h0.194v-0.1h6.486a5.876,5.876,0,0,1,1.549,1.46l2.42,2.34,1.064,1.17c-0.032.32-.064,0.65-0.1,0.97a1.884,1.884,0,0,1-.194.1c-0.032.13-.064,0.26-0.1,0.39-0.064.03-.129,0.07-0.193,0.1v0.19a1.788,1.788,0,0,1-.194.1c-0.032.13-.065,0.26-0.1,0.39-0.064.03-.129,0.07-0.193,0.1v0.19a1.788,1.788,0,0,1-.194.1c-0.032.13-.065,0.26-0.1,0.39-0.064.03-.129,0.07-0.193,0.1-0.033.13-.065,0.26-0.1,0.39h-0.1c-0.032.1-.065,0.19-0.1,0.29-0.064.03-.129,0.07-0.193,0.1-0.033.13-.065,0.26-0.1,0.39h-0.1c-0.032.1-.064,0.19-0.1,0.29a1.775,1.775,0,0,0-.193.1v0.19h-0.1v0.2l-0.194.09c-0.032.13-.064,0.26-0.1,0.39h-0.1c-0.033.1-.065,0.2-0.1,0.3l-0.194.09c-0.032.13-.064,0.26-0.1,0.39h-0.1c-0.033.1-.065,0.2-0.1,0.3l-0.194.09v0.2h-0.1v0.19a1.775,1.775,0,0,1-.193.1c-0.033.13-.065,0.26-0.1,0.39-0.065.03-.129,0.07-0.194,0.1v0.19a1.775,1.775,0,0,1-.193.1c-0.032.13-.065,0.26-0.1,0.39h-0.1c-0.032.1-.064,0.2-0.1,0.29a1.775,1.775,0,0,1-.193.1c-0.032.13-.065,0.26-0.1,0.39-0.065.03-.129,0.07-0.194,0.1l-0.1.39h-0.1c-0.033.1-.065,0.19-0.1,0.29-0.065.03-.129,0.07-0.194,0.1l-0.1.39-0.194.09v0.2a1.788,1.788,0,0,0-.194.1l-0.1.39h-0.1c-0.032.09-.065,0.19-0.1,0.29a1.788,1.788,0,0,0-.194.1v0.19h-0.1v0.2l-0.194.09c-0.032.13-.065,0.26-0.1,0.39a1.775,1.775,0,0,1-.193.1v0.2l-0.194.09v0.2a2.038,2.038,0,0,0-.387.68,2.192,2.192,0,0,1,.677.39c0.129,0.03.259,0.07,0.388,0.1,0.032,0.06.064,0.13,0.1,0.19h0.194c0.032,0.07.065,0.13,0.1,0.2H336.8c0.065,0.1.129,0.19,0.194,0.29h0.194c0.032,0.07.064,0.13,0.1,0.2h0.194c0.1,0.13.194,0.25,0.29,0.39h0.194c0.161,0.19.323,0.38,0.484,0.58h0.194l0.677,0.78c0.129,0.1.258,0.19,0.387,0.29v0.2l0.581,0.48v0.2c0.129,0.1.258,0.19,0.387,0.29v0.2l0.194,0.09v0.2c0.1,0.06.194,0.13,0.29,0.19v0.2a1.788,1.788,0,0,1,.194.1c0.032,0.13.065,0.26,0.1,0.39l0.193,0.09c0.033,0.13.065,0.26,0.1,0.39a1.788,1.788,0,0,0,.194.1c0.064,0.2.129,0.39,0.193,0.59h0.1v0.19h0.1c0.065,0.19.129,0.39,0.194,0.59h0.1v0.29h0.1v0.19h0.1v0.29h0.1v0.2H343v0.29h0.1v0.29h0.1v0.3h0.1v0.29h0.1v0.39h0.1v0.39h0.1v0.49h0.1v0.48h0.1v0.69a12.082,12.082,0,0,1-.194,5.45c-0.032.3-.064,0.59-0.1,0.88h-0.1c-0.032.23-.065,0.46-0.1,0.68h-0.1v0.3h-0.1v0.29H343v0.29h-0.1v0.19h-0.1v0.3h-0.1v0.19h-0.1v0.29l-1.452,2.64c-0.1.06-.193,0.13-0.29,0.19v0.2c-0.1.06-.194,0.13-0.29,0.19v0.2c-0.1.06-.194,0.13-0.291,0.19v0.2l-0.581.48v0.2c-0.258.23-.516,0.45-0.774,0.68l-0.29.39h-0.194c-0.161.19-.323,0.39-0.484,0.58-0.1.04-.194,0.07-0.29,0.1-0.033.07-.065,0.13-0.1,0.2h-0.194c-0.064.09-.129,0.19-0.193,0.29h-0.194c-0.065.1-.129,0.19-0.194,0.29h-0.193c-0.032.07-.065,0.13-0.1,0.2l-0.387.09c-0.033.07-.065,0.13-0.1,0.2-0.129.03-.258,0.06-0.387,0.1-0.033.06-.065,0.13-0.1,0.19h-0.194v0.1h-0.193v0.1h-0.194v0.09h-0.194v0.1c-0.193.07-.387,0.13-0.58,0.2v0.09H333.9v0.1H333.7v0.1h-0.291v0.1h-0.193v0.09h-0.291v0.1h-0.29v0.1h-0.29v0.1h-0.291v0.09H331.67v0.1h-0.387v0.1H330.8v0.1h-0.484v0.09c-0.549.04-1.1,0.07-1.646,0.1a7.369,7.369,0,0,1-2.323.1v-0.1h-0.968v-0.1H324.7v-0.09c-0.322-.04-0.645-0.07-0.968-0.1v-0.1h-0.387v-0.1l-0.678-.09v-0.1h-0.29v-0.1h-0.29v-0.1H321.8v-0.09H321.6v-0.1h-0.291v-0.1h-0.193v-0.1h-0.291v-0.09c-0.193-.07-0.387-0.13-0.581-0.2v-0.1h-0.193v-0.09c-0.194-.07-0.387-0.13-0.581-0.2-0.032-.06-0.065-0.13-0.1-0.19-0.129-.04-0.258-0.07-0.387-0.1v-0.1c-0.1-.03-0.194-0.06-0.29-0.1-0.033-.06-0.065-0.13-0.1-0.19-0.129-.03-0.258-0.07-0.387-0.1-0.065-.1-0.129-0.19-0.194-0.29h-0.194c-0.032-.07-0.064-0.13-0.1-0.2h-0.194c-0.065-.09-0.129-0.19-0.194-0.29-0.1-.03-0.193-0.06-0.29-0.1-0.161-.19-0.323-0.39-0.484-0.58h-0.194l-0.677-.78c-0.129-.1-0.258-0.2-0.387-0.29v-0.2l-0.581-.48c-0.032-.1-0.065-0.2-0.1-0.3-0.1-.06-0.194-0.13-0.29-0.19v-0.2l-0.194-.09v-0.2c-0.1-.06-0.194-0.13-0.29-0.19v-0.2a1.7,1.7,0,0,1-.194-0.1c-0.032-.13-0.065-0.26-0.1-0.39l-0.193-.09c-0.033-.13-0.065-0.26-0.1-0.39a1.788,1.788,0,0,0-.194-0.1c-0.064-.2-0.129-0.39-0.193-0.59h-0.1v-0.19h-0.1c-0.065-.2-0.129-0.39-0.194-0.59h-0.1v-0.29h-0.1v-0.19h-0.1v-0.3h-0.1v-0.19h-0.1c-0.1-.42-0.193-0.85-0.29-1.27h-0.1v-0.29h-0.1v-0.39c-0.152-.47-0.247-1.16-0.387-1.66v-0.97h-0.1a9.23,9.23,0,0,1,.1-2.44q0.048-.78.1-1.56h0.1c0.032-.32.064-0.65,0.1-0.97h0.1q0.049-.39.1-0.78h0.1v-0.29h0.1v-0.3h0.1v-0.29h0.1v-0.29h0.1v-0.2h0.1v-0.29h0.1v-0.19h0.1v-0.29h0.1c0.065-.2.129-0.4,0.194-0.59h0.1v-0.19h0.1c0.064-.2.129-0.39,0.193-0.59a1.788,1.788,0,0,0,.194-0.1c0.032-.13.064-0.26,0.1-0.39l0.193-.09c0.032-.13.065-0.26,0.1-0.39a1.7,1.7,0,0,1,.194-0.1v-0.2c0.1-.06.193-0.13,0.29-0.19v-0.2l0.194-.09v-0.2c0.1-.06.193-0.13,0.29-0.19,0.032-.1.065-0.2,0.1-0.3l0.581-.48v-0.2c0.258-.23.516-0.45,0.774-0.68l0.29-.39h0.194c0.161-.2.323-0.39,0.484-0.58h0.194c0.1-.14.193-0.26,0.29-0.39h0.194c0.032-.07.064-0.13,0.1-0.2h0.194c0.065-.1.129-0.19,0.194-0.29h0.193c0.032-.07.065-0.13,0.1-0.2l0.387-.09c0.033-.07.065-0.13,0.1-0.2,0.129-.03.258-0.06,0.387-0.1,0.032-.06.065-0.13,0.1-0.19,0.129-.03.258-0.07,0.387-0.1a1.881,1.881,0,0,0-.387-0.68v-0.2l-0.194-.09v-0.2a1.775,1.775,0,0,1-.193-0.1c-0.033-.13-0.065-0.26-0.1-0.39L318.8,2094v-0.2a1.775,1.775,0,0,1-.193-0.1c-0.032-.13-0.065-0.26-0.1-0.39l-0.194-.09-0.1-.39h-0.1c-0.032-.1-0.065-0.2-0.1-0.3l-0.194-.09-0.1-.39h-0.1c-0.032-.1-0.065-0.2-0.1-0.29a1.788,1.788,0,0,0-.194-0.1v-0.2h-0.1v-0.19c-0.065-.03-0.129-0.07-0.194-0.1-0.032-.13-0.065-0.26-0.1-0.39h-0.1c-0.032-.1-0.064-0.19-0.1-0.29-0.065-.03-0.129-0.07-0.194-0.1-0.032-.13-0.065-0.26-0.1-0.39h-0.1c-0.032-.1-0.064-0.19-0.1-0.29-0.065-.03-0.129-0.07-0.194-0.1-0.032-.13-0.065-0.26-0.1-0.39h-0.1c-0.032-.1-0.064-0.19-0.1-0.29-0.065-.03-0.13-0.07-0.194-0.1v-0.19h-0.1v-0.2a1.775,1.775,0,0,1-.193-0.1c-0.033-.13-0.065-0.26-0.1-0.39l-0.194-.09v-0.2a1.775,1.775,0,0,1-.193-0.1c-0.033-.13-0.065-0.26-0.1-0.39h-0.1c-0.032-.09-0.065-0.19-0.1-0.29a1.775,1.775,0,0,1-.193-0.1v-0.19h-0.1v-0.19a1.788,1.788,0,0,0-.194-0.1c-0.032-.13-0.064-0.26-0.1-0.39-0.064-.03-0.129-0.07-0.193-0.1v-0.19a1.788,1.788,0,0,0-.194-0.1c-0.032-.13-0.064-0.26-0.1-0.39h-0.1c-0.033-.1-0.065-0.2-0.1-0.3l-0.194-.09v-0.2h-0.1v-0.19c-0.064-.03-0.129-0.07-0.193-0.1-0.032-.13-0.065-0.26-0.1-0.39a1.788,1.788,0,0,1-.194-0.1v-0.19c-0.064-.03-0.129-0.07-0.193-0.1-0.033-.13-0.065-0.26-0.1-0.39a1.788,1.788,0,0,1-.194-0.1c-0.032-.32-0.064-0.65-0.1-0.97q2.37-2.445,4.743-4.87a5.074,5.074,0,0,1,1.936-.1,29.329,29.329,0,0,1,5.227.19,2.057,2.057,0,0,1,.29,1.08,0.52,0.52,0,0,0-.193.39c-1.1.5-3.36,0.29-4.937,0.29v0.09a0.974,0.974,0,0,1,.194.39,1.775,1.775,0,0,0,.193.1v0.2h0.1v0.19h0.1c0.032,0.1.064,0.2,0.1,0.29a1.775,1.775,0,0,0,.193.1c0.032,0.13.065,0.26,0.1,0.39,0.065,0.03.129,0.07,0.194,0.1v0.19a1.775,1.775,0,0,0,.193.1c0.032,0.13.065,0.26,0.1,0.39,0.065,0.03.129,0.07,0.194,0.1l0.1,0.39h0.1c0.033,0.1.065,0.19,0.1,0.29,0.064,0.03.129,0.07,0.194,0.1l0.1,0.39a1.788,1.788,0,0,1,.194.1c0.032,0.13.065,0.26,0.1,0.39l0.193,0.09v0.2h0.1C321.828,2083.67,321.861,2083.76,321.893,2083.86Zm5.324-6.82a3.069,3.069,0,0,1,.968.19,1.36,1.36,0,0,1,.291,1.08h-0.1c-0.033.13-.065,0.26-0.1,0.39a2.059,2.059,0,0,1-1.065.29,0.565,0.565,0,0,0-.387-0.2,2.027,2.027,0,0,1-.291-1.07,0.958,0.958,0,0,0,.194-0.39,2.16,2.16,0,0,1,.484-0.19v-0.1Zm-5.614,17.83c0.355-.09.71-0.19,1.064-0.29v-0.1h0.388a9.451,9.451,0,0,1,2.71-.58c-0.258-.49-0.516-0.98-0.774-1.46a1.788,1.788,0,0,0-.194-0.1c-0.032-.13-0.064-0.26-0.1-0.39h-0.1c-0.032-.1-0.064-0.19-0.1-0.29-0.065-.03-0.129-0.07-0.194-0.1v-0.19h-0.1v-0.2a1.775,1.775,0,0,1-.193-0.1c-0.033-.13-0.065-0.26-0.1-0.39l-0.194-.09v-0.2a1.775,1.775,0,0,1-.193-0.1c-0.033-.13-0.065-0.26-0.1-0.39h-0.1c-0.032-.09-0.065-0.19-0.1-0.29a1.775,1.775,0,0,1-.193-0.1v-0.19h-0.1v-0.2l-0.194-.09c-0.032-.13-0.064-0.26-0.1-0.39h-0.1c-0.033-.1-0.065-0.2-0.1-0.3l-0.194-.09v-0.2h-0.1v-0.19a1.775,1.775,0,0,0-.193-0.1c-0.032-.13-0.065-0.26-0.1-0.39h-0.1c-0.032-.1-0.064-0.2-0.1-0.29a1.775,1.775,0,0,0-.193-0.1c-0.032-.13-0.065-0.26-0.1-0.39h-0.1c-0.032-.1-0.064-0.19-0.1-0.29a1.775,1.775,0,0,0-.193-0.1V2086h-0.1v-0.19a1.884,1.884,0,0,1-.194-0.1l-0.1-.39-0.194-.09v-0.2a1.788,1.788,0,0,1-.194-0.1l-0.1-.39h-0.1c-0.032-.09-0.065-0.19-0.1-0.29a1.788,1.788,0,0,1-.194-0.1v-0.19h-0.1v-0.2l-0.194-.09c-0.032-.13-0.065-0.26-0.1-0.39h-0.1l-0.1-.3-0.194-.09v-0.2h-0.1v-0.19a1.775,1.775,0,0,0-.193-0.1c-0.033-.13-0.065-0.26-0.1-0.39-0.065-.03-0.129-0.07-0.194-0.1v-0.19a1.775,1.775,0,0,0-.193-0.1c-0.033-.13-0.065-0.26-0.1-0.39-0.065-.03-0.129-0.07-0.194-0.1-0.032-.13-0.064-0.26-0.1-0.39a1.775,1.775,0,0,1-.193-0.1v-0.19c-0.065-.03-0.129-0.07-0.194-0.1-0.032-.13-0.064-0.26-0.1-0.39l-0.193-.09c-0.032-.1-0.065-0.2-0.1-0.3h-0.1v0.1a2.956,2.956,0,0,0-.581.58l-1.452,1.47a1.622,1.622,0,0,0-.774.97,0.939,0.939,0,0,1,.194.39c0.064,0.03.129,0.07,0.193,0.1,0.032,0.1.065,0.19,0.1,0.29h0.1c0.032,0.13.064,0.26,0.1,0.39,0.064,0.03.129,0.07,0.193,0.1v0.19a1.788,1.788,0,0,0,.194.1v0.2h0.1v0.19c0.064,0.03.129,0.07,0.193,0.1,0.032,0.13.065,0.26,0.1,0.39h0.1c0.032,0.1.064,0.19,0.1,0.29,0.064,0.03.129,0.07,0.193,0.1,0.032,0.13.065,0.26,0.1,0.39h0.1c0.032,0.09.064,0.19,0.1,0.29a1.775,1.775,0,0,1,.193.1c0.032,0.13.065,0.26,0.1,0.39h0.1c0.032,0.09.064,0.19,0.1,0.29a1.775,1.775,0,0,1,.193.1v0.19h0.1v0.2l0.194,0.09,0.1,0.39a1.788,1.788,0,0,0,.194.1v0.2l0.194,0.09,0.1,0.39h0.1c0.032,0.1.065,0.2,0.1,0.3l0.194,0.09,0.1,0.39a1.788,1.788,0,0,0,.194.1c0.032,0.13.065,0.26,0.1,0.39h0.1c0.032,0.1.064,0.2,0.1,0.29a1.884,1.884,0,0,0,.194.1c0.032,0.13.064,0.26,0.1,0.39,0.064,0.03.129,0.07,0.193,0.1v0.19a1.788,1.788,0,0,0,.194.1c0.032,0.13.065,0.26,0.1,0.39h0.1c0.032,0.1.064,0.2,0.1,0.29,0.065,0.03.129,0.07,0.194,0.1,0.032,0.13.065,0.26,0.1,0.39a1.775,1.775,0,0,1,.193.1c0.033,0.13.065,0.26,0.1,0.39h0.1c0.032,0.09.065,0.19,0.1,0.29a1.775,1.775,0,0,1,.193.1c0.033,0.13.065,0.26,0.1,0.39A4.249,4.249,0,0,1,321.6,2094.87Zm7.647-.97a8.132,8.132,0,0,1,2.42.49l0.678,0.09v0.1h0.29c0.182,0.07.47,0.22,0.677,0.29v-0.09a2.361,2.361,0,0,0,.485-0.59V2094a1.775,1.775,0,0,1,.193-0.1v-0.2l0.194-.09c0.032-.13.064-0.26,0.1-0.39h0.1c0.033-.1.065-0.2,0.1-0.3l0.194-.09v-0.2h0.1v-0.19a1.884,1.884,0,0,1,.194-0.1c0.032-.13.065-0.26,0.1-0.39h0.1c0.032-.1.064-0.19,0.1-0.29,0.064-.03.129-0.07,0.193-0.1,0.032-.13.065-0.26,0.1-0.39h0.1c0.032-.1.064-0.19,0.1-0.29,0.064-.03.129-0.07,0.193-0.1v-0.19h0.1v-0.2a1.884,1.884,0,0,0,.194-0.1l0.1-.39h0.1c0.032-.09.065-0.19,0.1-0.29a1.788,1.788,0,0,0,.194-0.1l0.1-.39h0.1c0.032-.09.065-0.19,0.1-0.29a1.884,1.884,0,0,0,.194-0.1l0.1-.39h0.1c0.032-.09.065-0.19,0.1-0.29a1.884,1.884,0,0,0,.194-0.1v-0.19h0.1v-0.2l0.194-.09c0.032-.13.065-0.26,0.1-0.39a1.775,1.775,0,0,1,.193-0.1v-0.2l0.194-.09c0.032-.13.065-0.26,0.1-0.39h0.1l0.1-.3,0.194-.09v-0.2h0.1v-0.19c0.064-.03.129-0.07,0.193-0.1,0.033-.13.065-0.26,0.1-0.39a1.788,1.788,0,0,0,.194-0.1v-0.19c0.064-.03.129-0.07,0.193-0.1,0.033-.13.065-0.26,0.1-0.39a1.788,1.788,0,0,0,.194-0.1v-0.19c0.064-.03.129-0.07,0.193-0.1,0.033-.13.065-0.26,0.1-0.39a1.788,1.788,0,0,0,.194-0.1c0.032-.13.064-0.26,0.1-0.39l0.193-.09c0.033-.17.065-0.33,0.1-0.49a6.281,6.281,0,0,1-1.162-1.17l-1.161-1.17a2.166,2.166,0,0,1-.484-0.49,0.168,0.168,0,0,0-.1.1,4.2,4.2,0,0,0-.581.97,1.775,1.775,0,0,1-.193.1c-0.033.13-.065,0.26-0.1,0.39-0.065.03-.129,0.07-0.194,0.1v0.19a1.775,1.775,0,0,1-.193.1c-0.033.13-.065,0.26-0.1,0.39-0.065.03-.129,0.07-0.194,0.1-0.032.13-.064,0.26-0.1,0.39h-0.1c-0.033.1-.065,0.19-0.1,0.29-0.065.03-.129,0.07-0.194,0.1v0.19h-0.1v0.2a1.775,1.775,0,0,0-.193.1c-0.033.13-.065,0.26-0.1,0.39h-0.1c-0.032.09-.064,0.19-0.1,0.29a1.775,1.775,0,0,0-.193.1c-0.033.13-.065,0.26-0.1,0.39h-0.1c-0.032.09-.064,0.19-0.1,0.29l-0.193.09v0.2h-0.1v0.2l-0.194.09-0.1.39h-0.1c-0.033.1-.065,0.2-0.1,0.29a1.788,1.788,0,0,1-.194.1v0.2h-0.1v0.19c-0.065.03-.13,0.07-0.194,0.1-0.032.13-.065,0.26-0.1,0.39h-0.1c-0.032.1-.064,0.19-0.1,0.29-0.064.03-.129,0.07-0.193,0.1v0.19h-0.1v0.2a1.884,1.884,0,0,0-.194.1l-0.1.39-0.194.09v0.2a1.775,1.775,0,0,0-.193.1c-0.033.13-.065,0.26-0.1,0.39h-0.1c-0.032.09-.065,0.19-0.1,0.29a1.775,1.775,0,0,0-.193.1v0.19h-0.1v0.2l-0.194.09c-0.032.13-.064,0.26-0.1,0.39a1.775,1.775,0,0,1-.193.1v0.2l-0.194.09c-0.032.13-.064,0.26-0.1,0.39h-0.1c-0.033.1-.065,0.2-0.1,0.3l-0.194.09v0.2h-0.1v0.19c-0.064.03-.129,0.07-0.193,0.1-0.033.13-.065,0.26-0.1,0.39a1.788,1.788,0,0,0-.194.1C329.766,2092.92,329.508,2093.41,329.25,2093.9Zm-6.1-8.09,4.26,7.02c0.194-.06.083,0.01,0.193-0.1a0.864,0.864,0,0,0,.194-0.39,1.775,1.775,0,0,0,.193-0.1v-0.19h0.1v-0.2l0.194-.09v-0.2c0.064-.03.129-0.07,0.194-0.1l0.1-.39h0.1c0.032-.09.065-0.19,0.1-0.29a1.884,1.884,0,0,0,.194-0.1l0.1-.39,0.194-.09c0.032-.13.064-0.26,0.1-0.39a1.775,1.775,0,0,1,.193-0.1v-0.2l0.194-.09c0.032-.13.064-0.26,0.1-0.39h0.1c0.033-.1.065-0.2,0.1-0.3l0.194-.09v-0.2h0.1v-0.19a1.775,1.775,0,0,1,.193-0.1c0.033-.13.065-0.26,0.1-0.39h0.1c0.032-.1.064-0.2,0.1-0.29a1.775,1.775,0,0,1,.193-0.1c0.033-.13.065-0.26,0.1-0.39,0.065-.03.129-0.07,0.194-0.1l0.1-.39,0.194-.09v-0.2a1.788,1.788,0,0,0,.194-0.1c0.032-.1.064-0.19,0.1-0.29h-8.713Zm-6,14.23a2.648,2.648,0,0,1-.678.88l-0.193.09v0.2c-0.129.1-.259,0.19-0.388,0.29v0.2l-0.193.09v0.2c-0.1.06-.194,0.13-0.291,0.19l-0.1.39a1.788,1.788,0,0,1-.194.1c-0.032.1-.065,0.2-0.1,0.29h-0.1v0.2h-0.1v0.19h-0.1v0.2h-0.1v0.19h-0.1v0.2h-0.1v0.19h-0.1c-0.065.2-.13,0.39-0.194,0.59h-0.1v0.29h-0.1v0.19h-0.1c-0.065.3-.13,0.59-0.194,0.88h-0.1v0.39h-0.1v0.39h-0.1v0.39h-0.1v0.49h-0.1v0.58h-0.1v0.88a10.438,10.438,0,0,0,.387,4.68v0.39h0.1v0.39h0.1v0.29h0.1v0.29h0.1v0.2h0.1c0.033,0.19.065,0.39,0.1,0.58h0.1c0.064,0.2.129,0.39,0.194,0.59h0.1v0.19h0.1v0.2h0.1v0.19h0.1v0.2h0.1v0.19h0.1v0.2h0.1c0.032,0.09.065,0.19,0.1,0.29a1.788,1.788,0,0,1,.194.1l0.1,0.39c0.1,0.06.194,0.13,0.291,0.19v0.2l0.193,0.09v0.2c0.129,0.1.259,0.19,0.388,0.29v0.2l0.968,0.87c0.322,0.36.645,0.72,0.968,1.07h0.193l0.194,0.3H318.8c0.065,0.1.13,0.19,0.194,0.29,0.1,0.03.194,0.06,0.29,0.1,0.033,0.06.065,0.13,0.1,0.19h0.194v0.1h0.193c0.033,0.07.065,0.13,0.1,0.19,0.129,0.04.258,0.07,0.387,0.1,0.033,0.07.065,0.13,0.1,0.2,0.194,0.06.387,0.13,0.581,0.19v0.1h0.194v0.1h0.193v0.09c0.194,0.07.387,0.13,0.581,0.2v0.1l0.581,0.09v0.1h0.193v0.1h0.291v0.1h0.29v0.09h0.387v0.1h0.388v0.1h0.387v0.1h0.484v0.09c0.484,0.04.968,0.07,1.452,0.1a7.369,7.369,0,0,0,2.323.1v-0.1c0.484-.03.968-0.06,1.452-0.1v-0.09h0.484v-0.1h0.387v-0.1h0.387v-0.1h0.388v-0.09h0.29v-0.1h0.291v-0.1h0.193v-0.1l0.581-.09v-0.1c0.193-.07.387-0.13,0.581-0.2v-0.09H333.9v-0.1h0.194v-0.1h0.194v-0.1h0.193v-0.09h0.194v-0.1h0.193v-0.1c0.1-.03.194-0.06,0.291-0.1,0.032-.06.064-0.12,0.1-0.19,0.129-.03.258-0.07,0.387-0.1,0.064-.09.129-0.19,0.193-0.29h0.194c0.032-.06.064-0.13,0.1-0.19h0.193c0.1-.13.194-0.26,0.291-0.4H336.8l0.775-.87h0.193c0.033-.1.065-0.2,0.1-0.29l0.871-.78v-0.2c0.129-.1.258-0.19,0.388-0.29v-0.2l0.193-.09v-0.2c0.1-.06.194-0.13,0.291-0.19l0.1-.39a1.788,1.788,0,0,1,.194-0.1c0.032-.1.065-0.2,0.1-0.29h0.1v-0.2h0.1v-0.19h0.1v-0.2h0.1V2117h0.1v-0.2h0.1v-0.19h0.1c0.065-.2.13-0.39,0.194-0.59h0.1c0.032-.19.064-0.39,0.1-0.58h0.1v-0.2h0.1v-0.29h0.1v-0.29h0.1v-0.39h0.1v-0.39a13.123,13.123,0,0,0,0-7.02q-0.049-.39-0.1-0.78h-0.1c-0.032-.19-0.065-0.39-0.1-0.58h-0.1v-0.2h-0.1v-0.29h-0.1v-0.29h-0.1c-0.064-.2-0.129-0.39-0.194-0.59h-0.1v-0.19h-0.1v-0.2h-0.1v-0.19h-0.1c-0.064-.2-0.129-0.39-0.193-0.59H340c-0.032-.09-0.065-0.19-0.1-0.29a1.788,1.788,0,0,1-.194-0.1l-0.1-.39c-0.1-.06-0.194-0.13-0.291-0.19v-0.2l-0.193-.09v-0.2c-0.1-.06-0.194-0.13-0.291-0.19-0.032-.1-0.064-0.2-0.1-0.3l-0.193-.09a3.248,3.248,0,0,1-.775-0.98,2.522,2.522,0,0,1-.871-0.68v-0.1c-0.1-.03-0.194-0.06-0.29-0.1l-0.291-.39h-0.193c-0.033-.06-0.065-0.13-0.1-0.19h-0.194c-0.064-.1-0.129-0.2-0.193-0.29-0.129-.04-0.258-0.07-0.387-0.1-0.033-.07-0.065-0.13-0.1-0.2l-0.291-.09v-0.1c-0.193-.07-0.387-0.13-0.58-0.19v-0.1H334.09v-0.1H333.9v-0.1H333.7v-0.09c-0.194-.07-0.388-0.13-0.581-0.2v-0.1l-0.581-.09v-0.1h-0.193v-0.1h-0.291v-0.1h-0.29v-0.09h-0.388v-0.1h-0.387v-0.1h-0.387v-0.1c-0.645-.06-1.291-0.13-1.936-0.19v-0.1c-1.065.03-2.13,0.07-3.194,0.1v0.1h-0.581v0.09H324.41v0.1h-0.387v0.1h-0.388v0.1h-0.387v0.09c-0.29.07-.581,0.13-0.871,0.2v0.1h-0.194v0.09h-0.29v0.1c-0.194.07-.387,0.13-0.581,0.2v0.09h-0.193v0.1h-0.194v0.1c-0.194.06-.387,0.13-0.581,0.19-0.032.07-.064,0.13-0.1,0.2l-0.387.09c-0.032.07-.064,0.13-0.1,0.2-0.129.03-.258,0.06-0.387,0.1-0.064.09-.129,0.19-0.193,0.29h-0.194c-0.032.06-.064,0.13-0.1,0.19H318.7l-0.291.39h-0.193c-0.033.07-.065,0.13-0.1,0.2h-0.1A2.165,2.165,0,0,1,317.15,2100.04Zm9.293-1.95a11.946,11.946,0,0,1,6.872,1.56c0.194,0.06.388,0.13,0.581,0.19v0.1c0.1,0.03.194,0.07,0.291,0.1,0.032,0.06.064,0.13,0.1,0.19h0.193c0.032,0.07.065,0.13,0.1,0.2h0.193l0.291,0.39h0.194c0.161,0.19.322,0.39,0.484,0.58h0.193c0.032,0.07.065,0.13,0.1,0.2,0.129,0.1.258,0.19,0.387,0.29v0.2l0.581,0.48c0.032,0.1.064,0.2,0.1,0.3,0.1,0.06.193,0.13,0.29,0.19v0.19a1.788,1.788,0,0,0,.194.1c0.032,0.1.064,0.2,0.1,0.3h0.1v0.19c0.065,0.03.129,0.07,0.194,0.1,0.065,0.19.129,0.39,0.194,0.58,0.064,0.03.129,0.07,0.193,0.1v0.19h0.1v0.2h0.1v0.29h0.1l0.1,0.39h0.1v0.29h0.1v0.2h0.1c0.064,0.32.129,0.65,0.193,0.97a9.827,9.827,0,0,1,.484,3.12v1.17h-0.1c-0.033.46-.065,0.91-0.1,1.37h-0.1v0.39h-0.1v0.39h-0.1v0.39h-0.1v0.29h-0.1v0.29h-0.1v0.2h-0.1v0.29h-0.1l-0.1.39h-0.1v0.29h-0.1v0.19h-0.1v0.2a1.775,1.775,0,0,0-.193.1c-0.065.19-.129,0.39-0.194,0.58-0.065.03-.129,0.07-0.194,0.1v0.19h-0.1c-0.033.1-.065,0.2-0.1,0.3l-0.194.09v0.2c-0.129.1-.258,0.19-0.387,0.29v0.2l-0.581.48v0.2a1.775,1.775,0,0,0-.193.1l-0.291.39h-0.193c-0.162.19-.323,0.39-0.484,0.58-0.1.03-.194,0.07-0.291,0.1-0.064.1-.129,0.19-0.194,0.29h-0.193c-0.032.07-.065,0.13-0.1,0.2l-0.29.09v0.1h-0.194c-0.032.07-.064,0.13-0.1,0.2-0.193.06-.387,0.13-0.581,0.19-0.032.06-.064,0.13-0.1,0.2-0.291.09-.581,0.19-0.871,0.29v0.09h-0.194v0.1c-0.161.04-.323,0.07-0.484,0.1v0.1h-0.291v0.1h-0.29v0.09c-0.226.04-.452,0.07-0.677,0.1v0.1h-0.485v0.1h-0.58v0.09h-0.775v0.1a6.442,6.442,0,0,1-2.129-.1l-1.355-.09v-0.1H324.7v-0.1h-0.387v-0.1h-0.387v-0.09h-0.291v-0.1h-0.29v-0.1h-0.194v-0.1h-0.29v-0.1l-0.387-.09v-0.1h-0.291v-0.1H321.99v-0.09H321.8c-0.032-.07-0.064-0.14-0.1-0.2-0.193-.06-0.387-0.13-0.58-0.19v-0.1c-0.1-.03-0.194-0.07-0.291-0.1-0.032-.06-0.064-0.13-0.1-0.19h-0.193c-0.032-.07-0.065-0.13-0.1-0.2h-0.194l-0.29-.39h-0.194c-0.193-.23-0.387-0.45-0.58-0.68h-0.194c-0.032-.07-0.064-0.13-0.1-0.2-0.1-.06-0.193-0.13-0.29-0.19v-0.2l-0.581-.48v-0.2c-0.129-.1-0.258-0.19-0.387-0.29v-0.2l-0.194-.09c-0.032-.1-0.064-0.2-0.1-0.3h-0.1v-0.19c-0.065-.03-0.129-0.07-0.194-0.1-0.065-.19-0.129-0.39-0.194-0.58a1.775,1.775,0,0,0-.193-0.1v-0.2h-0.1c-0.032-.12-0.065-0.26-0.1-0.38h-0.1v-0.3h-0.1v-0.19h-0.1v-0.29h-0.1v-0.2h-0.1c-0.032-.19-0.064-0.39-0.1-0.58h-0.1v-0.39a9.855,9.855,0,0,1-.291-5.07v-0.59h0.1v-0.39h0.1v-0.39h0.1v-0.39h0.1v-0.29h0.1v-0.29h0.1v-0.2h0.1v-0.29h0.1v-0.19h0.1v-0.3h0.1c0.032-.12.065-0.26,0.1-0.39h0.1c0.032-.13.064-0.26,0.1-0.39l0.193-.09c0.032-.13.065-0.26,0.1-0.39,0.065-.03.129-0.07,0.194-0.1v-0.19h0.1c0.033-.1.065-0.2,0.1-0.3a1.788,1.788,0,0,0,.194-0.1v-0.19c0.129-.1.258-0.19,0.387-0.29v-0.2l0.581-.48v-0.2c0.1-.06.193-0.13,0.29-0.19,0.033-.07.065-0.13,0.1-0.2h0.194c0.193-.23.387-0.45,0.58-0.68h0.194l0.29-.39h0.194c0.032-.07.065-0.13,0.1-0.2l0.29-.09v-0.1h0.194c0.032-.07.064-0.13,0.1-0.2l0.387-.09c0.032-.07.064-0.13,0.1-0.2,0.129-.03.258-0.06,0.387-0.1v-0.09c0.129-.04.258-0.07,0.387-0.1v-0.1h0.29v-0.1h0.194v-0.09c0.161-.04.323-0.07,0.484-0.1v-0.1h0.29v-0.1h0.291v-0.09h0.387v-0.1H324.7v-0.1h0.388v-0.1A5.324,5.324,0,0,0,326.443,2098.09Zm0.1,1.95a4.655,4.655,0,0,1-1.258.19v0.1h-0.387v0.1h-0.387v0.1h-0.291v0.09h-0.29v0.1h-0.194v0.1h-0.29v0.1c-0.194.06-.387,0.13-0.581,0.19v0.1c-0.129.03-.258,0.06-0.387,0.1-0.032.06-.065,0.13-0.1,0.19-0.129.03-.258,0.07-0.387,0.1v0.1l-0.291.09c-0.032.07-.064,0.13-0.1,0.2h-0.194l-0.29.39a10.217,10.217,0,0,0-3.292,4.38v0.3h-0.1v0.29h-0.1v0.39h-0.1v0.39h-0.1v0.49h-0.1v0.78a7.3,7.3,0,0,0,.291,3.6v0.39h0.1c0.032,0.2.064,0.39,0.1,0.59h0.1v0.19h0.1v0.29h0.1c0.064,0.2.129,0.39,0.193,0.59h0.1c0.032,0.13.065,0.26,0.1,0.39a1.788,1.788,0,0,1,.194.1c0.032,0.12.064,0.26,0.1,0.38a1.884,1.884,0,0,0,.194.1v0.2l0.194,0.09v0.2c0.129,0.1.258,0.19,0.387,0.29v0.2l0.871,0.78c0.161,0.19.323,0.39,0.484,0.58h0.194c0.064,0.1.129,0.2,0.193,0.29h0.194l0.193,0.3h0.194c0.032,0.06.065,0.13,0.1,0.19,0.129,0.03.258,0.07,0.387,0.1,0.032,0.06.065,0.13,0.1,0.19,0.129,0.04.258,0.07,0.387,0.1v0.1c0.194,0.06.387,0.13,0.581,0.19v0.1h0.29v0.1h0.194v0.1h0.29v0.09h0.291v0.1h0.387v0.1h0.387v0.1h0.484v0.09h0.774a5.558,5.558,0,0,0,1.937.1v-0.1h0.774v-0.09h0.484v-0.1h0.387v-0.1h0.291v-0.1l0.677-.09a10.256,10.256,0,0,0,4.356-3.32c0.129-.1.258-0.19,0.387-0.29v-0.2l0.194-.09c0.032-.1.064-0.2,0.1-0.3h0.1c0.032-.12.064-0.26,0.1-0.38a1.788,1.788,0,0,1,.194-0.1c0.032-.13.065-0.26,0.1-0.39h0.1c0.064-.2.129-0.39,0.193-0.59h0.1l0.678-2.34v-0.78a7.415,7.415,0,0,0-.291-3.6v-0.39h-0.1c-0.032-.2-0.064-0.39-0.1-0.59h-0.1v-0.19h-0.1v-0.29h-0.1c-0.064-.2-0.129-0.39-0.193-0.59h-0.1c-0.032-.13-0.065-0.26-0.1-0.39a1.788,1.788,0,0,1-.194-0.1c-0.032-.12-0.064-0.26-0.1-0.39h-0.1c-0.033-.09-0.065-0.19-0.1-0.29a1.788,1.788,0,0,1-.194-0.1v-0.19c-0.129-.1-0.258-0.19-0.387-0.29a10.046,10.046,0,0,0-4.937-3.51h-0.387A11.1,11.1,0,0,0,326.539,2100.04Zm0.581,3.9H327.9a5.854,5.854,0,0,0,.677.29l0.291,0.39h0.1c0.064,0.19.129,0.39,0.193,0.58h0.1c0.032,0.13.064,0.26,0.1,0.39,0.212,0.41.478,0.84,0.677,1.27l2.517,0.39v0.1h0.194v0.1h0.193v0.09l0.484,0.39a0.916,0.916,0,0,0,.194.39v0.49h0.1v0.1h-0.1v0.58h-0.1v0.2h-0.1v0.19a1.775,1.775,0,0,1-.193.1v0.2c-0.129.09-.258,0.19-0.388,0.29-0.032.06-.064,0.13-0.1,0.19h-0.194c-0.29.33-.581,0.65-0.871,0.98h-0.1v0.29a3.494,3.494,0,0,1,.194,1.17h0.1v0.49h0.1a2.225,2.225,0,0,1-.581,1.95h-0.193v0.09a1.624,1.624,0,0,0-.29.2l-0.872.09c-0.516-.22-1.032-0.45-1.548-0.68a5.946,5.946,0,0,0-1.065-.58v0.1l-0.291.09v0.1h-0.193v0.1h-0.194v0.1h-0.194v0.09h-0.193a3.523,3.523,0,0,1-1.839.68v-0.09c-0.194-.03-0.388-0.07-0.581-0.1-0.032-.07-0.065-0.13-0.1-0.19a0.675,0.675,0,0,1-.484-0.49c-0.649-.56,0-2.59.1-3.41-0.549-.49-1.1-0.98-1.646-1.46a3.13,3.13,0,0,0-.387-0.69v-0.48a0.189,0.189,0,0,1-.1-0.2h0.1v-0.49h0.1c0.032-.13.064-0.26,0.1-0.39,0.225-.19.451-0.39,0.677-0.58h0.194v-0.1h0.29v-0.1h0.678v-0.09c0.419-.04.839-0.07,1.258-0.1v-0.1h0.291v-0.1a3.171,3.171,0,0,0,.484-0.97h0.1v-0.2h0.1v-0.19h0.1v-0.2h0.1v-0.19h0.1l0.1-.39c0.194-.16.388-0.33,0.581-0.49h0.194v-0.09h0.29v-0.1Zm0.291,2.34-0.678,1.56h-0.1c-0.032.13-.064,0.25-0.1,0.39h-0.1a0.779,0.779,0,0,1-.484.39,2.582,2.582,0,0,1-1.065.19v0.1h-0.678v0.1h-0.677v0.09a3.489,3.489,0,0,1,.677.68,3.779,3.779,0,0,1,1.259,1.47q-0.194,1.215-.387,2.43a3.4,3.4,0,0,0,.967-0.48h0.194v-0.1h0.194V2113h0.193v-0.1h0.194v-0.09h0.194v-0.1h0.193v-0.1H327.8a3.159,3.159,0,0,0,.968.49v0.1h0.194a3.655,3.655,0,0,0,.967.48l-0.387-2.43h0.1c0.032-.17.065-0.33,0.1-0.49,0.581-.55,1.162-1.1,1.742-1.66v-0.09H330.8a4.5,4.5,0,0,0-1.356-.2v-0.1l-0.58-.09-0.291-.39h-0.1c-0.065-.2-0.13-0.39-0.194-0.59a5.371,5.371,0,0,1-.678-1.36h-0.193Z" transform="translate(-311 -2077)"/>
</svg>
