<svg id="_3" data-name="3" xmlns="http://www.w3.org/2000/svg" width="55" height="50" viewBox="0 0 55 50">
  <defs>
    <style>
      .cls-1, .cls-2 {
        fill: #4ca6b4;
      }

      .cls-1 {
        opacity: 0.08;
      }

      .cls-2 {
        fill-rule: evenodd;
      }
    </style>
  </defs>
  <circle id="Эллипс_3_копия_2" data-name="Эллипс 3 копия 2" class="cls-1" cx="30" cy="25" r="25"/>
  <path id="Фигура_16" data-name="Фигура 16" class="cls-2" d="M957.394,2083.48v2.93c0.487,0.09.974,0.19,1.461,0.29v0.1h0.389v0.09h0.292v0.1h0.292v0.1h0.39v0.1h0.194v0.09c0.195,0.04.39,0.07,0.584,0.1v0.1h0.2v0.1h0.292v0.09c0.2,0.07.39,0.13,0.584,0.2v0.09h0.195v0.1h0.292c0.033,0.07.065,0.13,0.1,0.2h0.2v0.09h0.2v0.1h0.195v0.1h0.194v0.1h0.2c0.033,0.06.065,0.13,0.1,0.19,0.2,0.07.39,0.13,0.585,0.2,0.032,0.06.065,0.13,0.1,0.19h0.2c0.032,0.07.065,0.13,0.1,0.2h0.195v0.09a0.685,0.685,0,0,0,.389.1,5.456,5.456,0,0,1,1.071-1.07c0.793-.79,1.9-2.44,3.7-1.85h0.389v0.1c0.195,0.06.39,0.13,0.584,0.19v0.1h0.2c0.065,0.1.13,0.19,0.195,0.29l0.487,0.39c0.032,0.13.064,0.26,0.1,0.39h0.1c0.033,0.13.065,0.26,0.1,0.39h0.1q0.048,0.78.1,1.56h-0.1v0.29h-0.1v0.29a7.069,7.069,0,0,1-1.753,1.95,5.22,5.22,0,0,1-.973.98l0.194,0.39,0.2,0.09v0.2c0.1,0.06.2,0.13,0.292,0.19v0.2a1.8,1.8,0,0,1,.195.1c0.032,0.09.065,0.19,0.1,0.29h0.1v0.19a1.7,1.7,0,0,0,.194.1v0.2l0.2,0.09c0.032,0.13.065,0.26,0.1,0.39a1.8,1.8,0,0,0,.2.1v0.2h0.1v0.19h0.1v0.2h0.1v0.19h0.1v0.19a1.7,1.7,0,0,0,.194.1v0.2h0.1v0.29H972v0.19h0.1c0.065,0.2.13,0.39,0.195,0.59h0.1v0.29h0.1v0.2h0.1c0.032,0.19.065,0.39,0.1,0.58h0.1v0.2h0.1v0.39h0.1v0.29h0.1v0.29h0.1v0.29h0.1v0.39h0.1v0.39h0.1v0.49h0.1v0.49h0.1v0.58h0.1v0.68h0.1v1.08h0.1a10.7,10.7,0,0,1-.1,2.72v0.88a7.182,7.182,0,0,1-.195.88v0.58h-0.1l-0.1.98h-0.1v0.39h-0.1c-0.033.22-.065,0.45-0.1,0.68h-0.1v0.29h-0.1v0.29h-0.1v0.3h-0.1c-0.033.19-.065,0.39-0.1,0.58h-0.1v0.2h-0.1c-0.033.19-.065,0.39-0.1,0.58h-0.1c-0.065.2-.13,0.39-0.195,0.59H972v0.19h-0.1v0.2h-0.1v0.19h-0.1v0.19h-0.1v0.2h-0.1v0.19h-0.1v0.2h-0.1v0.19a1.788,1.788,0,0,1-.194.1c-0.033.13-.065,0.26-0.1,0.39-0.065.03-.129,0.07-0.194,0.1-0.033.13-.065,0.26-0.1,0.39h-0.1c-0.033.1-.065,0.19-0.1,0.29-0.065.03-.13,0.07-0.2,0.1v0.19a1.8,1.8,0,0,1-.195.1c-0.032.1-.065,0.2-0.1,0.29-0.1.07-.2,0.13-0.292,0.2v0.19a1.8,1.8,0,0,1-.2.1c-0.032.1-.065,0.2-0.1,0.29l-0.487.39v0.2c-0.2.16-.39,0.32-0.584,0.49-0.487.51-.974,1.03-1.461,1.55h-0.194c-0.13.17-.26,0.33-0.39,0.49h-0.2c-0.032.07-.064,0.13-0.1,0.2h-0.1c-0.033.06-.065,0.13-0.1,0.19H965.67c-0.033.07-.065,0.13-0.1,0.2h-0.194c-0.065.09-.13,0.19-0.2,0.29h-0.195c-0.032.06-.065,0.13-0.1,0.19-0.1.04-.195,0.07-0.292,0.1v0.1c-0.13.03-.26,0.06-0.39,0.1-0.032.06-.065,0.13-0.1,0.19-0.13.03-.26,0.07-0.39,0.1-0.032.06-.064,0.13-0.1,0.19h-0.2v0.1h-0.194v0.1h-0.195v0.1h-0.2v0.09h-0.2v0.1h-0.194v0.1h-0.2v0.09h-0.195v0.1c-0.194.07-.389,0.13-0.584,0.2v0.09h-0.292v0.1H961v0.1c-0.194.03-.389,0.06-0.584,0.1v0.1h-0.194v0.09h-0.293v0.1h-0.389v0.1h-0.292v0.09h-0.292v0.1h-0.389v0.1h-0.39v0.1h-0.487v0.09H957.2v0.1h-0.585v0.1c-0.584.03-1.168,0.06-1.752,0.1v0.09a10.625,10.625,0,0,1-2.726-.09h-1.071v-0.1h-0.682v-0.1H949.8v-0.1h-0.486v-0.09h-0.39v-0.1h-0.487v-0.1c-0.227-.03-0.454-0.06-0.681-0.1v-0.09h-0.292v-0.1h-0.292v-0.1h-0.293v-0.09c-0.194-.04-0.389-0.07-0.584-0.1v-0.1H946.1v-0.1c-0.2-.03-0.39-0.06-0.585-0.1v-0.09c-0.194-.07-0.389-0.13-0.584-0.2v-0.1h-0.194v-0.09h-0.2v-0.1h-0.2v-0.1h-0.195v-0.09h-0.194v-0.1h-0.195v-0.1h-0.2v-0.1h-0.194c-0.033-.06-0.065-0.13-0.1-0.19-0.13-.03-0.259-0.07-0.389-0.1-0.033-.06-0.065-0.13-0.1-0.19-0.129-.04-0.259-0.07-0.389-0.1-0.032-.07-0.065-0.13-0.1-0.2h-0.195c-0.033-.06-0.065-0.13-0.1-0.19h-0.195c-0.065-.1-0.13-0.2-0.2-0.29h-0.195l-0.194-.3h-0.195c-0.032-.06-0.065-0.13-0.1-0.19-0.1-.03-0.2-0.07-0.292-0.1-0.13-.16-0.26-0.32-0.39-0.49h-0.2c-0.162-.19-0.324-0.39-0.486-0.58-0.52-.49-1.039-0.97-1.558-1.46v-0.2l-0.487-.39v-0.19c-0.1-.07-0.2-0.13-0.292-0.2v-0.19c-0.1-.07-0.195-0.13-0.292-0.2v-0.19c-0.1-.07-0.195-0.13-0.292-0.2v-0.19c-0.065-.03-0.13-0.07-0.2-0.1-0.032-.1-0.065-0.19-0.1-0.29h-0.1c-0.032-.13-0.064-0.26-0.1-0.39-0.065-.03-0.13-0.07-0.195-0.1-0.032-.13-0.065-0.26-0.1-0.39a1.8,1.8,0,0,1-.2-0.1v-0.19h-0.1v-0.2h-0.1v-0.19h-0.1v-0.2h-0.1v-0.19h-0.1v-0.19h-0.1v-0.2H935v-0.19h-0.1c-0.065-.2-0.129-0.39-0.194-0.59h-0.1v-0.29h-0.1v-0.2h-0.1v-0.29h-0.1v-0.29h-0.1v-0.29h-0.1v-0.3h-0.1v-0.29h-0.1v-0.29h-0.1v-0.29h-0.1v-0.39h-0.1v-0.39h-0.1v-0.49h-0.1v-0.49h-0.1v-0.58h-0.1c-0.032-.59-0.065-1.17-0.1-1.76h-0.1a10.653,10.653,0,0,1,.1-2.72v-1.08h0.1v-0.68h0.1q0.1-.78.194-1.56c0.357-1.1.714-2.21,1.071-3.31h0.1c0.065-.2.129-0.39,0.194-0.59H935v-0.19h0.1v-0.29h0.1v-0.2h0.1v-0.19a1.8,1.8,0,0,1,.2-0.1v-0.19h0.1v-0.2h0.1v-0.19h0.1v-0.2a1.788,1.788,0,0,0,.194-0.1c0.033-.13.065-0.26,0.1-0.39h0.1c0.033-.09.065-0.19,0.1-0.29a1.8,1.8,0,0,0,.195-0.1v-0.19h0.1c0.032-.1.064-0.2,0.1-0.29a1.8,1.8,0,0,1,.195-0.1v-0.2l0.194-.09c0.033-.1.065-0.2,0.1-0.3h0.1a0.765,0.765,0,0,0,.2-0.39,2.464,2.464,0,0,0-.876-0.97c-0.52-.55-1.039-1.1-1.558-1.66-0.033-.13-0.065-0.26-0.1-0.39h-0.1v-0.19h-0.1v-0.39a2.569,2.569,0,0,1-.1-1.17h0.1v-0.39h0.1c0.065-.2.13-0.39,0.195-0.59h0.1v-0.19c0.1-.07.195-0.13,0.292-0.19,0.13-.17.26-0.33,0.39-0.49,0.194-.07.389-0.13,0.584-0.2v-0.09h0.195v-0.1h0.389v-0.1a2.535,2.535,0,0,1,1.168.1h0.39v0.1H938.7v0.09c0.13,0.04.26,0.07,0.39,0.1,0.616,0.59,1.233,1.17,1.85,1.75a1.908,1.908,0,0,0,1.071.88,2.221,2.221,0,0,1,.876-0.58v-0.1h0.195v-0.1h0.194c0.033-.06.065-0.13,0.1-0.19h0.194v-0.1h0.2v-0.1h0.195v-0.1h0.194v-0.09h0.195c0.033-.07.065-0.13,0.1-0.2h0.292v-0.1h0.194v-0.09c0.195-.07.39-0.13,0.584-0.2v-0.09h0.293v-0.1H946v-0.1c0.292-.06.584-0.13,0.876-0.19a10.11,10.11,0,0,1,2.727-.78v-2.93h-2.24v-0.1l-0.389-.09a3.51,3.51,0,0,1-.292-1.85,6.156,6.156,0,0,1,.389-3.02c1.147-1.82,3.854-1.37,6.718-1.37,1.3,0,3.862-.2,4.771.2v0.09c0.129,0.04.259,0.07,0.389,0.1,0.032,0.07.065,0.13,0.1,0.2h0.2c0.032,0.06.065,0.13,0.1,0.19,0.13,0.1.26,0.2,0.39,0.29v0.2a1.7,1.7,0,0,1,.194.1,5.668,5.668,0,0,1,.39,2.82v1.56h-0.1c-0.033.13-.065,0.26-0.1,0.39-0.1.03-.2,0.07-0.292,0.1v0.09h-0.195v0.1h-2.239Zm-8.762-1.95h9.736v-1.85h-0.1c-0.032-.13-0.065-0.26-0.1-0.39-0.1-.03-0.2-0.06-0.292-0.1v-0.09h-0.195V2079h-2.531a35.055,35.055,0,0,0-6.231.19c-0.032.1-.065,0.2-0.1,0.3h-0.1v0.19h-0.1v1.85Zm2.921,1.95v2.63l2.531-.09h0.779v0.09h0.584v-2.63h-3.894Zm0.584,4.48a3.137,3.137,0,0,1-.974.1v0.1c-0.389.03-.779,0.06-1.168,0.1l-3.116.87v0.1c-0.162.03-.324,0.07-0.486,0.1v0.1l-0.39.09v0.1h-0.292v0.1c-0.2.06-.389,0.13-0.584,0.19v0.1c-0.13.03-.26,0.07-0.389,0.1-0.033.06-.065,0.13-0.1,0.19-0.194.07-.389,0.13-0.584,0.2-0.032.06-.065,0.13-0.1,0.19-0.13.04-.26,0.07-0.39,0.1-0.032.07-.065,0.13-0.1,0.2h-0.195v0.09c-0.1.04-.194,0.07-0.292,0.1-0.032.07-.065,0.13-0.1,0.2h-0.2c-0.032.06-.065,0.13-0.1,0.19-0.1.03-.2,0.07-0.292,0.1l-0.292.39a18.071,18.071,0,0,0-5.842,7.79c-0.032.2-.065,0.39-0.1,0.59h-0.1v0.29h-0.1v0.29h-0.1v0.3h-0.1v0.39h-0.1c-0.033.26-.065,0.52-0.1,0.77h-0.1c-0.032.33-.065,0.65-0.1,0.98h-0.1c-0.033.58-.065,1.17-0.1,1.75H935a9.7,9.7,0,0,0,.1,2.54v0.97h0.1v0.78h0.1v0.49h0.1v0.49h0.1v0.39h0.1c0.032,0.26.065,0.51,0.1,0.77h0.1v0.3h0.1v0.29h0.1v0.29h0.1c0.032,0.2.065,0.39,0.1,0.59h0.1v0.19h0.1v0.29h0.1c0.033,0.13.065,0.26,0.1,0.39h0.1v0.3h0.1c0.065,0.19.13,0.39,0.195,0.58h0.1c0.033,0.13.065,0.26,0.1,0.39,0.065,0.03.13,0.07,0.194,0.1,0.065,0.19.13,0.39,0.2,0.58a1.8,1.8,0,0,0,.195.1v0.19a1.8,1.8,0,0,0,.2.1c0.032,0.13.064,0.26,0.1,0.39,0.065,0.03.13,0.07,0.2,0.1V2117c0.1,0.07.194,0.13,0.292,0.2v0.19a1.884,1.884,0,0,0,.194.1v0.2c0.1,0.06.195,0.13,0.292,0.19,0.033,0.1.065,0.2,0.1,0.29,0.195,0.17.389,0.33,0.584,0.49v0.2l0.974,0.87c0.162,0.2.324,0.39,0.486,0.59h0.2c0.162,0.19.325,0.39,0.487,0.58h0.195c0.064,0.1.129,0.2,0.194,0.29H942.4l0.2,0.3h0.194c0.033,0.06.065,0.13,0.1,0.19h0.195c0.064,0.1.129,0.2,0.194,0.29,0.13,0.04.26,0.07,0.39,0.1,0.032,0.07.065,0.13,0.1,0.2l0.292,0.09v0.1h0.195v0.1h0.2v0.1h0.194v0.09h0.2c0.032,0.07.065,0.13,0.1,0.2h0.195v0.1l0.389,0.09v0.1h0.293v0.1H946v0.1l0.39,0.09v0.1c1.038,0.33,2.077.65,3.115,0.98H950v0.09h0.487v0.1h0.779v0.1h0.973a9.557,9.557,0,0,0,2.531.09v-0.09c0.585-.03,1.169-0.07,1.753-0.1v-0.1l0.974-.09v-0.1c0.259-.04.519-0.07,0.778-0.1v-0.1h0.39v-0.09h0.292v-0.1h0.292v-0.1h0.292v-0.1l0.584-.09v-0.1c0.162-.03.325-0.07,0.487-0.1v-0.1l0.389-.09v-0.1h0.2v-0.1h0.292v-0.1l0.39-.09v-0.1c0.129-.03.259-0.07,0.389-0.1,0.033-.06.065-0.13,0.1-0.19,0.195-.07.39-0.13,0.585-0.2,0.032-.06.065-0.13,0.1-0.19,0.13-.04.26-0.07,0.389-0.1v-0.1c0.1-.03.2-0.06,0.292-0.1,0.033-.06.065-0.13,0.1-0.19h0.195c0.064-.1.129-0.2,0.194-0.29h0.2c0.032-.07.065-0.13,0.1-0.2h0.2c0.065-.1.13-0.19,0.195-0.29,0.1-.03.2-0.07,0.292-0.1,0.162-.19.324-0.39,0.487-0.58h0.194c0.292-.33.585-0.65,0.877-0.98l0.584-.48v-0.2c0.194-.16.389-0.32,0.584-0.49,0.032-.09.065-0.19,0.1-0.29a1.8,1.8,0,0,0,.2-0.1v-0.19c0.1-.07.195-0.13,0.292-0.2,0.033-.09.065-0.19,0.1-0.29a1.8,1.8,0,0,0,.195-0.1v-0.19c0.065-.03.13-0.07,0.2-0.1,0.032-.13.065-0.26,0.1-0.39a1.8,1.8,0,0,0,.2-0.1v-0.19a1.8,1.8,0,0,0,.195-0.1c0.065-.19.129-0.39,0.194-0.58,0.065-.03.13-0.07,0.2-0.1,0.032-.13.065-0.26,0.1-0.39h0.1c0.032-.13.065-0.26,0.1-0.39h0.1v-0.29h0.1v-0.2h0.1c0.033-.13.065-0.26,0.1-0.39h0.1c0.032-.16.065-0.32,0.1-0.48h0.1c0.032-.2.065-0.39,0.1-0.59h0.1v-0.29h0.1v-0.29h0.1v-0.3h0.1v-0.39h0.1c0.032-.26.065-0.51,0.1-0.77h0.1c0.032-.33.064-0.65,0.1-0.98h0.1c0.033-.58.065-1.17,0.1-1.75H972a9.739,9.739,0,0,0-.1-2.54v-1.07h-0.1v-0.58h-0.1v-0.59l-0.876-3.12h-0.1v-0.19h-0.1v-0.29h-0.1c-0.033-.13-0.065-0.26-0.1-0.39h-0.1v-0.3h-0.1c-0.064-.19-0.129-0.39-0.194-0.58h-0.1v-0.2h-0.1c-0.032-.13-0.065-0.26-0.1-0.39l-0.2-.09c-0.032-.13-0.065-0.26-0.1-0.39a1.8,1.8,0,0,0-.195-0.1v-0.19h-0.1v-0.2a1.884,1.884,0,0,1-.194-0.1v-0.19h-0.1c-0.032-.1-0.064-0.2-0.1-0.29a1.8,1.8,0,0,0-.195-0.1v-0.2c-0.1-.06-0.194-0.13-0.292-0.19v-0.2c-0.1-.06-0.194-0.13-0.292-0.19v-0.2l-0.487-.39v-0.19l-0.876-.78c-0.292-.33-0.584-0.65-0.876-0.97h-0.2c-0.13-.17-0.259-0.33-0.389-0.49h-0.195l-0.292-.39c-0.1-.03-0.2-0.07-0.292-0.1-0.032-.06-0.065-0.13-0.1-0.19h-0.2c-0.033-.07-0.065-0.13-0.1-0.2-0.1-.03-0.195-0.06-0.293-0.1v-0.09h-0.194c-0.033-.07-0.065-0.13-0.1-0.2-0.129-.03-0.259-0.06-0.389-0.1-0.032-.06-0.065-0.13-0.1-0.19-0.13-.03-0.26-0.07-0.39-0.1-0.032-.06-0.065-0.13-0.1-0.19-0.13-.04-0.26-0.07-0.39-0.1v-0.1h-0.194v-0.1c-0.2-.06-0.39-0.13-0.585-0.19v-0.1H961v-0.1l-0.389-.09v-0.1h-0.292v-0.1h-0.2v-0.1l-0.584-.09v-0.1h-0.292v-0.1h-0.292v-0.1H958.66v-0.09h-0.39v-0.1h-0.292v-0.1h-0.486v-0.1h-0.487v-0.09h-0.487v-0.1h-0.682A15.586,15.586,0,0,0,952.137,2087.96Zm-14.993.59a1.271,1.271,0,0,0-.487.58h-0.1v0.69a0.9,0.9,0,0,1,.194.39l1.363,1.26a1.365,1.365,0,0,0,.876.68c0.422-.45.844-0.9,1.266-1.36a9.993,9.993,0,0,1-1.558-1.56c-0.129-.1-0.259-0.19-0.389-0.29-0.032-.07-0.065-0.13-0.1-0.2a0.9,0.9,0,0,1-.39-0.19h-0.681Zm32.03,0a0.9,0.9,0,0,1-.389.19c-0.032.07-.065,0.13-0.1,0.2-0.13.1-.26,0.19-0.39,0.29a10.392,10.392,0,0,1-1.557,1.56,0.166,0.166,0,0,0,.1.1,3.617,3.617,0,0,0,1.46,1.26c0.584-.61,1.169-1.23,1.753-1.85l0.194-.09a1.82,1.82,0,0,0,.2-1.08,2.746,2.746,0,0,0-.584-0.58h-0.682Zm-15.966,3.31a3.075,3.075,0,0,1,.973.2,1.326,1.326,0,0,1,.292,1.07h-0.1c-0.032.13-.065,0.26-0.1,0.39a1.988,1.988,0,0,1-1.071.29,0.527,0.527,0,0,0-.39-0.19,2.045,2.045,0,0,1-.292-1.07,1.058,1.058,0,0,0,.2-0.4,3.984,3.984,0,0,1,.487-0.19v-0.1Zm-9.444,6.43a1,1,0,0,1-.292.49h-0.1v0.2l-0.2.09v0.2c-0.1.06-.195,0.13-0.292,0.19-0.033.13-.065,0.26-0.1,0.39a1.7,1.7,0,0,1-.194.1c-0.033.13-.065,0.26-0.1,0.39-0.065.03-.129,0.07-0.194,0.1-0.033.13-.065,0.26-0.1,0.39h-0.1c-0.033.13-.065,0.26-0.1,0.39h-0.1v0.29h-0.1v0.2h-0.1c-0.033.16-.065,0.32-0.1,0.48h-0.1c-0.033.23-.065,0.46-0.1,0.69h-0.1v0.29h-0.1v0.39h-0.1v0.39h-0.1v0.58h-0.1c-0.1.33-.008,0.74-0.1,0.98h1.266v0.09c0.13,0.04.26,0.07,0.389,0.1a2.027,2.027,0,0,1,.292,1.07,0.559,0.559,0,0,0-.194.39c-0.1.03-.2,0.07-0.292,0.1v0.1h-0.195v0.09c-0.4.15-.992-0.14-1.266,0.1a2.909,2.909,0,0,1,.1.88h0.1v0.58h0.1v0.39h0.1v0.39h0.1v0.3h0.1v0.39h0.1v0.29h0.1c0.033,0.16.065,0.32,0.1,0.48h0.1v0.2h0.1v0.29h0.1c0.032,0.13.064,0.26,0.1,0.39h0.1c0.033,0.13.065,0.26,0.1,0.39,0.065,0.03.129,0.07,0.194,0.1,0.033,0.13.065,0.26,0.1,0.39a1.7,1.7,0,0,1,.194.1c0.033,0.13.065,0.26,0.1,0.39,0.1,0.06.195,0.13,0.292,0.19v0.2l0.2,0.09v0.2h0.1a1.046,1.046,0,0,1,.292.49,1.7,1.7,0,0,0,.682-0.49c0.032-.07.064-0.13,0.1-0.2l0.389-.09v-0.1h0.682a1.179,1.179,0,0,1,.584,1.27,0.846,0.846,0,0,0-.195.39c-0.227.19-.454,0.38-0.681,0.58a0.2,0.2,0,0,0,.1.1l0.292,0.39h0.195c0.065,0.09.13,0.19,0.2,0.29H946.3c0.065,0.1.13,0.19,0.2,0.29,0.13,0.03.26,0.07,0.389,0.1,0.033,0.06.065,0.13,0.1,0.19,0.13,0.04.26,0.07,0.389,0.1,0.033,0.07.065,0.13,0.1,0.2,0.292,0.09.584,0.19,0.876,0.29v0.1l0.389,0.09v0.1c0.195,0.03.39,0.07,0.585,0.1v0.1h0.194v0.09h0.39v0.1h0.292v0.1h0.389v0.1c0.649,0.09,1.3.19,1.947,0.29v-1.27h0.1c0.032-.13.065-0.26,0.1-0.39a2.077,2.077,0,0,1,1.071-.29,0.524,0.524,0,0,0,.389.19c0.033,0.1.065,0.2,0.1,0.3h0.1v0.19h0.1c0.146,0.4-.147.99,0.1,1.27a2.8,2.8,0,0,1,.876-0.1v-0.1h0.487v-0.09h0.487v-0.1h0.389v-0.1H957.1v-0.1h0.39v-0.09h0.292v-0.1h0.194v-0.1h0.292v-0.1l0.39-.09v-0.1c0.292-.1.584-0.2,0.876-0.29,0.033-.07.065-0.13,0.1-0.2,0.13-.03.26-0.06,0.39-0.1,0.032-.06.065-0.13,0.1-0.19,0.13-.03.26-0.07,0.39-0.1,0.065-.1.129-0.19,0.194-0.29h0.2c0.033-.07.065-0.13,0.1-0.2h0.2v-0.09a1.187,1.187,0,0,1,.487-0.3,1.7,1.7,0,0,0-.487-0.68l-0.2-.09c-0.032-.13-0.064-0.26-0.1-0.39h-0.1v-0.69a1.179,1.179,0,0,1,1.265-.58,0.8,0.8,0,0,0,.39.19v0.1a2.152,2.152,0,0,0,.779.59,1,1,0,0,1,.292-0.49h0.1v-0.2l0.2-.09v-0.2c0.1-.06.195-0.13,0.292-0.19,0.032-.13.065-0.26,0.1-0.39a1.8,1.8,0,0,1,.2-0.1c0.032-.13.065-0.26,0.1-0.39,0.065-.03.13-0.07,0.2-0.1v-0.19h0.1c0.033-.13.065-0.26,0.1-0.39h0.1v-0.3h0.1c0.032-.13.064-0.26,0.1-0.39h0.1v-0.29h0.1v-0.19h0.1c0.032-.23.065-0.46,0.1-0.68h0.1v-0.3h0.1v-0.39h0.1q0.147-.975.292-1.95h-1.265a0.564,0.564,0,0,0-.39-0.19,2.045,2.045,0,0,1-.292-1.07,0.556,0.556,0,0,0,.2-0.39c0.1-.03.2-0.07,0.292-0.1v-0.1h0.195v-0.09c0.4-.15.992,0.14,1.265-0.1a2.945,2.945,0,0,1-.1-0.88h-0.1v-0.49h-0.1v-0.48h-0.1v-0.39h-0.1v-0.29h-0.1v-0.4h-0.1v-0.29h-0.1V2102h-0.1v-0.29h-0.1c-0.033-.14-0.065-0.26-0.1-0.39h-0.1c-0.1-.3-0.2-0.59-0.292-0.88-0.065-.03-0.13-0.07-0.2-0.1-0.032-.13-0.065-0.26-0.1-0.39a1.8,1.8,0,0,1-.2-0.1c-0.032-.13-0.065-0.26-0.1-0.39-0.1-.06-0.195-0.13-0.292-0.19v-0.2l-0.2-.09v-0.2h-0.1a1.038,1.038,0,0,1-.292-0.49,1.682,1.682,0,0,0-.682.49c-0.032.07-.065,0.13-0.1,0.2l-0.39.09v0.1h-0.681a1.179,1.179,0,0,1-.584-1.27,0.807,0.807,0,0,0,.194-0.39h0.1a2.108,2.108,0,0,0,.584-0.77,1.069,1.069,0,0,1-.487-0.3v-0.09H961c-0.032-.07-0.064-0.13-0.1-0.2h-0.2c-0.032-.06-0.065-0.13-0.1-0.19h-0.195c-0.032-.07-0.065-0.13-0.1-0.2h-0.2c-0.032-.06-0.065-0.13-0.1-0.19-0.2-.07-0.39-0.13-0.584-0.2-0.033-.06-0.065-0.13-0.1-0.19h-0.194v-0.1h-0.2v-0.1H958.66v-0.1l-0.39-.09v-0.1c-0.162-.03-0.324-0.07-0.486-0.1v-0.1c-0.545-.23-1.1-0.06-1.266-0.68a1.176,1.176,0,0,1,0-.97h0.1c0.134-.17.261-0.24,0.39-0.39a5.663,5.663,0,0,1,2.92.97h0.2v0.1h0.2v0.1h0.195v0.09H960.7v0.1h0.2v0.1c0.1,0.03.2,0.06,0.292,0.1,0.033,0.06.065,0.13,0.1,0.19,0.13,0.03.26,0.07,0.39,0.1,0.065,0.1.13,0.19,0.2,0.29h0.194c0.033,0.07.065,0.13,0.1,0.2h0.194l0.292,0.39h0.2l0.779,0.87c0.1,0.04.2,0.07,0.292,0.1v0.2c0.292,0.25.584,0.51,0.876,0.77,0.033,0.1.065,0.2,0.1,0.3,0.1,0.06.2,0.13,0.292,0.19v0.2l0.2,0.09v0.2c0.1,0.06.194,0.13,0.292,0.19v0.2a1.788,1.788,0,0,1,.194.1c0.033,0.13.065,0.26,0.1,0.39l0.194,0.09c0.065,0.2.13,0.39,0.2,0.59h0.1v0.19h0.1v0.2h0.1v0.19h0.1c0.064,0.2.129,0.39,0.194,0.59h0.1v0.29h0.1v0.2h0.1l0.585,2.04v0.49a11.886,11.886,0,0,1-.1,5.75v0.49h-0.1c-0.033.22-.065,0.45-0.1,0.68h-0.1v0.29h-0.1v0.29h-0.1v0.29h-0.1v0.2h-0.1v0.29h-0.1c-0.065.2-.13,0.39-0.194,0.59h-0.1v0.19h-0.1v0.2h-0.1v0.19h-0.1c-0.065.2-.13,0.39-0.2,0.59l-0.194.09c-0.033.13-.065,0.26-0.1,0.39a1.788,1.788,0,0,1-.194.1v0.2c-0.1.06-.195,0.13-0.292,0.19v0.2l-0.2.09v0.2c-0.1.06-.195,0.13-0.292,0.19-0.033.1-.065,0.2-0.1,0.29q-0.438.4-.876,0.78v0.2a1.8,1.8,0,0,0-.2.1V2117h-0.194l-0.682.78h-0.2l-0.292.39h-0.194l-0.195.3h-0.2c-0.032.06-.065,0.13-0.1,0.19h-0.2c-0.032.07-.065,0.13-0.1,0.2h-0.195v0.09H961c-0.032.07-.064,0.13-0.1,0.2h-0.2v0.1H960.51v0.09h-0.195v0.1h-0.2v0.1h-0.2v0.1h-0.194v0.09c-0.2.07-.39,0.13-0.584,0.2v0.09h-0.292v0.1h-0.2v0.1h-0.292v0.1h-0.292v0.1h-0.292v0.09c-0.228.04-.455,0.07-0.682,0.1v0.1h-0.487v0.1h-0.486v0.09h-0.585v0.1h-0.876a7.451,7.451,0,0,1-2.336.1V2121c-0.487-.03-0.974-0.07-1.461-0.1v-0.09c-0.324-.04-0.649-0.07-0.973-0.1v-0.1c-0.228-.03-0.455-0.06-0.682-0.1v-0.09h-0.292v-0.1h-0.292v-0.1h-0.195v-0.1c-0.194-.03-0.389-0.06-0.584-0.1v-0.09c-0.195-.07-0.389-0.13-0.584-0.2v-0.09h-0.2v-0.1h-0.195v-0.1h-0.194v-0.1H946.49v-0.09h-0.2v-0.1H946.1c-0.033-.07-0.065-0.13-0.1-0.2l-0.389-.09c-0.033-.07-0.065-0.13-0.1-0.2h-0.194c-0.065-.1-0.13-0.19-0.2-0.29h-0.195c-0.032-.07-0.065-0.13-0.1-0.2h-0.2l-0.292-.39h-0.195l-0.778-.87h-0.2c-0.033-.1-0.065-0.2-0.1-0.3q-0.44-.375-0.877-0.78v-0.19c-0.13-.1-0.259-0.19-0.389-0.29v-0.2l-0.2-.09v-0.2c-0.1-.06-0.195-0.13-0.292-0.19v-0.2a1.8,1.8,0,0,1-.2-0.1c-0.032-.13-0.065-0.26-0.1-0.39l-0.2-.09c-0.065-.2-0.129-0.39-0.194-0.59h-0.1v-0.19h-0.1v-0.2h-0.1v-0.19h-0.1c-0.065-.2-0.13-0.39-0.2-0.59h-0.1v-0.29h-0.1v-0.2h-0.1v-0.29h-0.1v-0.29h-0.1v-0.29h-0.1c-0.032-.23-0.065-0.46-0.1-0.68h-0.1v-0.49a11.886,11.886,0,0,1-.1-5.75v-0.49q0.293-1.02.584-2.04h0.1v-0.2h0.1v-0.29h0.1c0.065-.2.13-0.39,0.2-0.59h0.1v-0.19h0.1v-0.2h0.1v-0.19h0.1c0.065-.2.129-0.39,0.194-0.59l0.2-.09c0.032-.13.065-0.26,0.1-0.39a1.8,1.8,0,0,1,.2-0.1v-0.2c0.1-.06.195-0.13,0.292-0.19v-0.2l0.2-.09v-0.2c0.1-.06.195-0.13,0.292-0.19,0.032-.1.065-0.2,0.1-0.3,0.292-.26.584-0.52,0.877-0.77v-0.2c0.1-.03.194-0.06,0.292-0.1l0.681-.78h0.195l0.389-.48h0.2c0.032-.07.065-0.13,0.1-0.2h0.195c0.065-.1.13-0.19,0.2-0.29,0.13-.03.259-0.07,0.389-0.1,0.033-.06.065-0.13,0.1-0.19,0.1-.04.194-0.07,0.292-0.1v-0.1c0.194-.06.389-0.13,0.584-0.19v-0.1h0.194v-0.1h0.195v-0.1c0.2-.06.39-0.13,0.584-0.19v-0.1h0.292a3.155,3.155,0,0,1,2.24-.48c0.065,0.09.129,0.19,0.194,0.29h0.1l0.1,0.97a1.578,1.578,0,0,0-.292.39c-0.13.03-.26,0.07-0.389,0.1v0.1l-0.682.09v0.1c-0.162.03-.324,0.07-0.487,0.1v0.1l-0.389.09v0.1h-0.292c-0.033.07-.065,0.13-0.1,0.2h-0.194v0.09h-0.195v0.1h-0.2v0.1h-0.194v0.1h-0.2c-0.033.06-.065,0.13-0.1,0.19h-0.194v0.1c-0.1.03-.195,0.06-0.292,0.1-0.033.06-.065,0.13-0.1,0.19H946.1c-0.065.1-.13,0.2-0.2,0.29h-0.195v0.1c-0.13.1-.259,0.2-0.389,0.29a0.166,0.166,0,0,0,.1.1c0.162,0.19.325,0.39,0.487,0.58H946c0.033,0.13.065,0.26,0.1,0.39h0.1a1.145,1.145,0,0,1-.584,1.27h-0.682a0.792,0.792,0,0,0-.389-0.19v-0.1A2.152,2.152,0,0,0,943.764,2098.29Zm10.709,5.46a2.961,2.961,0,0,1,1.753,3.9,3.3,3.3,0,0,1-2.239,1.75,2.7,2.7,0,0,1-1.85-.39h-0.195a3.594,3.594,0,0,1-1.266-1.65,2.934,2.934,0,0,1,1.85-3.61v-7.31h0.1c0.032-.13.065-0.26,0.1-0.39a2.077,2.077,0,0,1,1.071-.29,0.568,0.568,0,0,0,.389.2c0.033,0.09.065,0.19,0.1,0.29h0.1v0.19h0.1v7.31Zm-1.265,1.76a0.893,0.893,0,0,0-.487.48,1.008,1.008,0,0,0,0,1.17,1.985,1.985,0,0,0,1.071.29,0.561,0.561,0,0,1,.389-0.19,2.027,2.027,0,0,0,.292-1.07,0.559,0.559,0,0,1-.194-0.39A1.988,1.988,0,0,0,953.208,2105.51Z" transform="translate(-933 -2077)"/>
</svg>
