<svg id="_4" data-name="4" xmlns="http://www.w3.org/2000/svg" width="55" height="50" viewBox="0 0 55 50">
  <defs>
    <style>
      .cls-1, .cls-2 {
        fill: #4ca6b4;
      }

      .cls-1 {
        opacity: 0.08;
      }

      .cls-2 {
        fill-rule: evenodd;
      }
    </style>
  </defs>
  <circle id="Эллипс_3_копия_2" data-name="Эллипс 3 копия 2" class="cls-1" cx="30" cy="25" r="25"/>
  <path id="Фигура_17" data-name="Фигура 17" class="cls-2" d="M1265.22,2077a1.671,1.671,0,0,1,.97.19,1.865,1.865,0,0,1,.1.2h0.2c0.06,0.1.13,0.19,0.19,0.29h0.19a1.865,1.865,0,0,1,.1.2c0.1,0.03.2,0.06,0.29,0.09v0.1h0.2a1.865,1.865,0,0,0,.1.2c0.13,0.03.26,0.06,0.39,0.1,0.03,0.06.06,0.13,0.09,0.19,0.1,0.03.2,0.07,0.3,0.1v0.1h0.19v0.09h0.2v0.1h0.19v0.1h0.2c0.03,0.06.06,0.13,0.09,0.19h0.2v0.1h0.19v0.1h0.2v0.1h0.19v0.09h0.2v0.1h0.19v0.1h0.2v0.1h0.19v0.09h0.2v0.1h0.19v0.1c0.13,0.03.26,0.07,0.39,0.1v0.09h0.2v0.1h0.29v0.1c0.13,0.03.26,0.07,0.39,0.1v0.1h0.29v0.09h0.2v0.1c0.19,0.03.39,0.07,0.58,0.1v0.1h0.2v0.09c0.19,0.04.39,0.07,0.58,0.1v0.1h0.29v0.1h0.3v0.09h0.29v0.1h0.29v0.1c0.23,0.03.46,0.06,0.68,0.1v0.09h0.39v0.1h0.39v0.1h0.49v0.1h0.49v0.09h0.48v0.1h0.59v0.1h0.68v0.1h1.07v0.1h1.37a12.973,12.973,0,0,0,2.73-.2c0.22,0.03.45,0.07,0.68,0.1,0.16,0.19.32,0.39,0.49,0.58v14.25c0,2.42.17,5.23-.39,7.13-0.07.52-.13,1.04-0.2,1.56h-0.1l-0.09.78h-0.1v0.39H1285v0.29h-0.1v0.3h-0.09c-0.07.32-.13,0.65-0.2,0.97h-0.1v0.2h-0.09c-0.04.19-.07,0.39-0.1,0.58h-0.1c-0.03.17-.06,0.33-0.1,0.49h-0.09v0.2h-0.1v0.29h-0.1c-0.03.13-.06,0.26-0.1,0.39h-0.09v0.2h-0.1v0.29h-0.1c-0.06.19-.13,0.39-0.19,0.58h-0.1c-0.03.13-.07,0.26-0.1,0.39a1.738,1.738,0,0,1-.19.1v0.2h-0.1v0.19h-0.1v0.2h-0.1v0.19a1.738,1.738,0,0,1-.19.1c-0.03.13-.07,0.26-0.1,0.39-0.06.03-.13,0.07-0.19,0.1-0.04.13-.07,0.26-0.1,0.39a1.738,1.738,0,0,0-.19.1v0.19c-0.07.03-.13,0.07-0.2,0.1v0.19a1.738,1.738,0,0,1-.19.1v0.2c-0.07.03-.13,0.06-0.2,0.09v0.2a1.738,1.738,0,0,0-.19.1v0.19c-0.1.07-.2,0.13-0.3,0.2v0.19c-0.09.07-.19,0.13-0.29,0.2v0.19c-0.1.07-.19,0.13-0.29,0.2v0.19c-0.16.13-.33,0.26-0.49,0.39v0.2l-0.58.49v0.19c-0.36.33-.72,0.65-1.08,0.98-0.45.49-.91,0.97-1.36,1.46h-0.19c-0.17.2-.33,0.39-0.49,0.59h-0.2c-0.09.13-.19,0.26-0.29,0.39h-0.19l-0.3.39h-0.19c-0.07.1-.13,0.19-0.2,0.29h-0.19c-0.07.1-.13,0.2-0.2,0.29h-0.19c-0.03.07-.07,0.13-0.1,0.2h-0.19a1.738,1.738,0,0,0-.1.19h-0.2c-0.03.07-.06,0.14-0.09,0.2h-0.2a1.14,1.14,0,0,1-.1.19h-0.19c-0.03.07-.07,0.14-0.1,0.2h-0.19a1.865,1.865,0,0,0-.1.2h-0.2v0.09h-0.19c-0.03.07-.07,0.13-0.1,0.2-0.19.06-.39,0.13-0.58,0.19-0.03.07-.07,0.13-0.1,0.2h-0.19v0.1h-0.2v0.09h-0.19v0.1h-0.2v0.1h-0.19v0.1h-0.2v0.09h-0.19v0.1h-0.2v0.1h-0.19v0.1c-0.2.06-.39,0.13-0.59,0.19v0.1c-0.16.03-.32,0.07-0.49,0.1v0.1h-0.19v0.09h-0.29v0.1h-0.2v0.1h-0.29v0.1h-0.2v0.09h-0.29v0.1h-0.29v0.1h-0.29v0.1h-0.29v0.09h-0.3v0.1c-0.53.16-1.88-.54-2.24-0.68h-0.29v-0.1h-0.2v-0.1h-0.29V2126c-0.13-.04-0.26-0.07-0.39-0.1v-0.1h-0.29v-0.1h-0.2v-0.09c-0.13-.04-0.26-0.07-0.39-0.1v-0.1h-0.19v-0.1h-0.19v-0.1h-0.2v-0.09h-0.19v-0.1h-0.2v-0.1h-0.19v-0.1h-0.2v-0.09h-0.19v-0.1h-0.2a1.865,1.865,0,0,0-.1-0.2c-0.19-.06-0.39-0.13-0.58-0.19-0.03-.07-0.07-0.13-0.1-0.2h-0.19a1.738,1.738,0,0,1-.1-0.19c-0.13-.03-0.26-0.07-0.39-0.1-0.03-.06-0.07-0.13-0.1-0.2h-0.19a1.14,1.14,0,0,1-.1-0.19h-0.2c-0.03-.06-0.06-0.13-0.09-0.2h-0.2a1.738,1.738,0,0,0-.1-0.19h-0.19c-0.07-.1-0.13-0.2-0.2-0.29h-0.19c-0.03-.07-0.07-0.13-0.1-0.2h-0.19c-0.07-.1-0.13-0.19-0.2-0.29h-0.19c-0.1-.13-0.2-0.26-0.29-0.39h-0.2c-0.1-.13-0.19-0.26-0.29-0.39h-0.2c-0.16-.2-0.32-0.39-0.48-0.59h-0.2c-0.55-.58-1.1-1.17-1.66-1.75l-0.78-.69v-0.19l-0.58-.49v-0.2c-0.06-.03-0.13-0.06-0.19-0.09v-0.1c-0.1-.07-0.2-0.13-0.3-0.2v-0.19c-0.09-.07-0.19-0.13-0.29-0.2v-0.19c-0.1-.07-0.19-0.13-0.29-0.2v-0.19c-0.1-.07-0.2-0.13-0.29-0.2v-0.19a1.865,1.865,0,0,0-.2-0.1v-0.2c-0.06-.03-0.13-0.06-0.19-0.09v-0.2a1.865,1.865,0,0,1-.2-0.1v-0.19c-0.06-.03-0.13-0.07-0.19-0.1v-0.19a1.865,1.865,0,0,0-.2-0.1c-0.03-.13-0.06-0.26-0.1-0.39-0.06-.03-0.13-0.07-0.19-0.1-0.03-.13-0.07-0.26-0.1-0.39a1.738,1.738,0,0,1-.19-0.1v-0.19h-0.1v-0.2h-0.1v-0.19h-0.1v-0.2a1.738,1.738,0,0,1-.19-0.1c-0.03-.13-0.07-0.26-0.1-0.39h-0.1c-0.06-.19-0.13-0.39-0.19-0.58h-0.1v-0.29h-0.1v-0.2h-0.09c-0.04-.13-0.07-0.26-0.1-0.39h-0.1v-0.29h-0.1v-0.2h-0.09v-0.29h-0.1v-0.2h-0.1c-0.03-.19-0.06-0.39-0.1-0.58h-0.09v-0.2h-0.1c-0.07-.32-0.13-0.65-0.19-0.97h-0.1v-0.3h-0.1v-0.29h-0.1v-0.39h-0.09v-0.39h-0.1v-0.39h-0.1v-0.49h-0.1v-0.49h-0.09v-0.48h-0.1c-0.03-.49-0.07-0.98-0.1-1.47a25.481,25.481,0,0,1-.19-5.46v-13.47a2.276,2.276,0,0,1,.09-1.08,0.7,0.7,0,0,1,.78-0.58,7.516,7.516,0,0,1,1.95.1,15.774,15.774,0,0,0,4.19-.3h0.59v-0.1h0.48v-0.09h0.49v-0.1h0.49v-0.1h0.39v-0.1h0.39v-0.09h0.29v-0.1h0.39v-0.1h0.29v-0.1h0.3v-0.09h0.29v-0.1h0.29v-0.1h0.29v-0.1l0.59-.09v-0.1h0.19V2081h0.29v-0.1h0.2v-0.09h0.29v-0.1c0.13-.03.26-0.07,0.39-0.1v-0.1h0.29v-0.1h0.2v-0.09c0.13-.03.26-0.07,0.39-0.1v-0.1h0.19v-0.1h0.2v-0.09h0.19v-0.1h0.2v-0.1h0.19v-0.1h0.2v-0.09h0.19v-0.1h0.2v-0.1h0.19v-0.1h0.2v-0.09H1262c0.03-.07.07-0.13,0.1-0.2,0.19-.06.39-0.13,0.58-0.19v-0.1c0.1-.03.2-0.07,0.3-0.1,0.03-.06.06-0.13,0.09-0.19,0.13-.04.26-0.07,0.39-0.1v-0.1c0.1-.03.2-0.06,0.3-0.1,0.03-.06.06-0.13,0.09-0.19h0.2a1.865,1.865,0,0,1,.1-0.2h0.19c0.07-.1.13-0.19,0.2-0.29A3.013,3.013,0,0,0,1265.22,2077Zm-18.23,7.71v12.98c0,1.71-.19,4.19.2,5.56,0.03,0.46.06,0.91,0.1,1.37h0.09v0.49h0.1v0.49h0.1v0.48h0.1v0.4h0.09c0.04,0.22.07,0.45,0.1,0.68h0.1v0.29h0.1c0.06,0.33.13,0.65,0.19,0.98h0.1v0.19h0.1c0.03,0.2.06,0.39,0.09,0.59h0.1v0.19h0.1v0.3h0.1l0.09,0.39h0.1v0.29h0.1c0.06,0.19.13,0.39,0.19,0.58h0.1v0.2h0.1v0.2h0.1v0.19h0.09v0.2h0.1v0.19h0.1v0.2h0.1v0.19h0.09v0.2c0.07,0.03.13,0.06,0.2,0.09,0.03,0.13.06,0.26,0.1,0.39a1.738,1.738,0,0,0,.19.1c0.03,0.13.07,0.26,0.1,0.39a1.738,1.738,0,0,0,.19.1v0.2c0.07,0.03.13,0.06,0.2,0.09v0.2a1.738,1.738,0,0,1,.19.1v0.19c0.07,0.03.13,0.07,0.2,0.1v0.19a1.738,1.738,0,0,0,.19.1v0.2c0.07,0.03.13,0.06,0.2,0.09l0.09,0.3c0.1,0.06.2,0.13,0.3,0.19v0.2c0.13,0.09.26,0.19,0.39,0.29v0.19c0.16,0.14.32,0.27,0.48,0.4v0.19c0.33,0.29.65,0.59,0.98,0.88v0.19c0.19,0.17.39,0.33,0.58,0.49a1.865,1.865,0,0,1,.1.2h0.2c0.29,0.32.58,0.65,0.87,0.97h0.2c0.13,0.17.26,0.33,0.39,0.49h0.19c0.1,0.13.2,0.26,0.29,0.39h0.2c0.06,0.1.13,0.2,0.19,0.29h0.2c0.06,0.1.13,0.2,0.19,0.3h0.2c0.06,0.1.13,0.19,0.19,0.29h0.2a1.865,1.865,0,0,0,.1.2h0.19c0.03,0.06.07,0.13,0.1,0.19h0.19a1.865,1.865,0,0,1,.1.2c0.1,0.03.2,0.06,0.29,0.09v0.1c0.13,0.03.26,0.07,0.39,0.1a1.738,1.738,0,0,1,.1.19c0.13,0.04.26,0.07,0.39,0.1,0.03,0.07.07,0.13,0.1,0.2h0.19v0.09h0.2v0.1h0.19v0.1h0.2a1.738,1.738,0,0,0,.1.19h0.19v0.1h0.19v0.1h0.2v0.1h0.19v0.09h0.2v0.1h0.29c0.03,0.07.07,0.13,0.1,0.2h0.29v0.1l0.39,0.09v0.1h0.29c0.37,0.16,1.8.95,2.34,0.78v-0.1l0.59-.09v-0.1c0.16-.03.32-0.07,0.48-0.1v-0.1h0.2v-0.09h0.29v-0.1h0.2v-0.1h0.29v-0.1l0.39-.09v-0.1h0.29v-0.1c0.2-.06.39-0.13,0.59-0.2v-0.09h0.19v-0.1c0.2-.06.39-0.13,0.59-0.2,0.03-.06.06-0.13,0.09-0.19h0.2v-0.1h0.19v-0.1h0.2v-0.09h0.19a1.865,1.865,0,0,0,.1-0.2h0.2v-0.1h0.19c0.03-.06.07-0.13,0.1-0.19,0.13-.03.26-0.07,0.39-0.1v-0.1c0.09-.03.19-0.06,0.29-0.09a1.865,1.865,0,0,1,.1-0.2h0.19v-0.1c0.1-.03.2-0.06,0.29-0.09a1.865,1.865,0,0,0,.1-0.2h0.2c0.06-.1.13-0.19,0.19-0.29h0.2c0.03-.07.06-0.13,0.09-0.2h0.2c0.06-.1.13-0.19,0.19-0.29h0.2c0.1-.13.19-0.26,0.29-0.39h0.2c0.16-.2.32-0.39,0.48-0.59h0.2l0.78-.87h0.19c0.04-.07.07-0.14,0.1-0.2,0.23-.2.46-0.39,0.68-0.59v-0.19c0.29-.26.59-0.52,0.88-0.78v-0.2c0.19-.16.39-0.32,0.58-0.49a2.469,2.469,0,0,0,.1-0.29c0.1-.06.2-0.13,0.29-0.19v-0.2c0.1-.06.2-0.13,0.3-0.19l0.09-.3c0.07-.03.13-0.06,0.2-0.09v-0.2a1.738,1.738,0,0,0,.19-0.1v-0.19c0.07-.03.13-0.07,0.2-0.1v-0.19a1.738,1.738,0,0,1,.19-0.1v-0.2c0.07-.03.13-0.06,0.2-0.09v-0.2a1.738,1.738,0,0,0,.19-0.1c0.04-.13.07-0.26,0.1-0.39a1.865,1.865,0,0,0,.2-0.1l0.09-.39c0.07-.03.13-0.06,0.2-0.09v-0.2h0.1v-0.19h0.09v-0.2h0.1v-0.19h0.1v-0.2h0.1v-0.19h0.09v-0.2h0.1v-0.2h0.1c0.06-.19.13-0.39,0.19-0.58h0.1v-0.29h0.1l0.09-.39h0.1v-0.3h0.1v-0.19h0.1c0.03-.2.06-0.39,0.09-0.59h0.1v-0.19h0.1c0.03-.2.06-0.39,0.1-0.59h0.09v-0.39h0.1v-0.29h0.1c0.03-.23.06-0.46,0.1-0.68h0.09c0.04-.3.07-0.59,0.1-0.88h0.1c0.03-.33.06-0.65,0.1-0.98h0.09c0.04-.46.07-0.91,0.1-1.37,0.39-1.35.2-3.77,0.2-5.46v-13.08a24.707,24.707,0,0,1-11.89-2.05h-0.3v-0.1h-0.19v-0.1h-0.29v-0.09c-0.13-.04-0.26-0.07-0.39-0.1v-0.1h-0.29v-0.1c-0.2-.06-0.39-0.13-0.59-0.19v-0.1h-0.19v-0.1h-0.2v-0.09h-0.19v-0.1h-0.2v-0.1h-0.19v-0.1h-0.2v-0.09h-0.19v-0.1h-0.2a1.865,1.865,0,0,0-.1-0.2h-0.19v-0.09h-0.2v-0.1h-0.19v-0.1h-0.2c-0.03-.06-0.06-0.13-0.09-0.2h-0.2v-0.09h-0.19a1.865,1.865,0,0,1-.1-0.2h-0.2c-0.03-.06-0.06-0.13-0.09-0.19-0.13-.04-0.26-0.07-0.39-0.1-0.03-.07-0.07-0.13-0.1-0.2h-0.19a1.738,1.738,0,0,1-.1-0.19h-0.2v-0.1a0.818,0.818,0,0,0-.48-0.1,2.571,2.571,0,0,1-.88.59c-0.03.06-.07,0.13-0.1,0.19-0.13.04-.26,0.07-0.39,0.1a1.865,1.865,0,0,1-.1.2l-0.39.09c-0.03.07-.06,0.14-0.09,0.2-0.2.07-.39,0.13-0.59,0.2a1.738,1.738,0,0,1-.1.19h-0.19v0.1h-0.2v0.1h-0.19v0.09h-0.2v0.1h-0.19v0.1h-0.2v0.1h-0.19v0.09h-0.19v0.1h-0.2v0.1c-0.19.06-.39,0.13-0.58,0.19v0.1h-0.3v0.1c-0.13.03-.26,0.06-0.39,0.1v0.09h-0.29v0.1h-0.19v0.1h-0.3v0.1h-0.19v0.1h-0.29v0.09h-0.2v0.1c-0.19.03-.39,0.07-0.58,0.1v0.1h-0.3v0.09h-0.29v0.1h-0.29v0.1h-0.29v0.1h-0.29v0.09h-0.3v0.1h-0.39v0.1h-0.39v0.1h-0.39v0.09h-0.39v0.1h-0.39v0.1h-0.48c-0.56.17-1.38,0.23-1.95,0.39h-1.17v0.1h-0.78C1248.65,2084.81,1247.74,2084.74,1246.99,2084.71Zm18.23-3.03a2.7,2.7,0,0,1,1.75.78h0.2v0.1h0.19v0.1h0.2v0.1h0.19c0.03,0.06.07,0.13,0.1,0.19h0.29c0.03,0.07.07,0.13,0.1,0.2,0.29,0.1.58,0.19,0.88,0.29v0.1h0.19v0.1h0.2v0.09c0.19,0.07.39,0.13,0.58,0.2v0.1h0.29v0.09c0.13,0.04.26,0.07,0.39,0.1v0.1h0.3v0.1l0.39,0.09v0.1c0.19,0.03.38,0.07,0.58,0.1v0.1h0.19v0.09c1.43,0.43,2.86.85,4.29,1.27h0.59v0.1h0.39v0.1h0.58v0.1l3.61,0.39c0.09,0.16.33,0.43,0.39,0.58v12.5a9.45,9.45,0,0,1-.1,2.04c-0.03.62-.07,1.24-0.1,1.86h-0.09v0.59c-0.16.51-.33,1.17-0.49,1.65v0.4h-0.1v0.29h-0.1v0.29h-0.09v0.29h-0.1v0.3h-0.1c-0.06.29-.13,0.58-0.19,0.87h-0.1c-0.03.13-.07,0.26-0.1,0.4h-0.1v0.29h-0.09v0.19h-0.1c-0.03.13-.07,0.26-0.1,0.39h-0.1c-0.09.3-.19,0.59-0.29,0.88-0.06.03-.13,0.07-0.19,0.1v0.19h-0.1v0.2h-0.1v0.2h-0.1v0.19h-0.09v0.2c-0.07.03-.13,0.06-0.2,0.09-0.03.13-.06,0.26-0.1,0.39a1.738,1.738,0,0,1-.19.1v0.2c-0.07.03-.13,0.06-0.2,0.09v0.2a1.738,1.738,0,0,0-.19.1v0.19c-0.07.03-.13,0.07-0.2,0.1v0.19a1.738,1.738,0,0,1-.19.1v0.2a1.865,1.865,0,0,0-.2.1c-0.03.09-.06,0.19-0.09,0.29-0.1.06-.2,0.13-0.3,0.19v0.2c-0.13.1-.26,0.19-0.38,0.29v0.2c-0.17.13-.33,0.26-0.49,0.39v0.19c-0.33.29-.65,0.59-0.98,0.88v0.2l-0.48.39a1.738,1.738,0,0,0-.1.19h-0.2c-0.29.33-.58,0.65-0.87,0.98h-0.2c-0.13.16-.26,0.32-0.39,0.49h-0.19l-0.3.39h-0.19c-0.07.09-.13,0.19-0.2,0.29h-0.19c-0.07.1-.13,0.19-0.2,0.29h-0.19a1.865,1.865,0,0,1-.1.2h-0.19c-0.03.06-.07,0.13-0.1,0.19h-0.19a1.865,1.865,0,0,0-.1.2h-0.2c-0.03.06-.06,0.13-0.09,0.19h-0.2a1.865,1.865,0,0,1-.1.2l-0.39.09c-0.03.07-.06,0.14-0.09,0.2-0.2.07-.39,0.13-0.59,0.2a1.738,1.738,0,0,1-.1.19c-0.19.07-.39,0.13-0.58,0.2v0.09h-0.2v0.1h-0.19v0.1c-0.2.06-.39,0.13-0.59,0.19v0.1h-0.29v0.1h-0.19v0.1a6.519,6.519,0,0,1-1.85.58v-0.1h-0.3v-0.09h-0.19v-0.1c-0.2-.03-0.39-0.07-0.59-0.1v-0.1l-0.39-.09v-0.1h-0.19v-0.1h-0.29v-0.1c-0.2-.06-0.39-0.13-0.59-0.19v-0.1h-0.19v-0.1c-0.2-.06-0.39-0.13-0.59-0.19a1.865,1.865,0,0,0-.1-0.2c-0.19-.06-0.39-0.13-0.58-0.19a1.865,1.865,0,0,0-.1-0.2c-0.13-.03-0.26-0.06-0.39-0.1-0.03-.06-0.06-0.13-0.09-0.19-0.13-.03-0.26-0.06-0.39-0.1v-0.1l-0.3-.09c-0.03-.07-0.06-0.13-0.09-0.2h-0.2v-0.1c-0.1-.03-0.19-0.06-0.29-0.09-0.03-.07-0.07-0.13-0.1-0.2h-0.19c-0.07-.1-0.13-0.19-0.2-0.29h-0.19c-0.07-.1-0.13-0.2-0.2-0.29h-0.19l-0.3-.39h-0.19c-0.13-.17-0.26-0.33-0.39-0.49h-0.2c-0.29-.33-0.58-0.65-0.87-0.98h-0.2c-0.03-.06-0.06-0.13-0.09-0.19-0.17-.13-0.33-0.26-0.49-0.39v-0.2c-0.36-.33-0.72-0.65-1.07-0.98v-0.19c-0.13-.1-0.26-0.2-0.39-0.29v-0.2c-0.13-.1-0.26-0.19-0.39-0.29v-0.2c-0.1-.06-0.2-0.13-0.3-0.19-0.03-.1-0.06-0.2-0.09-0.29a1.865,1.865,0,0,0-.2-0.1v-0.2a1.738,1.738,0,0,1-.19-0.1v-0.19c-0.07-.03-0.13-0.07-0.2-0.1v-0.19a1.738,1.738,0,0,0-.19-0.1v-0.2c-0.07-.03-0.13-0.06-0.2-0.09v-0.2a1.738,1.738,0,0,1-.19-0.1c-0.04-.13-0.07-0.26-0.1-0.39-0.07-.03-0.13-0.06-0.2-0.09v-0.2h-0.09v-0.19h-0.1v-0.2h-0.1v-0.2c-0.06-.03-0.13-0.06-0.19-0.09-0.04-.13-0.07-0.26-0.1-0.39h-0.1l-0.09-.39h-0.1v-0.3h-0.1v-0.19h-0.1l-0.09-.39h-0.1c-0.03-.16-0.07-0.33-0.1-0.49h-0.1v-0.2h-0.09c-0.39-1.36-.78-2.73-1.17-4.09v-0.59h-0.1v-0.78h-0.1v-1.08h-0.1v-11.61c0-1.14-.32-3.26.59-3.51,0.37-.31,1.38-0.04,1.95-0.2v-0.1h0.78v-0.09h0.68v-0.1h0.58v-0.1h0.49v-0.1h0.49v-0.09h0.39v-0.1h0.39v-0.1h0.39v-0.1h0.39v-0.09h0.29v-0.1h0.39a34.49,34.49,0,0,0,6.53-2.83h0.19v-0.1h0.2v-0.1h0.19v-0.1h0.2a1.738,1.738,0,0,1,.1-0.19c0.13-.03.26-0.07,0.39-0.1,0.03-.06.06-0.13,0.09-0.19h0.2v-0.1A0.81,0.81,0,0,0,1265.22,2081.68Zm-14.33,6.93v9.96a19.943,19.943,0,0,0,.3,5.07v0.59c0.32,1.14.64,2.28,0.97,3.42h0.1v0.19h0.09v0.29h0.1v0.2h0.1c0.03,0.16.06,0.32,0.1,0.49h0.09c0.07,0.19.13,0.39,0.2,0.58h0.1v0.2h0.09v0.19h0.1c0.07,0.2.13,0.39,0.2,0.59a1.738,1.738,0,0,1,.19.1c0.03,0.13.07,0.26,0.1,0.39,0.06,0.03.13,0.06,0.19,0.09,0.04,0.14.07,0.26,0.1,0.4,0.07,0.03.13,0.06,0.2,0.09v0.2a1.738,1.738,0,0,1,.19.1v0.19c0.07,0.03.13,0.07,0.2,0.1v0.19a1.738,1.738,0,0,0,.19.1v0.2c0.07,0.03.13,0.06,0.2,0.09v0.2c0.09,0.06.19,0.13,0.29,0.19v0.2c0.13,0.1.26,0.19,0.39,0.29v0.2c0.16,0.13.32,0.26,0.49,0.39v0.19l0.87,0.78c0.46,0.49.91,0.98,1.37,1.47h0.19l0.49,0.58h0.19l0.3,0.39h0.19c0.07,0.1.13,0.2,0.2,0.3h0.19c0.07,0.09.13,0.19,0.2,0.29h0.19c0.03,0.07.07,0.13,0.1,0.19,0.1,0.04.19,0.07,0.29,0.1v0.1h0.2c0.03,0.06.06,0.13,0.09,0.2h0.2c0.03,0.06.06,0.13,0.09,0.19,0.13,0.03.26,0.07,0.39,0.1a1.738,1.738,0,0,1,.1.19c0.13,0.04.26,0.07,0.39,0.1v0.1h0.2c0.03,0.06.06,0.13,0.09,0.19h0.2v0.1h0.19v0.1h0.2v0.1h0.19v0.09h0.2v0.1c0.29,0.1.58,0.2,0.88,0.29v0.1c0.35,0.13.71,0.26,1.07,0.39v-0.1h0.29v-0.09h0.2v-0.1c0.16-.03.32-0.06,0.48-0.1v-0.1c0.2-.06.39-0.13,0.59-0.19v-0.1h0.19v-0.1h0.2v-0.09h0.19v-0.1h0.2v-0.1h0.19v-0.1h0.2v-0.09h0.19c0.03-.07.07-0.13,0.1-0.2,0.13-.03.26-0.06,0.39-0.1a1.738,1.738,0,0,1,.1-0.19h0.19v-0.1h0.2c0.03-.06.06-0.13,0.09-0.19h0.2a1.244,1.244,0,0,1,.1-0.2h0.19v-0.1a2.469,2.469,0,0,0,.29-0.1,1.14,1.14,0,0,0,.1-0.19h0.2c0.06-.1.13-0.2,0.19-0.29h0.2c0.06-.1.13-0.2,0.19-0.3h0.2c0.09-.13.19-0.26,0.29-0.39h0.19l0.39-.48h0.2c0.39-.43.78-0.85,1.17-1.27,0.35-.33.71-0.65,1.07-0.98v-0.19c0.19-.17.39-0.33,0.58-0.49v-0.2c0.1-.06.2-0.13,0.3-0.19v-0.2c0.13-.1.26-0.19,0.39-0.29v-0.2c0.06-.03.13-0.06,0.19-0.09v-0.2a1.865,1.865,0,0,0,.2-0.1v-0.19c0.06-.03.13-0.07,0.19-0.1v-0.19a1.865,1.865,0,0,1,.2-0.1v-0.2c0.06-.03.12-0.06,0.19-0.09,0.03-.14.06-0.26,0.1-0.4,0.06-.03.13-0.06,0.19-0.09,0.03-.13.07-0.26,0.1-0.39a1.738,1.738,0,0,1,.19-0.1c0.07-.2.13-0.39,0.2-0.59h0.1v-0.19h0.09v-0.2h0.1c0.07-.19.13-0.39,0.2-0.58h0.09c0.04-.17.07-0.33,0.1-0.49h0.1v-0.2h0.1v-0.29h0.09v-0.19h0.1c0.33-1.14.65-2.28,0.98-3.42v-0.59a20.1,20.1,0,0,0,.29-4.97v-10.06c-0.94-.09-1.89-0.19-2.83-0.29v-0.1l-0.97-.09v-0.1c-0.55-.1-1.11-0.2-1.66-0.29v-0.1c-0.23-.03-0.45-0.07-0.68-0.1v-0.1c-0.23-.03-0.46-0.06-0.68-0.1v-0.09h-0.3v-0.1h-0.29v-0.1h-0.29v-0.1l-0.59-.09v-0.1c-0.16-.03-0.32-0.07-0.48-0.1v-0.1h-0.2v-0.09c-0.19-.04-0.39-0.07-0.58-0.1v-0.1c-0.13-.03-0.26-0.06-0.39-0.1v-0.09h-0.29v-0.1c-0.13-.03-0.26-0.07-0.39-0.1v-0.1h-0.3v-0.09h-0.19v-0.1h-0.2v-0.1h-0.19v-0.1h-0.2v-0.1h-0.19v-0.09h-0.2v-0.1h-0.19V2085c-0.13-.03-0.26-0.06-0.39-0.1v-0.09h-0.2v-0.1h-0.19v-0.1h-0.2v-0.1h-0.19v-0.09h-0.19v-0.1h-0.2a1.865,1.865,0,0,0-.1-0.2c-0.19-.06-0.39-0.13-0.58-0.19v-0.1a5.787,5.787,0,0,0-.78.29c-0.03.07-.07,0.13-0.1,0.2h-0.19v0.1h-0.2v0.09h-0.19v0.1h-0.2v0.1h-0.19v0.1h-0.2v0.09h-0.19a1.865,1.865,0,0,0-.1.2c-0.16.03-.33,0.07-0.49,0.1v0.09h-0.19v0.1h-0.2v0.1c-0.19.07-.39,0.13-0.58,0.2v0.09h-0.3v0.1c-0.12.03-.25,0.07-0.38,0.1v0.1h-0.3v0.09c-0.13.04-.26,0.07-0.39,0.1v0.1h-0.29v0.1h-0.19v0.09c-0.2.04-.39,0.07-0.59,0.1v0.1h-0.19v0.1h-0.3v0.09h-0.29v0.1h-0.29v0.1h-0.29v0.1l-0.69.09v0.1h-0.29v0.1h-0.29v0.1h-0.39v0.1h-0.39v0.09h-0.39v0.1h-0.39v0.1h-0.49v0.1c-0.52.06-1.04,0.13-1.56,0.19A9.008,9.008,0,0,1,1250.89,2088.61Zm14.33,3.22a3.061,3.061,0,0,1,.97.2,1.35,1.35,0,0,1,.3,1.07h-0.1c-0.03.13-.07,0.26-0.1,0.39a1.971,1.971,0,0,1-1.07.3,0.549,0.549,0,0,0-.39-0.2,1.974,1.974,0,0,1-.29-1.07,0.927,0.927,0,0,0,.19-0.39,2.811,2.811,0,0,1,.49-0.2v-0.1Zm-3.8.79H1262v0.09a0.96,0.96,0,0,1,.49,1.47c-0.1.06-.2,0.13-0.29,0.19v0.1H1262v0.1h-0.19v0.1h-0.2v0.09h-0.19v0.1h-0.2v0.1c-0.13.03-.26,0.06-0.39,0.1-0.03.06-.06,0.13-0.09,0.19h-0.2c-0.06.1-.13,0.2-0.19,0.29h-0.2c-0.06.1-.13,0.2-0.19,0.3h-0.2c-0.06.09-.13,0.19-0.19,0.29-0.26.23-.52,0.45-0.78,0.68v0.2c-0.13.1-.26,0.19-0.39,0.29v0.2c-0.07.03-.13,0.06-0.2,0.09v0.2a1.738,1.738,0,0,0-.19.1c-0.04.13-.07,0.26-0.1,0.39-0.07.03-.13,0.06-0.2,0.09v0.2h-0.09v0.19h-0.1v0.3h-0.1v0.19h-0.1c-0.16.59-.32,1.17-0.48,1.76v0.68h-0.1a6.791,6.791,0,0,0,.19,2.44c0.04,0.3.07,0.59,0.1,0.88h0.1v0.39h0.1v0.29h0.09v0.2h0.1v0.29h0.1c0.03,0.13.06,0.26,0.1,0.39h0.09v0.3c0.07,0.03.13,0.06,0.2,0.09,0.06,0.2.13,0.39,0.19,0.59h0.1c0.03,0.1.07,0.19,0.1,0.29,0.06,0.03.13,0.07,0.19,0.1v0.19a1.865,1.865,0,0,0,.2.1,2.469,2.469,0,0,0,.1.29l0.39,0.3v0.19c0.19,0.17.39,0.33,0.58,0.49,0.03,0.07.07,0.13,0.1,0.2h0.19l0.39,0.48h0.2c0.06,0.1.13,0.2,0.19,0.3h0.2v0.09h0.19a1.865,1.865,0,0,1,.1.2c0.13,0.03.26,0.06,0.39,0.1a1.738,1.738,0,0,0,.1.19H1262v0.1h0.2v0.1h0.29v0.1h0.19v0.09c0.2,0.04.39,0.07,0.59,0.1a6.33,6.33,0,0,0,3.7.2h0.49a10.009,10.009,0,0,0,6.33-6.06c0.04-.22.07-0.45,0.1-0.68h0.1v-0.39h0.1a9.609,9.609,0,0,0,.19-2.93h-0.1v-0.68h-0.09c-0.04-.29-0.07-0.59-0.1-0.88h-0.1c-0.03-.19-0.06-0.39-0.1-0.59h-0.09v-0.19h-0.1v-0.29h-0.1c-0.06-.2-0.13-0.39-0.19-0.59h-0.1c-0.03-.13-0.07-0.26-0.1-0.39h-0.1c-0.03-.1-0.06-0.19-0.09-0.29-0.07-.03-0.13-0.07-0.2-0.1v-0.19a1.738,1.738,0,0,0-.19-0.1v-0.2c-0.17-.13-0.33-0.26-0.49-0.39v-0.19a1.865,1.865,0,0,0-.2-0.1c-0.12-.16-0.25-0.33-0.38-0.49h-0.2c-0.13-.16-0.26-0.32-0.39-0.49h-0.19a1.738,1.738,0,0,1-.1-0.19h-0.2c-0.03-.07-0.06-0.13-0.09-0.2h-0.2a1.738,1.738,0,0,0-.1-0.19h-0.19v-0.1h-0.2v-0.1h-0.19v-0.09h-0.2a2.288,2.288,0,0,1-.58-0.49,1.865,1.865,0,0,0-.2-0.1v-0.29a0.822,0.822,0,0,1,.59-1.08v-0.09l0.88,0.09v0.1c0.19,0.07.39,0.13,0.58,0.2v0.09c0.13,0.04.26,0.07,0.39,0.1,0.03,0.07.07,0.13,0.1,0.2h0.19a1.738,1.738,0,0,1,.1.19h0.2v0.1c0.09,0.03.19,0.06,0.29,0.1,0.03,0.06.06,0.13,0.09,0.19h0.2c0.1,0.13.19,0.26,0.29,0.39h0.2c0.16,0.2.32,0.39,0.48,0.59,0.23,0.19.46,0.39,0.69,0.58v0.2c0.13,0.1.26,0.19,0.39,0.29v0.2c0.06,0.03.13,0.06,0.19,0.09,0.03,0.1.07,0.2,0.1,0.3h0.1v0.19c0.06,0.03.13,0.07,0.19,0.1v0.2c0.07,0.03.13,0.06,0.2,0.09v0.2h0.09v0.19h0.1v0.2h0.1v0.19h0.1v0.2h0.09v0.29h0.1v0.2h0.1v0.29h0.1v0.29h0.09v0.29h0.1v0.4h0.1v0.39h0.1v0.48h0.09v0.79a6.78,6.78,0,0,1-.19,3.22v0.48c-0.2.59-.39,1.18-0.59,1.76h-0.09c-0.07.2-.13,0.39-0.2,0.59h-0.1v0.19h-0.09c-0.07.2-.13,0.39-0.2,0.59-0.06.03-.13,0.06-0.19,0.09v0.2a1.865,1.865,0,0,0-.2.1v0.19a1.738,1.738,0,0,1-.19.1v0.2c-0.07.03-.13,0.06-0.2,0.09v0.2c-0.13.1-.26,0.19-0.39,0.29v0.2c-0.29.26-.58,0.52-0.88,0.78-0.16.19-.32,0.39-0.48,0.58h-0.2c-0.1.13-.19,0.26-0.29,0.39-0.1.04-.19,0.07-0.29,0.1-0.03.07-.07,0.13-0.1,0.2h-0.19v0.09h-0.2a1.865,1.865,0,0,1-.1.2c-0.13.03-.26,0.06-0.39,0.1-0.03.06-.06,0.13-0.09,0.19-0.13.03-.26,0.07-0.39,0.1v0.1l-0.39.09v0.1c-0.17.03-.33,0.07-0.49,0.1v0.1l-0.59.09v0.1h-0.39v0.1c-0.29.03-.58,0.07-0.87,0.1v0.1h-0.68a6.883,6.883,0,0,1-3.51-.3c-0.23-.03-0.46-0.06-0.69-0.1v-0.09h-0.19v-0.1h-0.29v-0.1h-0.2v-0.1c-0.29-.09-0.58-0.19-0.87-0.29a1.738,1.738,0,0,1-.1-0.19c-0.13-.04-0.26-0.07-0.39-0.1-0.03-.07-0.07-0.13-0.1-0.2h-0.19v-0.09c-0.1-.04-0.2-0.07-0.3-0.1-0.03-.07-0.06-0.13-0.09-0.2h-0.2c-0.1-.13-0.19-0.26-0.29-0.39h-0.2c-0.16-.19-0.32-0.39-0.48-0.58-0.3-.26-0.59-0.52-0.88-0.78v-0.2c-0.13-.1-0.26-0.19-0.39-0.29v-0.2c-0.07-.03-0.13-0.06-0.2-0.09v-0.2a1.738,1.738,0,0,1-.19-0.1v-0.19a1.865,1.865,0,0,0-.2-0.1v-0.2c-0.06-.03-0.12-0.06-0.19-0.09-0.06-.2-0.13-0.39-0.19-0.59h-0.1v-0.19h-0.1c-0.06-.2-0.13-0.39-0.19-0.59h-0.1v-0.29h-0.1v-0.2h-0.1c-0.03-.19-0.06-0.39-0.09-0.58h-0.1v-0.39a8.936,8.936,0,0,1-.29-4.79v-0.48h0.09c0.04-.26.07-0.52,0.1-0.79h0.1c0.06-.29.13-0.58,0.19-0.87h0.1v-0.2h0.1v-0.29h0.1c0.06-.2.13-0.39,0.19-0.59h0.1c0.03-.13.06-0.26,0.1-0.39,0.06-.03.13-0.06,0.19-0.09,0.03-.14.07-0.27,0.1-0.4,0.06-.03.13-0.06,0.19-0.09v-0.2c0.1-.06.2-0.13,0.29-0.19v-0.2c0.13-.1.26-0.19,0.39-0.29v-0.2c0.3-.26.59-0.52,0.88-0.78,0.1-.13.2-0.26,0.29-0.39h0.2c0.1-.13.19-0.26,0.29-0.39h0.2c0.06-.1.13-0.19,0.19-0.29,0.13-.03.26-0.07,0.39-0.1,0.03-.06.07-0.13,0.1-0.19h0.19a1.865,1.865,0,0,0,.1-0.2h0.2v-0.1h0.19v-0.09h0.2v-0.1h0.19v-0.1c0.16-.03.33-0.06,0.49-0.1v-0.09Zm8.67,6.05a2.938,2.938,0,0,1,.98.19,2.1,2.1,0,0,1,.29,1.08,0.858,0.858,0,0,0-.2.39c-0.13.09-.26,0.19-0.39,0.29-0.26.29-.52,0.58-0.78,0.88-1.36,1.33-2.73,2.66-4.09,4a7.264,7.264,0,0,1-2.05,1.85v0.1h-0.58a0.936,0.936,0,0,0-.39-0.19c-0.03-.07-0.07-0.14-0.1-0.2-0.13-.1-0.26-0.19-0.39-0.29-0.81-.85-1.62-1.69-2.43-2.54a4.6,4.6,0,0,1-1.27-1.37,1.434,1.434,0,0,1,.19-0.97,2.011,2.011,0,0,1,1.08-.29,3.4,3.4,0,0,0,.48.29l0.59,0.68c0.48,0.46.97,0.91,1.46,1.37a3.423,3.423,0,0,0,1.17,1.07,2.9,2.9,0,0,1,.58-0.58c0.39-.4.78-0.79,1.17-1.18q1.71-1.755,3.41-3.51c0.23-.2.46-0.39,0.69-0.58,0.06-.1.13-0.2,0.19-0.3A0.936,0.936,0,0,0,1270.09,2098.67Z" transform="translate(-1245 -2077)"/>
</svg>
