<svg id="_5" data-name="5" xmlns="http://www.w3.org/2000/svg" width="60" height="50.03" viewBox="0 0 60 50.03">
  <defs>
    <style>
      .cls-1, .cls-2 {
        fill: #4ca6b4;
      }

      .cls-1 {
        opacity: 0.08;
      }

      .cls-2 {
        fill-rule: evenodd;
      }
    </style>
  </defs>
  <circle id="Эллипс_3_копия_2" data-name="Эллипс 3 копия 2" class="cls-1" cx="35" cy="25" r="25"/>
  <path id="Фигура_20" data-name="Фигура 20" class="cls-2" d="M1578.67,2077a3.092,3.092,0,0,1,.98.19c0.16,0.3.32,0.59,0.49,0.88,0.09,0.07.19,0.13,0.29,0.2v0.19c0.06,0.03.13,0.07,0.19,0.1,0.04,0.1.07,0.2,0.1,0.29h0.1v0.2a1.738,1.738,0,0,1,.19.1v0.19c0.07,0.03.14,0.07,0.2,0.1v0.19a1.865,1.865,0,0,0,.2.1v0.2c0.09,0.06.19,0.13,0.29,0.19v0.2c0.06,0.03.13,0.06,0.19,0.09,0.04,0.1.07,0.2,0.1,0.3h0.1v0.19c0.06,0.03.13,0.07,0.19,0.1v0.19a1.865,1.865,0,0,0,.2.1v0.2c0.1,0.06.19,0.13,0.29,0.19v0.2c0.07,0.03.13,0.06,0.2,0.09v0.2a1.738,1.738,0,0,1,.19.1v0.19h0.1a2.469,2.469,0,0,0,.1.29,1.738,1.738,0,0,0,.19.1v0.2c0.07,0.03.13,0.06,0.2,0.09v0.2c0.09,0.06.19,0.13,0.29,0.19v0.2a1.738,1.738,0,0,1,.19.1,2.469,2.469,0,0,1,.1.29h0.1v0.2c0.06,0.03.13,0.06,0.19,0.09v0.2a1.865,1.865,0,0,1,.2.1v0.19c0.1,0.07.19,0.13,0.29,0.2v0.19c0.07,0.03.13,0.07,0.2,0.1,0.03,0.1.06,0.19,0.09,0.29h0.1v0.2c0.07,0.03.13,0.06,0.2,0.09v0.2a1.738,1.738,0,0,1,.19.1v0.19c0.07,0.03.13,0.07,0.2,0.1v0.19c0.09,0.07.19,0.13,0.29,0.2v0.19a1.865,1.865,0,0,0,.2.1c0.03,0.1.06,0.2,0.09,0.29h0.1v0.2a1.865,1.865,0,0,1,.2.1v0.19c0.06,0.03.13,0.07,0.19,0.1v0.19a1.865,1.865,0,0,0,.2.1v0.2c0.06,0.03.13,0.06,0.19,0.09,0.07,0.2.13,0.39,0.2,0.59,0.06,0.03.13,0.07,0.19,0.1,0.03,0.16.07,0.32,0.1,0.49h0.1l0.09,0.39h0.1v0.29a9.162,9.162,0,0,1,.39,5.27c-0.03.29-.06,0.58-0.1,0.87h-0.09v0.3h-0.1v0.29h-0.1v0.29h-0.1l-0.09.39h-0.1v0.3h-0.1v0.19h-0.1v0.2c-0.06.03-.13,0.06-0.19,0.09-0.03.13-.07,0.26-0.1,0.39a1.738,1.738,0,0,1-.19.1v0.2h-0.1c-0.03.09-.07,0.19-0.1,0.29a1.738,1.738,0,0,0-.19.1v0.19c-0.13.1-.26,0.2-0.39,0.29v0.2a1.865,1.865,0,0,0-.2.1l-0.78.87a5.884,5.884,0,0,1,1.76.3l0.97,0.09v0.1h0.49v0.1h0.39v0.1h0.39v0.09h0.39v0.1h0.39v0.1h0.39v0.1h0.39v0.09h0.29v0.1h0.3v0.1h0.29v0.1c0.32,0.06.65,0.13,0.97,0.19v0.1h0.2v0.1l0.58,0.09v0.1h0.2v0.1h0.29v0.1h0.2v0.1h0.29v0.09h0.19v0.1h0.3v0.1c0.19,0.06.39,0.13,0.58,0.19v0.1h0.2v0.1h0.19v0.1h0.2v0.09h0.19v0.1h0.2v0.1h0.19v0.1h0.2v0.09h0.19a1.865,1.865,0,0,1,.1.2c0.13,0.03.26,0.06,0.39,0.1,0.03,0.06.07,0.13,0.1,0.19,0.13,0.03.26,0.07,0.39,0.1v0.1c0.1,0.03.19,0.06,0.29,0.09,0.03,0.07.07,0.13,0.1,0.2h0.19a1.738,1.738,0,0,1,.1.19h0.2c0.06,0.1.13,0.2,0.19,0.3h0.2c0.09,0.13.19,0.26,0.29,0.39h0.19c0.17,0.19.33,0.39,0.49,0.58h0.2c0.16,0.2.32,0.39,0.49,0.59,0.06,0.03.13,0.06,0.19,0.09v0.2c0.16,0.13.33,0.26,0.49,0.39v0.19l0.39,0.3v0.19a1.738,1.738,0,0,0,.19.1c0.04,0.1.07,0.2,0.1,0.29h0.1c0.03,0.13.06,0.26,0.1,0.39h0.09v0.2h0.1v0.19h0.1c0.06,0.2.13,0.39,0.19,0.59h0.1c0.07,0.29.13,0.58,0.2,0.88h0.09v0.48h0.1v0.59h0.1a8.175,8.175,0,0,1-.39,3.22h-0.1v0.29h-0.1v0.2h-0.09v0.29h-0.1v0.19a1.865,1.865,0,0,1-.2.1c-0.06.2-.13,0.39-0.19,0.59-0.07.03-.13,0.06-0.2,0.09v0.2c-0.06.03-.13,0.07-0.19,0.1v0.19c-0.1.07-.2,0.13-0.29,0.2v0.19c-0.17.13-.33,0.26-0.49,0.39v0.2c-0.1.06-.2,0.13-0.29,0.19-0.2.23-.4,0.46-0.59,0.69h-0.2l-0.39.48h-0.19c-0.1.13-.2,0.26-0.29,0.39-0.1.04-.2,0.07-0.3,0.1-0.03.07-.06,0.13-0.09,0.2h-0.2a1.738,1.738,0,0,1-.1.19c-0.09.03-.19,0.07-0.29,0.1v0.1h-0.19a1.738,1.738,0,0,0-.1.19c-0.13.03-.26,0.07-0.39,0.1-0.03.06-.07,0.13-0.1,0.19-0.13.04-.26,0.07-0.39,0.1a1.865,1.865,0,0,1-.1.2h-0.19v0.09h-0.2v0.1h-0.19v0.1h-0.2v0.1h-0.19v0.09h-0.2v0.1h-0.19v0.1c-0.2.06-.39,0.13-0.59,0.19v0.1h-0.29v0.1c-0.13.03-.26,0.07-0.39,0.1v0.1h-0.29v0.09h-0.2v0.1h-0.29v0.1h-0.2v0.1c-0.29.06-.58,0.13-0.87,0.19v0.1h-0.2v0.1l-0.58.09v0.1h-0.39v0.1h-0.3v0.1h-0.29v0.09c-0.26.04-.52,0.07-0.78,0.1v0.1h-0.29v0.1l-0.88.09v0.1h-0.39v0.1h-0.49c-0.84.26-1.95,0.33-2.83,0.58h-0.78v0.1h-0.88v0.1h-1.07v0.1h-1.66a15.412,15.412,0,0,1-4.29,0h-1.66v-0.1c-0.65-.03-1.3-0.07-1.95-0.1-1.36-.23-2.73-0.45-4.1-0.68v-0.1c-0.39-.06-0.78-0.13-1.17-0.19v-0.1c-0.26-.03-0.52-0.07-0.78-0.1v-0.1l-0.68-.09v-0.1h-0.29v-0.1h-0.3v-0.1l-0.68-.09v-0.1h-0.19v-0.1c-0.3-.06-0.59-0.13-0.88-0.19v-0.1h-0.2v-0.1h-0.29v-0.1h-0.19v-0.09h-0.3v-0.1c-0.13-.03-0.26-0.07-0.39-0.1v-0.1h-0.29v-0.1c-0.19-.06-0.39-0.13-0.58-0.19v-0.1h-0.2v-0.1h-0.19v-0.09h-0.2v-0.1h-0.2v-0.1h-0.19v-0.1h-0.2v-0.09h-0.19c-0.03-.07-0.07-0.13-0.1-0.2-0.13-.03-0.26-0.06-0.39-0.1a1.738,1.738,0,0,0-.1-0.19c-0.13-.03-0.26-0.07-0.39-0.1v-0.1c-0.09-.03-0.19-0.06-0.29-0.09a1.865,1.865,0,0,0-.1-0.2h-0.19c-0.03-.06-0.07-0.13-0.1-0.19h-0.19c-0.07-.1-0.13-0.2-0.2-0.3h-0.19l-0.3-.39h-0.19l-0.49-.58h-0.19c-0.2-.23-0.39-0.46-0.59-0.68a1.738,1.738,0,0,0-.19-0.1v-0.2c-0.17-.13-0.33-0.26-0.49-0.39v-0.19c-0.1-.07-0.2-0.13-0.3-0.2v-0.19c-0.06-.03-0.13-0.07-0.19-0.1-0.03-.1-0.07-0.2-0.1-0.29h-0.1c-0.06-.2-0.13-0.39-0.19-0.59a1.865,1.865,0,0,1-.2-0.1v-0.19h-0.09v-0.29h-0.1v-0.2h-0.1c-0.03-.19-0.06-0.39-0.1-0.58a5.816,5.816,0,0,1-.19-3.52v-0.48c1.64-4.91,6.48-7.44,11.31-9.17h0.39v-0.1h0.3v-0.1h0.29v-0.1h0.39v-0.09h0.29v-0.1h0.39v-0.1h0.39v-0.1h0.39v-0.09h0.39v-0.1h0.39v-0.1c0.33-.03.65-0.06,0.98-0.1v-0.09h0.49v-0.1h0.58v-0.1a3.579,3.579,0,0,0,1.17-.19,5,5,0,0,1-1.36-1.56,1.865,1.865,0,0,0-.2-0.1v-0.2c-0.06-.03-0.13-0.06-0.19-0.09-0.04-.1-0.07-0.2-0.1-0.3h-0.1c-0.03-.13-0.06-0.26-0.1-0.39-0.06-.03-0.13-0.06-0.19-0.09v-0.2h-0.1v-0.19h-0.1v-0.3h-0.09c-0.04-.13-0.07-0.26-0.1-0.39h-0.1v-0.29h-0.1V2097h-0.09v-0.3h-0.1c-0.07-.45-0.13-0.91-0.2-1.36h-0.09a11.958,11.958,0,0,1,.09-2.83c0.07-.46.13-0.91,0.2-1.37h0.1v-0.29h0.09v-0.29h0.1v-0.29h0.1c0.03-.13.06-0.26,0.1-0.39h0.09v-0.3h0.1v-0.19h0.1v-0.2a1.738,1.738,0,0,0,.19-0.1c0.04-.13.07-0.25,0.1-0.39,0.07-.03.13-0.06,0.2-0.09v-0.2a1.738,1.738,0,0,0,.19-0.1v-0.19c0.07-.03.13-0.07,0.2-0.1v-0.19a1.738,1.738,0,0,1,.19-0.1v-0.2c0.07-.03.13-0.06,0.2-0.09v-0.2a1.738,1.738,0,0,0,.19-0.1v-0.19c0.1-.07.2-0.13,0.3-0.2v-0.19c0.06-.03.13-0.07,0.19-0.1,0.03-.1.07-0.19,0.1-0.29h0.1v-0.2c0.06-.03.13-0.06,0.19-0.09v-0.2a1.865,1.865,0,0,0,.2-0.1v-0.19c0.06-.03.13-0.07,0.19-0.1v-0.19c0.1-.07.2-0.13,0.29-0.2v-0.19a1.865,1.865,0,0,1,.2-0.1,2.469,2.469,0,0,1,.1-0.29h0.09v-0.2a1.865,1.865,0,0,0,.2-0.1v-0.19a1.738,1.738,0,0,1,.19-0.1v-0.2c0.1-.06.2-0.13,0.3-0.19v-0.2c0.06-.03.13-0.06,0.19-0.09,0.03-.1.07-0.2,0.1-0.3h0.1v-0.19c0.06-.03.13-0.07,0.19-0.1v-0.19a1.865,1.865,0,0,1,.2-0.1v-0.2c0.06-.03.13-0.06,0.19-0.09v-0.2c0.1-.06.2-0.13,0.29-0.19v-0.2a1.865,1.865,0,0,0,.2-0.1c0.03-.09.06-0.19,0.1-0.29h0.09v-0.19a1.865,1.865,0,0,1,.2-0.1v-0.2c0.06-.03.13-0.06,0.2-0.09v-0.2a1.738,1.738,0,0,0,.19-0.1v-0.19c0.1-.07.2-0.13,0.29-0.2v-0.19c0.07-.03.13-0.07,0.2-0.1,0.03-.1.06-0.19,0.1-0.29h0.09v-0.2c0.07-.03.13-0.06,0.2-0.09v-0.2c0.06-.03.13-0.07,0.19-0.1v-0.19c0.1-.07.2-0.13,0.3-0.2v-0.19a1.738,1.738,0,0,1,.19-0.1v-0.2c0.07-.03.13-0.06,0.2-0.09v-0.2a2.08,2.08,0,0,1,.48-0.19V2077Zm0.2,2.73c-0.03.1-.07,0.2-0.1,0.29h-0.1v0.2a1.738,1.738,0,0,0-.19.1v0.19c-0.07.03-.13,0.07-0.2,0.1v0.19a1.738,1.738,0,0,1-.19.1v0.2c-0.1.06-.2,0.13-0.29,0.19v0.2c-0.07.03-.13,0.06-0.2,0.09v0.2a1.738,1.738,0,0,0-.19.1v0.19h-0.1c-0.03.1-.07,0.2-0.1,0.29a1.738,1.738,0,0,1-.19.1v0.2c-0.1.06-.2,0.13-0.3,0.19v0.2c-0.06.03-.13,0.06-0.19,0.09-0.03.1-.07,0.2-0.1,0.3h-0.1v0.19h-0.09c-0.04.1-.07,0.2-0.1,0.29a1.865,1.865,0,0,1-.2.1v0.2a1.738,1.738,0,0,0-.19.1v0.19c-0.1.07-.2,0.13-0.3,0.2v0.19c-0.06.03-.13,0.07-0.19,0.1-0.03.1-.07,0.19-0.1,0.29h-0.1v0.2c-0.06.03-.13,0.06-0.19,0.09v0.2a1.865,1.865,0,0,0-.2.1v0.19c-0.09.07-.19,0.13-0.29,0.2v0.19c-0.06.03-.13,0.07-0.19,0.1-0.04.1-.07,0.19-0.1,0.29h-0.1v0.2c-0.06.03-.13,0.06-0.19,0.09v0.2a1.865,1.865,0,0,0-.2.1v0.19c-0.06.03-.13,0.07-0.19,0.1v0.19c-0.1.07-.2,0.13-0.3,0.2v0.19a1.738,1.738,0,0,1-.19.1v0.2c-0.07.03-.13,0.06-0.2,0.09v0.2a1.738,1.738,0,0,0-.19.1v0.19a1.865,1.865,0,0,1-.2.1v0.19a1.738,1.738,0,0,1-.19.1c-0.03.1-.07,0.2-0.1,0.3h-0.1l-0.09.39h-0.1c-0.03.13-.07,0.26-0.1,0.39h-0.1v0.29h-0.09v0.19h-0.1v0.3h-0.1c-0.03.26-.07,0.52-0.1,0.78a8.26,8.26,0,0,0,.78,5.75c0.07,0.03.13,0.07,0.2,0.1v0.2h0.1c0.03,0.09.06,0.19,0.09,0.29a1.865,1.865,0,0,1,.2.1v0.19c0.16,0.13.32,0.26,0.49,0.39v0.2c0.06,0.03.13,0.06,0.19,0.09,0.1,0.13.2,0.26,0.29,0.39h0.2c0.1,0.13.19,0.26,0.29,0.39h0.2c0.06,0.1.13,0.2,0.19,0.3h0.2c0.03,0.06.06,0.13,0.09,0.19,0.13,0.03.26,0.07,0.39,0.1v0.1h0.2v0.09h0.19v0.1c0.2,0.07.39,0.13,0.59,0.2v0.09c0.68,0.17,1.37.33,2.05,0.49a9.613,9.613,0,0,0,2.83-.19v-0.1h0.39v-0.1h0.29v-0.1h0.29v-0.09c0.13-.04.26-0.07,0.39-0.1v-0.1h0.3c0.03-.06.06-0.13,0.09-0.19,0.2-.07.39-0.13,0.59-0.2a1.738,1.738,0,0,1,.1-0.19h0.19c0.07-.1.13-0.2,0.2-0.3h0.19c0.1-.13.2-0.26,0.29-0.39h0.2a1.738,1.738,0,0,1,.1-0.19c0.13-.1.26-0.2,0.39-0.29v-0.2l0.48-.39v-0.19a1.865,1.865,0,0,1,.2-0.1v-0.2c0.06-.03.13-0.06,0.19-0.09,0.04-.1.07-0.2,0.1-0.3h0.1c0.03-.13.06-0.26,0.1-0.39h0.09c0.04-.13.07-0.26,0.1-0.39h0.1v-0.29h0.1v-0.2h0.1c0.03-.22.06-0.45,0.09-0.68h0.1v-0.39h0.1a12.845,12.845,0,0,0,.1-2.93c-0.2-.68-0.39-1.36-0.59-2.04h-0.1c-0.03-.13-0.06-0.26-0.1-0.39h-0.09c-0.04-.13-0.07-0.26-0.1-0.39a1.865,1.865,0,0,0-.2-0.1v-0.2a1.738,1.738,0,0,1-.19-0.1v-0.19a1.865,1.865,0,0,1-.2-0.1V2089a1.738,1.738,0,0,0-.19-0.1v-0.2h-0.1c-0.03-.09-0.06-0.19-0.1-0.29a1.738,1.738,0,0,1-.19-0.1v-0.19c-0.1-.07-0.2-0.13-0.29-0.2v-0.19c-0.07-.03-0.13-0.07-0.2-0.1-0.03-.1-0.06-0.19-0.1-0.29h-0.09v-0.2c-0.07-.03-0.13-0.06-0.2-0.09v-0.2a1.738,1.738,0,0,1-.19-0.1v-0.19c-0.1-.07-0.2-0.13-0.3-0.2v-0.19c-0.06-.03-0.13-0.07-0.19-0.1v-0.19a1.865,1.865,0,0,0-.2-0.1v-0.2h-0.09a2.469,2.469,0,0,1-.1-0.29,1.865,1.865,0,0,1-.2-0.1V2085c-0.06-.03-0.13-0.07-0.19-0.1v-0.19c-0.1-.07-0.2-0.13-0.29-0.2v-0.19a1.865,1.865,0,0,0-.2-0.1c-0.03-.1-0.06-0.2-0.1-0.3h-0.09v-0.19a1.865,1.865,0,0,1-.2-0.1v-0.19a1.738,1.738,0,0,0-.19-0.1v-0.2c-0.1-.06-0.2-0.13-0.3-0.19v-0.2c-0.06-.03-0.13-0.06-0.19-0.09-0.04-.1-0.07-0.2-0.1-0.3h-0.1v-0.19c-0.06-.03-0.13-0.07-0.19-0.1v-0.19a1.865,1.865,0,0,0-.2-0.1v-0.2c-0.06-.03-0.13-0.06-0.19-0.09v-0.2c-0.1-.06-0.2-0.13-0.3-0.19v-0.2a4.2,4.2,0,0,1-.78-1.17h-0.19Zm4,10.34a4.273,4.273,0,0,1,.88.1c0.06,0.1.13,0.19,0.19,0.29h0.1v0.2c0.06,0.03.13,0.06,0.19,0.09v0.2h0.1c0.07,0.19.13,0.39,0.2,0.58h0.09c0.07,0.3.13,0.59,0.2,0.88h0.1v0.49h0.09a10.122,10.122,0,0,1-.09,2.54h-0.1v0.29h-0.1v0.29h-0.1v0.29h-0.09c-0.04.13-.07,0.26-0.1,0.39h-0.1c-0.03.13-.06,0.26-0.1,0.39a7.422,7.422,0,0,1-3.22,2.64c-0.22.03-.45,0.06-0.68,0.1a3.609,3.609,0,0,1-1.66.19v-0.1l-0.39-.09a1.36,1.36,0,0,1-.29-1.08h0.1c0.03-.13.06-0.26,0.1-0.39,0.09-.03.19-0.06,0.29-0.09v-0.1h0.19v-0.1h0.88v-0.1h0.49v-0.1h0.29v-0.09h0.29v-0.1c0.2-.07.39-0.13,0.59-0.2,0.07-.09.13-0.19,0.2-0.29h0.19l0.49-.58a1.738,1.738,0,0,1,.19-0.1v-0.2c0.07-.03.13-0.06,0.2-0.09,0.06-.2.13-0.39,0.19-0.59h0.1v-0.19h0.1c0.03-.23.06-0.46,0.1-0.69h0.09v-1.66h-0.09c-0.04-.22-0.07-0.45-0.1-0.68a3.611,3.611,0,0,1-.68-1.56h0.09v-0.29C1582.48,2090.4,1582.67,2090.23,1582.87,2090.07Zm-7.9,6.54h0.78a1.069,1.069,0,0,1,.58,1.26,0.974,0.974,0,0,1-1.85,0C1573.99,2097.36,1574.79,2096.81,1574.97,2096.61Zm-16.88,12.68a2.156,2.156,0,0,1-.58.78h-0.1v0.19c-0.1.07-.2,0.13-0.29,0.2v0.19a1.865,1.865,0,0,1-.2.1v0.2c-0.06.03-.13,0.06-0.19,0.09v0.2h-0.1c-0.07.19-.13,0.39-0.2,0.58h-0.09c-0.04.2-.07,0.39-0.1,0.59h-0.1c-0.03.29-.07,0.58-0.1,0.88h-0.1v1.36h0.1v0.49h0.1v0.39h0.1v0.29h0.1v0.3h0.09c0.04,0.13.07,0.26,0.1,0.39h0.1c0.03,0.13.06,0.26,0.1,0.39,0.06,0.03.13,0.06,0.19,0.09v0.2a1.865,1.865,0,0,1,.2.1v0.19c0.09,0.07.19,0.13,0.29,0.2v0.19c0.16,0.13.32,0.26,0.49,0.39,0.06,0.13.13,0.26,0.19,0.39h0.2c0.03,0.07.06,0.13,0.09,0.2h0.1c0.2,0.22.39,0.45,0.59,0.68h0.19c0.07,0.1.13,0.2,0.2,0.29h0.19c0.07,0.1.13,0.2,0.2,0.3h0.19c0.03,0.06.07,0.13,0.1,0.19h0.19a1.865,1.865,0,0,1,.1.2l0.39,0.09c0.03,0.07.07,0.13,0.1,0.2,0.13,0.03.26,0.06,0.39,0.1,0.03,0.06.07,0.13,0.1,0.19h0.19v0.1h0.2v0.1h0.19v0.09h0.2v0.1h0.19v0.1h0.2v0.1h0.19v0.09h0.2v0.1c0.19,0.07.39,0.13,0.58,0.2v0.09h0.3v0.1c0.13,0.03.26,0.07,0.39,0.1v0.1l0.58,0.09v0.1h0.2v0.1c0.19,0.03.39,0.06,0.58,0.1v0.09h0.29v0.1h0.3v0.1h0.29v0.1h0.29v0.09h0.3v0.1c1.23,0.29,2.47.59,3.7,0.88h0.59v0.1h0.58v0.1h0.69v0.09h0.68v0.1h0.88v0.1h1.07v0.1h1.56a15.412,15.412,0,0,0,4.29,0h1.56v-0.1c0.65-.03,1.3-0.07,1.95-0.1,1.34-.23,2.67-0.46,4-0.68v-0.1h0.39v-0.1h0.39v-0.1h0.39v-0.09h0.39v-0.1c0.23-.03.46-0.07,0.69-0.1v-0.1h0.29v-0.09h0.29v-0.1h0.3v-0.1h0.29v-0.1h0.29v-0.09c0.29-.07.59-0.13,0.88-0.2v-0.1h0.19v-0.09h0.3v-0.1c0.13-.03.26-0.07,0.39-0.1v-0.1h0.29v-0.09c0.19-.07.39-0.13,0.58-0.2v-0.1h0.2v-0.09h0.19v-0.1h0.3c0.03-.07.06-0.13,0.09-0.2h0.2v-0.09h0.2v-0.1h0.19v-0.1h0.2v-0.1h0.19c0.03-.06.07-0.13,0.1-0.19h0.19v-0.1h0.2a1.738,1.738,0,0,1,.1-0.19h0.19v-0.1c0.1-.03.2-0.07,0.29-0.1a1.738,1.738,0,0,0,.1-0.19h0.2c0.06-.1.13-0.2,0.19-0.3h0.2c0.06-.09.13-0.19,0.19-0.29h0.2c0.19-.23.39-0.46,0.58-0.68h0.1a1.865,1.865,0,0,1,.1-0.2h0.19c0.07-.13.13-0.26,0.2-0.39l0.48-.39v-0.19c0.1-.07.2-0.13,0.3-0.2v-0.19a1.738,1.738,0,0,1,.19-0.1v-0.2c0.07-.03.13-0.06,0.2-0.09,0.03-.13.06-0.26,0.1-0.39h0.09c0.04-.13.07-0.26,0.1-0.39h0.1v-0.3h0.1v-0.29h0.09v-0.39h0.1v-0.49h0.1v-1.36h-0.1c-0.03-.3-0.06-0.59-0.1-0.88h-0.09v-0.29h-0.1v-0.2h-0.1c-0.1-.29-0.19-0.58-0.29-0.88h-0.1c-0.03-.09-0.06-0.19-0.1-0.29a1.738,1.738,0,0,1-.19-0.1v-0.19c-0.1-.07-0.2-0.13-0.3-0.2v-0.19c-0.06-.03-0.13-0.07-0.19-0.1a2.1,2.1,0,0,1-.59-0.78,1.975,1.975,0,0,1-.78-0.59c-0.03-.06-0.06-0.13-0.09-0.19h-0.2c-0.06-.1-0.13-0.2-0.19-0.29h-0.2c-0.06-.1-0.13-0.2-0.19-0.3h-0.2a1.738,1.738,0,0,0-.1-0.19c-0.09-.03-0.19-0.07-0.29-0.1v-0.1h-0.19a1.738,1.738,0,0,1-.1-0.19c-0.13-.03-0.26-0.07-0.39-0.1-0.03-.06-0.07-0.13-0.1-0.19h-0.19v-0.1h-0.2v-0.1h-0.19v-0.1h-0.2c-0.03-.06-0.07-0.13-0.1-0.19-0.29-.1-0.58-0.2-0.88-0.29v-0.1h-0.19v-0.1c-0.13-.03-0.26-0.06-0.39-0.1v-0.09h-0.29v-0.1c-0.13-.03-0.26-0.07-0.39-0.1v-0.1c-1.17-.39-2.35-0.78-3.52-1.17h-0.39c-0.79-.27-1.81-0.43-2.63-0.68-0.39-.03-0.78-0.07-1.17-0.1v-0.1h-0.68v-0.09h-0.69v-0.1h-0.87a2.1,2.1,0,0,0-.98-0.1v0.1h-0.29v0.1h-0.29v0.09h-0.3v0.1h-0.29v0.1h-0.49a8,8,0,0,1-2.53.29c-0.75-.09-1.5-0.19-2.25-0.29v-0.1h-0.29v-0.1h-0.29v-0.09c-0.2-.04-0.39-0.07-0.59-0.1v-0.1a1.951,1.951,0,0,0-.97.1h-0.88v0.1h-0.68v0.09h-0.69v0.1l-2.14.3v0.09c-0.3.04-.59,0.07-0.88,0.1v0.1h-0.39v0.1h-0.39v0.09h-0.39v0.1c-0.33.06-.65,0.13-0.98,0.2v0.09h-0.29v0.1h-0.29v0.1h-0.3v0.1h-0.29v0.09c-0.29.07-.58,0.13-0.88,0.2v0.1h-0.19v0.09h-0.29v0.1c-0.13.03-.26,0.07-0.39,0.1v0.1h-0.3v0.09c-0.13.04-.26,0.07-0.39,0.1v0.1h-0.19v0.1h-0.29a1.738,1.738,0,0,0-.1.19h-0.2v0.1h-0.29a1.738,1.738,0,0,1-.1.19h-0.19v0.1h-0.2v0.1h-0.19v0.1h-0.2a1.738,1.738,0,0,1-.1.19c-0.13.03-.26,0.07-0.39,0.1-0.03.06-.06,0.13-0.09,0.19h-0.2v0.1c-0.1.03-.19,0.07-0.29,0.1-0.03.06-.07,0.13-0.1,0.19h-0.19c-0.07.1-.13,0.2-0.2,0.3h-0.19c-0.07.09-.13,0.19-0.2,0.29h-0.19a1.738,1.738,0,0,0-.1.19A2.572,2.572,0,0,1,1558.09,2109.29Zm24,10.92c-0.03-.13-0.07-0.26-0.1-0.39h-0.1a1.718,1.718,0,0,1,.1-0.87c0.1-.07.2-0.13,0.29-0.2v-0.1h0.2v-0.1l1.07-.09c0.91-.2,1.82-0.39,2.73-0.59v-0.1l0.69-.09v-0.1h0.29v-0.1h0.29v-0.1h0.2v-0.09c0.19-.04.39-0.07,0.58-0.1v-0.1c0.13-.03.26-0.06,0.39-0.1v-0.09c0.29-.1.59-0.2,0.88-0.3a1.738,1.738,0,0,1,.1-0.19c0.19-.07.39-0.13,0.58-0.2,0.03-.06.07-0.13,0.1-0.19h0.19c0.07-.1.13-0.2,0.2-0.29h0.19l0.3-.39c0.55-.56,1.42-1.31.97-2.54v-0.29h-0.09v-0.2h-0.1v-0.19c-0.1-.07-0.2-0.13-0.29-0.2v-0.19l-0.39-.3-0.3-.39h-0.19c-0.07-.09-0.13-0.19-0.2-0.29h-0.19a1.738,1.738,0,0,1-.1-0.19h-0.2c-0.03-.07-0.06-0.13-0.09-0.2h-0.2v-0.1h-0.19v-0.09h-0.2v-0.1h-0.19v-0.1h-0.2v-0.1h-0.19v-0.09c-0.13-.04-0.26-0.07-0.39-0.1v-0.1h-0.3c-4.61-2.01-12.86-2.23-17.75-.29-0.2.03-.39,0.06-0.59,0.1v0.09h-0.19v0.1h-0.29v0.1c-0.13.03-.26,0.06-0.39,0.1v0.09h-0.2v0.1h-0.19v0.1h-0.2v0.1h-0.19v0.09h-0.2v0.1h-0.19a1.865,1.865,0,0,0-.1.2h-0.2c-0.03.06-.06,0.13-0.09,0.19h-0.2c-0.06.1-.13,0.2-0.19,0.29h-0.2c-0.16.2-.32,0.39-0.49,0.59a1.738,1.738,0,0,0-.19.1v0.19c-0.1.07-.2,0.13-0.3,0.2l-0.09.39h-0.1v0.29h-0.1v1.17a3,3,0,0,1,.39.78c0.1,0.07.2,0.13,0.29,0.2l0.69,0.78h0.19c0.07,0.09.13,0.19,0.2,0.29h0.19a1.738,1.738,0,0,1,.1.19c0.13,0.04.26,0.07,0.39,0.1,0.03,0.07.07,0.13,0.1,0.2l0.39,0.09v0.1c0.19,0.07.39,0.13,0.58,0.2v0.09h0.3v0.1h0.19v0.1c0.16,0.03.33,0.06,0.49,0.1v0.09l2.73,0.78h0.49v0.1h0.49v0.1h0.58v0.1h0.78v0.09h0.68v0.1a0.666,0.666,0,0,1,.59.49,1.2,1.2,0,0,1,0,.98h-0.1c-0.13.16-.26,0.24-0.39,0.39a7.19,7.19,0,0,1-2.24-.3c-0.52-.06-1.04-0.13-1.56-0.19v-0.1c-0.26-.03-0.52-0.06-0.78-0.1v-0.09h-0.39v-0.1h-0.3v-0.1h-0.29v-0.1l-0.68-.09v-0.1h-0.2v-0.1h-0.29v-0.1c-0.16-.03-0.32-0.06-0.49-0.09v-0.1h-0.19v-0.1h-0.29v-0.1c-0.2-.06-0.39-0.13-0.59-0.19v-0.1c-0.13-.03-0.26-0.07-0.39-0.1a1.738,1.738,0,0,0-.1-0.19c-0.13-.04-0.26-0.07-0.39-0.1v-0.1c-0.09-.03-0.19-0.06-0.29-0.1a1.738,1.738,0,0,0-.1-0.19h-0.19a1.865,1.865,0,0,1-.1-0.2h-0.2c-0.16-.19-0.32-0.39-0.48-0.58h-0.2v-0.1c-0.1-.06-0.19-0.13-0.29-0.19v-0.2c-0.16-.13-0.33-0.26-0.49-0.39v-0.19a1.738,1.738,0,0,0-.19-0.1v-0.2h-0.1c-0.07-.19-0.13-0.39-0.2-0.58h-0.09v-0.29h-0.1a6.262,6.262,0,0,1,0-2.44h0.1v-0.3h0.09v-0.19h0.1c0.03-.13.07-0.26,0.1-0.39,0.06-.03.13-0.07,0.19-0.1v-0.19a1.865,1.865,0,0,1,.2-0.1v-0.2c0.29-.26.58-0.52,0.88-0.78,0.09-.13.19-0.26,0.29-0.39h0.19c0.07-.09.13-0.19,0.2-0.29h0.19a1.244,1.244,0,0,0,.1-0.2l0.3-.09v-0.1h0.19c0.03-.07.07-0.13,0.1-0.2h0.19v-0.09h0.2v-0.1h0.19v-0.1h0.2v-0.1h0.19v-0.09c0.2-.07.39-0.13,0.59-0.2v-0.1h0.29v-0.09h0.2v-0.1c0.19-.03.39-0.07,0.58-0.1v-0.1h0.2v-0.09c0.22-.04.45-0.07,0.68-0.1v-0.1h0.29v-0.1h0.29v-0.09h0.4v-0.1h0.39v-0.1h0.39v-0.1h0.48v-0.09h0.49v-0.1h0.59v-0.1h0.58v-0.1h0.78v-0.09h0.98v-0.1h1.56v-0.1a9.529,9.529,0,0,1,2.53.1h1.57v0.1h0.97v0.09h0.78v0.1h0.59v0.1h0.58c1.14,0.29,2.28.58,3.42,0.88v0.09h0.19v0.1c0.2,0.03.39,0.07,0.59,0.1v0.1h0.19v0.09h0.29v0.1c0.2,0.07.39,0.13,0.59,0.2v0.09h0.19v0.1h0.2v0.1c0.19,0.06.39,0.13,0.58,0.19a1.865,1.865,0,0,1,.1.2h0.2a1.738,1.738,0,0,0,.1.19h0.19c0.03,0.07.07,0.14,0.1,0.2h0.19c0.07,0.1.13,0.2,0.2,0.29h0.19l0.69,0.78,0.48,0.39v0.2a1.865,1.865,0,0,1,.2.1v0.19c0.06,0.03.13,0.07,0.19,0.1v0.19h0.1v0.2h0.1v0.29h0.1v0.2h0.09v0.39h0.1a6.473,6.473,0,0,1-.19,2.34h-0.1c-0.07.19-.13,0.39-0.2,0.58h-0.09v0.2a1.865,1.865,0,0,0-.2.1v0.19c-0.13.1-.26,0.2-0.39,0.29-0.03.1-.06,0.2-0.1,0.3h-0.09c-0.07.09-.13,0.19-0.2,0.29h-0.19c-0.13.16-.26,0.32-0.39,0.49h-0.2c-0.06.09-.13,0.19-0.19,0.29h-0.2a1.738,1.738,0,0,1-.1.19,2.469,2.469,0,0,1-.29.1v0.1c-0.2.06-.39,0.13-0.59,0.19-0.03.07-.06,0.13-0.09,0.2h-0.2v0.1h-0.19v0.09h-0.3v0.1h-0.19v0.1c-0.13.03-.26,0.07-0.39,0.1v0.1l-0.49.09v0.1c-0.19.03-.39,0.07-0.58,0.1v0.1h-0.3v0.09h-0.29v0.1h-0.29v0.1c-0.23.03-.46,0.06-0.68,0.1v0.09h-0.4v0.1h-0.39v0.1h-0.48v0.1h-0.49v0.09h-0.49v0.1h-0.68a5,5,0,0,1-.98.2v-0.1h-0.29v-0.1C1582.28,2120.28,1582.19,2120.25,1582.09,2120.21Zm-4.29-10.14c2.61-.04,4.93.2,6.43,1.27a1.738,1.738,0,0,1,.1.19c0.13,0.1.26,0.2,0.39,0.29v0.2h0.1a0.753,0.753,0,0,0,.19.39,3.966,3.966,0,0,1-.09,1.37c-0.07.03-.13,0.06-0.2,0.09v0.2c-0.16.13-.32,0.26-0.49,0.39-0.03.06-.06,0.13-0.09,0.19h-0.2a1.865,1.865,0,0,1-.1.2c-0.29.1-.58,0.19-0.87,0.29v0.1h-0.2v0.1l-0.68.09a11.939,11.939,0,0,1-6.25,0l-0.68-.09v-0.1h-0.19v-0.1h-0.3v-0.1c-0.19-.06-0.39-0.13-0.58-0.19-0.03-.07-0.07-0.13-0.1-0.2h-0.19l-0.39-.48a1.865,1.865,0,0,0-.2-0.1v-0.2c-0.06-.03-0.13-0.06-0.19-0.09a3.737,3.737,0,0,1-.1-1.37,0.755,0.755,0,0,0,.19-0.39h0.1v-0.2c0.07-.03.13-0.06,0.2-0.09,0.09-.13.19-0.26,0.29-0.39h0.19a1.865,1.865,0,0,0,.1-0.2c0.2-.06.39-0.13,0.59-0.19v-0.1h0.19v-0.1h0.2v-0.1h0.29v-0.09h0.29v-0.1h0.39v-0.1h0.49v-0.1h0.49v-0.09A2.842,2.842,0,0,0,1577.8,2110.07Zm0.09,1.95a5.139,5.139,0,0,1-1.26.19v0.1c-0.26.03-.53,0.07-0.79,0.1v0.1h-0.19v0.09h-0.29v0.1h-0.2v0.1c-0.1.03-.19,0.07-0.29,0.1,0.08,0.11-.01.01,0.1,0.09a4.035,4.035,0,0,0,1.46.69h0.49a9.689,9.689,0,0,0,4.58-.1h0.39c0.39-.2.78-0.39,1.17-0.59-0.11-.11,0-0.03-0.19-0.09a1.94,1.94,0,0,0-1.07-.49v-0.1h-0.49A12.4,12.4,0,0,0,1577.89,2112.02Zm0.78,6.73a1.985,1.985,0,0,1,.98.2,1.638,1.638,0,0,0,.19.19v0.2h0.1v0.78a3.589,3.589,0,0,1-.39.39c-0.18.19-.05,0-0.29,0.09a1.192,1.192,0,0,1-.98-0.09,2.1,2.1,0,0,1-.29-1.08,1.035,1.035,0,0,0,.2-0.39,2.08,2.08,0,0,1,.48-0.19v-0.1Z" transform="translate(-1554 -2077)"/>
</svg>
