<svg id="Группа_2" data-name="Группа 2" xmlns="http://www.w3.org/2000/svg" width="56" height="50" viewBox="0 0 56 50">
  <defs>
    <style>
      .cls-1, .cls-2 {
        fill: #4ca6b4;
      }

      .cls-1 {
        opacity: 0.08;
      }

      .cls-2 {
        fill-rule: evenodd;
      }
    </style>
  </defs>
  <circle id="Эллипс_2" data-name="Эллипс 2" class="cls-1" cx="31" cy="25" r="25"/>
  <path id="Фигура_4" data-name="Фигура 4" class="cls-2" d="M246.087,2294.81c0.2,0.07.39,0.13,0.585,0.2,0.033,0.06.065,0.13,0.1,0.19h0.195c0.032,0.07.065,0.13,0.1,0.2,0.13,0.09.261,0.19,0.391,0.29v0.19a1.8,1.8,0,0,0,.195.1c0.574,0.92.39,2.74,0.39,4.2a9.728,9.728,0,0,1-.1,2.73,3.229,3.229,0,0,1-2.342,2.04h-3.318v0.1h0.1c0.033,0.23.065,0.46,0.1,0.69h0.1c0.033,0.13.065,0.25,0.1,0.39h0.1c0.032,0.13.065,0.26,0.1,0.38a1.8,1.8,0,0,0,.195.1v0.2l0.488,0.39v0.19c0.1,0.04.195,0.07,0.293,0.1l0.293,0.39h0.2c0.032,0.07.065,0.13,0.1,0.2h0.2c0.032,0.06.065,0.13,0.1,0.19,0.163,0.03.326,0.07,0.488,0.1v0.1H245.4v0.09H245.7v0.1c0.651,0.1,1.3.2,1.952,0.29a2.006,2.006,0,0,0,.39.49,6.22,6.22,0,0,1-.976,3.81c-0.032.13-.065,0.26-0.1,0.39-0.1.06-.195,0.12-0.293,0.19v0.2l-0.195.09a2.589,2.589,0,0,0-.683.88l1.073,0.39v0.1h0.2v0.1l0.391,0.09c0.032,0.07.065,0.13,0.1,0.2h0.2c0.032,0.06.065,0.13,0.1,0.19h0.2l0.195,0.3h0.2l0.39,0.48c2.271,1.64,3.812,5.73,2.928,9.86l-0.293.09v0.1h-0.2v0.1H209.686v-0.1c-0.13-.03-0.26-0.06-0.39-0.1-0.033-.09-0.066-0.19-0.1-0.29h-0.1v-0.19H209v-1.18a11.386,11.386,0,0,1,.2-2.92v-0.49h0.1v-0.39h0.1v-0.39h0.1v-0.29h0.1v-0.29h0.1c0.032-.13.065-0.26,0.1-0.39h0.1c0.033-.17.065-0.33,0.1-0.49,0.065-.03.13-0.07,0.195-0.1,0.065-.19.13-0.39,0.195-0.58a1.8,1.8,0,0,1,.195-0.1v-0.2l0.195-.09v-0.2c0.1-.06.2-0.13,0.293-0.19v-0.2l0.879-.78c0.162-.2.325-0.39,0.487-0.59h0.2c0.065-.09.13-0.19,0.195-0.29H213c0.032-.06.065-0.13,0.1-0.19H213.3c0.032-.07.065-0.13,0.1-0.2,0.13-.03.261-0.06,0.391-0.1,0.032-.06.065-0.13,0.1-0.19h0.195v-0.1l1.074-.39v-0.19c-1.272-.74-2.53-3.42-2.147-5.56,0.1-.07.2-0.13,0.293-0.2v-0.1h0.195v-0.09c0.455-.04.911-0.07,1.366-0.1v-0.1h0.39v-0.1h0.293v-0.09h0.195v-0.1h0.293v-0.1h0.195c0.033-.06.065-0.13,0.1-0.19h0.195c0.033-.07.065-0.13,0.1-0.2h0.195l0.293-.39H217.3c0.032-.1.065-0.19,0.1-0.29l0.487-.39v-0.2a1.91,1.91,0,0,0,.2-0.1,8.857,8.857,0,0,0,.585-1.56h-3.318c-0.293-.09-0.585-0.19-0.878-0.29v-0.1h-0.195c-0.033-.06-0.065-0.13-0.1-0.19h-0.2c-0.033-.07-0.065-0.13-0.1-0.2-0.13-.09-0.26-0.19-0.39-0.29v-0.19a1.8,1.8,0,0,0-.195-0.1c-0.033-.13-0.065-0.26-0.1-0.39h-0.1a9,9,0,0,1-.2-2.93c0-1.23-.213-2.97.2-3.9h0.1c0.033-.13.065-0.26,0.1-0.39a1.8,1.8,0,0,0,.195-0.1v-0.19c0.065-.03.13-0.07,0.2-0.1l0.293-.39h0.2c0.033-.06.065-0.13,0.1-0.19,0.195-.07.39-0.13,0.585-0.2q0.049-2.145.1-4.29c0.227-.98.455-1.95,0.683-2.93h0.1v-0.19h0.1c0.033-.2.065-0.39,0.1-0.59h0.1c0.033-.13.065-0.26,0.1-0.39h0.1v-0.29h0.1c0.065-.19.13-0.39,0.195-0.59h0.1c0.032-.13.065-0.26,0.1-0.39l0.2-.09c0.065-.2.13-0.39,0.2-0.59a1.8,1.8,0,0,0,.195-0.1v-0.19h0.1c0.032-.1.065-0.2,0.1-0.29a1.8,1.8,0,0,1,.195-0.1v-0.2c0.1-.06.2-0.13,0.293-0.19v-0.2c0.1-.06.195-0.13,0.293-0.19v-0.2l0.585-.48v-0.2c0.26-.23.521-0.45,0.781-0.68l0.293-.39h0.195c0.13-.16.26-0.33,0.39-0.49h0.2l0.292-.39c0.1-.03.195-0.06,0.293-0.1,0.032-.06.065-0.13,0.1-0.19h0.2c0.032-.07.065-0.13,0.1-0.2h0.2c0.032-.06.065-0.13,0.1-0.19,0.1-.04.195-0.07,0.293-0.1v-0.1c0.195-.06.39-0.13,0.585-0.19,0.033-.07.066-0.13,0.1-0.2,0.13-.03.26-0.06,0.39-0.1v-0.09c0.2-.07.391-0.13,0.586-0.2v-0.09c0.162-.04.325-0.07,0.488-0.1a15.32,15.32,0,0,1,2.342-.88c0.325-.03.651-0.07,0.976-0.1v-0.1l1.561-.09v-0.1a7.2,7.2,0,0,1,2.342.1h0.976c0.462,0.13,1.118.24,1.562,0.39h0.39v0.09h0.293v0.1h0.293v0.1h0.39v0.1h0.195v0.09c0.2,0.04.39,0.07,0.586,0.1v0.1c0.13,0.03.26,0.06,0.39,0.1v0.1h0.293v0.09c0.195,0.07.39,0.13,0.585,0.2v0.09c0.13,0.04.261,0.07,0.391,0.1,0.032,0.07.065,0.13,0.1,0.2,0.13,0.03.26,0.06,0.391,0.1,0.032,0.06.065,0.12,0.1,0.19,0.13,0.03.26,0.06,0.391,0.1,0.032,0.06.065,0.13,0.1,0.19h0.195l0.195,0.3h0.2c0.032,0.06.065,0.13,0.1,0.19h0.195c0.066,0.1.131,0.2,0.2,0.29,0.1,0.04.2,0.07,0.292,0.1,0.2,0.23.391,0.46,0.586,0.68h0.195c0.163,0.2.325,0.39,0.488,0.59a1.8,1.8,0,0,1,.195.1v0.19c0.228,0.2.456,0.39,0.683,0.59v0.19c0.13,0.1.261,0.2,0.391,0.29v0.2a1.8,1.8,0,0,1,.195.1v0.19c0.1,0.07.2,0.13,0.293,0.2,0.032,0.13.065,0.26,0.1,0.39l0.195,0.09c0.033,0.1.066,0.2,0.1,0.3h0.1c0.065,0.19.13,0.39,0.195,0.58,0.065,0.03.13,0.07,0.2,0.1,0.1,0.29.195,0.59,0.293,0.88h0.1c0.033,0.13.065,0.26,0.1,0.39h0.1q0.391,1.17.781,2.34v0.49A20.24,20.24,0,0,1,246.087,2294.81Zm-29.277-.19h1.952a11.922,11.922,0,0,1,5.757-10.15c0.131-.03.261-0.06,0.391-0.1v-0.09h0.195v-0.1h0.2v-0.1c0.195-.06.391-0.13,0.586-0.19v-0.1h0.292v-0.1h0.2v-0.1h0.292a11.184,11.184,0,0,1,7.612,0c0.2,0.04.391,0.07,0.586,0.1a11.859,11.859,0,0,1,7.319,10.93h1.952c-0.033-1.3-.065-2.6-0.1-3.91h-0.1v-0.58h-0.1v-0.49h-0.1v-0.39h-0.1v-0.39h-0.1v-0.29h-0.1v-0.29h-0.1v-0.3h-0.1v-0.29h-0.1v-0.19h-0.1v-0.3h-0.1c-0.065-.19-0.13-0.39-0.195-0.58h-0.1v-0.2h-0.1c-0.032-.13-0.065-0.26-0.1-0.39l-0.195-.09c-0.033-.14-0.066-0.26-0.1-0.4l-0.195-.09c-0.033-.13-0.065-0.26-0.1-0.39-0.1-.07-0.195-0.13-0.293-0.2v-0.19a1.8,1.8,0,0,0-.2-0.1v-0.2c-0.13-.09-0.26-0.19-0.39-0.29v-0.19l-0.878-.78c-0.293-.33-0.586-0.65-0.879-0.98H239.06l-0.293-.39h-0.195c-0.032-.06-0.065-0.13-0.1-0.19h-0.2l-0.195-.3h-0.195v-0.09h-0.2c-0.033-.07-0.065-0.13-0.1-0.2-0.13-.03-0.26-0.06-0.39-0.1-0.033-.06-0.065-0.13-0.1-0.19-0.13-.03-0.26-0.07-0.39-0.1v-0.1h-0.195v-0.09c-0.195-.07-0.391-0.13-0.586-0.2v-0.1h-0.293v-0.09h-0.195v-0.1h-0.292v-0.1h-0.293v-0.1h-0.293v-0.09h-0.293v-0.1c-0.26-.04-0.52-0.07-0.78-0.1v-0.1l-1.074-.09v-0.1h-0.878v-0.1a6.549,6.549,0,0,0-2.147.1c-0.488.03-.976,0.06-1.464,0.1-0.813.22-1.626,0.45-2.44,0.68v0.1H225.3v0.09h-0.293v0.1c-0.195.07-.39,0.13-0.585,0.2v0.09c-0.195.07-.391,0.13-0.586,0.2-0.032.06-.065,0.13-0.1,0.19-0.195.07-.391,0.13-0.586,0.2-0.032.06-.065,0.13-0.1,0.19h-0.2l-0.2.3H222.47c-0.032.06-.065,0.13-0.1,0.19h-0.2c-0.065.1-.13,0.2-0.195,0.29h-0.195c-0.293.33-.586,0.65-0.878,0.98-0.358.32-.716,0.65-1.074,0.97v0.2c-0.1.06-.2,0.13-0.293,0.19-0.032.1-.065,0.2-0.1,0.3l-0.195.09v0.2c-0.065.03-.13,0.07-0.2,0.1v0.19c-0.065.03-.13,0.07-0.195,0.1-0.032.13-.065,0.26-0.1,0.39a1.91,1.91,0,0,0-.2.1c-0.065.19-.13,0.39-0.195,0.58h-0.1v0.2h-0.1c-0.065.19-.13,0.39-0.195,0.58h-0.1v0.3h-0.1v0.19h-0.1v0.29h-0.1v0.3h-0.1v0.29h-0.1v0.29h-0.1c-0.033.26-.065,0.52-0.1,0.78h-0.1l-0.1.98h-0.1C216.875,2291.95,216.842,2293.28,216.81,2294.62Zm3.9,0h6.538c0.52-.17,1.041-0.33,1.561-0.49,0.033-.07.065-0.13,0.1-0.2l0.39-.09,0.2-.3h0.2c0.162-.19.325-0.39,0.488-0.58,0.065-.03.13-0.07,0.195-0.1v-0.19c0.1-.07.195-0.13,0.293-0.2q0.341-.78.683-1.56v-0.49c0.205-.68-0.008-1.21.585-1.56v-0.1l0.683-.09v0.09h0.293l0.195,0.3,0.195,0.09a5.526,5.526,0,0,1,.1,1.17h0.1l0.2,1.17h0.1c0.065,0.2.13,0.4,0.2,0.59h0.1v0.2l0.195,0.09v0.2c0.1,0.06.2,0.13,0.293,0.19v0.2a1.8,1.8,0,0,1,.195.1l0.391,0.48h0.195l0.195,0.3,0.39,0.09v0.1c0.195,0.07.391,0.13,0.586,0.19v0.1h0.293v0.1h0.292v0.1h0.586v0.1h2.537a9.243,9.243,0,0,0-3.513-7.42l-0.293-.39h-0.2c-0.065-.09-0.13-0.19-0.195-0.29H235.84c-0.033-.06-0.065-0.13-0.1-0.19-0.13-.04-0.26-0.07-0.39-0.1v-0.1h-0.195c-0.033-.07-0.065-0.13-0.1-0.19h-0.195v-0.1h-0.195v-0.1h-0.293v-0.1c-0.13-.03-0.26-0.06-0.39-0.1v-0.09h-0.293a8.862,8.862,0,0,0-5.368-.3c-0.26.04-.52,0.07-0.78,0.1v0.1h-0.2v0.1l-0.585.09v0.1c-0.13.04-.26,0.07-0.39,0.1v0.1h-0.293c-0.033.06-.065,0.13-0.1,0.19-0.195.07-.39,0.13-0.585,0.2-0.033.06-.065,0.13-0.1,0.19h-0.2v0.1c-0.1.03-.195,0.07-0.293,0.1-0.032.06-.065,0.13-0.1,0.19h-0.2c-0.13.17-.26,0.33-0.39,0.49A9.285,9.285,0,0,0,220.714,2294.62Zm0,1.95v5.46h0.1v0.68h0.1v0.49h0.1v0.39h0.1v0.39h0.1v0.29h0.1v0.29h0.1c0.032,0.13.065,0.26,0.1,0.39h0.1v0.3h0.1v0.19h0.1v0.2a1.8,1.8,0,0,1,.195.1c0.033,0.13.065,0.25,0.1,0.39l0.195,0.09v0.2h0.1v0.19c0.1,0.07.2,0.13,0.293,0.2V2307l0.391,0.3v0.19c0.26,0.23.52,0.46,0.78,0.68l0.195,0.3h0.2l0.292,0.39h0.2c0.032,0.06.065,0.13,0.1,0.19,0.1,0.03.195,0.07,0.293,0.1v0.1h0.2c0.033,0.06.065,0.13,0.1,0.19,0.13,0.03.26,0.07,0.39,0.1,0.033,0.06.065,0.13,0.1,0.19h0.195v0.1h0.293v0.1c0.13,0.03.26,0.06,0.39,0.1v0.09h0.293v0.1h0.2v0.1h0.293v0.1l0.78,0.09v0.1h0.488a7.416,7.416,0,0,0,2.635.2v-0.1h0.683v-0.1h0.488v-0.1h0.391v-0.09h0.39v-0.1c0.195-.03.39-0.07,0.586-0.1v-0.1l0.39-.09v-0.1h0.293v-0.1h0.195v-0.1h0.195c0.033-.06.065-0.13,0.1-0.19,0.13-.03.26-0.07,0.39-0.1,0.032-.06.065-0.13,0.1-0.19,0.131-.04.261-0.07,0.391-0.1,0.032-.07.065-0.13,0.1-0.2l0.293-.09,0.293-.39h0.2l0.683-.78c0.1-.07.2-0.13,0.293-0.2v-0.19l0.39-.3v-0.19c0.1-.07.2-0.13,0.293-0.2v-0.19c0.065-.03.13-0.07,0.195-0.1,0.065-.19.13-0.39,0.2-0.58a1.8,1.8,0,0,1,.195-0.1v-0.2h0.1v-0.19h0.1v-0.3h0.1v-0.19h0.1c0.033-.16.065-0.33,0.1-0.49h0.1v-0.29h0.1v-0.39h0.1v-0.39h0.1v-0.49h0.1v-0.78h0.1v-5.36a12.476,12.476,0,0,1-3.708-.3h-0.391v-0.09h-0.195v-0.1h-0.293v-0.1c-0.13-.03-0.26-0.06-0.39-0.1v-0.09c-0.13-.04-0.26-0.07-0.39-0.1-0.033-.07-0.065-0.13-0.1-0.2l-0.39-.09-0.195-.3h-0.2l-0.684-.78c-0.1-.06-0.195-0.13-0.292-0.19v-0.2c-0.1-.06-0.2-0.13-0.293-0.19v-0.2h-0.1a1.136,1.136,0,0,0-.195-0.29v0.1a6.2,6.2,0,0,0-.781.97c-0.195.17-.39,0.33-0.585,0.49-0.065.1-.13,0.2-0.195,0.29h-0.195c-0.066.1-.131,0.2-0.2,0.3h-0.2c-0.032.06-.065,0.13-0.1,0.19h-0.2v0.1h-0.2v0.1h-0.195v0.09H229.4v0.1H229.2v0.1h-0.2v0.1l-0.684.09v0.1a10.123,10.123,0,0,1-2.83.2h-4.781Zm-1.952,6.43v-6.43h-3.221v0.09c-0.13.04-.26,0.07-0.39,0.1-0.033.1-.065,0.2-0.1,0.29h-0.1v0.2h-0.1v5.07h0.1c0.032,0.13.065,0.26,0.1,0.39A10.03,10.03,0,0,0,218.762,2303Zm23.421-6.43V2303h3.22v-0.09c0.131-.04.261-0.07,0.391-0.1,0.032-.1.065-0.2,0.1-0.29h0.1v-0.2h0.1v-5.07h-0.1c-0.033-.13-0.065-0.26-0.1-0.39A10.024,10.024,0,0,0,242.183,2296.57Zm-16.883,1.95a2.852,2.852,0,0,1,.976.19,1.353,1.353,0,0,1,.293,1.08h-0.1c-0.032.12-.065,0.26-0.1,0.39a2.089,2.089,0,0,1-1.074.29,0.57,0.57,0,0,0-.39-0.2,2.008,2.008,0,0,1-.293-1.07,0.961,0.961,0,0,0,.2-0.39,2.926,2.926,0,0,1,.488-0.2v-0.09Zm9.759,0a2.857,2.857,0,0,1,.976.19,1.353,1.353,0,0,1,.293,1.08h-0.1c-0.032.12-.065,0.26-0.1,0.39a2.082,2.082,0,0,1-1.073.29,0.57,0.57,0,0,0-.39-0.2,2.008,2.008,0,0,1-.293-1.07,0.961,0.961,0,0,0,.195-0.39,2.926,2.926,0,0,1,.488-0.2v-0.09ZM233.4,2307a4.3,4.3,0,0,0-.683.39c-0.2.04-.39,0.07-0.586,0.1v0.1h-0.488a4.535,4.535,0,0,1-2.732-.1h-0.39v-0.1h-0.293v-0.09a0.91,0.91,0,0,1-.781-0.59c-0.43-.43.126-1.19,0.488-1.27v-0.1c0.325,0.04.651,0.07,0.976,0.1v0.1H229.2v0.1H229.5a2.788,2.788,0,0,0,1.367.19v-0.09h0.585v-0.1h0.391v-0.1h0.195v-0.1h0.293v-0.1a1.569,1.569,0,0,1,.975.2,2.036,2.036,0,0,1,.293,1.07A0.556,0.556,0,0,0,233.4,2307Zm-8.978,4c-0.1-.03-0.195-0.06-0.293-0.1v-0.09h-0.195c-0.033-.07-0.065-0.13-0.1-0.2h-0.2c-0.032-.06-0.065-0.13-0.1-0.19h-0.2l-0.292-.39h-0.2c-0.292-.33-0.585-0.65-0.878-0.98l-0.488-.39v-0.19l-0.39-.3v-0.19c-0.1-.07-0.2-0.13-0.293-0.2v-0.19c-0.065-.03-0.13-0.07-0.195-0.1v-0.19a1.978,1.978,0,0,1-.39-0.69c-0.112.11-.039,0-0.1,0.2a0.793,0.793,0,0,0-.195.39h-0.1v0.19h-0.1c-0.033.1-.065,0.2-0.1,0.3l-0.195.09v0.2c-0.13.1-.26,0.19-0.391,0.29v0.2l-0.585.48c-0.033.07-.065,0.13-0.1,0.2h-0.2c-0.065.1-.13,0.19-0.195,0.29h-0.195c-0.033.07-.065,0.13-0.1,0.2h-0.195c-0.032.06-.065,0.13-0.1,0.19-0.131.03-.261,0.07-0.391,0.1v0.1c-0.195.06-.39,0.13-0.585,0.19v0.1h-0.293v0.1h-0.293v0.09h-0.293v0.1h-0.488v0.1h-0.1v0.39h0.1c0.033,0.19.065,0.39,0.1,0.58h0.1c0.033,0.13.066,0.27,0.1,0.4h0.1v0.19c0.065,0.03.13,0.07,0.2,0.1v0.19l0.976,1.08h0.195c0.065,0.09.13,0.19,0.195,0.29H217.2v0.1c0.2,0.06.391,0.12,0.586,0.19v0.1c0.715-.07,1.431-0.13,2.147-0.2v-0.09h0.781c0.913-.27,2.156-0.31,3.122-0.49a0.17,0.17,0,0,1,.1-0.1C223.964,2312.53,224.383,2311.94,224.422,2311Zm12.1,0c0.195,0.85.39,1.69,0.585,2.54,1.238,0.22,2.74.25,3.9,0.58h0.781v0.1c0.455,0.03.911,0.07,1.366,0.1a4.933,4.933,0,0,0,2.83-3.61,0.17,0.17,0,0,1-.1-0.1,4.646,4.646,0,0,1-2.439-.97h-0.2c-0.032-.07-0.065-0.13-0.1-0.2h-0.195c-0.065-.1-0.13-0.19-0.195-0.29h-0.2c-0.162-.2-0.325-0.39-0.488-0.59l-0.2-.09v-0.2c-0.13-.1-0.26-0.19-0.39-0.29v-0.2l-0.195-.09a4.063,4.063,0,0,1-.488-1.08c-0.111.11-.039,0-0.1,0.2a4.508,4.508,0,0,0-.585.97c-0.1.07-.2,0.13-0.293,0.2v0.19l-1.854,1.95h-0.195c-0.066.1-.131,0.2-0.2,0.3H237.4c-0.065.09-.13,0.19-0.2,0.29A1.915,1.915,0,0,1,236.523,2311Zm-10.247.98c-0.2.68-.39,1.36-0.585,2.05a2.122,2.122,0,0,0,.292,1.46v0.29h0.1v0.2l0.2,0.09c0.033,0.13.065,0.26,0.1,0.39a1.8,1.8,0,0,0,.195.1v0.2c0.1,0.06.2,0.13,0.293,0.19,0.195,0.23.39,0.46,0.585,0.68h0.195c0.033,0.07.065,0.13,0.1,0.2h0.195c0.033,0.06.065,0.13,0.1,0.2l0.39,0.09v0.1c0.195,0.03.39,0.06,0.586,0.1,3.074,1.19,5.953-1.32,6.343-3.81-0.228-.84-0.456-1.69-0.683-2.53A12.173,12.173,0,0,1,226.276,2311.98Zm-2.342,3.61a8.486,8.486,0,0,0-2.342.29h-0.781v0.1H220.03v0.09h-0.683c-0.976.17-1.952,0.33-2.927,0.49a7.776,7.776,0,0,0-5.368,5.76q-0.048,1.365-.1,2.73H249.99q-0.048-1.365-.1-2.73a7.292,7.292,0,0,0-2.831-4.39l-0.2-.3h-0.195c-0.032-.06-0.065-0.13-0.1-0.19-0.131-.03-0.261-0.07-0.391-0.1v-0.1h-0.195v-0.09c-0.195-.07-0.39-0.13-0.586-0.2v-0.1h-0.292v-0.09h-0.2v-0.1h-0.39v-0.1h-0.293v-0.1h-0.488v-0.09h-0.585v-0.1h-0.683v-0.1H241.7v-0.1h-0.781v-0.09h-0.683v-0.1H239.45v-0.1c-0.357-.03-0.715-0.06-1.073-0.1a3.855,3.855,0,0,1-1.269-.19v0.1h-0.1c-0.033.19-.065,0.39-0.1,0.58h-0.1v0.2h-0.1v0.29h-0.1v0.19h-0.1v0.2a1.8,1.8,0,0,0-.195.1c-0.033.13-.065,0.26-0.1,0.39l-0.195.09v0.2l-0.488.39v0.2c-0.13.09-.26,0.19-0.39,0.29v0.1h-0.2l-0.39.48h-0.195c-0.033.07-.065,0.13-0.1,0.2-0.13.03-.26,0.06-0.39,0.1-0.033.06-.065,0.12-0.1,0.19H233.6v0.1H233.4v0.1h-0.293v0.09h-0.195v0.1h-0.293a5.927,5.927,0,0,1-3.9.1h-0.391v-0.1H228.13v-0.1h-0.293v-0.09c-0.195-.07-0.39-0.13-0.585-0.2v-0.1l-0.39-.09c-0.033-.07-0.066-0.13-0.1-0.2h-0.2c-0.033-.06-0.065-0.13-0.1-0.19h-0.195c-0.13-.17-0.26-0.33-0.39-0.49l-0.879-.78v-0.2a1.8,1.8,0,0,1-.195-0.1v-0.19c-0.065-.03-0.13-0.07-0.2-0.1-0.033-.13-0.065-0.26-0.1-0.39A4.511,4.511,0,0,1,223.934,2315.59Zm15.029,4.97a25.459,25.459,0,0,1,4.879.2,2.008,2.008,0,0,1,.293,1.07,0.537,0.537,0,0,0-.195.39c-0.1.03-.2,0.06-0.293,0.1v0.09h-0.195v0.1h-4.489v-0.1l-0.391-.09a2.056,2.056,0,0,1-.293-1.08,0.965,0.965,0,0,0,.2-0.39,2.168,2.168,0,0,1,.488-0.19v-0.1Zm7.807,0a3.1,3.1,0,0,1,.976.2,1.33,1.33,0,0,1,.292,1.07h-0.1c-0.033.13-.065,0.26-0.1,0.39a1.993,1.993,0,0,1-1.073.29,0.527,0.527,0,0,0-.391-0.19,2.047,2.047,0,0,1-.292-1.08,0.974,0.974,0,0,0,.2-0.39,2.168,2.168,0,0,1,.488-0.19v-0.1Z" transform="translate(-209 -2277)"/>
</svg>
