<svg id="Группа_4" data-name="Группа 4" xmlns="http://www.w3.org/2000/svg" width="60" height="50" viewBox="0 0 60 50">
  <defs>
    <style>
      .cls-1, .cls-2 {
        fill: #4ca6b4;
      }

      .cls-1 {
        opacity: 0.08;
      }

      .cls-2 {
        fill-rule: evenodd;
      }
    </style>
  </defs>
  <circle id="Эллипс_2_копия_2" data-name="Эллипс 2 копия 2" class="cls-1" cx="35" cy="25" r="25"/>
  <path id="Фигура_6" data-name="Фигура 6" class="cls-2" d="M990.809,2304.07v-0.19c-0.065-.03-0.129-0.07-0.194-0.1a1.738,1.738,0,0,1,.1-1.07,0.751,0.751,0,0,0,.2-0.2H991.1v-0.1h0.2v-0.09c0.195-.07.389-0.13,0.584-0.2v-0.1h0.293v-0.09c0.129-.04.259-0.07,0.389-0.1v-0.1c0.13-.03.26-0.06,0.39-0.1v-0.09a3.148,3.148,0,0,0,.974-0.49h-0.1v-0.49h-0.1a6.464,6.464,0,0,1,.293-2.34h0.1v-0.2h0.1v-0.19h0.1v-0.2h0.1v-0.19h0.1v-0.2c0.1-.06.2-0.13,0.292-0.19v-0.2l0.585-.48c0.032-.07.065-0.13,0.1-0.2h0.2c0.065-.1.13-0.19,0.195-0.29,0.2-.07.39-0.13,0.585-0.2,0.032-.06.065-0.13,0.1-0.19,0.292-.1.585-0.2,0.877-0.29v-0.1h0.2V2295h0.2v-0.1c0.195-.06.39-0.13,0.584-0.19v-0.1H998.7v-0.1l0.39-.09v-0.1a5.149,5.149,0,0,0,1.368-.69,4.166,4.166,0,0,1-.784-0.78c-0.519-.48-1.039-0.97-1.559-1.46l-0.682-.78a1.085,1.085,0,0,1,.39-1.17,1.2,1.2,0,0,1,.877-0.2l2.728,2.64a1.732,1.732,0,0,0,1.17.88v-0.1c0.13-.03.26-0.07,0.39-0.1v-0.1h0.19v-0.09h0.2v-0.1h0.19v-0.1h0.2v-0.1h0.19v-0.09h0.3v-0.1h0.19v-0.1h0.2v-0.1h0.19v-0.09h0.2v-0.1h0.19v-0.1h0.19v-0.1l0.39-.09v-0.1h0.3V2291h0.19v-0.1h0.2v-0.1h0.19v-0.09h0.2v-0.1h0.19v-0.1c0.2-.06.39-0.13,0.59-0.19v-0.1h0.29v-0.1c0.13-.03.26-0.06,0.39-0.1v-0.09c0.13-.04.26-0.07,0.39-0.1v-0.1h0.19v-0.1c0.2-.06.39-0.13,0.59-0.19v-0.1h0.29v-0.1H1010v-0.09h0.2v-0.1h0.19v-0.1h0.2v-0.1h0.19v-0.09h0.2v-0.1c0.13-.03.26-0.07,0.39-0.1v-0.1h0.29v-0.09c0.13-.04.26-0.07,0.39-0.1v-0.1c0.2-.06.39-0.13,0.59-0.19v-0.1c0.19-.07.38-0.13,0.58-0.2v-0.09h0.29v-0.1c0.2-.07.39-0.13,0.59-0.2v-0.09h0.19v-0.1h0.2V2287h0.19v-0.1l0.39-.09v-0.1h0.29v-0.1c0.2-.06.39-0.13,0.59-0.19v-0.1c0.19-.07.39-0.13,0.58-0.2v-0.1l0.39-.09v-0.1h0.29v-0.1c0.2-.06.39-0.13,0.59-0.19v-0.1h0.19v-0.1h0.2v-0.1h0.19v-0.09h0.2v-0.1h0.19c1.3-1.33,2.6-2.67,3.9-4,0.26-.03.52-0.07,0.78-0.1a7.448,7.448,0,0,1,1.75,1.66,0.165,0.165,0,0,0,.1-0.1q2.58-2.535,5.17-5.07h0.19v-0.1l0.49-.09v-0.1h0.39v-0.1a2.753,2.753,0,0,1,1.85.39h0.19a1.865,1.865,0,0,1,.1.2h0.2c0.03,0.06.06,0.13,0.09,0.19,0.13,0.1.26,0.2,0.39,0.29v0.2a1.865,1.865,0,0,1,.2.1v0.19a2.767,2.767,0,0,1,.39,1.85h-0.1v0.4h-0.1v0.29h-0.09c-0.04.13-.07,0.26-0.1,0.39a7.729,7.729,0,0,1-1.07,1.07c-0.75.78-1.5,1.56-2.24,2.34h-0.1l-1.17,1.17a2.751,2.751,0,0,1-.59.59v0.1h0.1c0.47,0.8,1.53,1,1.56,2.24h-0.1v0.29c-0.26.23-.52,0.46-0.78,0.68-0.55.59-1.1,1.18-1.65,1.76-0.52.49-1.04,0.98-1.56,1.46v0.2h-0.1c-0.06.19-.13,0.39-0.19,0.59h-0.1v0.29h-0.1c-0.03.13-.06,0.26-0.1,0.39h-0.09v0.19h-0.1v0.2h-0.1v0.19h-0.1c-0.06.2-.13,0.39-0.19,0.59h-0.1v0.29h-0.1l-0.09.39h-0.1v0.2h-0.1v0.19h-0.1v0.2h-0.09c-0.07.19-.13,0.39-0.2,0.58h-0.1v0.29h-0.09c-0.04.13-.07,0.26-0.1,0.39h-0.1v0.2h-0.1v0.19h-0.09v0.2h-0.1c-0.06.19-.13,0.39-0.19,0.59h-0.1v0.29h-0.1c-0.03.13-.06,0.26-0.1,0.39h-0.09v0.19h-0.1v0.2h-0.1v0.19h-0.1c-0.06.2-.13,0.39-0.19,0.59h-0.1v0.29h-0.1l-0.09.39h-0.1v0.2h-0.1v0.19h-0.1v0.2h-0.09c-0.07.19-.13,0.39-0.2,0.58h-0.1v0.3h-0.09c-0.04.12-.07,0.26-0.1,0.38h-0.1v0.2h-0.1v0.2h-0.09v0.19h-0.1c-0.07.2-.13,0.39-0.2,0.59h-0.09v0.29h-0.1c-0.03.13-.07,0.26-0.1,0.39h-0.1v0.19h-0.09v0.2h-0.1v0.19h-0.1c-0.06.2-.13,0.39-0.19,0.59h-0.1v0.29h-0.1v0.2h-0.09v0.19h-0.1v0.2h-0.1v0.19h-0.1v0.2h-0.09c-0.07.19-.13,0.39-0.2,0.58h-0.1v0.3a1.491,1.491,0,0,0-.29.68,4.584,4.584,0,0,1,.88.88c0.61,0.58,1.23,1.17,1.85,1.75,0.26,0.3.52,0.59,0.78,0.88,0.02,1.01-.34,1.31-1.37,1.27-0.26-.23-0.52-0.46-0.78-0.68-0.48-.52-0.97-1.04-1.46-1.57a4.115,4.115,0,0,1-.78-0.78h-0.09a2.588,2.588,0,0,1-.39.78v0.2h-0.1v0.29h-0.1c-0.03.13-.06,0.26-0.1,0.39h-0.09v0.2h-0.1v0.19h-0.1c-0.06.2-.13,0.39-0.19,0.59h-0.1v0.29h-0.1c-0.06.2-.13,0.39-0.19,0.59h-0.1v0.19h-0.1v0.2h-0.09c-0.07.19-.13,0.39-0.2,0.58-0.1.07-.19,0.13-0.29,0.2v0.19l-0.39.3-0.49.58h-0.19a1.865,1.865,0,0,0-.1.2c-0.1.03-.2,0.06-0.29,0.09v0.1c-0.59.2-1.17,0.39-1.76,0.59-0.61-.04-1.23-0.07-1.85-0.1-0.36.78-.71,1.56-1.07,2.34h-0.1v0.19a6.7,6.7,0,0,1-.39.59h-0.19v0.1h-0.2v0.1c-0.29-.07-0.58-0.14-0.87-0.2a1.82,1.82,0,0,1-.3-1.17h0.1c0.03-.13.07-0.26,0.1-0.39h0.1v-0.29h0.09v-0.2h0.1v-0.19h0.1v-0.2h0.1v-0.19h0.09v-0.2h0.1c0.07-.19.13-0.39,0.2-0.58h0.09v-0.3h0.1c0.03-.13.06-0.26,0.1-0.39h0.09c0.04-.13.07-0.26,0.1-0.39h0.1v-0.19h0.1c0.06-.2.13-0.39,0.19-0.59h0.1v-0.29h0.1l0.09-.39h0.1c0.07-.2.13-0.39,0.2-0.59h0.09c0.07-.19.13-0.39,0.2-0.58h0.1v-0.29h0.09c0.04-.13.07-0.26,0.1-0.39h0.1v-0.2h0.1v-0.19h0.09v-0.2h0.1c0.07-.19.13-0.39,0.2-0.59h0.09v-0.29h0.1c0.03-.13.07-0.26,0.1-0.39h0.1v-0.19h0.09v-0.2h0.1v-0.19h0.1c0.06-.2.13-0.39,0.19-0.59h0.1v-0.29h0.1c0.03-.13.06-0.26,0.1-0.39h0.09v-0.2h0.1v-0.19h0.1v-0.2h0.09c0.07-.19.13-0.39,0.2-0.58h0.1c0.03-.17.06-0.33,0.09-0.49a2.524,2.524,0,0,0,.49-1.07l-2.82-2.73a2.758,2.758,0,0,0-1.08-.98,9.948,9.948,0,0,1-1.55,1.56h-0.78c-0.12-.11,0-0.04-0.2-0.1-0.06-.09-0.13-0.19-0.19-0.29h-0.1c-0.03-.32-0.07-0.65-0.1-0.97a2.625,2.625,0,0,0,.39-0.49,3.929,3.929,0,0,0,1.17-1.27c-0.94-.91-1.88-1.82-2.83-2.73a2.807,2.807,0,0,0-1.07-.98v0.1c-0.16.03-.32,0.06-0.48,0.1v0.09h-0.2v0.1h-0.19v0.1h-0.2v0.1h-0.19v0.09h-0.2v0.1h-0.19v0.1c-0.2.06-.39,0.13-0.59,0.19v0.1h-0.29v0.1c-0.13.03-.26,0.06-0.39,0.1v0.1l-0.39.09v0.1c-0.19.07-.39,0.13-0.58,0.2v0.09h-0.3v0.1h-0.19v0.1h-0.2v0.1h-0.192v0.09h-0.194v0.1h-0.2v0.1h-0.195v0.1c-0.2.06-.39,0.13-0.585,0.19v0.1h-0.292v0.1l-0.39.09v0.1c-0.195.07-.39,0.13-0.584,0.2v0.09c-0.2.07-.39,0.13-0.585,0.2v0.1h-0.292v0.09c-0.195.07-.39,0.13-0.585,0.2v0.1h-0.2v0.09c-0.13.04-.26,0.07-0.39,0.1v0.1h-0.292c-0.032.06-.065,0.13-0.1,0.19-0.163.04-.325,0.07-0.488,0.1v0.1h-0.194v0.1H994.22v0.09c-0.2.07-.39,0.13-0.585,0.2v0.1h-0.292v0.1l-0.39.09v0.1c-0.13.03-.26,0.07-0.39,0.1v0.09c-0.195.07-.39,0.14-0.584,0.2v0.1H991.1A0.3,0.3,0,0,0,990.809,2304.07ZM1031.73,2279a1.037,1.037,0,0,1-.39.2c-0.03.06-.06,0.13-0.09,0.19-0.17.13-.33,0.26-0.49,0.39-0.91.95-1.82,1.89-2.73,2.83a5.362,5.362,0,0,0-1.36,1.46c0.5,0.3.9,1.12,1.46,1.27q1.695-1.755,3.41-3.51c0.35-.35,1.75-1.3,1.46-2.15h-0.1c-0.03-.13-0.06-0.26-0.1-0.39A2.065,2.065,0,0,0,1031.73,2279Zm-8.67,4.39a6.021,6.021,0,0,1-1.07,1.07c-0.75.78-1.5,1.56-2.24,2.35a6.789,6.789,0,0,0-1.37,1.46,4.46,4.46,0,0,0,.1,4.1c0.1,0.06.2,0.13,0.29,0.19v0.2c0.07,0.03.13,0.06,0.2,0.09,0.1,0.13.19,0.26,0.29,0.39h0.2c0.06,0.1.13,0.2,0.19,0.3h0.2v0.09c0.19,0.07.39,0.13,0.58,0.2v0.1h0.39v0.1a4.843,4.843,0,0,0,2.34-.1v-0.1c0.13-.03.26-0.07,0.39-0.1v-0.1l0.39-.09a1.865,1.865,0,0,1,.1-0.2,18.564,18.564,0,0,0,2.63-2.54c0.65-.61,1.3-1.23,1.94-1.85v-0.19c-1.33-1.3-2.66-2.61-3.99-3.91A5.984,5.984,0,0,0,1023.06,2283.39Zm-30.594,1.76c0.7-.03,1.135.05,1.266,0.58h0.1v0.69a5.435,5.435,0,0,0-.39.48c-0.1.07-.2,0.13-0.292,0.2v0.19l-0.877.78v0.2c-0.13.1-.26,0.19-0.39,0.29v0.2c-0.13.09-.26,0.19-0.389,0.29v0.19a1.8,1.8,0,0,1-.195.1v0.2c-0.1.06-.2,0.13-0.293,0.19v0.2l-0.2.09v0.2a1.788,1.788,0,0,0-.194.1c-0.033.1-.065,0.19-0.1,0.29h-0.1c-0.033.13-.065,0.26-0.1,0.39-0.065.03-.13,0.07-0.2,0.1-0.065.19-.13,0.39-0.195,0.58a1.7,1.7,0,0,1-.194.1v0.2h-0.1v0.19h-0.1v0.2h-0.1v0.19h-0.1v0.2h-0.1c-0.064.19-.129,0.39-0.194,0.58h-0.1c-0.032.16-.065,0.33-0.1,0.49h-0.1v0.2h-0.1v0.29h-0.1v0.19h-0.1c-0.162.59-.325,1.17-0.487,1.76h-0.1c-0.227,1.07-.454,2.14-0.682,3.22v0.78h-0.1v1.17h-0.1a9.163,9.163,0,0,0,.1,2.44v1.27h0.1v0.78h0.1v0.58h0.1V2307h0.1v0.49h0.1v0.39h0.1v0.39h0.1v0.39h0.1v0.39h0.1v0.29h0.1v0.29h0.1v0.3h0.1c0.033,0.19.065,0.39,0.1,0.58h0.1v0.2h0.1V2311h0.1v0.19h0.1v0.3h0.1c0.032,0.13.065,0.26,0.1,0.39h0.1v0.19h0.1v0.29h0.1c0.033,0.14.065,0.27,0.1,0.4h0.1c0.033,0.13.065,0.26,0.1,0.39l0.2,0.09v0.2h0.1v0.19h0.1v0.2h0.1v0.19h0.1c0.033,0.1.065,0.2,0.1,0.3l0.195,0.09c0.032,0.13.065,0.26,0.1,0.39a1.8,1.8,0,0,0,.195.1,1.059,1.059,0,0,1-1.169,1.46v-0.09H989.25l-0.584-.78v-0.2a1.8,1.8,0,0,1-.2-0.1c-0.033-.13-0.065-0.26-0.1-0.39l-0.2-.09v-0.2h-0.1v-0.19h-0.1v-0.2h-0.1v-0.19h-0.1v-0.2h-0.1v-0.19h-0.1v-0.2h-0.1v-0.19h-0.1v-0.2h-0.1c-0.033-.13-0.065-0.26-0.1-0.39h-0.1v-0.2h-0.1v-0.29h-0.1v-0.19h-0.1v-0.3h-0.1v-0.19h-0.1c-0.065-.29-0.13-0.59-0.2-0.88h-0.1v-0.29h-0.1v-0.29h-0.1v-0.3h-0.1c-0.032-.22-0.065-0.45-0.1-0.68h-0.1c-0.032-.26-0.065-0.52-0.1-0.78h-0.1v-0.49c-0.144-.47-0.247-1.16-0.389-1.66q-0.049-.975-0.1-1.95h-0.1a11.831,11.831,0,0,1,.1-2.92v-1.17h0.1v-0.79h0.1v-0.58h0.1l0.195-1.56h0.1v-0.29h0.1c0.033-.26.065-0.52,0.1-0.78h0.1q0.049-.345.1-0.69h0.1V2295h0.1v-0.29h0.1c0.032-.2.065-0.39,0.1-0.59h0.1c0.032-.16.065-0.32,0.1-0.49h0.1v-0.19h0.1v-0.29h0.1c0.033-.13.065-0.26,0.1-0.39h0.1v-0.2h0.1v-0.29h0.1c0.065-.2.13-0.39,0.2-0.59h0.1v-0.19h0.1c0.032-.13.065-0.26,0.1-0.39,0.065-.03.13-0.07,0.2-0.1v-0.2h0.1v-0.19h0.1v-0.19h0.1v-0.2c0.064-.03.129-0.07,0.194-0.1v-0.19h0.1v-0.2a1.8,1.8,0,0,0,.195-0.1v-0.19c0.065-.03.13-0.07,0.2-0.1v-0.19a1.884,1.884,0,0,1,.194-0.1v-0.2l0.2-.09v-0.2c0.1-.06.195-0.13,0.293-0.19v-0.2a1.7,1.7,0,0,0,.194-0.1v-0.19c0.065-.03.13-0.07,0.195-0.1v-0.1l0.2-.09v-0.2c0.13-.1.26-0.19,0.39-0.29v-0.2l0.487-.39v-0.09a1.8,1.8,0,0,1,.2-0.1v-0.2C991.751,2285.8,992.109,2285.47,992.466,2285.15Zm11.4,9.07v0.2c0.57,0.33.86,1.21,1.65,1.26a0.792,0.792,0,0,1,.39-0.19v-0.1h0.2v-0.1h0.19v-0.09h0.2v-0.1h0.19V2295h0.29v-0.1c0.13-.03.26-0.06,0.39-0.1v-0.09h0.2v-0.1h0.19v-0.1h0.2v-0.09c0.19-.07.39-0.14,0.58-0.2v-0.1h0.3v-0.09c0.13-.04.25-0.07,0.38-0.1v-0.1h0.2v-0.1h0.19v-0.1h0.2v-0.09c0.19-.07.39-0.13,0.58-0.2v-0.1h0.3v-0.09c0.13-.04.26-0.07,0.39-0.1v-0.1h0.19v-0.1h0.2v-0.09h0.19v-0.1c0.2-.07.39-0.13,0.59-0.2v-0.09h0.29v-0.1c0.13-.03.26-0.07,0.39-0.1v-0.1h0.19v-0.09h0.2v-0.1h0.19v-0.1c0.2-.06.39-0.13,0.59-0.19v-0.1h0.29v-0.1c0.52-.23,1.04-0.45,1.56-0.68a9.83,9.83,0,0,1,.29-2.34h-0.1v0.09c-0.13.04-.26,0.07-0.39,0.1v0.1h-0.19v0.1h-0.2v0.09h-0.19v0.1h-0.2v0.1h-0.19v0.1h-0.29v0.09c-0.13.04-.26,0.07-0.39,0.1v0.1h-0.2v0.1h-0.19v0.09h-0.2v0.1c-0.19.07-.39,0.13-0.58,0.2v0.09h-0.29v0.1c-0.13.03-.26,0.07-0.39,0.1v0.1h-0.2v0.1h-0.19v0.09h-0.2v0.1c-0.19.07-.39,0.13-0.58,0.19v0.1h-0.3v0.1c-0.19.07-.39,0.13-0.58,0.2v0.09H1010v0.1h-0.19v0.1h-0.2v0.1h-0.19v0.09h-0.2v0.1h-0.19v0.1h-0.29v0.1l-0.39.09v0.1h-0.2v0.1h-0.19v0.1h-0.2v0.09c-0.19.07-.39,0.13-0.58,0.2v0.1h-0.29v0.09c-0.13.04-.26,0.07-0.39,0.1v0.1h-0.2v0.1h-0.19v0.09c-0.2.07-.39,0.13-0.59,0.2v0.1h-0.29v0.09h-0.19v0.1h-0.2A3.835,3.835,0,0,1,1003.87,2294.22Zm17.63-4.98a3.192,3.192,0,0,1,.98.2,1.348,1.348,0,0,1,.29,1.07h-0.1c-0.03.13-.06,0.26-0.1,0.39-0.77.39-1.25,0.44-1.65-.39h-0.1v-0.58h0.1l0.09-.39a2.2,2.2,0,0,1,.49-0.2v-0.1Zm-14.71,7.91v0.19a6.941,6.941,0,0,1,1.27,1.27c0.45,0.45.91,0.91,1.36,1.37a2.9,2.9,0,0,1,.58.58,0.165,0.165,0,0,0,.1-0.1c0.61-.36.92-1,1.56-1.36a0.869,0.869,0,0,1,.78-0.2v0.1c0.13,0.03.26,0.06,0.39,0.1a1.974,1.974,0,0,1,.29,1.07,0.936,0.936,0,0,0-.19.39c-0.49.46-.98,0.91-1.46,1.37a0.135,0.135,0,0,0,.09.09,3.225,3.225,0,0,0,.69.69c0.55,0.55,1.1,1.1,1.65,1.66a2.43,2.43,0,0,0,.98.87v-0.09h0.09c0.04-.17.07-0.33,0.1-0.49h0.1v-0.2h0.1v-0.19h0.09v-0.2h0.1v-0.19h0.1v-0.2h0.1v-0.19h0.09c0.04-.13.07-0.26,0.1-0.39h0.1v-0.3h0.1v-0.19h0.09v-0.2h0.1v-0.19h0.1v-0.2h0.1v-0.19h0.09v-0.2h0.1c0.03-.13.06-0.26,0.1-0.39h0.09v-0.29h0.1v-0.19h0.1v-0.2h0.1v-0.19h0.09v-0.2h0.1c0.03-.13.07-0.26,0.1-0.39h0.1l0.09-.39h0.1v-0.29h0.1v-0.2h0.1l0.09-.39h0.1v-0.19h0.1v-0.2h0.1v-0.19h0.09v-0.2h0.1c0.03-.16.07-0.32,0.1-0.49h0.1v-0.19h0.09v-0.2h0.1v-0.19h0.1v-0.2h0.1v-0.19h0.09v-0.2h0.1c0.03-.13.07-0.26,0.1-0.39h0.1v-0.09h-0.1a0.77,0.77,0,0,0-.39-0.2c-0.03-.07-0.07-0.13-0.1-0.19h-0.19v-0.1h-0.2c-0.06-.1-0.13-0.2-0.19-0.3h-0.2c-0.06-.09-0.13-0.19-0.19-0.29a4.063,4.063,0,0,1-1.37-1.85,1.587,1.587,0,0,0-.68.29h-0.29v0.1c-0.13.03-.26,0.06-0.39,0.1v0.09h-0.2v0.1h-0.19v0.1h-0.2v0.1c-0.19.06-.39,0.13-0.58,0.19v0.1h-0.29v0.1c-0.2.06-.39,0.13-0.59,0.19v0.1h-0.19v0.1h-0.2v0.1h-0.19v0.09c-0.13.04-.26,0.07-0.39,0.1v0.1h-0.29a1.738,1.738,0,0,0-.1.19h-0.29v0.1c-0.13.03-.26,0.06-0.39,0.1v0.1h-0.2v0.09h-0.19v0.1c-0.2.07-.39,0.13-0.59,0.2v0.09h-0.29v0.1c-0.13.03-.26,0.07-0.39,0.1v0.1h-0.2v0.09h-0.19v0.1h-0.19v0.1c-0.2.06-.39,0.13-0.59,0.19v0.1c-0.16.03-.32,0.07-0.49,0.1v0.1h-0.19A2.992,2.992,0,0,1,1006.79,2297.15Zm-11.109,3.12q3.849-1.815,7.7-3.61v-0.1c-0.53-.31-0.98-1.21-1.56-1.36v0.09h-0.29v0.1h-0.2v0.1h-0.19v0.1h-0.2v0.09h-0.19v0.1h-0.2v0.1h-0.19v0.1c-0.2.06-.392,0.13-0.586,0.19v0.1h-0.293v0.1l-0.389.09v0.1c-0.13.03-.26,0.07-0.39,0.1v0.1c-0.2.06-.39,0.13-0.585,0.19v0.1h-0.292v0.1h-0.2v0.09c-0.2.07-.39,0.13-0.585,0.2A3.218,3.218,0,0,0,995.681,2300.27Zm25.629-4.2c-0.07.2-.13,0.39-0.2,0.59h-0.1v0.29h-0.09v0.2h-0.1v0.19h-0.1v0.2h-0.1v0.19h-0.09v0.2h-0.1v0.19h-0.1l-0.09.39h-0.1v0.29h-0.1c-0.03.13-.06,0.26-0.1,0.39h-0.09v0.2h-0.1v0.2h-0.1v0.19h-0.1c-0.06.2-.13,0.39-0.19,0.59h-0.1v0.29h-0.1l-0.09.39h-0.1v0.19h-0.1v0.2h-0.1v0.19h-0.09c-0.07.2-.13,0.39-0.2,0.59h-0.1v0.29h-0.09c-0.04.13-.07,0.26-0.1,0.39h-0.1v0.2h-0.1v0.19h-0.09v0.2h-0.1c-0.07.19-.13,0.39-0.2,0.58h-0.09v0.3h-0.1c-0.03.12-.07,0.26-0.1,0.39h-0.1v0.19h-0.09v0.2h-0.1v0.19h-0.1c-0.06.2-.13,0.39-0.19,0.59h-0.1v0.29a1.483,1.483,0,0,0-.29.68c0.5,0.3.9,1.12,1.46,1.27v-0.1a0.629,0.629,0,0,0,.19-0.39h0.1v-0.29h0.1c0.03-.13.06-0.26,0.1-0.39h0.09v-0.2h0.1v-0.19h0.1v-0.2h0.1c0.06-.19.13-0.39,0.19-0.58h0.1v-0.29h0.1c0.03-.14.06-0.26,0.09-0.39h0.1c0.07-.2.13-0.39,0.2-0.59h0.09c0.07-.19.13-0.39,0.2-0.59h0.1v-0.29h0.09c0.04-.13.07-0.26,0.1-0.39h0.1v-0.19h0.1v-0.2h0.09v-0.19h0.1c0.06-.2.13-0.39,0.19-0.59h0.1v-0.29h0.1c0.03-.13.06-0.26,0.1-0.39h0.09v-0.2h0.1v-0.19h0.1v-0.2h0.1c0.06-.19.13-0.39,0.19-0.58h0.1v-0.29h0.1l0.09-.39h0.1v-0.2h0.1v-0.2h0.1V2299h0.09c0.07-.2.13-0.39,0.2-0.59h0.1v-0.29h0.09c0.04-.13.07-0.26,0.1-0.39h0.1c0.29-.65.58-1.3,0.88-1.95h-0.2A4.427,4.427,0,0,1,1021.31,2296.07Zm-5.95,12.59q-1.8,3.855-3.6,7.7h0.78v-0.09c0.23-.04.45-0.07,0.68-0.1v-0.1c0.13-.03.26-0.06,0.39-0.1a1.738,1.738,0,0,1,.1-0.19h0.19c0.1-.13.2-0.26,0.29-0.39,0.07-.03.13-0.07,0.2-0.1v-0.19a1.738,1.738,0,0,1,.19-0.1c0.04-.13.07-0.26,0.1-0.39h0.1v-0.2h0.1v-0.19h0.09v-0.2h0.1v-0.19h0.1c0.06-.2.13-0.39,0.19-0.59h0.1v-0.29h0.1c0.03-.13.06-0.26,0.1-0.39h0.09v-0.2h0.1v-0.19h0.1v-0.2h0.1c0.06-.19.13-0.39,0.19-0.58a4.1,4.1,0,0,0,.58-1.37C1016.34,2309.57,1015.85,2309.11,1015.36,2308.66Zm-22.8,9.56h0.682a1.086,1.086,0,0,1,.585,1.27,0.974,0.974,0,0,1-1.754.19,0.917,0.917,0,0,1-.1-0.97h0.1c0.033-.1.065-0.2,0.1-0.3h0.194v-0.09h0.195v-0.1Zm33.027,0a3.555,3.555,0,0,1,.88.1c0.07,0.09.13,0.19,0.2,0.29h0.09c0.04,0.32.07,0.65,0.1,0.97-0.36.39-.71,0.78-1.07,1.17-0.1.04-.2,0.07-0.29,0.1-0.13.16-.26,0.33-0.39,0.49h-0.2c-0.1.13-.19,0.26-0.29,0.39h-0.2c-0.09.13-.19,0.26-0.29,0.39h-0.19c-0.07.1-.13,0.2-0.2,0.29h-0.19c-0.03.07-.07,0.13-0.1,0.2h-0.19a1.738,1.738,0,0,0-.1.19h-0.2c-0.03.07-.06,0.13-0.09,0.2h-0.2a1.738,1.738,0,0,1-.1.19h-0.19c-0.03.07-.07,0.13-0.1,0.2-0.13.03-.26,0.06-0.39,0.1a1.738,1.738,0,0,1-.1.19c-0.19.07-.39,0.13-0.58,0.2-0.03.06-.07,0.13-0.1,0.19-0.19.07-.39,0.13-0.58,0.2v0.09h-0.2v0.1c-0.19.07-.39,0.13-0.58,0.2v0.09h-0.29v0.1h-0.2v0.1c-0.13.03-.26,0.06-0.39,0.1v0.09h-0.29v0.1h-0.2v0.1c-0.16.03-.32,0.07-0.48,0.1v0.09c-0.2.04-.39,0.07-0.59,0.1v0.1h-0.29v0.1h-0.29v0.09c-0.33.07-.65,0.14-0.98,0.2v0.1h-0.48v0.1h-0.3v0.09l-2.14.3a14.3,14.3,0,0,1-3.51.29h-1.36v-0.1c-0.65-.03-1.3-0.06-1.95-0.1-0.48-.14-1.19-0.24-1.66-0.39h-0.48v-0.09c-0.26-.04-0.52-0.07-0.78-0.1v-0.1c-0.23-.03-0.46-0.06-0.69-0.1v-0.1h-0.29v-0.09h-0.29v-0.1h-0.29v-0.1c-0.29-.06-0.59-0.13-0.88-0.19v-0.1h-0.19v-0.1h-0.3v-0.1l-0.386-.09v-0.1h-0.293v-0.1c-0.2-.06-0.389-0.13-0.584-0.19v-0.1h-0.2v-0.1h-0.2v-0.1h-0.195v-0.09h-0.2v-0.1h-0.195v-0.1h-0.2v-0.1h-0.194v-0.09h-0.2c-0.033-.07-0.065-0.13-0.1-0.2h-0.2v-0.1H996.85c-0.032-.06-0.064-0.13-0.1-0.19h-0.2v-0.1a1.425,1.425,0,0,1-.682-0.49c-0.7-.64.183-1.55,0.974-1.56v0.1h0.293c0.032,0.06.065,0.13,0.1,0.2h0.195v0.09h0.2c0.032,0.07.065,0.13,0.1,0.2,0.1,0.03.2,0.06,0.293,0.1v0.09c0.2,0.07.389,0.13,0.584,0.2v0.1H998.8c0.033,0.06.065,0.13,0.1,0.19h0.195v0.1c0.194,0.06.389,0.13,0.584,0.19v0.1h0.292v0.1h0.192v0.1l0.39,0.09v0.1h0.3v0.1h0.19v0.1l2.34,0.78h0.39v0.09h0.39v0.1h0.39v0.1h0.49v0.1l1.07,0.09v0.1c0.68,0.03,1.36.07,2.04,0.1v0.1a9.267,9.267,0,0,0,2.44-.1h1.17v-0.1h0.78v-0.1h0.68v-0.09h0.49v-0.1h0.48v-0.1h0.39v-0.1h0.39v-0.09h0.39v-0.1h0.39v-0.1h0.3v-0.1h0.29v-0.09h0.29v-0.1h0.29v-0.1h0.29v-0.1h0.2v-0.09c0.19-.04.39-0.07,0.58-0.1v-0.1h0.2v-0.1c0.16-.03.32-0.06,0.49-0.09V2323c0.19-.07.39-0.13,0.58-0.2v-0.09h0.2v-0.1h0.19v-0.1h0.2v-0.1h0.19v-0.09h0.2c0.03-.07.06-0.13,0.09-0.2,0.2-.06.39-0.13,0.59-0.19,0.03-.07.06-0.13,0.09-0.2,0.13-.03.26-0.06,0.39-0.1v-0.09c0.1-.04.2-0.07,0.3-0.1,0.03-.07.06-0.13,0.09-0.2h0.2a1.738,1.738,0,0,1,.1-0.19h0.19c0.07-.1.13-0.2,0.2-0.3h0.19c0.03-.06.07-0.13,0.1-0.19h0.19l0.3-.39h0.19c0.1-.13.2-0.26,0.29-0.39h0.2c0.26-.29.52-0.59,0.78-0.88h0.19c0.03-.06.07-0.13,0.1-0.19C1025.2,2318.54,1025.4,2318.38,1025.59,2318.22Z" transform="translate(-985 -2277)"/>
</svg>
