<svg id="Группа_3" data-name="Группа 3" xmlns="http://www.w3.org/2000/svg" width="60" height="50" viewBox="0 0 60 50">
  <defs>
    <style>
      .cls-1, .cls-2 {
        fill: #4ca6b4;
      }

      .cls-1 {
        opacity: 0.08;
      }

      .cls-2 {
        fill-rule: evenodd;
      }
    </style>
  </defs>
  <circle id="Эллипс_2_копия_3" data-name="Эллипс 2 копия 3" class="cls-1" cx="35" cy="25" r="25"/>
  <path id="Фигура_7" data-name="Фигура 7" class="cls-2" d="M1383.43,2650.01c4.36-.09,7.93.69,10.56,2.34h0.19v0.1h0.2v0.09h0.19v0.1h0.2a1.865,1.865,0,0,0,.1.2l0.39,0.09v0.1c0.09,0.03.19,0.07,0.29,0.1a1.738,1.738,0,0,0,.1.19h0.19c0.17,0.2.33,0.39,0.49,0.59v0.78a1.02,1.02,0,0,1-.49.39v0.1c-0.19.03-.39,0.06-0.58,0.1v-0.1c-0.17-.03-0.33-0.07-0.49-0.1v-0.1l-0.3-.09c-0.03-.07-0.06-0.13-0.09-0.2h-0.2v-0.1h-0.19a1.738,1.738,0,0,1-.1-0.19c-0.13-.03-0.26-0.07-0.39-0.1a1.865,1.865,0,0,1-.1-0.2l-0.39-.09v-0.1h-0.2v-0.1c-0.19-.06-0.39-0.13-0.58-0.19v-0.1h-0.3v-0.1c-0.13-.03-0.26-0.06-0.39-0.1v-0.09h-0.29v-0.1h-0.2v-0.1h-0.29v-0.1h-0.29v-0.09h-0.3v-0.1h-0.29v-0.1c-0.94-.19-1.89-0.39-2.83-0.58h-0.98v-0.1a9.183,9.183,0,0,0-2.54.1l-1.66.09v0.1h-0.49v0.1h-0.49v0.1h-0.39v0.09h-0.39v0.1h-0.39v0.1h-0.3v0.1h-0.29v0.09h-0.29v0.1h-0.3v0.1h-0.19v0.1h-0.3v0.09c-0.13.04-.26,0.07-0.39,0.1v0.1h-0.29v0.1c-0.2.06-.39,0.13-0.59,0.19v0.1h-0.19v0.1l-0.39.09a1.865,1.865,0,0,0-.1.2c-0.13.03-.26,0.07-0.39,0.1-0.03.06-.07,0.13-0.1,0.19-0.13.03-.26,0.07-0.39,0.1-0.03.07-.07,0.13-0.1,0.2h-0.19v0.09c-0.1.04-.2,0.07-0.3,0.1-0.03.07-.06,0.13-0.09,0.2h-0.2a1.738,1.738,0,0,1-.1.19c-0.1.03-.19,0.07-0.29,0.1-0.1.13-.2,0.26-0.29,0.39h-0.2c-0.13.16-.26,0.32-0.39,0.49h-0.2c-0.29.32-.58,0.65-0.88,0.97l-0.48.39v0.2c-0.2.16-.4,0.32-0.59,0.49v0.19c-0.1.07-.2,0.13-0.29,0.2a2.469,2.469,0,0,0-.1.29,1.865,1.865,0,0,0-.2.1v0.19c-0.06.03-.13,0.07-0.19,0.1v0.19a1.865,1.865,0,0,1-.2.1c-0.49.88-.98,1.76-1.46,2.63v0.3h-0.1v0.19h-0.1l-0.78,2.34v0.49a12.727,12.727,0,0,0-.49,3.71v1.46h0.1v0.98c0.19,0.94.39,1.88,0.58,2.83h0.1v0.29h0.1v0.29h0.1v0.29h0.09v0.3h0.1v0.19h0.1v0.29h0.1v0.2h0.1v0.29h0.09c0.07,0.2.13,0.39,0.2,0.59h0.1v0.19h0.09v0.2h0.1c0.07,0.19.13,0.39,0.2,0.58a1.738,1.738,0,0,0,.19.1c0.04,0.13.07,0.26,0.1,0.39,0.07,0.03.13,0.07,0.2,0.1l0.09,0.39c0.1,0.06.2,0.13,0.3,0.19v0.2a1.738,1.738,0,0,1,.19.1v0.19c0.1,0.07.2,0.13,0.3,0.2v0.19c0.09,0.07.19,0.13,0.29,0.2v0.19c0.19,0.16.39,0.33,0.59,0.49v0.2q0.24,0.18.48,0.39c0.3,0.32.59,0.65,0.88,0.97h0.2c0.16,0.2.33,0.39,0.49,0.59h0.19c0.07,0.09.13,0.19,0.2,0.29h0.19c0.07,0.1.14,0.19,0.2,0.29h0.2c0.03,0.07.06,0.13,0.09,0.2l0.3,0.09v0.1h0.19c0.03,0.07.07,0.13,0.1,0.2a2.469,2.469,0,0,1,.29.1v0.09c0.13,0.04.26,0.07,0.39,0.1,0.04,0.07.07,0.13,0.1,0.19,0.2,0.07.39,0.14,0.59,0.2v0.1h0.19v0.1c0.2,0.06.39,0.13,0.59,0.19v0.1c0.16,0.03.33,0.06,0.49,0.1v0.09h0.19v0.1h0.3v0.1h0.19v0.1h0.3v0.09h0.29v0.1h0.29v0.1h0.3v0.1l0.78,0.09a16.843,16.843,0,0,0,10.46-.58c0.19-.03.39-0.07,0.58-0.1v-0.1l0.39-.09v-0.1h0.3v-0.1c0.19-.06.39-0.13,0.58-0.19v-0.1h0.2v-0.1c0.13-.03.26-0.06,0.39-0.1a1.738,1.738,0,0,1,.1-0.19c0.13-.03.26-0.07,0.39-0.1a1.738,1.738,0,0,1,.1-0.19c0.13-.04.26-0.07,0.39-0.1v-0.1c0.09-.03.19-0.06,0.29-0.1,0.03-.06.07-0.13,0.1-0.19h0.19a1.865,1.865,0,0,0,.1-0.2h0.2c0.06-.1.13-0.19,0.19-0.29h0.2c0.06-.1.13-0.2,0.19-0.29,0.1-.04.2-0.07,0.3-0.1,0.16-.2.32-0.39,0.48-0.59h0.2c0.23-.26.46-0.52,0.68-0.78,0.13-.09.27-0.19,0.4-0.29v-0.19c0.22-.2.45-0.39,0.68-0.59,0.03-.1.06-0.19,0.1-0.29,0.1-.07.19-0.13,0.29-0.2v-0.19a1.865,1.865,0,0,1,.2-0.1v-0.2c0.09-.06.19-0.13,0.29-0.19v-0.2c0.06-.03.13-0.06,0.19-0.09,0.04-.1.07-0.2,0.1-0.3h0.1c0.03-.13.07-0.26,0.1-0.39,0.06-.03.13-0.06,0.19-0.09,0.07-.2.13-0.39,0.2-0.59a1.738,1.738,0,0,0,.19-0.1c0.04-.13.07-0.26,0.1-0.39h0.1c0.03-.13.07-0.26,0.1-0.39h0.1v-0.29h0.09c0.04-.13.07-0.26,0.1-0.39h0.1v-0.29h0.1v-0.2h0.09c0.04-.19.07-0.39,0.1-0.58h0.1v-0.3h0.1v-0.29h0.1v-0.29h0.09v-0.29h0.1c0.03-.3.07-0.59,0.1-0.88a16.01,16.01,0,0,0-.29-8.78v-0.39h-0.1c-0.04-.2-0.07-0.39-0.1-0.59h-0.1v-0.19h-0.1c-0.03-.2-0.06-0.39-0.09-0.59h-0.1c-0.03-.13-0.07-0.26-0.1-0.39h-0.1v-0.19h-0.09v-0.3h-0.1c-0.03-.13-0.07-0.26-0.1-0.39h-0.1c-0.03-.13-0.06-0.26-0.1-0.39-0.06-.03-0.13-0.06-0.19-0.09-0.07-.2-0.13-0.39-0.2-0.59a2.652,2.652,0,0,1-.78-1.66,1.116,1.116,0,0,1,.59-0.58v-0.1a1.35,1.35,0,0,1,1.27.39v0.2c0.06,0.03.13,0.06,0.19,0.09,0.04,0.1.07,0.2,0.1,0.3h0.1c0.03,0.13.06,0.26,0.1,0.39,0.06,0.03.13,0.06,0.19,0.09v0.2h0.1v0.19h0.1v0.2h0.1v0.19h0.09v0.2h0.1v0.19h0.1v0.2h0.1v0.19h0.09c0.07,0.2.14,0.39,0.2,0.59h0.1v0.29h0.1v0.2h0.09c0.04,0.16.07,0.32,0.1,0.48h0.1c0.29,1.08.59,2.15,0.88,3.22v0.59h0.1v0.78c0.03,0.13.07-.04,0.09,0.1v0.97h0.1c-0.03,1.14-.06,2.28-0.1,3.42h-0.09v0.78h-0.1v0.49h-0.1v0.48h-0.1v0.49h-0.09c-0.04.26-.07,0.52-0.1,0.78h-0.1c-0.03.23-.07,0.46-0.1,0.68h-0.1c-0.03.2-.06,0.39-0.09,0.59h-0.1v0.19h-0.1c-0.03.2-.06,0.39-0.1,0.59h-0.09v0.2h-0.1v0.29h-0.1c-0.03.13-.06,0.26-0.1,0.39h-0.1c-0.06.19-.13,0.39-0.19,0.58h-0.1v0.2h-0.1v0.19h-0.09v0.2h-0.1v0.19H1402c-0.03.13-.06,0.26-0.1,0.39a1.738,1.738,0,0,1-.19.1v0.1h0.1q6.24,6.285,12.51,12.58l0.09,0.39h0.1c0.07,0.2.13,0.39,0.2,0.59h0.09a5.669,5.669,0,0,1,.2,2.05v0.78a4.609,4.609,0,0,1-1.56,2.44l-0.3.39h-0.19a1.738,1.738,0,0,0-.1.19c-0.13.03-.26,0.07-0.39,0.1v0.1l-0.39.09v0.1a6.5,6.5,0,0,1-2.45.3v-0.1h-0.48v-0.1c-0.23-.03-0.46-0.06-0.69-0.1a8.211,8.211,0,0,1-2.44-2.05q-4.065-3.99-8.11-7.99c-0.69-.69-1.37-1.37-2.06-2.05a1.916,1.916,0,0,0-1.07-.88,3,3,0,0,1-.78.39,1.738,1.738,0,0,0-.1.19c-0.29.1-.59,0.2-0.88,0.3v0.09h-0.2v0.1c-0.13.03-.26,0.07-0.39,0.1v0.1l-0.58.09v0.1h-0.2v0.1h-0.29v0.1h-0.3v0.09h-0.29v0.1h-0.29v0.1c-0.23.03-.46,0.06-0.69,0.1v0.09h-0.39c-0.44.15-1.1,0.26-1.56,0.39-0.59.04-1.17,0.07-1.76,0.1v0.1a9.586,9.586,0,0,1-2.54-.1h-1.08v-0.1h-0.68v-0.09c-0.65-.1-1.3-0.2-1.96-0.3l-2.64-.87v-0.1c-0.13-.03-0.26-0.07-0.39-0.1v-0.1h-0.29v-0.09c-0.2-.07-0.39-0.13-0.59-0.2v-0.1l-0.39-.09c-0.03-.07-0.06-0.13-0.09-0.2h-0.2v-0.1h-0.2v-0.09h-0.19v-0.1h-0.2v-0.1c-0.09-.03-0.19-0.06-0.29-0.1a1.738,1.738,0,0,0-.1-0.19c-0.13-.03-0.26-0.07-0.39-0.1-0.06-.1-0.13-0.19-0.19-0.29h-0.2a1.865,1.865,0,0,0-.1-0.2h-0.19a1.738,1.738,0,0,1-.1-0.19c-0.1-.03-0.2-0.07-0.29-0.1-0.07-.1-0.13-0.2-0.2-0.29h-0.19l-0.4-.49h-0.19c-0.33-.36-0.65-0.72-0.98-1.07-0.32-.3-0.65-0.59-0.98-0.88v-0.2l-0.48-.39v-0.19c-0.1-.07-0.2-0.13-0.3-0.2v-0.19c-0.1-.07-0.19-0.13-0.29-0.2v-0.19a1.865,1.865,0,0,0-.2-0.1v-0.19a2.977,2.977,0,0,0-.29-0.2c-0.03-.13-0.06-0.26-0.1-0.39-0.06-.03-0.13-0.07-0.19-0.1-0.04-.1-0.07-0.19-0.1-0.29h-0.1c-0.06-.2-0.13-0.39-0.19-0.59-0.07-.03-0.13-0.06-0.2-0.09-0.03-.13-0.06-0.26-0.1-0.39h-0.09v-0.2h-0.1c-0.07-.19-0.13-0.39-0.2-0.58h-0.1v-0.3h-0.09c-0.04-.13-0.07-0.26-0.1-0.39h-0.1c-0.03-.16-0.06-0.32-0.1-0.49h-0.09v-0.29h-0.1v-0.29h-0.1v-0.29h-0.1v-0.3h-0.1v-0.29h-0.09v-0.29h-0.1c-0.03-.26-0.07-0.52-0.1-0.78h-0.1c-0.03-.29-0.06-0.59-0.09-0.88h-0.1v-0.58h-0.1c-0.03-.59-0.06-1.17-0.1-1.76h-0.1a10.777,10.777,0,0,1,.1-2.63c0.04-.62.07-1.24,0.1-1.86h0.1v-0.49h0.1v-0.48h0.09v-0.49h0.1v-0.39h0.1v-0.39h0.1v-0.29h0.09v-0.3h0.1v-0.29h0.1v-0.29h0.1c0.03-.2.06-0.39,0.1-0.59h0.09v-0.19h0.1v-0.3h0.1c0.03-.13.06-0.26,0.1-0.39h0.09v-0.29h0.1c0.07-.19.13-0.39,0.2-0.58h0.1v-0.2h0.09c0.04-.13.07-0.26,0.1-0.39a1.865,1.865,0,0,0,.2-0.1c0.06-.19.13-0.39,0.19-0.58h0.1a2.469,2.469,0,0,1,.1-0.29,1.738,1.738,0,0,1,.19-0.1c0.04-.13.07-0.26,0.1-0.39,0.1-.07.2-0.13,0.29-0.2v-0.19a1.865,1.865,0,0,1,.2-0.1v-0.2c0.1-.06.19-0.13,0.29-0.19v-0.2c0.1-.06.2-0.13,0.3-0.19v-0.2c0.19-.16.39-0.32,0.58-0.48v-0.2c0.39-.36.78-0.71,1.17-1.07,0.2-.23.4-0.46,0.59-0.68h0.2c0.13-.17.26-0.33,0.39-0.49h0.19l0.3-.39c0.09-.03.19-0.07,0.29-0.1a1.865,1.865,0,0,1,.1-0.2h0.19a1.738,1.738,0,0,0,.1-0.19c0.1-.03.2-0.07,0.29-0.1v-0.1h0.2a1.738,1.738,0,0,1,.1-0.19c0.09-.03.19-0.07,0.29-0.1v-0.1l0.39-.09c0.03-.07.07-0.13,0.1-0.2,0.19-.06.39-0.13,0.59-0.19,0.03-.07.06-0.13,0.09-0.2,0.13-.03.26-0.06,0.39-0.1v-0.09c0.2-.07.39-0.13,0.59-0.2v-0.1h0.29v-0.09c0.13-.04.26-0.07,0.39-0.1v-0.1c0.2-.03.4-0.06,0.59-0.1v-0.09h0.2v-0.1c0.19-.03.39-0.07,0.58-0.1v-0.1h0.3v-0.09h0.29v-0.1c0.23-.04.46-0.07,0.68-0.1v-0.1h0.39v-0.1l0.98-.09v-0.1h0.59v-0.1h0.68v-0.1A2.893,2.893,0,0,0,1383.43,2650.01Zm0.29,4.19c7.52-.09,11.81,3.36,14.66,7.9,0.07,0.2.13,0.39,0.2,0.59h0.1v0.19h0.1c0.06,0.2.13,0.39,0.19,0.59h0.1v0.29h0.1v0.2h0.09v0.29h0.1v0.2h0.1v0.29h0.1v0.29h0.09c0.04,0.23.07,0.46,0.1,0.68h0.1v0.39h0.1v0.39h0.1v0.59h0.09v0.58h0.1v1.08h0.1a5.63,5.63,0,0,1-.1,1.95v1.07h-0.1v0.59h-0.09v0.58h-0.1v0.39h-0.1v0.39h-0.1v0.3h-0.1v0.39h-0.09c-0.04.19-.07,0.39-0.1,0.58h-0.1v0.2h-0.1c-0.03.19-.06,0.39-0.09,0.58h-0.1c-0.07.2-.13,0.39-0.2,0.59h-0.09v0.19h-0.1v0.2h-0.1c-0.07.19-.13,0.39-0.2,0.58a1.738,1.738,0,0,1-.19.1c-0.03.13-.07,0.26-0.1,0.39-0.06.03-.13,0.07-0.19,0.1-0.04.13-.07,0.26-0.1,0.39a1.865,1.865,0,0,0-.2.1v0.19c-0.1.07-.19,0.13-0.29,0.2v0.19c-0.07.03-.13,0.07-0.2,0.1-0.03.1-.06,0.19-0.09,0.29-0.17.13-.33,0.26-0.49,0.39v0.2c-0.36.32-.72,0.65-1.08,0.97-0.16.2-.32,0.39-0.49,0.59h-0.19l-0.3.39h-0.19c-0.07.1-.13,0.19-0.2,0.29h-0.19c-0.07.1-.13,0.2-0.2,0.29h-0.19a1.865,1.865,0,0,0-.1.2,2.469,2.469,0,0,0-.29.1v0.09c-0.92.46-1.83,0.91-2.74,1.37-0.2.03-.39,0.07-0.59,0.1v0.09h-0.29v0.1h-0.29v0.1h-0.3v0.1h-0.39v0.1l-0.97.09v0.1c-0.53.03-1.05,0.07-1.57,0.1v0.09a8.86,8.86,0,0,1-2.44-.09h-0.88v-0.1h-0.59v-0.1h-0.49v-0.09h-0.49c-0.78-.26-1.56-0.52-2.34-0.79v-0.09c-0.13-.04-0.26-0.07-0.39-0.1v-0.1h-0.3v-0.1h-0.19c-0.03-.06-0.07-0.13-0.1-0.19h-0.19v-0.1h-0.2v-0.1h-0.2v-0.09h-0.19v-0.1h-0.2c-0.03-.07-0.06-0.13-0.09-0.2h-0.2a1.738,1.738,0,0,0-.1-0.19h-0.19a1.865,1.865,0,0,1-.1-0.2h-0.2c-0.03-.06-0.06-0.13-0.09-0.19h-0.2a1.865,1.865,0,0,0-.1-0.2c-0.09-.03-0.19-0.06-0.29-0.09-0.1-.14-0.2-0.27-0.29-0.39h-0.2c-0.32-.36-0.65-0.72-0.98-1.08-0.29-.26-0.58-0.52-0.88-0.78v-0.19l-0.39-.3v-0.19c-0.09-.07-0.19-0.13-0.29-0.2v-0.19c-0.07-.03-0.13-0.07-0.2-0.1-0.03-.1-0.06-0.19-0.09-0.29h-0.1v-0.2c-0.07-.03-0.13-0.06-0.2-0.09v-0.2a1.738,1.738,0,0,1-.19-0.1c-0.07-.19-0.13-0.39-0.2-0.58-0.06-.03-0.13-0.07-0.19-0.1v-0.2h-0.1c-0.03-.12-0.07-0.26-0.1-0.39h-0.1v-0.29h-0.09v-0.19h-0.1c-0.03-.13-0.07-0.26-0.1-0.39h-0.1c-0.03-.2-0.06-0.39-0.09-0.59h-0.1v-0.19h-0.1c-0.03-.23-0.07-0.46-0.1-0.69h-0.1v-0.29h-0.09v-0.39a12.3,12.3,0,0,1-.3-5.85v-0.59h0.1v-0.58h0.1v-0.39h0.1v-0.39h0.09v-0.3h0.1v-0.39h0.1v-0.19h0.1c0.03-.2.06-0.39,0.1-0.59h0.09v-0.19h0.1v-0.3h0.1c0.03-.12.06-0.25,0.1-0.39h0.09v-0.29h0.1v-0.19h0.1v-0.2a1.738,1.738,0,0,0,.19-0.1v-0.19h0.1v-0.2h0.1v-0.19h0.1v-0.2c0.06-.03.13-0.06,0.19-0.09v-0.2a1.865,1.865,0,0,0,.2-0.1v-0.19c0.06-.03.13-0.07,0.19-0.1v-0.19a1.865,1.865,0,0,1,.2-0.1v-0.2c0.07-.03.13-0.06,0.2-0.09l0.09-.3c0.17-.13.33-0.26,0.49-0.39v-0.19c0.3-.26.59-0.52,0.88-0.78,0.26-.29.52-0.59,0.78-0.88h0.2c0.13-.16.26-0.33,0.39-0.49a2.469,2.469,0,0,0,.29-0.1,1.738,1.738,0,0,0,.1-0.19h0.2c0.03-.07.06-0.13,0.09-0.2l0.3-.09v-0.1h0.19a1.865,1.865,0,0,0,.1-0.2l0.39-.09c0.03-.07.07-0.13,0.1-0.2h0.19v-0.1h0.2v-0.09h0.2v-0.1h0.19v-0.1h0.2v-0.1h0.19v-0.09c0.2-.07.39-0.13,0.59-0.2v-0.1h0.29v-0.09h0.2v-0.1l2.83-.78A7.254,7.254,0,0,0,1383.72,2654.2Zm14.18,1.27a1.045,1.045,0,0,1,.97.49,0.987,0.987,0,0,1,.2.78h-0.1v0.29c-0.1.07-.19,0.13-0.29,0.2v0.09c-0.2.04-.39,0.07-0.59,0.1v0.1h-0.1v-0.1a1.036,1.036,0,0,1-.88-1.36,1.057,1.057,0,0,1,.49-0.39v-0.1h0.3v-0.1Zm-14.18.68a5.658,5.658,0,0,1-1.46.2v0.1h-0.49v0.09h-0.39v0.1c-0.23.03-.46,0.07-0.69,0.1v0.1h-0.29v0.09h-0.29v0.1c-0.17.03-.33,0.07-0.49,0.1v0.1l-0.39.09v0.1h-0.3v0.1c-0.13.03-.26,0.06-0.39,0.1v0.09h-0.19a1.865,1.865,0,0,0-.1.2c-0.2.06-.39,0.13-0.59,0.19-0.03.07-.06,0.14-0.09,0.2h-0.2v0.1a2.469,2.469,0,0,0-.29.1,1.738,1.738,0,0,0-.1.19h-0.2c-0.09.13-.19,0.26-0.29,0.39a13.291,13.291,0,0,0-4.4,5.66c-0.03.19-.06,0.39-0.1,0.58h-0.09v0.3h-0.1v0.29h-0.1c-0.03.26-.06,0.52-0.1,0.78h-0.09v0.39h-0.1v0.58h-0.1v0.79a9.354,9.354,0,0,0,.29,4.29v0.49h0.1v0.29h0.1v0.29h0.1v0.29h0.09c0.04,0.2.07,0.39,0.1,0.59h0.1v0.19h0.1v0.3h0.1c0.06,0.19.13,0.39,0.19,0.58h0.1v0.2h0.1l0.09,0.39c0.07,0.03.13,0.06,0.2,0.09,0.03,0.13.06,0.27,0.1,0.39a1.738,1.738,0,0,0,.19.1v0.2a1.865,1.865,0,0,1,.2.1v0.19c0.06,0.03.13,0.07,0.19,0.1v0.19c0.1,0.07.2,0.13,0.3,0.2v0.19l0.39,0.3v0.19c0.32,0.29.65,0.59,0.98,0.88,0.13,0.16.26,0.32,0.39,0.49H1376c0.13,0.16.26,0.32,0.39,0.49l0.3,0.09c0.03,0.07.06,0.13,0.09,0.2h0.2a1.738,1.738,0,0,0,.1.19,2.469,2.469,0,0,0,.29.1v0.1h0.2c0.03,0.06.06,0.13,0.09,0.19,0.2,0.07.39,0.13,0.59,0.2a1.738,1.738,0,0,0,.1.19c0.13,0.03.26,0.07,0.39,0.1v0.1c0.13,0.03.26,0.06,0.39,0.1v0.09h0.29v0.1h0.2v0.1c0.71,0.23,1.43.45,2.15,0.68h0.49v0.1h0.49v0.1h0.88a7.2,7.2,0,0,0,2.34.09v-0.09h0.78v-0.1h0.59v-0.1h0.49v-0.1h0.39v-0.09h0.39v-0.1h0.29v-0.1h0.3v-0.1h0.29v-0.09c0.16-.04.33-0.07,0.49-0.1v-0.1c0.13-.03.26-0.07,0.39-0.1v-0.09c0.29-.1.59-0.2,0.88-0.3a1.738,1.738,0,0,1,.1-0.19c0.13-.03.26-0.07,0.39-0.1a1.14,1.14,0,0,1,.1-0.19c0.13-.04.26-0.07,0.39-0.1,0.03-.07.06-0.13,0.09-0.2h0.2c0.06-.09.13-0.19,0.2-0.29h0.19c0.07-.1.13-0.19,0.2-0.29h0.19c0.13-.17.26-0.33,0.39-0.49h0.2c0.23-.26.45-0.52,0.68-0.78,0.13-.1.26-0.2,0.39-0.29v-0.2c0.17-.13.33-0.26,0.49-0.39,0.03-.1.07-0.19,0.1-0.29,0.06-.03.13-0.07,0.2-0.1v-0.19c0.09-.07.19-0.13,0.29-0.2v-0.19a1.738,1.738,0,0,1,.19-0.1c0.04-.13.07-0.26,0.1-0.39,0.07-.03.13-0.07,0.2-0.1v-0.2h0.09v-0.19h0.1v-0.2h0.1v-0.19h0.1v-0.2h0.1v-0.19h0.09c0.07-.2.13-0.39,0.2-0.59h0.1v-0.29a12.876,12.876,0,0,0,.09-9.46c-0.03-.2-0.06-0.39-0.09-0.59h-0.1c-0.07-.19-0.13-0.39-0.2-0.58h-0.09v-0.2h-0.1v-0.19h-0.1v-0.2h-0.1v-0.19h-0.1v-0.2h-0.09v-0.19h-0.1c-0.03-.1-0.07-0.2-0.1-0.3-0.06-.03-0.13-0.06-0.19-0.09v-0.2h-0.1c-0.03-.1-0.07-0.19-0.1-0.29-0.06-.03-0.13-0.07-0.19-0.1v-0.19c-0.1-.07-0.2-0.13-0.3-0.2v-0.19c-0.19-.17-0.39-0.33-0.58-0.49v-0.2c-0.23-.19-0.46-0.39-0.69-0.58-0.06-.1-0.13-0.2-0.19-0.29h-0.2c-0.16-.2-0.33-0.39-0.49-0.59h-0.19c-0.07-.1-0.13-0.19-0.2-0.29h-0.19c-0.07-.1-0.14-0.2-0.2-0.29h-0.2c-0.03-.07-0.06-0.14-0.09-0.2-0.13-.03-0.26-0.06-0.39-0.1a1.738,1.738,0,0,1-.1-0.19c-0.2-.07-0.39-0.13-0.59-0.2v-0.1h-0.19a1.738,1.738,0,0,1-.1-0.19h-0.3v-0.1h-0.19v-0.1l-0.39-.09v-0.1h-0.29v-0.1h-0.2v-0.1h-0.29v-0.09h-0.3v-0.1c-0.22-.03-0.45-0.07-0.68-0.1v-0.1h-0.39v-0.09h-0.49A13.49,13.49,0,0,0,1383.72,2656.15Zm12.9,29.27v0.2c0.56,0.52,1.11,1.03,1.67,1.56a1.393,1.393,0,0,0,.68.58c0.95-.97,1.89-1.95,2.84-2.92a3.194,3.194,0,0,0,1.07-1.18c-0.55-.52-1.11-1.04-1.66-1.56a1.417,1.417,0,0,0-.69-0.58v0.1a2.453,2.453,0,0,0-.39.58l-0.58.49v0.19c-0.3.26-.59,0.52-0.88,0.78-0.26.3-.52,0.59-0.78,0.88h-0.2c-0.03.07-.07,0.13-0.1,0.2-0.1.06-.19,0.13-0.29,0.19v0.1h-0.2v0.1A1.036,1.036,0,0,1,1396.62,2685.42Zm7.63-.29c-1.34,1.36-2.67,2.73-4.01,4.09l2.44,2.35q1.665,1.695,3.33,3.41c0.26,0.23.52,0.46,0.78,0.68a12.916,12.916,0,0,0,1.86,1.76c0.03,0.06.06,0.13,0.09,0.19h0.2a2.446,2.446,0,0,0,1.86.39v-0.09h0.39v-0.1h0.19v-0.1h0.3c0.03-.06.06-0.13,0.09-0.19h0.2c0.07-.1.13-0.2,0.2-0.3l0.48-.39c0.04-.13.07-0.26,0.1-0.39h0.1c0.03-.13.06-0.26,0.1-0.39h0.1v-0.48h0.09a2.065,2.065,0,0,0-.19-1.27c-0.04-.16-0.07-0.33-0.1-0.49-0.07-.03-0.13-0.07-0.2-0.1v-0.19a13.3,13.3,0,0,0-1.76-1.76c-0.26-.29-0.52-0.58-0.78-0.88-0.97-.94-1.95-1.88-2.93-2.83l-0.39-.48-1.56-1.47A5.293,5.293,0,0,0,1404.25,2685.13Z" transform="translate(-1365 -2650)"/>
</svg>
