<svg id="Группа_2" data-name="Группа 2" xmlns="http://www.w3.org/2000/svg" width="59" height="50" viewBox="0 0 59 50">
  <defs>
    <style>
      .cls-1, .cls-2 {
        fill: #4ca6b4;
      }

      .cls-1 {
        opacity: 0.08;
      }

      .cls-2 {
        fill-rule: evenodd;
      }
    </style>
  </defs>
  <circle id="Эллипс_2_копия_4" data-name="Эллипс 2 копия 4" class="cls-1" cx="34" cy="25" r="25"/>
  <path id="Фигура_8" data-name="Фигура 8" class="cls-2" d="M230.574,2885.96c-0.262-.06-0.663-0.4-0.774-0.39v0.1h-0.194v0.09c-0.129.04-.258,0.07-0.387,0.1-0.264.17-1.072,0.9-1.645,0.69v-0.1H227.38c-0.161-.2-0.322-0.39-0.484-0.59v-0.19h-0.1v-0.2a1.788,1.788,0,0,1-.194-0.1v-0.19h-0.1v-0.2l-0.193-.09c-0.065-.2-0.129-0.39-0.194-0.59a1.775,1.775,0,0,1-.193-0.1c-0.065-.19-0.129-0.39-0.194-0.58-0.064-.03-0.129-0.07-0.193-0.1-0.065-.19-0.13-0.39-0.194-0.59l-0.194-.09-0.1-.39a1.788,1.788,0,0,0-.194-0.1c-0.065-.2-0.129-0.39-0.193-0.59l-0.194-.09c-0.065-.2-0.129-0.4-0.194-0.59-0.064-.03-0.129-0.07-0.193-0.1v-0.29h-0.1c0.032-.23.065-0.46,0.1-0.68l0.387-.3v-0.09c0.129-.04.258-0.07,0.387-0.1,0.032-.07.065-0.13,0.1-0.2h0.193v-0.09h0.194v-0.1h0.194c0.032-.07.064-0.13,0.1-0.2,0.1-.03.194-0.06,0.291-0.1v-0.97c-0.1-.03-0.194-0.07-0.291-0.1-0.032-.06-0.064-0.13-0.1-0.19h-0.194v-0.1h-0.194v-0.1h-0.193c-0.032-.06-0.065-0.13-0.1-0.19h-0.193c-0.194-.17-0.388-0.33-0.581-0.49v-0.39h-0.1c0.032-.2.065-0.39,0.1-0.59a1.775,1.775,0,0,0,.193-0.1v-0.19h0.1c0.032-.13.065-0.26,0.1-0.39,0.064-.03.129-0.07,0.194-0.1v-0.19h0.1v-0.2h0.1v-0.19a1.788,1.788,0,0,1,.194-0.1l0.1-.39a1.788,1.788,0,0,1,.194-0.1c0.064-.2.129-0.39,0.194-0.59l0.193-.09v-0.2h0.1v-0.19h0.1v-0.2a1.775,1.775,0,0,0,.193-0.1c0.065-.19.129-0.39,0.194-0.58,0.064-.03.129-0.07,0.193-0.1,0.317-.5.424-1.3,1.065-1.46v-0.1c0.29,0.03.581,0.06,0.871,0.1,0.032,0.06.064,0.13,0.1,0.19h0.193v0.1c0.129,0.03.258,0.06,0.387,0.1,0.033,0.06.065,0.13,0.1,0.19h0.194v0.1h0.193c0.095,0.05.052,0.27,0.29,0.19v-0.09c0.306-.08.354-0.22,0.678-0.3v-1.75h0.1c0.032-.2.064-0.39,0.1-0.59a1.948,1.948,0,0,0,.484-0.39h4.355a7.518,7.518,0,0,1,2.42.2,0.861,0.861,0,0,0,.193.19v0.2h0.1c0.215,0.57-.263,1.63.1,2.05,0.183,0.2.5,0.27,0.677,0.48,0.558-.14,1.592-1.24,2.323-0.97v0.1h0.194c0.161,0.19.322,0.39,0.483,0.58v0.2h0.1v0.19c0.065,0.03.129,0.07,0.194,0.1v0.2h0.1v0.19h0.1v0.2l0.194,0.09c0.032,0.13.065,0.26,0.1,0.39a1.775,1.775,0,0,0,.193.1c0.065,0.2.129,0.39,0.194,0.59l0.193,0.09c0.065,0.2.129,0.39,0.194,0.59a1.788,1.788,0,0,1,.194.1v0.19h0.1v0.2a1.788,1.788,0,0,1,.194.1c0.064,0.19.129,0.39,0.193,0.58,0.065,0.03.129,0.07,0.194,0.1v0.19h0.1v0.2h0.1v0.19a1.775,1.775,0,0,0,.193.1v0.39c0.009,0.04.129,0.03,0.1,0.2h-0.1v0.29h-0.1v0.2c-0.1.06-.193,0.13-0.29,0.19v0.1c-0.129.03-.258,0.06-0.387,0.1-0.032.06-.065,0.13-0.1,0.19-0.129.03-.258,0.07-0.387,0.1-0.032.06-.065,0.13-0.1,0.19a1.973,1.973,0,0,0-.484.2v0.97a4.894,4.894,0,0,1,1.742,1.18h0.1v0.39h0.1c-0.032.19-.065,0.39-0.1,0.58-0.064.03-.129,0.07-0.193,0.1v0.19h-0.1v0.2h-0.1v0.2l-0.194.09v0.2h-0.1v0.19a1.788,1.788,0,0,1-.194.1c-0.064.2-.129,0.39-0.193,0.59l-0.194.09c-0.065.2-.129,0.4-0.194,0.59-0.064.03-.129,0.07-0.193,0.1-0.065.19-.129,0.39-0.194,0.58a1.775,1.775,0,0,1-.193.1v0.2h-0.1v0.19c-0.065.03-.129,0.07-0.194,0.1v0.19h-0.1c-0.28.51-.458,1.31-1.065,1.47v0.1c-0.29-.04-0.581-0.07-0.871-0.1-0.032-.07-0.064-0.13-0.1-0.2h-0.193v-0.1l-0.387-.09c-0.033-.07-0.065-0.13-0.1-0.2h-0.194v-0.1h-0.193c-0.095-.05-0.052-0.26-0.291-0.19v0.1l-0.774.39c0.023,0.88.169,2.1-.387,2.44a3.137,3.137,0,0,1-1.742.19c-1.44,0-4.193.23-5.226-.19a0.971,0.971,0,0,0-.194-0.2v-0.19h-0.1A6.842,6.842,0,0,1,230.574,2885.96Zm1.935-16.01a11.583,11.583,0,0,1-.1,1.96c-0.323.19-.646,0.39-0.968,0.58-0.129.03-.258,0.07-0.387,0.1-0.032.06-.065,0.13-0.1,0.19h-0.194c-0.032.07-.064,0.13-0.1,0.2a1.866,1.866,0,0,1-1.065.29l-1.258-.78h-0.1v0.1c-0.233.16-.061,0.07-0.193,0.29h-0.1v0.2l-0.194.09v0.2h-0.1v0.19h-0.1v0.2a1.788,1.788,0,0,0-.194.1c-0.064.19-.129,0.39-0.193,0.58a1.788,1.788,0,0,1-.194.1c-0.064.2-.129,0.39-0.193,0.59l-0.194.09v0.2h-0.1v0.19h-0.1l-0.1.3a8.133,8.133,0,0,1,1.451.78v0.19a0.955,0.955,0,0,1,.194.88h-0.1v1.17h0.1v0.69h-0.1c-0.032.13-.064,0.26-0.1,0.39a7.62,7.62,0,0,1-1.451.78c0.032,0.09.064,0.19,0.1,0.29h0.1v0.19h0.1v0.2c0.065,0.03.129,0.07,0.194,0.1,0.064,0.19.129,0.39,0.193,0.58a1.788,1.788,0,0,0,.194.1c0.064,0.2.129,0.39,0.193,0.59l0.194,0.09c0.032,0.14.064,0.27,0.1,0.4l0.193,0.09v0.2c0.106,0.19.28,0.39,0.387,0.58a4.341,4.341,0,0,1,1.839-.78v0.1h0.29c0.033,0.07.065,0.13,0.1,0.2h0.194c0.032,0.06.064,0.13,0.1,0.19h0.194c0.032,0.07.065,0.13,0.1,0.2h0.193v0.09c0.436,0.25,1.019.25,1.162,0.78a4.134,4.134,0,0,1,.1,1.76h3.872a8.856,8.856,0,0,1,.193-1.95c0.323-.2.645-0.39,0.968-0.59l0.387-.09c0.032-.07.065-0.13,0.1-0.2h0.193c0.033-.06.065-0.13,0.1-0.19a1.867,1.867,0,0,1,1.065-.3l1.258,0.78c0.123,0.06.053-.05,0.1-0.09a1.447,1.447,0,0,0,.387-0.69l0.193-.09v-0.2h0.1v-0.2l0.194-.09c0.064-.2.129-0.39,0.193-0.59a1.788,1.788,0,0,0,.194-0.1c0.064-.19.129-0.39,0.193-0.58,0.065-.03.129-0.07,0.194-0.1v-0.2h0.1v-0.19h0.1c0.033-.1.065-0.2,0.1-0.29a8.786,8.786,0,0,1-1.451-.78v-0.2a0.939,0.939,0,0,1-.194-0.88h0.1v-1.17h-0.1v-0.68h0.1c0.032-.13.064-0.26,0.1-0.39,0.483-.29.967-0.59,1.451-0.88-0.645-1.11-1.29-2.21-1.935-3.32a4.22,4.22,0,0,1-1.839.78v-0.1h-0.29c-0.033-.06-0.065-0.13-0.1-0.19h-0.194c-0.032-.07-0.064-0.13-0.1-0.2h-0.193c-0.032-.06-0.065-0.13-0.1-0.19h-0.193v-0.1c-0.436-.24-1.019-0.24-1.162-0.78a3.222,3.222,0,0,1-.193-1.76h-3.872Zm1.355,3.91c0.581,0.03,1.162.06,1.742,0.1v0.09c0.194,0.04.388,0.07,0.581,0.1v0.1h0.194v0.1c0.193,0.06.387,0.13,0.58,0.19,0.065,0.1.129,0.2,0.194,0.29h0.193c0.129,0.17.258,0.33,0.388,0.49,0.1,0.07.193,0.13,0.29,0.2v0.19c0.064,0.03.129,0.07,0.193,0.1V2876a1.884,1.884,0,0,0,.194.1v0.2h0.1v0.19h0.1c0.032,0.2.064,0.39,0.1,0.59a4.739,4.739,0,0,1,.194,2.15h-0.1v0.39h-0.1v0.29h-0.1v0.29h-0.1v0.2h-0.1v0.19c-0.064.03-.129,0.07-0.194,0.1v0.19a1.775,1.775,0,0,1-.193.1v0.2c-0.1.06-.194,0.13-0.29,0.19-0.13.17-.259,0.33-0.388,0.49h-0.193c-0.065.1-.129,0.2-0.194,0.29-0.193.07-.387,0.13-0.58,0.2v0.1h-0.194v0.09c-0.193.04-.387,0.07-0.581,0.1v0.1h-0.483v0.1a3.656,3.656,0,0,1-2.033-.3H232.8v-0.09c-0.194-.07-0.387-0.13-0.581-0.2v-0.1h-0.193c-0.065-.09-0.129-0.19-0.194-0.29h-0.194c-0.128-.16-0.258-0.32-0.387-0.49-0.1-.06-0.193-0.13-0.29-0.19v-0.2a1.884,1.884,0,0,1-.194-0.1v-0.19c-0.064-.03-0.128-0.07-0.193-0.1v-0.19h-0.1v-0.2h-0.1c-0.032-.19-0.064-0.39-0.1-0.58h-0.1v-0.3h-0.1v-1.95h0.1v-0.29h0.1v-0.29h0.1v-0.3h0.1v-0.19h0.1v-0.2a1.688,1.688,0,0,0,.193-0.1v-0.19c0.065-.03.13-0.07,0.194-0.1v-0.19a1.788,1.788,0,0,1,.194-0.1c0.161-.2.322-0.39,0.483-0.59h0.194c0.065-.09.129-0.19,0.194-0.29,0.193-.06.387-0.13,0.58-0.19v-0.1Zm0.1,1.95v0.1l-0.58.09v0.1h-0.194l-0.194.3H232.8l-0.581.78v0.19h-0.1v0.29h-0.1a3.571,3.571,0,0,0,.29,2.05,1.775,1.775,0,0,0,.193.1v0.2h0.1c0.065,0.09.129,0.19,0.194,0.29h0.193c0.033,0.06.065,0.13,0.1,0.19h0.194c0.032,0.07.064,0.13,0.1,0.2h0.29a1.968,1.968,0,0,0,1.258.19v-0.09c0.226-.04.452-0.07,0.677-0.1,0.033-.07.065-0.13,0.1-0.2H235.9c0.032-.06.064-0.13,0.1-0.19h0.193l0.581-.78v-0.2h0.1c0.032-.32.064-0.65,0.1-0.97a2.394,2.394,0,0,0-.193-1.17h-0.1v-0.2a1.788,1.788,0,0,1-.194-0.1v-0.19h-0.1c-0.065-.1-0.129-0.2-0.194-0.29h-0.193c-0.033-.07-0.065-0.14-0.1-0.2H235.7c-0.032-.06-0.064-0.13-0.1-0.2l-0.58-.09v-0.1h-1.065Zm-24.291,7.03h7.549v0.09c0.129,0.04.258,0.07,0.387,0.1a3.067,3.067,0,0,1,.29,1.66v1.17a1.779,1.779,0,0,0,.677.2v0.09h0.194v0.1h0.29v0.1h0.194v0.1h0.29v0.1h0.194a2.965,2.965,0,0,0,.774.39l1.355-1.47h0.193c0.033-.06.065-0.13,0.1-0.19,0.194-.04.387-0.07,0.581-0.1v0.1l0.484,0.09,4.064,4.2c0.3,0.31,1.429,1.09,1.259,1.76h-0.1v0.29c-0.065.03-.129,0.07-0.194,0.1v0.19a1.775,1.775,0,0,1-.193.1l-0.968,1.08c-0.1.06-.194,0.13-0.29,0.19v0.2a2.13,2.13,0,0,1,.387.78h0.1v0.29h0.1v0.19h0.1v0.3h0.1v0.19h0.1a1.894,1.894,0,0,0,.193.69h2.323v0.09c0.129,0.04.258,0.07,0.387,0.1,0.032,0.1.065,0.2,0.1,0.29h0.1v0.2h0.1v2.44a31.186,31.186,0,0,1-.193,5.56,3,3,0,0,1-1.646.3h-1.161a1.8,1.8,0,0,0-.193.68h-0.1v0.19h-0.1v0.3h-0.1v0.19h-0.1v0.29h-0.1v0.2a2.786,2.786,0,0,0-.387.78c0.483,0.46.967,0.91,1.451,1.37v0.19c0.065,0.03.129,0.07,0.194,0.1,0.032,0.2.064,0.39,0.1,0.59h-0.1c-0.032.16-.065,0.32-0.1,0.48q-2.081,2.055-4.161,4.1c-0.3.31-1.083,1.44-1.742,1.27v-0.1h-0.291c-0.032-.06-0.064-0.13-0.1-0.19h-0.193c-0.032-.07-0.065-0.13-0.1-0.2-0.355-.32-0.71-0.65-1.064-0.97-0.065-.1-0.129-0.2-0.194-0.29h-0.194a2.467,2.467,0,0,1-.774.39v0.09h-0.29v0.1h-0.194v0.1h-0.29v0.1h-0.194v0.09a1.774,1.774,0,0,0-.677.2v2.34h-0.1c-0.032.13-.064,0.26-0.1,0.39-0.1.03-.193,0.07-0.29,0.1v0.1h-0.193v0.09H214.8a30.73,30.73,0,0,1-5.516-.19,3.066,3.066,0,0,1-.291-1.66v-1.17a1.779,1.779,0,0,0-.677-0.2v-0.09h-0.194v-0.1h-0.29v-0.1h-0.194v-0.1h-0.29v-0.09h-0.193a2.462,2.462,0,0,0-.775-0.39c-0.451.48-.9,0.97-1.355,1.46h-0.193c-0.032.06-.065,0.13-0.1,0.19-0.193.04-.387,0.07-0.58,0.1v-0.1l-0.484-.09-4.065-4.2c-0.3-.31-1.428-1.09-1.258-1.76h0.1v-0.29c0.064-.03.129-0.07,0.193-0.1v-0.19a1.788,1.788,0,0,1,.194-0.1c0.322-.36.645-0.72,0.968-1.07,0.1-.07.193-0.13,0.29-0.2v-0.19a2.244,2.244,0,0,1-.387-0.79h-0.1v-0.29h-0.1v-0.19h-0.1v-0.3h-0.1v-0.19h-0.1a1.8,1.8,0,0,0-.194-0.68H196.7v-0.1c-0.129-.03-0.259-0.07-0.388-0.1-0.032-.1-0.064-0.2-0.1-0.29h-0.1v-0.2h-0.1v-2.44a31.088,31.088,0,0,1,.194-5.56,3.009,3.009,0,0,1,1.645-.29h1.161a1.856,1.856,0,0,0,.194-0.69h0.1v-0.19h0.1v-0.3h0.1v-0.19h0.1v-0.29h0.1v-0.2a2.813,2.813,0,0,0,.387-0.78c-0.484-.46-0.968-0.91-1.452-1.37v-0.19c-0.064-.03-0.129-0.07-0.193-0.1-0.033-.19-0.065-0.39-0.1-0.58h0.1c0.032-.17.064-0.33,0.1-0.49q2.081-2.055,4.162-4.1c0.3-.31,1.083-1.44,1.742-1.27v0.1h0.29c0.032,0.06.065,0.13,0.1,0.19h0.193c0.033,0.07.065,0.13,0.1,0.2,0.355,0.32.71,0.65,1.065,0.97l0.193,0.3h0.194a2.115,2.115,0,0,1,.774-0.39v-0.1h0.29v-0.1h0.194v-0.1h0.29v-0.1h0.194v-0.09a1.774,1.774,0,0,0,.677-0.2v-2.34h0.1c0.032-.13.065-0.26,0.1-0.39A1.337,1.337,0,0,0,209.67,2882.84Zm1.258,1.95a7.207,7.207,0,0,1-.1,2.15c-0.231.83-.93,0.59-1.645,0.87v0.1h-0.194v0.1c-0.193.03-.387,0.07-0.58,0.1v0.1l-0.387.09v0.1h-0.194v0.1h-0.194v0.1h-0.193v0.09H207.25a2.276,2.276,0,0,1-1.161.49v-0.1l-0.484-.09c-0.032-.07-0.064-0.13-0.1-0.2-0.322-.29-0.645-0.58-0.967-0.88-0.065-.1-0.129-0.19-0.194-0.29h-0.193c-0.807.85-1.614,1.69-2.42,2.54a2.809,2.809,0,0,0-.968,1.07,5.368,5.368,0,0,1,1.549,1.76,2.511,2.511,0,0,1-.581,1.36c-0.064.2-.129,0.39-0.193,0.59h-0.1c-0.033.13-.065,0.26-0.1,0.39h-0.1c-0.032.2-.064,0.39-0.1,0.59h-0.1v0.19h-0.1c-0.1.42-.194,0.85-0.29,1.27-0.194.16-.388,0.32-0.581,0.49H197.96v5.07a7.178,7.178,0,0,1,2.129.1c0.662,0.19.547,0.66,0.774,1.27h0.1v0.39h0.1v0.2h0.1c0.033,0.19.065,0.39,0.1,0.58h0.1c0.032,0.13.064,0.26,0.1,0.39h0.1v0.2h0.1v0.19h0.1v0.2h0.1v0.19a2.33,2.33,0,0,1,.484,1.17h-0.1c-0.032.17-.065,0.33-0.1,0.49-0.064.03-.129,0.07-0.193,0.1-0.291.32-.581,0.65-0.871,0.98-0.1.06-.194,0.12-0.291,0.19v0.2c0.839,0.81,1.678,1.62,2.517,2.44a2.737,2.737,0,0,0,1.064.97,5.419,5.419,0,0,1,1.742-1.56,2.442,2.442,0,0,1,1.355.59c0.193,0.06.387,0.12,0.581,0.19v0.1c0.129,0.03.258,0.06,0.387,0.1v0.09c0.193,0.04.387,0.07,0.58,0.1v0.1h0.194v0.1c0.419,0.09.839,0.19,1.258,0.29,0.161,0.19.323,0.39,0.484,0.59v2.14h5.032a7.153,7.153,0,0,1,.1-2.14c0.187-.67.658-0.56,1.258-0.79V2913H217.7v-0.1H217.9v-0.1c0.193-.03.387-0.06,0.581-0.1v-0.09c0.129-.04.258-0.07,0.387-0.1v-0.1h0.193v-0.1h0.194v-0.09h0.193v-0.1h0.194a2.28,2.28,0,0,1,1.161-.49v0.1c0.162,0.03.323,0.06,0.484,0.1,0.032,0.06.065,0.13,0.1,0.19,0.323,0.29.645,0.59,0.968,0.88,0.064,0.1.129,0.19,0.193,0.29h0.194c0.806-.85,1.613-1.69,2.419-2.54a2.809,2.809,0,0,0,.968-1.07,5.365,5.365,0,0,1-1.548-1.76,2.51,2.51,0,0,1,.58-1.36c0.065-.2.129-0.39,0.194-0.59h0.1c0.032-.13.064-0.26,0.1-0.39h0.1c0.033-.19.065-0.39,0.1-0.58h0.1v-0.2h0.1c0.1-.42.193-0.85,0.29-1.27,0.193-.16.387-0.32,0.581-0.49h2.129v-5.07a6.855,6.855,0,0,1-2.129-.1c-0.824-.23-0.589-0.94-0.871-1.66h-0.1v-0.19h-0.1c-0.032-.2-0.064-0.39-0.1-0.59h-0.1c-0.033-.13-0.065-0.26-0.1-0.39h-0.1v-0.2h-0.1v-0.19h-0.1v-0.2h-0.1v-0.19a2.33,2.33,0,0,1-.484-1.17h0.1c0.032-.17.064-0.33,0.1-0.49,0.065-.03.129-0.07,0.194-0.1,0.29-.32.581-0.65,0.871-0.97,0.1-.07.193-0.13,0.29-0.2v-0.19c-0.839-.82-1.677-1.63-2.516-2.44a2.7,2.7,0,0,0-1.065-.98,5.419,5.419,0,0,1-1.742,1.56,2.51,2.51,0,0,1-1.355-.58c-0.193-.07-0.387-0.13-0.58-0.2v-0.1l-0.387-.09v-0.1c-0.194-.03-0.388-0.07-0.581-0.1v-0.1H217.7v-0.1c-0.419-.09-0.838-0.19-1.258-0.29-0.161-.19-0.322-0.39-0.484-0.58v-2.15h-5.032Zm2.226,6.83a3.048,3.048,0,0,1,.968.2,1.337,1.337,0,0,1,.29,1.07h-0.1c-0.032.13-.064,0.26-0.1,0.39a1.962,1.962,0,0,1-1.064.29,0.522,0.522,0,0,0-.387-0.19,2.066,2.066,0,0,1-.291-1.08,0.958,0.958,0,0,0,.194-0.39,2.16,2.16,0,0,1,.484-0.19v-0.1Zm3.194,0.78a2.231,2.231,0,0,1,1.161.2v0.1H217.7v0.09H217.9c0.032,0.07.065,0.13,0.1,0.2h0.193c0.033,0.06.065,0.13,0.1,0.19h0.194c0.032,0.07.064,0.13,0.1,0.2h0.194c0.129,0.16.258,0.32,0.387,0.49h0.194c0.032,0.06.064,0.13,0.1,0.19,0.129,0.1.259,0.2,0.388,0.29v0.2l0.483,0.39c0.033,0.1.065,0.2,0.1,0.29a1.788,1.788,0,0,0,.194.1v0.2l0.193,0.09c0.033,0.13.065,0.26,0.1,0.39a1.788,1.788,0,0,0,.194.1l0.774,1.86q0.048,0.435.1,0.87h0.1v0.69h0.1a6.72,6.72,0,0,1-.193,2.44v0.49a8.548,8.548,0,0,1-2.807,4.49l-0.387.48h-0.194c-0.032.07-.064,0.13-0.1,0.2-0.1.03-.194,0.06-0.291,0.1v0.09h-0.193c-0.032.07-.065,0.13-0.1,0.2-0.194.06-.387,0.13-0.581,0.19v0.1c-0.193.07-.387,0.13-0.58,0.2v0.09c-0.291.07-.581,0.13-0.871,0.2v0.1h-0.387v0.09c-0.387.04-.775,0.07-1.162,0.1v0.1h-1.742v-0.1H211.9v-0.1h-0.484v-0.09h-0.387v-0.1c-0.194-.03-0.387-0.07-0.581-0.1v-0.1h-0.193v-0.09H209.96v-0.1c-0.193-.07-0.387-0.13-0.58-0.2v-0.09c-0.129-.04-0.259-0.07-0.388-0.1-0.032-.07-0.064-0.13-0.1-0.2H208.7c-0.032-.06-0.064-0.13-0.1-0.19h-0.193c-0.032-.07-0.065-0.13-0.1-0.2h-0.194l-0.387-.48a8.522,8.522,0,0,1-2.806-4.49v-0.49a6.55,6.55,0,0,1-.194-2.44h0.1v-0.69h0.1v-0.48h0.1v-0.39h0.1c0.065-.3.129-0.59,0.194-0.88h0.1c0.064-.2.129-0.39,0.193-0.59h0.1v-0.19h0.1l0.1-.39a1.884,1.884,0,0,1,.194-0.1v-0.2h0.1c0.032-.09.064-0.19,0.1-0.29a1.775,1.775,0,0,0,.193-0.1v-0.19l0.387-.3v-0.19c0.194-.16.387-0.33,0.581-0.49,0.032-.06.065-0.13,0.1-0.19h0.193c0.129-.17.258-0.33,0.387-0.49h0.194c0.032-.07.065-0.13,0.1-0.2h0.193c0.033-.06.065-0.13,0.1-0.19a1.877,1.877,0,0,1,1.645-.29,1.672,1.672,0,0,1,.387,1.07h-0.1v0.29c-0.129.1-.258,0.2-0.387,0.29v0.1c-0.129.03-.259,0.07-0.388,0.1v0.1l-0.29.09c-0.032.07-.064,0.14-0.1,0.2h-0.193c-0.129.16-.258,0.33-0.387,0.49l-0.871.78v0.19a1.788,1.788,0,0,1-.194.1v0.2l-0.194.09-0.1.39a1.788,1.788,0,0,1-.194.1v0.29h-0.1c-0.032.13-.064,0.27-0.1,0.4h-0.1c-0.032.19-.065,0.39-0.1,0.58h-0.1c-0.032.36-.064,0.72-0.1,1.07h-0.1a6.392,6.392,0,0,0,.387,2.93v0.3h0.1c0.064,0.19.129,0.39,0.193,0.58h0.1v0.2h0.1l0.1,0.39h0.1c0.033,0.09.065,0.19,0.1,0.29a1.788,1.788,0,0,1,.194.1v0.19c0.193,0.17.387,0.33,0.58,0.49l0.678,0.78h0.193c0.033,0.07.065,0.13,0.1,0.2l0.29,0.09v0.1h0.194v0.1h0.194v0.1h0.193v0.09h0.194v0.1h0.193v0.1h0.194v0.1a8.442,8.442,0,0,0,3.193.39l1.646-.39v-0.1c0.193-.07.387-0.13,0.58-0.2v-0.09h0.194v-0.1c0.129-.03.258-0.07,0.387-0.1,0.032-.06.065-0.13,0.1-0.19h0.193c0.033-.07.065-0.13,0.1-0.2h0.194c0.258-.29.516-0.58,0.774-0.88l0.484-.39v-0.19a1.775,1.775,0,0,1,.193-0.1v-0.2l0.194-.09v-0.2h0.1v-0.19h0.1v-0.2h0.1v-0.19h0.1c0.032-.13.065-0.26,0.1-0.39h0.1l0.1-.69a5.408,5.408,0,0,0,.1-3.12v-0.39h-0.1c-0.032-.23-0.064-0.46-0.1-0.68h-0.1c-0.065-.2-0.129-0.4-0.194-0.59h-0.1v-0.2h-0.1c-0.033-.13-0.065-0.26-0.1-0.39l-0.194-.09v-0.2l-1.451-1.56h-0.194c-0.032-.06-0.064-0.13-0.1-0.2l-0.29-.09v-0.1h-0.194a2.84,2.84,0,0,1-.871-0.68,1.04,1.04,0,0,1-.193-0.78,0.967,0.967,0,0,0,.193-0.39C216.026,2892.6,216.256,2892.52,216.348,2892.4Z" transform="translate(-196 -2868)"/>
</svg>
