<svg id="Группа_4" data-name="Группа 4" xmlns="http://www.w3.org/2000/svg" width="60" height="50" viewBox="0 0 60 50">
  <defs>
    <style>
      .cls-1, .cls-2 {
        fill: #4ca6b4;
      }

      .cls-1 {
        opacity: 0.08;
      }

      .cls-2 {
        fill-rule: evenodd;
      }
    </style>
  </defs>
  <circle id="Эллипс_2_копия_4" data-name="Эллипс 2 копия 4" class="cls-1" cx="35" cy="25" r="25"/>
  <path id="Фигура_9" data-name="Фигура 9" class="cls-2" d="M604.931,2870.22c0.033,0.1.065,0.2,0.1,0.29h0.1v0.3h0.1v10.41h10.915a5.464,5.464,0,0,1,.389-0.58c0.033-.13.065-0.26,0.1-0.39,0.065-.03.13-0.07,0.2-0.1,0.065-.19.13-0.39,0.195-0.58a1.8,1.8,0,0,1,.2-0.1v-0.2h0.1v-0.19h0.1v-0.19h0.1v-0.2a1.8,1.8,0,0,0,.2-0.1c0.065-.19.13-0.39,0.2-0.58,0.065-.03.13-0.07,0.195-0.1v-0.19h0.1v-0.2h0.1v-0.19h0.1v-0.2l0.195-.09v-0.2h0.1v-0.19h0.1v-0.2a1.8,1.8,0,0,0,.2-0.1c0.211-.32.013-0.46,0.487-0.58,0.3-.27,2.289-0.01,2.631.1v0.09h0.39v0.1h0.292v0.1h0.292v0.1h0.293v0.09c0.13,0.04.26,0.07,0.39,0.1v0.1h0.292v0.1h0.2v0.09h0.2c0.032,0.07.065,0.13,0.1,0.2h0.195v0.1h0.2v0.09H625.1v0.1h0.2c0.032,0.07.065,0.13,0.1,0.2h0.2c0.033,0.06.065,0.13,0.1,0.19h1.851v-0.29a2.065,2.065,0,0,1-.487-0.68c-0.1-.07-0.2-0.13-0.293-0.2v-0.19c-0.194-.17-0.389-0.33-0.584-0.49-0.292-.32-0.585-0.65-0.877-0.97h-0.2l-0.292-.39c-0.1-.03-0.2-0.07-0.293-0.1-0.032-.06-0.065-0.13-0.1-0.19h-0.2c-0.033-.07-0.065-0.13-0.1-0.2-0.1-.03-0.2-0.06-0.292-0.1v-0.09c-0.2-.07-0.39-0.13-0.585-0.2-0.032-.06-0.065-0.13-0.1-0.19-0.2-.07-0.39-0.13-0.585-0.2v-0.09h-0.195v-0.1c-0.2-.07-0.389-0.13-0.584-0.2v-0.09H621.5v-0.1H621.3v-0.1H621.01v-0.1h-0.195v-0.09c-0.292-.07-0.585-0.13-0.877-0.2v-0.09h-7.114v-0.1c-0.171-.06-0.254-0.04-0.389-0.1a1.235,1.235,0,0,1-.39-0.97h0.1v-0.3h0.1c0.032-.09.065-0.19,0.1-0.29a30.244,30.244,0,0,1,5.555-.19h2.241v0.1h0.39v0.09h0.292v0.1h0.292v0.1H621.4v0.09h0.292v0.1h0.195v0.1h0.292v0.1h0.2v0.09h0.293v0.1c0.195,0.07.39,0.13,0.584,0.2v0.09h0.2v0.1c0.195,0.07.39,0.13,0.585,0.2,0.032,0.06.065,0.13,0.1,0.19,0.195,0.06.39,0.13,0.585,0.2v0.09c0.1,0.03.2,0.07,0.292,0.1,0.033,0.06.065,0.13,0.1,0.19h0.2c0.032,0.07.065,0.13,0.1,0.2h0.2c0.065,0.1.13,0.19,0.195,0.29h0.2c0.065,0.1.13,0.2,0.195,0.29h0.2c0.162,0.2.324,0.39,0.487,0.59h0.2c0.195,0.22.39,0.45,0.585,0.68a1.884,1.884,0,0,1,.194.1v0.19c0.195,0.16.39,0.33,0.585,0.49v0.19c0.1,0.07.195,0.13,0.292,0.2v0.19a1.8,1.8,0,0,1,.2.1v0.19c0.065,0.03.13,0.07,0.195,0.1,0.033,0.13.065,0.26,0.1,0.39a1.8,1.8,0,0,1,.195.1c0.032,0.13.065,0.26,0.1,0.39h0.1c0.065,0.19.13,0.39,0.195,0.58h0.1v0.29h0.1v0.2h0.1v0.29h0.1a1.719,1.719,0,0,1-.195.78c-0.16.09-.431,0.33-0.584,0.39H625.2v-0.1h-0.292c-0.033-.07-0.065-0.13-0.1-0.2h-0.2c-0.033-.06-0.065-0.13-0.1-0.19h-0.2c-0.032-.07-0.065-0.13-0.1-0.19-0.13-.04-0.26-0.07-0.39-0.1-0.032-.07-0.065-0.13-0.1-0.2-0.293-.09-0.585-0.19-0.877-0.29v-0.1h-0.195v-0.09h-0.293a5.206,5.206,0,0,0-1.949-.49,5.464,5.464,0,0,1-.389.58c-0.033.13-.065,0.26-0.1,0.39a1.8,1.8,0,0,1-.195.1c-0.065.2-.13,0.39-0.2,0.58a1.8,1.8,0,0,1-.2.1v0.2h-0.1v0.19h-0.1v0.2h-0.1v0.19c-0.065.03-.13,0.07-0.2,0.1-0.065.19-.13,0.39-0.195,0.58-0.065.03-.13,0.07-0.2,0.1v0.19h-0.1v0.2h-0.1v0.19h-0.1v0.2l-0.195.09v0.2h-0.1v0.19h-0.1v0.2a1.8,1.8,0,0,0-.195.1c-0.211.32-.013,0.46-0.487,0.58a1.845,1.845,0,0,1-.974.1H613.6a12.887,12.887,0,0,0-.1,3.21v6.91a1.6,1.6,0,0,1,.1.87c0.032,0.59.065,1.17,0.1,1.76h0.1a4.1,4.1,0,0,1,.487-0.49v-0.2l0.2-.09v-0.2l0.2-.09v-0.2h0.1c0.065-.19.13-0.39,0.195-0.58h0.1c0.032-.2.065-0.39,0.1-0.59h0.1v-0.39h0.1v-0.48h0.1c0.033-.13.065-0.26,0.1-0.39a2.206,2.206,0,0,1,1.169-.29v0.09c0.2,0.04.39,0.07,0.585,0.1v0.1h0.39v0.1h0.292v0.09h0.195v0.1h0.292v0.1h0.293c1.137,0.52,2.274,1.04,3.41,1.55,0.033,0.07.065,0.13,0.1,0.2,0.13,0.03.26,0.06,0.39,0.1,0.032,0.06.065,0.13,0.1,0.19,0.13,0.03.26,0.07,0.39,0.1,0.032,0.06.065,0.13,0.1,0.19h0.2c0.033,0.07.065,0.13,0.1,0.2h0.2v0.09c0.1,0.04.194,0.07,0.292,0.1,0.032,0.07.065,0.13,0.1,0.2h0.195c0.033,0.06.065,0.13,0.1,0.19h0.195c0.032,0.07.065,0.13,0.1,0.2l0.292,0.09,0.2,0.3H625.4c0.065,0.09.13,0.19,0.2,0.29l0.292,0.09c0.163,0.2.325,0.39,0.488,0.59h0.2c0.422,0.45.844,0.91,1.266,1.36v0.68c-0.162.2-.324,0.39-0.487,0.59l-0.974.87v0.2l-0.2.09q-0.342.78-.682,1.56v0.49h-0.1v1.85h0.1v0.39h0.1l0.195,0.87h0.1c0.065,0.2.13,0.39,0.2,0.59l0.2,0.09v0.2c0.1,0.06.195,0.13,0.293,0.19v0.2l0.584,0.48,0.2,0.3h0.195c0.065,0.09.13,0.19,0.2,0.29h0.195v0.1h0.2v0.09h0.195v0.1h0.2v0.1c0.129,0.03.259,0.06,0.389,0.1v0.09h0.39v0.1h0.292v0.1h0.683v0.09a3.458,3.458,0,0,0,1.656-.19h0.39v-0.1h0.292v-0.09H632.9v-0.1a1.566,1.566,0,0,1,.974.19c0.033,0.1.065,0.2,0.1,0.29h0.1v0.2h0.1c0.194,0.97.389,1.94,0.584,2.92v0.78h0.1v1.07h0.1a4.93,4.93,0,0,1-.2,2.24h-0.1a0.361,0.361,0,0,1-.293.19,1.265,1.265,0,0,1-.974,0c-0.095-.18-0.323-0.4-0.39-0.58v-1.76q-0.243-1.65-.487-3.3a5.372,5.372,0,0,0-1.072.19,6.033,6.033,0,0,1-2.436-.29c-0.228-.03-0.455-0.07-0.682-0.1a7.444,7.444,0,0,1-3.314-2.53c-0.1-.06-0.194-0.13-0.292-0.19v-0.2a1.8,1.8,0,0,1-.195-0.1v-0.19c-0.065-.03-0.13-0.07-0.2-0.1l-0.292-.87h-0.1v-0.2h-0.1v-0.29h-0.1v-0.29h-0.1a9.932,9.932,0,0,1-.195-3.02h0.1v-0.58h0.1v-0.39h0.1c0.065-.29.129-0.59,0.194-0.88h0.1c0.065-.19.13-0.39,0.2-0.58h0.1c0.033-.13.065-0.26,0.1-0.39,0.065-.03.13-0.07,0.195-0.1v-0.19a1.8,1.8,0,0,1,.2-0.1v-0.2l0.194-.09a1.784,1.784,0,0,0,.39-0.68,1.724,1.724,0,0,1-.682-0.49v-0.1h-0.195l-0.292-.39h-0.2c-0.065-.1-0.13-0.19-0.195-0.29h-0.2c-0.065-.1-0.13-0.19-0.195-0.29h-0.2c-0.032-.07-0.065-0.13-0.1-0.2h-0.2c-0.032-.06-0.065-0.13-0.1-0.19h-0.195c-0.033-.07-0.065-0.13-0.1-0.2h-0.195c-0.032-.06-0.065-0.12-0.1-0.19h-0.2c-0.033-.06-0.065-0.13-0.1-0.19-0.2-.07-0.39-0.13-0.585-0.2-0.033-.06-0.065-0.13-0.1-0.19h-0.2v-0.1h-0.194v-0.1h-0.2v-0.1h-0.195v-0.09h-0.2v-0.1h-0.195v-0.1h-0.2v-0.1h-0.195v-0.09c-0.2-.07-0.39-0.13-0.584-0.2v-0.09h-0.293a6.213,6.213,0,0,0-1.851-.69l-0.39,1.17h-0.1v0.2h-0.1v0.19c-0.065.03-.13,0.07-0.195,0.1-0.032.13-.065,0.26-0.1,0.39-0.1.06-.2,0.13-0.293,0.19v0.2l-0.487.39c-0.032.09-.065,0.19-0.1,0.29-0.1.03-.195,0.06-0.293,0.1-0.065.09-.13,0.19-0.195,0.29-0.292.19-.584,0.39-0.877,0.58,0.111,0.31-.018.86,0.1,1.27h0.1v1.26h0.1v1.17h0.1v1.36h0.1c0.032,0.72.065,1.43,0.1,2.14a3.37,3.37,0,0,1,1.169.59l0.39,0.09c0.033,0.07.065,0.13,0.1,0.2h0.195c0.032,0.06.065,0.13,0.1,0.19h0.2l0.2,0.3h0.195l0.292,0.39H617.5l0.39,0.48c0.324,0.29.649,0.59,0.974,0.88v0.19c0.1,0.07.2,0.13,0.293,0.2v0.19c0.1,0.07.194,0.13,0.292,0.2v0.19c0.065,0.03.13,0.07,0.195,0.1v0.19a3.693,3.693,0,0,1,.974,2.24h-0.1v0.2l-0.2.09-0.195.3h-0.292a0.845,0.845,0,0,1-.78-0.1c-0.065-.1-0.13-0.2-0.2-0.29h-0.1c-0.033-.13-0.065-0.26-0.1-0.39h-0.1v-0.2h-0.1v-0.19h-0.1v-0.2h-0.1v-0.19c-0.064-.03-0.129-0.07-0.194-0.1v-0.19a1.8,1.8,0,0,0-.195-0.1v-0.2l-0.2-.09c-0.033-.1-0.065-0.2-0.1-0.29l-0.389-.3v-0.19c-0.228-.2-0.455-0.39-0.683-0.58l-0.194-.3h-0.195l-0.293-.39h-0.2c-0.065-.09-0.13-0.19-0.195-0.29a2.83,2.83,0,0,0-.876-0.39v0.1c0.316,0.36-.051,1.31.1,1.85,0.167,0.6-.074,1.62.1,2.24a16.986,16.986,0,0,1,0,4.67c-0.1.06-.194,0.13-0.292,0.19v0.1a1.83,1.83,0,0,1-.877.1,3.526,3.526,0,0,1-.487-0.49c-0.382-.4-0.195-1.8-0.195-2.53l-0.2-6.03h-0.1v-1.66h-0.1v-1.46h-0.1v-1.36h-0.1v-1.36h-0.1v-1.27h-0.1v-1.17h-0.1v-1.16h-0.1v-1.07h-0.1v-1.07h-0.1q-0.049-.975-0.1-1.95v-1.07a14.714,14.714,0,0,1-.1-3.31v-6.81h-3.119v6.71a15.139,15.139,0,0,1-.1,3.41v1.07a7.663,7.663,0,0,1-.195,1.85v1.17h-0.1v1.07h-0.1v1.16h-0.1v1.17h-0.1v1.27h-0.1v1.36h-0.1v1.36h-0.1v1.46h-0.1v1.66h-0.1l-0.195,6.42c0,1.09.193,2.3-.682,2.53-0.517.49-1.068-.31-1.267-0.49a22.169,22.169,0,0,1,.1-4.47c0.173-.62-0.071-1.64.1-2.24s-0.087-1.45.1-1.95h-0.2a2.922,2.922,0,0,1-.682.39c-0.065.1-.13,0.2-0.2,0.29h-0.194l-0.2.3h-0.2c-0.065.09-.13,0.19-0.195,0.29-0.26.22-.52,0.45-0.78,0.68v0.19l-0.39.3c-0.032.09-.064,0.19-0.1,0.29l-0.195.09v0.2a1.8,1.8,0,0,0-.2.1c-0.032.13-.065,0.26-0.1,0.39l-0.195.09c-0.292.72-.585,1.43-0.877,2.14v0.39h-0.1v0.49h-0.1v0.68h-0.1v1.27h-0.1c-0.032.13-.065,0.26-0.1,0.39a1.877,1.877,0,0,1-1.17.29,3.123,3.123,0,0,1-.39-0.39,1.945,1.945,0,0,1-.194-1.27,8.279,8.279,0,0,1,.487-2.43v-0.39h0.1v-0.29h0.1c0.032-.16.065-0.33,0.1-0.49h0.1v-0.19h0.1v-0.29h0.1c0.033-.13.065-0.26,0.1-0.39h0.1c0.033-.13.065-0.26,0.1-0.39,0.065-.03.13-0.07,0.195-0.1,0.032-.13.065-0.26,0.1-0.39a1.8,1.8,0,0,0,.2-0.1v-0.19c0.065-.03.13-0.07,0.2-0.1v-0.19c0.1-.07.195-0.13,0.292-0.2v-0.19c0.1-.07.2-0.13,0.293-0.2v-0.19c0.259-.23.519-0.46,0.779-0.68l0.682-.78h0.2c0.065-.1.13-0.2,0.195-0.29h0.2l0.195-.3h0.2c0.032-.06.065-0.13,0.1-0.19h0.2c0.033-.07.065-0.13,0.1-0.2,0.2-.06.389-0.13,0.584-0.19,0.033-.06.065-0.13,0.1-0.19l0.877-.3,0.39-5.25a11.02,11.02,0,0,0,.1-1.95,1.182,1.182,0,0,0-.292-0.19v-0.1h-0.2c-0.195-.23-0.39-0.45-0.585-0.68h-0.2c-0.032-.1-0.065-0.2-0.1-0.29l-0.487-.39v-0.2c-0.1-.06-0.2-0.13-0.293-0.19v-0.2l-0.2-.09c-0.032-.13-0.065-0.26-0.1-0.39h-0.1v-0.2h-0.1l-0.39-1.17a2.569,2.569,0,0,0-.877.3h-0.292v0.09h-0.195v0.1h-0.292v0.1h-0.2v0.1h-0.293v0.09c-0.195.07-.39,0.13-0.584,0.2v0.09l-1.56.69c-0.032.06-.065,0.13-0.1,0.19-0.13.03-.26,0.07-0.39,0.1-0.032.06-.065,0.13-0.1,0.19h-0.2v0.1H597.72c-0.033.07-.065,0.13-0.1,0.19h-0.194c-0.033.07-.065,0.13-0.1,0.2h-0.2v0.1l-0.292.09c-0.033.07-.065,0.13-0.1,0.2h-0.195c-0.065.1-.13,0.19-0.2,0.29h-0.2c-0.065.1-.13,0.19-0.195,0.29h-0.2l-0.292.39h-0.2c-0.033.07-.065,0.13-0.1,0.2l-0.584.48a0.166,0.166,0,0,0,.1.1,11.811,11.811,0,0,0,.877,1.17c0.033,0.13.065,0.26,0.1,0.39h0.1c0.065,0.19.13,0.39,0.2,0.58h0.1c0.065,0.29.13,0.59,0.2,0.88h0.1v0.39h0.1v0.58h0.1a9.955,9.955,0,0,1-.2,3.02h-0.1v0.29h-0.1v0.29h-0.1v0.2h-0.1q-0.147.435-.292,0.87c-0.065.03-.13,0.07-0.195,0.1v0.19h-0.1c-0.032.1-.065,0.2-0.1,0.3l-0.195.09v0.2l-0.487.39-0.78.87h-0.2l-0.195.3-0.39.09c-0.032.07-.065,0.13-0.1,0.2l-0.39.09v0.1c-0.13.03-.26,0.07-0.39,0.1v0.1h-0.292v0.09h-0.2v0.1c-0.227.03-.455,0.07-0.682,0.1v0.1h-0.39a5.14,5.14,0,0,1-2.046.19,4.752,4.752,0,0,0-1.072-.19q-0.243,1.65-.487,3.3c-0.269.95,0.413,2.08-.585,2.34a1.265,1.265,0,0,1-.974,0,6.938,6.938,0,0,1-.39-0.58,5.435,5.435,0,0,1,.1-1.85c0.033-.62.065-1.24,0.1-1.85h0.1v-0.68h0.1v-0.59h0.1v-0.48c0.151-.47.377-1.07,0.487-1.56a1.989,1.989,0,0,1,1.072-.29v0.1l0.585,0.09v0.1h0.39a3.458,3.458,0,0,0,1.656.19v-0.09h0.682v-0.1H590.7v-0.1h0.39v-0.09c0.194-.07.389-0.13,0.584-0.2v-0.1h0.2v-0.09c0.13-.04.26-0.07,0.39-0.1,0.065-.1.13-0.2,0.195-0.29h0.2c0.195-.23.389-0.46,0.584-0.68a1.8,1.8,0,0,1,.2-0.1v-0.2c0.1-.06.195-0.13,0.293-0.19v-0.2l0.195-.09c0.032-.13.064-0.26,0.1-0.39a4.645,4.645,0,0,0,.487-3.31v-0.39h-0.1v-0.39l-0.78-1.56-0.974-.87c-0.163-.2-0.325-0.39-0.488-0.59v-0.68c0.455-.49.91-0.97,1.365-1.46h0.2c0.13-.16.259-0.32,0.389-0.49h0.195c0.1-.12.2-0.25,0.293-0.38H594.8l0.195-.3h0.2c0.065-.09.13-0.19,0.195-0.29h0.2c0.033-.06.065-0.13,0.1-0.19h0.194c0.033-.07.065-0.13,0.1-0.2h0.195c0.032-.06.065-0.13,0.1-0.19h0.195c0.033-.07.065-0.13,0.1-0.2h0.195c0.032-.06.064-0.13,0.1-0.19h0.2v-0.1h0.195c0.032-.06.065-0.13,0.1-0.19,0.195-.07.39-0.13,0.585-0.2,0.032-.06.065-0.13,0.1-0.19h0.2v-0.1h0.2v-0.1H598.6v-0.09h0.2v-0.1h0.195v-0.1h0.2v-0.1c0.195-.06.39-0.13,0.584-0.19v-0.1h0.293v-0.1l0.389-.09v-0.1c0.163-.03.325-0.07,0.488-0.1v-0.1c0.292-.06.584-0.13,0.877-0.19v-0.1h0.2v-0.09c0.227-.04.454-0.07,0.682-0.1a1.9,1.9,0,0,1,1.267-.29v0.09c0.13,0.04.259,0.07,0.389,0.1,0.033,0.1.065,0.2,0.1,0.29h0.1v0.2h0.1v0.48h0.1v0.39h0.1c0.032,0.2.065,0.39,0.1,0.59h0.1c0.065,0.19.13,0.39,0.194,0.58h0.1c0.032,0.13.065,0.26,0.1,0.39,0.1,0.07.2,0.13,0.293,0.19v0.2c0.195,0.16.39,0.32,0.584,0.49v-0.88a2.163,2.163,0,0,0,.1-1.07q0.048-1.02.1-2.04v-8.66a9.04,9.04,0,0,0-2.631-.1c-0.111-.11,0-0.04-0.2-0.1-0.065-.1-0.13-0.19-0.195-0.29h-0.1v-0.2h-0.1V2882h-0.1v-0.39h-0.1v-0.29l-0.683-.78H602.2v-0.1h-0.195v-0.1h-0.293v-0.09a1.972,1.972,0,0,0-.974.09h-0.293v0.1h-0.194c-0.033.07-.065,0.13-0.1,0.2h-0.195c-0.162.19-.325,0.39-0.487,0.58v0.2h-0.1v0.29h-0.1v0.68h-0.1c-0.033.16-.065,0.32-0.1,0.49l-0.292.09c-0.033.07-.065,0.13-0.1,0.2h-5.846a1.026,1.026,0,0,1-.39-0.49c-0.357-.36-0.195-2.36-0.195-3.11,0-2.98-.172-6.25.1-9.06l0.585-.48h4.19a3.25,3.25,0,0,1,1.462.1,0.767,0.767,0,0,1,.585.68h0.1v0.78h0.1v0.19h0.1v0.2h0.1a1.084,1.084,0,0,0,.683.68,0.684,0.684,0,0,0,.487.19v0.1a2.261,2.261,0,0,0,1.656-.29c0.13-.17.26-0.33,0.39-0.49,0.065-.03.13-0.07,0.195-0.1,0.033-.13.065-0.26,0.1-0.39h0.1l0.195-1.26c0.065-.03.13-0.07,0.2-0.1,0.032-.06.065-0.13,0.1-0.19a1.715,1.715,0,0,1,.877-0.1A0.527,0.527,0,0,0,604.931,2870.22Zm3.411-.19a3.608,3.608,0,0,1,.877.1c0.065,0.09.13,0.19,0.195,0.29h0.1c0.033,0.32.065,0.65,0.1,0.97a1.048,1.048,0,0,1-.488.39v0.1c-0.194.03-.389,0.06-0.584,0.1v-0.1a0.962,0.962,0,0,1-.877-1.07h0.1v-0.3Zm-14.13,1.95v9.24h3.118v-9.24h-3.118Zm9.062,6.81v-4.38a6.33,6.33,0,0,0-.877.39h-0.389v0.1a5.2,5.2,0,0,1-2.242-.2v-0.1h-0.195v-0.09c-0.1-.04-0.194-0.07-0.292-0.1v4.38h0.1v-0.1c0.162-.03.324-0.06,0.487-0.1v-0.09h0.292v-0.1a5.164,5.164,0,0,1,2.144,0A8.034,8.034,0,0,0,603.274,2878.79Zm17.054,36.2a1.728,1.728,0,0,1,.779.2,1.264,1.264,0,0,1,.39,1.07h-0.1v0.19a0.55,0.55,0,0,1-.293.29c-0.184.2-.05,0.01-0.292,0.1a1.18,1.18,0,0,1-.974-0.1c-0.033-.09-0.065-0.19-0.1-0.29h-0.1v-0.19h-0.1a0.934,0.934,0,0,1,.488-1.07v-0.1h0.292v-0.1Z" transform="translate(-585 -2868)"/>
</svg>
