<svg id="Группа_5" data-name="Группа 5" xmlns="http://www.w3.org/2000/svg" width="58" height="50.03" viewBox="0 0 58 50.03">
  <defs>
    <style>
      .cls-1, .cls-2 {
        fill: #4ca6b4;
      }

      .cls-1 {
        opacity: 0.08;
      }

      .cls-2 {
        fill-rule: evenodd;
      }
    </style>
  </defs>
  <circle id="Эллипс_2_копия_4" data-name="Эллипс 2 копия 4" class="cls-1" cx="33" cy="25" r="25"/>
  <path id="Фигура_10" data-name="Фигура 10" class="cls-2" d="M1010.08,2884.97v2.44c-0.17.69-.33,1.37-0.49,2.05h-0.1c-0.03.17-.07,0.33-0.1,0.49h-0.1l-0.09.39h-0.1v0.29H1009v0.2a1.865,1.865,0,0,0-.2.1c-0.06.19-.13,0.39-0.19,0.58h-0.1c-0.03.1-.07,0.2-0.1,0.29a1.738,1.738,0,0,1-.19.1v0.2c-0.1.06-.2,0.13-0.3,0.19v0.2c-0.13.09-.26,0.19-0.39,0.29v0.2c-0.26.22-.52,0.45-0.79,0.68-0.06.1-.13,0.19-0.19,0.29h-0.2c-0.1.13-.19,0.26-0.29,0.39h-0.2c-0.06.1-.13,0.2-0.19,0.29h-0.2a1.865,1.865,0,0,1-.1.2h-0.19a1.738,1.738,0,0,0-.1.19c-0.13.04-.26,0.07-0.39,0.1a1.865,1.865,0,0,0-.1.2h-0.2v0.09h-0.19v0.1h-0.3v0.1c-0.13.03-.26,0.06-0.39,0.1v0.09h-0.29v0.1h-0.2v0.1c-0.23.03-.46,0.06-0.69,0.1a8.829,8.829,0,0,1-3.035.39h-1.177v-0.1h-0.686v-0.1H997.04v-0.1h-0.392v-0.09h-0.294V2896h-0.392v-0.1c-0.164-.03-0.327-0.06-0.49-0.1v-0.09h-0.2v-0.1h-0.294v-0.1h-0.2v-0.1h-0.2c-0.032-.06-0.065-0.13-0.1-0.19-0.2-.07-0.392-0.13-0.588-0.2v-0.09c-0.1-.04-0.2-0.07-0.294-0.1-0.032-.07-0.065-0.13-0.1-0.2h-0.2c-0.033-.06-0.065-0.13-0.1-0.19-0.1-.03-0.2-0.07-0.294-0.1l-0.294-.39h-0.2l-0.686-.78c-0.1-.06-0.2-0.13-0.294-0.19v-0.2c-0.131-.1-0.262-0.2-0.392-0.29v-0.2c-0.1-.06-0.2-0.13-0.3-0.19v-0.2a1.91,1.91,0,0,1-.2-0.1v-0.19c-0.065-.03-0.13-0.07-0.2-0.1-0.065-.19-0.13-0.39-0.2-0.58a1.725,1.725,0,0,0-.2-0.1c-0.032-.16-0.065-0.33-0.1-0.49h-0.1c-0.033-.13-0.065-0.26-0.1-0.39h-0.1c-0.2-.68-0.392-1.36-0.588-2.05v-0.58a10.855,10.855,0,0,1-.1-2.74H989V2884h0.1v-0.49h0.1v-0.39h0.1v-0.29h0.1v-0.29h0.1v-0.3h0.1v-0.29h0.1c0.065-.2.131-0.39,0.2-0.59h0.1v-0.19h0.1v-0.2h0.1c0.066-.19.131-0.39,0.2-0.58,0.066-.03.131-0.07,0.2-0.1v-0.19a1.91,1.91,0,0,1,.2-0.1v-0.2l0.2-.09v-0.2c0.1-.06.2-0.13,0.295-0.19v-0.2a1.91,1.91,0,0,0,.2-0.1v-0.19h0.1c0.032-.1.065-0.2,0.1-0.29a1.725,1.725,0,0,1,.2-0.1v-0.2l0.2-.09v-0.2c0.1-.06.2-0.13,0.294-0.19v-0.2a1.813,1.813,0,0,0,.2-0.1c0.033-.1.065-0.19,0.1-0.29h0.1v-0.2l0.2-.09v-0.2a1.813,1.813,0,0,0,.2-0.1v-0.19c0.065-.03.131-0.07,0.2-0.1v-0.19c0.1-.07.2-0.13,0.294-0.2v-0.19a1.91,1.91,0,0,1,.2-0.1c0.033-.1.066-0.2,0.1-0.29H994v-0.2a1.725,1.725,0,0,0,.2-0.1v-0.19c0.066-.03.131-0.07,0.2-0.1v-0.19c0.1-.07.2-0.13,0.295-0.2v-0.2l0.2-.09c0.032-.1.065-0.2,0.1-0.3h0.1v-0.19c0.065-.03.13-0.07,0.2-0.1v-0.19h0.1c0.032-.1.065-0.2,0.1-0.3l0.2-.09v-0.2c0.1-.06.2-0.13,0.294-0.19v-0.2a1.91,1.91,0,0,0,.2-0.1V2872c0.065-.03.131-0.07,0.2-0.1v-0.19h0.1c0.033-.1.065-0.2,0.1-0.3l0.2-.09v-0.2c0.1-.06.2-0.13,0.294-0.19v-0.2a1.813,1.813,0,0,0,.2-0.1v-0.19a1.813,1.813,0,0,1,.2-0.1v-0.2h0.1c0.033-.09.066-0.19,0.1-0.29a1.725,1.725,0,0,0,.2-0.1v-0.19c0.066-.03.131-0.07,0.2-0.1v-0.19c0.1-.07.2-0.13,0.294-0.2v-0.19a1.826,1.826,0,0,1,.2-0.1v-0.2l0.2-.09c0.032-.1.065-0.2,0.1-0.3H999a0.882,0.882,0,0,1,.784-0.19v0.1a2.243,2.243,0,0,1,.485.19v0.2c0.07,0.03.14,0.06,0.2,0.09,0.03,0.1.07,0.2,0.1,0.3h0.1v0.19c0.1,0.07.19,0.13,0.29,0.2v0.19c0.07,0.03.13,0.07,0.2,0.1,0.03,0.1.06,0.19,0.1,0.29h0.09v0.2c0.07,0.03.13,0.06,0.2,0.09v0.2c0.06,0.03.13,0.06,0.2,0.1v0.19a1.738,1.738,0,0,0,.19.1v0.2c0.1,0.06.2,0.13,0.3,0.19v0.2c0.06,0.03.13,0.06,0.19,0.09,0.03,0.1.07,0.2,0.1,0.3h0.1v0.19c0.06,0.03.13,0.07,0.19,0.1v0.19a1.865,1.865,0,0,0,.2.1v0.2c0.1,0.06.2,0.13,0.29,0.19v0.2c0.07,0.03.13,0.06,0.2,0.09,0.03,0.1.07,0.2,0.1,0.3h0.1v0.19c0.06,0.03.13,0.07,0.19,0.1v0.19a1.865,1.865,0,0,0,.2.1v0.2c0.06,0.03.13,0.06,0.19,0.09v0.2c0.1,0.07.2,0.13,0.3,0.2v0.19c0.06,0.03.13,0.07,0.19,0.1,0.04,0.1.07,0.19,0.1,0.29,0.2-.05.09,0.01,0.2-0.1a4.157,4.157,0,0,0,.68-1.07c0.07-.03.14-0.07,0.2-0.1v-0.19c0.1-.07.2-0.13,0.29-0.2v-0.19c0.07-.04.14-0.07,0.2-0.1v-0.2h0.1c0.03-.09.06-0.19,0.1-0.29a1.738,1.738,0,0,0,.19-0.1v-0.19c0.2-.16.39-0.33,0.59-0.49h0.59v0.1h0.29c0.07,0.1.13,0.19,0.2,0.29h0.1v0.2c0.1,0.06.19,0.13,0.29,0.19v0.2c0.07,0.03.13,0.06,0.2,0.09,0.03,0.1.06,0.2,0.1,0.3h0.09v0.19c0.07,0.03.13,0.07,0.2,0.1v0.19a1.244,1.244,0,0,0,.2.1v0.2c0.09,0.06.19,0.13,0.29,0.19v0.2c0.06,0.03.13,0.06,0.2,0.1v0.19c0.06,0.03.13,0.07,0.19,0.1v0.19a1.865,1.865,0,0,0,.2.1v0.2h0.1c0.03,0.09.06,0.19,0.09,0.29a1.865,1.865,0,0,1,.2.1v0.19c0.1,0.07.2,0.13,0.29,0.2v0.19c0.07,0.03.13,0.07,0.2,0.1v0.19a1.865,1.865,0,0,0,.2.1v0.2c0.06,0.03.13,0.06,0.19,0.09v0.2a1.865,1.865,0,0,1,.2.1l0.78,1.56c0.03,0.36.07,0.71,0.1,1.07h0.1a7.23,7.23,0,0,1-.3,2.24h-0.09v0.2h-0.1v0.29a1.865,1.865,0,0,1-.2.1c-0.03.13-.06,0.26-0.1,0.39-0.06.03-.13,0.07-0.19,0.1v0.19c-0.1.07-.2,0.13-0.3,0.2v0.19c-0.16.13-.32,0.26-0.49,0.39-0.03.07-.06,0.13-0.09,0.2h-0.2c-0.07.1-.13,0.19-0.2,0.29h-0.19v0.1h-0.2v0.1C1010.27,2884.91,1010.18,2884.94,1010.08,2884.97Zm-10.687-14.24c-0.033.1-.066,0.2-0.1,0.29h-0.1v0.2a1.725,1.725,0,0,0-.2.1v0.19c-0.066.03-.131,0.07-0.2,0.1v0.19a1.826,1.826,0,0,1-.2.1v0.2c-0.1.06-.2,0.13-0.294,0.19v0.2l-0.2.09v0.2a1.91,1.91,0,0,0-.2.1v0.19h-0.1c-0.032.1-.065,0.2-0.1,0.29a1.725,1.725,0,0,1-.2.1v0.2c-0.1.06-.2,0.13-0.294,0.19v0.2l-0.2.09c-0.033.1-.065,0.2-0.1,0.3h-0.1v0.19a1.813,1.813,0,0,1-.2.1v0.2l-0.2.09v0.2a1.813,1.813,0,0,0-.2.1v0.19c-0.1.07-.2,0.13-0.294,0.2v0.19c-0.066.03-.131,0.07-0.2,0.1-0.033.1-.066,0.19-0.1,0.29h-0.1v0.2l-0.2.09v0.2a1.725,1.725,0,0,0-.2.1v0.19c-0.1.07-.2,0.13-0.294,0.2v0.19a1.91,1.91,0,0,1-.2.1v0.2l-0.2.09v0.2h-0.1c-0.032.1-.065,0.19-0.1,0.29-0.065.03-.13,0.07-0.2,0.1v0.19a1.725,1.725,0,0,1-.2.1v0.2c-0.1.06-.2,0.13-0.294,0.19v0.2l-0.2.09c-0.033.1-.065,0.2-0.1,0.3h-0.1v0.19c-0.065.03-.131,0.07-0.2,0.1v0.19a1.813,1.813,0,0,1-.2.1v0.2c-0.1.06-.2,0.13-0.294,0.19v0.2l-0.2.09v0.2c-0.066.03-.131,0.07-0.2,0.1-0.033.13-.066,0.26-0.1,0.39l-0.2.09c-0.1.3-.2,0.59-0.294,0.88h-0.1v0.2h-0.1a8.8,8.8,0,0,0-.393,4.39c0.033,0.32.066,0.65,0.1,0.97a9.2,9.2,0,0,0,5.293,5.86h0.294v0.1a9.1,9.1,0,0,0,3.235.39h0.887v-0.1h0.58v-0.1h0.4v-0.1h0.29v-0.09h0.29v-0.1h0.3v-0.1h0.19v-0.1c0.3-.09.59-0.19,0.89-0.29,0.03-.06.06-0.13,0.09-0.19,0.13-.04.27-0.07,0.4-0.1,0.03-.07.06-0.13,0.09-0.2h0.2c0.03-.06.07-0.13,0.1-0.19,0.1-.03.19-0.07,0.29-0.1,0.13-.16.26-0.32,0.39-0.49h0.2c0.1-.13.2-0.26,0.29-0.39h0.1v-0.19c0.17-.13.33-0.26,0.49-0.39v-0.2c0.1-.06.2-0.13,0.3-0.19v-0.2a1.738,1.738,0,0,0,.19-0.1c0.04-.13.07-0.26,0.1-0.39,0.07-.03.13-0.06,0.2-0.09,0.09-.3.19-0.59,0.29-0.88h0.1v-0.2h0.1v-0.29h0.09a8.8,8.8,0,0,0,.4-3.22,4.953,4.953,0,0,1-4.41-2.05c-0.1-.06-0.2-0.13-0.3-0.19v-0.2a1.738,1.738,0,0,1-.19-0.1v-0.19h-0.1c-0.03-.13-0.07-0.26-0.1-0.39h-0.1v-0.3h-0.1v-0.29a4.22,4.22,0,0,1-.29-2.05h0.1v-0.58c0.16-.46.32-0.91,0.49-1.37,0.06-.03.13-0.06,0.19-0.09,0.04-.14.07-0.26,0.1-0.4,0.07-.03.13-0.06,0.2-0.09v-0.2a1.117,1.117,0,0,0,.19-0.19,4.127,4.127,0,0,1-.78-1.17c-0.1-.07-0.2-0.13-0.29-0.2v-0.19c-0.07-.04-0.14-0.07-0.2-0.1v-0.2c-0.07-.03-0.13-0.06-0.2-0.09v-0.2h-0.09c-0.04-.1-0.07-0.19-0.1-0.29-0.07-.03-0.13-0.07-0.2-0.1v-0.2c-0.06-.03-0.13-0.06-0.19-0.09v-0.2c-0.1-.06-0.2-0.13-0.3-0.19v-0.2a1.738,1.738,0,0,1-.19-0.1,2.469,2.469,0,0,1-.1-0.29h-0.1v-0.19a1.865,1.865,0,0,0-.2-0.1v-0.2c-0.06-.03-0.13-0.06-0.19-0.09v-0.2c-0.1-.06-0.2-0.13-0.3-0.19v-0.2a4.157,4.157,0,0,1-.781-1.17h-0.2Zm8.327,3.9a0.928,0.928,0,0,1-.19.2v0.19a1.865,1.865,0,0,1-.2.1v0.2c-0.06.03-.13,0.06-0.19,0.09v0.2a1.865,1.865,0,0,0-.2.1v0.19c-0.06.03-.13,0.07-0.2,0.1v0.19a1.738,1.738,0,0,1-.19.1v0.2c-0.1.06-.2,0.13-0.3,0.19v0.2c-0.06.03-.13,0.06-0.19,0.09-0.03.1-.07,0.2-0.1,0.3h-0.1v0.19a1.738,1.738,0,0,1-.19.1v0.2h-0.1c-0.03.09-.07,0.19-0.1,0.29-0.06.03-.13,0.06-0.2,0.1v0.19c-0.09.07-.19,0.13-0.29,0.2v0.19h-0.1c-0.03.13-.06,0.26-0.1,0.39h-0.09v0.29h-0.1v0.49h-0.1a2.536,2.536,0,0,0,.2,1.37v0.29h0.09c0.07,0.19.13,0.39,0.2,0.58,0.1,0.07.2,0.14,0.29,0.2v0.2h0.1c0.07,0.09.13,0.19,0.2,0.29h0.19c0.07,0.1.14,0.19,0.2,0.29,0.2,0.07.39,0.13,0.59,0.2v0.09h0.29a2.574,2.574,0,0,0,1.38.2,5.653,5.653,0,0,0,1.47-.59c0.06-.09.13-0.19,0.19-0.29h0.2c0.03-.1.06-0.19,0.1-0.29,0.09-.07.19-0.13,0.29-0.2v-0.19c0.07-.03.13-0.07,0.2-0.1,0.03-.16.06-0.32,0.09-0.49h0.1v-0.29h0.1v-0.49h0.1a4.863,4.863,0,0,0-.2-1.46h-0.1v-0.29h-0.09v-0.2a1.865,1.865,0,0,1-.2-0.1v-0.19c-0.07-.03-0.13-0.07-0.2-0.1v-0.19a1.738,1.738,0,0,0-.19-0.1v-0.2h-0.1c-0.03-.09-0.07-0.19-0.1-0.29a1.738,1.738,0,0,1-.19-0.1v-0.19c-0.1-.07-0.2-0.13-0.3-0.2v-0.19a1.738,1.738,0,0,0-.19-0.1v-0.2c-0.07-.03-0.14-0.06-0.2-0.09v-0.2h-0.1c-0.03-.1-0.06-0.19-0.1-0.29-0.06-.03-0.13-0.07-0.19-0.1v-0.19c-0.1-.07-0.2-0.13-0.3-0.2v-0.19a1.738,1.738,0,0,0-.19-0.1A1.544,1.544,0,0,0,1007.72,2874.63Zm-13.229,7.12h0.589v0.1a0.978,0.978,0,0,1,.686,1.08h-0.1c-0.033.16-.066,0.32-0.1,0.48a1.91,1.91,0,0,1-.2.1c-0.033.13-.066,0.26-0.1,0.39h-0.1c-0.033.13-.066,0.26-0.1,0.39h-0.1v0.39a4.764,4.764,0,0,0-.2,2.15h0.1v0.49h0.1v0.29h0.1v0.19h0.1v0.2h0.1v0.19h0.1v0.2h0.1v0.2c0.1,0.06.2,0.13,0.294,0.19v0.2c0.13,0.09.261,0.19,0.392,0.29,0.2,0.23.392,0.45,0.588,0.68l-0.1.98a1.712,1.712,0,0,1-1.078.39v-0.1h-0.294c-0.066-.1-0.131-0.2-0.2-0.29l-0.883-.78a6.84,6.84,0,0,1-1.176-5.76c0.033-.23.065-0.46,0.1-0.68h0.1v-0.2h0.1c0.1-.29.2-0.58,0.294-0.88l0.2-.09c0.033-.13.066-0.26,0.1-0.4H994c0.033-.06.066-0.12,0.1-0.19A0.872,0.872,0,0,0,994.491,2881.75Zm4.608,8.98h0.784v0.1a0.44,0.44,0,0,1,.387.29c0.21,0.18.01,0.05,0.1,0.29h0.1a1.043,1.043,0,0,1-1.371,1.17,1.069,1.069,0,0,1-.588-1.26A2.355,2.355,0,0,1,999.1,2890.73Zm-11.959,3.22H979v5.17c0.752,0.01,2.64-.18,3.137.1,0.033,0.06.066,0.13,0.1,0.2,0.1,0.06.2,0.13,0.294,0.19v0.2h0.1v0.29h0.1v0.39h0.1v0.29h0.1c0.033,0.2.066,0.39,0.1,0.59,0.294,0.68.589,1.36,0.883,2.05H984c0.065,0.19.13,0.39,0.2,0.58h0.1a2.5,2.5,0,0,1,.392,1.07c-0.161.16-.212,0.5-0.392,0.69-0.588.55-1.177,1.1-1.765,1.66v0.19c1.242,1.2,2.484,2.41,3.725,3.61a4.724,4.724,0,0,0,1.373,1.27,4.051,4.051,0,0,1,.784-0.78c0.533-.53.89-1.28,1.862-1.37v0.1h0.294v0.1h0.2c0.033,0.06.066,0.13,0.1,0.19,0.2,0.07.393,0.13,0.589,0.2v0.1h0.2v0.09h0.2v0.1c0.2,0.07.392,0.13,0.588,0.2v0.09c0.163,0.04.327,0.07,0.49,0.1v0.1h0.2v0.1c0.294,0.06.588,0.13,0.882,0.19v0.1c0.7,0.28,1.4.15,1.765,0.78,0.349,0.35.205,2.37,0.2,3.12h7.058c0-.75-0.18-2.63.1-3.12,0.06-.03.13-0.07,0.19-0.1,0.07-.1.13-0.19,0.2-0.29h0.2v-0.1H1004v-0.1h0.39v-0.09h0.3v-0.1c0.19-.03.39-0.07,0.58-0.1,0.69-.29,1.38-0.58,2.06-0.88v-0.09c0.2-.07.39-0.14,0.59-0.2v-0.1a2.577,2.577,0,0,1,1.08-.39c0.16,0.16.5,0.21,0.69,0.39,0.55,0.59,1.11,1.17,1.66,1.76h0.2c1.21-1.24,2.42-2.47,3.62-3.71a4.848,4.848,0,0,0,1.28-1.36,4.221,4.221,0,0,1-.79-0.79c-0.53-.53-1.28-0.88-1.37-1.85h0.1v-0.29h0.1v-0.2c0.06-.03.13-0.06,0.19-0.09,0.07-.2.14-0.39,0.2-0.59h0.1v-0.19h0.1v-0.2h0.09v-0.2h0.1c0.07-.19.13-0.39,0.2-0.58h0.1v-0.29h0.09v-0.2h0.1c0.07-.29.13-0.58,0.2-0.88h0.1c0.28-.7.14-1.39,0.78-1.75,0.35-.35,2.39-0.21,3.14-0.2v-5.17h-8.14c0.03,0.68.07,1.37,0.1,2.05v0.68l-0.39,2.25a12.168,12.168,0,0,1-4.02,6.05l-0.39.48h-0.2a1.865,1.865,0,0,1-.1.2h-0.19c-0.07.1-.13,0.19-0.2,0.29-0.13.03-.26,0.07-0.39,0.1-0.03.06-.07,0.13-0.1,0.19-0.13.04-.26,0.07-0.39,0.1-0.03.07-.07,0.13-0.1,0.2l-0.39.09v0.1c-0.2.07-.39,0.13-0.59,0.2v0.09h-0.29v0.1H1004v0.1h-0.29v0.1h-0.3v0.1a1.638,1.638,0,0,1-.98,0v-0.1c-0.1-.03-0.19-0.07-0.29-0.1v-0.2c-0.07-.03-0.13-0.06-0.2-0.09v-0.78c0.11-.11.04,0,0.1-0.2,0.1-.06.2-0.13,0.29-0.19v-0.1h0.2v-0.1c0.2-.03.39-0.06,0.59-0.1v-0.09h0.19v-0.1h0.3v-0.1c0.19-.06.39-0.13,0.59-0.19v-0.1h0.19v-0.1c0.2-.06.39-0.13,0.59-0.19,0.03-.07.07-0.13,0.1-0.2h0.19a1.738,1.738,0,0,0,.1-0.19h0.2c0.06-.1.13-0.2,0.19-0.3h0.2c0.1-.13.2-0.26,0.29-0.39h0.2c0.07-.09.13-0.19,0.2-0.29,0.26-.23.52-0.46,0.78-0.68v-0.2c0.16-.13.33-0.26,0.49-0.39v-0.19a1.865,1.865,0,0,1,.2-0.1,2.469,2.469,0,0,1,.1-0.29h0.09v-0.2a1.865,1.865,0,0,0,.2-0.1c0.06-.19.13-0.39,0.2-0.58h0.09v-0.2h0.1c0.07-.19.13-0.39,0.2-0.58h0.1v-0.29h0.09v-0.2h0.1v-0.29h0.1v-0.3h0.1v-0.39h0.1v-0.39h0.09v-0.48h0.1v-0.78h0.1a5.674,5.674,0,0,0-.1-1.96c-0.03-.42-0.06-0.84-0.1-1.26h-0.09a1.8,1.8,0,0,1,.19-1.08,10.362,10.362,0,0,1,3.73-.29h7.64v0.1l0.39,0.09c0.57,1.23.3,4.38,0.3,6.15a7.625,7.625,0,0,1-.2,2.44c-0.81.44-2.37,0.3-3.62,0.29-0.04.1-.07,0.2-0.1,0.3h-0.1v0.29h-0.1v0.39h-0.1v0.19h-0.09v0.3h-0.1v0.19h-0.1v0.29h-0.1c-0.03.14-.06,0.27-0.1,0.4h-0.09v0.29h-0.1v0.19h-0.1v0.2a2.711,2.711,0,0,0-.39.78c0.72,0.68,1.44,1.36,2.15,2.05a2.419,2.419,0,0,1,.2.78,4.558,4.558,0,0,1-1.27,1.36c-0.2.23-.4,0.46-0.59,0.69-0.85.81-1.7,1.62-2.55,2.44-0.62.61-1.24,1.23-1.86,1.85a1.844,1.844,0,0,1-1.28.88v-0.1c-0.16-.03-0.32-0.06-0.49-0.1-0.1-.13-0.19-0.26-0.29-0.39-0.36-.32-0.72-0.65-1.08-0.97l-0.69-.78a1.745,1.745,0,0,0-.78.39h-0.2v0.09h-0.19v0.1h-0.3v0.1h-0.19v0.1c-0.13.03-.26,0.06-0.4,0.09v0.1c-0.19.03-.39,0.07-0.58,0.1v0.1h-0.2v0.09a4.96,4.96,0,0,0-.98.3v3.22a2.874,2.874,0,0,1-.39.39c-0.39.38-1.82,0.19-2.55,0.19h-5.1a8.4,8.4,0,0,1-2.647-.19c-0.442-.81-0.3-2.36-0.294-3.61-0.1-.04-0.2-0.07-0.294-0.1v-0.1h-0.294v-0.1h-0.392v-0.09h-0.2v-0.1h-0.294v-0.1h-0.2v-0.1h-0.294v-0.09c-0.131-.04-0.262-0.07-0.392-0.1v-0.1h-0.294v-0.1h-0.2v-0.09h-0.2a2.5,2.5,0,0,0-.784-0.39c-0.686.71-1.372,1.43-2.058,2.14a2.484,2.484,0,0,1-.784.2,4.453,4.453,0,0,1-1.373-1.27c-0.229-.2-0.457-0.39-0.686-0.59-0.817-.84-1.634-1.69-2.451-2.53l-1.862-1.86a1.807,1.807,0,0,1-.882-1.26c0.16-.16.212-0.5,0.392-0.69l0.49-.39c0.294-.32.588-0.65,0.882-0.97a1.473,1.473,0,0,0,.588-0.69,0.741,0.741,0,0,1-.2-0.39h-0.1v-0.19h-0.1v-0.2h-0.1v-0.19h-0.1v-0.29h-0.1c-0.033-.13-0.065-0.26-0.1-0.4h-0.1v-0.29h-0.1v-0.19h-0.1v-0.3h-0.1v-0.19h-0.1v-0.39h-0.1a0.726,0.726,0,0,0-.2-0.49v-0.1h-3.235a2.533,2.533,0,0,1-.392-0.39c-0.346-.34-0.2-1.48-0.2-2.14a34.4,34.4,0,0,1,.2-6.25,10.334,10.334,0,0,1,3.725-.29h7.646v0.1l0.392,0.09c0.033,0.1.065,0.2,0.1,0.3h0.1v0.19h0.1a2.2,2.2,0,0,1-.2,1.17c-0.033.91-.065,1.82-0.1,2.74h0.1q0.049,0.63.1,1.26h0.1v0.39h0.1v0.3h0.1v0.39h0.1v0.19h0.1v0.3h0.1c0.033,0.16.066,0.32,0.1,0.48h0.1c0.033,0.13.066,0.26,0.1,0.39h0.1c0.033,0.13.066,0.26,0.1,0.39a1.91,1.91,0,0,0,.2.1c0.033,0.13.066,0.26,0.1,0.39h0.1c0.033,0.1.066,0.2,0.1,0.29a1.91,1.91,0,0,0,.2.1v0.2c0.1,0.06.2,0.13,0.295,0.19v0.2l0.49,0.39v0.19l0.49,0.39c0.032,0.07.065,0.13,0.1,0.2h0.2c0.163,0.19.327,0.39,0.49,0.58h0.2c0.033,0.07.065,0.13,0.1,0.2h0.2c0.066,0.1.131,0.19,0.2,0.29,0.131,0.03.262,0.07,0.392,0.1,0.033,0.06.066,0.13,0.1,0.19h0.2v0.1h0.2v0.1h0.2v0.1h0.2v0.09h0.2v0.1c0.163,0.03.326,0.07,0.49,0.1v0.1a0.821,0.821,0,0,1,.588.58c0.5,0.52-.317,1.07-0.49,1.27h-0.784v-0.1h-0.2v-0.1l-0.49-.09v-0.1h-0.2v-0.1h-0.2v-0.1c-0.2-.06-0.392-0.13-0.588-0.19-0.033-.07-0.065-0.13-0.1-0.2l-0.392-.09v-0.1c-0.1-.03-0.2-0.07-0.294-0.1-0.033-.06-0.065-0.13-0.1-0.19h-0.2l-0.2-.3h-0.2l-0.294-.39h-0.2c-0.2-.22-0.393-0.45-0.589-0.68-0.261-.23-0.522-0.45-0.784-0.68a19.478,19.478,0,0,1-2.156-3.61v-0.29h-0.1v-0.3h-0.1v-0.29h-0.1v-0.29h-0.1v-0.39h-0.1c-0.033-.33-0.066-0.65-0.1-0.98h-0.1v-0.88A10.614,10.614,0,0,1,987.14,2893.95Zm12.057,12.1a3.667,3.667,0,0,1,.883.1c0.06,0.09.13,0.19,0.19,0.29h0.1c0.04,0.32.07,0.65,0.1,0.98a4.78,4.78,0,0,1-.39.39c-0.186.19-.05,0-0.3,0.09a1.155,1.155,0,0,1-.98-0.09,2.056,2.056,0,0,1-.294-1.08,0.965,0.965,0,0,0,.2-0.39,2.2,2.2,0,0,1,.49-0.19v-0.1Z" transform="translate(-977 -2868)"/>
</svg>
