<svg id="Группа_6" data-name="Группа 6" xmlns="http://www.w3.org/2000/svg" width="52" height="50" viewBox="0 0 52 50">
  <defs>
    <style>
      .cls-1, .cls-2 {
        fill: #4ca6b4;
      }

      .cls-1 {
        opacity: 0.08;
      }

      .cls-2 {
        fill-rule: evenodd;
      }
    </style>
  </defs>
  <circle id="Эллипс_2_копия_4" data-name="Эллипс 2 копия 4" class="cls-1" cx="27" cy="25" r="25"/>
  <path id="Фигура_11" data-name="Фигура 11" class="cls-2" d="M1401.7,2874.36a2.059,2.059,0,0,1,.97.29h0.19v0.1h0.2v0.1c0.19,0.06.38,0.13,0.58,0.19,0.06,0.1.13,0.2,0.19,0.29h0.19l0.3,0.39,0.48,0.39v0.2c0.1,0.06.19,0.13,0.29,0.19,0.03,0.13.07,0.26,0.1,0.4,0.06,0.03.13,0.06,0.19,0.09v0.2h0.1c0.1,0.42.19,0.84,0.29,1.27h0.1c-0.04.75-.07,1.49-0.1,2.24h-0.1c-0.03.2-.06,0.39-0.09,0.59a3.287,3.287,0,0,1,1.06.97l0.39,0.3v0.19c0.07,0.03.13,0.07,0.19,0.1,0.07,0.2.13,0.39,0.2,0.59h0.1v0.19h0.09c0.03,0.2.07,0.39,0.1,0.59h0.1c0.06,0.55.13,1.1,0.19,1.66h-0.1v0.78h-0.09v0.39h-0.1c-0.03.19-.07,0.39-0.1,0.58h-0.09c-0.04.13-.07,0.26-0.1,0.39h-0.1v0.2h-0.1c-0.03.1-.06,0.2-0.09,0.29a1.865,1.865,0,0,1-.2.1,2.865,2.865,0,0,1-1.35,1.27,4.874,4.874,0,0,0,.29,1.07c-0.04.75-.07,1.5-0.1,2.25h-0.1v0.29h-0.09v0.3h-0.1c-0.03.13-.07,0.26-0.1,0.39h-0.09c-0.04.13-.07,0.26-0.1,0.39a1.865,1.865,0,0,0-.2.1v0.19c-0.12.1-.25,0.19-0.38,0.29v0.2c-0.13.1-.26,0.19-0.39,0.29v0.1h-0.2c-0.06.1-.12,0.19-0.19,0.29h-0.19a1.865,1.865,0,0,0-.1.2h-0.19a1.738,1.738,0,0,0-.1.19h-0.19v0.1h-0.3v0.1h-0.19v0.09h-0.29c-0.2.08-.49,0.21-0.68,0.3a4.551,4.551,0,0,1-2.42,3.41v16.99h-0.1v0.2c-0.1.06-.19,0.13-0.29,0.19a1.181,1.181,0,0,1-.87.2l-1.85-1.76c-1.16-1.2-2.32-2.41-3.49-3.61-0.48-.49-0.97-0.98-1.45-1.47a2.9,2.9,0,0,1-.58-0.58,0.165,0.165,0,0,0-.1.1l-5.43,5.37a7.48,7.48,0,0,1-2.03,1.85v0.1h-0.59a3.717,3.717,0,0,1-.48-0.49,2.026,2.026,0,0,1-.19-1.27v-15.82a4.679,4.679,0,0,1-2.43-3.51,5.126,5.126,0,0,1-3.88-6.93c-0.19-.13-0.38-0.26-0.58-0.39-0.03-.07-0.06-0.13-0.09-0.2h-0.2a1.738,1.738,0,0,0-.1-0.19h-0.09V2889c-0.13-.1-0.26-0.19-0.39-0.29v-0.2c-0.07-.03-0.13-0.06-0.19-0.09v-0.2a1.865,1.865,0,0,1-.2-0.1v-0.19h-0.1v-0.2h-0.09c-0.07-.29-0.13-0.58-0.2-0.88h-0.09v-0.58H1373v-1.37h0.1v-0.49h0.09v-0.39h0.1v-0.29h0.1l0.09-.39h0.1c0.03-.13.07-0.26,0.1-0.39,0.06-.03.13-0.07,0.19-0.1v-0.19c0.1-.07.2-0.13,0.29-0.2v-0.2c0.2-.16.39-0.32,0.59-0.48,0.03-.07.06-0.13,0.09-0.2h0.2c0.03-.06.06-0.13,0.09-0.19,0.24-.18.17,0.1,0.29-0.3-0.36-.32-0.14-0.73-0.29-1.27h-0.09a1.766,1.766,0,0,1,.09-0.87v-0.69h0.1v-0.39h0.1v-0.29h0.09c0.07-.2.13-0.39,0.2-0.59h0.09c0.04-.13.07-0.26,0.1-0.39a1.865,1.865,0,0,0,.2-0.1v-0.19h0.09a1.359,1.359,0,0,0,.39-0.59h0.19a3.787,3.787,0,0,1,2.62-1.36,4.473,4.473,0,0,1,.68-1.96c0.07-.03.13-0.06,0.19-0.09v-0.2h0.1a1.487,1.487,0,0,0,.39-0.58,1.315,1.315,0,0,0,.58-0.49h0.19a1.865,1.865,0,0,0,.1-0.2c0.13-.03.26-0.06,0.39-0.1v-0.09c0.19-.07.39-0.13,0.58-0.2v-0.1h0.29v-0.09h0.39v-0.1h0.68v-0.1a6.083,6.083,0,0,1,1.84.2v0.09c0.16,0.04.32,0.07,0.49,0.1v-0.1a1.118,1.118,0,0,0,.19-0.29h0.1v-0.19a1.738,1.738,0,0,1,.19-0.1c0.16-.2.32-0.39,0.49-0.59h0.19c0.06-.1.13-0.19,0.19-0.29h0.2c0.03-.07.06-0.13,0.09-0.2,0.2-.06.39-0.13,0.59-0.19v-0.1h0.19v-0.1l0.68-.09a4.91,4.91,0,0,1,5.52,2.24A5.094,5.094,0,0,1,1401.7,2874.36Zm-24.24,14.45a1.839,1.839,0,0,1,.19,1.17,1.738,1.738,0,0,0-.19.1v0.19h-0.1l-0.09.39h-0.1v0.29h-0.1v0.49h-0.1a3.867,3.867,0,0,0,.39,1.96h0.1v0.19c0.06,0.03.13,0.07,0.19,0.1v0.19a1.865,1.865,0,0,0,.2.1c0.09,0.13.19,0.26,0.29,0.39h0.19c0.03,0.07.07,0.13,0.1,0.2,0.13,0.03.26,0.06,0.39,0.1v0.09h0.19v0.1h0.29v0.1l1.26,0.09c0.03,0.07.07,0.14,0.1,0.2,0.26,0.18.17-.1,0.29,0.29,0.35,0.33.04,0.58,0.19,1.08,0.13,0.35.26,0.71,0.39,1.07,0.1,0.07.2,0.13,0.29,0.2v0.19c0.13,0.1.26,0.2,0.39,0.29v0.1h0.19c0.07,0.1.13,0.2,0.2,0.3h0.19a2.782,2.782,0,0,0,1.65.39h0.58v-0.1c0.2-.03.39-0.07,0.58-0.1v-0.1h0.2c0.03-.06.06-0.13,0.09-0.19a1.771,1.771,0,0,1,.97-0.2,0.907,0.907,0,0,0,.39.2c0.03,0.06.07,0.13,0.1,0.19h0.1c0.03,0.17.06,0.33,0.09,0.49h0.1v0.2h0.1v0.19c0.06,0.03.13,0.07,0.19,0.1v0.19c0.1,0.07.19,0.13,0.29,0.2,0.13,0.16.26,0.33,0.39,0.49a3.3,3.3,0,0,0,2.71.39h0.29v-0.1c0.13-.03.26-0.07,0.39-0.1v-0.09h0.2c0.06-.1.13-0.2,0.19-0.3h0.19l0.3-.39h0.09v-0.19a1.865,1.865,0,0,1,.2-0.1v-0.2h0.09v-0.19h0.1v-0.2h0.1v-0.29c0.13-.1.26-0.19,0.38-0.29v-0.1h0.3v-0.1a1.419,1.419,0,0,1,1.06.39,4.237,4.237,0,0,0,2.52.2v-0.1h0.2v-0.1c0.19-.06.38-0.13,0.58-0.19,0.06-.1.13-0.2,0.19-0.3,0.2-.16.39-0.32,0.58-0.48v-0.2a1.865,1.865,0,0,0,.2-0.1v-0.19h0.1c0.03-.2.06-0.39,0.09-0.59h0.1c0.03-.42.06-0.84,0.1-1.27,0.06-.03.13-0.06,0.19-0.09,0.06-.1.13-0.2,0.19-0.3a4.359,4.359,0,0,1,.88-0.1v-0.09h0.58v-0.1h0.29v-0.1h0.19v-0.09h0.2c0.03-.07.06-0.14,0.09-0.2h0.2c0.09-.13.19-0.26,0.29-0.39l0.48-.39v-0.2h0.1a3.362,3.362,0,0,0,.39-1.75v-0.59h-0.1c-0.03-.2-0.06-0.39-0.1-0.59h-0.09v-0.19h-0.1v-0.2a1.214,1.214,0,0,1-.29-0.88h0.1V2889c0.09-.06.19-0.13,0.29-0.19v-0.1h0.19v-0.1h0.19v-0.1h0.2v-0.09h0.19v-0.1h0.2c0.03-.07.06-0.13,0.09-0.2h0.2c0.03-.06.06-0.13,0.09-0.19l0.39-.3v-0.19c0.07-.03.13-0.07,0.2-0.1l0.09-.39h0.1v-0.19h0.1v-0.39h0.09v-0.59h0.1v-0.39h-0.1v-0.59h-0.09v-0.29h-0.1c-0.06-.19-0.13-0.39-0.19-0.58h-0.1v-0.2c-0.07-.03-0.13-0.07-0.19-0.1a4.074,4.074,0,0,0-.97-0.88h-0.2v-0.09h-0.19v-0.1h-0.2v-0.1c-0.27-.17-0.17.09-0.29-0.29a0.509,0.509,0,0,1-.09-0.69v-0.29h0.09V2881a1.865,1.865,0,0,1,.2-0.1v-0.2h0.09a4.222,4.222,0,0,0,0-2.63h-0.09c-0.04-.13-0.07-0.26-0.1-0.39-0.1-.07-0.19-0.13-0.29-0.2v-0.19l-0.39-.3v-0.09h-0.19c-0.03-.07-0.07-0.14-0.1-0.2h-0.19a1.865,1.865,0,0,1-.1-0.2h-0.19v-0.09h-0.3v-0.1a8.727,8.727,0,0,1-1.64-.29v-0.1c-0.45-.4-0.12-0.46-0.29-1.07h-0.1v-0.49h-0.1v-0.3h-0.09c-0.04-.13-0.07-0.26-0.1-0.39h-0.1v-0.19c-0.06-.03-0.13-0.07-0.19-0.1v-0.19c-0.28-.41-1.92-1.43-2.81-1.18v0.1h-0.59v0.1c-0.29.1-.58,0.19-0.87,0.29a1.865,1.865,0,0,1-.1.2h-0.87a0.289,0.289,0,0,0-.29-0.2,3.923,3.923,0,0,0-1.94-2.34h-0.29a2.516,2.516,0,0,0-1.45-.2v0.1h-0.39v0.1h-0.29v0.1l-0.39.09v0.1h-0.19c-0.07.1-.13,0.2-0.2,0.29h-0.19l-0.78,1.08v0.29h-0.09a0.646,0.646,0,0,1-.49.49,1.172,1.172,0,0,1-.97,0v-0.1h-0.19c-0.03-.06-0.07-0.13-0.1-0.19-0.19-.04-0.39-0.07-0.58-0.1v-0.1a3.868,3.868,0,0,0-2.72.49c-0.06.1-.12,0.19-0.19,0.29a3.7,3.7,0,0,0-.87,1.08v0.29h-0.1v0.39h-0.1a5.626,5.626,0,0,1-.09,1.07,1.865,1.865,0,0,1-.2.1c-0.06.1-.13,0.2-0.19,0.29h-0.29v0.1h-0.87v0.1h-0.3v0.1h-0.29v0.09c-0.13.04-.25,0.07-0.38,0.1a1.865,1.865,0,0,0-.1.2h-0.19c-0.17.19-.33,0.39-0.49,0.58a1.738,1.738,0,0,1-.19.1v0.2c-0.07.03-.13,0.06-0.2,0.09v0.2h-0.09c-0.04.19-.07,0.39-0.1,0.58h-0.1v0.49h-0.1a4.931,4.931,0,0,0,.2,1.47h0.1v0.29c0.06,0.03.13,0.07,0.19,0.1a1.935,1.935,0,0,1,.19,1.17h-0.09v0.19h-0.1c-0.06.1-.13,0.2-0.19,0.3h-0.2v0.1h-0.29c-0.35.26-.71,0.52-1.07,0.78v0.19c-0.09.07-.19,0.13-0.29,0.2v0.19h-0.09c-0.04.13-.07,0.26-0.1,0.39h-0.1v0.3h-0.09v0.39h-0.1a2.543,2.543,0,0,0,.19,1.46v0.29A3.872,3.872,0,0,0,1377.46,2888.81Zm12.02-13.96a10.044,10.044,0,0,1,2.72.19h0.58c2.54,0.8,4.52,1.85,5.91,3.81,0.13,0.1.26,0.19,0.39,0.29v0.2c0.06,0.03.13,0.06,0.19,0.09,0.04,0.1.07,0.2,0.1,0.3h0.1v0.19c0.06,0.03.13,0.07,0.19,0.1v0.19h0.1v0.2h0.1v0.19h0.09v0.2h0.1v0.2h0.1c0.06,0.19.13,0.39,0.19,0.58h0.1v0.29h0.09v0.3h0.1v0.29h0.1v0.29h0.1c0.03,0.3.06,0.59,0.09,0.88a9.508,9.508,0,0,1-.39,5.37c-0.03.2-.06,0.39-0.09,0.59h-0.1c-0.06.19-.13,0.39-0.19,0.58h-0.1v0.2h-0.1v0.19h-0.09c-0.07.2-.13,0.39-0.2,0.59a1.738,1.738,0,0,0-.19.1v0.19c-0.07.03-.13,0.07-0.2,0.1v0.2c-0.06.03-.13,0.06-0.19,0.09v0.2c-0.13.1-.26,0.19-0.39,0.29v0.2l-0.87.78c-0.16.19-.32,0.39-0.48,0.58h-0.2c-0.1.13-.19,0.26-0.29,0.39h-0.19a1.865,1.865,0,0,0-.1.2c-0.1.03-.19,0.06-0.29,0.1v0.1l-0.39.09a1.865,1.865,0,0,1-.1.2l-0.38.09v0.1h-0.2v0.1c-0.19.07-.39,0.13-0.58,0.2v0.09c-0.19.04-.39,0.07-0.58,0.1v0.1h-0.2v0.1l-0.67.09v0.1c-0.33.03-.65,0.07-0.97,0.1a8.346,8.346,0,0,1-4.37-.2h-0.38v-0.09c-0.2-.04-0.39-0.07-0.59-0.1v-0.1h-0.19v-0.1h-0.29v-0.09h-0.19v-0.1h-0.3v-0.1h-0.19c-0.03-.06-0.06-0.13-0.1-0.2h-0.19v-0.09h-0.19v-0.1h-0.2v-0.1h-0.19v-0.09c-0.1-.04-0.2-0.07-0.29-0.1-0.03-.07-0.07-0.13-0.1-0.2h-0.19c-0.07-.1-0.13-0.19-0.2-0.29h-0.19c-0.16-.2-0.32-0.39-0.49-0.59h-0.19c-0.13-.16-0.26-0.32-0.39-0.49-0.06-.03-0.13-0.06-0.19-0.09v-0.2c-0.16-.13-0.32-0.26-0.49-0.39v-0.19c-0.09-.07-0.19-0.13-0.29-0.2-0.03-.1-0.06-0.19-0.09-0.29-0.07-.03-0.13-0.07-0.2-0.1-0.03-.13-0.06-0.26-0.1-0.39-0.06-.03-0.12-0.07-0.19-0.1-0.06-.19-0.13-0.39-0.19-0.58h-0.1v-0.2h-0.1c-0.06-.19-0.13-0.39-0.19-0.58h-0.1c-0.03-.2-0.06-0.4-0.09-0.59a9.646,9.646,0,0,1-.3-6.05c0.26-.77.18-1.74,0.97-1.96,0.61-.52,1.52.45,1.26,1.27h-0.09v0.3h-0.1v0.29h-0.1v0.29h-0.09v0.39h-0.1v0.49a7.321,7.321,0,0,0,.39,4.39v0.3h0.09c0.04,0.13.07,0.26,0.1,0.39h0.1c0.03,0.16.06,0.32,0.1,0.49,0.06,0.03.12,0.06,0.19,0.09,0.03,0.13.06,0.26,0.1,0.39a1.738,1.738,0,0,0,.19.1v0.2c0.06,0.03.13,0.06,0.19,0.09v0.2c0.1,0.06.2,0.13,0.29,0.19v0.2c0.3,0.26.59,0.52,0.88,0.78,0.16,0.2.32,0.39,0.48,0.59h0.2c0.06,0.09.13,0.19,0.19,0.29h0.19a1.738,1.738,0,0,1,.1.19c0.13,0.04.26,0.07,0.39,0.1a1.865,1.865,0,0,0,.1.2c0.12,0.03.25,0.06,0.38,0.1v0.09c0.13,0.04.26,0.07,0.39,0.1v0.1h0.29v0.1h0.2v0.09h0.29v0.1h0.38v0.1h0.3v0.1h0.48a6.712,6.712,0,0,0,3.59-.1h0.39v-0.1c0.29-.06.58-0.13,0.87-0.19v-0.1c0.19-.07.39-0.13,0.58-0.2v-0.09h0.19v-0.1h0.2v-0.1c0.13-.03.26-0.06,0.39-0.1,0.03-.06.06-0.13,0.09-0.19h0.2c0.03-.07.06-0.13,0.09-0.2h0.2c0.09-.13.19-0.26,0.29-0.39h0.19c0.23-.26.45-0.52,0.68-0.78,0.1-.07.19-0.13,0.29-0.2v-0.19c0.13-.1.26-0.2,0.39-0.29v-0.2a1.738,1.738,0,0,0,.19-0.1,2.469,2.469,0,0,0,.1-0.29h0.1l0.09-.39a1.865,1.865,0,0,0,.2-0.1v-0.19h0.09c0.04-.13.07-0.26,0.1-0.39h0.1c0.03-.17.06-0.33,0.1-0.49h0.09c0.03-.2.07-0.39,0.1-0.59h0.1l0.09-.78h0.1v-0.58h0.1c-0.04-.98-0.07-1.96-0.1-2.93h-0.1v-0.39h-0.09v-0.39a12.823,12.823,0,0,0-1.75-3.23c-0.19-.16-0.39-0.32-0.58-0.48-0.13-.17-0.26-0.33-0.39-0.49h-0.19c-0.1-.13-0.2-0.26-0.29-0.39h-0.2c-0.03-.07-0.06-0.13-0.09-0.2a2.469,2.469,0,0,1-.29-0.1v-0.09c-0.2-.07-0.39-0.13-0.59-0.2-0.03-.06-0.06-0.13-0.09-0.19-0.78-.26-1.55-0.52-2.33-0.78h-0.68a5.01,5.01,0,0,0-1.84-.1v0.1h-0.68v0.09h-0.48v0.1h-0.39v0.1c-0.2.03-.39,0.06-0.58,0.1v0.09h-0.2v0.1a1.615,1.615,0,0,1-1.06-.19c-0.04-.1-0.07-0.2-0.1-0.3h-0.1v-0.19h-0.1a1.684,1.684,0,0,1,.1-0.78,1.865,1.865,0,0,1,.2-0.1,2.9,2.9,0,0,1,.19-0.29c0.48-.17.97-0.33,1.45-0.49h0.39v-0.1A5.064,5.064,0,0,0,1389.48,2874.85Zm-6.11,2.92a3.061,3.061,0,0,1,.97.2,1.025,1.025,0,0,1,.2.39,1.279,1.279,0,0,1,0,.98,1.812,1.812,0,0,1-1.17.39c-0.31-.37-0.82-0.51-0.58-1.18v-0.29C1382.99,2878.1,1383.18,2877.94,1383.37,2877.77Zm6.79,0.98a6.294,6.294,0,0,1,5.43,2.44c0.13,0.1.26,0.2,0.39,0.29v0.2a1.738,1.738,0,0,1,.19.1v0.19c0.07,0.03.13,0.07,0.2,0.1l0.09,0.39a5.523,5.523,0,0,1,.68,3.71,1.729,1.729,0,0,1-1.16.39c-0.2-.16-0.39-0.33-0.58-0.49a8.191,8.191,0,0,1-.1-1.36h-0.1v-0.39h-0.09v-0.3h-0.1v-0.29h-0.1v-0.2h-0.1c-0.06-.19-0.12-0.39-0.19-0.58a6.416,6.416,0,0,0-.97-0.98c-0.1-.13-0.19-0.26-0.29-0.39h-0.19a1.738,1.738,0,0,1-.1-0.19h-0.19v-0.1c-0.2-.07-0.39-0.13-0.59-0.2V2881c-0.38-.07-0.77-0.13-1.16-0.2v-0.1a5.063,5.063,0,0,1-1.16-.1,1.738,1.738,0,0,1-.1-0.19c-0.1-.07-0.19-0.13-0.29-0.2v-0.29C1389.33,2879.24,1389.85,2879.13,1390.16,2878.75Zm-6.5,22.36v13.47h0.2c0.42-.45.84-0.91,1.26-1.37l0.48-.39v-11.81C1384.96,2901.04,1384.31,2901.07,1383.66,2901.11Zm11.64-.1v11.72c0.65,0.61,1.29,1.23,1.94,1.85v-13.47C1396.59,2901.07,1395.95,2901.04,1395.3,2901.01Zm-7.76,1.37v8.3h0.2a2.95,2.95,0,0,1,.58-0.59c0.42-.45.84-0.91,1.26-1.37,0.19-.16.39-0.32,0.58-0.48l0.87,0.09c0.16,0.2.33,0.39,0.49,0.59,0.61,0.58,1.23,1.17,1.84,1.76v-8.3a3.371,3.371,0,0,0-.68.39h-0.29v0.1h-0.19v0.09h-0.29v0.1h-0.39v0.1h-0.78v0.1h-0.48v-0.1h-0.78v-0.1h-0.39v-0.1h-0.29v-0.09h-0.29v-0.1h-0.19A2.711,2.711,0,0,0,1387.54,2902.38Z" transform="translate(-1373 -2868)"/>
</svg>
