<svg id="офис" xmlns="http://www.w3.org/2000/svg" width="120" height="120" viewBox="0 0 120 120">
  <defs>
    <style>
      .cls-1 {
        fill: #054a91;
      }

      .cls-1, .cls-2 {
        fill-rule: evenodd;
      }

      .cls-2 {
        fill: #4ca6b4;
      }
    </style>
  </defs>
  <path id="Фигура_2" data-name="Фигура 2" class="cls-1" d="M957.891,1277h3.515v11.48h-3.515V1277Zm-28.125,20.62H926.25a3.432,3.432,0,0,0-.469-2.1c-0.414-2.07-2.773-3.53-5.39-3.52h-1.407a6.22,6.22,0,0,0-4.218,5.62H911.25l-0.234-1.17a3.092,3.092,0,0,1-.469-0.47h-0.469v-0.23a1.934,1.934,0,0,0-2.578,1.17h-0.234v0.7H903.75a5.287,5.287,0,0,1,5.391-5.39h1.64v0.24h0.7v0.23h0.469c0.078,0.16.156,0.32,0.234,0.47h0.235v-0.23a6.443,6.443,0,0,0,.937-1.41l3.047-2.34h0.7v-0.24h0.469v-0.23a14.969,14.969,0,0,1,4.922-.24v0.24c0.547,0.08,1.094.15,1.641,0.23v0.24h0.468v0.23h0.469c0.078,0.16.156,0.31,0.235,0.47h0.468c0.078,0.16.156,0.31,0.235,0.47h0.468c0.235,0.31.469,0.62,0.7,0.94,0.156,0.07.312,0.15,0.468,0.23V1292c0.235,0.16.469,0.31,0.7,0.47,0.078,0.31.157,0.62,0.235,0.94h0.234A8.826,8.826,0,0,1,929.766,1297.62Zm54.375-1.64v35.39h0v62.11h32.109v-67.73H988.125v-3.52H1020V1397H900v-74.77h35.625v-26.25H948.75C963.75,1295.98,936.954,1295.88,984.141,1295.98Zm31.879,9.14h-3.52v-1.64c-0.81-2.26-3.77-5.03-7.27-3.75l-1.17.24c-0.08.15-.15,0.31-0.23,0.47h-0.47c-0.08.15-.16,0.31-0.23,0.47-0.32.23-.63,0.46-0.94,0.7v0.47c-0.16.08-.32,0.15-0.47,0.23v0.47h-0.24c-0.15.78-.31,1.56-0.46,2.34H997.5v-0.93c-1.215-.73-0.625-0.96-2.813-0.94-0.234.31-.468,0.62-0.7,0.94H993.75c-0.214.34,0.1,0.74-.234,0.93H990c0.234-.93.469-1.87,0.7-2.81,0.156-.08.313-0.15,0.469-0.23v-0.47h0.234c0.156-.24.313-0.47,0.469-0.7,0.671-.48,1.574-0.57,2.109-1.18a8.5,8.5,0,0,1,4.922.94c0.491-2.03,3.844-4.06,5.864-4.69h3.98v0.24h0.94A9.161,9.161,0,0,1,1016.02,1305.12Zm-76.879-5.62v93.98h18.984V1382H948.75v-3.52h22.5V1382h-9.609v11.48h18.984V1299.5H939.141Zm5.859,5.86h11.016v11.01H945v-11.01Zm18.75,0h11.016v11.01H963.75v-11.01Zm-15.234,3.51v3.99H952.5v-3.99h-3.984Zm18.75,0v3.99c1.626,0,2.668.01,3.984,0v-3.99h-3.984ZM945,1322.23h11.016v11.02H945v-11.02Zm18.75,0h11.016v11.02H963.75v-11.02Zm-60.234,3.52v67.73h32.109v-67.73H903.516Zm45,0v3.98H952.5v-3.98h-3.984Zm18.75,0v3.98c1.365,0,2.668.02,3.984,0v-3.98h-3.984ZM945,1339.11h11.016v11.01H945v-11.01Zm18.75,0h11.016v11.01H963.75v-11.01Zm-15.234,3.51v3.99H952.5v-3.99h-3.984Zm18.75,0v3.99h3.984v-3.99h-3.984ZM945,1355.98h11.016V1367H945v-11.02Zm18.75,0h11.016V1367H963.75v-11.02Zm-15.234,3.52v3.98H952.5v-3.98h-3.984Zm18.75,0v3.98h3.984v-3.98h-3.984Z" transform="translate(-900 -1277)"/>
  <path id="Фигура_1" data-name="Фигура 1" class="cls-2" d="M971.016,1288.25v7.73H948.75v-7.73h22.266Zm-61.641,43.36h26.25v11.01h-26.25v-11.01Zm74.766,0h26.249v11.01H984.141v-11.01Zm-74.766,16.87h26.25v11.02h-26.25v-11.02Zm74.766,0h26.249v11.02H984.141v-11.02Zm-74.766,16.88h26.25v11.01h-26.25v-11.01Zm74.766,0h26.249v11.01H984.141v-11.01Zm-33.516,5.62h3.75v3.52h-3.75v-3.52Zm7.5,0h3.75v3.52h-3.75v-3.52Zm7.5,0h3.75v3.52h-3.75v-3.52Zm-15,11.02h7.5v11.48h-7.5V1382Zm11.016,0h7.5v11.48h-7.5V1382Z" transform="translate(-900 -1277)"/>
</svg>
