<svg id="кафе" xmlns="http://www.w3.org/2000/svg" width="120" height="120" viewBox="0 0 120 120">
  <defs>
    <style>
      .cls-1 {
        fill: #054a91;
      }

      .cls-1, .cls-2 {
        fill-rule: evenodd;
      }

      .cls-2 {
        fill: #4ca6b4;
      }
    </style>
  </defs>
  <path id="Фигура_2" data-name="Фигура 2" class="cls-1" d="M1240.12,1277h3.52v14.06h-0.23a2.789,2.789,0,0,0-1.64-1.4,4.884,4.884,0,0,1-1.65,1.64V1277Zm30,0h3.52v14.06h-0.23a2.789,2.789,0,0,0-1.64-1.4,4.884,4.884,0,0,1-1.65,1.64V1277Zm30,0h3.52v14.06h-0.23a2.789,2.789,0,0,0-1.64-1.4,4.884,4.884,0,0,1-1.65,1.64V1277Zm-71.25,35.86h9.15v10.31c0.62,0.55,1.25,1.1,1.87,1.64v8.44h-3.52v-6.8c-0.62-.54-1.25-1.09-1.87-1.64v-8.44h-2.11v8.44c-0.62.55-1.25,1.1-1.87,1.64v10.78h17.1v-5.15c-1.87-1.8-3.75-3.6-5.62-5.39v-4.46h14.77v4.46c-1.88,1.79-3.75,3.59-5.63,5.39v5.15H1332V1352c-1.53,0-4.04.01-5.86,0v45H1217.62v-41.25h3.52v37.73h11.48v-9.61h-1.87v-3.51h1.87V1367h3.52v13.36h11.48V1367h3.52v13.36h2.11v3.51h-2.11v9.61h11.48v-9.61h-1.87v-3.51h1.87V1367h3.52v13.36h11.48V1367h3.52v13.36h2.11v3.51h-2.11v9.61h11.48v-9.61h-1.87v-3.51h1.87V1367h3.52v13.36h11.48V1367h3.52v13.36h2.11v3.51h-2.11v9.61h11.48V1352H1212v-14.77h15v-12.18c0.62-.55,1.25-1.1,1.87-1.64v-10.55Zm17.58,12.89a11.476,11.476,0,0,0,3.28,3.05,13.463,13.463,0,0,1,2.82-2.82v-0.23h-6.1Zm-30.93,15v7.73h112.73v-7.73H1215.52Zm20.62,43.12v9.61h11.48v-9.61h-11.48Zm30,0v9.61h11.48v-9.61h-11.48Zm30,0v9.61h11.48v-9.61h-11.48Z" transform="translate(-1212 -1277)"/>
  <path id="Фигура_1" data-name="Фигура 1" class="cls-2" d="M1254.89,1307h-26.02v-4.45q4.815-4.695,9.61-9.38c0.98-.98,1.57-1.6,3.52-3.51,3.2,3.28,6.64,6.56,9.84,9.84,1.02,0.94,2.04,1.87,3.05,2.81V1307Zm30,0h-26.02v-4.45q4.815-4.695,9.61-9.38c0.88-.87,1.99-1.95,3.52-3.51,3.2,3.28,6.64,6.56,9.84,9.84,1.02,0.94,2.04,1.87,3.05,2.81V1307Zm30,0h-26.02c0.04-1.06-.01-3.01,0-4.45q4.815-4.695,9.61-9.38c0.88-.87,2.53-2.49,3.52-3.51,3.2,3.28,6.64,6.56,9.84,9.84,1.02,0.94,2.04,1.87,3.05,2.81V1307Zm-52.27,35.86h3.75v3.51h-3.75v-3.51Zm7.5,0h3.75v3.51h-3.75v-3.51Zm7.5,0h3.75v3.51h-3.75v-3.51Zm-48.75,13.12h26.02V1367h-26.02v-11.02Zm30,0h26.02V1367h-26.02v-11.02Zm30,0h26.02V1367h-26.02v-11.02Z" transform="translate(-1212 -1277)"/>
</svg>
