<svg id="big_logo" data-name="big logo" xmlns="http://www.w3.org/2000/svg" width="304" height="90" viewBox="0 0 304 90">
  <defs>
    <style>
      .cls-1 {
        fill: #00a8b6;
      }

      .cls-1, .cls-2, .cls-3 {
        fill-rule: evenodd;
      }

      .cls-2 {
        fill: #012148;
      }

      .cls-3 {
        fill: #49525f;
      }
    </style>
  </defs>
  <path id="w" class="cls-1" d="M198.452,75.312a0.531,0.531,0,0,0,.141.28h0.07c0.046,0.14.093,0.281,0.14,0.422h0.07c0.024,0.117.047,0.233,0.07,0.352h0.07V76.5h0.071c0.023,0.094.047,0.188,0.07,0.282h0.07V77h0.07c0.023,0.094.047,0.188,0.07,0.282h0.07v0.209h0.07c0.024,0.094.047,0.189,0.071,0.283h0.07v0.21h0.07c0.023,0.094.047,0.188,0.07,0.282h0.07c0.071,0.234.141,0.467,0.211,0.7h0.07V79.1h0.07v0.21h0.07c0.023,0.1.047,0.188,0.07,0.282h0.07v0.21h0.071c0.023,0.094.047,0.188,0.07,0.282h0.07V80.3h0.07v0.141h0.07c0.024,0.094.047,0.188,0.071,0.28h0.07v0.212h0.07l0.07,0.28h0.07v0.212h0.07v0.141h0.07v0.21h0.071c0.023,0.094.047,0.188,0.07,0.282h0.07v0.21h0.07c0.024,0.094.047,0.188,0.07,0.283h0.07v0.21h0.071V82.9h0.07v0.209h0.07v0.142h0.07c0.024,0.094.047,0.187,0.07,0.279h0.07V83.74h0.071c0.023,0.095.046,0.188,0.07,0.281h0.07v0.212h0.07v0.14h0.07v0.21h0.07c0.024,0.094.047,0.187,0.07,0.283h0.071v0.209h0.07v0.142h0.07v0.209h0.07c0.024,0.093.047,0.188,0.07,0.282h0.07v0.21h0.071c0.023,0.093.046,0.188,0.07,0.282h0.07v0.21h0.07v0.141h0.07c0.024,0.093.047,0.187,0.07,0.281H203.5v0.211h0.07c0.023,0.092.046,0.188,0.07,0.28h0.07v0.213h0.07v0.139h0.07c0.024,0.094.047,0.187,0.07,0.282h0.07v0.209h0.071c0.023,0.094.047,0.188,0.07,0.282h0.07v0.21h0.07c0.024,0.095.047,0.188,0.07,0.283h0.071V89.15h0.07c0.023,0.094.046,0.188,0.07,0.282h0.07v0.209h0.07v0.142h0.071c0.023,0.115.046,0.234,0.069,0.35h0.07v0.211h0.071c0.023,0.094.047,0.189,0.07,0.281h0.07v0.212h0.07c0.024,0.093.047,0.187,0.07,0.28h0.071v0.212h0.07c0.023,0.093.047,0.186,0.07,0.279h0.07v0.213h0.07c0.023,0.092.047,0.186,0.07,0.28h0.07v0.211h0.071c0.023,0.094.046,0.186,0.07,0.28h0.07V92.8h0.07c0.024,0.095.047,0.186,0.07,0.28h0.07v0.21h0.071v0.14h0.07c0.023,0.1.047,0.187,0.07,0.283h0.07v0.21h0.07c0.023,0.094.047,0.187,0.071,0.281h0.069v0.211h0.071v0.14h0.07v0.21h0.07c0.023,0.094.047,0.188,0.07,0.282h0.07c0.024,0.117.047,0.233,0.071,0.352h0.07v0.209h0.07c0.023,0.1.047,0.188,0.07,0.282h0.07V96.1h0.07v0.141H207.5v0.212h0.069c0.024,0.093.048,0.188,0.071,0.28h0.07v0.211h0.07v0.14h0.07V97.3h0.07c0.024,0.093.047,0.188,0.071,0.281h0.07v0.211h0.07l0.07,0.28h0.07v0.212h0.07c0.024,0.093.047,0.187,0.071,0.28h0.069v0.213h0.071l0.07,0.279h0.07v0.212h0.07c0.024,0.094.047,0.187,0.07,0.282h0.071v0.21h0.07c0.023,0.094.046,0.188,0.07,0.281h0.07v0.211h0.07c0.024,0.094.047,0.188,0.071,0.281h0.07v0.21h0.07c0.023,0.095.046,0.188,0.07,0.281h0.07v0.21h0.07c0.023,0.095.047,0.189,0.07,0.283h0.07v0.209h0.071v0.141h0.07c0.023,0.094.047,0.188,0.07,0.281h0.07v0.211h0.07c0.024,0.093.047,0.187,0.071,0.281h0.069v0.211h0.071c0.023,0.094.047,0.187,0.07,0.28h0.07v0.212h0.07c0.024,0.094.047,0.187,0.07,0.28h0.071v0.212h0.07v0.141h0.07c0.023,0.093.047,0.185,0.07,0.28h0.07v0.211h0.07l0.071,0.281h0.069v0.21h0.071c0.023,0.095.046,0.188,0.07,0.283h0.07v0.209h0.07c0.024,0.094.047,0.187,0.07,0.282h0.071v0.21h0.07c0.023,0.093.046,0.187,0.07,0.282h0.07v0.21h0.07c0.024,0.092.047,0.187,0.07,0.282h0.071v0.209h0.069c0.024,0.095.048,0.188,0.071,0.282h0.07v0.21h0.07c0.024,0.093.047,0.186,0.07,0.281h0.07v0.211h0.071c0.023,0.094.046,0.187,0.07,0.281h0.07v0.21h0.07v0.141h0.07v0.21h0.07c0.024,0.094.047,0.189,0.071,0.282h0.07v0.21h0.07c0.023,0.095.047,0.188,0.07,0.282h0.07v0.21h0.07v0.141h0.07v0.21H213.4c0.023,0.095.046,0.188,0.07,0.282h0.07v0.21h0.07v0.14h0.07v0.211h0.071c0.023,0.095.046,0.187,0.07,0.281h0.07v0.212h0.07c0.023,0.094.046,0.187,0.07,0.281h0.07v0.211h0.07c0.024,0.093.047,0.186,0.071,0.281h0.07v0.21h0.07c0.023,0.095.047,0.187,0.07,0.283h0.07v0.208h0.07c0.024,0.095.047,0.188,0.071,0.282h0.07v0.21h0.07c0.023,0.094.047,0.188,0.07,0.282h0.07v0.209h0.07c0.024,0.095.047,0.189,0.07,0.283h0.07v0.209h0.071v0.142h0.07v0.211h0.07c0.023,0.093.047,0.187,0.07,0.281h0.07v0.21h0.071c0.023,0.094.046,0.188,0.07,0.282h0.07v0.21h0.07c0.023,0.094.047,0.187,0.07,0.282h0.07V116.2h0.07c0.024,0.094.047,0.188,0.071,0.282h0.07v0.21h0.07c0.023,0.094.047,0.187,0.07,0.281h0.07v0.21h0.07c0.024,0.094.047,0.188,0.071,0.282h0.07v0.21h0.07c0.023,0.094.047,0.187,0.07,0.282h0.07v0.209h0.07c0.024,0.094.047,0.189,0.071,0.283h0.07v0.211h0.07l0.07,0.279h0.07v0.213h0.07v0.14h0.07v0.21H217.4c0.023,0.094.047,0.188,0.07,0.282h0.07v0.209h0.07c0.024,0.095.047,0.187,0.07,0.282h0.07v0.21h0.071c0.023,0.095.046,0.187,0.07,0.282h0.07v0.211h0.07c0.023,0.093.047,0.187,0.07,0.28h0.07v0.212h0.071c0.023,0.094.046,0.187,0.07,0.28h0.07v0.212h0.07c0.023,0.093.047,0.187,0.07,0.28h0.07v0.211h0.07c0.024,0.093.047,0.187,0.071,0.28h0.07v0.213h0.07c0.023,0.092.047,0.186,0.07,0.279h0.07v0.212h0.07c0.024,0.093.047,0.187,0.071,0.28h0.07v0.212h0.07v0.138h0.07v0.214c1.6,3.549,3.1,7.26,4.7,10.817v0.21h0.07v0.141h0.07v0.211h0.07c0.023,0.095.047,0.187,0.07,0.281h0.07v0.211h0.07c0.024,0.094.047,0.188,0.071,0.281h0.07v0.21h0.07c0.023,0.1.047,0.188,0.07,0.282h0.07v0.21h0.07l0.071,0.281h0.07v0.21h0.07c0.023,0.095.047,0.189,0.07,0.282h0.07v0.21h0.07c0.024,0.095.047,0.189,0.071,0.282h0.07v0.21h0.07c0.023,0.095.047,0.188,0.07,0.283h0.07V139.1h0.07c0.024,0.094.047,0.187,0.071,0.282h0.07v0.209h0.07v0.142h0.07v0.209h0.07c0.024,0.095.047,0.188,0.07,0.282h0.07v0.211h0.071c0.023,0.093.046,0.187,0.07,0.282h0.07v0.209h0.07c0.023,0.095.047,0.189,0.07,0.282h0.07v0.209h0.071c0.023,0.095.046,0.189,0.07,0.283h0.07v0.21h0.07c0.024,0.093.047,0.187,0.07,0.281h0.071V142.4h0.069c0.024,0.093.047,0.188,0.071,0.282h0.07v0.21h0.07l0.07,0.281h0.07v0.211h0.07c0.024,0.093.047,0.187,0.071,0.28h0.07v0.212h0.07l0.07,0.28h0.07v0.212h0.071v0.14h0.07v0.21h0.07c0.023,0.094.046,0.188,0.07,0.282h0.07v0.21h0.07c0.024,0.092.047,0.188,0.07,0.282h0.07v0.21h0.071c0.023,0.093.046,0.187,0.07,0.28h0.07v0.212h0.07c0.024,0.093.047,0.187,0.07,0.28H228.9v0.212h0.069c0.024,0.094.047,0.187,0.071,0.28h0.07v0.211h0.07c0.023,0.093.047,0.187,0.07,0.281h0.07v0.211h0.071c0.023,0.093.046,0.187,0.07,0.281h0.07v0.211h0.07c0.023,0.093.047,0.187,0.07,0.28h0.07v0.212h0.071v0.139h0.07V149h0.07c0.023,0.094.047,0.187,0.07,0.281h0.07V149.5h0.07c0.024,0.093.047,0.186,0.07,0.281H230.3v0.21h0.07c0.023,0.094.046,0.187,0.07,0.281h0.07v0.211h0.07c0.024,0.094.047,0.187,0.071,0.28h0.069v0.211H230.8c0.023,0.095.047,0.189,0.07,0.281h0.07v0.212h0.07c0.024,0.093.047,0.187,0.07,0.28h0.07v0.212h0.071c0.023,0.094.046,0.186,0.07,0.28h0.07v0.212h0.07c0.024,0.094.047,0.186,0.07,0.28h0.071v0.211h0.07c0.023,0.094.046,0.188,0.07,0.282h0.07v0.209h0.07v0.141h0.07c0.024,0.094.047,0.187,0.07,0.281h0.07v0.21h0.071V154.2h0.07v0.209h0.07l0.14,0.421h0.071v0.141h0.07v0.142h0.07v0.209h0.07v0.142h0.07v0.14h0.07v0.141h0.07l0.351,1.052a0.111,0.111,0,0,0,.07-0.07h0.071c0.023-.093.046-0.187,0.07-0.28h0.07v-0.141h0.07v-0.14h0.07v-0.21h0.07v-0.211h0.07v-0.141h0.071V155.4h0.07c0.023-.093.047-0.187,0.07-0.28h0.07c0.024-.117.047-0.235,0.07-0.351h0.071v-0.211h0.07c0.023-.093.046-0.188,0.07-0.281h0.07v-0.141h0.07v-0.211h0.07c0.024-.093.047-0.187,0.07-0.28h0.07v-0.212h0.071c0.023-.093.046-0.187,0.07-0.28h0.07v-0.211H235c0.024-.094.047-0.188,0.07-0.282h0.071v-0.209h0.07v-0.141h0.07c0.023-.095.047-0.188,0.07-0.282h0.07v-0.209h0.07c0.024-.095.047-0.188,0.07-0.282h0.071v-0.21h0.07c0.023-.095.046-0.189,0.07-0.282h0.07v-0.21h0.07v-0.142h0.07c0.024-.093.047-0.187,0.071-0.28h0.07V150.2h0.07c0.023-.093.047-0.187,0.07-0.28h0.07v-0.211h0.07v-0.141h0.07v-0.21h0.071c0.023-.093.046-0.187,0.07-0.281h0.07v-0.211h0.07c0.023-.094.047-0.187,0.07-0.281h0.07v-0.211h0.071v-0.14h0.07v-0.21h0.07v-0.143h0.07c0.023-.116.047-0.232,0.07-0.351h0.07v-0.209h0.07v-0.141h0.071v-0.211h0.07v-0.14h0.07v-0.21h0.07v-0.142h0.07v-0.21h0.07v-0.142h0.071v-0.209h0.07c0.023-.095.047-0.188,0.07-0.282h0.07v-0.21h0.07V145.28h0.071v-0.211H238.3c0.024-.093.047-0.186,0.071-0.28h0.07v-0.211h0.07v-0.14h0.07v-0.212c1.593-3.536,3.109-7.205,4.7-10.748v-0.21h0.07v-0.14h0.07v-0.213h0.07c0.024-.092.047-0.187,0.07-0.279h0.07v-0.211H243.7c0.023-.094.047-0.188,0.07-0.283h0.07v-0.209h0.07v-0.14h0.07v-0.212h0.07c0.024-.094.047-0.187,0.071-0.28h0.07V131.09h0.07c0.023-.095.047-0.187,0.07-0.281h0.07V130.6h0.07v-0.139h0.071v-0.213h0.07c0.023-.093.047-0.187,0.07-0.279h0.07v-0.213h0.07c0.023-.093.047-0.187,0.07-0.279h0.071v-0.212h0.07c0.023-.094.046-0.188,0.07-0.281h0.07v-0.211h0.07v-0.14h0.07V128.42h0.07c0.024-.093.047-0.187,0.071-0.28h0.07v-0.212h0.07c0.023-.093.047-0.187,0.07-0.28h0.07v-0.213h0.07c0.024-.092.047-0.186,0.07-0.279h0.071v-0.211h0.07l0.07-.281h0.07v-0.212h0.07c0.024-.116.047-0.233,0.071-0.35h0.07c0.023-.094.047-0.188,0.07-0.281h0.07V125.61h0.07c0.023-.093.047-0.187,0.07-0.28h0.07v-0.212h0.07c0.024-.094.047-0.188,0.071-0.28h0.07v-0.212H247l0.07-.28h0.07v-0.141h0.071V124h0.07c0.023-.095.047-0.189,0.07-0.282h0.07V123.5h0.07c0.023-.094.047-0.188,0.07-0.282h0.07v-0.21H247.7c0.023-.093.046-0.187,0.07-0.282h0.07v-0.21h0.07v-0.141h0.07v-0.14h0.07V122.1h0.07c0.024-.117.047-0.235,0.071-0.352h0.07v-0.21h0.07c0.024-.094.047-0.186,0.07-0.282h0.07v-0.21h0.071V120.9h0.07v-0.21h0.07a1.624,1.624,0,0,0,.21-0.913h-0.07v-0.212h-0.07c-0.023-.093-0.047-0.187-0.07-0.28h-0.07v-0.212h-0.07c-0.024-.092-0.047-0.187-0.071-0.279H248.4v-0.213h-0.07c-0.023-.093-0.047-0.187-0.07-0.28h-0.07v-0.211h-0.071c-0.023-.094-0.046-0.187-0.07-0.28h-0.07V117.6h-0.07c-0.023-.094-0.047-0.187-0.07-0.28h-0.07v-0.212H247.7v-0.14h-0.071c-0.023-.094-0.047-0.187-0.07-0.281h-0.07v-0.21h-0.07c-0.023-.094-0.047-0.188-0.07-0.282h-0.07v-0.209h-0.07c-0.024-.095-0.047-0.188-0.071-0.282h-0.07V115.5H247c-0.023-.094-0.047-0.188-0.07-0.282h-0.07V115H246.79c-0.023-.094-0.046-0.188-0.07-0.281h-0.07v-0.211h-0.07c-0.023-.094-0.046-0.187-0.07-0.28h-0.07v-0.212h-0.07c-0.024-.093-0.047-0.188-0.07-0.281h-0.071v-0.211h-0.07c-0.023-.094-0.047-0.188-0.07-0.281h-0.07v-0.211h-0.07c-0.024-.093-0.047-0.187-0.071-0.281h-0.07v-0.211h-0.07c-0.023-.093-0.047-0.187-0.07-0.28H245.6V112.05h-0.07c-0.024-.092-0.047-0.186-0.07-0.278h-0.071v-0.213h-0.07c-0.023-.093-0.046-0.186-0.07-0.28h-0.07v-0.212h-0.07c-0.024-.092-0.047-0.186-0.07-0.279h-0.07v-0.212H244.9c-0.023-.093-0.047-0.186-0.07-0.28h-0.07v-0.212h-0.07c-0.023-.093-0.047-0.187-0.07-0.28h-0.07v-0.211h-0.071c-0.023-.094-0.046-0.187-0.07-0.281h-0.07V109.1h-0.07c-0.023-.094-0.047-0.188-0.07-0.282h-0.07v-0.21h-0.071c-0.023-.094-0.046-0.188-0.07-0.282h-0.07v-0.211h-0.07c-0.024-.093-0.047-0.188-0.07-0.28H243.7v-0.211h-0.071c-0.023-.093-0.046-0.188-0.07-0.282h-0.07v-0.21h-0.07c-0.023-.093-0.047-0.187-0.07-0.281h-0.07v-0.211h-0.07V106.5h-0.071c-0.023-.093-0.046-0.187-0.07-0.28H243V106.01h-0.07c-0.024-.093-0.047-0.187-0.07-0.28h-0.07v-0.212h-0.07c-0.024-.093-0.047-0.187-0.071-0.279h-0.07v-0.213h-0.07c-0.023-.094-0.047-0.187-0.07-0.28h-0.07v-0.211H242.3c-0.023-.094-0.046-0.188-0.07-0.281h-0.07v-0.211h-0.07V103.9h-0.07c-0.024-.094-0.047-0.188-0.07-0.282h-0.071v-0.209H241.81v-0.141h-0.071v-0.212h-0.07c-0.023-.093-0.047-0.187-0.07-0.281h-0.07v-0.209h-0.07l-0.071-.283h-0.07v-0.21h-0.07c-0.023-.094-0.047-0.187-0.07-0.281h-0.07v-0.21h-0.07c-0.024-.094-0.047-0.188-0.07-0.283H240.9v-0.209h-0.07c-0.023-.094-0.047-0.188-0.07-0.283h-0.07V100.6h-0.07V100.46h-0.07v-0.21h-0.07c-0.024-.093-0.047-0.188-0.071-0.282h-0.07v-0.21h-0.07c-0.024-.094-0.047-0.188-0.07-0.282h-0.07v-0.21h-0.07c-0.024-.093-0.047-0.187-0.071-0.282h-0.07V98.775h-0.07V98.634h-0.07V98.423c-1.814-4.028-3.462-8.243-5.262-12.293V85.918h-0.07l-0.07-.279H234.3V85.426h-0.07c-0.024-.092-0.047-0.187-0.071-0.279h-0.07V84.934h-0.07V84.8h-0.07V84.583h-0.07c-0.024-.093-0.047-0.187-0.071-0.28h-0.07V84.092h-0.07V83.951H233.6V83.74h-0.07c-0.023-.093-0.047-0.186-0.07-0.28h-0.07V83.249H233.32c-0.023-.094-0.046-0.187-0.07-0.281h-0.07l-0.21-.7H232.9v-0.14h-0.07v-0.21h-0.07V81.773h-0.07v-0.21h-0.07c-0.024-.094-0.047-0.188-0.07-0.282h-0.07v-0.21h-0.071v-0.14h-0.07V80.719h-0.07c-0.023-.093-0.047-0.187-0.07-0.28h-0.07V80.228h-0.071c-0.023-.093-0.046-0.188-0.07-0.281h-0.07v-0.21h-0.07V79.6h-0.07V79.385h-0.07v-0.14h-0.07v-0.21h-0.07V78.894H231.5v-0.21h-0.07V78.543h-0.07c-0.023-.116-0.047-0.234-0.07-0.351h-0.07V77.98h-0.071L230.935,77h0.07V76.575h0.07V76.366h0.07V76.153h0.071a1.223,1.223,0,0,1,.631-0.983,2.578,2.578,0,0,1,1.4-.14,2.8,2.8,0,0,1,1.473.21c0.024,0.047.047,0.094,0.071,0.141a2.214,2.214,0,0,1,.421.492v0.141h0.07v0.14h0.07V76.3h0.07v0.14h0.07v0.139h0.07v0.211h0.071v0.141h0.07c0.023,0.094.046,0.186,0.07,0.281h0.07c0.023,0.116.047,0.233,0.07,0.351h0.07V77.77h0.071c0.023,0.092.046,0.187,0.07,0.28h0.07v0.212h0.07V78.4h0.07c0.024,0.118.047,0.234,0.07,0.352h0.07v0.21h0.071V79.1h0.07v0.21h0.07v0.141h0.07v0.211h0.07c0.024,0.093.047,0.187,0.07,0.28h0.071v0.212h0.07c0.023,0.093.047,0.187,0.07,0.281h0.07v0.21h0.07c0.024,0.095.047,0.188,0.07,0.282h0.07v0.21h0.071c0.023,0.1.046,0.188,0.07,0.281h0.07v0.21h0.07c0.023,0.095.047,0.188,0.07,0.282h0.07v0.21h0.071v0.14h0.07v0.212h0.07v0.139h0.07v0.212h0.07c0.024,0.094.047,0.187,0.071,0.28H238.3V83.32h0.071c0.023,0.093.046,0.186,0.07,0.279h0.07v0.213h0.07c0.023,0.093.047,0.187,0.07,0.281h0.07V84.3h0.071c0.023,0.093.046,0.187,0.07,0.28h0.07V84.8H239c0.024,0.093.047,0.187,0.07,0.28h0.07v0.211h0.071c0.023,0.093.046,0.187,0.07,0.281h0.07v0.21h0.07c0.023,0.093.047,0.187,0.07,0.281h0.07v0.212h0.071V86.41h0.07v0.212h0.07l0.07,0.279h0.07v0.212h0.07c0.024,0.093.047,0.187,0.071,0.28h0.07v0.212h0.07c0.023,0.093.046,0.187,0.07,0.281h0.07V88.1h0.07c0.024,0.093.047,0.187,0.071,0.28h0.07v0.212h0.07c0.023,0.095.047,0.187,0.07,0.281h0.07v0.21h0.07v0.14h0.07v0.213h0.071c0.023,0.093.046,0.186,0.07,0.279h0.07v0.213h0.07c0.023,0.093.047,0.188,0.07,0.28h0.07v0.212h0.07c0.024,0.092.047,0.186,0.071,0.281h0.07v0.211h0.07c0.023,0.094.047,0.187,0.07,0.281h0.07V91.4h0.071c0.023,0.094.046,0.185,0.069,0.281h0.071v0.209h0.07c0.023,0.095.047,0.188,0.07,0.282h0.07v0.21h0.07v0.141h0.07v0.211h0.071c0.023,0.093.047,0.187,0.07,0.281h0.07v0.211h0.07c0.024,0.093.047,0.186,0.07,0.281h0.071v0.211h0.07c0.023,0.094.046,0.187,0.07,0.281h0.07v0.21H243c0.023,0.094.047,0.187,0.07,0.281h0.07V94.7h0.071c0.023,0.094.046,0.187,0.07,0.281h0.07v0.21h0.07c0.023,0.093.047,0.187,0.07,0.282h0.07v0.21h0.07v0.141H243.7v0.212h0.07c0.023,0.093.046,0.187,0.07,0.28h0.07v0.211h0.07c0.024,0.093.047,0.187,0.07,0.281h0.071v0.209h0.07c0.023,0.094.047,0.188,0.07,0.282h0.07v0.21h0.07c0.024,0.1.047,0.188,0.07,0.282h0.071V98h0.07c0.023,0.095.047,0.188,0.07,0.282h0.07v0.209h0.07v0.142h0.07v0.211h0.071c0.023,0.094.046,0.188,0.07,0.281h0.07v0.211h0.07c0.023,0.094.047,0.187,0.07,0.28h0.07v0.211h0.07c0.024,0.1.047,0.188,0.071,0.282h0.07v0.21h0.07c0.023,0.093.047,0.188,0.07,0.282h0.07v0.208h0.07c0.024,0.095.047,0.189,0.07,0.283h0.071V101.3h0.07c0.023,0.095.047,0.189,0.07,0.283h0.07v0.21h0.07v0.141H246.3v0.21c2.452,5.45,4.7,11.139,7.155,16.58v0.209h0.071c0.023,0.1.046,0.19,0.07,0.283h0.07v0.209h0.07c0.024,0.095.047,0.188,0.07,0.282h0.071v0.211h0.07v0.141h0.07c0.023,0.093.047,0.186,0.07,0.28h0.07v0.211h0.07c0.024,0.094.047,0.187,0.07,0.28h0.07v0.212h0.071c0.023,0.093.046,0.187,0.07,0.28h0.07v0.212h0.07v0.14h0.07v0.21h0.071c0.023,0.095.046,0.188,0.07,0.282h0.07v0.21H255v0.141h0.07c0.023,0.117.047,0.236,0.07,0.351h0.07v0.212h0.071v0.139h0.07v0.212h0.07v0.141h0.07v0.21h0.07c0.024,0.093.047,0.187,0.07,0.279H255.7v0.214h0.07v0.139h0.07c0.023,0.118.047,0.235,0.07,0.352h0.07v0.211h0.07c0.024,0.093.047,0.187,0.07,0.281h0.071v0.209h0.07v0.141h0.07v0.211h0.07c0.024,0.093.047,0.187,0.07,0.281h0.071v0.211h0.07c0.023,0.093.046,0.188,0.07,0.281h0.07v0.211h0.07c0.023,0.093.047,0.187,0.07,0.28h0.07V127.3h0.071v0.139h0.07c0.023,0.095.046,0.19,0.07,0.283h0.07v0.21h0.07c0.024,0.093.047,0.188,0.07,0.281h0.071v0.211h0.07c0.023,0.093.046,0.188,0.07,0.282h0.07v0.211h0.07v0.14h0.07c0.024,0.092.047,0.187,0.07,0.279h0.071v0.213h0.07c0.023,0.092.046,0.187,0.07,0.28h0.07v0.212h0.07v0.139h0.07c0.024,0.094.047,0.188,0.071,0.283h0.07v0.209h0.07c0.023,0.094.047,0.187,0.07,0.282h0.07v0.209h0.07c0.024,0.095.047,0.188,0.07,0.283h0.071v0.209h0.07c0.023,0.095.047,0.187,0.07,0.282h0.07v0.209h0.07c0.024,0.095.047,0.189,0.07,0.283h0.071v0.211h0.07l0.07,0.279h0.07v0.213h0.07v0.14h0.071v0.21H259.7c0.024,0.094.047,0.188,0.071,0.282h0.07v0.21h0.07v0.141h0.07v0.211h0.07l0.071,0.281h0.07v0.209h0.07c0.023,0.095.047,0.189,0.07,0.282h0.07v0.21h0.07c0.024,0.094.047,0.188,0.07,0.282h0.07v0.21h0.071c0.023,0.094.046,0.188,0.07,0.281h0.07v0.21h0.07c0.024,0.095.047,0.189,0.07,0.283h0.071v0.21h0.07c0.023,0.094.046,0.186,0.07,0.281h0.07v0.21h0.07c0.024,0.094.047,0.188,0.07,0.282h0.071v0.21h0.07V137.9h0.07v0.21h0.07c0.023,0.095.047,0.189,0.07,0.282h0.07v0.21h0.07l0.071,0.283h0.07V139.1h0.07c0.023,0.094.047,0.187,0.07,0.282h0.07v0.209h0.07c0.024,0.095.047,0.188,0.07,0.282h0.071v0.211h0.07c0.023,0.093.046,0.187,0.07,0.281h0.07v0.211h0.07c0.024,0.093.047,0.188,0.07,0.28h0.071v0.211h0.07v0.141H263v0.209h0.07c0.024,0.095.047,0.189,0.07,0.283h0.07v0.21h0.07c0.024,0.093.048,0.187,0.071,0.281h0.07V142.4h0.07c0.023,0.093.047,0.188,0.07,0.282h0.07v0.21H263.7c0.023,0.093.046,0.188,0.07,0.281h0.07v0.211h0.07c0.023,0.093.047,0.187,0.07,0.28h0.07v0.212h0.071c0.023,0.092.046,0.187,0.07,0.28h0.07v0.212h0.07c0.023,0.093.047,0.187,0.07,0.28h0.07v0.211h0.07V145h0.071v0.21h0.07c0.023,0.092.047,0.188,0.07,0.282h0.07v0.21h0.07c0.024,0.093.047,0.187,0.07,0.28h0.071v0.212h0.07l0.07,0.28h0.07v0.212h0.07c0.023,0.094.047,0.187,0.07,0.28h0.07v0.211h0.071c0.023,0.093.046,0.187,0.07,0.281h0.07v0.211h0.07c0.023,0.093.047,0.187,0.07,0.281h0.07v0.211h0.071c0.023,0.093.046,0.187,0.07,0.28h0.07v0.212h0.07c0.023,0.093.047,0.187,0.07,0.28h0.07v0.212h0.071c0.023,0.093.046,0.186,0.07,0.281h0.07v0.21h0.07c0.023,0.1.047,0.187,0.07,0.281h0.07v0.211h0.07l0.071,0.281h0.07v0.21H267c0.023,0.095.047,0.188,0.07,0.282h0.07v0.21h0.07c0.024,0.094.047,0.187,0.07,0.281h0.071v0.21h0.07c0.023,0.1.047,0.189,0.07,0.282h0.07v0.21h0.07c0.024,0.094.047,0.188,0.071,0.282h0.07v0.209h0.07v0.142h0.07c0.023,0.093.047,0.188,0.07,0.28h0.07v0.213h0.07v0.14h0.071c0.023,0.093.046,0.187,0.07,0.281h0.07v0.21h0.07c0.023,0.094.047,0.188,0.07,0.281h0.07v0.211h0.071c0.023,0.094.046,0.188,0.07,0.281h0.07v0.209h0.07c0.024,0.1.047,0.189,0.07,0.283h0.07v0.209h0.07v0.142H269.1v0.21h0.07v0.14h0.07a2.673,2.673,0,0,0,.351.913v-0.068a1.873,1.873,0,0,0,.421-0.7v-0.211h0.07c0.023-.093.047-0.187,0.07-0.281h0.07v-0.211h0.07c0.024-.093.047-0.188,0.07-0.282h0.071v-0.209h0.07c0.023-.094.047-0.188,0.07-0.283h0.07v-0.209h0.07v-0.141h0.07v-0.211h0.071c0.023-.093.046-0.187,0.07-0.28H271v-0.212h0.07c0.023-.093.047-0.187,0.07-0.28h0.07v-0.211h0.071c0.023-.094.046-0.188,0.07-0.282h0.07v-0.209h0.07c0.023-.094.047-0.189,0.07-0.283h0.07v-0.209h0.07c0.024-.095.047-0.189,0.071-0.282h0.07v-0.21h0.07c0.023-.094.047-0.189,0.07-0.282h0.07V150.97h0.07c0.024-.093.047-0.187,0.071-0.281h0.07v-0.21h0.07c0.023-.093.047-0.186,0.07-0.282h0.07v-0.21h0.07v-0.141h0.07v-0.21h0.071c0.023-.094.046-0.187,0.07-0.281h0.07v-0.21h0.07c0.023-.095.047-0.188,0.07-0.282h0.07v-0.21H273.1v-0.141h0.07V148.3h0.07c0.023-.116.047-0.233,0.07-0.35h0.07c-0.07-.21-0.14-0.423-0.21-0.632H273.1v-0.21h-0.071c-0.023-.095-0.046-0.189-0.07-0.282h-0.07c-0.023-.117-0.047-0.234-0.07-0.352h-0.07v-0.21h-0.07c-0.024-.093-0.047-0.188-0.071-0.282h-0.07v-0.21h-0.07c-0.023-.093-0.046-0.186-0.07-0.28h-0.07V145.28h-0.07v-0.141h-0.07c-0.024-.093-0.047-0.188-0.071-0.28h-0.07v-0.211h-0.07c-0.023-.093-0.047-0.187-0.07-0.28h-0.07v-0.212h-0.07c-0.024-.093-0.047-0.188-0.071-0.28h-0.07v-0.212h-0.07v-0.139h-0.07c-0.023-.094-0.047-0.188-0.07-0.282h-0.07v-0.21h-0.07c-0.024-.094-0.047-0.188-0.071-0.282h-0.07v-0.21h-0.07V142.4H271c-0.024-.093-0.047-0.188-0.07-0.281h-0.07v-0.211h-0.071v-0.141h-0.07c-0.023-.093-0.046-0.186-0.07-0.28h-0.07v-0.21H270.5c-0.024-.095-0.047-0.188-0.07-0.283h-0.071v-0.209h-0.07c-0.023-.095-0.047-0.188-0.07-0.282h-0.07v-0.21h-0.07c-0.024-.094-0.047-0.188-0.07-0.282h-0.07V139.8h-0.071c-0.023-.094-0.047-0.187-0.07-0.282h-0.07c-0.07-.234-0.14-0.466-0.21-0.7h-0.071v-0.142h-0.07v-0.209h-0.07c-0.023-.093-0.047-0.186-0.07-0.281h-0.07v-0.21H269.1c-0.024-.094-0.047-0.188-0.071-0.283h-0.07v-0.21h-0.07c-0.023-.092-0.046-0.187-0.07-0.281h-0.07v-0.21h-0.07c-0.024-.093-0.047-0.189-0.07-0.282h-0.071V136.5h-0.07c-0.023-.093-0.047-0.186-0.07-0.281h-0.07v-0.211h-0.07c-0.024-.094-0.047-0.186-0.07-0.281h-0.071v-0.211h-0.07c-0.023-.093-0.046-0.186-0.07-0.28h-0.07v-0.211h-0.07c-0.023-.094-0.047-0.186-0.07-0.281H267.7v-0.21h-0.071v-0.142h-0.07v-0.209h-0.07c-0.023-.095-0.047-0.189-0.07-0.282h-0.07v-0.211h-0.071c-0.023-.094-0.046-0.187-0.07-0.282h-0.07V133.2h-0.07c-0.023-.095-0.047-0.188-0.07-0.283h-0.07v-0.209h-0.07l-0.071-.281h-0.07v-0.211h-0.07c-0.023-.094-0.047-0.187-0.07-0.281h-0.07v-0.21h-0.07c-0.024-.1-0.047-0.188-0.07-0.281h-0.071v-0.211h-0.07c-0.023-.095-0.047-0.189-0.07-0.281h-0.07v-0.212h-0.07c-0.024-.093-0.047-0.187-0.07-0.279h-0.071v-0.213H265.8c-0.023-.093-0.047-0.187-0.07-0.279h-0.07v-0.213h-0.07c-0.024-.093-0.047-0.187-0.07-0.279h-0.071v-0.212h-0.07v-0.14h-0.07v-0.21c-2.8-6.213-5.342-12.677-8.138-18.9V109.8H257.1v-0.142h-0.07v-0.209h-0.071c-0.023-.094-0.046-0.186-0.07-0.282h-0.07v-0.21h-0.07c-0.023-.094-0.047-0.186-0.07-0.282h-0.07v-0.21h-0.07l-0.071-.281H256.4v-0.21h-0.07c-0.023-.094-0.047-0.186-0.07-0.282h-0.07v-0.21h-0.071c-0.023-.094-0.046-0.188-0.07-0.281h-0.07v-0.211h-0.07v-0.141h-0.07v-0.211h-0.07c-0.024-.093-0.047-0.186-0.07-0.281H255.63v-0.21h-0.07V106.01h-0.07V105.8h-0.07c-0.023-.095-0.047-0.188-0.07-0.282h-0.07v-0.21h-0.071c-0.023-.094-0.046-0.189-0.07-0.282h-0.07v-0.209H255c-0.023-.094-0.047-0.189-0.07-0.282h-0.07v-0.21h-0.07c-0.024-.095-0.047-0.188-0.071-0.282h-0.07v-0.21h-0.07c-0.023-.095-0.047-0.187-0.07-0.282h-0.07v-0.21h-0.071c-0.023-.094-0.046-0.186-0.07-0.282h-0.07v-0.21h-0.07c-0.023-.094-0.047-0.186-0.07-0.28h-0.07v-0.212h-0.07v-0.141h-0.07v-0.21h-0.071c-0.023-.094-0.046-0.188-0.07-0.282h-0.07v-0.209H253.6c-0.024-.094-0.047-0.188-0.07-0.283h-0.071v-0.21h-0.07v-0.141h-0.07v-0.209h-0.07c-0.023-.094-0.047-0.189-0.07-0.283h-0.07V100.18h-0.071l-0.069-.282h-0.071v-0.21h-0.07c-0.023-.093-0.047-0.188-0.07-0.282h-0.07V99.2h-0.07c-0.024-.094-0.047-0.187-0.071-0.282h-0.07V98.7H252.4c-0.023-.093-0.047-0.187-0.07-0.281h-0.07v-0.21h-0.07c-0.024-.094-0.047-0.187-0.071-0.281h-0.07V97.72h-0.07c-0.023-.093-0.046-0.187-0.07-0.28h-0.07V97.229h-0.07c-0.024-.094-0.047-0.189-0.07-0.281h-0.071V96.737h-0.07c-0.023-.092-0.047-0.187-0.07-0.28h-0.07V96.245h-0.07c-0.024-.094-0.047-0.187-0.07-0.281H251.21V95.753h-0.07c-0.023-.093-0.046-0.187-0.07-0.28H251V95.262h-0.07c-0.023-.093-0.047-0.188-0.07-0.281h-0.07V94.769h-0.071c-0.023-.093-0.046-0.187-0.07-0.28h-0.07V94.278h-0.07c-0.023-.093-0.047-0.187-0.07-0.279h-0.071V93.786H250.3c-0.023-.094-0.046-0.187-0.07-0.28h-0.07V93.295h-0.07c-0.023-.093-0.047-0.186-0.07-0.281h-0.07V92.8h-0.071V92.663h-0.07V92.451h-0.07c-0.023-.093-0.047-0.187-0.07-0.28H249.6V91.96h-0.07V91.821h-0.07V91.608h-0.07c-0.024-.093-0.047-0.186-0.071-0.279h-0.07V91.117h-0.07v-0.14h-0.07c-0.024-.117-0.047-0.234-0.07-0.351h-0.071v-0.21c-1.527-3.4-2.844-6.995-4.349-10.4V79.806h-0.07c-0.024-.093-0.047-0.187-0.071-0.281h-0.07V79.314h-0.07l-0.07-.28H244.2V78.823h-0.07v-0.14h-0.071V78.472h-0.07v-0.14h-0.07V78.121h-0.07V77.91h-0.07V77.628H243.7a2.847,2.847,0,0,1,.21-1.546V75.873h0.07V75.731h0.07a0.785,0.785,0,0,1,.492-0.561,4.709,4.709,0,0,1,1.894-.14H247V75.1l0.351,0.071,0.21,0.282h0.07v0.139l0.141,0.07c0.047,0.142.093,0.283,0.14,0.421h0.07v0.141h0.07v0.142h0.07c0.047,0.139.094,0.279,0.141,0.421h0.07V77h0.07v0.141h0.07v0.212h0.071v0.139h0.07V77.7h0.07c0.023,0.092.047,0.186,0.07,0.28h0.07v0.211h0.07c0.024,0.093.047,0.186,0.07,0.28h0.071v0.212h0.07c0.023,0.094.047,0.187,0.07,0.281h0.07v0.211h0.07c0.024,0.093.047,0.188,0.071,0.28h0.07v0.211h0.07c0.023,0.093.046,0.187,0.07,0.28h0.07v0.212h0.07V80.3h0.07v0.212h0.07c0.024,0.093.047,0.187,0.071,0.279h0.07V81h0.07c0.023,0.094.047,0.188,0.07,0.281h0.07v0.211h0.07c0.024,0.094.047,0.187,0.07,0.28h0.071v0.211h0.07c0.023,0.093.047,0.188,0.07,0.28h0.07v0.212h0.07c0.024,0.094.047,0.188,0.071,0.281h0.07v0.21h0.07v0.139H251V83.32h0.07c0.024,0.093.047,0.186,0.07,0.279h0.07v0.213h0.071c0.023,0.093.046,0.187,0.07,0.281h0.07V84.3h0.07l0.07,0.28h0.07V84.8H251.7c0.023,0.093.046,0.187,0.07,0.28h0.07v0.211h0.07c0.024,0.093.047,0.187,0.07,0.281h0.07v0.21h0.07v0.14h0.071V86.13h0.07c0.023,0.092.046,0.187,0.07,0.28h0.07v0.212h0.07c0.024,0.091.047,0.186,0.07,0.279h0.071v0.212h0.07c0.023,0.093.047,0.187,0.07,0.28h0.07v0.212h0.07c0.024,0.093.047,0.187,0.071,0.281h0.069V88.1h0.071l0.07,0.28h0.07v0.212h0.07v0.139h0.07V88.94h0.07c0.024,0.092.047,0.186,0.071,0.279h0.07v0.213h0.07c0.023,0.093.047,0.186,0.07,0.279h0.07v0.213h0.071c0.023,0.093.046,0.188,0.07,0.28h0.07v0.212h0.07c0.023,0.092.047,0.186,0.07,0.281h0.07v0.211h0.07c0.024,0.094.047,0.187,0.07,0.281h0.071V91.4h0.07v0.138h0.07V91.75h0.07c0.024,0.093.047,0.187,0.07,0.28h0.071v0.211h0.07c0.023,0.094.046,0.188,0.07,0.281H255v0.211h0.07c0.023,0.093.047,0.187,0.07,0.281h0.07v0.211h0.071c0.023,0.093.046,0.186,0.07,0.281h0.07v0.211h0.07c0.024,0.094.047,0.187,0.07,0.281h0.07v0.21H255.7c0.023,0.094.046,0.187,0.07,0.281h0.07V94.7h0.07V94.84h0.07v0.211h0.07v0.14h0.07V95.4h0.071c0.023,0.092.046,0.187,0.07,0.28h0.07v0.211h0.07v0.141h0.07v0.21h0.071v0.142h0.07V96.6h0.07v0.14h0.07l0.21,0.7h0.071c0.023,0.093.046,0.187,0.07,0.28h0.07v0.212h0.07v0.139h0.07c0.024,0.094.047,0.189,0.07,0.282h0.071v0.21h0.07a2.8,2.8,0,0,1,.21.564,0.123,0.123,0,0,0,.07-0.072h0.07v-0.21h0.071c0.023-.095.046-0.188,0.07-0.282h0.07v-0.21h0.07c0.024-.092.047-0.187,0.07-0.282h0.07v-0.21h0.071c0.023-.093.046-0.187,0.07-0.281h0.07V97.37h0.07c0.023-.094.047-0.188,0.07-0.282h0.07v-0.21h0.07c0.024-.094.047-0.188,0.071-0.281h0.07v-0.21H259c0.023-.094.047-0.188,0.07-0.283h0.07v-0.21h0.07V95.753h0.071V95.544h0.07c0.023-.094.047-0.188,0.07-0.282h0.07v-0.21h0.07c0.024-.094.047-0.188,0.071-0.282H259.7v-0.21h0.071c0.023-.094.046-0.187,0.07-0.281h0.07v-0.21h0.07c0.024-.094.047-0.186,0.07-0.282h0.071V93.575c1.854-4.1,3.554-8.4,5.4-12.5V80.86h0.07c0.023-.093.047-0.187,0.07-0.28h0.07V80.368h0.07c0.024-.093.047-0.187,0.07-0.28h0.071V79.877h0.07c0.023-.094.047-0.188,0.07-0.28h0.07V79.385h0.07v-0.14h0.07v-0.21h0.071c0.023-.094.046-0.188,0.07-0.281h0.07V78.543h0.07c0.023-.094.047-0.187,0.07-0.281h0.07V78.05h0.07c0.024-.093.047-0.187,0.071-0.28h0.07V77.559H267v-0.14h0.07V77.208h0.07c0.024-.1.047-0.187,0.07-0.281h0.07v-0.21h0.071c0.046-.142.093-0.281,0.14-0.422h0.07V76.153h0.07q0.07-.209.141-0.422c0.047-.022.093-0.045,0.14-0.07V75.522c0.07-.047.14-0.095,0.21-0.141,0.024-.07.047-0.141,0.071-0.211h0.14V75.1h0.14V75.03h0.561a6.087,6.087,0,0,1,1.614.069h0.281V75.17a1.889,1.889,0,0,1,.912,1.334v0.423h0.07v0.492h-0.07c-0.024.14-.047,0.281-0.07,0.421H271.7v0.14h-0.07c-0.023.141-.046,0.282-0.07,0.421h-0.07v0.141h-0.07v0.211h-0.07v0.14h-0.07c-0.024.117-.047,0.234-0.071,0.351h-0.07v0.21h-0.07V79.6H271v0.21h-0.07v0.141h-0.07v0.212h-0.071c-0.023.117-.046,0.234-0.07,0.351h-0.07v0.14h-0.07v0.21H270.5c-0.024.094-.047,0.188-0.07,0.282h-0.071v0.21h-0.07c-0.023.1-.047,0.189-0.07,0.281h-0.07v0.212h-0.07c-0.024.094-.047,0.188-0.07,0.28h-0.07v0.211h-0.071v0.141H269.8v0.21h-0.07c-0.023.094-.047,0.187-0.07,0.281h-0.07v0.21h-0.07c-0.024.094-.047,0.187-0.071,0.282h-0.07v0.21h-0.07v0.141h-0.07v0.21h-0.07v0.142H269.1v0.21H269.03v0.14h-0.07v0.212h-0.07c-0.023.093-.046,0.186-0.07,0.279h-0.07v0.213h-0.07c-0.024.093-.047,0.187-0.07,0.279h-0.071v0.212h-0.07v0.14H268.4v0.211h-0.07c-0.023.093-.047,0.187-0.07,0.28h-0.07v0.211h-0.071c-0.023.093-.047,0.187-0.07,0.281h-0.07v0.211h-0.07v0.141h-0.07v0.21h-0.07c-0.024.093-.047,0.188-0.07,0.282h-0.071v0.211h-0.07l-0.07.28h-0.07v0.211h-0.07c-0.024.094-.047,0.188-0.071,0.281h-0.07V88.87h-0.07v0.14h-0.07v0.21H267c-0.023.094-.047,0.188-0.07,0.282h-0.07v0.209h-0.071c-0.023.094-.046,0.189-0.07,0.282h-0.07l-0.21.7h-0.07v0.141h-0.071v0.21h-0.07c-0.023.094-.047,0.188-0.07,0.282h-0.07v0.209h-0.07V91.68h-0.07v0.209h-0.071c-0.023.095-.046,0.188-0.07,0.282h-0.07v0.21h-0.07c-0.023.1-.047,0.188-0.07,0.282h-0.07c-0.071.235-.141,0.468-0.211,0.7h-0.07v0.141h-0.07v0.211H265.1c-0.024.094-.047,0.187-0.07,0.281h-0.071v0.21h-0.07v0.14h-0.07v0.21h-0.07c-0.023.093-.047,0.187-0.07,0.281h-0.07v0.211H264.54v0.14h-0.07c-0.023.093-.046,0.187-0.07,0.282h-0.07v0.21h-0.07c-0.023.094-.047,0.188-0.07,0.282h-0.07v0.21h-0.071c-0.023.093-.047,0.188-0.07,0.282h-0.07v0.21h-0.07v0.142h-0.07c-0.024.092-.047,0.187-0.07,0.28h-0.071V97.3h-0.07l-0.07.281h-0.07v0.211h-0.07c-0.023.093-.047,0.188-0.071,0.28h-0.07v0.212h-0.07c-0.023.093-.046,0.187-0.07,0.28H263V98.7h-0.07v0.209h-0.07c-0.024.1-.047,0.188-0.071,0.282h-0.07v0.21h-0.07c-0.023.118-.047,0.235-0.07,0.352h-0.07c-0.024.094-.047,0.188-0.07,0.281h-0.071v0.211H262.3v0.139h-0.07V100.6h-0.07c-0.023.092-.047,0.186-0.07,0.279h-0.07v0.212h-0.07v0.139h-0.071v0.212H261.8c-0.023.117-.046,0.233-0.07,0.351h-0.07v0.141h-0.07v0.21h-0.07c-0.07.211-.141,0.423-0.211,0.632h-0.07c-0.023.094-.047,0.188-0.07,0.281H261.1v0.212h-0.07c-0.024.093-.047,0.187-0.071,0.28h-0.07v0.212h-0.07c-0.094.28-.187,0.562-0.281,0.842h-0.07l-0.14.634h0.07c0.023,0.139.047,0.279,0.07,0.421h0.07v0.14h0.07v0.21h0.071c0.023,0.094.046,0.187,0.07,0.282h0.07v0.21h0.07c0.024,0.094.047,0.187,0.07,0.281h0.071v0.211h0.07c0.023,0.093.046,0.187,0.07,0.281h0.07v0.211h0.07c0.024,0.093.047,0.187,0.07,0.28h0.071v0.212h0.07v0.139h0.07c0.023,0.094.046,0.189,0.07,0.281h0.07v0.212h0.07v0.139h0.07c0.024,0.094.047,0.189,0.071,0.282h0.07v0.21h0.07c0.023,0.095.047,0.188,0.07,0.282h0.07v0.21h0.07c0.024,0.094.047,0.187,0.07,0.281h0.071v0.211h0.07v0.141h0.07v0.21h0.07c0.023,0.1.047,0.187,0.07,0.281h0.07v0.21h0.071v0.141h0.07v0.212H263c0.023,0.094.047,0.187,0.07,0.281h0.07v0.211h0.07c0.024,0.093.047,0.186,0.07,0.281h0.071v0.21h0.07c0.023,0.095.047,0.187,0.07,0.283h0.07v0.208h0.07c0.024,0.095.047,0.188,0.071,0.282h0.07v0.21h0.07v0.141h0.07c0.023,0.093.047,0.187,0.07,0.281h0.07v0.211h0.071c0.023,0.093.046,0.187,0.07,0.28h0.07v0.212h0.07c0.023,0.093.047,0.187,0.07,0.28h0.07V115h0.07c0.024,0.093.047,0.187,0.071,0.28h0.07V115.5h0.07l0.07,0.28h0.07v0.212h0.07c0.024,0.092.047,0.186,0.071,0.279h0.07v0.212h0.07c0.023,0.093.047,0.187,0.07,0.28h0.07v0.211h0.07v0.14h0.07v0.212h0.071c0.023,0.093.046,0.186,0.07,0.28h0.07v0.212h0.07c0.023,0.093.047,0.186,0.07,0.28h0.07V118.3h0.071c0.023,0.093.046,0.187,0.07,0.28h0.07V118.8h0.07l0.07,0.279h0.07v0.212h0.071c0.023,0.093.046,0.187,0.07,0.28h0.07v0.212h0.07c0.023,0.093.047,0.186,0.07,0.281h0.07v0.21h0.07c0.024,0.1.047,0.187,0.071,0.281h0.07v0.211H267c0.023,0.095.047,0.187,0.07,0.281h0.07v0.21h0.07c0.024,0.1.047,0.188,0.07,0.282h0.071v0.21h0.07v0.14h0.07V122.1h0.07c0.023,0.093.047,0.187,0.07,0.28H267.7v0.212h0.07l0.07,0.28h0.07v0.212h0.07c0.024,0.094.047,0.186,0.07,0.28h0.07v0.212h0.071c0.023,0.094.046,0.187,0.07,0.28h0.07v0.209h0.07c0.023,0.1.047,0.189,0.07,0.283h0.07v0.21h0.071c0.023,0.095.046,0.188,0.07,0.282h0.07v0.21h0.07c0.024,0.094.047,0.188,0.07,0.282h0.07v0.209h0.07c0.024,0.094.047,0.188,0.071,0.282h0.07v0.209h0.07v0.143h0.07l0.07,0.279h0.07v0.212h0.071c0.023,0.093.046,0.188,0.07,0.281h0.07v0.211h0.07c0.024,0.093.047,0.187,0.07,0.279h0.07v0.213h0.071c0.023,0.093.046,0.187,0.07,0.28h0.07v0.212h0.07c0.023,0.093.047,0.187,0.07,0.28h0.07v0.211h0.07c0.024,0.094.047,0.187,0.071,0.282h0.07v0.21h0.07c0.023,0.094.047,0.187,0.07,0.281h0.07v0.211h0.07c0.024,0.094.047,0.187,0.071,0.28h0.07v0.212H271v0.139h0.07q0.21,0.633.421,1.265h0.07c0.024,0.095.047,0.187,0.07,0.282h0.07V132h0.071c0.023,0.094.046,0.187,0.07,0.282h0.07v0.209h0.07c0.023,0.093.047,0.188,0.07,0.283h0.07v0.209h0.071c0.023,0.093.046,0.187,0.07,0.282h0.07v0.21h0.07c0.024,0.094.047,0.188,0.07,0.282h0.07v0.21h0.07c0.024,0.094.047,0.187,0.071,0.282h0.07v0.209h0.07V134.6h0.07c0.023,0.093.047,0.187,0.07,0.28h0.07v0.211H273.1c0.023,0.094.046,0.187,0.07,0.282h0.07v0.21h0.07c0.024,0.093.047,0.187,0.07,0.28h0.071v0.211h0.069c0.024,0.095.047,0.188,0.071,0.281h0.07v0.212h0.07c0.023,0.093.047,0.187,0.07,0.281h0.07v0.21h0.07v0.14h0.071c0.023,0.094.046,0.189,0.07,0.281h0.07v0.21h0.07c0.024,0.095.047,0.189,0.07,0.283h0.071v0.21h0.07c0.023,0.095.046,0.188,0.07,0.281h0.07v0.209h0.07c0.023,0.095.047,0.189,0.07,0.284h0.07v0.209h0.07v0.142h0.071v0.209h0.07c0.023,0.095.047,0.188,0.07,0.282h0.07v0.21h0.07c0.024,0.094.047,0.188,0.071,0.282h0.07v0.21h0.07v0.142h0.07v0.209h0.07v0.14h0.07v0.212h0.07v0.139h0.07c0.024,0.142.047,0.284,0.071,0.422h0.07c0.08,0.081,0,.027.14,0.071,0.047-.209.094-0.423,0.141-0.632h0.069v-0.212h0.071c0.023-.093.047-0.187,0.07-0.279h0.07c0.023-.118.047-0.234,0.07-0.352h0.07v-0.141h0.071v-0.211h0.07c0.023-.093.047-0.186,0.07-0.28h0.07v-0.212h0.07c0.024-.092.047-0.186,0.07-0.279H277.1c0.07-.236.14-0.47,0.21-0.705h0.07V138.4h0.07v-0.211h0.07c0.024-.093.047-0.188,0.071-0.281h0.07v-0.212h0.07c0.023-.092.047-0.186,0.07-0.28h0.07V137.2h0.071c0.023-.093.046-0.187,0.07-0.28h0.07v-0.212h0.07c0.023-.093.047-0.187,0.07-0.28h0.07v-0.211h0.07v-0.141h0.07v-0.211H278.5c0.023-.093.046-0.187,0.07-0.28h0.07v-0.21h0.07c0.024-.095.047-0.188,0.07-0.282h0.071v-0.211h0.07c0.023-.093.046-0.187,0.07-0.28h0.07v-0.212h0.07c0.023-.093.047-0.187,0.07-0.28h0.07V133.9h0.07c0.024-.094.047-0.189,0.071-0.281h0.07v-0.212h0.07v-0.139h0.07v-0.211h0.07c0.024-.094.047-0.188,0.071-0.28h0.069v-0.213H279.9c0.023-.093.047-0.187,0.07-0.279h0.07v-0.212h0.071l0.069-.28h0.071v-0.212h0.07c0.023-.094.046-0.187,0.07-0.28h0.07V131.09h0.07c0.024-.095.047-0.187,0.07-0.281h0.071V130.6h0.07v-0.139h0.07v-0.213h0.07c0.024-.093.047-0.187,0.07-0.279h0.071v-0.213H281.1c0.024-.093.047-0.187,0.071-0.279h0.07v-0.212h0.07c0.023-.094.047-0.188,0.07-0.281h0.07v-0.211h0.071c0.023-.093.046-0.187,0.07-0.28h0.07v-0.212h0.07c0.023-.092.047-0.187,0.07-0.28h0.07c0.07-.234.14-0.469,0.211-0.7h0.07v-0.14h0.07v-0.211h0.07c0.024-.093.047-0.188,0.07-0.281h0.071v-0.212h0.07c0.023-.092.046-0.187,0.07-0.279h0.07v-0.212h0.07c0.024-.093.047-0.187,0.07-0.28h0.07v-0.212h0.071c0.023-.093.046-0.187,0.07-0.28h0.07v-0.21h0.07v-0.141h0.07v-0.212h0.07c0.024-.092.047-0.188,0.071-0.28h0.07v-0.212h0.07c0.023-.093.047-0.186,0.07-0.28h0.07v-0.211h0.07c0.024-.093.047-0.188,0.07-0.281h0.071v-0.211h0.07v-0.14h0.07V122.8h0.07c0.024-.094.047-0.187,0.07-0.281h0.07v-0.211h0.071v-0.14h0.07v-0.21h0.07c0.023-.095.047-0.187,0.07-0.282h0.07v-0.21h0.071l0.069-.281h0.071v-0.211h0.07v-0.142h0.07v-0.209h0.07c0.024-.094.047-0.187,0.07-0.282h0.07c0.024-.116.047-0.234,0.071-0.352h0.07V119.78c2.444-5.43,4.718-11.079,7.156-16.509v-0.212h0.07V102.92h0.07v-0.212h0.07c0.024-.094.047-0.187,0.07-0.281h0.071v-0.211h0.07v-0.14h0.07v-0.211h0.07c0.024-.093.047-0.188,0.07-0.28H293.1v-0.212h0.07v-0.141h0.07v-0.21h0.07c0.023-.093.047-0.186,0.07-0.281h0.07c0.024-.117.047-0.233,0.07-0.352h0.071V100.18h0.07v-0.141h0.07V99.828c1.39-3.089,2.681-6.329,4.069-9.413V90.2h0.07c0.023-.092.047-0.187,0.07-0.28h0.07V89.711h0.071c0.023-.093.046-0.187,0.07-0.279h0.07V89.219h0.07c0.024-.093.047-0.187,0.07-0.279h0.07V88.728H298.5V88.588h0.07V88.377h0.07l0.07-.28h0.07v-0.21h0.07c0.024-.094.047-0.188,0.07-0.281h0.071V87.394h0.07c0.023-.093.047-0.188,0.07-0.28h0.07V86.9h0.07c0.024-.093.047-0.188,0.07-0.279h0.071V86.41h0.07V86.271h0.07V86.059h0.07c0.023-.095.047-0.188,0.07-0.281h0.07v-0.21h0.07c0.024-.094.047-0.189,0.071-0.281h0.07V85.075h0.07c0.023-.093.047-0.187,0.07-0.28h0.07V84.583h0.071c0.023-.093.046-0.187,0.07-0.28h0.07V84.092h0.07V83.951h0.07V83.74H300.6l0.069-.28h0.07V83.249h0.071c0.023-.094.046-0.187,0.07-0.281h0.07v-0.21h0.07c0.024-.094.047-0.187,0.07-0.281h0.071V82.265h0.07c0.023-.093.046-0.187,0.07-0.28h0.07V81.773h0.07V81.632h0.07v-0.21h0.07c0.024-.094.047-0.186,0.07-0.281h0.071v-0.21h0.07c0.023-.094.047-0.187,0.07-0.282h0.07v-0.21H302c0.024-.094.047-0.188,0.071-0.281h0.07V79.947h0.07c0.023-.093.047-0.187,0.07-0.28h0.07V79.455h0.07c0.024-.093.047-0.187,0.07-0.28h0.071V78.964h0.07V78.823h0.07v-0.21h0.07c0.024-.093.047-0.186,0.07-0.281h0.071V78.121h0.07V77.98h0.07V77.77h0.07c0.023-.094.047-0.189,0.07-0.283h0.07V77.278h0.07V77.137h0.07v-0.21h0.071V76.786h0.07V76.575h0.07c0.047-.139.094-0.28,0.14-0.422h0.071a1.363,1.363,0,0,1,.7-0.912,5.088,5.088,0,0,1,2.806-.07v0.07c0.117,0.094.234,0.186,0.351,0.281a0.668,0.668,0,0,0,.141.281v2.529h-0.071v0.211h-0.07v0.211h-0.07v0.21h-0.07v0.211h-0.07v0.14h-0.07v0.211h-0.071v0.141h-0.07v0.21H307.2v0.141h-0.07v0.211h-0.07v0.14h-0.071v0.211h-0.069c-0.024.094-.047,0.187-0.071,0.28h-0.07v0.211h-0.07v0.14h-0.07v0.212h-0.07c-0.024.094-.047,0.188-0.07,0.28h-0.071v0.212h-0.07l-0.07.28h-0.07v0.213h-0.07v0.141h-0.071L306,82.9h-0.071v0.209h-0.07c-0.023.1-.047,0.189-0.07,0.282h-0.07V83.6h-0.07V83.74h-0.071v0.211h-0.07c-0.023.095-.047,0.188-0.07,0.282h-0.07v0.21H305.3v0.14h-0.071c-0.023.119-.046,0.235-0.07,0.351h-0.07v0.213h-0.07l-0.07.279h-0.07v0.213h-0.07v0.139h-0.07c-0.024.117-.047,0.233-0.071,0.352H304.6v0.21h-0.07c-0.023.094-.047,0.188-0.07,0.283h-0.07v0.21h-0.071v0.141h-0.07v0.211h-0.07c-0.023.093-.046,0.187-0.07,0.281h-0.07c-0.023.117-.047,0.234-0.07,0.351H303.9v0.211h-0.07v0.139h-0.071v0.211c-1.752,3.892-3.306,7.986-5.051,11.873v0.21h-0.07V100.6h-0.07v0.208H298.5c-0.024.095-.047,0.189-0.071,0.283h-0.07V101.3h-0.07c-0.023.095-.047,0.189-0.07,0.283h-0.07v0.21h-0.07v0.141h-0.071v0.21h-0.07c-0.023.094-.047,0.188-0.07,0.281H297.8c-0.023.117-.047,0.236-0.07,0.351h-0.07v0.212h-0.07v0.139h-0.071v0.212h-0.07c-0.023.094-.047,0.187-0.07,0.28H297.3v0.212h-0.07v0.141h-0.07v0.209h-0.071c-0.023.094-.046,0.188-0.07,0.282h-0.07v0.211h-0.07v0.141h-0.07v0.209h-0.071v0.142h-0.069c-0.024.093-.047,0.186-0.071,0.28h-0.07v0.212h-0.07l-0.07.28h-0.07v0.211h-0.071c-0.023.094-.046,0.187-0.07,0.281h-0.07v0.21h-0.07c-0.023.094-.047,0.187-0.07,0.281H295.9v0.211h-0.07v0.141H295.76c-0.023.117-.046,0.233-0.07,0.351h-0.07v0.211h-0.07c-0.023.092-.047,0.187-0.07,0.28h-0.07v0.211h-0.07v0.141h-0.071v0.21H295.2c-0.023.1-.047,0.188-0.07,0.282h-0.07c-0.024.117-.047,0.235-0.07,0.351h-0.071v0.211h-0.07l-0.07.281h-0.07v0.21h-0.07c-0.023.095-.047,0.188-0.07,0.282H294.5v0.21h-0.071c-0.023.095-.046,0.187-0.07,0.282h-0.07V111h-0.07c-0.024.094-.047,0.187-0.07,0.281h-0.07v0.21h-0.07l-0.071.283h-0.07v0.209H293.8c-0.023.094-.047,0.188-0.07,0.282h-0.07v0.209h-0.07v0.142h-0.071v0.211h-0.07c-0.023.094-.047,0.187-0.07,0.28h-0.07v0.212h-0.07c-0.024.093-.047,0.187-0.07,0.28H293.1v0.211h-0.071v0.14h-0.07v0.212h-0.07c-0.023.093-.047,0.187-0.07,0.28h-0.07v0.211h-0.071c-0.023.094-.046,0.188-0.07,0.282h-0.07v0.21h-0.07c-0.023.094-.047,0.187-0.07,0.282h-0.07v0.21h-0.071v0.14h-0.07v0.212h-0.07c-0.023.092-.046,0.186-0.07,0.279h-0.07v0.212H291.9c-0.024.093-.047,0.187-0.07,0.28h-0.071v0.211h-0.07v0.14h-0.07v0.212h-0.07c-0.023.093-.047,0.186-0.07,0.28h-0.07v0.212H291.34v0.14h-0.07v0.209c-2.43,5.4-4.66,11.038-7.086,16.441v0.209h-0.07v0.141h-0.07v0.211h-0.07c-0.024.094-.047,0.188-0.07,0.281h-0.07v0.211h-0.071c-0.023.095-.046,0.187-0.07,0.281h-0.07v0.211h-0.07c-0.023.094-.047,0.188-0.07,0.281h-0.07v0.21h-0.07c-0.024.1-.047,0.188-0.071,0.282H283.2v0.21h-0.07c-0.023.095-.047,0.187-0.07,0.281h-0.07v0.21h-0.07c-0.024.095-.047,0.189-0.071,0.282h-0.07v0.21h-0.07v0.141h-0.07v0.211h-0.07c-0.024.095-.047,0.187-0.07,0.281h-0.07v0.212H282.36c-0.023.094-.046,0.186-0.07,0.281h-0.07v0.209h-0.07c-0.023.095-.047,0.187-0.07,0.282h-0.071v0.209h-0.07v0.142h-0.07c-0.023.093-.046,0.187-0.07,0.281h-0.07v0.211h-0.07c-0.024.093-.047,0.188-0.07,0.28h-0.07v0.211h-0.071c-0.023.094-.046,0.187-0.07,0.28h-0.07v0.212h-0.07c-0.024.093-.047,0.187-0.07,0.281H281.1v0.212h-0.069c-0.024.092-.048,0.187-0.071,0.279h-0.07v0.212h-0.07c-0.023.093-.047,0.186-0.07,0.28h-0.07v0.212h-0.071c-0.023.092-.046,0.187-0.07,0.279h-0.07v0.213H280.4c-0.024.092-.047,0.187-0.07,0.28h-0.07v0.212h-0.071c-0.023.092-.046,0.186-0.069,0.281h-0.071v0.21h-0.07c-0.023.094-.047,0.187-0.07,0.281h-0.071V145h-0.069c-0.024.094-.047,0.187-0.071,0.28h-0.07v0.212h-0.07c-0.023.094-.047,0.187-0.07,0.28h-0.07v0.21h-0.071v0.14h-0.07c-0.023.095-.046,0.189-0.07,0.283h-0.07v0.211h-0.07c-0.024.093-.047,0.187-0.07,0.28h-0.07v0.212h-0.07c-0.024.093-.047,0.187-0.071,0.279h-0.07V147.6h-0.07c-0.023.093-.047,0.187-0.07,0.279H278.5v0.213h-0.071c-0.023.093-.046,0.186-0.07,0.28h-0.07v0.211h-0.07c-0.023.094-.047,0.187-0.07,0.281h-0.07v0.211h-0.07c-0.024.094-.047,0.188-0.07,0.281H277.87v0.21H277.8c-0.023.094-.047,0.188-0.07,0.281h-0.07v0.212h-0.07c-0.024.093-.047,0.187-0.071,0.28h-0.07v0.212h-0.07c-0.023.093-.047,0.187-0.07,0.281h-0.07v0.21h-0.07c-0.024.093-.047,0.187-0.07,0.282h-0.071v0.21h-0.07v0.14h-0.07c-0.023.093-.047,0.187-0.07,0.282h-0.07v0.209h-0.07c-0.024.094-.047,0.189-0.071,0.283h-0.07v0.209h-0.07c-0.023.094-.047,0.188-0.07,0.282h-0.07v0.211h-0.071l-0.069.28h-0.071v0.212h-0.07c-0.023.093-.046,0.187-0.07,0.28h-0.07v0.211h-0.07c-0.024.093-.047,0.187-0.071,0.28H275.7v0.212h-0.07c-0.023.093-.047,0.187-0.07,0.279h-0.07v0.213h-0.07c-0.023.093-.047,0.187-0.07,0.28h-0.07v0.211H275.2c-0.023.093-.046,0.189-0.07,0.281h-0.07V156.1h-0.07c-0.024.093-.047,0.188-0.07,0.28h-0.071v0.212h-0.07c-0.023.093-.046,0.188-0.07,0.281h-0.07v0.21h-0.07v0.14H274.5c-0.024.095-.047,0.188-0.07,0.282h-0.07v0.21h-0.071c-0.023.094-.046,0.188-0.07,0.282h-0.07v0.21h-0.07v0.141h-0.07v0.211h-0.071c-0.023.094-.046,0.187-0.07,0.281H273.8v0.21h-0.07v0.141h-0.07V159.4h-0.07c-0.024.093-.047,0.186-0.071,0.281h-0.069v0.209H273.38v0.14h-0.07c-0.023.095-.047,0.188-0.07,0.283h-0.07v0.21H273.1v0.141h-0.071c-0.023.093-.046,0.187-0.07,0.28h-0.07v0.212h-0.07c-0.023.092-.047,0.186-0.07,0.28h-0.07v0.141h-0.071v0.141h-0.07v0.21h-0.07c-0.046.141-.093,0.282-0.14,0.421h-0.07v0.142h-0.07v0.139h-0.071v0.14h-0.07v0.142h-0.07v0.14h-0.07V163.2h-0.07v0.14h-0.07v0.14H271.7v0.141h-0.07v0.14c-0.046.025-.093,0.047-0.14,0.07-0.023.094-.047,0.188-0.07,0.281h-0.07c-0.024.07-.047,0.141-0.07,0.211l-0.141.071v0.14h-0.07c-0.023.048-.047,0.093-0.07,0.14h-0.14v0.07a2.216,2.216,0,0,0-.281.211h-2.035v-0.07l-0.35-.069-0.351-.422h-0.07v-0.141c-0.047-.022-0.094-0.045-0.141-0.071v-0.139h-0.07V163.9h-0.07v-0.141h-0.07v-0.14h-0.07v-0.141h-0.071c-0.046-.14-0.093-0.28-0.14-0.421h-0.07v-0.211H267V162.7h-0.07v-0.21h-0.07c-0.024-.095-0.047-0.188-0.071-0.281h-0.07V162h-0.07c-0.023-.095-0.047-0.189-0.07-0.281h-0.07v-0.213h-0.07v-0.139h-0.07v-0.21h-0.071c-0.023-.095-0.047-0.188-0.07-0.282h-0.07v-0.21h-0.07c-0.023-.095-0.047-0.187-0.07-0.281h-0.07c-0.071-.235-0.141-0.47-0.211-0.7h-0.07v-0.142h-0.07v-0.209h-0.07l-0.071-.283h-0.07v-0.21h-0.07c-0.023-.094-0.047-0.187-0.07-0.281h-0.07v-0.211H265.1v-0.141h-0.07V158h-0.071c-0.023-.094-0.046-0.188-0.07-0.282h-0.07V157.5h-0.07c-0.023-.094-0.047-0.187-0.07-0.282h-0.07v-0.209H264.54v-0.141h-0.07v-0.21H264.4c-0.023-.094-0.047-0.189-0.07-0.283h-0.07v-0.21h-0.07c-0.024-.092-0.047-0.187-0.07-0.281h-0.071v-0.211h-0.07v-0.139h-0.07v-0.213h-0.07c-0.024-.092-0.047-0.186-0.07-0.28H263.7v-0.212h-0.071c-0.023-.092-0.047-0.186-0.07-0.279h-0.07v-0.211h-0.07c-0.024-.094-0.047-0.187-0.07-0.282h-0.071v-0.21h-0.07v-0.14h-0.07V153.5h-0.07L263,153.22h-0.07v-0.213h-0.07c-0.024-.092-0.047-0.187-0.071-0.28h-0.07v-0.212h-0.07v-0.139h-0.07v-0.212c-2.253-5-4.277-10.236-6.525-15.243v-0.212h-0.07V136.57h-0.07c-0.023-.118-0.047-0.234-0.07-0.352h-0.07v-0.211H255.7v-0.141H255.63c-0.023-.093-0.046-0.187-0.07-0.28h-0.07v-0.21h-0.07v-0.141h-0.07v-0.211h-0.07l-0.071-.281h-0.07v-0.21h-0.07c-0.023-.095-0.047-0.187-0.07-0.281h-0.07v-0.211h-0.07V133.9h-0.07v-0.211h-0.071c-0.023-.094-0.046-0.187-0.07-0.282h-0.07V133.2h-0.07c-0.024-.095-0.047-0.188-0.07-0.283h-0.071v-0.209H254.3c-0.023-.094-0.046-0.187-0.07-0.281h-0.07v-0.211h-0.07v-0.141h-0.07v-0.21h-0.07c-0.024-.095-0.047-0.188-0.07-0.282h-0.071v-0.21h-0.07c-0.023-.094-0.047-0.187-0.07-0.281H253.6c-0.024-.117-0.047-0.235-0.07-0.352h-0.071v-0.21h-0.07c-0.023-.095-0.046-0.188-0.07-0.282h-0.07v-0.209h-0.07c-0.023-.094-0.047-0.189-0.07-0.283h-0.071v-0.209h-0.069c-0.024-.094-0.047-0.188-0.071-0.282h-0.07v-0.21h-0.07v-0.14h-0.07V128.7h-0.07c-0.024-.094-0.047-0.189-0.071-0.282h-0.07v-0.211H252.4V128.07h-0.07c-0.024-.119-0.047-0.235-0.07-0.352h-0.07v-0.211q-0.386-.807-0.772-1.616h-0.07a1.767,1.767,0,0,1-.211.632v0.211h-0.07v0.14H251v0.211h-0.07v0.141h-0.07v0.209h-0.07c-0.024.095-.047,0.19-0.071,0.283h-0.07v0.21h-0.07l-0.07.281h-0.07v0.211h-0.071v0.141H250.3c-0.023.093-.046,0.188-0.07,0.279h-0.07v0.213h-0.07v0.14h-0.07v0.139h-0.07v0.143h-0.071v0.21h-0.07v0.14h-0.07c-0.023.093-.047,0.187-0.07,0.282H249.6v0.21h-0.07c-0.024.093-.047,0.187-0.07,0.281h-0.07v0.211h-0.071c-0.023.094-.046,0.186-0.07,0.281h-0.07V131.3h-0.07c-0.024.093-.047,0.186-0.07,0.28h-0.071v0.212H248.9c-0.023.093-.046,0.186-0.07,0.28h-0.07v0.212h-0.07c-0.023.092-.047,0.186-0.07,0.279h-0.07v0.213h-0.071c-0.023.092-.047,0.186-0.07,0.28h-0.07v0.211h-0.07v0.139h-0.07v0.212h-0.071c-0.023.092-.046,0.187-0.07,0.281h-0.07v0.211h-0.07l-0.07.28h-0.07V134.6H247.7v0.14h-0.071c-0.023.095-.047,0.187-0.07,0.281h-0.07v0.211h-0.07v0.141h-0.07v0.21h-0.07v0.14h-0.07v0.211h-0.071v0.14h-0.07v0.21H247c-0.023.095-.047,0.189-0.07,0.283h-0.07v0.21H246.79c-0.023.094-.046,0.186-0.07,0.281h-0.07v0.21h-0.07v0.141h-0.07c-0.023.094-.047,0.188-0.07,0.28h-0.07V137.9H246.3c-0.024.093-.047,0.188-0.071,0.281h-0.07V138.4h-0.07c-0.023.093-.047,0.187-0.07,0.279h-0.07v0.214h-0.071v0.137h-0.07v0.214h-0.07c-0.023.093-.047,0.187-0.07,0.279H245.6v0.212h-0.07c-0.024.094-.047,0.187-0.07,0.28h-0.071v0.211h-0.07c-0.023.094-.046,0.188-0.07,0.281h-0.07v0.212h-0.07c-0.024.092-.047,0.186-0.07,0.279h-0.07v0.212H244.9c-0.023.094-.047,0.187-0.07,0.281h-0.07V141.7h-0.07c-0.023.093-.047,0.188-0.07,0.282h-0.07v0.209h-0.071v0.14h-0.07v0.212c-1.994,4.428-3.829,9.058-5.823,13.488v0.21h-0.07c-0.023.095-.047,0.189-0.07,0.282h-0.07v0.209H238.3c-0.023.1-.046,0.189-0.069,0.283h-0.071v0.209h-0.07v0.142h-0.07v0.211h-0.07c-0.024.094-.047,0.187-0.07,0.281H237.81v0.211h-0.07c-0.023.094-.047,0.187-0.07,0.28H237.6v0.211h-0.07c-0.024.094-.047,0.187-0.07,0.281h-0.071v0.21h-0.07c-0.023.1-.046,0.188-0.07,0.283h-0.07v0.209h-0.07c-0.023.093-.047,0.187-0.07,0.282h-0.07v0.209H236.9c-0.023.095-.046,0.188-0.07,0.283h-0.07v0.21h-0.07v0.141h-0.07c-0.024.141-.047,0.28-0.07,0.422h-0.071v0.14h-0.07v0.21h-0.07c-0.023.118-.046,0.233-0.07,0.352H236.2v0.14h-0.07v0.211h-0.07c-0.024.093-.047,0.187-0.071,0.28h-0.07v0.211h-0.07v0.14h-0.07c-0.024.095-.047,0.188-0.07,0.282h-0.07c-0.071.211-.141,0.421-0.211,0.632-0.047.025-.093,0.047-0.14,0.07l-0.14.421c-0.047.026-.094,0.049-0.141,0.071v0.141c-0.21.188-.421,0.374-0.631,0.561a8.065,8.065,0,0,1-2.035-.07,1.949,1.949,0,0,1-.561-0.281v-0.14c-0.07-.046-0.14-0.094-0.21-0.141v-0.141l-0.141-.07v-0.14c-0.047-.022-0.093-0.047-0.14-0.07l-0.141-.422h-0.07v-0.14h-0.07V163.2h-0.07v-0.141h-0.07v-0.14H230.8v-0.142h-0.071c-0.023-.092-0.046-0.187-0.069-0.279h-0.071v-0.142h-0.07v-0.21h-0.07V162h-0.07c-0.024-.095-0.047-0.189-0.07-0.281h-0.071v-0.213h-0.07c-0.023-.092-0.046-0.187-0.07-0.279h-0.07v-0.212h-0.07v-0.14h-0.07c-0.024-.094-0.047-0.187-0.07-0.28h-0.071v-0.211h-0.07v-0.141H229.6v-0.212h-0.07c-0.023-.093-0.047-0.186-0.07-0.279h-0.07v-0.212h-0.071c-0.023-.094-0.046-0.187-0.07-0.281h-0.07v-0.211h-0.07c-0.024-.093-0.047-0.188-0.07-0.28H228.97v-0.211H228.9v-0.14H228.83c-0.023-.095-0.046-0.189-0.07-0.282h-0.07v-0.21h-0.07v-0.141h-0.07v-0.141h-0.071c-0.046-.14-0.093-0.28-0.14-0.422h-0.07v-0.209H228.2v-0.141h-0.07V156.73h-0.07c-0.047-.139-0.094-0.28-0.141-0.421h-0.07V156.1h-0.07v-0.14h-0.07c-0.024-.094-0.047-0.189-0.07-0.282h-0.071v-0.21H227.5c-0.023-.093-0.046-0.188-0.07-0.281h-0.07v-0.212h-0.07c-0.023-.093-0.047-0.187-0.07-0.28h-0.071v-0.212h-0.069v-0.139h-0.071v-0.211h-0.07c-0.023-.093-0.047-0.187-0.07-0.281H226.8v-0.21h-0.07c-0.024-.094-0.047-0.188-0.071-0.281h-0.07c-0.023-.118-0.047-0.234-0.07-0.353h-0.07V152.8h-0.07c-0.024-.094-0.047-0.188-0.07-0.283h-0.071v-0.209h-0.07c-0.023-.095-0.046-0.188-0.07-0.282h-0.07v-0.209h-0.07c-0.023-.095-0.047-0.188-0.07-0.282h-0.07v-0.21h-0.071c-0.023-.095-0.046-0.189-0.07-0.282H225.6v-0.21h-0.07c-0.024-.094-0.047-0.188-0.07-0.281h-0.07v-0.212h-0.071V150.2h-0.07v-0.21h-0.07c-0.023-.094-0.047-0.186-0.07-0.281h-0.07V149.5h-0.07l-0.071-.282h-0.07V149h-0.07c-0.023-.095-0.047-0.187-0.07-0.281h-0.07v-0.211h-0.07v-0.141H224.48v-0.21h-0.07c-0.023-.094-0.047-0.188-0.07-0.283h-0.07v-0.209H224.2c-0.024-.093-0.047-0.187-0.07-0.282h-0.07v-0.21h-0.071c-0.023-.093-0.046-0.187-0.07-0.281h-0.07v-0.21h-0.07v-0.142h-0.07v-0.21h-0.07c-0.024-.094-0.047-0.187-0.071-0.282H223.5v-0.209h-0.07c-0.023-.094-0.047-0.189-0.07-0.282h-0.07v-0.21h-0.07c-0.024-.094-0.047-0.186-0.07-0.282h-0.071v-0.21h-0.07c-0.023-.093-0.047-0.187-0.07-0.281h-0.07v-0.21H222.8v-0.142h-0.07v-0.209h-0.071c-0.023-.095-0.046-0.189-0.07-0.283h-0.07v-0.209h-0.07c-0.024-.094-0.047-0.188-0.07-0.282h-0.07v-0.21h-0.071c-0.023-.094-0.046-0.188-0.07-0.282H222.1v-0.21h-0.07c-0.023-.094-0.047-0.188-0.07-0.282h-0.07V142.05h-0.07c-0.024-.095-0.047-0.189-0.071-0.283h-0.07v-0.21H221.6v-0.142h-0.07c-0.024-.092-0.047-0.186-0.07-0.279h-0.07v-0.212h-0.07c-0.024-.093-0.047-0.186-0.071-0.279h-0.07v-0.212h-0.07c-0.023-.093-0.047-0.187-0.07-0.281h-0.07V139.94H220.9V139.8h-0.07c-0.023-.094-0.047-0.187-0.07-0.282h-0.07V139.31h-0.07v-0.142h-0.07c-0.023-.092-0.047-0.186-0.07-0.279h-0.071v-0.214h-0.07c-0.023-.092-0.046-0.186-0.07-0.279H220.2v-0.211h-0.07c-0.024-.093-0.047-0.188-0.07-0.281H219.99v-0.212h-0.07c-0.023-.092-0.046-0.186-0.07-0.28h-0.07V137.2h-0.07c-0.024-.093-0.047-0.187-0.07-0.28h-0.07v-0.212H219.5c-0.023-.093-0.046-0.187-0.07-0.28h-0.07v-0.211h-0.07l-0.07-.281h-0.07v-0.211h-0.071c-0.023-.093-0.046-0.187-0.07-0.281h-0.07v-0.21h-0.07c-0.024-.094-0.047-0.189-0.07-0.282h-0.07v-0.21h-0.071c-0.023-.094-0.046-0.188-0.07-0.282h-0.07v-0.209h-0.07c-0.023-.095-0.047-0.188-0.07-0.282h-0.07v-0.21h-0.07c-0.024-.094-0.047-0.188-0.071-0.282H218.1v-0.21h-0.07c-0.023-.095-0.047-0.189-0.07-0.282h-0.07v-0.209h-0.07c-0.024-.095-0.047-0.19-0.071-0.283h-0.07v-0.209h-0.07c-0.023-.095-0.047-0.188-0.07-0.282h-0.07v-0.21H217.4l-0.071-.282h-0.07V131.3h-0.07c-0.023-.095-0.047-0.187-0.07-0.282h-0.07v-0.21h-0.07c-0.024-.094-0.047-0.187-0.07-0.281h-0.071v-0.211h-0.07c-0.023-.093-0.047-0.187-0.07-0.28h-0.07v-0.212h-0.07c-0.024-.093-0.047-0.188-0.07-0.28h-0.071v-0.213h-0.07c-0.023-.092-0.046-0.187-0.07-0.279H216.2V128.84h-0.07c-0.024-.091-0.047-0.186-0.07-0.279h-0.071v-0.212h-0.07l-0.07-.279h-0.07v-0.213h-0.07v-0.139h-0.07v-0.211h-0.07l-0.071-.281h-0.07l-0.21-.7h-0.071v-0.141h-0.07v-0.209h-0.07V126.03h-0.07v-0.209h-0.07c-0.023-.094-0.047-0.188-0.07-0.282h-0.07V125.33h-0.07v-0.141h-0.071v-0.21h-0.07c-0.023-.094-0.047-0.188-0.07-0.283h-0.07v-0.209h-0.07v-0.141h-0.07v-0.212h-0.071c-0.023-.093-0.046-0.186-0.07-0.28h-0.07v-0.211h-0.07l-0.07-.281h-0.07v-0.211h-0.07l-0.071-.281h-0.07v-0.21h-0.07c-0.023-.094-0.047-0.187-0.07-0.282H213.4v-0.21h-0.071v-0.141h-0.07c-0.023-.094-0.047-0.186-0.07-0.281h-0.07v-0.21h-0.07c-0.023-.094-0.047-0.186-0.07-0.282h-0.07v-0.21h-0.071V120.9h-0.07v-0.21h-0.07c-0.023-.094-0.047-0.188-0.07-0.281h-0.07V120.2h-0.07c-0.024-.094-0.047-0.188-0.071-0.281h-0.07v-0.211h-0.07c-0.023-.094-0.047-0.187-0.07-0.282h-0.07v-0.209h-0.071c-0.023-.093-0.046-0.187-0.069-0.283h-0.071v-0.209h-0.07c-0.023-.095-0.047-0.187-0.07-0.281h-0.07v-0.211h-0.07v-0.141h-0.07v-0.21H211.5c-0.023-.094-0.046-0.188-0.07-0.282h-0.07v-0.21h-0.07c-0.024-.094-0.047-0.188-0.07-0.282H211.15V116.9h-0.069c-0.024-.094-0.047-0.188-0.071-0.283h-0.07v-0.209h-0.07v-0.142H210.8v-0.209h-0.07c-0.024-.094-0.047-0.188-0.07-0.282h-0.071v-0.21h-0.07c-0.023-.094-0.047-0.189-0.07-0.282h-0.07v-0.21h-0.07c-0.024-.094-0.047-0.188-0.071-0.282h-0.069v-0.209H210.1V114.44h-0.07v-0.209h-0.07c-0.023-.095-0.047-0.19-0.07-0.283h-0.07v-0.21h-0.071c-0.023-.093-0.046-0.188-0.07-0.282h-0.07v-0.21h-0.07c-0.023-.093-0.047-0.187-0.07-0.282H209.4v-0.21h-0.07v-0.14h-0.07V112.4h-0.071c-0.023-.094-0.046-0.187-0.07-0.281h-0.07v-0.21h-0.07c-0.024-.1-0.047-0.188-0.07-0.282h-0.071v-0.21h-0.07c-0.023-.1-0.047-0.188-0.07-0.282h-0.07v-0.211h-0.07v-0.139h-0.071v-0.212h-0.069c-0.024-.093-0.047-0.186-0.071-0.28h-0.07v-0.212H208.2c-0.023-.093-0.047-0.187-0.07-0.28h-0.07v-0.211h-0.07l-0.071-.281h-0.07V109.1h-0.07c-0.023-.094-0.047-0.188-0.07-0.282h-0.07v-0.21h-0.071v-0.141H207.5v-0.212h-0.071c-0.023-.116-0.046-0.233-0.07-0.35h-0.07c-0.023-.093-0.047-0.187-0.07-0.281h-0.07v-0.211h-0.07v-0.14h-0.071v-0.211h-0.07v-0.141h-0.07v-0.209H206.8v-0.141h-0.07v-0.212H206.66l-0.069-.28H206.52c-0.023-.117-0.046-0.234-0.07-0.351h-0.07v-0.212h-0.07v-0.14h-0.07v-0.21h-0.071c-0.023-.1-0.046-0.187-0.07-0.28h-0.07v-0.212h-0.07v-0.141h-0.07v-0.21h-0.07c-0.024-.095-0.047-0.188-0.071-0.282h-0.07v-0.21h-0.07v-0.142h-0.07v-0.21h-0.07c-0.023-.094-0.047-0.187-0.07-0.281h-0.07v-0.21h-0.071c-0.023-.094-0.046-0.188-0.07-0.282h-0.07V102.5h-0.07c-0.023-.095-0.047-0.188-0.07-0.283h-0.071v-0.21h-0.07l-0.069-.282H204.7v-0.209h-0.07c-0.023-.094-0.047-0.188-0.07-0.283h-0.07v-0.21h-0.07v-0.141h-0.071c-0.023-.093-0.046-0.187-0.07-0.279h-0.07v-0.213h-0.07l-0.07-.279h-0.071V99.9h-0.07c-0.023-.092-0.046-0.187-0.07-0.281h-0.07V99.406h-0.07c-0.023-.092-0.047-0.187-0.07-0.28h-0.07V98.914H203.5V98.775h-0.071V98.562h-0.07l-0.07-.28h-0.07V98.071h-0.07c-0.024-.093-0.047-0.187-0.07-0.28h-0.071V97.58h-0.07V97.44h-0.07V97.229H202.8c-0.023-.094-0.047-0.189-0.07-0.281h-0.07V96.737h-0.071V96.6h-0.07v-0.21h-0.07c-0.023-.094-0.047-0.188-0.07-0.283h-0.07v-0.21h-0.07c-0.024-.094-0.047-0.187-0.07-0.282H202.1c-0.023-.117-0.047-0.234-0.07-0.351h-0.07v-0.21h-0.07c-0.023-.094-0.047-0.188-0.07-0.282h-0.07v-0.21h-0.071v-0.14h-0.07c-0.023-.094-0.046-0.187-0.07-0.28h-0.07V93.927H201.4l-0.07-.28h-0.071V93.434h-0.07c-0.023-.093-0.047-0.187-0.07-0.279h-0.07V92.944h-0.07V92.8h-0.07V92.592h-0.07l-0.071-.28H200.7V92.1h-0.07V91.96h-0.07c-0.023-.117-0.047-0.235-0.07-0.352h-0.071V91.4h-0.07V91.258h-0.07V91.047h-0.07V90.907h-0.07V90.7h-0.07c-0.024-.095-0.047-0.189-0.07-0.281h-0.07V90.2h-0.071V90.062h-0.07V89.853h-0.07V89.711h-0.07V89.5h-0.07V89.361H199.5V89.15h-0.07V89.01h-0.07V88.8h-0.07v-0.14h-0.07v-0.21h-0.07V88.307h-0.07c-0.024-.116-0.047-0.234-0.071-0.35h-0.07V87.745h-0.07V87.605H198.8V87.394h-0.07V87.253h-0.07v-0.21h-0.07V86.9h-0.071V86.692h-0.07c-0.023-.094-0.047-0.189-0.07-0.282h-0.07V86.2h-0.07V86.059h-0.07V85.848H198.1c-0.023-.093-0.046-0.187-0.07-0.28h-0.07V85.356h-0.07V85.217h-0.07V85h-0.07c-0.024-.093-0.047-0.187-0.071-0.279h-0.07V84.513h-0.07v-0.14h-0.07c-0.023-.095-0.047-0.188-0.07-0.281h-0.07V83.881h-0.07c-0.024-.094-0.047-0.187-0.071-0.282h-0.07v-0.21h-0.07v-0.14h-0.07V83.037h-0.07V82.9h-0.07V82.687h-0.071V82.547H196.7V82.336h-0.07c-0.023-.094-0.047-0.186-0.07-0.281h-0.07q-0.21-.634-0.421-1.266H196c-0.024-.092-0.047-0.186-0.07-0.279h-0.071V80.3h-0.07V80.158h-0.07V79.947h-0.07c-0.024-.093-0.047-0.187-0.07-0.28h-0.071l-0.42-1.265V77.559a6.653,6.653,0,0,1,0-1.967,1.252,1.252,0,0,0,.21-0.28h0.14l0.07-.141,0.351-.071V75.03a7.626,7.626,0,0,1,1.9.069h0.35V75.17h0.141v0.07Z" transform="translate(-195 -75)"/>
  <path id="waterbel" class="cls-2" d="M324.6,104.137q0.175,0.809.35,1.614h0.07c0.047,0.3.094,0.609,0.14,0.912h0.07v0.281c0.114,0.331.237,0.792,0.35,1.121q0.141,0.7.281,1.4c0.5,1.442.723,3.116,1.19,4.559v0.351h0.07v0.28h0.07v0.282h0.07v0.28h0.07v0.28c0.615,1.8.86,3.886,1.471,5.682v0.28h0.07v0.281h0.07v0.349h0.07v0.281h0.071v0.282h0.069v0.28h0.071c0.023,0.186.046,0.375,0.07,0.561h0.07v0.281q0.279,1.017.56,2.033h0.07a4.952,4.952,0,0,1,.35-1.4c0.023-.185.047-0.373,0.07-0.56h0.07v-0.28h0.07v-0.281h0.07v-0.281h0.07v-0.28h0.07v-0.211h0.07l0.141-.842c0.324-.944.508-2.088,0.84-3.015v-0.281h0.07V118.1h0.07v-0.28h0.07v-0.28c0.42-1.226.636-2.636,1.051-3.858V113.4h0.07v-0.282h0.07v-0.279h0.07v-0.281c0.357-1.045.555-2.25,0.911-3.3,0.046-.28.093-0.562,0.139-0.841,0.2-.593.362-1.306,0.561-1.894,0.023-.187.047-0.373,0.07-0.561a15.619,15.619,0,0,0,.49-1.825h1.751a6.136,6.136,0,0,0,.28.982c0.024,0.189.047,0.375,0.07,0.562h0.07v0.281h0.07v0.28h0.07v0.281h0.07v0.209h0.071v0.282h0.07c0.046,0.281.093,0.56,0.14,0.842,0.324,0.945.508,2.088,0.84,3.016v0.28c0.146,0.422.276,0.979,0.42,1.4,0.024,0.188.047,0.374,0.07,0.56,0.719,2.1,1.039,4.5,1.751,6.593v0.281h0.07v0.282h0.07v0.279h0.07v0.281c0.357,1.045.559,2.259,0.911,3.3v0.28h0.07v0.281h0.07v0.281h0.07v0.281h0.07a1.349,1.349,0,0,0,.14.56v-0.069a1.459,1.459,0,0,0,.14-0.561h0.07V124.9h0.07v-0.28h0.07v-0.281h0.07v-0.28c0.368-1.071.545-2.366,0.911-3.436,0.047-.28.093-0.562,0.14-0.842,0.525-1.532.741-3.313,1.261-4.839l0.21-1.193c0.33-.967.512-2.117,0.84-3.086l0.141-.911c0.329-.969.512-2.119,0.84-3.087,0.023-.21.047-0.421,0.07-0.631a17.071,17.071,0,0,0,.49-1.824,13,13,0,0,1,2.8-.071c-0.047.281-.094,0.563-0.14,0.844h-0.07q-0.036.279-.07,0.56h-0.071v0.21h-0.069l-0.141.772h-0.07q-0.069.42-.14,0.842c-0.373,1.033-.61,2.262-0.98,3.3q-0.036.28-.07,0.561h-0.07v0.211H348.9q-0.07.385-.14,0.77h-0.071v0.282h-0.07l-0.069.561c-0.553,1.533-.853,3.3-1.4,4.84q-0.21.912-.421,1.822h-0.069c-0.024.188-.047,0.375-0.071,0.563h-0.07v0.209h-0.07c-0.046.256-.093,0.514-0.14,0.772h-0.07v0.28h-0.07v0.281c-0.4,1.12-.651,2.454-1.05,3.577l-0.281,1.333h-0.07v0.21H344.7q-0.069.385-.14,0.772h-0.07q-0.034.279-.07,0.56h-0.07c-0.093.422-.187,0.841-0.28,1.262h-2.662l-4.9-19.777h-0.14q-0.071.384-.14,0.77h-0.071V110.8h-0.069v0.281h-0.071v0.281h-0.07v0.28h-0.07v0.21h-0.07c-0.046.281-.093,0.563-0.14,0.842-0.225.654-.4,1.46-0.63,2.105q-0.14.7-.28,1.4c-0.51,1.409-.754,3.078-1.261,4.489q-0.139.7-.28,1.4c-0.353.983-.558,2.175-0.911,3.158v0.281h-0.07v0.279h-0.07v0.281h-0.07v0.28h-0.07v0.21h-0.07v0.281h-0.07v0.28h-0.07v0.281h-0.07c-0.023.187-.047,0.376-0.07,0.562H331.6q-0.175.771-.35,1.542h-2.662c-0.07-.326-0.14-0.652-0.21-0.981h-0.07c-0.023-.187-0.047-0.375-0.07-0.561h-0.07v-0.211H328.1c-0.047-.257-0.094-0.515-0.14-0.77h-0.07c-0.047-.281-0.093-0.563-0.14-0.843-0.374-1.032-.609-2.262-0.981-3.3q-0.035-.281-0.07-0.561h-0.07v-0.212h-0.07c-0.047-.255-0.093-0.513-0.14-0.77h-0.07v-0.281h-0.07c-0.047-.257-0.093-0.513-0.14-0.77h-0.07c-0.024-.188-0.047-0.375-0.07-0.563h-0.07V119.5h-0.07c-0.047-.257-0.094-0.513-0.14-0.772h-0.07q-0.071-.384-0.14-0.771h-0.07c-0.024-.187-0.047-0.374-0.071-0.561H325.3v-0.21h-0.07q-0.069-.385-0.14-0.771h-0.07q-0.069-.387-0.14-0.772h-0.07c-0.047-.28-0.093-0.561-0.14-0.841-0.494-1.375-.785-2.962-1.261-4.349-0.093-.445-0.187-0.887-0.28-1.334-0.369-1.033-.612-2.261-0.981-3.3v-0.281h-0.069v-0.28h-0.07c-0.07-.329-0.141-0.655-0.211-0.983h-0.069v-0.07H321.8a1.562,1.562,0,0,1,.771-0.071H324.6Zm38.312,0a2.118,2.118,0,0,0,.21.492v0.211h0.07v0.141h0.07c0.046,0.209.093,0.42,0.14,0.629h0.07v0.141h0.07c0.023,0.141.047,0.281,0.07,0.421h0.07v0.14h0.07c0.047,0.211.094,0.42,0.14,0.632h0.07v0.14h0.07c0.024,0.141.047,0.281,0.07,0.421h0.07v0.14h0.07v0.211h0.07v0.209c0.579,1.321,1.036,2.821,1.611,4.138,0.047,0.213.094,0.422,0.14,0.633h0.07v0.139h0.07c0.024,0.14.047,0.281,0.07,0.422h0.07v0.139h0.07v0.211h0.071c0.023,0.141.046,0.28,0.07,0.42,0.845,1.934,1.467,4.1,2.311,6.033,0.023,0.141.047,0.28,0.07,0.421h0.07v0.141h0.07c0.047,0.209.094,0.42,0.14,0.629h0.07v0.141h0.07c0.024,0.14.047,0.281,0.07,0.421h0.07v0.139h0.07l0.141,0.633h0.069v0.14h0.07c0.024,0.14.047,0.281,0.071,0.421h0.07v0.14h0.07v0.21h0.07l0.069,0.421h0.071V124.2h0.07c0.023,0.139.046,0.279,0.07,0.42h0.07v0.141h0.07c0.047,0.21.093,0.421,0.14,0.631h0.07v0.141h0.07c0.023,0.14.047,0.279,0.07,0.42h0.07v0.14h0.07c0.024,0.141.047,0.28,0.07,0.421h0.07v0.211h0.07v0.139h0.07v0.211h0.07v0.21h0.07v0.14h0.07c0.047,0.212.094,0.422,0.14,0.632h0.07V128.2h0.071c0.023,0.138.046,0.279,0.07,0.42h0.07v0.138h0.07v0.212a1.8,1.8,0,0,1,.21.56h-2.8q-0.1-.384-0.21-0.772h-0.07v-0.138h-0.07v-0.211h-0.07V128.2h-0.07v-0.212h-0.07v-0.211H368.8v-0.139h-0.07q-0.071-.318-0.14-0.631c-0.122-.307-0.3-0.677-0.421-0.983-0.023-.14-0.046-0.28-0.07-0.421h-0.07v-0.14h-0.07q-0.069-.315-0.14-0.633a5.506,5.506,0,0,1-.49-1.4H355.487a2.527,2.527,0,0,1-.28.772c-0.023.139-.047,0.279-0.07,0.42h-0.07v0.141H355v0.21h-0.07v0.211h-0.07v0.21h-0.07v0.21h-0.07v0.141h-0.07c-0.023.14-.047,0.28-0.07,0.42h-0.07q-0.071.315-.14,0.631H354.3v0.141h-0.07v0.209h-0.07l-0.141.632h-0.07v0.141h-0.07c-0.046.211-.093,0.42-0.139,0.631a3.675,3.675,0,0,0-.351.981h-2.8q0.1-.384.21-0.772h0.07c0.023-.138.047-0.279,0.07-0.42h0.07V128.2h0.07c0.047-.212.093-0.423,0.14-0.633h0.07v-0.141h0.07c0.023-.14.047-0.281,0.07-0.419h0.07v-0.142h0.07c0.023-.139.047-0.281,0.07-0.421h0.07v-0.209h0.07v-0.141h0.07c0.024-.14.047-0.281,0.07-0.42h0.07v-0.14h0.071c0.046-.211.093-0.421,0.14-0.633h0.07v-0.139h0.07l0.069-.422h0.071V124.2h0.07c0.023-.141.046-0.281,0.07-0.421h0.07v-0.141h0.07c0.047-.21.093-0.42,0.14-0.631h0.07v-0.14h0.07c0.023-.14.047-0.28,0.07-0.422h0.07V122.3h0.07v-0.212h0.07c0.024-.139.047-0.279,0.07-0.42h0.07v-0.14h0.07c0.023-.141.047-0.28,0.07-0.421h0.07v-0.14h0.071l0.139-.63h0.07V120.2h0.07c0.024-.141.047-0.282,0.071-0.421h0.07v-0.141h0.07c0.046-.211.093-0.42,0.14-0.631,0.736-1.682,1.3-3.578,2.031-5.26,0.047-.211.093-0.421,0.14-0.632h0.07v-0.14h0.07c0.023-.139.047-0.28,0.07-0.42h0.07v-0.139h0.07V112.2h0.07c0.024-.14.047-0.279,0.07-0.419h0.07v-0.141h0.07c0.024-.141.047-0.28,0.071-0.421h0.069v-0.14h0.07c0.024-.14.047-0.281,0.071-0.421h0.069v-0.21c0.576-1.319,1.036-2.818,1.612-4.139q0.35-1.053.7-2.1a1.429,1.429,0,0,1,.77-0.071h2.312Zm26.9,2.386H382.1v23h-2.521v-23h-7.7v-2.315a6.46,6.46,0,0,1,1.751-.071h16.109A9.547,9.547,0,0,1,389.807,106.523Zm3.432-2.386h16.249v2.386H395.76v9.258H407.6V118.1H395.76v9.047h13.728v2.385H393.239v-25.39Zm21.292,0h7.844a15,15,0,0,1,3.572.141h0.42v0.07h0.28v0.07h0.281v0.071l0.49,0.071v0.069l0.35,0.071v0.069h0.14v0.071h0.21v0.07h0.14v0.071h0.14c0.024,0.045.047,0.092,0.07,0.138l0.421,0.142c0.023,0.047.046,0.093,0.07,0.14h0.14c0.047,0.071.093,0.14,0.14,0.209h0.14c0.093,0.119.187,0.235,0.28,0.352h0.14c0.023,0.047.047,0.093,0.07,0.139l0.28,0.211v0.141q0.176,0.141.351,0.279v0.142l0.21,0.14v0.14c0.047,0.025.093,0.047,0.14,0.071,0.047,0.14.093,0.28,0.14,0.42l0.14,0.07v0.141h0.07V108h0.07v0.21h0.07v0.14h0.07c0.024,0.117.047,0.233,0.07,0.35h0.07c0.023,0.164.047,0.329,0.07,0.491h0.07v0.281h0.07v0.282h0.07c0.024,0.35.047,0.7,0.07,1.051h0.07a3.352,3.352,0,0,1-.07,1.333v0.7h-0.07v0.35h-0.07v0.35h-0.07v0.28h-0.07v0.211h-0.07c-0.047.21-.093,0.422-0.14,0.631h-0.07c-0.047.141-.093,0.282-0.14,0.422h-0.07v0.14h-0.07l-0.14.421-0.14.071v0.139l-0.14.071v0.139l-0.28.211v0.141l-0.561.49c-0.093.118-.187,0.233-0.28,0.35h-0.14l-0.14.211H429.1l-0.07.141-0.21.07v0.07l-0.28.07c-0.024.046-.047,0.094-0.071,0.14l-1.26.491v0.14a3.065,3.065,0,0,1,.56,1.052h0.07v0.141c0.047,0.023.094,0.046,0.14,0.07,0.047,0.14.094,0.281,0.14,0.422h0.07v0.139h0.07v0.14h0.07v0.141h0.07v0.14h0.07c0.024,0.093.047,0.187,0.071,0.28l0.14,0.071v0.14h0.07v0.14h0.07v0.14h0.07v0.141h0.07v0.139h0.07v0.141h0.07v0.14h0.07V122.3h0.07v0.139c0.047,0.026.093,0.048,0.14,0.071v0.141h0.07v0.14h0.07v0.14h0.07v0.14h0.07v0.141h0.07v0.139h0.07V123.5h0.07v0.14c0.047,0.023.094,0.046,0.14,0.071v0.14h0.07v0.14h0.07v0.14h0.07v0.141h0.07v0.139h0.071v0.141c0.186,0.3.373,0.607,0.56,0.912v0.14h0.07v0.141h0.07v0.14h0.07v0.14h0.07v0.14h0.07V126.3c0.047,0.026.094,0.049,0.14,0.071v0.141h0.07v0.14h0.07v0.14h0.07v0.141h0.07v0.14h0.07v0.14h0.07v0.14h0.07c0.024,0.094.047,0.188,0.07,0.282,0.047,0.024.094,0.046,0.14,0.07v0.14h0.071v0.14h0.07v0.141h0.07v0.139h0.07v0.141h0.07c0.046,0.14.093,0.281,0.14,0.42,0.046,0.024.093,0.049,0.14,0.071v0.14c0.084,0.15.2,0.319,0.28,0.49h-3.082a2.291,2.291,0,0,0-.35-0.7c-0.047-.139-0.093-0.28-0.14-0.42h-0.07c-0.023-.094-0.047-0.187-0.07-0.28h-0.07c-0.024-.095-0.047-0.188-0.07-0.281H429.1v-0.14h-0.07v-0.141h-0.07v-0.141h-0.07v-0.14h-0.07v-0.141h-0.07V127h-0.07v-0.142h-0.07v-0.139h-0.07v-0.142h-0.071v-0.14H428.4V126.3h-0.07v-0.139h-0.07v-0.14h-0.07v-0.14h-0.07v-0.14h-0.07V125.6h-0.07c-0.046-.14-0.093-0.28-0.14-0.42h-0.07c-0.047-.14-0.093-0.282-0.14-0.421h-0.07c-0.023-.095-0.047-0.187-0.07-0.282h-0.07c-0.024-.092-0.047-0.185-0.07-0.279h-0.07v-0.141h-0.07v-0.14h-0.07v-0.14h-0.07v-0.141H427V123.5h-0.07l-0.491-1.123-0.14-.069c-0.046-.141-0.093-0.281-0.14-0.422h-0.07c-0.023-.093-0.047-0.186-0.07-0.28h-0.07c-0.023-.093-0.047-0.187-0.07-0.28h-0.07c-0.023-.094-0.047-0.187-0.07-0.281h-0.07V120.9H425.6v-0.138h-0.07v-0.141h-0.07V120.48h-0.07c-0.047-.139-0.094-0.28-0.14-0.421h-0.07c-0.047-.139-0.094-0.28-0.14-0.421h-0.071V119.5a2.6,2.6,0,0,1-.35-0.7h-7.564v10.73h-2.521v-25.39Zm23.253,0h8.264a14.77,14.77,0,0,1,4.273.352c0.257,0.048.513,0.093,0.77,0.14,0.514,0.259,1.028.515,1.541,0.772,0.023,0.047.047,0.093,0.07,0.14q0.105,0.036.21,0.069l0.28,0.352h0.14c0.071,0.093.141,0.188,0.211,0.28h0.07v0.14c0.093,0.071.186,0.141,0.28,0.21v0.14c0.07,0.049.14,0.095,0.21,0.142v0.14l0.14,0.07c0.023,0.095.047,0.188,0.07,0.281h0.07v0.14h0.07c0.047,0.14.094,0.281,0.14,0.421h0.07q0.07,0.315.14,0.63h0.07v0.281a6.482,6.482,0,0,1,.21,3.087v0.422h-0.069v0.279h-0.071v0.211h-0.07v0.21H454.8v0.21h-0.07V113.4h-0.07v0.21h-0.07v0.14h-0.07v0.141l-0.14.07c-0.023.094-.047,0.187-0.07,0.279-0.047.025-.093,0.048-0.14,0.07v0.142l-0.35.28v0.142c-0.117.092-.234,0.186-0.35,0.279-0.024.047-.047,0.093-0.07,0.141h-0.141l-0.21.28h-0.14c-0.023.046-.047,0.093-0.07,0.141H452.7c-0.023.046-.047,0.092-0.07,0.139h-0.14v0.071h-0.14v0.069h-0.14v0.07l-1.471.491h0.14a1.406,1.406,0,0,0,.56.141v0.07l0.421,0.07v0.07H452v0.069h0.21v0.071h0.14v0.069h0.14v0.072h0.14c0.023,0.047.047,0.093,0.07,0.14h0.14v0.07l0.21,0.07c0.024,0.047.047,0.094,0.07,0.141h0.14l0.631,0.7c0.116,0.094.233,0.188,0.35,0.28v0.14l0.21,0.142c0.023,0.094.047,0.186,0.07,0.28l0.14,0.07c0.024,0.094.047,0.187,0.07,0.28h0.07v0.14h0.07c0.047,0.141.094,0.282,0.141,0.421h0.069c0.047,0.212.094,0.421,0.14,0.632h0.071v0.28h0.07v0.351h0.07v0.491h0.07a5.31,5.31,0,0,1-.07,1.683q-0.036.422-.07,0.841h-0.07c-0.024.188-.047,0.375-0.071,0.561h-0.069c-0.024.141-.047,0.282-0.071,0.422h-0.069c-0.024.116-.047,0.234-0.071,0.351h-0.07c-0.023.093-.046,0.187-0.07,0.28h-0.07c-0.023.093-.046,0.187-0.07,0.281l-0.14.068c-0.023.1-.047,0.189-0.07,0.281l-0.14.071v0.14l-0.21.141a6.641,6.641,0,0,1-3.432,2.313c-0.21.025-.42,0.048-0.63,0.071a15.574,15.574,0,0,1-3.923.21h-8.334v-25.39Zm39.292,0v2.386H463.348v9.258h11.837V118.1H463.348v9.047h13.728v2.385H460.757V104.208a5.944,5.944,0,0,1,1.611-.071h14.708Zm5.043,0h2.451a8,8,0,0,1,.07,2.175v20.83h13.728v2.385H482.119v-25.39Zm-65.067,2.386v9.959h5.953a10.868,10.868,0,0,0,2.732-.14h0.35v-0.07l0.631-.141v-0.07l0.42-.139v-0.071h0.14v-0.07c0.07-.023.14-0.047,0.21-0.069,0.023-.048.047-0.095,0.07-0.141h0.14c0.14-.165.28-0.328,0.42-0.491l0.35-.28v-0.142c0.047-.022.094-0.046,0.141-0.07v-0.139c0.046-.024.093-0.046,0.14-0.071,0.023-.093.046-0.186,0.07-0.28h0.07c0.023-.093.046-0.187,0.07-0.282h0.07v-0.209h0.07v-0.141h0.07c0.023-.163.046-0.327,0.07-0.491h0.07v-0.35a5.323,5.323,0,0,0,.14-1.894h-0.07V110.24h-0.07v-0.28h-0.07v-0.281h-0.07v-0.211H429.1v-0.14h-0.07v-0.211h-0.07c-0.024-.092-0.047-0.186-0.07-0.28h-0.07c-0.024-.092-0.047-0.186-0.07-0.281-0.047-.022-0.094-0.046-0.14-0.069v-0.141c-0.07-.047-0.141-0.092-0.211-0.14v-0.141c-0.14-.115-0.28-0.233-0.42-0.35-0.046-.07-0.093-0.141-0.14-0.21H427.7l-0.14-.21h-0.14l-0.07-.141-0.28-.07v-0.07l-0.281-.07v-0.07l-0.35-.071v-0.071h-0.28a10.341,10.341,0,0,0-2.941-.209h-6.164Zm23.253,0v8.838h6.163a10.916,10.916,0,0,0,3.223-.281c0.163-.023.326-0.046,0.49-0.071V114.94c0.093-.024.186-0.047,0.28-0.069V114.8h0.21c0.023-.048.047-0.093,0.07-0.142,0.093-.022.187-0.046,0.28-0.07,0.024-.045.047-0.093,0.07-0.139h0.14l0.28-.351,0.351-.282v-0.139l0.14-.07c0.023-.071.046-0.141,0.07-0.21h0.07v-0.141h0.07v-0.141h0.07c0.023-.116.047-0.233,0.07-0.35h0.07c0.023-.187.047-0.374,0.07-0.562h0.07v-0.419h0.07a5.513,5.513,0,0,0-.14-1.964v-0.352h-0.07v-0.21h-0.07v-0.211h-0.07c-0.024-.092-0.047-0.186-0.07-0.28h-0.07l-0.07-.28-0.14-.07v-0.141c-0.07-.048-0.14-0.093-0.211-0.14V108h-0.069l-0.211-.281H451.3l-0.21-.28c-0.093-.025-0.187-0.047-0.28-0.07-0.023-.047-0.047-0.093-0.07-0.14H450.6v-0.071l-0.28-.07v-0.07l-0.421-.07a11.224,11.224,0,0,0-3.852-.421h-5.743ZM356.4,121.041h10.015l-0.21-.77h-0.07V120.13h-0.07v-0.21h-0.07v-0.212h-0.07V119.5h-0.07v-0.21h-0.07v-0.14h-0.07q-0.069-.316-0.14-0.632c-0.123-.305-0.3-0.675-0.42-0.981-0.024-.141-0.047-0.282-0.07-0.423h-0.07v-0.14h-0.07c-0.024-.139-0.047-0.279-0.07-0.42-0.123-.305-0.3-0.675-0.421-0.981-0.046-.21-0.093-0.421-0.14-0.631-0.593-1.355-1.019-2.923-1.611-4.279v-0.21h-0.07V110.24h-0.07v-0.211h-0.07V109.82h-0.07v-0.141h-0.07c-0.047-.211-0.093-0.421-0.14-0.632-0.122-.3-0.3-0.675-0.42-0.982v-0.209h-0.07v-0.211h-0.07v-0.14h-0.07V107.3h-0.07c-0.023-.141-0.047-0.281-0.07-0.421h-0.07v0.14H361.3c-0.024.14-.047,0.281-0.07,0.421h-0.07v0.21H361.09v0.141h-0.069V108h-0.07v0.21H360.88c-0.023.14-.046,0.281-0.07,0.421h-0.07v0.14h-0.07c-0.023.141-.047,0.28-0.07,0.42h-0.07c-0.023.141-.046,0.281-0.07,0.421h-0.07v0.142h-0.07v0.21h-0.07v0.21h-0.07v0.211h-0.07v0.21h-0.07v0.21c-0.594,1.356-1.019,2.924-1.611,4.279-0.023.14-.047,0.281-0.07,0.42h-0.07q-0.07.318-.14,0.631h-0.07v0.141h-0.07v0.21h-0.07q-0.071.316-.14,0.63h-0.07v0.141h-0.07c-0.024.141-.047,0.282-0.07,0.422h-0.071c-0.046.211-.093,0.42-0.14,0.631h-0.07v0.14h-0.069v0.211h-0.071c-0.046.211-.093,0.42-0.14,0.631h-0.07v0.139h-0.07c-0.047.211-.093,0.423-0.14,0.632A3.462,3.462,0,0,0,356.4,121.041Zm83.907-3.3v9.4h5.533c2.19,0,3.772.012,5.113-.842l0.28-.068,0.14-.211h0.14l0.141-.211,0.49-.42v-0.14c0.046-.024.093-0.047,0.14-0.07v-0.14l0.14-.071c0.047-.142.093-0.281,0.14-0.421h0.07v-0.141h0.07q0.139-.63.28-1.261a5.229,5.229,0,0,0-.14-1.824v-0.351h-0.07v-0.209H452.7V120.48h-0.07v-0.139h-0.07V120.13h-0.07v-0.141h-0.07v-0.14l-0.14-.07c-0.024-.093-0.047-0.187-0.07-0.281-0.093-.071-0.187-0.14-0.28-0.21v-0.14l-0.28-.211v-0.069h-0.141l-0.21-.282c-0.093-.022-0.186-0.045-0.28-0.07-0.023-.046-0.047-0.093-0.07-0.14l-0.63-.21V118.1h-0.14v-0.07h-0.21v-0.07h-0.28a11.151,11.151,0,0,0-3.082-.21h-6.3Z" transform="translate(-195 -75)"/>
  <path id="systems" class="cls-3" d="M328.374,140.549a0.558,0.558,0,0,0,.28.349v0.07h-0.07a2.108,2.108,0,0,1-.909.772,2.516,2.516,0,0,0-2.519-.982c-0.256.024-.513,0.048-0.769,0.07v0.07c-0.094.025-.187,0.047-0.28,0.07v0.071l-0.28.07c-0.047.07-.093,0.14-0.14,0.209l-0.28.211a4.63,4.63,0,0,0-.419,2.592v1.261h0.07v0.35h0.07l0.069,0.421h0.07c0.024,0.092.047,0.186,0.07,0.279l0.21,0.14,0.07,0.211h0.14l0.14,0.21,0.42,0.14v0.07l0.559,0.07a2.908,2.908,0,0,0,2.939-.909h0.07v0.068a2.554,2.554,0,0,1,.349.351,0.645,0.645,0,0,1,.42.42h-0.07c-0.616,1.083-2.82,1.657-4.407,1.121l-0.49-.07c-1.59-.7-1.958-1.993-1.958-4.272l0.069-1.752c0.584-1.917,1.486-2.678,3.988-2.662l1.119,0.14v0.069l0.42,0.071v0.07c0.093,0.022.186,0.047,0.28,0.07v0.07h0.14c0.023,0.046.046,0.093,0.07,0.14h0.139A0.924,0.924,0,0,0,328.374,140.549Zm13.5,0.769a0.6,0.6,0,0,1-.14.282h-0.07v0.14H341.6c-0.023.092-.046,0.186-0.07,0.279h-0.07v0.211h-0.07v0.279h-0.07v1.121a5.46,5.46,0,0,0,.42,2.942c0.07,0.048.14,0.094,0.21,0.141a2.437,2.437,0,0,0,1.959.631h0.559a4.88,4.88,0,0,0,1.19-.491c0.046-.07.093-0.14,0.139-0.211h0.14c0.071-.092.141-0.187,0.21-0.278h0.07v0.068a1.683,1.683,0,0,1,.7.841l-0.42.35c-0.023.047-.046,0.093-0.07,0.14h-0.14c-0.046.07-.093,0.142-0.14,0.21H346v0.07l-0.28.071v0.07h-0.21v0.07h-0.14v0.07c-0.187.023-.373,0.045-0.56,0.07v0.069l-1.469.07v-0.07h-0.559v-0.069h-0.35v-0.07h-0.21v-0.07h-0.21v-0.07h-0.21v-0.07h-0.14l-0.07-.141c-0.093-.023-0.186-0.047-0.28-0.068-0.093-.119-0.186-0.235-0.28-0.352l-0.349-.28v-0.14l-0.14-.07a6.032,6.032,0,0,1-.49-3.081,6.685,6.685,0,0,1,.14-1.822v-0.352h0.07V141.6h0.07v-0.141h0.07v-0.21h0.07v-0.14l0.14-.07V140.9c0.046-.022.093-0.046,0.14-0.07v-0.14c0.046-.022.093-0.047,0.14-0.07,0.093-.117.186-0.233,0.279-0.351h0.14c0.024-.045.047-0.092,0.07-0.139h0.14c0.024-.047.047-0.093,0.07-0.14h0.14v-0.07h0.21v-0.07h0.14v-0.071h0.28v-0.069h0.279v-0.071h0.42v-0.069a7.015,7.015,0,0,1,2.169.14v0.069h0.21v0.071h0.14v0.07c0.116,0.022.233,0.047,0.349,0.07v0.07l0.21,0.07,0.07,0.139h0.14c0.163,0.189.327,0.374,0.49,0.561h0.07v0.211l-0.28.21v0.069h-0.14v0.07a1.267,1.267,0,0,1-.489.352,2.783,2.783,0,0,0-3.009-.912h-0.279v0.07c-0.117.025-.234,0.047-0.35,0.07-0.024.047-.047,0.094-0.07,0.141h-0.14v0.07A0.565,0.565,0,0,1,341.876,141.318Zm15.111,3.292a2.489,2.489,0,0,0,1.119,2.313c0.023,0.047.047,0.093,0.07,0.14h0.14v0.07l0.7,0.14v0.071a4.7,4.7,0,0,0,1.538-.071l0.98-.49v-0.07a0.792,0.792,0,0,1,.49-0.281,3.784,3.784,0,0,1,.7.841q-0.1.069-.21,0.141v0.068h-0.14c-0.046.071-.093,0.141-0.139,0.211h-0.14l-0.07.14h-0.14c-0.023.047-.047,0.093-0.07,0.14h-0.14v0.07h-0.14v0.071h-0.21v0.07h-0.14v0.07l-1.189.279a1.518,1.518,0,0,1-.7-0.07h-0.559v-0.069h-0.35v-0.07h-0.21v-0.07h-0.21v-0.07h-0.14v-0.07l-0.419-.141-0.071-.14H357.2l-0.42-.489q-0.1-.072-0.21-0.141v-0.14l-0.14-.07c-0.046-.14-0.093-0.28-0.14-0.421h-0.07v-0.14h-0.07v-0.209a7.651,7.651,0,0,1,.28-5.114l0.14-.07V140.9c0.07-.046.14-0.092,0.21-0.14v-0.14l0.28-.21v-0.071h0.14l0.139-.209h0.141l0.07-.14c0.093-.023.186-0.048,0.279-0.07v-0.07h0.21a3.712,3.712,0,0,1,2.448-.14l0.49,0.069v0.071l0.28,0.07v0.07h0.14c0.023,0.047.047,0.093,0.07,0.14h0.14l0.28,0.35c0.97,0.972,1.135,2.122,1.119,4.062a6.843,6.843,0,0,1-1.889.07h-4.127Zm38.336-5.042,1.749,0.069v0.071h0.21v0.069h0.21v0.071h0.21v0.07h0.14v0.07h0.14v0.07l0.209,0.07,0.07,0.139h0.14l0.07,0.141,0.35,0.28v0.14c0.047,0.024.093,0.048,0.14,0.07v0.141l0.14,0.07v0.14h0.07v0.139h0.07V141.6h0.07v0.14h0.07v0.279h0.07v0.28h0.069v0.492h0.071v1.472c0,2.524-.768,3.629-2.729,4.2l-1.259.07v-0.07h-0.56v-0.069h-0.279v-0.07h-0.21v-0.07h-0.21v-0.07c-0.093-.024-0.187-0.048-0.28-0.07v-0.071h-0.14c-0.023-.047-0.047-0.093-0.07-0.138-1.148-.778-1.469-1.859-1.469-3.784a6.667,6.667,0,0,1,.21-2.1V141.74h0.07V141.6h0.07v-0.212h0.07c0.023-.093.046-0.185,0.07-0.279,0.046-.024.093-0.047,0.14-0.07V140.9c0.046-.022.093-0.046,0.14-0.07v-0.14c0.046-.022.093-0.047,0.14-0.07l0.279-.351h0.14c0.024-.045.047-0.092,0.07-0.139h0.14l0.07-.14h0.14v-0.07h0.14v-0.07h0.21v-0.071h0.21v-0.069h0.21v-0.071h0.419v-0.069Zm28.753,0a5.613,5.613,0,0,1,3.148.56c0.023,0.047.046,0.094,0.07,0.139h0.14c0.163,0.189.326,0.374,0.489,0.561h0.07v0.211l-0.21.14v0.07h-0.14v0.069a1.507,1.507,0,0,1-.559.422,2.784,2.784,0,0,0-3.008-.912c-0.164.024-.327,0.048-0.49,0.07v0.07l-0.28.071-0.14.21c-0.716.514-.839,1.373-0.839,2.593v1.119h0.07v0.631h0.069v0.281h0.07v0.209h0.071v0.141h0.07v0.141c0.046,0.022.093,0.044,0.139,0.068v0.14c0.047,0.023.094,0.048,0.14,0.07l0.21,0.281h0.14c0.023,0.047.047,0.093,0.07,0.14a4.665,4.665,0,0,0,2.169.281,4.872,4.872,0,0,0,1.189-.491l0.14-.211h0.14c0.07-.092.14-0.187,0.21-0.278h0.07v0.068a1.681,1.681,0,0,1,.7.841l-0.42.35c-0.023.047-.046,0.093-0.07,0.14h-0.139c-0.024.047-.047,0.093-0.07,0.142-0.07.021-.14,0.045-0.21,0.068v0.07h-0.14v0.071H426.8v0.07h-0.21v0.07h-0.21v0.07h-0.21v0.07H425.9a3.531,3.531,0,0,1-1.47.139v-0.07h-0.559v-0.069h-0.35v-0.07h-0.21v-0.07H423.1v-0.07h-0.21v-0.07l-0.279-.071c-0.024-.047-0.047-0.093-0.071-0.138H422.4l-0.28-.352-0.42-.35c-0.023-.094-0.047-0.187-0.07-0.28h-0.07c-0.023-.093-0.046-0.188-0.07-0.281h-0.07a8.849,8.849,0,0,1-.28-3.151,4.772,4.772,0,0,1,.28-1.891v-0.212h0.07c0.047-.139.093-0.279,0.14-0.42,0.07-.045.14-0.092,0.21-0.14v-0.14c0.047-.022.093-0.047,0.14-0.07,0.093-.117.187-0.233,0.28-0.351h0.14c0.023-.045.046-0.092,0.069-0.139h0.141c0.023-.047.046-0.093,0.07-0.14h0.139v-0.07h0.21v-0.07h0.14v-0.071l0.49-.069v-0.071h0.42v-0.069Zm48.76,0c1.86-.025,2.825.235,3.567,1.33,0.047,0.025.094,0.047,0.14,0.07v0.141c0.047,0.023.094,0.046,0.14,0.07v0.139h0.07v0.211h0.07v0.14h0.07a4.692,4.692,0,0,1,.21,1.541v2.312h-0.07v0.351h-0.07v0.28h-0.07v0.211h-0.07v0.208h-0.07c-0.023.094-.046,0.188-0.07,0.281h-0.07v0.14l-0.14.07v0.14c-0.07.046-.139,0.093-0.209,0.141v0.138l-0.28.211v0.07h-0.14c-0.047.07-.093,0.142-0.14,0.21h-0.14v0.07c-0.14.048-.28,0.093-0.42,0.141v0.07l-0.419.07v0.07h-0.28v0.069h-0.49v0.07a3.017,3.017,0,0,1-1.329-.139h-0.28v-0.07h-0.28v-0.07h-0.14v-0.07c-0.116-.024-0.233-0.048-0.35-0.07l-0.07-.141h-0.139c-0.024-.047-0.047-0.093-0.07-0.14h-0.14l-0.28-.351-0.14-.068v-0.141l-0.21-.14c-0.023-.093-0.047-0.187-0.07-0.28h-0.07c-0.046-.14-0.093-0.281-0.14-0.421h-0.07c-0.046-.279-0.093-0.559-0.139-0.84h-0.071v-1.541a6.771,6.771,0,0,1,.28-2.592h0.07c0.047-.141.094-0.28,0.14-0.42a4.426,4.426,0,0,1,.7-0.7c0.046-.07.093-0.139,0.14-0.209l0.279-.07c0.024-.047.047-0.093,0.07-0.14Zm-142.363.14h1.259v6.515h0.07v-0.141a1.532,1.532,0,0,0,.42-0.56c0.093-.071.187-0.14,0.28-0.21v-0.14c0.07-.048.14-0.094,0.21-0.14v-0.141l0.21-.139V144.61l0.21-.139v-0.14c0.069-.047.139-0.094,0.209-0.139v-0.141l0.21-.14v-0.14c0.047-.025.093-0.047,0.14-0.07,0.023-.071.047-0.14,0.07-0.21,0.07-.046.14-0.094,0.21-0.142V143.21l0.21-.14v-0.14l0.21-.139V142.65l0.209-.141v-0.14l0.21-.139v-0.141c0.047-.022.094-0.047,0.14-0.07,0.023-.07.047-0.14,0.07-0.211,0.07-.046.14-0.091,0.21-0.139v-0.14l0.28-.211v-0.139l0.21-.14V140.9c0.07-.046.14-0.092,0.21-0.14v-0.14c0.07-.047.139-0.092,0.209-0.14v-0.141l0.211-.139c0.042-.06.248-0.474,0.279-0.49h1.05v8.686h-1.19a7.446,7.446,0,0,1-.07-2.03v-4.345H336.35v0.07a3.06,3.06,0,0,0-.211.28c-0.046.025-.093,0.048-0.139,0.071v0.139c-0.07.048-.14,0.094-0.21,0.141v0.139l-0.14.071c-0.023.071-.047,0.14-0.07,0.21-0.093.07-.187,0.141-0.28,0.209v0.142l-0.21.139v0.141l-0.21.14v0.14l-0.28.212V144.4c-0.07.047-.139,0.094-0.209,0.139v0.142c-0.07.045-.14,0.092-0.21,0.14v0.139l-0.28.211v0.14l-0.21.139v0.141l-0.21.14v0.141c-0.07.046-.14,0.091-0.21,0.139v0.141l-0.28.211c-0.023.068-.046,0.137-0.069,0.208-0.047.023-.094,0.048-0.14,0.07v0.141l-0.14.07c-0.024.07-.047,0.14-0.07,0.21l-0.28.21v0.141c-0.07.045-.14,0.093-0.21,0.139v0.14c-0.07.048-.14,0.093-0.21,0.14v0.14l-0.28.211c-0.023.07-.046,0.14-0.07,0.21h-0.979a12.425,12.425,0,0,1-.07-2.732v-5.954Zm17.279,0h6.716v1.12H351.74v7.5a4.387,4.387,0,0,1-1.259.07v-7.566h-2.729v-1.12Zm17.56,0h1.049l0.35,0.559c0.023,0.095.046,0.189,0.07,0.282l0.139,0.069v0.14h0.071v0.14h0.07v0.141h0.07v0.14h0.07v0.139l0.139,0.07v0.141h0.07v0.14h0.07v0.139h0.07v0.141h0.07v0.14l0.14,0.071c0.024,0.093.047,0.186,0.07,0.28h0.07c0.047,0.139.093,0.28,0.14,0.419l0.14,0.071v0.14h0.07v0.14h0.07v0.139h0.07v0.142h0.07v0.139h0.07v0.141c0.046,0.022.093,0.046,0.139,0.071v0.14h0.071v0.139h0.069v0.142h0.07V144.4h0.071a2.842,2.842,0,0,1,.349.771h0.14c0.047-.14.093-0.281,0.14-0.42h0.07V144.61c0.047-.022.093-0.046,0.14-0.07V144.4h0.07v-0.138h0.07v-0.142H370v-0.139h0.07v-0.14c0.047-.025.093-0.049,0.14-0.071V143.63h0.07v-0.139h0.07v-0.142h0.069V143.21h0.071v-0.14l0.139-.069v-0.142h0.07V142.72h0.07v-0.141h0.07V142.44h0.07V142.3l0.14-.069v-0.141h0.07v-0.14h0.07v-0.141h0.07v-0.139h0.07v-0.14l0.14-.07v-0.141h0.07v-0.139h0.07c0.046-.14.093-0.281,0.14-0.421l0.14-.07v-0.139h0.069v-0.141h0.071v-0.141h0.07v-0.139h0.069v-0.14c0.047-.023.094-0.048,0.14-0.07,0.024-.07.047-0.141,0.07-0.21h1.05v8.686h-1.05v-6.445h-0.07v0.07a0.573,0.573,0,0,0-.14.28H372.1v0.141h-0.07v0.139l-0.14.071v0.141h-0.07v0.139h-0.07v0.14h-0.07v0.14h-0.07v0.139c-0.047.025-.093,0.048-0.14,0.071v0.141H371.4v0.14h-0.07v0.141h-0.07v0.14h-0.07v0.139c-0.047.022-.093,0.047-0.14,0.071v0.139h-0.07v0.14h-0.07v0.139h-0.07v0.142c-0.047.022-.093,0.046-0.14,0.07v0.139h-0.07V145.1h-0.07v0.14h-0.069v0.14h-0.071v0.14l-0.139.07v0.14h-0.07v0.141h-0.07v0.139h-0.07v0.141H370v0.141c-0.047.022-.093,0.045-0.14,0.07V146.5h-0.07c-0.023.071-.047,0.141-0.07,0.212h-0.7l-0.069-.212h-0.071v-0.137h-0.07v-0.141c-0.046-.023-0.093-0.048-0.14-0.07v-0.141H368.6v-0.139h-0.07v-0.141h-0.07v-0.14c-0.047-.024-0.094-0.046-0.14-0.07v-0.14h-0.07v-0.14h-0.07V145.1h-0.07v-0.141h-0.07v-0.139c-0.047-.024-0.093-0.048-0.14-0.07l-0.07-.281h-0.07v-0.14h-0.07v-0.139h-0.07v-0.141c-0.046-.024-0.093-0.047-0.14-0.069v-0.14h-0.07V143.7h-0.07v-0.14h-0.07V143.42c-0.046-.023-0.093-0.046-0.139-0.071V143.21h-0.07v-0.14h-0.07v-0.14H366.92v-0.139h-0.069V142.65l-0.14-.071V142.44a1.913,1.913,0,0,1-.28-0.561h-0.07v6.515h-1.049v-8.686Zm10.983,0h1.259v3.012c1.838-.022,3.275-0.076,4.057.981,0.094,0.07.187,0.141,0.281,0.21a3.31,3.31,0,0,1,.419,1.962,2.922,2.922,0,0,1-.28,1.12l-0.139.07v0.14c-0.047.023-.094,0.046-0.14,0.07v0.141h-0.07c-0.071.093-.14,0.185-0.21,0.279h-0.14c-0.047.07-.094,0.14-0.14,0.212h-0.14v0.068l-0.42.141v0.07l-0.42.07v0.07h-0.419v0.07h-3.5v-8.686Zm7.695,0h1.259v8.616a4.387,4.387,0,0,1-1.259.07v-8.686Zm17.909,0h1.189c-0.028,2.072-.313,4.241,1.19,4.832a5,5,0,0,0,1.609.07v-0.07c0.186-.022.373-0.045,0.559-0.069V144.4q0.21-.07.42-0.138c0.117-.142.233-0.281,0.35-0.421,0.047-.025.093-0.049,0.14-0.071,0.553-.827.368-2.72,0.35-4.063h1.259v8.616a4.387,4.387,0,0,1-1.259.07v-3.712h-0.07v0.07l-0.42.49h-0.14l-0.07.14-0.28.069v0.071l-0.28.07v0.07h-0.279v0.07h-0.28V145.8h-0.7v0.07h-0.28V145.8h-0.7v-0.071h-0.28v-0.07l-0.42-.07v-0.07c-0.093-.024-0.186-0.046-0.28-0.071v-0.069h-0.14C401.649,144.428,401.885,142.088,401.9,139.708Zm9.654,0h1.259v6.515h0.07v-0.141a1.524,1.524,0,0,0,.42-0.56l0.21-.14v-0.14l0.21-.14v-0.141l0.21-.139v-0.14l0.21-.142V144.4q0.1-.07.21-0.138v-0.142c0.07-.048.14-0.094,0.209-0.139v-0.14l0.28-.212v-0.139c0.07-.046.14-0.094,0.21-0.142,0.024-.068.047-0.139,0.07-0.209l0.14-.07v-0.14l0.21-.139V142.65c0.07-.048.14-0.093,0.21-0.141v-0.14l0.21-.139v-0.141l0.209-.14v-0.141l0.141-.068,0.069-.211c0.07-.047.14-0.092,0.21-0.141v-0.139l0.21-.14v-0.141c0.07-.045.14-0.092,0.21-0.14v-0.14l0.21-.139v-0.141q0.105-.069.21-0.141v-0.139l0.21-.14v-0.14l0.139-.071v-0.069h1.05v8.616a4.389,4.389,0,0,1-1.259.07v-6.375h-0.07a0.708,0.708,0,0,1-.14.141V142.3c-0.07.047-.14,0.095-0.21,0.141v0.139l-0.28.212v0.139l-0.21.14v0.14c-0.07.046-.14,0.094-0.21,0.139v0.142l-0.139.07c-0.024.069-.047,0.14-0.071,0.21l-0.279.211v0.139c-0.07.047-.14,0.092-0.21,0.142V144.4c-0.07.047-.14,0.094-0.21,0.139v0.142l-0.28.209v0.141c-0.07.046-.14,0.092-0.21,0.14v0.14l-0.21.139v0.141l-0.279.211v0.139l-0.21.14v0.141c-0.07.045-.14,0.093-0.21,0.141V146.5l-0.28.212v0.14l-0.21.14v0.14l-0.21.14v0.141c-0.07.045-.14,0.093-0.21,0.139v0.14l-0.28.212c-0.042.057-.248,0.472-0.279,0.489h-0.98a12.487,12.487,0,0,1-.07-2.732v-5.954Zm17.21,0h6.786v1.12H432.82v7.5a4.387,4.387,0,0,1-1.259.07v-7.566h-2.8v-1.12Zm9.024,0h1.259v3.712h1.609c0.047-.071.094-0.139,0.14-0.21h0.07v-0.14l0.14-.069v-0.142c0.07-.045.14-0.092,0.21-0.139v-0.141c0.047-.022.093-0.046,0.14-0.07v-0.14l0.21-.139v-0.141h0.07c0.023-.07.047-0.14,0.07-0.21l0.14-.071v-0.139c0.07-.047.14-0.092,0.21-0.14v-0.141l0.139-.07v-0.139l0.21-.14V140.9c0.047-.022.094-0.046,0.14-0.07v-0.14l0.21-.139v-0.141c0.047-.023.094-0.046,0.14-0.071V140.2l0.14-.07v-0.14h0.07a0.575,0.575,0,0,0,.14-0.28h1.469a0.546,0.546,0,0,1-.14.28H444.5v0.14l-0.14.07v0.139c-0.07.048-.14,0.094-0.21,0.141v0.14h-0.07c-0.023.07-.046,0.14-0.07,0.21-0.046.024-.093,0.048-0.139,0.07v0.141l-0.21.14v0.139h-0.071l-0.069.211c-0.047.022-.093,0.048-0.14,0.071v0.14l-0.21.139v0.14c-0.047.023-.093,0.048-0.14,0.07v0.141l-0.21.139v0.14h-0.07l-0.07.211c-0.046.022-.093,0.047-0.14,0.071v0.139l-0.21.14v0.14c-0.046.023-.093,0.046-0.14,0.071a2.66,2.66,0,0,1-.419.63,1.147,1.147,0,0,0,.28.49l0.139,0.07c0.024,0.069.047,0.139,0.07,0.211,0.07,0.045.14,0.092,0.21,0.14v0.139l0.28,0.211v0.14c0.047,0.023.094,0.046,0.14,0.07v0.069c0.047,0.025.093,0.047,0.14,0.071v0.14c0.117,0.092.233,0.187,0.35,0.28v0.14l0.28,0.212v0.138c0.093,0.069.186,0.14,0.279,0.21v0.141l0.28,0.21v0.14l0.28,0.211v0.138l0.28,0.211v0.14l0.21,0.14a2.824,2.824,0,0,1,.28.421h-1.539a2.9,2.9,0,0,0-.35-0.351c-0.024-.07-0.047-0.138-0.07-0.21-0.07-.047-0.14-0.092-0.21-0.14v-0.14c-0.093-.071-0.187-0.139-0.28-0.209V147.2l-0.28-.21v-0.14l-0.28-.211V146.5c-0.093-.069-0.186-0.137-0.279-0.207v-0.141l-0.28-.211V145.8l-0.28-.211v-0.141l-0.14-.069v-0.07l-0.14-.07V145.1l-0.28-.211v-0.139c-0.046-.025-0.093-0.048-0.14-0.07V144.61h-1.679v3.714a4.384,4.384,0,0,1-1.259.07v-8.686Zm8.815,0h1.189v6.515h0.07v-0.07a1.882,1.882,0,0,0,.28-0.421l0.21-.14v-0.141l0.21-.139v-0.14c0.069-.048.139-0.094,0.209-0.14v-0.141l0.21-.139V144.61l0.21-.139v-0.14c0.07-.047.14-0.094,0.21-0.139v-0.141l0.21-.14v-0.14l0.21-.141v-0.139c0.093-.071.186-0.142,0.28-0.21V143.14l0.21-.139v-0.142c0.069-.045.14-0.092,0.209-0.139v-0.141l0.21-.139V142.3l0.21-.139v-0.141l0.14-.07c0.023-.07.047-0.141,0.07-0.209,0.07-.048.14-0.094,0.21-0.14v-0.141c0.07-.046.14-0.094,0.21-0.141v-0.139l0.21-.14V140.9l0.21-.14v-0.14c0.069-.047.139-0.092,0.209-0.14v-0.141l0.21-.139c0.043-.058.249-0.474,0.28-0.49h1.049v8.686h-1.189a7.446,7.446,0,0,1-.07-2.03v-4.345h-0.07v0.07a1.9,1.9,0,0,0-.28.42c-0.046.024-.093,0.048-0.139,0.07l-0.071.212c-0.093.068-.186,0.139-0.279,0.21v0.139l-0.21.141v0.139l-0.21.141v0.14l-0.28.21v0.14c-0.07.048-.14,0.092-0.21,0.141v0.139l-0.21.14v0.139c-0.093.072-.186,0.142-0.279,0.212v0.139l-0.21.141v0.14l-0.21.14v0.14l-0.28.21v0.141c-0.07.046-.14,0.091-0.21,0.139v0.141c-0.07.047-.14,0.092-0.21,0.141v0.138l-0.28.21v0.141c-0.069.047-.14,0.093-0.21,0.14v0.14l-0.209.14v0.141l-0.21.138v0.141l-0.28.21v0.14l-0.21.141v0.14l-0.14.07v0.07H446.6v-8.686Zm14.341,0h3.638a6.122,6.122,0,0,1,1.958.14v0.07l0.42,0.14c0.117,0.14.234,0.279,0.35,0.42l0.14,0.071v0.139c0.047,0.024.093,0.048,0.14,0.07,0.023,0.14.046,0.281,0.07,0.421a2.923,2.923,0,0,1,.14,1.4q-0.105.318-.21,0.631c-0.14.116-.28,0.235-0.42,0.351v0.069h-0.14V143.7c-0.116.023-.233,0.045-0.349,0.07v0.071h0.139a0.573,0.573,0,0,0,.28.14v0.069h0.14c0.07,0.092.14,0.186,0.21,0.28l0.14,0.07v0.139c0.046,0.024.093,0.048,0.14,0.07v0.142h0.07a2.989,2.989,0,0,1,.14,1.051,2.843,2.843,0,0,1-.35,1.679l-0.28.211-0.21.28h-0.14v0.07l-0.279.071v0.07h-0.21v0.07h-0.28v0.07h-0.42a7.5,7.5,0,0,1-1.679.07h-3.148v-8.686Zm19.378,0h6.016v7.5H487.6v3.363h-1.189v-2.172h-6.436v2.172h-1.189V147.2a2.73,2.73,0,0,0,.909-0.14c0.047-.07.094-0.14,0.14-0.21h0.07c0.047-.14.094-0.281,0.14-0.421h0.07v-0.279h0.07V145.8h0.07v-0.631a8.461,8.461,0,0,0,.07-1.891v-3.573Zm9.724,0H491.3v3.012h2.169v0.071h0.42v0.068h0.28v0.071h0.21V143l0.419,0.139v0.07h0.14l0.21,0.281a2.493,2.493,0,0,1,.91,2.312,2.708,2.708,0,0,1-.28,1.19l-0.14.07v0.14l-0.14.07v0.141h-0.07c-0.07.093-.14,0.185-0.21,0.279h-0.14c-0.047.07-.093,0.14-0.14,0.212H494.8v0.068l-0.419.141v0.07l-0.42.07v0.07h-0.42v0.07h-3.5v-8.686Zm7.695,0H499v8.616a4.391,4.391,0,0,1-1.26.07v-8.686Zm-140.753,3.783h4.827a2.574,2.574,0,0,0-1.33-2.663c-0.233-.022-0.466-0.046-0.7-0.07v-0.07a2.046,2.046,0,0,0-.979.14h-0.28v0.07c-0.093.025-.187,0.047-0.28,0.07v0.071h-0.14l-0.07.14H357.9c-0.023.046-.046,0.094-0.07,0.139l-0.279.211v0.14l-0.14.071A5.05,5.05,0,0,0,356.987,143.491Zm37.287,3.292a0.6,0.6,0,0,1,.28.14v0.07h0.14c0.023,0.047.046,0.093,0.07,0.14l0.349,0.07v0.07h0.28a2.745,2.745,0,0,0,2.029-.28c0.093-.117.187-0.233,0.28-0.351,0.07-.047.14-0.092,0.21-0.141a5.28,5.28,0,0,0,.419-2.871q-0.035-.666-0.07-1.331h-0.07v-0.21h-0.069v-0.14h-0.07c-0.024-.093-0.047-0.187-0.07-0.28l-0.14-.069v-0.141l-0.28-.21-0.07-.14h-0.14a1.794,1.794,0,0,0-.909-0.351,3.094,3.094,0,0,0-1.4.07v0.07c-0.116.025-.233,0.047-0.349,0.07-0.024.047-.047,0.094-0.07,0.141h-0.14c-0.047.07-.093,0.14-0.14,0.209-0.07.047-.14,0.095-0.21,0.141V141.6c-0.047.022-.093,0.046-0.14,0.069-0.023.093-.046,0.187-0.07,0.28h-0.07v0.14h-0.07v0.21h-0.07q-0.035.807-.07,1.612v1.471q0.141,0.454.28,0.912c0.047,0.022.093,0.045,0.14,0.07V146.5h0.07A0.591,0.591,0,0,1,394.274,146.783Zm78.982-6.095a3.483,3.483,0,0,1-.7.14v0.07c-0.093.025-.187,0.047-0.28,0.07v0.071h-0.14l-0.14.21c-0.07.024-.14,0.046-0.21,0.069v0.141c-0.07.047-.14,0.092-0.21,0.141-0.046.14-.093,0.279-0.139,0.419h-0.07v0.141H471.3v0.28a5.984,5.984,0,0,0-.14,1.681,4.265,4.265,0,0,0,.489,2.451l0.28,0.211c0.047,0.07.094,0.14,0.14,0.21l0.42,0.14v0.07h0.14v0.07a4.472,4.472,0,0,0,1.469.071v-0.071l0.49-.07v-0.07h0.14v-0.07h0.139l0.07-.14h0.14l0.21-.281h0.07V146.5c0.047-.022.094-0.046,0.14-0.069,0.023-.093.047-0.187,0.07-0.279h0.07v-0.141h0.07V145.8h0.07c0.023-.305.047-0.608,0.07-0.912h0.07a6.6,6.6,0,0,0-.07-1.751v-0.631h-0.07V142.23H475.7v-0.211A2.394,2.394,0,0,0,473.256,140.688Zm-11.054.14v2.453h2.659a1.9,1.9,0,0,0,1.049-.141,0.7,0.7,0,0,0,.56-0.631,2.061,2.061,0,0,0,0-1.121c-0.211-.139-0.037-0.075-0.14-0.209l-0.14-.07v-0.07h-0.14c-0.023-.048-0.047-0.094-0.07-0.141h-0.21v-0.07H462.2Zm19.378,0v3.364q-0.034.909-.07,1.82h-0.069v0.352h-0.07v0.208H481.3v0.211H481.23c-0.046.14-.093,0.28-0.139,0.42h3.987v-6.375h-3.5Zm-104.026,3.083V147.2h2.379v-0.07l0.419-.14c0.093-.117.187-0.233,0.28-0.351,0.047-.022.094-0.047,0.14-0.07a0.658,0.658,0,0,1,.14-0.278,3.181,3.181,0,0,0,.07-1.192h-0.07v-0.211h-0.07v-0.209c-0.047-.023-0.093-0.047-0.14-0.072a0.79,0.79,0,0,0-.49-0.489C379.907,143.773,378.244,143.9,377.554,143.911Zm113.75,0V147.2h2.379v-0.07l0.42-.14,0.28-.351c0.046-.022.093-0.047,0.139-0.07,0.487-.732.159-2.268-0.559-2.451C493.657,143.773,492,143.9,491.3,143.911Zm-29.1.42v2.942h2.589a3.283,3.283,0,0,0,1.329-.14c0.023-.047.046-0.093,0.07-0.14h0.14c0.023-.047.046-0.094,0.07-0.14h0.07v-0.14l0.139-.071v-0.21h0.071v-0.42a1.3,1.3,0,0,0-.63-1.472,2.009,2.009,0,0,0-1.189-.209H462.2Z" transform="translate(-195 -75)"/>
</svg>
