<svg id="_2" data-name="2" xmlns="http://www.w3.org/2000/svg" width="59" height="50" viewBox="0 0 59 50">
  <defs>
    <style>
      .cls-1, .cls-2 {
        fill: #4ca6b4;
      }

      .cls-1 {
        opacity: 0.08;
      }

      .cls-2 {
        fill-rule: evenodd;
      }
    </style>
  </defs>
  <circle id="Эллипс_3_копия" data-name="Эллипс 3 копия" class="cls-1" cx="34" cy="25" r="25"/>
  <path id="Фигура_15" data-name="Фигура 15" class="cls-2" d="M643.209,2077a3.076,3.076,0,0,1,.969.19c0.032,0.1.064,0.2,0.1,0.3h0.1v0.19h0.1v3.91a6.156,6.156,0,0,1-.193,2.05,1.4,1.4,0,0,0-.194.19h-0.194v0.1h-0.774a2.512,2.512,0,0,1-.388-0.39,2.919,2.919,0,0,1-.193-1.66v-4.2h0.1c0.033-.13.065-0.26,0.1-0.39A1.32,1.32,0,0,0,643.209,2077Zm-8.425,3.61h0.775v0.1a3.816,3.816,0,0,1,1.259,1.17l1.937,1.86c0.29,0.32.581,0.65,0.871,0.97-0.032.33-.064,0.66-0.1,0.98-0.1.07-.193,0.13-0.29,0.2v0.09a1.809,1.809,0,0,1-.872.1c-0.322-.29-0.645-0.58-0.968-0.88-0.678-.71-1.356-1.43-2.033-2.15-0.508-.51-1.139-0.74-1.163-1.75h0.1V2081h0.1v-0.09A1.4,1.4,0,0,0,634.784,2080.61Zm16.463,0h0.775v0.1a0.448,0.448,0,0,1,.387.29,1.207,1.207,0,0,1,.194.88c-0.678.72-1.356,1.43-2.034,2.15-0.71.68-1.42,1.37-2.13,2.05-1,.03-1.3-0.34-1.259-1.37,0.645-.68,1.291-1.36,1.936-2.05C649.827,2081.98,650.537,2081.3,651.247,2080.61Zm-23.144,8.11h28.664a6.865,6.865,0,0,1,2.13.1h0.194v0.09c0.226,0.2.452,0.39,0.678,0.59v0.19c0.226,0.2.452,0.39,0.678,0.59v0.2c0.258,0.22.516,0.45,0.774,0.68v0.19l0.775,0.69v0.19h0.1l0.29,0.39c0.1,0.07.194,0.13,0.291,0.2v0.19l0.775,0.69v0.19c0.225,0.2.451,0.39,0.677,0.59v0.19l0.775,0.69v0.19l0.775,0.69v0.19c0.226,0.2.452,0.39,0.678,0.59v0.19l0.387,0.3,0.29,0.39h0.1v0.19a1.788,1.788,0,0,0,.194.1,1.951,1.951,0,0,1,.678,1.27h-0.1c-0.032.16-.064,0.33-0.1,0.49-0.226.19-.452,0.39-0.678,0.58v0.2c-0.258.23-.516,0.46-0.774,0.68v0.2c-0.259.23-.517,0.45-0.775,0.68v0.2c-0.258.22-.517,0.45-0.775,0.68v0.2c-0.226.19-.452,0.39-0.678,0.58v0.2c-0.258.23-.516,0.45-0.774,0.68v0.2c-0.129.09-.259,0.19-0.388,0.29l-0.29.39h-0.1v0.2c-0.258.22-.516,0.45-0.775,0.68v0.19l-0.774.69c-0.925,1.29-2.078,2.32-3,3.61-0.13.1-.259,0.2-0.388,0.29l-0.29.39h-0.1v0.2c-0.258.23-.517,0.46-0.775,0.68v0.2c-0.129.1-.258,0.19-0.387,0.29l-0.291.39h-0.1v0.2c-0.258.23-.516,0.45-0.774,0.68v0.2c-0.258.22-.517,0.45-0.775,0.68v0.2c-0.226.19-.452,0.39-0.678,0.58v0.2c-0.258.22-.516,0.45-0.775,0.68v0.2c-0.258.22-.516,0.45-0.774,0.68v0.19l-0.775.69v0.19l-0.387.3-0.291.39h-0.1v0.19l-0.774.69v0.19c-0.259.23-.517,0.46-0.775,0.68v0.2c-0.226.2-.452,0.39-0.678,0.59v0.19l-0.775.69v0.19c-0.258.23-.516,0.46-0.774,0.68v0.2c-0.129.1-.259,0.19-0.388,0.29l-0.29.39h-0.1v0.2c-0.226.19-.452,0.39-0.678,0.58-0.032.1-.064,0.2-0.1,0.3l-0.484.39c-0.462.47-.375,0.77-1.356,0.78v-0.1a2.905,2.905,0,0,1-.484-0.19v-0.2c-0.258-.23-0.516-0.45-0.775-0.68v-0.2c-0.258-.23-0.516-0.45-0.774-0.68v-0.2c-0.258-.22-0.517-0.45-0.775-0.68v-0.2c-0.258-.22-0.516-0.45-0.775-0.68V2123l-0.774-.69v-0.19l-0.775-.69v-0.19c-0.226-.2-0.452-0.39-0.678-0.59v-0.19l-0.775-.69v-0.19l-0.774-.69v-0.19l-0.775-.69v-0.19c-0.258-.23-0.516-0.46-0.775-0.68v-0.2c-0.258-.23-0.516-0.46-0.774-0.68v-0.2c-0.226-.19-0.452-0.39-0.678-0.58v-0.2c-0.259-.23-0.517-0.46-0.775-0.68v-0.2c-0.258-.23-0.516-0.45-0.775-0.68v-0.2c-0.258-.23-0.516-0.45-0.774-0.68v-0.2c-0.13-.09-0.259-0.19-0.388-0.29l-0.29-.39h-0.1v-0.2c-0.258-.22-0.517-0.45-0.775-0.68v-0.19l-0.774-.69v-0.19c-0.226-.2-0.452-0.39-0.678-0.59v-0.19l-0.775-.69v-0.19l-0.775-.69v-0.19l-0.775-.69v-0.19c-0.258-.23-0.516-0.46-0.774-0.68v-0.2c-0.258-.23-0.517-0.46-0.775-0.68v-0.2c-0.258-.23-0.516-0.45-0.775-0.68v-0.2c-0.225-.19-0.452-0.39-0.677-0.58v-0.2c-0.259-.23-0.517-0.46-0.775-0.68v-0.2c-0.258-.23-0.517-0.45-0.775-0.68v-0.2c-0.129-.09-0.258-0.19-0.387-0.29l-0.291-.39h-0.1v-0.2l-0.193-.09a1.976,1.976,0,0,1-.678-1.27h0.1c0.032-.17.064-0.33,0.1-0.49,0.225-.2.452-0.39,0.677-0.59v-0.19l0.775-.69v-0.19c0.226-.2.452-0.39,0.678-0.59v-0.19l0.775-.69v-0.19l0.774-.69v-0.19h0.1l0.291-.39c0.1-.07.193-0.13,0.29-0.2v-0.19l0.775-.69v-0.19c0.226-.2.452-0.39,0.678-0.59v-0.19l0.775-.69v-0.19c0.258-.23.516-0.46,0.774-0.68v-0.2c0.226-.2.452-0.39,0.678-0.59v-0.19Zm2.13,1.95c0.032,0.1.065,0.2,0.1,0.29h0.1v0.2h0.1v0.19a1.775,1.775,0,0,0,.193.1c0.033,0.13.065,0.26,0.1,0.39a1.788,1.788,0,0,0,.194.1v0.2l0.194,0.09,0.1,0.39h0.1c0.032,0.1.065,0.2,0.1,0.3l0.194,0.09c0.032,0.13.064,0.26,0.1,0.39a1.775,1.775,0,0,0,.193.1c0.032,0.13.065,0.26,0.1,0.39a1.788,1.788,0,0,0,.194.1v0.2l0.193,0.09c0.033,0.13.065,0.26,0.1,0.39h0.1c0.032,0.1.065,0.2,0.1,0.3l0.194,0.09c0.032,0.14.064,0.27,0.1,0.4l0.194,0.09v0.2a1.788,1.788,0,0,1,.194.1c0.032,0.13.064,0.26,0.1,0.39a1.775,1.775,0,0,1,.193.1c0.032,0.13.065,0.26,0.1,0.39l0.194,0.09,0.387,0.78h0.194a6.631,6.631,0,0,1,1.162-1.17l2.227-2.34,1.162-1.08v-0.19c0.71-.68,1.421-1.37,2.131-2.05v-0.1h-11.04Zm26.534,0h-11.04v0.1l2.034,1.95v0.2c1,0.97,2,1.95,3,2.93,0.548,0.58,1.1,1.17,1.646,1.75H652.6v-0.09a0.971,0.971,0,0,0,.193-0.39,1.788,1.788,0,0,1,.194-0.1c0.032-.1.065-0.2,0.1-0.29h0.1l0.1-.39a1.884,1.884,0,0,1,.194-0.1c0.033-.13.065-0.26,0.1-0.39a1.788,1.788,0,0,1,.194-0.1v-0.2l0.193-.09c0.033-.13.065-0.26,0.1-0.4l0.194-.09v-0.2a1.884,1.884,0,0,0,.194-0.1l0.1-.39h0.1c0.033-.09.065-0.19,0.1-0.29a1.788,1.788,0,0,0,.194-0.1c0.032-.13.064-0.26,0.1-0.39a1.775,1.775,0,0,0,.193-0.1c0.033-.13.065-0.26,0.1-0.39h0.1c0.032-.09.065-0.19,0.1-0.29a1.775,1.775,0,0,0,.193-0.1c0.033-.13.065-0.26,0.1-0.39l0.194-.09Zm-34.571,7.72h10.361a1.818,1.818,0,0,0-.387-0.69v-0.19a1.788,1.788,0,0,0-.194-0.1v-0.2l-0.193-.09c-0.033-.13-0.065-0.26-0.1-0.39h-0.1c-0.032-.1-0.065-0.2-0.1-0.3l-0.194-.09v-0.2h-0.1v-0.2l-0.194-.09c-0.033-.13-0.065-0.26-0.1-0.39a1.788,1.788,0,0,0-.194-0.1v-0.2a1.775,1.775,0,0,1-.193-0.1c-0.033-.12-0.065-0.26-0.1-0.39l-0.194-.09v-0.2a1.884,1.884,0,0,1-.194-0.1l-0.1-.39h-0.1c-0.033-.09-0.065-0.19-0.1-0.29a1.788,1.788,0,0,1-.194-0.1c-0.032-.13-0.064-0.26-0.1-0.39a1.775,1.775,0,0,1-.193-0.1c-0.033-.13-0.065-0.26-0.1-0.39l-0.194-.09v-0.2a1.775,1.775,0,0,1-.193-0.1v-0.19a2.361,2.361,0,0,0-.485-0.59v-0.1h-0.1v0.1c-0.162.2-.323,0.39-0.485,0.59-0.1.06-.193,0.13-0.29,0.19v0.2c-0.258.23-.517,0.45-0.775,0.68v0.2c-0.258.23-.516,0.45-0.775,0.68v0.2c-0.226.19-.451,0.39-0.678,0.58v0.2c-0.258.23-.516,0.45-0.774,0.68v0.2c-0.226.19-.452,0.39-0.678,0.58v0.2c-0.1.06-.194,0.13-0.291,0.19l-0.29.39a1.788,1.788,0,0,1-.194.1v0.2l-0.193.09A2,2,0,0,0,622.2,2098.39Zm14.428,0h13.751v-0.2c-1.71-1.69-3.421-3.39-5.132-5.08-0.549-.58-1.1-1.17-1.646-1.76H643.4c-1.678,1.73-3.357,3.45-5.036,5.18-0.58.55-1.162,1.11-1.743,1.66v0.2Zm17.819,0H664.8v-0.1c-0.161-.2-0.323-0.39-0.484-0.59-0.1-.06-0.194-0.13-0.29-0.19v-0.2c-0.259-.23-0.517-0.45-0.775-0.68v-0.2c-0.226-.19-0.452-0.39-0.678-0.58v-0.2c-0.258-.23-0.516-0.45-0.775-0.68v-0.2c-0.258-.23-0.516-0.45-0.774-0.68v-0.2c-0.194-.16-0.388-0.32-0.581-0.49-0.033-.09-0.065-0.19-0.1-0.29-0.129-.1-0.259-0.19-0.388-0.29l-0.29-.39h-0.1v-0.2l-0.194-.09a3.015,3.015,0,0,1-.581-0.79,1.775,1.775,0,0,1-.193.1c-0.033.1-.065,0.2-0.1,0.3l-0.194.09c-0.032.13-.064,0.26-0.1,0.39a1.775,1.775,0,0,1-.193.1v0.2l-0.194.09c-0.032.13-.065,0.26-0.1,0.39a1.7,1.7,0,0,1-.194.1l-0.1.39a1.884,1.884,0,0,1-.194.1v0.2l-0.194.09c-0.032.13-.064,0.26-0.1,0.39a1.775,1.775,0,0,1-.193.1v0.2l-0.194.09c-0.032.13-.065,0.27-0.1,0.39h-0.1l-0.1.3a1.7,1.7,0,0,0-.194.1v0.19h-0.1v0.2l-0.194.09c-0.032.13-.064,0.26-0.1,0.4l-0.193.09v0.2a1.788,1.788,0,0,0-.194.1c-0.032.13-.064,0.26-0.1,0.39l-0.193.09v0.2a1.7,1.7,0,0,0-.194.1v0.19A2.073,2.073,0,0,0,654.443,2098.39Zm-32.151,1.95v0.19l0.775,0.69v0.19c0.226,0.2.452,0.39,0.678,0.59v0.19l0.775,0.69c0.952,1.32,2.147,2.38,3.1,3.71,0.226,0.19.452,0.39,0.678,0.59,0.033,0.09.065,0.19,0.1,0.29,0.226,0.19.452,0.39,0.678,0.58v0.2c0.258,0.23.517,0.45,0.775,0.68v0.2c0.129,0.1.258,0.19,0.387,0.29l0.291,0.39h0.1v0.2c0.259,0.22.517,0.45,0.775,0.68v0.2c0.258,0.22.517,0.45,0.775,0.68v0.19l0.775,0.69v0.19c0.225,0.2.451,0.39,0.677,0.59v0.19l0.775,0.69v0.19l0.775,0.69v0.19l0.775,0.69v0.19l0.774,0.69v0.19c0.258,0.23.517,0.46,0.775,0.68v0.2c0.258,0.23.516,0.45,0.775,0.68v0.2c0.226,0.19.452,0.39,0.677,0.58v0.2c0.259,0.23.517,0.46,0.775,0.68v0.2c0.258,0.23.517,0.45,0.775,0.68v0.2l0.194,0.09a3.535,3.535,0,0,1,.677.88h0.1v-0.19h-0.1c-0.032-.16-0.064-0.33-0.1-0.49h-0.1v-0.29h-0.1v-0.3h-0.1v-0.29h-0.1v-0.29h-0.1v-0.2h-0.1c-0.065-.29-0.13-0.58-0.194-0.88h-0.1v-0.19h-0.1c-0.064-.29-0.129-0.59-0.193-0.88h-0.1v-0.2h-0.1c-0.065-.29-0.129-0.58-0.194-0.87-1.263-2.91-2.131-6.18-3.389-9.09-0.032-.19-0.065-0.39-0.1-0.58h-0.1v-0.29h-0.1v-0.2h-0.1v-0.29h-0.1v-0.3h-0.1v-0.29h-0.1v-0.29h-0.1v-0.2h-0.1c-0.064-.29-0.129-0.58-0.193-0.88h-0.1v-0.19h-0.1c-0.065-.29-0.129-0.59-0.194-0.88h-0.1v-0.2h-0.1c-0.033-.19-0.065-0.39-0.1-0.58h-0.1v-0.29h-0.1v-0.2h-0.1v-0.29h-0.1v-0.3h-0.1v-0.29h-0.1v-0.19h-0.1v-0.3h-0.1c-0.032-.19-0.065-0.39-0.1-0.58h-0.1a1.562,1.562,0,0,0-.871-0.1H622.292Zm27.115,5.76a1.756,1.756,0,0,1,1.162-.19c0.032,0.06.065,0.13,0.1,0.19h0.194v0.2l0.193,0.09c-0.032.39-.064,0.79-0.1,1.18h-0.1v0.29h-0.1v0.19h-0.1c-0.032.2-.065,0.39-0.1,0.59h-0.1v0.19h-0.1c-0.032.2-.064,0.4-0.1,0.59h-0.1v0.2h-0.1c-0.065.29-.129,0.58-0.194,0.88h-0.1v0.19h-0.1v0.29h-0.1v0.3h-0.1v0.19h-0.1v0.29h-0.1c-0.032.2-.064,0.4-0.1,0.59h-0.1v0.2h-0.1c-0.033.19-.065,0.39-0.1,0.58h-0.1v0.2h-0.1c-0.032.19-.064,0.39-0.1,0.58h-0.1v0.2h-0.1c-0.065.29-.129,0.58-0.194,0.88h-0.1v0.19h-0.1c-0.032.2-.064,0.39-0.1,0.59h-0.1v0.19h-0.1v0.3h-0.1c-0.032.19-.065,0.39-0.1,0.58h-0.1v0.2h-0.1c-0.032.19-.064,0.39-0.1,0.58h-0.1v0.2h-0.1c-0.032.19-.065,0.39-0.1,0.59h-0.1v0.19h-0.1c-0.064.29-.129,0.59-0.193,0.88h-0.1v0.19h-0.1c-0.032.2-.065,0.4-0.1,0.59h-0.1v0.2h-0.1c-0.033.19-.065,0.39-0.1,0.58a3.653,3.653,0,0,0-.388,1.08h0.1v-0.2c0.258-.23.517-0.46,0.775-0.68v-0.2c0.258-.23.516-0.45,0.775-0.68v-0.2c0.258-.22.516-0.45,0.774-0.68v-0.2c0.226-.19.452-0.39,0.678-0.58v-0.2c0.258-.23.517-0.45,0.775-0.68v-0.2c0.258-.22.516-0.45,0.775-0.68v-0.19c0.225-.2.452-0.4,0.677-0.59,0.033-.1.065-0.2,0.1-0.29l0.775-.69v-0.19l0.775-.69v-0.19l0.774-.69v-0.19h0.1l0.291-.39c0.1-.07.193-0.13,0.29-0.2v-0.19l0.775-.69v-0.19c0.258-.23.516-0.46,0.775-0.68v-0.2c0.258-.23.516-0.46,0.774-0.68v-0.2c0.258-.23.517-0.45,0.775-0.68v-0.2c0.258-.23.517-0.45,0.775-0.68v-0.2c0.226-.19.452-0.39,0.678-0.58v-0.2c0.258-.23.516-0.45,0.774-0.68v-0.2c0.259-.22.517-0.45,0.775-0.68v-0.2c0.258-.22.517-0.45,0.775-0.68v-0.19l0.774-.69v-0.19l0.775-.69v-0.19l0.775-.69V2102c0.1-.07.194-0.13,0.29-0.2l0.291-.39h0.1v-0.19c0.064-.03.129-0.07,0.193-0.1a1.977,1.977,0,0,0,.581-0.78H635.656v0.1h0.1c0.032,0.16.064,0.32,0.1,0.48h0.1v0.3h0.1v0.29h0.1v0.2h0.1c0.032,0.19.065,0.39,0.1,0.58h0.1v0.3h0.1v0.19h0.1c0.065,0.29.13,0.59,0.194,0.88h0.1v0.19h0.1c0.064,0.3.129,0.59,0.193,0.88h0.1v0.2h0.1c0.065,0.29.129,0.58,0.194,0.88h0.1V2106h0.1v0.3h0.1v0.29h0.1v0.29h0.1v0.3c1.261,2.9,2.132,6.17,3.389,9.08,0.033,0.19.065,0.39,0.1,0.58h0.1v0.3h0.1v0.19h0.1c0.032,0.2.064,0.39,0.1,0.59h0.1v0.29h0.1v0.2h0.1c0.065,0.29.129,0.58,0.194,0.87h0.1v0.2h0.1c0.033,0.19.065,0.39,0.1,0.59h0.1v0.29h0.1v0.19h0.1v0.3l0.484,1.17h0.1a3.014,3.014,0,0,1,.387-1.08v-0.29h0.1v-0.19h0.1c0.064-.3.129-0.59,0.193-0.88h0.1v-0.2h0.1c0.032-.19.065-0.39,0.1-0.58h0.1v-0.2h0.1c0.064-.29.129-0.59,0.193-0.88h0.1v-0.19h0.1v-0.3h0.1v-0.29h0.1v-0.19h0.1c0.032-.2.064-0.4,0.1-0.59h0.1v-0.2h0.1c0.065-.29.129-0.58,0.194-0.87h0.1v-0.2h0.1c0.033-.2.065-0.39,0.1-0.59h0.1v-0.19h0.1c0.064-.3.129-0.59,0.194-0.88h0.1v-0.2h0.1c0.032-.19.065-0.39,0.1-0.58h0.1v-0.2h0.1c0.032-.19.064-0.39,0.1-0.58h0.1v-0.2h0.1c0.065-.29.129-0.58,0.194-0.88h0.1v-0.19h0.1c0.032-.2.064-0.39,0.1-0.59h0.1v-0.19h0.1c0.065-.3.129-0.59,0.194-0.88h0.1v-0.2h0.1c0.033-.19.065-0.39,0.1-0.58h0.1v-0.2h0.1c0.032-.19.065-0.39,0.1-0.58h0.1v-0.2h0.1v-0.29h0.1v-0.3h0.1C649.342,2106.3,649.375,2106.2,649.407,2106.1Zm1.259-2.15v-0.19a1.788,1.788,0,0,0-.194-0.1,1.073,1.073,0,0,1,.1-0.88,0.386,0.386,0,0,1,.387-0.39,0.978,0.978,0,0,1,1.066,0,1.867,1.867,0,0,1,.29,1.17c-0.11.11-.038,0-0.1,0.2a1.294,1.294,0,0,1-1.259.39c-0.032-.07-0.064-0.13-0.1-0.2h-0.194Z" transform="translate(-619 -2077)"/>
</svg>
