<?xml version="1.0" standalone="no"?>
<!DOCTYPE svg PUBLIC "-//W3C//DTD SVG 20010904//EN"
 "http://www.w3.org/TR/2001/REC-SVG-20010904/DTD/svg10.dtd">
<svg version="1.0" xmlns="http://www.w3.org/2000/svg"
 width="960.000000pt" height="960.000000pt" viewBox="0 0 960.000000 960.000000"
 preserveAspectRatio="xMidYMid meet">
<metadata>
Created by potrace 1.11, written by Peter Selinger 2001-2013
</metadata>
<g transform="translate(0.000000,960.000000) scale(0.100000,-0.100000)"
fill="#000000" stroke="none">
<path d="M55 8622 c-18 -7 -37 -24 -44 -38 -14 -31 -9 -261 6 -289 14 -26 37
-79 56 -130 18 -48 103 -258 122 -300 46 -99 95 -220 95 -232 0 -7 5 -13 10
-13 6 0 10 -6 10 -14 0 -7 14 -46 31 -87 17 -41 32 -78 33 -84 2 -5 8 -22 14
-37 18 -41 30 -72 30 -78 1 -5 40 -97 62 -145 40 -88 77 -185 72 -185 -4 0 -2
-4 3 -8 6 -4 23 -41 38 -82 15 -41 34 -88 42 -103 8 -16 15 -35 15 -43 0 -8 5
-14 10 -14 6 0 10 -6 10 -14 0 -7 12 -40 26 -72 40 -91 57 -129 114 -264 58
-136 91 -212 121 -276 10 -22 19 -45 19 -50 0 -9 27 -75 86 -209 9 -22 18 -42
19 -45 4 -10 19 -48 56 -137 22 -51 39 -94 39 -97 0 -3 13 -33 29 -68 31 -67
125 -290 126 -298 0 -3 10 -25 21 -50 12 -25 36 -81 54 -125 43 -107 53 -130
84 -198 14 -32 26 -60 26 -62 0 -3 9 -24 19 -48 59 -129 101 -231 101 -242 0
-8 5 -15 10 -17 6 -2 12 -13 13 -26 0 -12 5 -22 9 -22 4 0 8 -5 8 -11 0 -7 41
-109 91 -228 98 -231 107 -253 107 -261 0 -3 11 -25 25 -50 14 -25 26 -49 27
-55 1 -5 9 -28 18 -50 9 -22 16 -43 14 -47 -1 -5 3 -8 8 -8 6 0 10 -8 10 -18
0 -10 4 -22 8 -27 5 -6 16 -28 25 -50 8 -22 26 -62 38 -90 13 -27 24 -52 24
-55 2 -8 16 -41 37 -87 32 -75 41 -98 40 -105 -1 -5 3 -8 8 -8 5 0 9 -3 8 -8
-1 -4 8 -29 21 -57 13 -27 24 -54 25 -60 2 -5 11 -28 21 -50 11 -22 19 -42 20
-45 1 -3 11 -26 23 -53 39 -85 62 -137 62 -142 0 -3 10 -27 21 -53 30 -66 38
-86 114 -267 36 -88 77 -184 91 -213 13 -29 24 -56 24 -60 1 -4 9 -25 20 -47
11 -22 19 -43 20 -46 0 -4 12 -33 27 -65 15 -33 28 -61 29 -64 1 -9 23 -59 49
-116 14 -30 25 -60 25 -67 0 -7 4 -17 8 -23 5 -5 15 -25 22 -44 8 -19 38 -86
67 -148 29 -63 65 -141 79 -175 14 -34 29 -71 34 -82 12 -28 51 -116 91 -205
38 -85 87 -168 113 -190 12 -9 49 -16 111 -18 91 -4 94 -4 123 24 27 27 132
228 132 254 0 7 6 26 14 43 32 71 88 203 91 212 3 13 29 74 66 154 16 35 29
67 29 72 0 5 9 28 19 52 45 100 64 143 67 152 2 9 62 147 105 242 10 24 19 45
19 49 0 3 11 30 25 60 14 30 36 82 50 117 15 34 32 76 40 92 32 71 65 153 65
163 0 6 4 12 10 14 5 2 11 12 13 23 2 11 18 51 35 89 18 38 32 70 32 71 0 1 8
20 17 41 9 22 17 41 18 44 3 9 35 85 49 115 8 17 29 66 46 110 18 44 35 85 39
90 3 6 6 12 6 15 1 3 9 23 19 45 25 56 39 89 41 95 1 3 9 23 19 45 10 22 19
45 20 50 1 6 4 15 8 20 3 6 22 51 43 100 37 91 50 122 78 185 45 100 56 130
49 130 -4 0 -2 4 4 8 10 7 57 99 60 117 0 6 8 27 18 47 9 21 16 42 16 48 0 5
5 10 11 10 6 0 9 6 6 14 -3 7 1 23 9 35 8 12 17 31 19 42 11 54 21 41 75 -99
22 -57 50 -125 62 -150 12 -26 23 -49 23 -52 2 -7 15 -37 42 -99 12 -29 23
-60 23 -67 0 -8 5 -14 10 -14 6 0 10 -8 10 -18 0 -10 4 -22 8 -27 5 -6 15 -26
22 -45 13 -35 39 -97 65 -155 7 -16 25 -61 40 -100 16 -38 40 -97 55 -130 53
-118 120 -274 120 -281 0 -4 9 -25 19 -48 26 -56 48 -106 61 -141 15 -40 107
-259 131 -312 10 -24 19 -45 19 -48 0 -3 9 -24 19 -48 34 -72 102 -232 105
-242 1 -5 14 -36 29 -69 15 -32 27 -60 27 -62 0 -2 11 -27 24 -56 36 -79 76
-183 76 -196 0 -7 5 -12 12 -12 6 0 9 -3 6 -6 -6 -5 27 -90 53 -136 5 -10 9
-25 9 -33 0 -8 4 -15 8 -15 5 0 9 -6 9 -12 1 -7 47 -121 103 -253 56 -132 102
-246 103 -252 0 -7 4 -13 8 -13 4 0 10 -9 14 -19 3 -11 18 -33 33 -48 26 -27
32 -29 128 -31 l102 -3 31 33 c17 18 31 39 31 46 0 6 5 12 11 12 5 0 8 4 4 9
-3 5 -1 12 5 16 10 6 36 58 102 205 33 73 51 113 53 120 0 3 8 21 17 40 9 19
33 76 53 125 20 50 43 104 50 120 14 30 195 449 217 502 6 15 11 31 10 36 -1
4 3 7 10 7 6 0 9 3 6 6 -4 3 6 33 21 67 39 87 44 101 43 110 -1 4 3 7 10 7 6
0 9 3 5 6 -3 4 5 28 18 55 14 27 25 55 25 64 0 8 5 15 10 15 6 0 10 5 10 11 0
11 45 120 80 194 11 22 44 101 75 175 30 74 62 149 70 165 8 17 29 64 46 105
17 41 39 93 49 115 18 41 44 102 106 254 19 46 45 107 58 135 13 28 49 112 81
186 31 74 60 140 63 145 4 6 7 15 8 20 1 6 54 132 118 281 64 150 116 277 116
283 0 6 5 11 10 11 6 0 10 6 10 13 0 6 24 68 54 137 54 124 68 160 70 170 1 3
10 26 20 50 11 25 27 63 36 85 9 22 41 96 70 165 29 69 56 134 61 145 4 11 17
40 28 65 10 25 20 48 20 52 1 4 19 46 41 93 22 47 39 86 39 88 0 1 5 16 12 32
7 17 13 32 14 35 1 3 9 23 18 44 10 22 20 50 23 63 4 13 11 23 17 23 6 0 7 3
4 6 -3 4 -1 16 5 28 7 11 13 26 14 31 1 6 16 42 34 80 18 39 49 113 70 165 22
52 55 133 75 180 20 47 38 90 39 95 6 28 31 85 36 85 4 0 7 6 7 13 0 6 28 75
61 152 33 77 62 147 64 155 2 8 5 17 9 20 3 3 33 75 68 160 35 85 68 161 73
168 6 6 8 12 5 12 -6 0 41 111 67 160 7 14 16 38 20 55 4 16 18 54 32 83 13
29 24 55 24 57 0 3 9 24 20 48 10 23 29 67 40 97 12 30 26 60 31 66 5 6 10 19
12 30 2 10 11 37 21 59 10 22 27 62 37 89 11 27 29 69 40 92 10 24 19 45 19
49 0 3 9 24 19 48 53 114 61 149 61 268 0 114 0 116 -29 143 -24 23 -37 27
-92 28 -81 1 -145 -9 -175 -28 -23 -15 -55 -73 -61 -109 -2 -10 -7 -22 -12
-25 -4 -3 -19 -35 -32 -72 -13 -38 -27 -68 -31 -68 -5 0 -8 -7 -8 -14 0 -8
-18 -57 -41 -108 -22 -51 -42 -97 -43 -103 -1 -5 -10 -27 -19 -49 -9 -21 -17
-44 -17 -51 0 -7 -7 -18 -15 -25 -8 -7 -15 -17 -15 -23 0 -10 -74 -189 -121
-292 -62 -139 -76 -174 -71 -179 3 -3 1 -6 -4 -6 -5 0 -10 -10 -11 -22 -1 -11
-7 -24 -12 -28 -6 -3 -12 -15 -14 -25 -5 -25 -11 -39 -58 -142 -20 -45 -34
-84 -31 -87 3 -3 0 -6 -6 -6 -7 0 -12 -6 -12 -14 0 -7 -12 -40 -26 -72 -14
-33 -34 -77 -44 -99 -47 -106 -183 -434 -228 -550 -28 -71 -59 -148 -68 -170
-10 -22 -18 -42 -19 -45 0 -3 -10 -25 -22 -50 -12 -25 -42 -94 -68 -155 -26
-60 -53 -123 -60 -140 -7 -16 -41 -95 -75 -175 -34 -80 -67 -156 -73 -170 -6
-14 -11 -27 -12 -30 -4 -13 -27 -67 -50 -116 -14 -30 -25 -57 -25 -59 0 -3 -9
-24 -19 -48 -48 -106 -201 -457 -201 -462 0 -7 -88 -216 -100 -237 -6 -10 -10
-22 -10 -27 0 -5 -12 -35 -27 -67 -15 -33 -28 -61 -29 -64 0 -3 -7 -18 -14
-35 -7 -16 -14 -34 -16 -40 -3 -11 -123 -290 -160 -373 -13 -29 -24 -54 -24
-56 0 -2 -8 -21 -17 -42 -9 -22 -17 -41 -18 -44 -1 -3 -9 -22 -18 -44 -9 -21
-17 -40 -17 -42 0 -1 -14 -32 -30 -67 -17 -36 -30 -68 -30 -71 0 -4 -9 -25
-20 -49 -38 -82 -250 -589 -250 -597 0 -5 -4 -11 -9 -14 -4 -3 -25 38 -46 92
-20 53 -44 112 -51 130 -62 145 -74 171 -153 351 -28 63 -51 121 -51 128 0 7
-4 13 -10 13 -5 0 -10 8 -10 18 0 10 -5 23 -11 29 -6 6 -12 17 -13 24 -2 8 -8
25 -13 39 -6 14 -25 61 -42 105 -18 44 -38 94 -45 110 -8 17 -28 64 -46 105
-37 88 -48 114 -85 195 -15 33 -30 69 -35 80 -10 26 -33 80 -53 125 -78 181
-199 467 -201 475 -2 6 -10 26 -19 45 -53 114 -124 289 -119 294 3 3 0 6 -6 6
-6 0 -16 17 -23 38 -6 20 -14 42 -18 47 -3 6 -6 12 -7 15 -1 7 -14 38 -35 86
-16 37 -44 106 -71 174 -5 14 -8 25 -7 25 2 0 -5 14 -14 30 -29 52 -128 278
-139 318 -9 33 -8 45 11 81 11 24 21 47 21 51 0 7 7 24 53 125 44 96 55 128
49 134 -3 3 0 6 6 6 7 0 12 6 12 14 0 7 10 35 21 62 25 58 56 129 71 164 5 14
18 40 27 59 9 19 16 37 17 40 0 3 7 20 14 36 7 17 13 33 12 38 -1 4 2 7 7 7 7
0 16 21 26 60 0 3 8 21 17 40 40 82 115 270 109 270 -3 0 -1 4 4 8 9 6 53 102
59 127 1 6 9 26 18 45 29 62 117 274 120 290 2 8 9 21 16 28 7 8 10 18 7 23
-4 5 -1 9 4 9 6 0 11 6 11 14 0 12 19 60 56 143 8 17 14 34 14 37 0 3 12 31
27 63 15 32 28 60 28 63 11 42 18 60 24 60 4 0 8 6 8 13 0 6 9 32 20 57 11 25
26 61 32 80 7 19 17 44 21 55 34 84 35 99 16 182 -8 38 -38 81 -63 92 -13 6
-67 11 -119 11 -95 0 -96 0 -125 -31 -31 -33 -49 -69 -118 -234 -40 -95 -61
-145 -81 -190 -5 -11 -12 -31 -16 -45 -4 -14 -19 -52 -34 -85 -55 -119 -230
-533 -230 -543 0 -6 -5 -12 -10 -14 -6 -2 -12 -13 -13 -26 0 -12 -5 -22 -9
-22 -4 0 -8 -7 -8 -15 0 -14 -9 -35 -32 -75 -11 -20 -22 -49 -27 -72 -2 -10
-31 -76 -65 -150 -14 -31 -26 -64 -26 -72 0 -9 -4 -16 -10 -16 -5 0 -9 -3 -8
-7 1 -9 -8 -31 -45 -113 -14 -31 -34 -78 -45 -105 -11 -28 -31 -72 -43 -100
-13 -27 -24 -54 -25 -60 -1 -5 -8 -26 -16 -45 l-14 -34 -33 69 c-18 39 -49
111 -68 160 -19 50 -46 114 -59 143 -13 28 -35 80 -50 115 -14 34 -31 76 -39
92 -7 17 -36 86 -65 155 -29 69 -65 153 -81 188 -16 35 -29 66 -29 68 0 3 -9
25 -20 50 -20 44 -42 95 -45 104 -1 3 -8 21 -17 40 -55 123 -198 470 -198 479
0 6 -4 11 -8 11 -5 0 -9 6 -9 13 0 6 -12 39 -27 72 -60 132 -66 146 -66 160 0
8 -4 15 -9 15 -5 0 -12 12 -15 26 -4 15 -13 33 -21 41 -8 8 -18 20 -23 28 -16
30 -164 39 -236 15 -53 -17 -80 -73 -80 -165 0 -63 6 -84 57 -202 31 -73 79
-188 106 -255 26 -68 57 -143 68 -168 12 -25 40 -92 63 -150 23 -58 47 -118
55 -135 46 -108 102 -246 103 -255 0 -3 12 -29 27 -58 14 -29 28 -61 30 -72 2
-10 12 -36 22 -57 10 -21 18 -40 18 -43 1 -3 11 -27 23 -54 12 -27 22 -51 22
-53 0 -5 77 -180 126 -290 13 -28 24 -54 24 -57 0 -3 14 -35 30 -71 16 -36 30
-67 30 -69 0 -2 10 -25 22 -52 12 -27 23 -51 23 -54 0 -3 8 -21 17 -40 8 -19
28 -64 43 -100 15 -36 35 -84 46 -107 10 -24 19 -46 19 -49 0 -3 7 -21 15 -40
17 -39 33 -75 68 -159 14 -33 42 -100 63 -150 22 -49 39 -92 39 -95 0 -3 8
-21 17 -40 34 -71 88 -205 88 -217 0 -7 4 -13 8 -13 4 0 14 -17 21 -37 8 -21
45 -110 83 -198 39 -88 74 -169 78 -180 4 -11 37 -90 73 -175 64 -151 89 -210
92 -220 3 -10 18 -46 35 -85 10 -22 39 -89 65 -150 26 -60 53 -123 60 -140 39
-87 64 -146 64 -148 0 -4 32 -79 57 -135 13 -29 24 -55 24 -57 0 -2 24 -60 54
-127 29 -68 70 -163 91 -213 21 -49 45 -106 53 -125 9 -19 17 -41 18 -49 2 -8
6 -17 11 -20 4 -3 9 -10 10 -16 1 -5 29 -75 63 -155 34 -80 67 -156 73 -170 5
-14 10 -28 9 -32 -1 -5 3 -8 10 -8 6 0 8 -3 5 -6 -4 -4 0 -19 8 -33 17 -32 75
-159 75 -165 0 -3 18 -44 40 -91 22 -47 40 -90 40 -94 0 -4 7 -21 15 -38 23
-45 24 -75 3 -111 -10 -18 -18 -39 -18 -47 0 -8 -4 -15 -10 -15 -5 0 -10 -7
-10 -16 0 -9 -6 -30 -14 -47 -77 -173 -103 -237 -98 -241 3 -3 0 -6 -6 -6 -7
0 -11 -3 -10 -7 1 -7 -8 -35 -29 -83 -3 -8 -7 -17 -8 -20 -5 -14 -28 -70 -45
-105 -10 -22 -26 -57 -35 -77 -9 -21 -17 -38 -19 -38 -2 0 -11 21 -21 47 -10
27 -26 66 -35 88 -10 22 -30 69 -45 105 -15 36 -41 93 -56 127 -16 34 -29 65
-29 68 0 3 -9 24 -19 48 -11 23 -36 83 -56 132 -20 50 -43 102 -51 117 -8 15
-14 30 -13 33 1 5 -32 83 -168 395 -17 39 -18 40 -98 230 -32 74 -61 140 -65
145 -5 6 -8 12 -8 15 -1 8 -20 56 -41 103 -11 23 -33 76 -49 117 -29 71 -192
457 -231 544 -10 23 -31 70 -46 106 -15 36 -38 88 -50 115 -13 28 -29 66 -38
85 -32 78 -89 216 -91 225 -2 6 -11 28 -21 50 -9 22 -35 83 -57 135 -22 52
-46 109 -54 127 -8 17 -14 34 -14 38 0 5 -35 86 -130 300 -10 22 -59 137 -108
255 -50 118 -99 233 -108 255 -10 22 -18 42 -19 45 -1 3 -8 21 -17 40 -8 19
-28 64 -43 100 -38 91 -53 126 -86 198 -16 35 -29 66 -29 71 0 4 -13 35 -30
68 -38 79 -61 134 -65 155 -2 10 -16 46 -32 80 -15 35 -28 65 -28 68 -1 3 -18
41 -38 84 -20 43 -37 82 -37 87 0 4 -20 51 -44 103 -25 53 -42 96 -39 96 3 0
-2 11 -11 24 -8 14 -24 46 -35 73 -33 86 -122 297 -148 353 -14 30 -26 60 -27
65 -2 6 -10 28 -20 50 -9 22 -33 78 -53 125 -19 47 -39 91 -45 98 -6 6 -8 12
-5 12 6 0 -73 187 -99 232 -8 15 -15 31 -15 35 0 9 -25 67 -40 95 -5 10 -9 22
-9 28 0 5 -13 38 -29 72 -15 35 -43 99 -61 143 -18 44 -41 99 -51 122 -10 24
-19 46 -19 49 0 22 -68 139 -92 159 -31 26 -51 29 -173 26 -69 -2 -96 -21
-126 -86 -31 -67 -22 -130 34 -257 14 -31 23 -59 19 -62 -3 -3 0 -6 6 -6 7 0
12 -9 12 -19 0 -11 4 -22 9 -25 5 -3 12 -18 16 -33 6 -25 34 -93 85 -208 10
-22 35 -80 55 -130 20 -49 42 -103 50 -120 7 -16 25 -59 40 -95 14 -36 32 -78
39 -95 8 -16 30 -70 51 -120 21 -49 70 -166 111 -260 40 -93 85 -201 99 -240
15 -38 35 -88 45 -110 10 -22 48 -112 85 -200 37 -88 72 -166 77 -172 6 -7 8
-13 5 -13 -3 0 8 -30 24 -67 39 -89 38 -87 104 -243 32 -74 67 -155 78 -180
12 -25 22 -47 22 -50 3 -9 22 -53 49 -112 14 -31 26 -60 26 -65 0 -4 11 -30
24 -58 38 -80 76 -172 76 -184 0 -6 4 -11 8 -11 5 0 9 -6 9 -12 0 -7 14 -43
31 -80 18 -37 32 -69 32 -72 0 -3 11 -29 24 -58 43 -96 88 -201 91 -212 1 -6
15 -38 31 -71 29 -63 38 -149 18 -177 -6 -7 -23 -44 -39 -83 -16 -38 -31 -72
-34 -75 -3 -3 -7 -12 -9 -20 -2 -8 -12 -32 -21 -55 -10 -22 -22 -50 -25 -62
-4 -13 -11 -23 -15 -23 -4 0 -8 -6 -8 -12 0 -7 -21 -60 -46 -118 -25 -58 -47
-112 -49 -120 -2 -8 -5 -17 -8 -20 -3 -3 -14 -25 -24 -50 -10 -25 -29 -69 -42
-98 -13 -29 -24 -59 -24 -66 0 -8 -5 -16 -10 -18 -6 -2 -12 -13 -13 -26 0 -12
-5 -22 -9 -22 -4 0 -7 -3 -6 -7 1 -5 -8 -30 -20 -57 -12 -27 -22 -55 -22 -62
0 -8 -5 -14 -12 -14 -6 0 -9 -3 -6 -6 4 -3 -5 -31 -19 -62 -53 -122 -60 -138
-67 -157 -4 -11 -8 -22 -8 -25 -1 -3 -17 -39 -36 -80 -32 -70 -53 -118 -57
-130 -3 -9 -22 -54 -49 -114 -14 -32 -26 -65 -26 -72 0 -8 -4 -14 -10 -14 -5
0 -10 -7 -10 -15 0 -14 -30 -85 -40 -95 -3 -3 -6 -9 -7 -15 -1 -5 -18 -48 -38
-95 -20 -47 -41 -98 -47 -115 -6 -16 -16 -33 -22 -37 -6 -4 -8 -8 -4 -8 4 0
-6 -30 -23 -67 -17 -38 -31 -70 -31 -73 0 -6 -13 -37 -30 -77 -6 -16 -12 -30
-13 -33 -4 -11 -19 -47 -36 -87 -11 -23 -19 -44 -19 -46 0 -3 -10 -26 -22 -53
-12 -27 -23 -51 -23 -54 -1 -3 -10 -25 -22 -50 -11 -25 -35 -79 -53 -120 -18
-41 -40 -93 -50 -115 -28 -65 -33 -80 -32 -87 1 -5 -2 -8 -7 -8 -5 0 -12 -15
-15 -33 -8 -40 -38 -98 -51 -97 -5 0 -10 3 -11 8 -1 12 -14 43 -49 122 -30 65
-55 124 -60 140 -1 3 -12 28 -24 55 -48 106 -54 120 -56 130 -3 9 -40 96 -135
315 -18 41 -38 89 -45 105 -40 96 -69 165 -85 200 -18 40 -24 53 -75 175 -15
36 -34 81 -43 100 -8 19 -14 36 -13 38 1 1 -6 17 -16 35 -9 17 -18 34 -18 37
-1 3 -8 21 -17 40 -9 19 -24 53 -33 75 -9 22 -23 54 -30 70 -23 54 -60 150
-60 157 0 4 -6 13 -13 19 -6 7 -12 18 -12 24 0 5 -6 22 -14 37 -8 14 -19 43
-26 65 -7 21 -23 59 -36 84 -13 26 -20 49 -17 53 4 3 2 6 -3 6 -6 0 -16 17
-23 38 -8 20 -23 57 -34 82 -62 142 -71 162 -69 173 1 4 -3 7 -9 7 -5 0 -8 4
-4 9 3 5 1 12 -5 16 -5 3 -10 15 -10 26 0 10 -4 19 -10 19 -5 0 -9 3 -8 8 1 4
-6 25 -16 47 -10 22 -46 108 -81 190 -34 83 -84 200 -110 260 -61 141 -75 175
-85 200 -8 23 -16 41 -60 139 -16 38 -30 74 -30 81 0 7 -7 18 -15 25 -9 7 -13
15 -11 18 3 2 -4 22 -14 43 -11 21 -20 45 -20 54 0 8 -4 15 -10 15 -5 0 -10 7
-10 15 0 12 -17 55 -89 220 -5 11 -18 41 -30 67 -12 26 -21 50 -21 53 0 5 -13
34 -51 120 -5 11 -15 38 -23 60 -8 22 -22 58 -32 80 -10 22 -18 42 -19 45 0 3
-15 36 -33 73 -18 38 -32 74 -32 81 0 6 -4 16 -9 22 -5 5 -36 74 -70 154 -34
80 -73 169 -87 198 -13 29 -24 55 -24 57 0 3 -34 81 -75 174 -41 93 -75 172
-75 176 0 4 -14 39 -32 78 -17 40 -39 92 -49 117 -14 38 -109 260 -139 325 -7
17 -66 157 -105 250 -7 17 -28 66 -47 110 -45 100 -73 168 -73 175 -1 3 -8 19
-18 36 -9 17 -13 34 -10 38 4 3 1 6 -5 6 -7 0 -12 5 -12 11 0 10 -33 90 -50
121 -6 10 -10 22 -10 27 0 5 -15 42 -34 83 -19 40 -48 109 -66 153 -78 197
-110 256 -146 274 -37 18 -166 20 -209 3z"/>
</g>
</svg>
